<?xml version="1.0" encoding="UTF-8"?>
<svg width="116px" height="134px" viewBox="0 0 116 134" version="1.1" xmlns="http://www.w3.org/2000/svg" xmlns:xlink="http://www.w3.org/1999/xlink">
    <!-- Generator: Sketch 43.2 (39069) - http://www.bohemiancoding.com/sketch -->
    <title>calculator</title>
    <desc>Created with Sketch.</desc>
    <defs></defs>
    <g id="Page-1" stroke="none" stroke-width="1" fill="none" fill-rule="evenodd">
        <g id="calculator" transform="translate(-1.000000, 0.000000)" fill-rule="nonzero" fill="#4D4D4D">
            <g id="a-link">
                <g id="a">
                    <path d="M106.15,4.78 C109.235245,5.27842975 112.029336,6.89437531 114,9.32 C115.999824,11.7258522 117.064977,14.7721896 117,17.9 L117,116.1 C117.045417,119.236734 115.955045,122.284095 113.93,124.68 C111.96818,127.094208 109.189679,128.70581 106.12,129.21 C90.5876981,132.170389 74.8118985,133.666947 59,133.68 C43.1783848,133.672297 27.3924397,132.179077 11.85,129.22 C8.76411512,128.723366 5.96942607,127.107075 4,124.68 C2.00017636,122.274148 0.935023418,119.22781 1,116.1 L1,17.9 C0.935023418,14.7721896 2.00017636,11.7258522 4,9.32 C5.96181978,6.90579224 8.74032117,5.29419027 11.81,4.79 C27.3553787,1.75626853 43.1614833,0.259059649 59,0.32 C74.8248242,0.258452732 90.6173932,1.75229913 106.15,4.78 L106.15,4.78 Z M25.1,68.78 C21.284504,72.7280099 21.3391832,79.0060976 25.222866,82.8870511 C29.1065487,86.7680046 35.3846734,86.8182705 39.33,83 C42.9282519,79.0205628 42.7705524,72.9176647 38.9715814,69.1293725 C35.1726105,65.3410804 29.0692927,65.2005605 25.1,68.81 L25.1,68.78 Z M39.33,95.6 C35.933482,92.1764788 30.5904872,91.6317734 26.572986,94.2994532 C22.5554847,96.9671331 20.9843998,102.102889 22.8218402,106.561661 C24.6592805,111.020432 29.3925821,113.558178 34.1231415,112.620821 C38.853701,111.683463 42.2616452,107.532534 42.26,102.71 C42.3070183,100.037088 41.2465501,97.4637338 39.33,95.6 Z M94.71,49.14 L94.71,28.64 C94.7321458,27.5756068 94.3290601,26.5462986 93.59,25.78 C92.850663,24.9916454 91.8682753,24.4740433 90.8,24.31 C80.268183,22.7957496 69.6400776,22.0504453 59,22.08 C48.3104252,22.0597928 37.6331228,22.8050318 27.05,24.31 C26.0296096,24.4968217 25.09868,25.0132242 24.4,25.78 C23.6609399,26.5462986 23.2578542,27.5756068 23.28,28.64 L23.28,49.14 C23.2345965,50.3362074 23.6898913,51.4971979 24.5363467,52.3436533 C25.3828021,53.1901087 26.5437926,53.6454035 27.74,53.6 L90.24,53.6 C91.4379084,53.6482644 92.6015762,53.1942346 93.4502614,52.347448 C94.2989465,51.5006615 94.7555814,50.3380135 94.71,49.14 L94.71,49.14 Z M51.89,68.81 C48.4664788,72.206518 47.9217734,77.5495128 50.5894532,81.567014 C53.2571331,85.5845153 58.3928891,87.1556002 62.8516608,85.3181598 C67.3104325,83.4807195 69.8481783,78.7474179 68.9108205,74.0168585 C67.9734627,69.286299 63.8225335,65.8783548 59,65.88 C56.3273146,65.8341797 53.7544172,66.8944596 51.89,68.81 L51.89,68.81 Z M51.89,95.6 C48.4664788,98.996518 47.9217734,104.339513 50.5894532,108.357014 C53.2571331,112.374515 58.3928891,113.9456 62.8516608,112.10816 C67.3104325,110.270719 69.8481783,105.537418 68.9108205,100.806858 C67.9734627,96.076299 63.8225335,92.6683548 59,92.67 C56.3270882,92.6229817 53.7537338,93.6834499 51.89,95.6 L51.89,95.6 Z M78.67,68.81 C75.2464788,72.206518 74.7017734,77.5495128 77.3694532,81.567014 C80.0371331,85.5845153 85.1728891,87.1556002 89.6316608,85.3181598 C94.0904325,83.4807195 96.6281783,78.7474179 95.6908205,74.0168585 C94.7534627,69.286299 90.6025335,65.8783548 85.78,65.88 C83.1073146,65.8341797 80.5344172,66.8944596 78.67,68.81 Z M78.67,95.6 C75.2464788,98.996518 74.7017734,104.339513 77.3694532,108.357014 C80.0371331,112.374515 85.1728891,113.9456 89.6316608,112.10816 C94.0904325,110.270719 96.6281783,105.537418 95.6908205,100.806858 C94.7534627,96.076299 90.6025335,92.6683548 85.78,92.67 C83.1070882,92.6229817 80.5337338,93.6834499 78.67,95.6 Z" id="Shape"></path>
                </g>
            </g>
        </g>
    </g>
</svg>