<svg width="45" height="45" viewBox="0 0 45 45" xmlns="http://www.w3.org/2000/svg"><title>F57F55F6-D44F-4B13-BE33-74BB765E3E99</title><g fill="#00A4A5" fill-rule="evenodd"><path d="M18.505 26.495a.804.804 0 0 1-.759-.546c-.022-.063-.725-1.851-4.035-1.851a.799.799 0 1 1 0-1.598c4.519 0 5.511 2.822 5.553 2.942a.8.8 0 0 1-.759 1.053zM26.493 26.487a.795.795 0 0 1-.757-1.045c.042-.12 1.035-2.942 5.553-2.942a.799.799 0 1 1 0 1.598c-3.31 0-4.013 1.788-4.04 1.862a.808.808 0 0 1-.756.527zM19.304 28.093c0 .44-.36.8-.799.8h-3.196a.801.801 0 0 1-.8-.8c0-.44.36-.799.8-.799h3.196c.44 0 .799.36.799.8zM25.696 28.093c0 .44.36.8.799.8h3.196c.44 0 .8-.36.8-.8 0-.44-.36-.799-.8-.799h-3.196c-.44 0-.799.36-.799.8zM20.103 35.284a.799.799 0 1 1 0 1.598.799.799 0 0 1 0-1.598zm0-1.598a2.399 2.399 0 0 0-2.397 2.397 2.399 2.399 0 0 0 2.397 2.397 2.399 2.399 0 0 0 2.397-2.397 2.399 2.399 0 0 0-2.397-2.397z"/><path d="M22.5.128C9.746.128.128 9.058.128 20.902c0 5.193 1.722 7.177 2.065 7.523.302.3.71.467 1.13.467.037 0 .073-.002.109-.004C4.155 40.775 9.25 44.872 22.5 44.872c13.256 0 18.351-4.103 19.068-16.002.036.004.072.022.108.022.416 0 .825-.162 1.13-.467.344-.346 2.066-2.33 2.066-7.523C44.872 9.06 35.254.128 22.5.128zm0 43.146c-12.77 0-17.107-3.73-17.526-15.59.731-1.175 2.39-4.231 2.954-8.614 1.786.951 4.447 1.832 8.18 1.832 4.836 0 8.627-1.656 11.674-2.984 2.225-.971 4.144-1.81 5.904-1.81 5.49 0 6.269 7.832 6.374 10.445-.18 12.77-4.388 16.721-17.56 16.721zm19.176-15.98c0-4.794-1.598-12.784-7.99-12.784-4.794 0-9.588 4.794-17.578 4.794-4.794 0-7.99-1.598-9.588-3.196 0 6.791-3.196 11.186-3.196 11.186s-1.598-1.598-1.598-6.392c0-11.186 9.127-19.176 20.774-19.176s20.774 7.99 20.774 19.176c0 4.794-1.598 6.392-1.598 6.392z"/></g></svg>