<?xml version="1.0" encoding="UTF-8" standalone="no"?>
<svg width="176px" height="38px" viewBox="0 0 176 38" version="1.1" xmlns="http://www.w3.org/2000/svg" xmlns:xlink="http://www.w3.org/1999/xlink">
    <!-- Generator: Sketch 41 (35326) - http://www.bohemiancoding.com/sketch -->
    <title>met-life</title>
    <desc>Created with Sketch.</desc>
    <defs></defs>
    <g id="Page-1" stroke="none" stroke-width="1" fill="none" fill-rule="evenodd">
        <g id="met-life" fill="#999999">
            <g id="Page-1">
                <g id="Artboard-1">
                    <path d="M18.5121041,12.0877798 C28.4193003,24.3496472 26.3426102,37.5018561 24.2915298,37.5049206 C13.6850911,37.5212647 13.1886681,37.7408443 2.58039158,37.7469733 C0.581690837,37.7469733 0.0110273144,37.1493927 0.00827048584,34.9551991 C-0.00275682861,24.1844464 -0.00275682861,13.4126722 0.00827048584,2.63987653 C0.00827048584,0.341489437 0.923537585,-0.424639596 2.91672467,0.218908792 C8.24895062,1.91619319 13.0426621,5.25023661 16.7477338,9.83842492 C17.323911,10.5432636 17.8752767,11.275683 18.5121041,12.0877798 Z" id="Shape" fill-opacity="0.7"></path>
                    <path d="M29.5121041,12.0877798 C39.4193003,24.3496472 37.3426102,37.5018561 35.2915298,37.5049206 C24.6850911,37.5212647 24.1886681,37.7408443 13.5803916,37.7469733 C11.5816908,37.7469733 11.0110273,37.1493927 11.0082705,34.9551991 C10.9972432,24.1844464 10.9972432,13.4126722 11.0082705,2.63987653 C11.0082705,0.341489437 11.9235376,-0.424639596 13.9167247,0.218908792 C19.2489506,1.91619319 24.0426621,5.25023661 27.7477338,9.83842492 C28.323911,10.5432636 28.8752767,11.275683 29.5121041,12.0877798 Z" id="Shape-Copy" fill-opacity="0.7" transform="translate(24.000000, 18.873487) scale(-1, 1) translate(-24.000000, -18.873487) "></path>
                    <path d="M79.7785043,31.8985484 L73.9230609,31.8985484 L73.2343652,16.6464516 L72.9282783,16.6035484 C71.6447536,19.0265591 70.361229,21.4495699 69.0777043,23.8725806 C68.2696348,25.4048387 67.2411826,25.9043548 65.6250435,25.3833871 C65.2118261,25.2516129 64.8353391,24.7704839 64.5965913,24.3659677 C63.3722435,22.2545161 62.1693217,20.1124194 60.9572174,17.9856452 C60.7090491,17.4996411 60.3387855,17.0866909 59.8828522,16.7874194 L59.2706783,31.9016129 L53.669287,31.9016129 L54.8140522,6.80016129 C56.6016,6.80016129 58.2208,6.7266129 59.8216348,6.85225806 C60.2256696,6.88290323 60.6848,7.49274194 60.941913,7.93709677 C62.610087,10.8606452 64.2262261,13.8148387 65.8637913,16.7567742 C66.1086609,17.1980645 66.3749565,17.6301613 66.7514435,18.2706452 C67.0820174,17.7404839 67.3636174,17.3512903 67.5809391,16.9345161 C69.2154435,13.9343548 70.8744348,10.9433871 72.4538435,7.91258065 C72.8915478,7.06983871 73.4241391,6.71435484 74.3638261,6.75419355 C75.7228522,6.80935484 77.0818783,6.75419355 78.6276174,6.75419355 L79.7785043,31.8985484 Z" id="Shape"></path>
                    <path d="M175.951026,24.8225806 L163.722852,24.8225806 C163.909565,26.6796774 165.026783,27.8043548 166.930643,28.0617742 C168.626365,28.2916129 170.2976,28.1383871 171.828035,27.3079032 C172.271861,27.068871 172.72793,26.8512903 173.35847,26.5417742 C173.738017,27.0872581 174.117565,27.6051613 174.469565,28.1414516 C174.821565,28.6777419 175.167443,29.26 175.626574,29.9801613 C175.014555,30.4366765 174.377956,30.8591945 173.719652,31.2458065 C171.243886,32.5135099 168.417688,32.9220453 165.68487,32.4072581 C162.207722,31.8127419 159.621287,29.9280645 158.592835,26.4467742 C157.466435,22.6253226 157.953113,19.0183871 160.882365,16.0887097 C164.509496,12.4572581 170.922017,12.7790323 173.936974,16.72 C175.693913,19.0429032 176.122435,21.7274194 175.951026,24.8225806 Z M163.615722,21.1451613 L169.34567,21.1451613 C169.737461,21.1451613 170.129252,21.0808065 170.524104,21.0470968 C170.279235,19.1869355 169.195687,18.1879032 167.417322,18.1082258 C165.400209,18.0009677 164.148313,18.9233871 163.615722,21.1451613 Z" id="Shape"></path>
                    <path d="M99.5486609,24.8685484 L87.4643478,24.8685484 C87.7337043,26.7072581 88.7744,27.7798387 90.5864348,28.0587097 C92.2039775,28.3582155 93.8745752,28.1439185 95.3644522,27.4458065 L97.1581217,26.5570968 L99.3986783,29.9801613 C98.8665547,30.4110158 98.3073016,30.8071562 97.7243826,31.166129 C95.1314317,32.5503644 92.1385024,32.9891137 89.2580174,32.4072581 C83.4025739,31.2887097 80.3661913,25.5917742 82.4047304,19.671129 C84.6238609,13.2356452 91.5873391,12.6227419 95.3338435,14.6943548 C98.4742957,16.428871 100.35673,20.7927419 99.5486609,24.8685484 Z M94.3451826,21.0716129 C93.9411478,18.8958065 92.6341565,17.9304839 90.5313391,18.1020968 C88.7590957,18.2491935 87.6082087,19.38 87.5714783,21.0716129 L94.3451826,21.0716129 Z" id="Shape"></path>
                    <polygon id="Shape" points="117.935304 6.88903226 123.65913 6.88903226 123.65913 27.1730645 134.310957 27.1730645 134.310957 31.8525806 117.935304 31.8525806"></polygon>
                    <path d="M144.794435,18.62 L144.794435,14.3296774 L147.393113,14.0416129 C147.515548,10.4714516 148.758261,7.56322581 152.501704,6.46 C155.240483,5.62126719 158.217507,6.24583382 160.389565,8.11483871 C160.046748,8.66951613 159.694748,9.26403226 159.3152,9.84322581 C158.935652,10.4224194 158.571409,10.918871 158.219409,11.4214516 C154.20967,10.3151613 152.810852,11.0537097 153.322017,14.0814516 L157.138922,14.2929032 L157.138922,18.6935484 L153.159791,18.6935484 L153.159791,31.8709677 L147.59513,31.8709677 L147.59513,18.8467742 L144.794435,18.62 Z" id="Shape"></path>
                    <path d="M113.842922,27.1883871 L116.006957,30.4919355 C115.593739,30.8167742 115.272348,31.1048387 114.908104,31.35 C112.860383,32.6524194 110.622887,32.9435484 108.290504,32.4562903 C105.535722,31.8801613 103.892035,29.8483871 103.6992,26.7103226 C103.579826,24.6754839 103.644104,22.6283871 103.6288,20.5812903 L103.6288,18.8314516 L100.938296,18.6108065 L100.938296,14.3204839 L103.573704,14.0140323 L103.573704,9.64709677 L109.202643,9.64709677 L109.202643,14.0569355 C110.1056,14.1090323 110.797357,14.161129 111.489113,14.1825806 C112.18087,14.2040323 112.799165,14.1825806 113.616417,14.1825806 L113.616417,18.6720968 L109.248557,18.6720968 L109.248557,21.2340323 C109.248557,22.6620968 109.217948,24.0932258 109.248557,25.5243548 C109.318957,27.8533871 110.537183,28.588871 112.7104,27.6940323 C113.050157,27.5622581 113.365426,27.4090323 113.842922,27.1883871 Z" id="Shape"></path>
                    <polygon id="Shape" points="142.064139 31.8985484 136.673948 31.8985484 136.673948 14.3235484 142.064139 14.3235484"></polygon>
                    <path d="M139.336904,12.3959677 C137.626432,12.3859439 136.24182,11.0010478 136.230122,9.28854839 C136.265298,7.51762405 137.72092,6.10679372 139.489948,6.12903226 C140.312897,6.15192966 141.091938,6.50576549 141.65118,7.11065085 C142.210421,7.71553622 142.50271,8.52046823 142.462052,9.34370968 C142.47359,10.1701362 142.14547,10.9650091 141.554547,11.5421499 C140.963624,12.1192906 140.161808,12.4279989 139.336904,12.3959677 L139.336904,12.3959677 Z" id="Shape"></path>
                </g>
            </g>
        </g>
    </g>
</svg>
