<?xml version="1.0" encoding="UTF-8"?>
<svg width="77px" height="33px" viewBox="0 0 77 33" version="1.1" xmlns="http://www.w3.org/2000/svg" xmlns:xlink="http://www.w3.org/1999/xlink">
    <!-- Generator: Sketch 43.2 (39069) - http://www.bohemiancoding.com/sketch -->
    <title>Group 4</title>
    <desc>Created with Sketch.</desc>
    <defs></defs>
    <g id="Icons-&amp;-Logos" stroke="none" stroke-width="1" fill="none" fill-rule="evenodd">
        <g id="Artboard" transform="translate(-47.000000, -87.000000)">
            <g id="Group-4" transform="translate(47.000000, 87.000000)">
                <path d="M14.0734,6.44980008 C7.47437778,6.44980008 2.1054,11.8704161 2.1054,18.533704 C2.1054,25.1967451 7.47437778,30.6178548 14.0734,30.6178548 L63.9579111,30.6178548 C70.5564444,30.6178548 75.9256667,25.1967451 75.9256667,18.533704 C75.9256667,11.8704161 70.5564444,6.44980008 63.9579111,6.44980008 L14.0734,6.44980008 Z M63.9579111,31.6472856 L14.0734,31.6472856 C6.91215556,31.6472856 1.08606667,25.7641538 1.08606667,18.533704 C1.08606667,11.3032543 6.91215556,5.42061605 14.0734,5.42061605 L63.9579111,5.42061605 C71.1191556,5.42061605 76.9452444,11.3032543 76.9452444,18.533704 C76.9452444,25.7641538 71.1191556,31.6472856 63.9579111,31.6472856 L63.9579111,31.6472856 Z" id="Fill-2" fill="#BFC0BF"></path>
                <path d="M57.9741556,16.5535737 C56.9807333,16.5535737 56.1745556,15.7408392 56.1745556,14.7375698 C56.1745556,13.7333133 56.9807333,12.9203319 57.9741556,12.9203319 C58.9675778,12.9203319 59.774,13.7333133 59.774,14.7375698 C59.774,15.7408392 58.9675778,16.5535737 57.9741556,16.5535737 M57.9741556,11.1956466 C56.0376667,11.1956466 54.4673556,12.7813797 54.4673556,14.7375698 C54.4673556,16.6927727 56.0376667,18.2772718 57.9741556,18.2772718 C59.9118667,18.2772718 61.4812,16.6927727 61.4812,14.7375698 C61.4812,12.7813797 59.9118667,11.1956466 57.9741556,11.1956466" id="Fill-3" fill="#1A1918"></path>
                <path d="M41.8894667,16.5535737 C40.8970222,16.5535737 40.0910889,15.7408392 40.0910889,14.7375698 C40.0910889,13.7333133 40.8970222,12.9203319 41.8894667,12.9203319 C42.8841111,12.9203319 43.6893111,13.7333133 43.6893111,14.7375698 C43.6893111,15.7408392 42.8841111,16.5535737 41.8894667,16.5535737 M41.8894667,11.1956466 C39.9529778,11.1956466 38.3829111,12.7813797 38.3829111,14.7375698 C38.3829111,16.6927727 39.9529778,18.2772718 41.8894667,18.2772718 C43.8271778,18.2772718 45.3977333,16.6927727 45.3977333,14.7375698 C45.3977333,12.7813797 43.8271778,11.1956466 41.8894667,11.1956466" id="Fill-4" fill="#1A1918"></path>
                <path d="M54.2412444,16.6525432 C54.0195333,16.7177002 53.6802444,16.7818699 53.5511778,16.7818699 C52.9518,16.7818699 52.8212667,16.5733182 52.8212667,15.9940629 L52.8212667,12.7226397 L54.2551778,12.7226397 L54.2551778,11.3555773 L52.8212667,11.3555773 L52.8212667,9.42308067 L51.2079333,9.42308067 L50.8688889,11.3555773 L49.7449333,11.3555773 L49.7449333,11.3565645 L49.6535111,11.3565645 C48.7344,11.3610071 48.0411556,11.9271817 47.5965111,12.8139582 L47.0355111,11.3555773 L45.8785556,11.3555773 L45.8785556,18.1501664 L47.8558667,18.1501664 L47.8558667,15.1939155 C47.8558667,13.7039433 48.7278,12.7520097 49.7613111,12.7226397 L50.8429778,12.7226397 L50.8429778,16.1004366 C50.8429778,17.6903655 51.6501333,18.2817144 52.9645111,18.2817144 C53.6428444,18.2817144 54.1627778,18.1370856 54.4746889,18.0326864 L54.2412444,16.6525432" id="Fill-5" fill="#1A1918"></path>
                <polyline id="Fill-6" fill="#1A1918" points="63.877 13.5050171 63.877 18.1499196 61.9546889 18.1499196 61.9546889 11.3553305 63.1214222 11.3553305 63.5122889 12.3931528"></polyline>
                <path d="M63.5037333,12.3998166 C64.0882,11.7151747 64.8877778,11.1966338 65.8244889,11.1966338 C67.4260889,11.1966338 68.0848667,12.4857053 68.0848667,13.6812371 L68.0848667,18.1501664 L66.1053556,18.1501664 L66.1053556,13.738743 C66.1053556,13.1562792 65.6252667,12.8401197 65.1043556,12.8401197 C64.5499556,12.8401197 64.1935556,13.1607217 63.8804222,13.5030426" id="Fill-7" fill="#1A1918"></path>
                <polyline id="Fill-8" fill="#1A1918" points="30.6699556 8.89590151 32.8733778 8.89590151 35.8991111 14.7146168 35.8991111 8.89590151 37.7241333 8.89590151 37.7241333 18.1511536 35.7277556 18.1511536 32.4957111 11.7531829 32.4957111 18.1511536 30.6699556 18.1511536 30.6699556 8.89590151"></polyline>
                <polyline id="Fill-9" fill="#9E9F9E" points="73.9244 5.42086286 73.9244 5.75232429 73.4443111 5.75232429 73.4443111 7.38248269 73.0695778 7.38248269 73.0695778 5.75232429 72.5982889 5.75232429 72.5982889 5.42086286 73.9244 5.42086286"></polyline>
                <polyline id="Fill-10" fill="#9E9F9E" points="74.1932889 7.3827295 74.1932889 5.42086286 74.7002667 5.42086286 75.0371111 6.70549185 75.3795778 5.42086286 75.8919333 5.42086286 75.8919333 7.3827295 75.5829556 7.3827295 75.5829556 5.84808529 75.5741556 5.84808529 75.1815778 7.3827295 74.9070667 7.3827295 74.5108222 5.84808529 74.5022667 5.84808529 74.5022667 7.3827295 74.1932889 7.3827295"></polyline>
                <path d="M30.1199556,26.3527878 L30.5773111,25.6345803 C30.9488667,25.9117442 31.5064444,26.1691636 32.1864889,26.1691636 C32.8474667,26.1691636 33.2554444,25.8668254 33.2554444,25.3418675 C33.2554444,24.7379314 32.7399111,24.5780007 31.8926667,24.2803518 C31.1329333,24.0108388 30.3859111,23.6238459 30.3859111,22.5371559 C30.3859111,21.5188313 31.1813333,20.9642566 32.2512667,20.9642566 C32.9626,20.9642566 33.4866889,21.1056769 33.9088444,21.3566793 L33.5429111,22.1207929 C33.1887111,21.9349475 32.7655778,21.8088292 32.2683778,21.8088292 C31.6721778,21.8088292 31.3148,22.0358914 31.3148,22.5132156 C31.3148,23.0739605 31.7291333,23.216368 32.5084222,23.4750214 C33.3212,23.7410791 34.2156222,24.1206678 34.2156222,25.324591 C34.2156222,26.3431624 33.4945111,27.0147234 32.2006667,27.0147234 C31.2404889,27.0147234 30.5352667,26.6800535 30.1199556,26.3527878" id="Fill-11" fill="#9E9F9E"></path>
                <polyline id="Fill-12" fill="#9E9F9E" points="35.9506889 21.0568092 39.4149556 21.0568092 39.4149556 21.8697905 36.9365333 21.8697905 36.9365333 23.4750214 38.8938 23.4750214 38.8938 24.2704795 36.9365333 24.2704795 36.9365333 26.1257256 39.5655333 26.1257256 39.5655333 26.9374729 35.9506889 26.9374729 35.9506889 21.0568092"></polyline>
                <path d="M40.9757333,24.0022006 C40.9757333,22.2861534 41.7894889,20.9657375 43.4138222,20.9657375 C44.1412889,20.9657375 44.7162222,21.1982294 45.1210222,21.6743196 L44.5460889,22.3458807 C44.1984889,22.0023257 43.9036889,21.8340035 43.4299556,21.8340035 C42.4763778,21.8340035 42.0361333,22.6218106 42.0361333,24.0772298 C42.0361333,25.443305 42.5008222,26.1355979 43.4385111,26.1355979 C43.9594222,26.1355979 44.3253556,25.8594212 44.6463111,25.516113 L45.2266222,26.1691636 C44.8044667,26.6724025 44.2759778,27.0147234 43.4299556,27.0147234 C41.7550222,27.0147234 40.9757333,25.7256519 40.9757333,24.0022006" id="Fill-13" fill="#9E9F9E"></path>
                <path d="M46.8323778,24.6868424 L46.8323778,21.0568092 L47.8258,21.0568092 L47.8258,24.8487476 C47.8258,25.6572865 48.0240444,26.1864401 48.8690889,26.1864401 C49.7065556,26.1864401 49.9140889,25.6572865 49.9140889,24.8487476 L49.9140889,21.0568092 L50.9172889,21.0568092 L50.9172889,24.6868424 C50.9172889,26.1439893 50.3619111,27.0147234 48.8615111,27.0147234 C47.3858,27.0147234 46.8323778,26.1439893 46.8323778,24.6868424" id="Fill-14" fill="#9E9F9E"></path>
                <path d="M54.758,23.6761689 C55.4964667,23.6761689 55.8763333,23.4338047 55.8763333,22.7545926 C55.8763333,22.101542 55.4888889,21.8688033 54.8159333,21.8688033 L53.8797111,21.8688033 L53.8797111,23.6761689 L54.758,23.6761689 Z M56.9958889,26.938707 L55.9183778,26.938707 L54.8000444,24.4444782 L53.8797111,24.4444782 L53.8797111,26.938707 L52.8936222,26.938707 L52.8936222,21.057056 L54.7936889,21.057056 C55.9699556,21.057056 56.8883333,21.4830444 56.8883333,22.7718691 C56.8883333,23.6512414 56.3662,24.0925318 55.7849111,24.3023176 L56.9958889,26.938707 L56.9958889,26.938707 Z" id="Fill-15" fill="#9E9F9E"></path>
                <polyline id="Fill-16" fill="#9E9F9E" points="58.6823111 21.0568092 62.1463333 21.0568092 62.1463333 21.8697905 59.6671778 21.8697905 59.6671778 23.4750214 61.622 23.4750214 61.622 24.2704795 59.6671778 24.2704795 59.6671778 26.1257256 62.2947111 26.1257256 62.2947111 26.9374729 58.6823111 26.9374729 58.6823111 21.0568092"></polyline>
                <g id="Group-20" transform="translate(0.000000, 4.195714)">
                    <path d="M65.3571111,21.9300113 C66.7169556,21.9300113 67.1818889,21.2964585 67.1818889,19.7803248 C67.1818889,18.4500366 66.8169333,17.6728422 65.4798222,17.6728422 L64.9503556,17.6728422 L64.9503556,21.9300113 L65.3571111,21.9300113 Z M63.9601111,16.8610949 L65.4143111,16.8610949 C67.3131556,16.8610949 68.2256667,17.8989171 68.2256667,19.7803248 C68.2256667,21.6972726 67.2970222,22.7427459 65.4646667,22.7427459 L63.9601111,22.7427459 L63.9601111,16.8610949 L63.9601111,16.8610949 Z" id="Fill-17" fill="#9E9F9E"></path>
                    <path d="M14.0137556,4.66538748 C11.4561333,4.66538748 9.05031111,5.67186529 7.23873333,7.49872866 C5.42935556,9.32657924 4.43275556,11.755651 4.43275556,14.3379897 C4.43275556,16.9198349 5.42935556,19.3489066 7.23873333,21.1779913 C9.04908889,23.0036206 11.4549111,24.0100984 14.0137556,24.0110856 C16.5711333,24.0100984 18.9769556,23.0036206 20.7885333,21.1767572 C22.5957111,19.3489066 23.5925556,16.9198349 23.5935333,14.3379897 C23.5925556,11.755651 22.5957111,9.32657924 20.7875556,7.49774143 C18.9759778,5.67186529 16.5701556,4.66538748 14.0137556,4.66538748 M14.0137556,28.4869255 C6.28735556,28.4869255 0,22.1388098 0,14.3379897 C0,6.53692286 6.28735556,0.190041176 14.0137556,0.190041176 C21.7391778,0.190041176 28.0250667,6.53692286 28.0262889,14.3379897 C28.0250667,22.1388098 21.7391778,28.4869255 14.0137556,28.4869255" id="Fill-19" fill="#F6BC25"></path>
                </g>
                <polygon id="Fill-21" fill="#F6BC25" points="29.2780889 3.30992496 30.3705111 3.30992496 30.3705111 2.20669891 29.2780889 2.20669891"></polygon>
                <polygon id="Fill-22" fill="#F6BC25" points="29.2780889 1.11359193 30.3705111 1.11359193 30.3705111 0.00814462185 29.2780889 0.00814462185"></polygon>
                <polygon id="Fill-23" fill="#F6BC25" points="26.2039556 4.37909168 27.2242667 4.37909168 27.2242667 3.30202714 26.2039556 3.30202714"></polygon>
                <polygon id="Fill-24" fill="#1A1918" points="24.1811778 6.44733202 25.2102889 6.44733202 25.2102889 5.41716076 24.1811778 5.41716076"></polygon>
                <polygon id="Fill-25" fill="#1A1918" points="27.2240222 5.41716076 28.3682667 5.41716076 28.3682667 4.37933849 27.2240222 4.37933849"></polygon>
                <polygon id="Fill-26" fill="#1A1918" points="23.1564667 5.41716076 24.1811778 5.41716076 24.1811778 4.43018067 23.1564667 4.43018067"></polygon>
                <polygon id="Fill-27" fill="#1A1918" points="26.2039556 6.44733202 27.2242667 6.44733202 27.2242667 5.41716076 26.2039556 5.41716076"></polygon>
                <polygon id="Fill-28" fill="#1A1918" points="28.1971556 2.20669891 29.2780889 2.20669891 29.2780889 1.11334513 28.1971556 1.11334513"></polygon>
                <polygon id="Fill-29" fill="#1A1918" points="26.2039556 3.30202714 28.1971556 3.30202714 28.1971556 2.20669891 26.2039556 2.20669891"></polygon>
                <polygon id="Fill-30" fill="#1A1918" points="25.2102889 5.41716076 26.2037111 5.41716076 26.2037111 3.30227395 25.2102889 3.30227395"></polygon>
                <path d="M25.2105333,6.44733202 L25.2105333,7.48540109 L24.1814222,7.48540109 L24.1814222,6.44733202 L22.4742222,6.44733202 L22.4742222,7.19515639 L21.5592667,7.19515639 L21.5592667,8.11771992 L22.5808,8.11771992 L22.5808,9.14591672 L21.5592667,9.14591672 L21.5592667,8.11771992 L20.4732,8.11771992 L20.4732,9.73060185 L19.4462889,9.73060185 L19.4462889,10.7597859 L18.7650222,10.7597859 L18.7650222,11.7934124 L18.0155556,11.7934124 C17.1739333,13.0573097 15.0641333,16.9970854 14.4271111,18.6010823 C12.1278667,15.3711227 10.3431778,14.0909362 8.93737778,13.6279268 C8.1796,13.3974093 7.26586667,14.2311224 8.525,15.5429002 C11.4172667,18.7543492 12.3280667,21.4134449 13.2073333,23.5347487 C13.6725111,24.6532767 15.7573778,24.8272755 16.1761111,23.6880156 C17.0663778,21.2809097 18.3570444,18.5761548 19.8855556,16.3546475 L19.8855556,15.2037877 L20.7015111,15.2037877 L20.7015111,14.1657187 L21.5592667,14.1657187 L21.5592667,12.9627827 L22.5839778,12.9627827 L22.5839778,11.8030379 L21.5475333,11.8030379 L21.5475333,10.7489264 L22.5839778,10.7489264 L22.5839778,11.8030379 L23.5979333,11.8030379 L23.5959778,10.7597859 L24.4085111,10.7597859 L24.4085111,9.50033118 L25.3234667,9.50033118 L25.3234667,8.63403958 L26.2039556,8.63403958 L26.2039556,6.44733202 L25.2105333,6.44733202" id="Fill-31" fill="#1A1918"></path>
            </g>
        </g>
    </g>
</svg>