<?xml version="1.0" encoding="UTF-8"?>
<svg width="33px" height="33px" viewBox="0 0 33 33" version="1.1" xmlns="http://www.w3.org/2000/svg" xmlns:xlink="http://www.w3.org/1999/xlink">
    <!-- Generator: Sketch 43.1 (39012) - http://www.bohemiancoding.com/sketch -->
    <title>add</title>
    <desc>Created with Sketch.</desc>
    <defs></defs>
    <g id="Symbols" stroke="none" stroke-width="1" fill="none" fill-rule="evenodd">
        <g id="Add-Button" transform="translate(-235.000000, -53.000000)" fill="#999999">
            <g id="Group-6">
                <path d="M267.640521,66.4028152 C267.558484,65.5004068 266.82015,64.8030913 265.917741,64.8030913 L255.991249,64.8030913 L255.991249,54.9176178 C255.991249,53.9741909 255.293934,53.2358567 254.432544,53.1538196 C252.422634,52.9487268 250.371706,52.9487268 248.361797,53.1538196 C247.500407,53.2358567 246.803091,53.9741909 246.803091,54.9176178 L246.803091,64.8030913 L236.917618,64.8030913 C235.974191,64.8030913 235.235857,65.5004068 235.15382,66.4028152 C234.948727,68.4127247 234.948727,70.4226343 235.15382,72.4325438 C235.235857,73.3349522 235.974191,73.9912492 236.917618,73.9912492 L246.803091,73.9912492 L246.803091,83.9177412 C246.803091,84.8201496 247.500407,85.5584837 248.361797,85.6405208 C250.371706,85.8456136 252.422634,85.8456136 254.432544,85.6405208 C255.293934,85.5584837 255.991249,84.8201496 255.991249,83.9177412 L255.991249,73.9912492 L265.917741,73.9912492 C266.82015,73.9912492 267.558484,73.3349522 267.640521,72.4325438 C267.845614,70.4226343 267.845614,68.4127247 267.640521,66.4028152 Z" id="add"></path>
            </g>
        </g>
    </g>
</svg>