<svg width="80" height="80" xmlns="http://www.w3.org/2000/svg" xmlns:xlink="http://www.w3.org/1999/xlink" viewBox="0 0 680 170">
  <defs>
    <g id="a">
      <path d="M132.15,22.78A12.73,12.73,0,0,1,140,27.32,13,13,0,0,1,143,35.9V134.1a13,13,0,0,1-3.07,8.58,12.72,12.72,0,0,1-7.81,4.53A252.79,252.79,0,0,1,85,151.68a252.76,252.76,0,0,1-47.15-4.46A12.71,12.71,0,0,1,30,142.68,13,13,0,0,1,27,134.1V35.9A13,13,0,0,1,30,27.32a12.72,12.72,0,0,1,7.81-4.53A241.52,241.52,0,0,1,85,18.32,241.53,241.53,0,0,1,132.15,22.78Zm-81.05,64A10.06,10.06,0,0,0,65.33,101,10.06,10.06,0,0,0,51.1,86.81ZM65.33,113.6a10.1,10.1,0,1,0,2.93,7.11A9.68,9.68,0,0,0,65.33,113.6Zm55.38-46.46V46.64a4,4,0,0,0-1.12-2.86,4.83,4.83,0,0,0-2.79-1.47A219.17,219.17,0,0,0,85,40.08a223.93,223.93,0,0,0-31.95,2.23,4.74,4.74,0,0,0-2.65,1.47,4,4,0,0,0-1.12,2.86V67.14a4.3,4.3,0,0,0,4.46,4.46h62.5A4.3,4.3,0,0,0,120.71,67.14ZM77.89,86.81A10.1,10.1,0,1,0,85,83.88,9.69,9.69,0,0,0,77.89,86.81Zm0,26.79A10.1,10.1,0,1,0,85,110.67,9.68,9.68,0,0,0,77.89,113.6Zm26.78-26.79a10.1,10.1,0,1,0,7.11-2.93A9.69,9.69,0,0,0,104.67,86.81Zm0,26.79a10.1,10.1,0,1,0,7.11-2.93A9.68,9.68,0,0,0,104.67,113.6Z"/>
    </g>
  </defs>
  <use xlink:href="#a" fill="#4d4d4d"/>
  <use xlink:href="#a" x="170" fill="#b3b3b3"/>
  <use xlink:href="#a" x="340" fill="#fff"/>
  <use xlink:href="#a" x="510" fill="#00a4a5"/>
</svg>

