<svg width="80" height="80" xmlns="http://www.w3.org/2000/svg" xmlns:xlink="http://www.w3.org/1999/xlink" viewBox="0 0 680 170">
  <defs>
    <g id="a">
      <path d="M136.52,22a6.19,6.19,0,0,1,3.6,2.4,6.78,6.78,0,0,1,1.34,4.09v79q0,6.07-8.61,16.94a116.91,116.91,0,0,1-19.48,19.41q-10.87,8.54-16.94,8.54l-2.68.14q-1.84.14-6.49,0.14a324.88,324.88,0,0,1-53.35-4.66,7.17,7.17,0,0,1-3.81-2.4,6.35,6.35,0,0,1-1.55-4.23V28.54A6.55,6.55,0,0,1,30,24.31a6.88,6.88,0,0,1,3.88-2.4,324.88,324.88,0,0,1,53.35-4.66q14.4,0,26.68,1.2t16.87,2.19A56.45,56.45,0,0,1,136.52,22ZM51.13,53.38h67.75v-9H51.13v9Zm0,18.07h67.75v-9H51.13v9Zm0,18.07h67.75v-9H51.13v9ZM91.77,139.2a8.76,8.76,0,0,0,6.28-2.68,8.57,8.57,0,0,0,2.75-6.35V116.62a5.61,5.61,0,0,1,4.52-4.52h13.55a9.16,9.16,0,0,0,9-9H105.33a14.28,14.28,0,0,0-13.55,13.55V139.2Z"/>
    </g>
  </defs>
  <use xlink:href="#a" fill="#4d4d4d"/>
  <use xlink:href="#a" x="170" fill="#b3b3b3"/>
  <use xlink:href="#a" x="340" fill="#fff"/>
  <use xlink:href="#a" x="510" fill="#00a4a5"/>
</svg>

