<svg width="80" height="80" xmlns="http://www.w3.org/2000/svg" xmlns:xlink="http://www.w3.org/1999/xlink" viewBox="0 0 680 170">
  <defs>
    <g id="a">
      <path d="M17.84,86h28.7L58.16,66.53a5,5,0,0,1,8.84.56l17.59,40.3L105.7,49.69a5,5,0,0,1,9.45.29l10.77,36.27h25.69c6.58-7.94,11.17-17.54,11-28.77-0.43-22.62-18.26-40.6-39.84-40.16-15.65.32-28.82,10.3-34.8,24.35-1.55,3.83-4.31,3.86-5.9,0C76,27.36,62.42,17.33,46.49,17.33c-21.58,0-39.07,18.34-39.07,41C7.42,70.9,11.38,79.12,17.84,86Z"/>
      <path class="cls-1" d="M160.47,96.22H122.2a5,5,0,0,1-4.77-3.56l-7.55-25.41L89.68,122.48a5,5,0,0,1-9.24.28L61.74,80,53.64,93.53A5,5,0,0,1,49.36,96H9.16c-6.41.47-5.9,10,.36,10l27.16,0c17.47,18.44,40,42.17,41.2,43.31,4.64,4.38,9.25,4.79,14.13,0,1-1,24.62-25.89,41-43.15l27.47,0h0C167,106.14,167.15,96.22,160.47,96.22Z"/>
    </g>
  </defs>
  <use xlink:href="#a" fill="#4d4d4d"/>
  <use xlink:href="#a" x="170" fill="#b3b3b3"/>
  <use xlink:href="#a" x="340" fill="#fff"/>
  <use xlink:href="#a" x="510" fill="#00a4a5"/>
</svg>

