<svg width="80" height="80" xmlns="http://www.w3.org/2000/svg" xmlns:xlink="http://www.w3.org/1999/xlink" viewBox="0 0 208.8 36">
  <defs>
    <g id="icon">
      <path d="M6668.92,816.55q0,16.71-14.74,23.29a2.12,2.12,0,0,1-.68.11,1.59,1.59,0,0,1-1.57-1l-2.64-5.51a1.75,1.75,0,0,1-.08-1.41,1.81,1.81,0,0,1,.93-1.07,18,18,0,0,0,3.8-2.48,7.66,7.66,0,0,0,2.05-3,71.68,71.68,0,0,1-8.16-.62,1.71,1.71,0,0,1-1.57-1.46,53.75,53.75,0,0,1-.73-8.49,50.66,50.66,0,0,1,.73-8.78,1.73,1.73,0,0,1,1.57-1.52,64.78,64.78,0,0,1,9.39-.67,66.71,66.71,0,0,1,9.45.67,1.9,1.9,0,0,1,1,.53,1.59,1.59,0,0,1,.48,1A58.6,58.6,0,0,1,6668.92,816.55Zm28.8,0q0,16.71-14.74,23.29a2.1,2.1,0,0,1-.67.11,1.59,1.59,0,0,1-1.58-1l-2.64-5.51A1.75,1.75,0,0,1,6678,832a1.81,1.81,0,0,1,.93-1.07,18,18,0,0,0,3.8-2.48,7.66,7.66,0,0,0,2.05-3,71.68,71.68,0,0,1-8.16-.62,1.71,1.71,0,0,1-1.57-1.46,51.36,51.36,0,0,1,0-17.27,1.73,1.73,0,0,1,1.57-1.52,64.78,64.78,0,0,1,9.39-.67,66.73,66.73,0,0,1,9.45.67,1.9,1.9,0,0,1,1,.53,1.59,1.59,0,0,1,.48,1A58.6,58.6,0,0,1,6697.73,816.55Z" transform="translate(-6645.53 -803.95)"/>
    </g>
  </defs>
  <use xlink:href="#icon" x="0" y="0" fill="#4d4d4d" />
  <use xlink:href="#icon" x="52.2" y="0" fill="#b3b3b3" />
  <use xlink:href="#icon" x="104.4" y="0" fill="#ffffff" />
  <use xlink:href="#icon" x="156.6" y="0" fill="#00a4a5" />
</svg>

