<?xml version="1.0" encoding="UTF-8" standalone="no"?>
<svg width="24px" height="24px" viewBox="0 0 24 24" version="1.1" xmlns="http://www.w3.org/2000/svg" xmlns:xlink="http://www.w3.org/1999/xlink">
    <!-- Generator: Sketch 41.2 (35397) - http://www.bohemiancoding.com/sketch -->
    <title>Page 1</title>
    <desc>Created with Sketch.</desc>
    <defs></defs>
    <g id="Navigation-2.5" stroke="none" stroke-width="1" fill="none" fill-rule="evenodd">
        <g id="Mobile-Copy" transform="translate(-236.000000, -9.000000)" fill="#4D4D4D">
            <path d="M259.59415,31.8753064 C259.023398,32.4460584 258.122842,32.4460584 257.58371,31.8753064 L251.459533,25.7511299 C249.838134,27.1019629 247.736838,27.9116622 245.455831,27.9116622 C240.23221,27.9116622 236,23.6794523 236,18.4558311 C236,13.2326101 240.23221,9 245.455831,9 C250.679452,9 254.911662,13.2342111 254.911662,18.4558311 C254.911662,20.3774161 254.34091,22.1489085 253.381118,23.6186148 L259.59415,29.8316462 C260.135283,30.4039991 260.135283,31.3045545 259.59415,31.8753064 Z M245.455831,11.9129963 C241.85361,11.9129963 238.910995,14.8552107 238.910995,18.4574321 C238.910995,22.0596535 241.85361,25.0022681 245.455831,25.0022681 C249.058052,25.0022681 252.000667,22.0596535 252.000667,18.4574321 C252.000667,14.8536097 249.087671,11.9129963 245.455831,11.9129963 Z" id="Page-1"></path>
        </g>
    </g>
</svg>