<?xml version="1.0" encoding="UTF-8"?>
<svg width="50px" height="47px" viewBox="0 0 50 47" version="1.1" xmlns="http://www.w3.org/2000/svg" xmlns:xlink="http://www.w3.org/1999/xlink">
    <!-- Generator: Sketch 47 (45396) - http://www.bohemiancoding.com/sketch -->
    <title>Content / Armchair</title>
    <desc>Created with Sketch.</desc>
    <defs></defs>
    <g id="Content" stroke="none" stroke-width="1" fill="none" fill-rule="evenodd">
        <g id="Content-/-Armchair" fill-rule="nonzero" fill="#2B2727">
            <path d="M47.0588235,10.2352941 L46.8823529,10.1764706 C46,9.88235294 44.7647059,9.64705882 44.1764706,9.52941176 C43.8235294,9.05882353 42.9411765,7.88235294 40.7647059,5.05882353 C37.1764706,0.411764706 30.8823529,0.352941176 30.6470588,0.352941176 L24.9411765,0.352941176 L19.2352941,0.352941176 C18.9411765,0.352941176 12.7058824,0.411764706 9.11764706,5.05882353 C6.94117647,7.88235294 6.05882353,9.05882353 5.70588235,9.52941176 C5.11764706,9.64705882 3.88235294,9.88235294 3,10.1764706 L2.82352941,10.2352941 C1.35294118,10.7058824 -0.0588235294,11.5882353 0.529411765,16.0588235 L0.588235294,17.0588235 C1.17647059,21.8823529 2.11764706,29.1764706 4.05882353,31.7647059 C5.88235294,34.1764706 7.29411765,34.7647059 9.47058824,34.8823529 L8.88235294,46.4117647 L10.5882353,46.4117647 L12.8823529,34.8823529 L14.8235294,34.8823529 L14.3529412,41.7647059 L15.6470588,41.7647059 L17.2941176,34.8823529 L24.8823529,34.8823529 L32.2941176,34.8823529 L33.9411765,41.8235294 L35.2941176,41.8235294 L34.8235294,34.8823529 L36.7647059,34.8823529 L39.0588235,46.4705882 L40.7647059,46.4705882 L40.1176471,34.8235294 C42.4117647,34.7058824 43.8235294,34.1764706 45.7058824,31.7058824 C47.6470588,29.1176471 48.5882353,21.8235294 49.1764706,17 L49.2941176,16 C49.9411765,11.5294118 48.5294118,10.7058824 47.0588235,10.2352941 Z M10.4117647,6.05882353 C13.5294118,2.05882353 19.1764706,2 19.2352941,2 L24.9411765,2 L30.5882353,2 C30.6470588,2 36.2941176,2.05882353 39.4117647,6.05882353 C41.2941176,8.52941176 42.2352941,9.70588235 42.6470588,10.2941176 C41.8235294,10.7058824 41.1176471,11.4117647 40.8235294,12.6470588 C40.6470588,13.3529412 40.5882353,14.7058824 40.4705882,16.3529412 C40.4117647,17.0588235 40.3529412,18.1176471 40.2352941,19.3529412 C40.1176471,19.2352941 39.9411765,19.0588235 39.7647059,18.8823529 C38.1176471,17.4117647 34.7058824,17.4117647 34.5882353,17.4117647 C34.4117647,17.4117647 33.9411765,17.4117647 33.2941176,17.3529412 C31.8235294,17.2941176 29.4117647,17.1764706 27.4117647,17.1764706 C26.1176471,17.1764706 25.1176471,17.1764706 24.8235294,17.1764706 C24.5294118,17.1764706 23.5294118,17.1764706 22.2352941,17.1764706 C20.2352941,17.1764706 17.8235294,17.2941176 16.3529412,17.3529412 C15.7058824,17.3529412 15.2352941,17.4117647 15.0588235,17.4117647 C14.9411765,17.4117647 11.4705882,17.4117647 9.88235294,18.8823529 C9.76470588,19 9.64705882,19.1176471 9.52941176,19.1764706 C9.41176471,18 9.35294118,17 9.35294118,16.2941176 C9.23529412,14.6470588 9.17647059,13.2941176 9,12.5882353 C8.76470588,11.4117647 8.05882353,10.7058824 7.17647059,10.2352941 C7.58823529,9.70588235 8.52941176,8.52941176 10.4117647,6.05882353 Z M24.8823529,26.2941176 L24.8823529,26.2941176 C24.7647059,26.2941176 13.6470588,26.4705882 11.1176471,26.1176471 C10.5294118,26.0588235 10.1176471,24.2941176 9.82352941,22.1764706 C10.4117647,22.2941176 11.1764706,22.3529412 12.1764706,22.3529412 L24.8823529,22.3529412 L37.6470588,22.3529412 C38.6470588,22.3529412 39.4117647,22.2941176 40,22.1764706 C39.7058824,24.2352941 39.2941176,26 38.7058824,26.1176471 C36.2941176,26.4117647 26.1764706,26.2941176 24.8823529,26.2941176 Z M24.7647059,18.8823529 L24.7647059,18.8823529 C24.7647059,18.8823529 24.7647059,18.8823529 24.8235294,18.8823529 C24.8823529,18.8823529 24.8823529,18.8823529 24.8823529,18.8823529 L24.8823529,18.8823529 C25.1764706,18.8823529 26.1764706,18.8823529 27.4117647,18.8823529 C29.3529412,18.8823529 31.7647059,19 33.2352941,19.0588235 C33.9411765,19.0588235 34.4117647,19.1176471 34.5882353,19.1176471 C35.5294118,19.1176471 37.8235294,19.3529412 38.7058824,20.1764706 C38.9411765,20.3529412 39.1176471,20.5294118 39.2352941,20.7058824 C38.8823529,20.7647059 38.3529412,20.7647059 37.6470588,20.7647059 L24.8823529,20.7647059 L12.1764706,20.7647059 C11.3529412,20.7647059 10.7647059,20.7058824 10.4117647,20.6470588 C10.5882353,20.4705882 10.7647059,20.3529412 10.9411765,20.1176471 C11.8235294,19.3529412 14.0588235,19.0588235 15.0588235,19.0588235 C15.2352941,19.0588235 15.7647059,19.0588235 16.4705882,19 C17.9411765,18.9411765 20.3529412,18.8235294 22.2941176,18.8235294 C23.4705882,18.8823529 24.4705882,18.8823529 24.7647059,18.8823529 Z M47.7058824,15.8235294 L47.5882353,16.8235294 C47.0588235,21.1764706 46.1176471,28.5294118 44.4117647,30.7058824 C42.7058824,33 41.7058824,33.1764706 39.1764706,33.1764706 L24.8823529,33.1764706 L10.6470588,33.1764706 C8.11764706,33.1764706 7.11764706,33 5.41176471,30.7058824 C3.70588235,28.5294118 2.76470588,21.1764706 2.23529412,16.8235294 L2.11764706,15.8235294 C1.64705882,12.3529412 2.47058824,12.0588235 3.29411765,11.8235294 L3.52941176,11.7647059 C3.88235294,11.6470588 4.23529412,11.5294118 4.64705882,11.4705882 C5,11.4705882 7.05882353,11.4117647 7.35294118,13 C7.47058824,13.5882353 7.58823529,14.9411765 7.64705882,16.4705882 C8.05882353,22.9411765 8.52941176,27.5294118 10.9411765,27.8235294 C12.2352941,28 15.4705882,28.0588235 18.5294118,28.0588235 C21.3529412,28.0588235 24.0588235,28 24.7647059,28 L24.7647059,28 C25,28 27.8823529,28.0588235 31,28.0588235 C34.1764706,28.0588235 37.5882353,28 38.8823529,27.8235294 C41.2941176,27.5294118 41.7647059,22.9411765 42.1764706,16.4705882 C42.2941176,14.9411765 42.3529412,13.5882353 42.4705882,13 C42.8235294,11.4117647 44.8823529,11.4705882 45.1764706,11.4705882 C45.5882353,11.5882353 45.9411765,11.6470588 46.2941176,11.7647059 L46.5294118,11.8235294 C47.3529412,12.0588235 48.1764706,12.3529412 47.7058824,15.8235294 Z" id="Shape"></path>
        </g>
    </g>
</svg>