<?xml version="1.0" encoding="UTF-8"?>
<svg width="42px" height="54px" viewBox="0 0 42 54" version="1.1" xmlns="http://www.w3.org/2000/svg" xmlns:xlink="http://www.w3.org/1999/xlink">
    <!-- Generator: Sketch 47 (45396) - http://www.bohemiancoding.com/sketch -->
    <title>Content / Bag</title>
    <desc>Created with Sketch.</desc>
    <defs></defs>
    <g id="Content" stroke="none" stroke-width="1" fill="none" fill-rule="evenodd">
        <g id="Content-/-Bag" stroke-width="0.25" stroke="#FFFFFF" fill="#2B2727">
            <g id="Group-11">
                <path d="M36.000001,53.8912015 L6.00000016,53.8912015 C2.77032007,53.8912015 0.229680006,51.3529014 0.229680006,48.1208814 L0.229680006,14.6612805 L41.7676811,14.6612805 L41.7676811,48.1232814 C41.7700271,51.3529626 39.2293811,53.8912627 35.999701,53.8912627 L36.000001,53.8912015 Z M2.53800007,16.9702005 L2.53800007,48.1234014 C2.53800007,50.0851014 4.03800011,51.585102 5.99970016,51.585102 L35.999701,51.585102 C37.961401,51.585102 39.4614011,50.0851014 39.4614011,48.1234014 L39.4614011,16.9702005 L2.53800007,16.9702005 Z" id="Fill-1"></path>
                <path d="M10.6146003,30.2380009 C8.65290023,30.2380009 7.15290019,28.7380008 7.15290019,26.7763008 C7.15290019,24.8146007 8.65290023,23.3146007 10.6146003,23.3146007 C12.5763003,23.3146007 14.0763004,24.8146007 14.0763004,26.7763008 C14.0763004,28.7380008 12.5763003,30.2380009 10.6146003,30.2380009 Z M10.6146003,25.6231607 C9.92322027,25.6231607 9.46146026,26.0848788 9.46146026,26.7763008 C9.46146026,27.4676808 9.92317827,27.9294408 10.6146003,27.9294408 C11.3060223,27.9294408 11.7677403,27.4677228 11.7677403,26.7763008 C11.7700863,26.0849208 11.3083683,25.6231607 10.6146003,25.6231607 Z" id="Fill-3"></path>
                <path d="M31.3854008,30.2380009 C29.4237008,30.2380009 27.9237008,28.7380008 27.9237008,26.7763008 C27.9237008,24.8146007 29.4237008,23.3146007 31.3854008,23.3146007 C33.3471009,23.3146007 34.8471009,24.8146007 34.8471009,26.7763008 C34.8471009,28.7380008 33.3471009,30.2380009 31.3854008,30.2380009 Z M31.3854008,25.6231607 C30.6940208,25.6231607 30.2322608,26.0848788 30.2322608,26.7763008 C30.2322608,27.4676808 30.6939788,27.9294408 31.3854008,27.9294408 C32.0768229,27.9294408 32.5385409,27.4677228 32.5385409,26.7763008 C32.5385409,26.0849208 32.0768229,25.6231607 31.3854008,25.6231607 Z" id="Fill-4"></path>
                <path d="M32.5380009,27.0468007 L30.2293808,27.0468007 L30.2293808,12.0468003 C30.2293808,6.97026019 26.0762407,2.81700008 20.9995806,2.81700008 C15.9229204,2.81700008 11.7697803,6.97014019 11.7697803,12.0468003 L11.7697803,27.0468007 L9.46116026,27.0468007 L9.46116026,12.0468003 C9.46116026,5.70000015 14.6525404,0.508800014 20.9991606,0.508800014 C27.3457807,0.508800014 32.5371609,5.70018015 32.5371609,12.0468003 L32.5380009,27.0468007 Z" id="Fill-2"></path>
            </g>
        </g>
    </g>
</svg>