<?xml version="1.0" encoding="UTF-8"?>
<svg width="42px" height="42px" viewBox="0 0 42 42" version="1.1" xmlns="http://www.w3.org/2000/svg" xmlns:xlink="http://www.w3.org/1999/xlink">
    <!-- Generator: Sketch 47 (45396) - http://www.bohemiancoding.com/sketch -->
    <title>Content / Bandaged Head</title>
    <desc>Created with Sketch.</desc>
    <defs></defs>
    <g id="Content" stroke="none" stroke-width="1" fill="none" fill-rule="evenodd">
        <g id="Content-/-Bandaged-Head" fill-rule="nonzero" fill="#2B2727">
            <g id="Group-22">
                <path d="M20.887127,0 C9.3691878,0 0,9.36948407 0,20.887127 C0,32.4050661 9.36948407,41.774254 20.887127,41.774254 C32.4050661,41.774254 41.774254,32.40477 41.774254,20.887127 C41.7781151,9.3691878 32.40477,0 20.887127,0 Z M5.32250447,11.3174812 L36.4547119,11.3174812 C37.3341793,12.7408315 38.0207528,14.2876164 38.4875334,15.930878 L3.29284293,15.930878 C3.75186204,14.2876164 4.44236565,12.7408315 5.32181324,11.3174812 L5.32250447,11.3174812 Z M34.5222183,8.72920356 L15.0540966,8.72920356 L29.9166225,4.99535313 C31.6485595,5.98283077 33.1991957,7.24798712 34.522317,8.72920356 L34.5222183,8.72920356 Z M25.9512086,3.31733238 L8.13019964,7.79179105 C11.4281775,4.5747864 15.9258418,2.58827764 20.8864358,2.58827764 C22.6453309,2.59213868 24.3426075,2.85443248 25.9511099,3.31731263 L25.9512086,3.31733238 Z M20.8865346,39.1864701 C10.7955006,39.1864701 2.58758641,30.9780622 2.58758641,20.887522 C2.58758641,20.0851964 2.65701595,19.2982755 2.75731406,18.5230068 L39.0125555,18.5230068 C39.1128438,19.2983347 39.1822833,20.0851964 39.1822833,20.887522 C39.1861442,30.978556 30.9777265,39.1864701 20.887285,39.1864701 L20.8865346,39.1864701 Z" id="Fill-4" stroke="#FFFFFF"></path>
                <path d="M13.627596,27.2551921 C12.179139,27.2551921 11,26.0760531 11,24.627596 C11,23.179139 12.179139,22 13.627596,22 C15.0760531,22 16.2551921,23.179139 16.2551921,24.627596 C16.2551921,26.0760531 15.0760531,27.2551921 13.627596,27.2551921 Z M13.627596,23.7522913 C13.144791,23.7522913 12.7522913,24.1447868 12.7522913,24.627596 C12.7522913,25.1104011 13.1447868,25.5029008 13.627596,25.5029008 C14.1104011,25.5045447 14.5029008,25.1120449 14.5029008,24.627596 C14.5029008,24.144791 14.1104053,23.7522913 13.627596,23.7522913 Z" id="Fill-2"></path>
                <path d="M29.7814422,27.2551921 C28.3329851,27.2551921 27.1538461,26.0760531 27.1538461,24.627596 C27.1538461,23.179139 28.3329851,22 29.7814422,22 C31.2298993,22 32.4090383,23.179139 32.4090383,24.627596 C32.4090383,26.0760531 31.2298993,27.2551921 29.7814422,27.2551921 Z M29.7814422,23.7522913 C29.2986372,23.7522913 28.9061374,24.1447868 28.9061374,24.627596 C28.9061374,25.1104011 29.298633,25.5029008 29.7814422,25.5029008 C30.2642472,25.5045447 30.656747,25.1120449 30.656747,24.627596 C30.656747,24.144791 30.2642514,23.7522913 29.7814422,23.7522913 Z" id="Fill-2-Copy"></path>
                <path d="M24.5553466,33.7319861 C24.2398435,33.7319861 23.9261313,33.6003738 23.700762,33.3443677 C22.5054697,31.9777984 20.1833313,31.9777984 18.9879928,33.3443677 C18.5751328,33.8149061 17.8593928,33.8653984 17.3870081,33.4507384 C16.9164697,33.0378784 16.8677774,32.3221384 17.2806374,31.8497538 C18.308299,30.6742615 19.7902528,30 21.3443451,30 C22.8984374,30 24.3785912,30.6742615 25.4080528,31.8497538 C25.8209128,32.3220923 25.7722343,33.0378461 25.301682,33.4507384 C25.0871405,33.6382384 24.8202974,33.7319907 24.555282,33.7319907 L24.5553466,33.7319861 Z" id="Fill-1-Copy-2"></path>
            </g>
        </g>
    </g>
</svg>