<?xml version="1.0" encoding="UTF-8"?>
<svg width="42px" height="42px" viewBox="0 0 42 42" version="1.1" xmlns="http://www.w3.org/2000/svg" xmlns:xlink="http://www.w3.org/1999/xlink">
    <!-- Generator: Sketch 47 (45396) - http://www.bohemiancoding.com/sketch -->
    <title>Content / Bandaged Finger</title>
    <desc>Created with Sketch.</desc>
    <defs></defs>
    <g id="Content" stroke="none" stroke-width="1" fill="none" fill-rule="evenodd" stroke-linecap="round" stroke-linejoin="round">
        <g id="Content-/-Bandaged-Finger" stroke-width="2" stroke="#2B2727">
            <g id="Group-16">
                <path d="M0.139892578,28.8079897 L26.2494666,2.70074059 C29.6914263,-0.74121905 35.2918373,-0.717039931 38.7613859,2.75220646 C42.2306246,6.22144511 42.2548037,11.824801 38.8128518,15.2641258 L12.7056027,41.3736998" id="Stroke-1"></path>
                <path d="M35.9997638,13.1605346 C34.2590997,14.9011987 30.8897549,15.4491038 29.1491683,13.7084629 L28.1441074,12.703402 C26.4034433,10.9627379 26.9513484,7.59339314 28.6920357,5.85280653 C30.4326998,4.11214243 33.2540621,4.11214243 34.9947262,5.85280653 L35.9997871,6.85786743 C37.7404512,8.59853153 37.7404512,11.4229162 35.9997871,13.1605579 L35.9997638,13.1605346 Z" id="Stroke-2"></path>
                <path d="M19.1232035,9.82428114 L32.1946524,21.8843919" id="Stroke-3"></path>
                <path d="M16.4441261,12.5033586 L24.792897,29.2830474" id="Stroke-4"></path>
                <path d="M11.3099381,17.6375466 L19.7075322,34.3691872" id="Stroke-5"></path>
                <path d="M4.09262594,24.8548587 L16.4441261,37.6325933" id="Stroke-6"></path>
                <path d="M41.7960703,30.7997763 C41.7960703,33.0445528 40.4519593,34.8633608 38.7930547,34.8633608 C37.1341501,34.8633608 35.7900391,33.0445528 35.7900391,30.7997763 C35.7900391,28.5549998 38.7930547,24.6388578 38.7930547,24.6388578 C38.7930547,24.6388578 41.7960703,28.5590896 41.7960703,30.7997763 Z" id="Stroke-7"></path>
            </g>
        </g>
    </g>
</svg>