<?xml version="1.0" encoding="UTF-8"?>
<svg width="42px" height="58px" viewBox="0 0 42 58" version="1.1" xmlns="http://www.w3.org/2000/svg" xmlns:xlink="http://www.w3.org/1999/xlink">
    <!-- Generator: Sketch 47 (45396) - http://www.bohemiancoding.com/sketch -->
    <title>Content / Birthday Hat</title>
    <desc>Created with Sketch.</desc>
    <defs></defs>
    <g id="Content" stroke="none" stroke-width="1" fill="none" fill-rule="evenodd">
        <g id="Content-/-Birthday-Hat" stroke="#FFFFFF" stroke-width="0.5" fill="#2B2727">
            <path d="M20.9989196,0 C18.5529815,0 16.5445861,2.00839533 16.5445861,4.45433347 C16.5445861,5.6474585 17.0243242,6.73367954 17.7973992,7.53660496 L0.11942237,44.6227491 C0.0373926378,44.7967481 -0.00237819673,44.9881444 0.000109866676,45.1795408 C0.000109866676,48.5078824 2.52807138,51.4956584 6.28390172,53.670773 C10.0397321,55.8458864 15.1677517,57.2700005 20.9991105,57.2700005 C26.8304693,57.2700005 31.9586798,55.8456955 35.7143193,53.670773 C39.4699587,51.4958493 41.9981111,48.5080096 41.9981111,45.1795408 C42.0005992,44.9881444 41.9608284,44.7967481 41.8787986,44.6227491 L24.2008218,7.53660496 C24.9738395,6.73374317 25.4536349,5.6474585 25.4536349,4.45433347 C25.4536349,2.00839533 23.4452395,0 20.9993014,0 L20.9989196,0 Z M20.9989196,2.54533341 C22.0677687,2.54533341 22.9079197,3.38548434 22.9079197,4.45433347 C22.9079197,5.5231826 22.0677687,6.36333353 20.9989196,6.36333353 C19.9300705,6.36333353 19.0899195,5.5231826 19.0899195,4.45433347 C19.0899195,3.38548434 19.9300705,2.54533341 20.9989196,2.54533341 Z M20.0444196,8.78935443 C20.3526467,8.85895657 20.6708134,8.90866694 20.9989196,8.90866694 C21.3270258,8.90866694 21.6451798,8.85895657 21.9534196,8.78935443 L26.2685234,17.8373784 C23.6834191,18.0710336 21.635253,20.265881 21.635253,22.9081916 C21.635253,25.7045585 23.9295529,27.9988584 26.7259198,27.9988584 C28.1551881,27.9988584 29.4576989,27.404784 30.3848366,26.4477959 L39.4131342,45.3984394 C39.2963097,47.3298384 37.6209649,49.6415102 34.4417798,51.4833771 C31.145764,53.3923772 26.4131619,54.724732 20.9992378,54.724732 C15.5853136,54.724732 10.8529025,53.3923772 7.5566957,51.4833771 C4.37751063,49.6415102 2.70217218,47.3298384 2.58534138,45.3984394 L14.7151277,19.9648317 C15.2719194,20.2158843 15.898326,20.36254 16.5445861,20.36254 C18.9905243,20.36254 20.9989196,18.3541447 20.9989196,15.9082065 C20.9989196,14.1756617 19.9897585,12.66437 18.5331279,11.9311231 L20.0444196,8.78935443 Z M17.4393981,14.2379588 C18.0409304,14.5511557 18.4535862,15.1700599 18.4535862,15.9083338 C18.4535862,16.9771829 17.6134353,17.8173339 16.5445861,17.8173339 C16.2786179,17.8173339 16.0375048,17.7725933 15.8088575,17.678136 L17.4393981,14.2379588 Z M26.726047,20.3626673 C27.0218402,20.3626673 27.2853268,20.4297814 27.5413173,20.5217506 L29.1122971,23.7829591 C28.7568477,24.7523493 27.8297036,25.4533341 26.726047,25.4533341 C25.3042238,25.4533341 24.1807136,24.3298239 24.1807136,22.9080007 C24.1807136,21.4861774 25.3042238,20.3626673 26.726047,20.3626673 Z M15.2720467,31.8166676 C11.7722133,31.8166676 8.90871317,34.6801677 8.90871317,38.1800012 C8.90871317,41.6798346 11.7722133,44.5433347 15.2720467,44.5433347 C18.7718801,44.5433347 21.6353802,41.6798346 21.6353802,38.1800012 C21.6353802,34.6801677 18.7718801,31.8166676 15.2720467,31.8166676 Z M15.2720467,34.362001 C17.3947911,34.362001 19.0900468,36.0572567 19.0900468,38.1800012 C19.0900468,40.3027456 17.3947911,41.9980013 15.2720467,41.9980013 C13.1493023,41.9980013 11.4540466,40.3027456 11.4540466,38.1800012 C11.4540466,36.0572567 13.1493023,34.362001 15.2720467,34.362001 Z M29.9077138,38.1800012 C26.7608545,38.1800012 24.1807136,40.760142 24.1807136,43.9070013 C24.1807136,47.0538607 26.7608545,49.6340015 29.9077138,49.6340015 C33.0545731,49.6340015 35.634714,47.0538607 35.634714,43.9070013 C35.634714,40.760142 33.0545731,38.1800012 29.9077138,38.1800012 Z M29.9077138,40.7253346 C31.6800295,40.7253346 33.0893806,42.1346857 33.0893806,43.9070013 C33.0893806,45.679317 31.6800295,47.0886681 29.9077138,47.0886681 C28.1353982,47.0886681 26.726047,45.679317 26.726047,43.9070013 C26.726047,42.1346857 28.1353982,40.7253346 29.9077138,40.7253346 Z" id="Page-1"></path>
        </g>
    </g>
</svg>