<?xml version="1.0" encoding="UTF-8"?>
<svg width="38px" height="53px" viewBox="0 0 38 53" version="1.1" xmlns="http://www.w3.org/2000/svg" xmlns:xlink="http://www.w3.org/1999/xlink">
    <!-- Generator: Sketch 47 (45396) - http://www.bohemiancoding.com/sketch -->
    <title>Content / Bone Jar</title>
    <desc>Created with Sketch.</desc>
    <defs></defs>
    <g id="Content" stroke="none" stroke-width="1" fill="none" fill-rule="evenodd">
        <g id="Content-/-Bone-Jar" fill="#2B2727">
            <g id="Group-20">
                <path d="M31.4236775,11.8743218 L31.4236775,8.46665532 L33.0728888,8.46665532 C33.7325734,8.46665532 34.1716594,8.02755345 34.1716594,7.36788474 L34.1716594,1.09877058 C34.1716594,0.439086033 33.7325575,0 33.0728888,0 L4.92494094,0 C4.26525639,0 3.82617036,0.439101865 3.82617036,1.09877058 L3.82617036,7.36577375 C3.82617036,8.02545829 4.26527222,8.46454433 4.92494094,8.46454433 L6.5741523,8.46454433 L6.5741523,11.8722108 C3.16648581,12.4226516 0.416392884,15.391232 0.416392884,19.019497 L0.416392884,45.5161226 C0.416392884,49.4742304 3.60557185,52.7726532 7.67292287,52.7726532 L30.3227959,52.7726532 C34.2809032,52.7726532 37.5793259,49.5834741 37.5793259,45.5161226 L37.5793259,19.021608 C37.5793259,15.393343 34.9405877,12.4247626 31.4236775,11.8743218 Z M6.0258225,6.26700317 L6.0258225,2.19965215 L31.9741183,2.19965215 L31.9741183,6.26700317 L6.0258225,6.26700317 Z M35.3817847,45.5182336 C35.3817847,48.2662155 33.1821326,50.5751114 30.3249069,50.5751114 L7.67503386,50.5751114 C4.92705193,50.5751114 2.61815602,48.3754593 2.61815602,45.5182336 L2.61609253,19.021608 C2.61609253,16.2736261 4.81574467,13.9647302 7.67297037,13.9647302 C8.33265492,13.9647302 8.77174095,13.5256283 8.77174095,12.8659596 L8.77380444,8.46670809 L29.2240253,8.46670809 L29.2240253,12.9752561 C29.2240253,13.6349407 29.6631272,14.0740267 30.3227959,14.0740267 C33.0707778,14.0740267 35.3796737,16.2736789 35.3796737,19.1309046 L35.3817847,45.5182336 Z" id="Fill-1"></path>
                <path d="M28.6735845,21.0006617 C28.4530019,20.3409771 28.1231438,19.7905363 27.6840577,19.2422065 C26.1440901,17.7022389 23.5053519,17.7022389 21.9674953,19.2422065 C20.75737,20.4523319 20.4275277,22.210787 21.198567,23.7507546 L12.1835819,32.7657397 C10.6436143,32.1060552 8.88515919,32.4358974 7.67503386,33.534668 C6.90610556,34.3035963 6.46490854,35.2931231 6.46490854,36.3940047 C6.46490854,37.4927753 6.9040104,38.4823021 7.67503386,39.2533414 C8.11413573,39.6924433 8.77380444,40.1336244 9.43348899,40.2428682 C9.65407167,40.9025528 9.98392977,41.4529935 10.4230158,42.0013233 C11.1919441,42.7702516 12.1814709,43.2114487 13.2823525,43.2114487 C14.3811231,43.2114487 15.3706499,42.7723468 16.1416892,42.0013233 C17.3518145,40.791198 17.6816568,39.0327429 16.9106175,37.4927753 L25.9256026,28.4777902 C27.4655702,29.1374747 29.2240253,28.8076324 30.4341507,27.7088619 C31.203079,26.9399336 31.644276,25.9504067 31.644276,24.8495252 C31.644276,23.7507546 31.2051741,22.7612278 30.4341507,21.9901885 C29.8837099,21.5490231 29.3333219,21.1099054 28.6736373,21.0006617 L28.6735845,21.0006617 Z M28.7849076,26.166836 C28.1252231,26.8265206 27.0264525,26.8265206 26.366768,26.2760956 C25.9276661,25.9462534 25.2679974,25.9462534 24.9381551,26.3853552 L14.7130447,36.6104657 C14.2739428,37.0495675 14.2739428,37.5999925 14.6037851,38.0390785 C15.1542259,38.8080068 15.1542259,39.7975336 14.4945255,40.4572182 C13.8348251,41.1169027 12.6247156,41.1169027 11.9650311,40.4572182 C11.5259292,40.0181163 11.4145903,39.5769351 11.4145903,39.2470929 C11.4145903,38.6966521 10.9754884,38.257566 10.4250635,38.257566 C10.0952212,38.257566 9.65613516,38.1483064 9.21493814,37.7071253 C8.88509586,37.377283 8.66449735,36.938197 8.66449735,36.3877562 C8.66449735,35.9486543 8.88508003,35.3982294 9.21493814,35.0683871 C9.54479624,34.7385448 9.98386644,34.5179463 10.5343072,34.5179463 C10.9734091,34.5179463 11.4145903,34.6272059 11.7444326,34.9570482 C12.1835344,35.2868904 12.8432031,35.2868904 13.1730454,34.8477886 L23.3981558,24.6226781 C23.8372577,24.1835763 23.8372577,23.6331513 23.5074154,23.1940653 C22.9569747,22.425137 22.9569747,21.4356102 23.616675,20.7759256 C24.2763754,20.1162411 25.4864849,20.1162411 26.1461694,20.7759256 C26.5852713,21.2150275 26.6966102,21.6562087 26.6966102,21.9860509 C26.6966102,22.5364917 27.1357121,22.9755778 27.686137,22.9755778 C28.0159793,22.9755778 28.4550654,23.0848373 28.8962624,23.5260185 C29.2261046,23.8558608 29.4467032,24.2949468 29.4467032,24.8453876 C29.3333219,25.2886112 29.224057,25.7277289 28.7849604,26.1668149 L28.7849076,26.166836 Z" id="Fill-2"></path>
            </g>
        </g>
    </g>
</svg>