<?xml version="1.0" encoding="UTF-8"?>
<svg width="44px" height="41px" viewBox="0 0 44 41" version="1.1" xmlns="http://www.w3.org/2000/svg" xmlns:xlink="http://www.w3.org/1999/xlink">
    <!-- Generator: Sketch 47 (45396) - http://www.bohemiancoding.com/sketch -->
    <title>Content / Books</title>
    <desc>Created with Sketch.</desc>
    <defs></defs>
    <g id="Content" stroke="none" stroke-width="1" fill="none" fill-rule="evenodd">
        <g id="Content-/-Books" fill-rule="nonzero" fill="#2B2727">
            <g id="Group-24">
                <path d="M43.4445278,40.6732625 L0.536352195,40.6732625 C0.240940133,40.6732625 0,40.4122007 0,40.0870151 C0,39.7641217 0.240940133,39.5007676 0.536352195,39.5007676 L43.4445278,39.5007676 C43.7399399,39.5007676 43.98088,39.7641217 43.98088,40.0870151 C43.98088,40.4122007 43.7399399,40.6732625 43.4445278,40.6732625 Z" id="Fill-1"></path>
                <path d="M10.4041599,14.9422753 L5.36330741,14.9422753 C5.06789535,14.9422753 4.82695521,14.6812134 4.82695521,14.3560278 L4.82695521,8.00814031 C4.82695521,7.68524693 5.06789535,7.42189285 5.36330741,7.42189285 L10.4041599,7.42189285 C10.5466257,7.42189285 10.6828109,7.48372437 10.783377,7.59364576 C10.883943,7.70356716 10.9405121,7.85242126 10.9405121,8.00814031 L10.9405121,14.3560278 C10.9405121,14.5117469 10.883943,14.6606009 10.783377,14.7705223 C10.6828109,14.8804437 10.5466257,14.9422753 10.4041599,14.9422753 Z M5.88705533,13.7697803 L9.86780768,13.7697803 L9.86780768,8.59432914 L5.8996596,8.59432914 L5.88705533,13.7697803 Z" id="Fill-2"></path>
                <path d="M10.4041599,33.4987661 L5.36330741,33.4987661 C5.06789535,33.4987661 4.82695521,33.235412 4.82695521,32.9125187 L4.82695521,16.625978 C4.82695521,16.3030846 5.06789535,16.0397305 5.36330741,16.0397305 L10.4041599,16.0397305 C10.5466257,16.0397305 10.6828109,16.101562 10.783377,16.2114834 C10.883943,16.3214048 10.9405121,16.4702589 10.9405121,16.625978 L10.9405121,32.9125187 C10.9405121,33.0682377 10.883943,33.2170918 10.783377,33.3270132 C10.6828109,33.4369346 10.5466257,33.4987661 10.4041599,33.4987661 Z M5.88705533,32.3262712 L9.86780768,32.3262712 L9.86780768,17.2122254 L5.8996596,17.2122254 L5.88705533,32.3262712 Z" id="Fill-3"></path>
                <path d="M22.3170785,28.3620659 L17.2657135,28.3620659 C16.9682043,28.3620659 16.7293613,28.101004 16.7293613,27.7758184 L16.7293613,8.00814031 C16.7293613,7.68524693 16.9682043,7.42189285 17.2657135,7.42189285 L22.3191703,7.42189285 L22.3170731,7.42189285 C22.459539,7.42189285 22.5957242,7.48372437 22.6962902,7.59364576 C22.7968562,7.70356716 22.8534253,7.85242126 22.8534253,8.00814031 L22.8534253,27.7758184 C22.8534253,27.9315375 22.7968562,28.0803916 22.6962902,28.190313 C22.5957242,28.3002344 22.459539,28.3620659 22.3170731,28.3620659 L22.3170785,28.3620659 Z M17.7999739,27.189571 L21.7807263,27.189571 L21.7807263,8.59438777 L17.8020657,8.59438777 L17.7999739,27.189571 Z" id="Fill-4"></path>
                <path d="M22.3170785,33.4987661 L17.2657135,33.4987661 C16.9682043,33.4987661 16.7293613,33.235412 16.7293613,32.9125187 L16.7293613,29.7064486 C16.7293613,29.3812629 16.9682043,29.1202011 17.2657135,29.1202011 L22.3191703,29.1202011 L22.3170731,29.1202011 C22.459539,29.1202011 22.5957242,29.1797404 22.6962902,29.291954 C22.7968562,29.4018754 22.8534253,29.5507295 22.8534253,29.7064486 L22.8534253,32.9125187 C22.8534253,33.0682377 22.7968562,33.2170918 22.6962902,33.3270132 C22.5957242,33.4369346 22.459539,33.4987661 22.3170731,33.4987661 L22.3170785,33.4987661 Z M17.7999739,32.3262712 L21.7807263,32.3262712 L21.7807263,30.292696 L17.8020657,30.292696 L17.7999739,32.3262712 Z" id="Fill-5"></path>
                <path d="M12.5248965,40.6732625 L3.21811317,40.6732625 C2.92270111,40.6732625 2.68176098,40.4122007 2.68176098,40.0870151 L2.68176098,2.56717763 C2.68176098,2.24428425 2.92270111,1.98093017 3.21811317,1.98093017 L12.5248965,1.98093017 C12.6652706,1.98093017 12.8035475,2.04276169 12.9041136,2.15268309 C13.0046796,2.26260449 13.0612487,2.41145858 13.0612487,2.56717763 L13.0612487,40.0870151 C13.0612487,40.2427341 13.0046796,40.3915882 12.9041136,40.5015096 C12.8035475,40.611431 12.6652706,40.6732625 12.5248965,40.6732625 Z M3.75446537,39.5007676 L11.9885443,39.5007676 L11.9885443,3.15342509 L3.75446537,3.15342509 L3.75446537,39.5007676 Z" id="Fill-6"></path>
                <path d="M24.4415695,40.6732625 L15.1412225,40.6732625 C14.8437133,40.6732625 14.6048703,40.4122007 14.6048703,40.0870151 L14.6048703,2.56717763 C14.6048703,2.24428425 14.8437133,1.98093017 15.1412225,1.98093017 L24.4415695,1.98093017 C24.5840408,1.98093017 24.7202206,2.04276169 24.8207866,2.15268309 C24.9213527,2.26260449 24.9779217,2.41145858 24.9779217,2.56717763 L24.9779217,40.0870151 C24.9779217,40.2427341 24.9213527,40.3915882 24.8207866,40.5015096 C24.7202206,40.611431 24.5840354,40.6732625 24.4415695,40.6732625 Z M15.6775747,39.5007676 L23.9052173,39.5007676 L23.9052173,3.15342509 L15.6775747,3.15342509 L15.6775747,39.5007676 Z" id="Fill-7"></path>
                <path d="M29.6543765,14.9311366 C29.4050586,14.9402996 29.1829712,14.7616759 29.1180243,14.4983218 L27.6158091,8.36558711 C27.5718121,8.20986806 27.5906703,8.04269373 27.6640003,7.90071046 C27.7373304,7.75872719 27.8630353,7.65796884 28.0075983,7.62132837 L32.8892614,6.19006382 C33.1741985,6.10991207 33.4675027,6.29540663 33.5429675,6.60685059 L35.0451827,12.7395853 C35.0891797,12.8907257 35.0766076,13.0579001 35.0053746,13.1975911 C34.9362335,13.3395744 34.8168147,13.4426249 34.6743434,13.483844 L29.7926803,14.9151086 L29.7947721,14.9151086 C29.7486833,14.926558 29.7025838,14.9334288 29.654398,14.9311424 L29.6543765,14.9311366 Z M28.8079591,8.62428639 L30.0357229,13.6303121 L33.8823872,12.5036031 L32.6546234,7.50220875 L28.8079591,8.62428639 Z" id="Fill-8"></path>
                <path d="M34.0476373,32.8298578 C33.7983194,32.839015 33.576232,32.6603971 33.5112851,32.397043 L29.6708962,16.6897148 C29.59128,16.3805631 29.7547012,16.0599678 30.0354494,15.9683373 L34.9171125,14.5370727 L34.9171125,14.539365 C35.2020496,14.4569269 35.4953538,14.6424156 35.5708186,14.9561517 L39.4279418,30.6839986 C39.5012718,30.9954426 39.3315646,31.316032 39.0466275,31.398517 L34.1859358,32.8297816 C34.139847,32.8366465 34.0937475,32.8366465 34.0476588,32.8297816 L34.0476373,32.8298578 Z M30.8295242,16.9302404 L34.4080124,31.5266297 L38.2546767,30.3999207 L34.6908845,15.82874 L30.8295242,16.9302404 Z" id="Fill-9"></path>
                <path d="M33.6936449,40.3871738 C33.4443269,40.396331 33.2222396,40.2154209 33.1572927,39.9520668 L24.2967544,3.72842246 C24.2213326,3.41927072 24.3889426,3.09867544 24.6717826,3.01390406 L33.6556819,0.38264958 L33.6556819,0.380357352 C33.940619,0.300205599 34.2339232,0.485700158 34.3093879,0.797144122 L43.1967438,37.0207884 C43.272171,37.3345246 43.1024638,37.6528218 42.8154296,37.7375932 L33.8315303,40.3688477 C33.7875333,40.3825893 33.7393421,40.3871679 33.6932534,40.3871679 L33.6936449,40.3871738 Z M25.470293,3.99175896 L34.0519282,39.0839457 L41.9947678,36.7389558 L33.4131327,1.64676912 L25.470293,3.99175896 Z" id="Fill-10"></path>
            </g>
        </g>
    </g>
</svg>