<?xml version="1.0" encoding="UTF-8"?>
<svg width="42px" height="42px" viewBox="0 0 42 42" version="1.1" xmlns="http://www.w3.org/2000/svg" xmlns:xlink="http://www.w3.org/1999/xlink">
    <!-- Generator: Sketch 47 (45396) - http://www.bohemiancoding.com/sketch -->
    <title>Content / Calendar</title>
    <desc>Created with Sketch.</desc>
    <defs></defs>
    <g id="Content" stroke="none" stroke-width="1" fill="none" fill-rule="evenodd">
        <g id="Content-/-Calendar" fill="#2B2727">
            <g id="Group-9">
                <path d="M0,3.68918919 L0,38.3108108 C0,40.1842378 1.53197838,41.7162162 3.40540541,41.7162162 L38.5945946,41.7162162 C40.4680216,41.7162162 42,40.1842378 42,38.3108108 L42,3.68918919 C42,1.81576216 40.4680216,0.283783784 38.5945946,0.283783784 L3.40540541,0.283783784 C1.53197838,0.283783784 0,1.81576216 0,3.68918919 Z M38.5945946,39.4459459 L3.40540541,39.4459459 C2.78017297,39.4459459 2.27027027,38.9360205 2.27027027,38.3108108 L2.27027027,17.5945946 L39.7297297,17.5945946 L39.7297297,38.3108108 C39.7297297,38.9360432 39.2198043,39.4459459 38.5945946,39.4459459 Z M3.40540541,2.55405405 L38.5945946,2.55405405 C39.219827,2.55405405 39.7297297,3.06397946 39.7297297,3.68918919 L39.7297297,15.3243243 L2.27027027,15.3243243 L2.27027027,3.68918919 C2.27027027,3.06395676 2.78019568,2.55405405 3.40540541,2.55405405 Z" id="Fill-1" stroke="#FFFFFF" stroke-width="0.5"></path>
                <path d="M12.4864865,13.6216216 C14.6990919,13.6216216 16.4594595,11.8612541 16.4594595,9.64864865 C16.4594595,7.43604324 14.6990919,5.67567568 12.4864865,5.67567568 C10.2738811,5.67567568 8.51351351,7.43604324 8.51351351,9.64864865 C8.51351351,11.8612541 10.2738811,13.6216216 12.4864865,13.6216216 Z M12.4864865,7.94594595 C13.4508973,7.94594595 14.1891892,8.68423784 14.1891892,9.64864865 C14.1891892,10.6130595 13.4508973,11.3513514 12.4864865,11.3513514 C11.5220757,11.3513514 10.7837838,10.6130595 10.7837838,9.64864865 C10.7837838,8.68423784 11.5220757,7.94594595 12.4864865,7.94594595 Z" id="Fill-2" stroke="#FFFFFF" stroke-width="0.5"></path>
                <path d="M29.5135135,13.6216216 C31.7261189,13.6216216 33.4864865,11.8612541 33.4864865,9.64864865 C33.4864865,7.43604324 31.7261189,5.67567568 29.5135135,5.67567568 C27.3009081,5.67567568 25.5405405,7.43604324 25.5405405,9.64864865 C25.5405405,11.8612541 27.3009081,13.6216216 29.5135135,13.6216216 Z M29.5135135,7.94594595 C30.4779243,7.94594595 31.2162162,8.68423784 31.2162162,9.64864865 C31.2162162,10.6130595 30.4779243,11.3513514 29.5135135,11.3513514 C28.5491027,11.3513514 27.8108108,10.6130595 27.8108108,9.64864865 C27.8108108,8.68423784 28.5491027,7.94594595 29.5135135,7.94594595 Z" id="Fill-3" stroke="#FFFFFF" stroke-width="0.5"></path>
                <path d="M18.8707128,32.8979534 L15.2847448,29.4024125 C14.8920916,28.8999546 14.9355012,28.1829315 15.385892,27.7317028 C15.8362828,27.2804741 16.5519744,27.2369837 17.0534993,27.6303674 L19.7672047,30.2277485 L26.0911076,23.7464331 C26.391134,23.362505 26.8850435,23.1860323 27.3598551,23.2931129 C27.8346666,23.4001934 28.2054588,23.7716754 28.3123405,24.2473703 C28.4192221,24.7230652 28.2430772,25.2178936 27.859862,25.5184781 L20.5910082,32.8008551 C20.3881245,33.0577283 20.0918959,33.2235758 19.7672047,33.2620723 C19.431401,33.267798 19.1077364,33.1363386 18.8707128,32.8979534 Z" id="Shape"></path>
            </g>
        </g>
    </g>
</svg>