<?xml version="1.0" encoding="UTF-8"?>
<svg width="42px" height="32px" viewBox="0 0 42 32" version="1.1" xmlns="http://www.w3.org/2000/svg" xmlns:xlink="http://www.w3.org/1999/xlink">
    <!-- Generator: Sketch 47 (45396) - http://www.bohemiancoding.com/sketch -->
    <title>Content / Car</title>
    <desc>Created with Sketch.</desc>
    <defs></defs>
    <g id="Content" stroke="none" stroke-width="1" fill="none" fill-rule="evenodd">
        <g id="Content-/-Car" fill="#2B2727" stroke="#2B2727">
            <g id="Group-15">
                <path d="M37.3784887,11.4674178 L39.535832,9.31007439 C39.8124144,9.03349204 39.8124144,8.58523046 39.535832,8.30674859 C39.2592497,8.03016623 38.8109881,8.03016623 38.5325062,8.30674859 L36.165337,10.6739178 L31.9784892,3.17937136 C30.9026986,1.25475544 28.8693365,0.0606966457 26.6642367,0.0606966457 L15.3281737,0.0626059288 C13.1231715,0.0626059288 11.0898094,1.25476032 10.0139211,3.18128064 L5.82707331,10.6758271 L3.45990413,8.30865787 C3.18332177,8.03207551 2.7350602,8.03207551 2.45657832,8.30865787 C2.17999596,8.58524023 2.17999596,9.0335018 2.45657832,9.31198368 L4.61392169,11.469327 C1.97207943,12.5813501 0.116166934,15.1926732 0.116166934,18.2406898 C0.116166934,21.8114397 2.66454857,24.7815713 6.04080559,25.4432282 L6.04080559,27.7092688 C6.04080559,29.6663069 7.62780558,31.2533069 9.58484513,31.2533069 C11.5418847,31.2533069 13.1288847,29.6663069 13.1288847,27.7092688 L13.1288847,25.5824447 L28.8880387,25.5805354 L28.8880387,27.7073596 C28.8880387,29.6643996 30.4750387,31.2513996 32.4320783,31.2513996 C34.3891178,31.2513996 35.9761178,29.6643996 35.9761178,27.7073596 L35.9761178,25.4375101 C39.3408508,24.766087 41.8758513,21.8000085 41.8758513,18.2388781 C41.8758513,15.1907639 40.0198914,12.579392 37.378098,11.4675154 L37.3784887,11.4674178 Z M11.2520741,3.8737449 C12.0779977,2.39739543 13.6363829,1.48181851 15.3283202,1.48181851 L26.6643832,1.48181851 C28.3562716,1.48181851 29.91661,2.39739543 30.7406293,3.8737449 L34.662326,10.8951212 L7.3302797,10.8951212 L11.2520741,3.8737449 Z M11.7136762,27.7075549 C11.7136762,28.2969423 11.4771497,28.8234356 11.0899608,29.2106148 C10.7027475,29.5959188 10.1762883,29.8324258 9.58690091,29.8343302 C8.99751353,29.8343302 8.47102018,29.5978037 8.08384101,29.2106148 C7.69853694,28.8234014 7.46203,28.2969423 7.4601256,27.7075549 L7.4601256,25.5807307 L11.713725,25.5807307 L11.7136762,27.7075549 Z M33.9355776,29.2106148 C33.5483643,29.5959188 33.0219051,29.8324258 32.4325177,29.8343302 C31.8431304,29.8343302 31.316637,29.5978037 30.9294578,29.2106148 C30.5441538,28.8234014 30.3076468,28.2969423 30.3057424,27.7075549 L30.3057424,25.5807307 L34.5593468,25.5807307 L34.5593468,27.7075549 C34.5593468,28.2969423 34.3228203,28.8234356 33.9356313,29.2106148 L33.9355776,29.2106148 Z M38.723288,22.4275327 C37.6494018,23.5014189 36.1710991,24.16332 34.5326314,24.16332 L7.46183468,24.16332 C5.82331823,24.16332 4.34696876,23.5014189 3.27117809,22.4275327 C2.19729182,21.3536464 1.53539075,19.8753437 1.53539075,18.2387805 C1.53539075,16.600264 2.19729182,15.1239146 3.27117809,14.0481239 C4.34506436,12.9742376 5.82336706,12.3123366 7.46183468,12.3123366 L34.5341012,12.3123366 C36.1726177,12.3123366 37.6489672,12.9742376 38.7247578,14.0481239 C39.7986441,15.1220102 40.4605452,16.6003129 40.4605452,18.2387805 C40.4586359,19.8753925 39.7967397,21.3536464 38.7228534,22.4275327 L38.723288,22.4275327 Z" id="Fill-1" stroke-width="0.75"></path>
                <path d="M34.5326314,17.174758 C34.2522354,17.174758 33.9794765,17.2872983 33.7810771,17.4856733 C33.5826777,17.6840483 33.4701618,17.9568121 33.4701618,18.2372277 C33.4701618,18.5176237 33.5827021,18.7903826 33.7810771,18.988782 C33.9794521,19.1871814 34.2522159,19.2996973 34.5326314,19.2996973 C34.813047,19.2996973 35.0857864,19.187157 35.2841858,18.988782 C35.4825852,18.790407 35.5951011,18.5176432 35.5951011,18.2372277 C35.5951011,17.9568316 35.4825608,17.6840727 35.2841858,17.4856733 C35.0877201,17.2872983 34.813047,17.174758 34.5326314,17.174758 Z" id="Fill-2"></path>
                <path d="M7.48478025,17.174758 C7.20438421,17.174758 6.9316253,17.2872983 6.73322589,17.4856733 C6.53482648,17.6840483 6.42231062,17.9568121 6.42231062,18.2372277 C6.42231062,18.5176237 6.53485089,18.7903826 6.73322589,18.988782 C6.93160089,19.1871814 7.20436468,19.2996973 7.48478025,19.2996973 C7.76519583,19.2996973 8.0379352,19.187157 8.23633462,18.988782 C8.43473403,18.790407 8.54724989,18.5176432 8.54724989,18.2372277 C8.54724989,17.9568316 8.43470962,17.6840727 8.23633462,17.4856733 C8.03795962,17.2872739 7.76519583,17.174758 7.48478025,17.174758 Z" id="Fill-3"></path>
            </g>
        </g>
    </g>
</svg>