<?xml version="1.0" encoding="UTF-8"?>
<svg width="73px" height="94px" viewBox="0 0 73 94" version="1.1" xmlns="http://www.w3.org/2000/svg" xmlns:xlink="http://www.w3.org/1999/xlink">
    <!-- Generator: Sketch 47 (45396) - http://www.bohemiancoding.com/sketch -->
    <title>Content / Checklist</title>
    <desc>Created with Sketch.</desc>
    <defs></defs>
    <g id="Content" stroke="none" stroke-width="1" fill="none" fill-rule="evenodd">
        <g id="Content-/-Checklist">
            <g id="Group-27">
                <path d="M0.81751265,92.6744028 C0.381056202,92.1900851 0.173446199,91.5409472 0.173446199,90.8889567 L0.173446199,3.08450577 C0.173446199,2.60177289 0.279628415,2.11713824 0.53161307,1.70508786 C1.0114933,0.9215582 1.82354952,0.475275931 2.70470343,0.475275931 L70.0844506,0.475275931 C70.5655987,0.475275931 71.0489655,0.58177511 71.4591141,0.83375977 C72.2394741,1.31363999 72.6870243,2.12569621 72.6870243,3.00653316 L72.6870243,90.8924433 C72.6870243,91.5415812 72.481633,92.1878664 72.0480292,92.6705992 C71.5608589,93.2135549 70.8822436,93.5168873 70.1567179,93.5168873 L2.70470343,93.5168873 C1.98203044,93.5168873 1.30563388,93.2157736 0.81751265,92.6744028 Z" id="Fill-3" stroke="#2B2727" stroke-width="2" fill-rule="nonzero"></path>
                <path d="M28.0374601,35.4429085 L53.5687108,35.4429085" id="Line" stroke="#2B2727" stroke-width="2" stroke-linecap="round"></path>
                <path d="M28.0374601,58.7483093 L53.5687108,58.7483093" id="Line" stroke="#2B2727" stroke-width="2" stroke-linecap="round"></path>
                <path d="M28.0374601,82.9312361 L53.5687108,82.9312361" id="Line" stroke="#2B2727" stroke-width="2" stroke-linecap="round"></path>
                <path d="M28.0374601,28.145232 L64.605869,28.145232" id="Line" stroke="#2B2727" stroke-width="2" stroke-linecap="round"></path>
                <path d="M28.0374601,51.4506328 L64.605869,51.4506328" id="Line" stroke="#2B2727" stroke-width="2" stroke-linecap="round"></path>
                <path d="M28.0374601,75.6335596 L64.605869,75.6335596" id="Line" stroke="#2B2727" stroke-width="2" stroke-linecap="round"></path>
                <path d="M7.2901278,13.3082394 L23.5633747,13.3082394" id="Line" stroke="#2B2727" stroke-width="2" stroke-linecap="round"></path>
                <path d="M12.2219031,35.9509468 C11.9376009,35.9558825 11.6635762,35.8425612 11.4629044,35.6370671 L8.4269095,32.6238227 C8.09447675,32.1906913 8.13122871,31.5725993 8.51254393,31.1836288 C8.89385915,30.7946583 9.4997865,30.7571685 9.9243935,31.0962752 L12.2219031,33.3352832 L17.5759211,27.7482258 C17.829933,27.4172701 18.2480925,27.2651462 18.6500832,27.3574524 C19.0520738,27.4497585 19.3659983,27.7699853 19.4564877,28.1800463 C19.5469771,28.5901073 19.3978472,29.0166619 19.073405,29.2757733 L12.9193614,35.5533659 C12.7475936,35.7747971 12.496797,35.9177618 12.2219031,35.9509468 L12.2219031,35.9509468 Z" id="Shape" fill="#2B2727" fill-rule="nonzero"></path>
                <path d="M12.2219031,59.5567966 C11.9376009,59.5617324 11.6635762,59.448411 11.4629044,59.242917 L8.4269095,56.2296726 C8.09447675,55.7965412 8.13122871,55.1784492 8.51254393,54.7894787 C8.89385915,54.4005081 9.4997865,54.3630183 9.9243935,54.702125 L12.2219031,56.941133 L17.5759211,51.3540757 C17.829933,51.0231199 18.2480925,50.8709961 18.6500832,50.9633022 C19.0520738,51.0556083 19.3659983,51.3758352 19.4564877,51.7858962 C19.5469771,52.1959572 19.3978472,52.6225117 19.073405,52.8816232 L12.9193614,59.1592158 C12.7475936,59.380647 12.496797,59.5236117 12.2219031,59.5567966 L12.2219031,59.5567966 Z" id="Shape" fill="#2B2727" fill-rule="nonzero"></path>
                <path d="M12.2219031,83.1626465 C11.9376009,83.1675822 11.6635762,83.0542608 11.4629044,82.8487668 L8.4269095,79.8355224 C8.09447675,79.402391 8.13122871,78.784299 8.51254393,78.3953285 C8.89385915,78.006358 9.4997865,77.9688682 9.9243935,78.3079749 L12.2219031,80.5469829 L17.5759211,74.9599255 C17.829933,74.6289698 18.2480925,74.4768459 18.6500832,74.569152 C19.0520738,74.6614582 19.3659983,74.981685 19.4564877,75.391746 C19.5469771,75.801807 19.3978472,76.2283616 19.073405,76.487473 L12.9193614,82.7650656 C12.7475936,82.9864968 12.496797,83.1294615 12.2219031,83.1626465 L12.2219031,83.1626465 Z" id="Shape" fill="#2B2727" fill-rule="nonzero"></path>
            </g>
        </g>
    </g>
</svg>