<?xml version="1.0" encoding="UTF-8"?>
<svg width="42px" height="49px" viewBox="0 0 42 49" version="1.1" xmlns="http://www.w3.org/2000/svg" xmlns:xlink="http://www.w3.org/1999/xlink">
    <!-- Generator: Sketch 47 (45396) - http://www.bohemiancoding.com/sketch -->
    <title>Content / Checklist</title>
    <desc>Created with Sketch.</desc>
    <defs></defs>
    <g id="Content" stroke="none" stroke-width="1" fill="none" fill-rule="evenodd">
        <g id="Content-/-Checklist">
            <g id="Group-6">
                <g id="Group-5" fill="#2B2727">
                    <g id="Group-4">
                        <path d="M41.6507758,12.8698807 L41.6507758,6.30713797 C41.6507758,2.70551785 39.0896055,0.144450005 35.4880878,0.144450005 L6.43467912,0.0644134329 C4.67387455,0.0644134329 3.1532053,0.704706006 2.03264207,1.82521801 C0.912083965,2.94573001 0.271840054,4.54646145 0.271840054,6.22725506 L0.271840054,30.3985558 L0.271840054,41.9238222 C0.271840054,45.3654198 2.83300779,48.0066011 6.27470843,48.0066011 L27.9647525,48.0066011 C29.2453377,48.0066011 30.4459119,47.5263817 31.3262885,46.646005 C34.3676783,43.684678 37.409068,40.6431346 40.4502016,37.6819095 C41.2505673,36.8815437 41.6507758,36.0011671 41.6507758,34.8806038 L41.6507758,12.8704186 L41.6507758,12.8698807 Z M6.35477573,46.1650945 C3.95367858,46.1650945 2.19287401,44.4843522 2.19287401,42.0031928 L2.19287401,30.4779265 L2.19287401,6.30662573 C2.19287401,5.02604058 2.59305686,3.90552858 3.39344819,3.18517382 C4.19381391,2.38480811 5.23431495,1.98459964 6.43483792,1.98459964 L35.4882415,1.98459964 C38.0494118,1.98459964 39.7301542,3.66534203 39.7301542,6.22651232 L39.7301542,12.8696758 L39.7301542,34.3993856 L32.6070274,34.3993856 C29.8857839,34.3993856 28.2850525,36.000117 28.2850525,38.7213604 L28.2850525,46.164633 L27.9649062,46.164633 L6.35477573,46.1650945 Z M30.2858387,45.0445825 L30.2858387,38.6416568 C30.2858387,36.9609144 31.0061423,36.3206218 32.6869359,36.3206218 L39.2496786,36.3206218 C36.2082889,39.2019384 33.2468077,42.1631635 30.2855826,45.0444801 L30.2858387,45.0445825 Z" id="Fill-1"></path>
                    </g>
                </g>
                <path d="M11.372427,15.6590669 L15.996213,9.87933438 C16.3958294,9.38038163 16.3145491,8.65339532 15.8155963,8.25378461 C15.3166436,7.85417391 14.5896573,7.93544851 14.1900465,8.43440125 L10.2661284,13.3381575 L8.85055627,12.2770564 C8.3403157,11.8955016 7.61560082,11.9970977 7.23176878,12.5073441 C6.84795987,13.0175846 6.9518101,13.7422995 7.46205645,14.1261316 L9.77394945,15.8600513 C9.98166148,16.0158324 10.2254911,16.090339 10.467055,16.090339 C10.8079667,16.0925988 11.1443818,15.9435858 11.3723923,15.6591189 L11.372427,15.6590669 Z M11.372427,27.2185319 L15.996213,21.4387994 C16.3958294,20.9398467 16.3145491,20.2128603 15.8155963,19.8132496 C15.3166436,19.4136389 14.5896573,19.4949135 14.1900465,19.9938663 L10.2661284,24.8998766 L8.85055627,23.8365214 C8.3403157,23.4549666 7.61560082,23.5588226 7.23176878,24.0668091 C6.84795987,24.5770497 6.9518101,25.3017645 7.46205645,25.6855966 L9.77394945,27.4195163 C9.98166148,27.5752975 10.2254911,27.649804 10.467055,27.649804 C10.8079667,27.6520639 11.1443818,27.5030508 11.3723923,27.2185839 L11.372427,27.2185319 Z M11.372427,38.7779969 L15.996213,32.9982644 C16.3958294,32.4993117 16.3145491,31.7723254 15.8155963,31.3727146 C15.3166436,30.9731039 14.5896573,31.0543785 14.1900465,31.5533313 L10.2661284,36.4570875 L8.85055627,35.3959864 C8.3403157,35.0121775 7.61560082,35.1160278 7.23176878,35.6262741 C6.84795987,36.1365147 6.9518101,36.8612296 7.46205645,37.2450616 L9.77394945,38.9789813 C9.98166148,39.1347625 10.2254911,39.209269 10.467055,39.209269 C10.8079667,39.2115289 11.1443818,39.0625158 11.3723923,38.7780489 L11.372427,38.7779969 Z" id="Page-1" fill="#2B2727"></path>
                <path d="M21,12 L33.1300001,12" id="Line" stroke="#2B2727" stroke-width="2.5" stroke-linecap="round"></path>
                <path d="M21,24 L33.1300001,24" id="Line" stroke="#2B2727" stroke-width="2.5" stroke-linecap="round"></path>
                <path d="M21,36 L30,36" id="Line" stroke="#2B2727" stroke-width="2.5" stroke-linecap="round"></path>
            </g>
        </g>
    </g>
</svg>