<?xml version="1.0" encoding="UTF-8"?>
<svg width="20px" height="19px" viewBox="0 0 20 19" version="1.1" xmlns="http://www.w3.org/2000/svg" xmlns:xlink="http://www.w3.org/1999/xlink">
    <!-- Generator: Sketch 47 (45396) - http://www.bohemiancoding.com/sketch -->
    <title>Content / Category / Disability</title>
    <desc>Created with Sketch.</desc>
    <defs></defs>
    <g id="Content" stroke="none" stroke-width="1" fill="none" fill-rule="evenodd">
        <g id="Content-/-Category-/-Disability" fill-rule="nonzero" fill="#2B2727">
            <path d="M2.28559798,5.77660538 C2.4611953,5.77660538 2.63678258,5.72657463 2.78786428,5.65103881 C2.98896669,5.55097732 3.19007914,5.4499364 3.36567144,5.3243648 C4.21912235,6.30338228 4.99803693,7.18234832 5.75143639,7.96126291 C5.90250805,7.78566558 6.15365125,7.48451173 6.47932073,7.08229687 C5.80146212,6.35441254 5.07257326,5.54998283 4.2946632,4.64650619 C4.84695523,4.19426562 5.29919582,3.69199931 5.65038042,3.26527386 C6.52934645,4.01867332 7.30826103,4.72204705 8.01063023,5.37439053 C8.26176339,5.09774224 8.53841167,4.8220985 8.78954483,4.54545022 C8.03614537,3.84207648 7.23272018,3.11419215 6.30372843,2.31076697 C6.52935649,1.88404152 6.65491303,1.60739323 6.65491303,1.58288264 C6.88054109,1.00507548 6.57937719,0.352732004 6.00156502,0.126109448 C5.42375786,-0.0995186225 4.77141438,0.201645277 4.52028123,0.779457458 C4.52028123,0.80496254 3.76688177,2.61293038 1.75781655,3.64187313 C1.20552452,3.91852142 0.978901958,4.62089062 1.25555024,5.17418718 C1.45665265,5.54990748 1.85884742,5.77650493 2.28559798,5.77650493 L2.28559798,5.77660538 Z M11.9542243,9.59357817 L11.9797294,9.56807308 C13.1598543,8.43797392 14.4655458,7.03112598 15.9478844,5.29880949 C16.1234817,5.39887098 16.3245841,5.52443756 16.5256916,5.6254835 C16.7012888,5.70101933 16.8768762,5.75105008 17.0279578,5.75105008 C17.4546833,5.75105008 17.831383,5.525422 18.0324905,5.12321719 C18.3091387,4.57092516 18.0825212,3.86755143 17.5302242,3.59090315 C15.5211589,2.58637053 14.7933751,0.802822886 14.7677595,0.728487473 C14.5421314,0.150680315 13.8887934,-0.150478562 13.3109863,0.0751394628 C12.7331792,0.300767533 12.4320203,0.9541055 12.6576383,1.55642325 C12.6831433,1.58192833 12.7832048,1.88309726 13.0088228,2.28430758 C11.7031314,3.38889164 10.5975428,4.41893938 9.64414092,5.34788091 L8.83973633,6.20329066 C8.23741854,6.80560841 7.73515223,7.38341557 7.25739653,7.911197 L6.5295122,8.790163 C4.34485468,11.5026523 3.89261409,13.1094022 3.81702302,13.7128751 L1.38123234,16.1486658 L0.677858606,16.2487273 L0.979017483,16.5498862 L0.677858606,16.2487273 L0,16.9265858 L1.40674747,18.3333333 L2.08460607,17.6554748 L1.7834472,17.3543158 L2.08460607,17.6554748 L2.21017265,16.9275904 L4.64596333,14.4917998 C5.52492936,14.3397462 7.86071881,13.5618286 11.9544403,9.59369875 L11.9542243,9.59357817 Z M9.66851083,10.1713853 L8.78954483,10.9247848 C7.10715361,12.2559914 5.92712915,12.8838243 5.19808961,13.1849832 C5.52476361,12.3060172 6.37821452,10.6991668 8.48843617,8.33786217 L10.0452608,9.89468683 C9.89516858,9.94471758 9.76959192,10.0457585 9.66856108,10.1713351 L9.66851083,10.1713853 Z M10.8486357,9.06582183 L9.24178542,7.45897148 C10.3973997,6.25333145 11.828708,4.84768897 13.6865911,3.26529897 C14.0377757,3.71753955 14.4655057,4.19429073 15.0423083,4.64653131 C13.9622348,5.90219708 12.9832173,6.98227053 12.0786859,7.91126229 L11.2252351,8.7146875 C11.0996685,8.84025408 10.9741019,8.96582067 10.8485353,9.06587208 L10.8486357,9.06582183 Z M18.6337635,16.2740968 L18.3326046,16.5752556 L18.6337635,16.2740968 L17.9303897,16.1485302 L15.4945991,13.7127395 C15.4190632,13.1604474 15.0423585,11.854756 13.4855338,9.694609 C13.2088856,9.97125733 12.9332418,10.2724162 12.6565936,10.5235493 C13.5100445,11.7036743 13.9377744,12.5826403 14.1378773,13.1348318 C13.5600702,12.9092038 12.6811042,12.4569733 11.5009792,11.6025178 C11.1998203,11.8791661 10.8986615,12.1548098 10.6220132,12.3814324 C12.756645,13.9637722 14.0622862,14.3649825 14.6657592,14.4905491 L17.1015499,16.9263398 L17.2271165,17.6542241 L17.5282753,17.3530652 L17.2271165,17.6542241 L17.9049751,18.3320827 L19.3117226,16.9253353 L18.6337635,16.2740968 Z" id="Page-1-Copy-5"></path>
        </g>
    </g>
</svg>