<?xml version="1.0" encoding="UTF-8"?>
<svg width="43px" height="43px" viewBox="0 0 43 43" version="1.1" xmlns="http://www.w3.org/2000/svg" xmlns:xlink="http://www.w3.org/1999/xlink">
    <!-- Generator: Sketch 47 (45396) - http://www.bohemiancoding.com/sketch -->
    <title>Content / Dog Bones</title>
    <desc>Created with Sketch.</desc>
    <defs></defs>
    <g id="Content" stroke="none" stroke-width="1" fill="none" fill-rule="evenodd">
        <g id="Content-/-Dog-Bones" stroke="#2B2727" stroke-width="0.5" fill="#2B2727">
            <path d="M42.2407624,31.827705 C41.6288224,28.677705 39.2663224,27.278265 37.1663224,27.278265 C36.9038224,27.278265 36.6413224,27.278265 36.3788224,27.3652176 C34.9793824,27.6277176 33.4913224,27.1896702 32.5282624,26.2282776 L27.5407624,21.2407776 L32.0902024,16.6913376 C33.2271424,15.5543976 34.8907624,15.0293976 36.6396424,15.2032776 C38.1277024,15.378825 39.6140824,14.853825 40.6640824,13.7152176 C41.6271424,12.7521576 42.1521424,11.5282776 42.1521424,10.2157776 C42.1521424,8.9032776 41.6271424,7.5907776 40.6640824,6.6277176 C39.7010224,5.6646576 38.4771424,5.1396576 37.1646424,5.1396576 C37.1646424,3.0396576 35.7652024,0.6771576 32.6152024,0.065205 C32.3527024,-0.021735 32.0032624,-0.021735 31.7407624,0.065205 C28.2413224,0.6771576 26.7532624,3.4777176 27.1913224,5.9271576 C27.4538224,7.4152176 27.015775,8.8146576 26.0543824,9.7777176 L21.1538224,14.7652176 L16.2532624,9.8646576 C15.2902024,8.9015976 14.8538224,7.5021576 15.1163224,6.0140976 C15.465775,3.5646576 14.0663224,0.7640976 10.5668824,0.152145 C10.3043824,0.065205 9.95494244,0.065205 9.60382244,0.152145 C6.97882244,0.6771576 5.22826244,2.6015976 5.14132244,5.0527176 C5.14132244,5.1396702 5.05436984,5.228265 4.96577504,5.228265 C2.86577462,5.3152176 0.590214618,6.803265 0.06521445,9.866325 C-0.02173815,10.128825 -0.02173815,10.478265 0.06521445,10.740765 C0.677154618,13.890765 3.0396542,15.290205 5.13965504,15.290205 C5.40215504,15.290205 5.66465504,15.290205 5.92715504,15.2032524 C7.32659504,14.9407524 8.81465504,15.3787998 9.68909504,16.3401924 L14.589655,21.2407524 L10.040215,25.7901924 C8.90327504,26.9271324 7.23965504,27.4521324 5.57771504,27.2782524 C4.08965462,27.102705 2.60327462,27.627705 1.55327462,28.6776924 C0.678834618,29.6407524 0.153834538,30.9532524 0.153834538,32.2657524 C0.153834538,33.5782524 0.678834618,34.8907524 1.64189462,35.8538124 C2.42939462,36.6413124 3.47939462,37.1663124 4.61633504,37.3418724 C4.87883504,37.3418724 5.14133504,37.6043724 5.14133504,37.8668724 C5.22828764,39.0038132 5.75327504,40.0538132 6.54077504,40.8413132 C7.50383504,41.8043732 8.72771504,42.3293731 10.040215,42.3293731 C11.352715,42.3293731 12.665215,41.8043732 13.628275,40.8413132 C14.678275,39.7913132 15.203275,38.2163132 15.027715,36.7282524 C14.8521676,35.0663124 15.3771676,33.4026924 16.515775,32.3526924 L21.065215,27.8032524 L26.052715,32.7907524 C27.015775,33.7538124 27.365215,35.0663124 27.102715,36.3788124 C26.664655,38.8282528 27.977155,41.7157528 31.478275,42.4163131 C31.6538224,42.4163131 31.8277276,42.5032657 32.003275,42.5032657 L32.441335,42.5032657 C35.504395,41.9782657 36.990775,39.7027054 37.079395,37.691325 C37.079395,37.6043724 37.1663476,37.428825 37.341895,37.428825 C39.791335,37.2532776 41.628835,35.504385 42.1538224,32.879385 C42.3293824,32.441325 42.3293824,32.090247 42.2408044,31.827747 L42.2407624,31.827705 Z M27.2782624,11.178825 C28.6777024,9.779385 29.2913224,7.853265 28.9402024,5.753265 C28.6777024,4.178265 29.5521424,2.340765 32.0902024,1.902705 L32.3527024,1.902705 C34.7152024,2.340765 35.5027024,4.089645 35.4157624,5.402145 C35.4157624,5.840205 35.5913098,6.276585 35.8538224,6.539085 C36.116335,6.801585 36.5543824,6.977145 36.9907624,6.977145 L37.077715,6.977145 C37.952155,6.977145 38.739655,7.3265976 39.440215,7.940205 C40.052155,8.552145 40.403275,9.339645 40.403275,10.215765 C40.403275,11.090205 40.0538224,11.877705 39.440215,12.491325 C38.739655,13.191885 37.778275,13.541325 36.815215,13.454385 C34.539655,13.191885 32.352715,13.979385 30.864655,15.467445 L26.315215,20.016885 L22.377715,16.079385 L27.2782624,11.178825 Z M15.3788224,31.040205 C13.8907624,32.528265 13.1918824,34.628265 13.4543824,36.902145 C13.541335,37.865205 13.1918824,38.9152054 12.4913224,39.614085 C11.2657624,40.839645 9.07882244,40.839645 7.85326244,39.614085 C7.32826244,39.089085 6.97882244,38.388525 6.89020244,37.601025 C6.80324984,36.551025 5.92714244,35.676585 4.79020244,35.501025 C4.0027016,35.4140724 3.3907616,35.062965 2.86576202,34.537965 C2.25382202,33.927663 1.90434002,33.140163 1.90434002,32.265681 C1.90434002,31.391199 2.25379262,30.603741 2.86740002,29.990121 C3.47934002,29.378181 4.26684002,29.027061 5.14296044,29.027061 L5.49241304,29.027061 C7.76797304,29.289561 9.86797304,28.502061 11.354353,27.014001 L15.903793,22.464561 L19.841293,26.402061 L15.3788224,31.040205 Z M40.4918824,32.441283 C40.0538224,34.628223 38.5674424,35.504343 37.2549424,35.591283 C36.2049424,35.6782356 35.4174424,36.465723 35.3305024,37.428783 C35.2435498,38.6543434 34.3674424,40.3162834 32.0935624,40.6657234 L31.8310624,40.6657234 C29.4685624,40.2276634 28.5055024,38.3032234 28.8566224,36.641283 C29.206075,34.803783 28.681075,32.879343 27.2816224,31.478223 L11.0032624,15.116283 C9.86632244,13.979343 8.37826244,13.365723 6.71632244,13.365723 C6.36686984,13.365723 6.01576244,13.365723 5.66632244,13.4526756 L5.14132244,13.4526756 C3.82882202,13.4526756 2.16688244,12.6651756 1.72882202,10.3896156 L1.72882202,10.1271156 C2.07827462,7.8515556 3.74188244,7.0640556 4.96576244,6.9771156 C5.92882244,6.9771156 6.80326244,6.1026756 6.80326244,5.1396156 C6.89021504,3.8271156 7.67770244,2.3390556 9.86632244,1.9026756 L10.1288224,1.9026756 C12.4913224,2.3407356 13.5413224,4.1782356 13.2788224,5.8401756 C12.9293698,7.8532356 13.5413224,9.8646156 14.9407624,11.2657356 L31.2157624,27.3651756 C32.5282624,28.6776756 34.5413224,29.2896156 36.5527024,29.0271156 L37.0777024,29.0271156 C38.3902024,29.0271156 40.0521424,29.8146156 40.4902024,32.1771156 C40.5787972,32.1787578 40.5787972,32.352663 40.4918446,32.4412578 L40.4918824,32.441283 Z" id="Page-1"></path>
        </g>
    </g>
</svg>