<?xml version="1.0" encoding="UTF-8"?>
<svg width="50px" height="24px" viewBox="0 0 50 24" version="1.1" xmlns="http://www.w3.org/2000/svg" xmlns:xlink="http://www.w3.org/1999/xlink">
    <!-- Generator: Sketch 47 (45396) - http://www.bohemiancoding.com/sketch -->
    <title>Content / Dog Bowl</title>
    <desc>Created with Sketch.</desc>
    <defs></defs>
    <g id="Content" stroke="none" stroke-width="1" fill="none" fill-rule="evenodd">
        <g id="Content-/-Dog-Bowl" fill-rule="nonzero" fill="#2B2727">
            <g id="Group-23">
                <path d="M5.64877049,9.01598361 C5.28237705,9.01598361 4.95696721,9.26270492 4.85942623,9.61598361 L1.67172131,21.0913934 C1.60204918,21.3405738 1.65204918,21.6012295 1.80860656,21.8069672 C1.96516393,22.0127049 2.20286885,22.1307377 2.46106557,22.1307377 L46.7217213,22.1307377 C46.9807377,22.1307377 47.2184426,22.0127049 47.3741803,21.8069672 C47.5315574,21.6012295 47.5807377,21.3405738 47.5110656,21.0922131 L44.3241803,9.61598361 C44.2258197,9.26270492 43.9012295,9.01598361 43.5348361,9.01598361 L5.64877049,9.01598361 Z M46.7217213,23.770082 L2.46106557,23.770082 C1.68565574,23.770082 0.972540984,23.4159836 0.503688525,22.7987705 C0.0340163934,22.1815574 -0.115163934,21.3995902 0.0922131148,20.6528689 L3.27909836,9.17745902 C3.57418033,8.11762295 4.54795082,7.37663934 5.64877049,7.37663934 L43.5348361,7.37663934 C44.6348361,7.37663934 45.6094262,8.11762295 45.9036885,9.17745902 L49.0913934,20.6528689 C49.2987705,21.3995902 49.1487705,22.1815574 48.679918,22.7987705 C48.2110656,23.4159836 47.4979508,23.770082 46.7217213,23.770082 L46.7217213,23.770082 Z" id="Shape"></path>
                <path d="M7.49385246,9.01598361 C7.12991803,9.01598361 6.79631148,8.77090164 6.70122951,8.40122951 C6.60368852,8.02581967 6.55860656,7.70040984 6.55860656,7.37663934 C6.55860656,5.27827869 8.14303279,3.54385246 10.1782787,3.30614754 C10.8143443,1.81516393 12.2815574,0.819262295 13.9356557,0.819262295 C15.3520492,0.819262295 16.6471311,1.55942623 17.3864754,2.72909836 C17.8512295,2.55122951 18.3471311,2.45860656 18.8536885,2.45860656 C20.1618852,2.45860656 21.3684426,3.09057377 22.127459,4.11106557 C22.8528689,3.56188525 23.7118852,3.25614754 24.6741803,3.27909836 C25.0545082,1.4102459 26.7102459,-0.000409836066 28.6897541,-0.000409836066 C30.6692623,-0.000409836066 32.3258197,1.4102459 32.7061475,3.27909836 C32.7340164,3.27827869 32.7610656,3.27827869 32.7881148,3.27827869 C33.3938525,3.27827869 34.5864754,3.44221311 35.4881148,3.82008197 C36.2577869,2.95614754 37.3471311,2.45860656 38.5258197,2.45860656 C40.7856557,2.45860656 42.6241803,4.29713115 42.6241803,6.55696721 C42.6241803,7.27336066 42.4340164,7.96352459 42.0586066,8.60860656 C41.8315574,9.00040984 41.3282787,9.13319672 40.9381148,8.9045082 C40.5463115,8.67663934 40.4143443,8.175 40.6413934,7.78401639 C40.870082,7.39303279 40.9848361,6.97991803 40.9848361,6.55696721 C40.9848361,5.20122951 39.882377,4.09795082 38.5258197,4.09795082 C37.6610656,4.09795082 36.875,4.54959016 36.422541,5.30696721 C36.2995902,5.51352459 36.0913934,5.65614754 35.8536885,5.6954918 C35.6168033,5.73729508 35.372541,5.66844262 35.1881148,5.51188525 C34.8618852,5.23401639 33.582377,4.91762295 32.7881148,4.91762295 C32.6036885,4.91762295 32.4061475,4.94713115 32.1659836,5.0102459 C31.9143443,5.07663934 31.6463115,5.0192623 31.4438525,4.85696721 C31.2413934,4.69467213 31.127459,4.44467213 31.1381148,4.18483607 C31.1389344,4.15696721 31.1471311,4.075 31.1512295,4.04713115 C31.1487705,2.74221311 30.0463115,1.63893443 28.6897541,1.63893443 C27.3340164,1.63893443 26.2307377,2.74221311 26.2307377,4.09795082 L26.2315574,4.09795082 C26.2356557,4.09795082 26.2405738,4.14057377 26.2422131,4.18483607 C26.2528689,4.44467213 26.1389344,4.69467213 25.9364754,4.85696721 C25.7340164,5.02008197 25.4668033,5.07745902 25.2143443,5.0102459 C24.9741803,4.94713115 24.7766393,4.91762295 24.5913934,4.91762295 C23.7963115,4.91762295 23.070082,5.29303279 22.5987705,5.94877049 C22.420082,6.1954918 22.1233607,6.32418033 21.817623,6.28155738 C21.5151639,6.23811475 21.2618852,6.0307377 21.1602459,5.74303279 C20.8127049,4.75942623 19.8856557,4.09795082 18.8536885,4.09795082 C18.3602459,4.09795082 17.8848361,4.24385246 17.4782787,4.5192623 C17.2684426,4.66188525 17.0028689,4.69959016 16.7610656,4.61844262 C16.520082,4.53893443 16.3282787,4.35122951 16.2446721,4.11106557 C15.8987705,3.12254098 14.9709016,2.45860656 13.9356557,2.45860656 C12.817623,2.45860656 11.8422131,3.22090164 11.5635246,4.31188525 C11.4684426,4.68483607 11.125,4.94713115 10.7430328,4.92827869 C10.7127049,4.92745902 10.6307377,4.9192623 10.6004098,4.91516393 C9.30122951,4.91762295 8.19795082,6.02090164 8.19795082,7.37663934 C8.19795082,7.55860656 8.22745902,7.75368852 8.28811475,7.99139344 C8.40122951,8.42991803 8.13811475,8.87663934 7.69959016,8.9897541 C7.6307377,9.00778689 7.56188525,9.01598361 7.49385246,9.01598361" id="Shape"></path>
                <path d="M18.8539344,16.3930328 L30.3293443,16.3930328 C30.782623,16.3930328 31.1490164,16.7602459 31.1490164,17.2127049 C31.1490164,18.1168033 31.8842623,18.8520492 32.7883607,18.8520492 C33.692459,18.8520492 34.4277049,18.1168033 34.4277049,17.2127049 C34.4277049,16.7036885 34.1957377,16.3389344 34.0006557,16.1217213 C33.7195082,15.8102459 33.7195082,15.3364754 34.0006557,15.025 C34.1957377,14.8077869 34.4277049,14.4430328 34.4277049,13.9340164 C34.4277049,13.029918 33.692459,12.2946721 32.7883607,12.2946721 C31.8842623,12.2946721 31.1490164,13.029918 31.1490164,13.9340164 C31.1490164,14.3864754 30.782623,14.7536885 30.3293443,14.7536885 L18.8539344,14.7536885 C18.4006557,14.7536885 18.0342623,14.3864754 18.0342623,13.9340164 C18.0342623,13.029918 17.2990164,12.2946721 16.394918,12.2946721 C15.4908197,12.2946721 14.7555738,13.029918 14.7555738,13.9340164 C14.7555738,14.4430328 14.987541,14.8077869 15.182623,15.025 C15.4637705,15.3364754 15.4637705,15.8102459 15.182623,16.1217213 C14.987541,16.3389344 14.7555738,16.7036885 14.7555738,17.2127049 C14.7555738,18.1168033 15.4908197,18.8520492 16.394918,18.8520492 C17.2990164,18.8520492 18.0342623,18.1168033 18.0342623,17.2127049 C18.0342623,16.7602459 18.4006557,16.3930328 18.8539344,16.3930328 M32.7883607,20.4913934 C31.2637705,20.4913934 29.9777049,19.4446721 29.6137705,18.032377 L19.5695082,18.032377 C19.2055738,19.4446721 17.9195082,20.4913934 16.394918,20.4913934 C14.5867213,20.4913934 13.1162295,19.0209016 13.1162295,17.2127049 C13.1162295,16.6348361 13.2719672,16.0709016 13.5637705,15.5733607 C13.2719672,15.0758197 13.1162295,14.5118852 13.1162295,13.9340164 C13.1162295,12.1258197 14.5867213,10.6553279 16.394918,10.6553279 C17.9195082,10.6553279 19.2055738,11.7020492 19.5695082,13.1143443 L29.6137705,13.1143443 C29.9777049,11.7020492 31.2637705,10.6553279 32.7883607,10.6553279 C34.5965574,10.6553279 36.0670492,12.1258197 36.0670492,13.9340164 C36.0670492,14.5118852 35.9113115,15.0758197 35.6195082,15.5733607 C35.9113115,16.0709016 36.0670492,16.6348361 36.0670492,17.2127049 C36.0670492,19.0209016 34.5965574,20.4913934 32.7883607,20.4913934" id="Shape"></path>
            </g>
        </g>
    </g>
</svg>