<?xml version="1.0" encoding="UTF-8"?>
<svg width="42px" height="55px" viewBox="0 0 42 55" version="1.1" xmlns="http://www.w3.org/2000/svg" xmlns:xlink="http://www.w3.org/1999/xlink">
    <!-- Generator: Sketch 47 (45396) - http://www.bohemiancoding.com/sketch -->
    <title>Content / Dog</title>
    <desc>Created with Sketch.</desc>
    <defs></defs>
    <g id="Content" stroke="none" stroke-width="1" fill="none" fill-rule="evenodd">
        <g id="Content-/-Dog" fill="#2B2727">
            <path d="M39.7115356,2.25907469 C40.0091415,3.78508967 39.0677801,9.22021447 38.8398126,10.4424529 C38.5084358,12.2365283 37.4784378,14.9761904 35.2558766,15.0205519 C34.1013421,13.5578642 32.6998204,12.3294119 31.0767072,11.3796105 C32.3178034,7.13922109 35.3508675,5.07713946 38.8164701,2.6812927 C38.9663267,2.57575981 39.4412058,2.28448126 39.7113735,2.25915574 L39.7115356,2.25907469 Z M22.1592834,48.4301865 L22.1592834,51.7882612 L22.7545168,51.7882612 C23.9555201,51.7798185 24.6668175,51.7566014 25.6883754,51.1023056 C27.5225436,49.9350727 29.0464513,47.9974859 30.2812255,46.2350743 C31.6848546,44.223568 33.0124584,41.7878445 34.1057729,39.1728918 C29.6184503,40.6588139 24.3462365,36.2538383 22.2373078,32.6553673 C19.3984402,27.8197986 18.2839986,22.454377 23.7865572,19.2566727 L23.8118882,19.2440072 L23.8794301,19.1996835 L23.9765229,19.1511344 C29.4938868,15.980879 33.5863864,19.6302605 36.3556048,24.5016967 C36.4970214,24.7570916 36.6384379,25.0230338 36.7735218,25.3058777 C35.9883605,16.9371645 30.8530678,11.4554682 22.1655567,11.3225403 L19.8628097,11.3225403 C11.1353138,11.4449586 5.98105532,16.9582429 5.2170212,25.375581 C4.60703667,32.1108606 7.89335601,40.7664919 11.7156339,46.2373923 C12.9461395,47.999804 14.4722086,49.9416588 16.3063768,51.104622 C17.5094874,51.8729248 18.4740399,51.7884704 19.8734543,51.7884704 L19.8734543,48.4303972 C18.0097298,48.1961132 16.2747131,47.3708537 15.1813987,45.7498478 C14.2083628,44.3019112 13.9023169,42.3305519 14.6917198,40.7348877 C16.4520241,37.1784007 19.6138502,41.1485792 20.8801801,41.0388263 C20.9266111,41.0388263 20.9751602,41.0346009 21.0215966,41.0388263 C21.0680276,41.0346009 21.1165768,41.0388263 21.1630132,41.0388263 C22.4315584,41.1485792 25.5933304,37.1784007 27.3536348,40.7348877 C28.1029178,42.2524734 27.8644192,44.116198 27.0011525,45.5324655 C25.9373403,47.2738041 24.1264065,48.1919418 22.1592618,48.4304458 L22.1592834,48.4301865 Z M21.0237147,46.2477181 C19.5145582,46.2477181 17.9315379,45.8002556 17.0492784,44.4895211 C16.534274,43.7233256 16.2809756,42.5941329 16.7094561,41.7308391 C16.7347816,41.6844027 16.785438,41.5830898 16.8360999,41.5197734 C17.6022954,41.6126462 19.1747251,43.4067323 21.0236985,43.282185 L21.1271241,43.286405 L21.1967787,43.2906251 C22.9718883,43.2948451 24.4725615,41.6062918 25.211308,41.5197842 C25.2577444,41.5809933 25.3147336,41.6823062 25.3379518,41.7308499 C25.7432032,42.5434602 25.5363575,43.6093797 25.0804496,44.36077 C24.3311666,45.5912756 22.9613085,46.1231816 21.5766993,46.2244945 L21.5323756,46.2287199 L21.5091574,46.2287199 C21.3487426,46.2434927 21.1862206,46.2477127 21.0236985,46.2477127 L21.0237147,46.2477181 Z M28.8207532,25.80143 C29.4412743,25.80143 29.9457313,26.3079944 29.9457313,26.9264082 C29.9457313,27.5490365 29.4412797,28.0513863 28.8207532,28.0513863 C28.2002322,28.0513863 27.6957751,27.5490419 27.6957751,26.9264082 C27.6936624,26.3079944 28.1960067,25.80143 28.8207532,25.80143 Z M28.8207532,23.5493125 C30.6844778,23.5493125 32.1978489,25.0626836 32.1978489,26.9264082 C32.1978489,28.7901327 30.6844778,30.3035038 28.8207532,30.3035038 C26.9570287,30.3035038 25.4436576,28.7901327 25.4436576,26.9264082 C25.4436576,25.0626836 26.9528141,23.5493125 28.8207532,23.5493125 Z M13.1742637,25.80143 C13.7926775,25.80143 14.2992418,26.3079944 14.2992418,26.9264082 C14.2992418,27.5490365 13.7926775,28.0513863 13.1742637,28.0513863 C12.5537426,28.0513863 12.0492856,27.5490419 12.0492856,26.9264082 C12.0492856,26.3079944 12.5537372,25.80143 13.1742637,25.80143 Z M13.1742637,23.5493125 C15.0379883,23.5493125 16.5513594,25.0626836 16.5513594,26.9264082 C16.5513594,28.7901327 15.0379883,30.3035038 13.1742637,30.3035038 C11.3084319,30.3035038 9.79506073,28.7901327 9.79506073,26.9264082 C9.79506073,25.0626836 11.3084319,23.5493125 13.1742637,23.5493125 Z M25.0005826,21.1578965 L25.0554591,21.1262328 C29.4456834,18.6060549 32.339179,21.9979558 34.3973162,25.6156628 C35.9191166,28.2962122 37.2552037,34.330731 34.3276616,36.5552968 L34.2558996,36.612286 C34.220016,36.6354988 34.139814,36.6903806 34.0553866,36.7368171 L33.981512,36.7811408 C33.8991973,36.8275718 33.8126572,36.8740136 33.7240098,36.9141119 L33.6881261,36.9267719 C30.2962793,38.3472594 25.7392534,34.1786806 24.177144,31.5190962 C22.0685935,27.9267309 20.5784028,23.7263804 24.9158904,21.2084178 L25.0005826,21.1578965 Z M2.28326523,2.25858839 C2.55132018,2.28602661 3.02622628,2.57519246 3.17395396,2.68283806 C6.64182597,5.07846868 9.67256671,7.14060435 10.9137169,11.3811559 C9.29060368,12.3288499 7.89335061,13.5551409 6.73876212,15.01999 C4.5183082,14.9756608 3.48832104,12.2381277 3.15482609,10.441891 C2.92898214,9.21981462 1.98548645,3.78495999 2.28310313,2.25850734 L2.28326523,2.25858839 Z M5.37117346,17.0626952 C4.0688573,19.3696568 3.25413972,22.1051043 2.97765014,25.1677248 C2.31487485,32.4498237 5.74054667,41.6058055 9.871248,47.5240982 C11.2917355,49.5545686 12.9866053,51.6567971 15.0994244,53.0036369 C16.7415574,54.0484291 17.9783849,54.0399998 19.8737731,54.0399998 L22.0836365,54.0399998 L22.1237402,54.0399998 L22.7674956,54.0357787 C24.411736,54.0315571 25.4839233,53.8985822 26.8959816,53.0015231 C29.0088007,51.6548995 30.7036705,49.5547782 32.124158,47.5219801 C36.2547512,41.6036874 39.6780456,32.4493266 39.0177558,25.1699294 C38.7412555,22.1052015 37.9265487,19.3699702 36.6242325,17.0605771 C39.1887179,16.2775231 40.5754345,13.415421 41.0524425,10.846721 C41.3627138,9.18140759 42.6734484,2.38507008 41.5484541,0.862945513 C40.5163056,-0.525867524 38.7391428,-0.00876663344 37.5402468,0.82284723 C33.692465,3.48864551 30.4861693,5.81462691 29.0299657,10.3694861 C27.0100302,9.55687578 24.7136051,9.10094085 22.1660862,9.06716989 L22.134428,9.06716989 L19.8633447,9.06716989 L19.831681,9.06716989 C17.2841081,9.10305356 14.987683,9.55473606 12.9656402,10.3694861 C11.5113818,5.81462151 8.30524821,3.4866949 4.45752048,0.82284723 C3.26078584,-0.00876663344 1.48146167,-0.527974831 0.449313165,0.862945513 C-0.677770634,2.38474588 0.632940716,9.1770849 0.945324768,10.846721 C1.41811816,13.4175283 2.80694201,16.2819539 5.37142741,17.0627384 L5.37117346,17.0626952 Z" id="Page-1"></path>
        </g>
    </g>
</svg>