<?xml version="1.0" encoding="UTF-8"?>
<svg width="42px" height="42px" viewBox="0 0 42 42" version="1.1" xmlns="http://www.w3.org/2000/svg" xmlns:xlink="http://www.w3.org/1999/xlink">
    <!-- Generator: Sketch 47 (45396) - http://www.bohemiancoding.com/sketch -->
    <title>Content / Dog Cone</title>
    <desc>Created with Sketch.</desc>
    <defs></defs>
    <g id="Content" stroke="none" stroke-width="1" fill="none" fill-rule="evenodd">
        <g id="Content-/-Dog-Cone">
            <g id="Group-17">
                <path d="M21.8610518,11.1204971 L21.8610518,4.18687484 L20.1383956,4.18687484 L20.1383956,11.1204971 C18.0862573,11.2561542 16.1676868,11.8698664 14.4858783,12.8560526 C11.9643506,13.2716454 3.7728861,16.11835 3.7728861,23.997366 C3.7728861,25.5176032 4.21216619,26.4413879 5.07780506,26.7450164 C5.25437594,26.8053121 5.43740747,26.8354545 5.62474978,26.8354545 C6.44087538,26.8354545 7.32155235,26.2734551 8.13767795,25.5240859 C8.38746035,28.844485 9.49209916,31.094467 11.4301287,32.2206707 C12.8814597,33.0625948 14.7634822,33.2025571 16.9254296,32.6621006 L19.304845,33.6806452 C19.8431737,33.9132066 20.4223941,34.0273319 21.0016476,34.0273319 C21.580901,34.0273319 22.1601545,33.9110512 22.6984501,33.6806452 L25.0800154,32.6599508 C25.9305942,32.8709748 26.740215,32.9829502 27.493884,32.9829502 C28.6566907,32.9829502 29.6945842,32.728857 30.5731113,32.2185318 C32.5110857,31.094478 33.6135857,28.8442756 33.865562,25.521947 C34.6816876,26.2713163 35.5623646,26.8333156 36.3784902,26.8333156 C36.5636771,26.8333156 36.7467087,26.8031678 36.9254349,26.7428775 C37.786763,26.4414099 38.2260541,25.5176142 38.2260541,23.997377 C38.2260541,16.118361 30.0350306,13.2717061 27.513062,12.8582686 C25.8313085,11.8720273 23.9127381,11.2583758 21.8605446,11.1205633 L21.8610518,11.1204971 Z M5.68958229,25.1431942 C5.6874269,25.1410388 5.49578485,24.9321702 5.49578485,23.9976416 C5.49578485,19.7233044 8.34249488,17.2878268 10.8984757,15.9615193 C10.8769439,15.9873564 10.8597173,16.0175043 10.83818,16.0433469 C10.4893435,16.4869322 10.1728212,16.9563271 9.88424186,17.4430257 C9.86055465,17.4839395 9.83471756,17.5226979 9.81103035,17.5636117 C9.67106247,17.8069389 9.53971062,18.0567213 9.41481943,18.310831 C9.39113221,18.3603553 9.367445,18.4098851 9.34375779,18.4594094 C8.81403963,19.568359 8.44152694,20.7613191 8.24770745,22.0166807 C8.24555206,22.0339072 8.2412468,22.0532837 8.23909141,22.0726656 C8.1917225,22.3848991 8.1529586,22.6992715 8.12927139,23.0179491 C6.80064868,24.6329462 5.86181484,25.1368438 5.68954922,25.1432934 L5.68958229,25.1431942 Z M22.2700793,31.654559 C22.2808452,31.6610196 22.2916111,31.6653249 22.3045324,31.6717856 C22.4208131,31.7256206 22.5370882,31.7773003 22.651219,31.82898 L22.0181635,32.1002997 C21.3700038,32.3780801 20.6292892,32.3780801 19.9811295,32.1002997 L19.3459241,31.82898 C19.4062199,31.8031374 19.4665101,31.772995 19.5289557,31.7471524 C19.5547928,31.7342311 19.5827907,31.7234652 19.6107832,31.7105439 C19.651697,31.6933174 19.6904554,31.6760908 19.7313691,31.6567144 L20.0629791,31.4844488 C20.3730572,31.333715 20.6831353,31.1894418 21.0018129,31.0150263 C21.3980239,31.2303556 21.7877852,31.4241585 22.175369,31.6050292 L22.2700793,31.654559 Z M20.9996134,28.3513588 L19.9380162,26.5813503 L22.0633605,26.5813503 L20.9996134,28.3513588 Z M29.7055044,30.7307743 C28.5858055,31.378934 27.050464,31.432736 25.2330479,30.9288825 C25.2308925,30.9288825 25.2308925,30.9267271 25.2287427,30.9267271 C24.9552731,30.8513602 24.6731929,30.7544615 24.3889685,30.6532575 C24.2920697,30.6188044 24.1994763,30.5908119 24.1004222,30.5542034 C23.8764769,30.470226 23.6482263,30.3690165 23.4199592,30.2699679 C23.2563041,30.1989062 23.0948099,30.1321554 22.9290049,30.0524832 L22.2097891,29.6799595 L23.5384118,27.4642102 C23.8614112,26.9258815 23.8700217,26.275605 23.5599436,25.7286547 C23.2520209,25.1860153 22.6921659,24.8587271 22.0612051,24.8587271 L19.9358608,24.8587271 C19.3071051,24.8587271 18.7472556,25.1860318 18.4371224,25.7329545 C18.1270443,26.2798992 18.1356603,26.9302143 18.4586542,27.4685099 L19.7872769,29.6842592 L19.0745107,30.0524777 C18.9151664,30.1278446 18.7622772,30.1902902 18.6072381,30.2591964 C18.3682216,30.3625558 18.1291997,30.4680706 17.8966218,30.5563533 C17.8083336,30.5908064 17.7243562,30.6144936 17.6382233,30.6446415 C17.3453718,30.7480008 17.0525202,30.8492048 16.7682957,30.928877 C16.7661404,30.928877 16.7661404,30.9310324 16.7639905,30.9310324 C14.9465744,31.4349079 13.4112881,31.3810784 12.291534,30.7329241 C10.6399339,29.7725364 9.80230958,27.5050799 9.80230958,23.9972006 C9.80230958,23.7947871 9.82168601,23.5966844 9.83245744,23.3942434 C9.83245744,23.392088 9.83460731,23.3899381 9.83460731,23.3877827 C9.93366142,21.5531677 10.4806172,19.8046578 11.3935974,18.2715214 C11.4065187,18.2499896 11.4215899,18.2263023 11.4345112,18.2026151 C11.6519958,17.8451626 11.8888624,17.4985035 12.1451275,17.1647217 C12.1601987,17.1453397 12.17312,17.1259633 12.1881967,17.1087367 C12.7351414,16.4089249 13.3660525,15.7715145 14.074519,15.2138149 C14.0852849,15.2051989 14.0960508,15.1987437 14.1068167,15.1901277 C14.4427374,14.927424 14.7958792,14.6840967 15.1662641,14.4580126 C16.8673664,13.4136695 18.8613478,12.7999629 20.9995914,12.7999629 C23.137835,12.7999629 25.1318164,13.4136695 26.8329187,14.4580126 C27.2011372,14.6841133 27.5564343,14.927435 27.8923661,15.1901277 C27.903132,15.1987437 27.9138979,15.2051989 27.9246638,15.2138149 C28.6331303,15.7715145 29.2640359,16.4110747 29.8109861,17.1087367 C29.8260628,17.1259633 29.8389786,17.1474951 29.8540553,17.1647217 C30.1102983,17.4963316 30.3471649,17.8430348 30.5646716,18.2026151 C30.5775929,18.224147 30.5926641,18.2478342 30.6055854,18.2715214 C31.5185656,19.8046578 32.0676657,21.5531677 32.1645755,23.3877827 C32.1645755,23.3899381 32.1667253,23.392088 32.1667253,23.3942434 C32.1774968,23.5966569 32.1968732,23.7947596 32.1968732,23.9972006 C32.1968732,27.5049696 31.3592489,29.7726467 29.7054989,30.7307191 L29.7055044,30.7307743 Z M36.5035192,23.9972557 C36.5035192,24.8370299 36.3484802,25.0911562 36.3614015,25.1126549 L36.3570962,25.1126549 C36.0986978,25.1126549 35.1706409,24.5958581 33.8700216,23.0153141 C33.8463344,22.6966255 33.807576,22.3822587 33.7602016,22.0700307 C33.7580462,22.0528041 33.7558908,22.0334221 33.7515856,22.0140457 C33.5577881,20.7586841 33.1831366,19.565724 32.6555352,18.4567744 C32.631848,18.4072501 32.6081608,18.3577203 32.5844736,18.3103514 C32.4595824,18.0562583 32.3303804,17.8064759 32.1882627,17.5631321 C32.1645755,17.5222183 32.1387384,17.4834599 32.1150512,17.4425461 C31.8265049,16.9558971 31.5099441,16.4864582 31.1611131,16.0428673 C31.1395813,16.0170302 31.1223547,15.9868824 31.1008174,15.9610398 C33.6567982,17.2874575 36.5035082,19.7228799 36.5035082,23.997162 L36.5035192,23.9972557 Z" id="Fill-1" stroke="#2B2727" stroke-width="0.25" fill="#2B2727"></path>
                <path d="M15.75,22.8375 C14.7351768,22.8375 13.9125,22.0148232 13.9125,21 C13.9125,19.9851768 14.7351768,19.1625 15.75,19.1625 C16.7648232,19.1625 17.5875,19.9851768 17.5875,21 C17.5875,22.0148232 16.7648232,22.8375 15.75,22.8375 Z M15.75,21.2625 C15.8949747,21.2625 16.0125,21.1449747 16.0125,21 C16.0125,20.8550253 15.8949747,20.7375 15.75,20.7375 C15.6050253,20.7375 15.4875,20.8550253 15.4875,21 C15.4875,21.1449747 15.6050253,21.2625 15.75,21.2625 Z" id="Oval-2" fill="#2B2727" fill-rule="nonzero"></path>
                <path d="M26.25,22.8375 C25.2351768,22.8375 24.4125,22.0148232 24.4125,21 C24.4125,19.9851768 25.2351768,19.1625 26.25,19.1625 C27.2648232,19.1625 28.0875,19.9851768 28.0875,21 C28.0875,22.0148232 27.2648232,22.8375 26.25,22.8375 Z M26.25,21.2625 C26.3949747,21.2625 26.5125,21.1449747 26.5125,21 C26.5125,20.8550253 26.3949747,20.7375 26.25,20.7375 C26.1050253,20.7375 25.9875,20.8550253 25.9875,21 C25.9875,21.1449747 26.1050253,21.2625 26.25,21.2625 Z" id="Oval-2-Copy-2" fill="#2B2727" fill-rule="nonzero"></path>
                <path d="M26.25,24.9375 C24.0753788,24.9375 22.3125,23.1746212 22.3125,21 C22.3125,18.8253788 24.0753788,17.0625 26.25,17.0625 C28.4246212,17.0625 30.1875,18.8253788 30.1875,21 C30.1875,23.1746212 28.4246212,24.9375 26.25,24.9375 Z M26.25,23.3625 C27.5547727,23.3625 28.6125,22.3047727 28.6125,21 C28.6125,19.6952273 27.5547727,18.6375 26.25,18.6375 C24.9452273,18.6375 23.8875,19.6952273 23.8875,21 C23.8875,22.3047727 24.9452273,23.3625 26.25,23.3625 Z" id="Oval-2-Copy" fill="#2B2727" fill-rule="nonzero"></path>
                <circle id="Oval-3" stroke="#2B2727" stroke-width="2" cx="21" cy="21" r="21"></circle>
            </g>
        </g>
    </g>
</svg>