<?xml version="1.0" encoding="UTF-8"?>
<svg width="42px" height="42px" viewBox="0 0 42 42" version="1.1" xmlns="http://www.w3.org/2000/svg" xmlns:xlink="http://www.w3.org/1999/xlink">
    <!-- Generator: Sketch 47 (45396) - http://www.bohemiancoding.com/sketch -->
    <title>Content / Eye Patch</title>
    <desc>Created with Sketch.</desc>
    <defs></defs>
    <g id="Content" stroke="none" stroke-width="1" fill="none" fill-rule="evenodd">
        <g id="Content-/-Eye-Patch" fill="#2B2727">
            <g id="Group-19">
                <path d="M20.9808971,41.1390139 C9.63887096,41.1390139 0.411390139,31.9115331 0.411390139,20.5695069 C0.411390139,9.22748082 9.63887096,0 20.9808971,0 C32.3229232,0 41.550404,9.22748082 41.550404,20.5695069 C41.550404,31.9115331 32.3229232,41.1390139 20.9808971,41.1390139 Z M20.9808971,1.7146741 C10.5850683,1.7146741 2.12606383,10.1736781 2.12606383,20.5695069 C2.12606383,30.9653358 10.5850683,39.4243402 20.9808971,39.4243402 C31.3767259,39.4243402 39.8357299,30.9653358 39.8357299,20.5695069 C39.8357299,10.1736781 31.3779601,1.7146741 20.9808971,1.7146741 Z" id="Fill-1" stroke="#2B2727" stroke-width="0.25"></path>
                <path d="M28.7670458,20 C26.7584238,20 25.1232738,18.3648501 25.1232738,16.3562281 C25.1232738,14.3476061 26.7584238,12.7124561 28.7670458,12.7124561 C30.7756678,12.7124561 32.4108177,14.3476061 32.4108177,16.3562281 C32.4108177,18.3648501 30.7756678,20 28.7670458,20 Z M28.7670458,15.1424147 C28.0975245,15.1424147 27.5532325,15.686701 27.5532325,16.3562281 C27.5532325,17.0257493 28.0975187,17.5700414 28.7670458,17.5700414 C29.436567,17.5723209 29.9808591,17.0280288 29.9808591,16.3562281 C29.9808591,15.6867068 29.4365728,15.1424147 28.7670458,15.1424147 Z" id="Fill-2"></path>
                <path d="M12.5526579,21.5695069 C9.24545142,21.5695069 6.55376688,18.8777813 6.55376688,15.5706159 C6.55376688,11.2847535 11.0695964,11.2847535 12.5526579,11.2847535 C14.0375294,11.2847535 18.5531944,11.2847535 18.5531944,15.5706159 C18.5531944,18.8778224 15.8614688,21.5695069 12.5526579,21.5695069 Z" id="Fill-5"></path>
                <path d="M2.26950883,21.5695069 C1.9914996,21.5695069 1.72153721,21.436126 1.55438939,21.1870416 C1.29244906,20.7933289 1.39850955,20.2614138 1.79222226,19.9994817 L6.93459896,16.5717791 C7.32831166,16.3098388 7.86022677,16.4158993 8.12215887,16.8096161 C8.3840992,17.2033288 8.27803871,17.7352439 7.884326,17.997176 L2.74194927,21.4248786 C2.59732095,21.5229047 2.43340666,21.5695069 2.26950883,21.5695069 Z" id="Fill-6" stroke="#2B2727" stroke-width="0.25"></path>
                <path d="M15.9820061,12.9994276 C15.7409561,12.9994276 15.5031068,12.8981886 15.3327913,12.7037409 C15.0226402,12.3469875 15.061208,11.8054294 15.4179614,11.493678 C15.7923923,11.1722794 24.6310436,3.57112666 31.4091075,3.57112666 C31.8815479,3.57112666 32.2656218,3.95519638 32.2656218,4.42764093 C32.2656218,4.90008136 31.881552,5.2841552 31.4091075,5.2841552 C25.2654072,5.2841552 16.6295054,12.7134497 16.5443476,12.7887341 C16.3804333,12.9301495 16.1795597,12.9992507 15.981895,12.9992507 L15.9820061,12.9994276 Z" id="Fill-7" stroke="#2B2727" stroke-width="0.25"></path>
            </g>
        </g>
    </g>
</svg>