<?xml version="1.0" encoding="UTF-8"?>
<svg width="50px" height="50px" viewBox="0 0 50 50" version="1.1" xmlns="http://www.w3.org/2000/svg" xmlns:xlink="http://www.w3.org/1999/xlink">
    <!-- Generator: Sketch 47 (45396) - http://www.bohemiancoding.com/sketch -->
    <title>Content / Family</title>
    <desc>Created with Sketch.</desc>
    <defs></defs>
    <g id="Content" stroke="none" stroke-width="1" fill="none" fill-rule="evenodd">
        <g id="Content-/-Family" fill-rule="nonzero" fill="#2B2727">
            <path d="M26.816326,0.0655890327 C19.7921471,-0.433049747 13.094006,1.92416984 7.96305641,6.70349606 C2.90328249,11.417891 0,18.0860809 0,24.997528 C0,30.8861009 2.10250124,36.6669155 5.91896566,41.1568418 C6.59894773,41.9576789 7.29832627,42.7477401 8.07324611,43.4557946 C8.65823515,43.991132 9.62960652,45.0013792 10.4865884,45.0013792 C10.9960251,45.0013792 11.4083357,44.5890851 11.4083357,44.0796319 L11.4083357,29.4421959 C11.4083357,27.5642186 12.9366237,26.0337201 14.8146563,26.0337201 L17.5409948,26.0337201 C19.1189621,26.0337201 20.4572641,27.1173258 20.8371809,28.6046105 C19.8765854,29.5500646 19.2808205,30.8625046 19.2808205,32.3130962 C19.2808205,33.8198325 19.9284198,35.1775862 20.9558808,36.1273507 L20.9558808,36.1813127 C19.7729717,36.9864601 19.0584517,38.3140415 19.0584517,39.7689434 L19.0584517,48.4443127 C19.0584517,48.9537494 19.4707458,49.36606 19.9801991,49.36606 C20.4896523,49.36606 20.9019464,48.953766 20.9019464,48.4443127 L20.9019464,39.7711594 C20.9019464,38.8191845 21.4351231,37.9601027 22.2963932,37.5283514 C22.5208895,37.4139453 22.760494,37.3427088 23.0022372,37.3038551 C23.4749753,37.4441674 23.9736086,37.5240355 24.4895218,37.5240355 C25.0075902,37.5240355 25.5084173,37.446328 25.9789616,37.3038551 C27.1791673,37.5024507 28.0793077,38.5558399 28.0793077,39.7733422 L28.0793077,48.8178475 C28.0793077,49.3272842 28.4916017,49.7395948 29.001055,49.7395948 C29.5104862,49.7395948 29.9228023,49.3273008 29.9228023,48.8178475 L29.9206472,39.7711317 C29.9206472,38.2924678 29.154348,36.9519554 27.9843699,36.1641046 C29.0334377,35.2099745 29.6961785,33.841445 29.6961785,32.3153121 C29.6961785,30.3552728 28.606052,28.6456746 27.0000676,27.75631 L27.0000676,25.3904919 C27.0000676,23.0786081 28.8802,21.1963205 31.194239,21.1963205 L34.4062631,21.1963205 C36.7159917,21.1963205 38.593969,23.0742978 38.593969,25.3840264 L38.593969,41.7461467 C38.593969,42.5793665 39.071023,43.3068175 39.8373332,43.6414206 C40.5993221,43.9760071 41.4519936,43.8335397 42.0649998,43.2658196 C47.5999046,38.0980664 50.468484,30.7868583 49.9374293,23.2078627 C49.0782923,10.8908262 39.1400546,0.941702132 26.8163812,0.0652629949 L26.816326,0.0655890327 Z M16.1786545,23.9116566 C13.7027019,23.9116566 11.6887282,21.8976829 11.6887282,19.4217303 C11.6887282,16.9457778 13.7027019,14.9339592 16.1786545,14.9339592 C18.654607,14.9339592 20.6664256,16.9479329 20.6664256,19.4217303 C20.6685863,21.8976829 18.654607,23.9116566 16.1786545,23.9116566 Z M27.8524628,32.3151408 C27.8524628,34.1694113 26.3435713,35.6804027 24.4872009,35.6804027 C22.6308305,35.6804027 21.121939,34.1715112 21.121939,32.3151408 C21.121939,30.4587152 22.6308305,28.9498789 24.4872009,28.9498789 C26.3414714,28.9498789 27.8524628,30.4587704 27.8524628,32.3151408 Z M32.7935369,19.1305068 C29.7822746,19.1305068 27.3322392,16.6804715 27.3322392,13.6692091 C27.3322392,10.6579468 29.7822746,8.20791148 32.7935369,8.20791148 C35.8047992,8.20791148 38.2548345,10.6579468 38.2548345,13.6692091 C38.2548345,16.6804715 35.8047992,19.1305068 32.7935369,19.1305068 Z M40.8063284,41.9166755 C40.7372526,41.9792747 40.6595451,41.9922278 40.568879,41.9533741 C40.5062798,41.9253127 40.4285667,41.8670293 40.4285667,41.7461467 L40.4307274,25.3840264 C40.4307274,22.8800567 38.8959739,20.7278761 36.7178761,19.8192808 C38.7469913,18.5197718 40.0961243,16.253257 40.0961243,13.6693252 C40.0961243,9.64347768 36.8193347,6.36663277 32.7934319,6.36663277 C28.7675844,6.36879346 25.4929499,9.64342242 25.4929499,13.6715356 C25.4929499,16.253257 26.8442381,18.521927 28.8733532,19.8214913 C26.6931555,20.7324075 25.1561916,22.8867432 25.1561916,25.3928681 L25.1561916,27.1586111 C24.9360111,27.1305497 24.7136755,27.1111201 24.4870406,27.1111201 C23.7574345,27.1111201 23.0623663,27.2643799 22.4320083,27.5363672 C21.9312088,26.2563099 20.949034,25.2352593 19.7186008,24.6740323 C21.4023369,23.5342818 22.5118599,21.6066252 22.5118599,19.4264275 C22.5118599,15.935945 19.6711319,13.095217 16.1806494,13.095217 C12.6901668,13.095217 9.84943884,15.935945 9.84943884,19.4264275 C9.84943884,21.6087803 10.9589618,23.5364369 12.642698,24.6740323 C10.8316413,25.5029418 9.56882536,27.3269847 9.56882536,29.4467272 L9.56882536,42.2622202 C4.64283743,37.8651318 1.84338745,31.6461003 1.84338745,24.9976938 C1.84338745,18.5929866 4.53087939,12.4170585 9.21957817,8.05036342 C13.9728766,3.62304743 20.181077,1.44284974 26.6869111,1.90482862 C38.0993367,2.71649677 47.3040945,11.9296597 48.0959848,23.3376644 C48.5881471,30.3596329 45.9308733,37.133481 40.806555,41.9168413 L40.8063284,41.9166755 Z" id="Shape"></path>
        </g>
    </g>
</svg>