<?xml version="1.0" encoding="UTF-8"?>
<svg width="75px" height="95px" viewBox="0 0 75 95" version="1.1" xmlns="http://www.w3.org/2000/svg" xmlns:xlink="http://www.w3.org/1999/xlink">
    <!-- Generator: Sketch 47 (45396) - http://www.bohemiancoding.com/sketch -->
    <title>Content / For You</title>
    <desc>Created with Sketch.</desc>
    <defs></defs>
    <g id="Content" stroke="none" stroke-width="1" fill="none" fill-rule="evenodd">
        <g id="Content-/-For-You">
            <g id="Group-26">
                <path d="M1.23571612,93.7317215 C0.793069776,93.2405351 0.582515415,92.5821911 0.582515415,91.920954 L0.582515415,2.87124618 C0.582515415,2.38166711 0.690203523,1.89015929 0.94576187,1.47226514 C1.43244783,0.677623335 2.25602077,0.225011823 3.14967134,0.225011823 L71.4850089,0.225011823 C71.9729807,0.225011823 72.4632027,0.333021388 72.8791681,0.588579735 C73.6705954,1.07526569 74.1244927,1.89883863 74.1244927,2.79216775 L74.1244927,91.92449 C74.1244927,92.582834 73.9161885,93.2382849 73.4764353,93.727864 C72.9823558,94.2785199 72.2941163,94.5861543 71.5583011,94.5861543 L3.14967134,94.5861543 C2.41674929,94.5861543 1.73075996,94.2807701 1.23571612,93.7317215 Z" id="Fill-3" stroke="#2B2727" stroke-width="2" fill-rule="nonzero"></path>
                <path d="M12.8082187,39.7992736 C12.5647885,39.8034998 12.3301582,39.7064698 12.1583355,39.5305181 L9.55880299,36.9504653 C9.27416161,36.579602 9.30563002,36.0503685 9.6321264,35.7173174 C9.95862278,35.3842662 10.4774405,35.3521661 10.8410049,35.6425219 L12.8082187,37.5596445 L17.3925295,32.7757966 C17.610024,32.4924199 17.9680679,32.3621658 18.3122673,32.4412017 C18.6564667,32.5202377 18.9252606,32.7944279 19.0027411,33.1455375 C19.0802215,33.4966471 18.9525309,33.8618791 18.6747313,34.08374 L13.4054086,39.45885 C13.2583346,39.6484477 13.0435931,39.7708594 12.8082187,39.7992736 L12.8082187,39.7992736 Z" id="Shape" fill="#2B2727" fill-rule="nonzero"></path>
                <path d="M12.8082187,60.0114867 C12.5647885,60.0157129 12.3301582,59.9186829 12.1583355,59.7427312 L9.55880299,57.1626784 C9.27416161,56.7918151 9.30563002,56.2625816 9.6321264,55.9295305 C9.95862278,55.5964793 10.4774405,55.5643792 10.8410049,55.854735 L12.8082187,57.7718576 L17.3925295,52.9880097 C17.610024,52.704633 17.9680679,52.5743789 18.3122673,52.6534148 C18.6564667,52.7324508 18.9252606,53.006641 19.0027411,53.3577506 C19.0802215,53.7088602 18.9525309,54.0740922 18.6747313,54.2959531 L13.4054086,59.6710631 C13.2583346,59.8606608 13.0435931,59.9830725 12.8082187,60.0114867 L12.8082187,60.0114867 Z" id="Shape" fill="#2B2727" fill-rule="nonzero"></path>
                <path d="M10.9553798,80.4628769 C10.5694911,80.4625375 10.2217499,80.2299306 10.0741226,79.8733966 C9.92649529,79.5168627 10.0080133,79.1065157 10.2807083,78.8334815 L16.2551582,72.8590316 C16.6313318,72.5085094 17.2175322,72.5188522 17.5811064,72.8824264 C17.9446807,73.2460006 17.9550235,73.8322011 17.6045012,74.2083747 L11.6300514,80.1828245 C11.4514433,80.3623178 11.2085963,80.4631222 10.9553798,80.4628769 L10.9553798,80.4628769 Z" id="Shape" fill="#2B2727" fill-rule="nonzero"></path>
                <path d="M16.9298297,80.4628769 C16.6766132,80.4631222 16.4337662,80.3623178 16.2551582,80.1828245 L10.2807083,74.2083747 C9.93018604,73.8322011 9.94052886,73.2460006 10.3041031,72.8824264 C10.6676773,72.5188522 11.2538777,72.5085094 11.6300514,72.8590316 L17.6045012,78.8334815 C17.8771962,79.1065157 17.9587142,79.5168627 17.8110869,79.8733966 C17.6634596,80.2299306 17.3157185,80.4625375 16.9298297,80.4628769 L16.9298297,80.4628769 Z" id="Shape" fill="#2B2727" fill-rule="nonzero"></path>
                <path d="M24.2662454,33.6041496 L67.3714675,33.6041496" id="Line" stroke="#2B2727" stroke-width="2" stroke-linecap="round"></path>
                <path d="M24.2662454,39.6186957 L49.3295061,39.6186957" id="Line" stroke="#2B2727" stroke-width="2" stroke-linecap="round"></path>
                <path d="M24.2662454,53.6526366 L67.3714675,53.6526366" id="Line" stroke="#2B2727" stroke-width="2" stroke-linecap="round"></path>
                <path d="M24.2662454,59.6671827 L49.3295061,59.6671827" id="Line" stroke="#2B2727" stroke-width="2" stroke-linecap="round"></path>
                <path d="M24.2662454,73.7011237 L67.3714675,73.7011237" id="Line" stroke="#2B2727" stroke-width="2" stroke-linecap="round"></path>
                <path d="M24.2662454,79.7156698 L49.3295061,79.7156698" id="Line" stroke="#2B2727" stroke-width="2" stroke-linecap="round"></path>
                <path d="M16.9002256,12.4351053 C16.9002256,11.9790022 16.5353431,11.6141197 16.105303,11.6141197 L11.713682,11.6141197 C11.1402952,11.6141197 10.6711606,12.0832543 10.6711606,12.656641 L10.6711606,19.4721242 C10.6711606,19.9673218 11.0881692,20.3843304 11.5833668,20.3843304 C12.1046275,20.3843304 12.521636,19.9673218 12.521636,19.4721242 L12.521636,16.7094427 L16.0140824,16.7094427 C16.4441225,16.7094427 16.8090049,16.3445602 16.8090049,15.9014887 C16.8090049,15.4453856 16.4441225,15.0805031 16.0140824,15.0805031 L12.521636,15.0805031 L12.521636,13.2430593 L16.105303,13.2430593 C16.5353431,13.2430593 16.9002256,12.8781768 16.9002256,12.4351053 Z M26.7781151,15.9666463 C26.7781151,13.3473114 24.8624822,11.470773 22.2301158,11.470773 C19.610781,11.470773 17.6951481,13.3473114 17.6951481,15.9666463 C17.6951481,18.5859811 19.610781,20.4625195 22.2301158,20.4625195 C24.8624822,20.4625195 26.7781151,18.5859811 26.7781151,15.9666463 Z M24.8755137,15.9666463 C24.8755137,17.5825543 23.8329924,18.8205484 22.2301158,18.8205484 C20.6272393,18.8205484 19.5977495,17.5825543 19.5977495,15.9666463 C19.5977495,14.3377067 20.6272393,13.1127441 22.2301158,13.1127441 C23.8329924,13.1127441 24.8755137,14.3377067 24.8755137,15.9666463 Z M35.0661597,14.4158958 C35.0661597,12.7999877 33.9584808,11.6141197 32.1471,11.6141197 L29.1237881,11.6141197 C28.5504014,11.6141197 28.0812668,12.0832543 28.0812668,12.656641 L28.0812668,19.4721242 C28.0812668,19.9673218 28.4982753,20.3843304 28.9934729,20.3843304 C29.5147336,20.3843304 29.9317421,19.9673218 29.9317421,19.4721242 L29.9317421,17.2176718 L31.2870199,17.2176718 L32.7726128,19.9151958 C32.9420225,20.2149207 33.2417473,20.3843304 33.5675353,20.3843304 C34.114859,20.3843304 34.4797414,19.9151958 34.4797414,19.4721242 C34.4797414,19.3287775 34.4406469,19.1723993 34.3624578,19.0290527 L33.1635582,16.9961361 C34.1018274,16.7746003 35.0661597,15.9536147 35.0661597,14.4158958 Z M31.8734381,13.2430593 C32.6162346,13.2430593 33.1765898,13.6861309 33.1765898,14.4158958 C33.1765898,15.1456607 32.6162346,15.5887323 31.8734381,15.5887323 L29.9317421,15.5887323 L29.9317421,13.2430593 L31.8734381,13.2430593 Z M46.7163355,12.3960107 C46.7163355,11.9659707 46.3644845,11.5489621 45.8301924,11.5489621 C45.517436,11.5489621 45.2307426,11.7053403 45.0613329,11.9790022 L43.1456999,15.1065662 L41.1909725,11.9659707 C41.0215627,11.6923088 40.7218379,11.5489621 40.4351445,11.5489621 C39.9138838,11.5489621 39.5490014,11.9790022 39.5490014,12.3960107 C39.5490014,12.5523889 39.5880959,12.7087671 39.6793165,12.8390823 L42.2204623,16.7485373 L42.2204623,19.4721242 C42.2204623,19.9673218 42.6374708,20.3843304 43.1326684,20.3843304 C43.6539291,20.3843304 44.0709376,19.9673218 44.0709376,19.4721242 L44.0709376,16.7485373 L46.5860203,12.8521138 C46.6772409,12.7087671 46.7163355,12.5523889 46.7163355,12.3960107 Z M56.3466262,15.9666463 C56.3466262,13.3473114 54.4309933,11.470773 51.798627,11.470773 C49.1792921,11.470773 47.2636592,13.3473114 47.2636592,15.9666463 C47.2636592,18.5859811 49.1792921,20.4625195 51.798627,20.4625195 C54.4309933,20.4625195 56.3466262,18.5859811 56.3466262,15.9666463 Z M54.4440248,15.9666463 C54.4440248,17.5825543 53.4015035,18.8205484 51.798627,18.8205484 C50.1957504,18.8205484 49.1662606,17.5825543 49.1662606,15.9666463 C49.1662606,14.3377067 50.1957504,13.1127441 51.798627,13.1127441 C53.4015035,13.1127441 54.4440248,14.3377067 54.4440248,15.9666463 Z M65.4947509,16.8267263 L65.4947509,12.4611683 C65.4947509,11.9529391 65.0777424,11.5359306 64.5695132,11.5359306 C64.0221895,11.5359306 63.605181,11.9529391 63.605181,12.4611683 L63.605181,16.7746003 C63.605181,17.9865313 62.9145106,18.8205484 61.5722644,18.8205484 C60.2300182,18.8205484 59.5263163,17.9865313 59.5263163,16.7746003 L59.5263163,12.4611683 C59.5263163,11.9529391 59.1093078,11.5359306 58.6010786,11.5359306 C58.0667864,11.5359306 57.6497779,11.9529391 57.6497779,12.4611683 L57.6497779,16.8397579 C57.6497779,18.9769266 58.9268665,20.4625195 61.5722644,20.4625195 C64.2176623,20.4625195 65.4947509,18.9899581 65.4947509,16.8267263 Z" id="FOR-YOU" fill="#2B2727" fill-rule="nonzero"></path>
            </g>
        </g>
    </g>
</svg>