<?xml version="1.0" encoding="UTF-8"?>
<svg width="42px" height="63px" viewBox="0 0 42 63" version="1.1" xmlns="http://www.w3.org/2000/svg" xmlns:xlink="http://www.w3.org/1999/xlink">
    <!-- Generator: Sketch 47 (45396) - http://www.bohemiancoding.com/sketch -->
    <title>Content / Green Car</title>
    <desc>Created with Sketch.</desc>
    <defs></defs>
    <g id="Content" stroke="none" stroke-width="1" fill="none" fill-rule="evenodd">
        <g id="Content-/-Green-Car" fill="#2B2727">
            <g id="Group-12">
                <path d="M33.6013839,15.0920369 C36.8149594,11.3212002 38.3085931,6.4496008 37.697525,1.72573532 C37.6126576,1.05812994 37.0610306,0.548933012 36.3877621,0.514968688 C31.915334,0.297148013 27.3948199,2.36504674 24.1816065,6.13588341 C20.9708553,9.90107143 19.4772216,14.772526 20.0797444,19.502185 C20.125006,19.8473031 20.2947408,20.1471596 20.5408481,20.3621559 C20.2636225,21.1372522 20.011852,21.9491372 19.7997162,22.8062838 C19.0387415,20.8713311 17.8223262,19.0410958 16.1900833,17.4512902 C13.075504,14.4187612 8.87725275,12.735608 4.82905283,12.9053572 C4.12749761,12.9336439 3.55607862,13.4824466 3.49951969,14.18398 C3.17985674,18.0736556 4.81210688,22.0761594 7.97477212,25.1597436 C10.9479179,28.059312 14.8885037,29.7226949 18.7868696,29.7226949 L18.7897011,29.7226949 C18.8802244,29.7226949 18.9735792,29.717039 19.0669268,29.717039 C19.103701,31.3521062 19.27626,33.0833454 19.6326971,34.9221261 C19.7628261,35.5869072 20.3455714,36.0480181 20.9961946,36.0480181 C21.0838863,36.0480181 21.1744095,36.0395307 21.2649328,36.0225558 C22.0202588,35.8754519 22.5124881,35.1456389 22.3681578,34.3903129 C21.2705814,28.7410825 22.0202081,24.1756689 23.4119995,20.6590215 C27.2111519,20.2742977 30.8660464,18.2969439 33.601297,15.0918414 L33.6013839,15.0920369 Z M9.91832811,23.1652628 C7.74859433,21.052088 6.43883148,18.3449357 6.26625794,15.7170095 C9.14888045,15.9461492 12.0173089,17.2784994 14.246788,19.4482332 C16.4165218,21.5642323 17.7262846,24.271457 17.8988582,26.90228 C15.0134114,26.670316 12.1478072,25.3378933 9.91832811,23.1653352 L9.91832811,23.1652628 Z M26.3001403,7.9428724 C28.6593936,5.1762645 31.8079372,3.51288161 35.0352723,3.30359184 C35.1540822,6.83117442 33.8697673,10.4832446 31.4822708,13.2864963 C29.6605084,15.4194414 27.3691113,16.8876562 24.9334565,17.5467379 C27.1767675,13.7588828 29.8556765,11.8268269 30.0791603,11.6655507 C30.7099915,11.2242462 30.8627296,10.3586122 30.42711,9.72777372 C29.9886371,9.09694251 29.1229958,8.9413801 28.489333,9.37982405 C28.2488815,9.54672721 25.3917721,11.5891708 22.8853642,15.5665453 C23.2644322,12.8140591 24.4412055,10.1210285 26.2997565,7.94303897 L26.3001403,7.9428724 Z" id="Fill-1" stroke="#FFFFFF" stroke-width="0.75"></path>
                <path d="M28.5252888,58.1897961 C28.5252888,60.4302806 30.3498755,62.2548674 32.5903622,62.2548674 L34.768569,62.2548674 C37.0090557,62.2548674 38.8336424,60.4302806 38.8336424,58.1897961 L38.8336424,54.1275469 C38.8336424,54.0143929 38.8166675,53.9068947 38.7912124,53.8022281 C40.262179,52.1275479 41.1589386,49.8729395 41.1589386,47.4062171 C41.1589386,44.8376016 40.1801288,42.4359111 38.4913269,40.696199 L39.9764877,40.696199 C40.7459353,40.696199 41.3683008,40.0738552 41.3683008,39.3043858 C41.3683008,38.5349164 40.7459498,37.9125727 39.9764877,37.9125727 L36.929837,37.9125727 C36.8873997,37.9125727 36.8449697,37.9210601 36.8025396,37.926716 C35.221207,34.6594059 32.4602477,32.3680089 28.5337835,31.1261747 C27.8011245,30.897035 27.0174828,31.3015653 26.785526,32.0342315 C26.553562,32.7668906 26.9609166,33.5505323 27.6964072,33.782489 C30.9552443,34.8122092 33.1475727,36.6452688 34.3838307,39.3270021 L7.18701698,39.3241706 C8.35252198,36.7923438 10.3694525,35.0214917 13.3341325,33.960704 C14.0583186,33.700446 14.4373575,32.9027406 14.1771575,32.1785546 C13.9169067,31.4543685 13.1248428,31.0753296 12.3950081,31.3383539 C8.80804224,32.6198011 6.2620214,34.8404452 4.76860497,37.9239569 C4.72616767,37.918301 4.68373761,37.9098135 4.63847598,37.9098135 L1.59182534,37.9098135 C0.822377683,37.9098135 0.200012207,38.5321645 0.200012207,39.3016267 C0.200012207,40.0710888 0.822363199,40.6934398 1.59182534,40.6934398 L3.07981038,40.6934398 C1.39100856,42.4331519 0.409374389,44.8349149 0.409374389,47.4034579 C0.409374389,49.8730771 1.30895828,52.1247887 2.77710062,53.8022933 C2.75163824,53.9069599 2.73466332,54.014458 2.73466332,54.1276121 L2.73466332,58.1898612 C2.73466332,60.4331723 4.5564257,62.257759 6.79691245,62.257759 L8.9751192,62.257759 C11.2156059,62.257759 13.0401927,60.4331723 13.0401927,58.1898612 L13.0401927,56.7245432 L28.5254626,56.7245432 L28.5252888,58.1897961 Z M36.0503058,58.1897961 C36.0503058,58.8970072 35.476048,59.4684189 34.771683,59.4684189 L32.5934762,59.4684189 C31.8862651,59.4684189 31.3148534,58.8941611 31.3148534,58.1897961 L31.3148534,56.7216537 L32.5057773,56.7216537 C32.8282646,56.7216537 33.1507519,56.6990229 33.4874115,56.6565856 C34.3982927,56.5462631 35.2554393,56.2803492 36.0532026,55.8956109 L36.0503058,58.1897961 Z M10.2569719,58.1869645 C10.2569719,58.8941756 9.68271413,59.4684117 8.97834907,59.4684117 L6.80014232,59.4684117 C6.09293121,59.4684117 5.52151946,58.8941539 5.52151946,58.1869645 L5.52151946,55.8983918 C6.31645847,56.2802841 7.17070831,56.5461979 8.07594085,56.6565422 C8.41540306,56.7018038 8.74355347,56.7244346 9.07169665,56.7244346 L10.2569719,56.7244346 L10.2597963,58.1869283 L10.2569719,58.1869645 Z M9.07169665,53.9380202 C8.8567003,53.9380202 8.64454276,53.9210453 8.42389052,53.8927586 C5.44227178,53.5334971 3.19613639,50.744215 3.19613639,47.4062243 C3.19613639,45.2817521 4.11831488,43.3411508 5.66575559,42.1106139 L35.9063159,42.1106139 C37.4536842,43.3411508 38.3759351,45.2817521 38.3759351,47.4062243 C38.3759351,50.7442874 36.1297997,53.5334899 33.1453567,53.8955829 C32.9360235,53.9210453 32.7238587,53.9380202 32.506038,53.9380202 L9.07169665,53.9380202 Z" id="Fill-2" stroke="#FFFFFF" stroke-width="0.75"></path>
                <path d="M9.54477191,45.8192503 C8.31705933,45.8192503 7.32130353,46.8178304 7.32130353,48.0427186 C7.32130353,49.2704312 8.31705933,50.266187 9.54477191,50.266187 C10.7696602,50.266187 11.765416,49.2676069 11.765416,48.0427186 C11.765416,46.8178304 10.7696602,45.8192503 9.54477191,45.8192503 Z" id="Fill-3"></path>
                <path d="M34.09323,48.0425014 C34.09323,46.8176131 33.0974742,45.819033 31.872586,45.819033 C30.6448734,45.819033 29.6491176,46.8176131 29.6491176,48.0425014 C29.6491176,49.270214 30.6448734,50.2659698 31.872586,50.2659698 C33.0946499,50.2659698 34.09323,49.270214 34.09323,48.0425014 Z" id="Fill-4"></path>
            </g>
        </g>
    </g>
</svg>