<?xml version="1.0" encoding="UTF-8"?>
<svg width="45px" height="48px" viewBox="0 0 45 48" version="1.1" xmlns="http://www.w3.org/2000/svg" xmlns:xlink="http://www.w3.org/1999/xlink">
    <!-- Generator: Sketch 47 (45396) - http://www.bohemiancoding.com/sketch -->
    <title>Content / Health Plan</title>
    <desc>Created with Sketch.</desc>
    <defs></defs>
    <g id="Content" stroke="none" stroke-width="1" fill="none" fill-rule="evenodd">
        <g id="Content-/-Health-Plan" fill-rule="nonzero" fill="#2B2727">
            <path d="M21.354161,40.1081484 C21.8129869,40.1081484 22.2136216,40.5087831 22.2136216,40.967609 C22.2136216,41.4264349 21.8129869,41.8270696 21.354161,41.8270696 L9.89468673,41.8270696 C9.43586085,41.8270696 9.03522615,41.4264349 9.03522615,40.967609 C9.03522615,40.5087831 9.43586085,40.1081484 9.89468673,40.1081484 L21.354161,40.1081484 Z M16.1973976,10.6000137 L16.1973976,14.2103096 L12.186467,14.2103096 C12.186467,14.2103096 11.3270065,15.376741 11.3270065,16.3297508 C11.3270065,17.2827606 12.186467,18.2211256 12.186467,18.2211256 L16.1973976,18.2211256 L16.1973976,21.7730011 C16.1973976,21.7730011 17.1999521,22.6324616 18.202691,22.6324616 C19.2054299,22.6324616 20.2082136,21.7730011 20.2082136,21.7730011 L20.2082136,18.2211256 L24.218915,18.2211256 C24.218915,18.2211256 25.0783755,17.3749571 25.0783755,16.3297508 C25.0783755,15.2845446 24.218915,14.2103096 24.218915,14.2103096 L20.2082136,14.2103096 L20.2082136,10.6000137 C20.2082136,10.6000137 19.2053462,9.74055314 18.202691,9.74055314 C17.2000358,9.74055314 16.1973976,10.6000137 16.1973976,10.6000137 Z M7.60279188,27.5027268 C7.143966,27.5027268 6.74333131,27.9033614 6.74333131,28.3621873 C6.74333131,28.8210132 7.143966,29.2216479 7.60279188,29.2216479 C8.06161776,29.2216479 8.46225245,28.8210132 8.46225245,28.3621873 C8.46225245,27.9033614 8.06161776,27.5027268 7.60279188,27.5027268 Z M7.60279188,35.9248674 C7.143966,35.9248674 6.74333131,36.325502 6.74333131,36.784328 C6.74333131,37.2431538 7.143966,37.6437885 7.60279188,37.6437885 C8.06161776,37.6437885 8.46225245,37.2431538 8.46225245,36.784328 C8.46225245,36.325502 8.06161776,35.9248674 7.60279188,35.9248674 Z M7.60279188,40.1080338 C7.143966,40.1080338 6.74333131,40.5086685 6.74333131,40.9674944 C6.74333131,41.4263203 7.143966,41.826955 7.60279188,41.826955 C8.06161776,41.826955 8.46225245,41.4263203 8.46225245,40.9674944 C8.46225245,40.5086685 8.06161776,40.1080338 7.60279188,40.1080338 Z M7.60279188,31.6858933 C7.143966,31.6858933 6.74333131,32.086528 6.74333131,32.5453538 C6.74333131,33.0041797 7.143966,33.4048144 7.60279188,33.4048144 C8.06161776,33.4048144 8.46225245,33.0041797 8.46225245,32.5453538 C8.46225245,32.086528 8.06161776,31.6858933 7.60279188,31.6858933 Z M9.89468673,35.9248788 C9.43586085,35.9248788 9.03522615,36.3255135 9.03522615,36.7843394 C9.03522615,37.2431653 9.43586085,37.6438 9.89468673,37.6438 L25.8795074,37.6438 C25.5930205,37.0708262 25.3065337,36.4978525 25.1341832,35.9248788 L9.89468673,35.9248788 Z M9.89468673,33.4047113 L24.5639598,33.4047113 C24.5057685,33.0600332 24.5057685,32.6593871 24.5057685,32.316978 C24.5057685,32.0886823 24.5057685,31.9163433 24.5639598,31.6857901 L9.89468673,31.6857901 C9.43586085,31.6857901 9.03522615,32.0864248 9.03522615,32.5452507 C9.03522615,33.0040766 9.37766966,33.4047113 9.89468673,33.4047113 Z M9.03522615,28.3620842 C9.03522615,28.8209101 9.43586085,29.2215448 9.89468673,29.2215448 L24.9060251,29.2215448 C25.0783641,28.6485711 25.3066597,28.0755974 25.5931351,27.5026236 L9.89480132,27.5026236 C9.37778426,27.5026236 9.03534075,27.9032583 9.03534075,28.3620842 L9.03522615,28.3620842 Z M30.8081127,45.837897 L5.59726931,45.837897 C3.53364718,45.837897 1.87294017,44.17719 1.87294017,42.1135679 L1.87294017,5.44325027 C1.87294017,3.37962815 3.53364718,1.71892114 5.59726931,1.71892114 L30.8081127,1.71892114 C32.8717348,1.71892114 34.5324418,3.37962815 34.5324418,5.44325027 L34.5324418,21.4865142 C34.8189287,21.4865142 35.1054155,21.428323 35.3919024,21.428323 C35.6783892,21.428323 35.9648761,21.428323 36.2513629,21.4865142 L36.2513629,5.44325027 C36.2513629,2.46424534 33.7871176,0 30.8081127,0 L5.59726931,0 C2.61826438,0 0.154019031,2.46424534 0.154019031,5.44325027 L0.154019031,42.1135679 C0.154019031,45.0925728 2.61826438,47.5568182 5.59726931,47.5568182 L30.8081127,47.5568182 C33.4447085,47.5568182 35.6783892,45.6655466 36.1372266,43.2013012 C35.9089309,43.2013012 35.6224441,43.2594924 35.3919024,43.2594924 C35.0472243,43.2013012 34.7047923,43.2013012 34.3600913,43.1453446 C33.9012655,44.6919496 32.4688197,45.837897 30.8081127,45.837897 Z M44.8460832,32.3150298 C44.8460832,37.5300074 40.6069945,41.7690961 35.392017,41.7690961 C30.1770394,41.7690961 25.9379507,37.5300074 25.9379507,32.3150298 C25.9379507,27.1000523 30.1770394,22.8609636 35.392017,22.8609636 C40.6047599,22.8609636 44.8460832,27.1022869 44.8460832,32.3150298 Z M43.1271621,32.3150298 C43.1271621,28.0759412 39.6311057,24.5798847 35.392017,24.5798847 C31.1529282,24.5798847 27.6568719,28.0759412 27.6568719,32.3150298 C27.6568719,36.5541185 31.1529282,40.050175 35.392017,40.050175 C39.6311057,40.050175 43.1271621,36.6123327 43.1271621,32.3150298 Z M35.392017,30.023135 C36.079127,30.023135 36.5961785,30.4237697 36.5961785,30.7684592 C36.5961785,31.2272851 36.9408566,31.5697057 37.397425,31.5697057 C37.8562509,31.5697057 38.1986714,31.2250276 38.1986714,30.7684592 C38.1986714,29.6807259 37.3392108,28.7630512 36.1932634,28.4765643 L36.1932634,28.2482687 C36.1932634,27.7894428 35.8485853,27.4470223 35.392017,27.4470223 C34.9331911,27.4470223 34.5907705,27.7917003 34.5907705,28.2482687 L34.5907705,28.4765643 C33.4448231,28.7630512 32.5853625,29.6807259 32.5853625,30.7684592 C32.5853625,32.0867571 33.8454463,33.1185682 35.4502311,33.1185682 C36.1373412,33.1185682 36.6543927,33.5192029 36.6543927,33.8638924 C36.6521581,34.2063358 36.0791844,34.6651388 35.3920743,34.6651388 C34.7049642,34.6651388 34.1879127,34.2645041 34.1879127,33.9198146 C34.1879127,33.4609887 33.8432346,33.1185682 33.3866663,33.1185682 C32.9278404,33.1185682 32.5854198,33.4632462 32.5854198,33.9198146 C32.5854198,35.0075479 33.4448804,35.9252226 34.5908278,36.2117095 L34.5885933,36.3840485 C34.5885933,36.8428744 34.9332713,37.1852949 35.3898397,37.1852949 C35.8486656,37.1852949 36.1910861,36.8406169 36.1910861,36.3840485 L36.1910861,36.1557529 C37.3370336,35.869266 38.1964941,34.9515913 38.1964941,33.863858 C38.1964941,32.5455601 36.9364103,31.513749 35.3316255,31.513749 C34.6445155,31.513749 34.127464,31.1131143 34.127464,30.7684248 C34.1319389,30.4259814 34.6467214,30.0231006 35.392017,30.0231006 L35.392017,30.023135 Z" id="Shape"></path>
        </g>
    </g>
</svg>