<?xml version="1.0" encoding="UTF-8"?>
<svg width="12px" height="20px" viewBox="0 0 12 20" version="1.1" xmlns="http://www.w3.org/2000/svg" xmlns:xlink="http://www.w3.org/1999/xlink">
    <!-- Generator: Sketch 47 (45396) - http://www.bohemiancoding.com/sketch -->
    <title>Content / Category / Health</title>
    <desc>Created with Sketch.</desc>
    <defs></defs>
    <g id="Content" stroke="none" stroke-width="1" fill="none" fill-rule="evenodd">
        <g id="Content-/-Category-/-Health" fill-rule="nonzero" fill="#2B2727">
            <g id="Group">
                <path d="M5.81955555,0 C2.99666666,0 1.25533334,0.434888889 0.508,0.789066666 C0.247577778,0.912331109 0.0826444445,1.17275555 0.0826444445,1.46093334 L0.0826444445,3.96093334 C0.0826444445,4.24913334 0.248442222,4.51042222 0.508866666,4.63366666 C1.25713334,4.98608889 2.99664445,5.42186666 5.81953334,5.42186666 C8.64242222,5.42186666 10.3837555,4.98697778 11.1310889,4.63366666 C11.3915111,4.51040222 11.5573111,4.24911111 11.5573111,3.96093334 L11.5573111,1.46093334 C11.5573111,1.17273334 11.39238,0.911444445 11.1310889,0.7882 C10.3836889,0.434911111 8.64242222,0 5.81953334,0 L5.81955555,0 Z" id="Fill-1"></path>
                <path d="M1.25866666,5.91844445 L1.25846445,5.91844445 C2.67779778,6.28824666 4.56064222,6.41151111 5.81846445,6.41151111 C7.07713111,6.41151111 8.96246445,6.28737778 10.3791311,5.91844445 L10.38,18.0364445 C10.38,19.0841995 8.33844445,19.9331551 5.81933334,19.9331551 C3.29946666,19.9331551 1.25866666,19.0841774 1.25866666,18.0364445 L1.25866666,5.91844445 Z M9.09090909,13.06 L9.09090909,11.1509091 L6.86363636,11.1509091 L6.86363636,8.92363636 L4.95454545,8.92363636 L4.95454545,11.1509091 L2.72727273,11.1509091 L2.72727273,13.06 L4.95454545,13.06 L4.95454545,15.2872727 L6.86363636,15.2872727 L6.86363636,13.06 L9.09090909,13.06 Z" id="Combined-Shape"></path>
            </g>
        </g>
    </g>
</svg>