<?xml version="1.0" encoding="UTF-8"?>
<svg width="42px" height="49px" viewBox="0 0 42 49" version="1.1" xmlns="http://www.w3.org/2000/svg" xmlns:xlink="http://www.w3.org/1999/xlink">
    <!-- Generator: Sketch 47 (45396) - http://www.bohemiancoding.com/sketch -->
    <title>Content / HMO PPO</title>
    <desc>Created with Sketch.</desc>
    <defs></defs>
    <g id="Content" stroke="none" stroke-width="1" fill="none" fill-rule="evenodd">
        <g id="Content-/-HMO-PPO">
            <g id="Group-13">
                <path d="M41.6507758,12.8698807 L41.6507758,6.30713797 C41.6507758,2.70551785 39.0896055,0.144450005 35.4880878,0.144450005 L6.43467912,0.0644134329 C4.67387455,0.0644134329 3.1532053,0.704706006 2.03264207,1.82521801 C0.912083965,2.94573001 0.271840054,4.54646145 0.271840054,6.22725506 L0.271840054,30.3985558 L0.271840054,41.9238222 C0.271840054,45.3654198 2.83300779,48.0066011 6.27470843,48.0066011 L27.9647525,48.0066011 C29.2453377,48.0066011 30.4459119,47.5263817 31.3262885,46.646005 C34.3676783,43.684678 37.409068,40.6431346 40.4502016,37.6819095 C41.2505673,36.8815437 41.6507758,36.0011671 41.6507758,34.8806038 L41.6507758,12.8704186 L41.6507758,12.8698807 Z M6.35477573,46.1650945 C3.95367858,46.1650945 2.19287401,44.4843522 2.19287401,42.0031928 L2.19287401,30.4779265 L2.19287401,6.30662573 C2.19287401,5.02604058 2.59305686,3.90552858 3.39344819,3.18517382 C4.19381391,2.38480811 5.23431495,1.98459964 6.43483792,1.98459964 L35.4882415,1.98459964 C38.0494118,1.98459964 39.7301542,3.66534203 39.7301542,6.22651232 L39.7301542,12.8696758 L39.7301542,34.3993856 L32.6070274,34.3993856 C29.8857839,34.3993856 28.2850525,36.000117 28.2850525,38.7213604 L28.2850525,46.164633 L27.9649062,46.164633 L6.35477573,46.1650945 Z M30.2858387,45.0445825 L30.2858387,38.6416568 C30.2858387,36.9609144 31.0061423,36.3206218 32.6869359,36.3206218 L39.2496786,36.3206218 C36.2082889,39.2019384 33.2468077,42.1631635 30.2855826,45.0444801 L30.2858387,45.0445825 Z" id="Fill-1" fill="#2B2727"></path>
                <path d="M35.088033,14.870667 C34.6078136,14.3904475 33.8874588,14.0703012 33.1671553,14.0703012 C32.1267055,14.0703012 31.2462776,14.7105938 30.8461203,15.5910217 L30.6060106,15.5910217 L30.2058278,15.5910217 C29.0853158,15.5109851 27.9648038,15.350912 26.7642296,15.350912 C24.0429861,15.350912 22.0420462,15.9912046 20.4412123,17.3518007 C18.6804078,18.8725212 17.8000311,20.9534208 16.9996142,22.9546168 C16.5994313,23.9950666 16.1191863,25.0355677 15.639018,25.9159444 C14.2784219,28.2369793 12.3575442,29.9177729 10.1965312,30.7981496 L10.9168347,28.1569684 C11.0769079,27.5966868 10.7567616,27.1165185 10.1965312,26.9563942 C9.63624956,26.8763576 9.15608135,27.1965039 8.99595699,27.6766977 L7.87544498,31.9186104 C7.71537184,32.3988298 7.79540841,32.8790493 8.03551813,33.2792065 C8.27562784,33.6793638 8.6758107,33.99951 9.15603013,34.1596344 L13.478005,35.3602086 C13.5580416,35.3602086 13.6380781,35.4402452 13.7981513,35.4402452 C14.1983341,35.4402452 14.598517,35.1200989 14.7585901,34.7199416 C14.8386267,34.4798319 14.7585901,34.15966 14.6785536,33.9195759 C14.5184804,33.6794662 14.3584073,33.5193931 14.118272,33.4393565 L11.2369554,32.6389908 C13.7981257,31.5985409 15.8790765,29.597601 17.4800641,27.0361746 C18.0403457,26.0757358 18.5205139,24.9552238 19.0007846,23.9147227 L19.0007846,23.8346862 C19.8011503,21.9138084 20.521505,20.1530039 21.8821011,18.9524809 C23.0826753,17.9120311 24.6834068,17.4317604 26.9244308,17.4317604 C27.9648806,17.4317604 29.0854438,17.511797 30.2059046,17.6718701 C30.4460143,17.6718701 30.686124,17.7519067 30.9262081,17.7519067 C31.0862813,18.3121883 31.4864897,18.7123456 31.886647,19.0324919 C32.3668664,19.3526381 32.9270968,19.5127113 33.4873784,19.5127113 C34.207682,19.5127113 34.8479745,19.192565 35.3282452,18.7123456 C35.8085158,18.2321261 36.0485487,17.5117714 36.0485487,16.7914678 C35.8884756,15.9911021 35.5683293,15.3508096 35.0881099,14.8705901 L35.088033,14.870667 Z M34.3677295,16.7115337 C34.3677295,17.03168 34.2876929,17.3518263 34.0475832,17.5919616 C33.8074735,17.8320969 33.5673638,17.9921445 33.2472175,17.9921445 C32.9270712,17.9921445 32.6069249,17.8320713 32.3667896,17.6719982 C32.1266799,17.4318885 32.0466433,17.1917788 32.0466433,16.8716325 C32.0466433,16.5514862 32.2067164,16.2313399 32.4468262,15.9912046 C32.6869359,15.8311314 32.9270456,15.6710583 33.2471919,15.6710583 C33.8874845,15.5910217 34.3677039,16.0712411 34.3677039,16.7115081 L34.3677295,16.7115337 Z" id="Fill-4" fill="#2B2727"></path>
                <polygon id="H" stroke="#2B2727" fill="#4D4D4D" transform="translate(10.170156, 19.673203) rotate(-30.000000) translate(-10.170156, -19.673203) " points="12.9826563 23.1961524 12.9826563 16.150254 12.1037501 16.150254 12.1037501 19.197129 8.23656255 19.197129 8.23656255 16.150254 7.3576563 16.150254 7.3576563 23.1961524 8.23656255 23.1961524 8.23656255 19.9881446 12.1037501 19.9881446 12.1037501 23.1961524"></polygon>
                <polygon id="M" stroke="#2B2727" fill="#4D4D4D" transform="translate(17.145972, 10.654297) rotate(-20.000000) translate(-17.145972, -10.654297) " points="20.6176517 14.1772464 20.6176517 7.13134793 19.5971439 7.13134793 17.1850345 12.9614261 17.1069095 12.9614261 14.6948002 7.13134793 13.6742923 7.13134793 13.6742923 14.1772464 14.4946048 14.1772464 14.4946048 8.79638699 14.5531986 8.79638699 16.7748783 14.1284182 17.5170658 14.1284182 19.7387455 8.79638699 19.7973392 8.79638699 19.7973392 14.1772464"></polygon>
                <path d="M27.6683132,3.79432224 C28.6709224,3.79432224 29.4586749,4.12635017 30.0315945,4.79041599 C30.604514,5.45448181 30.8909695,6.35128273 30.8909695,7.48084567 C30.8909695,8.60715339 30.6053278,9.50395432 30.0340359,10.1712754 C29.462744,10.8385964 28.6741776,11.1722519 27.6683132,11.1722519 C26.6591936,11.1722519 25.8673721,10.8385964 25.2928249,10.1712754 C24.7182778,9.50395432 24.4310085,8.60715339 24.4310085,7.48084567 C24.4310085,6.34802751 24.721533,5.45041279 25.3025906,4.78797458 C25.8836482,4.12553637 26.6722145,3.79432224 27.6683132,3.79432224 Z M27.6683132,4.60486911 C26.9521638,4.60486911 26.3841356,4.86365559 25.9642117,5.3812363 C25.5442877,5.89881701 25.3343288,6.5986798 25.3343288,7.48084567 C25.3343288,8.35324587 25.5402187,9.05148107 25.9520046,9.57557224 C26.3637905,10.0996634 26.9358877,10.361705 27.6683132,10.361705 C28.3909731,10.361705 28.9581875,10.0996634 29.3699734,9.57557224 C29.7817593,9.05148107 29.9876492,8.35324587 29.9876492,7.48084567 C29.9876492,6.5986798 29.7809455,5.89881701 29.367532,5.3812363 C28.9541184,4.86365559 28.3877179,4.60486911 27.6683132,4.60486911 Z" id="O" stroke="#2B2727" fill="#4D4D4D" transform="translate(27.660989, 7.483287) rotate(-20.000000) translate(-27.660989, -7.483287) "></path>
                <path d="M32.6683132,22.7943222 C33.6709224,22.7943222 34.4586749,23.1263502 35.0315945,23.790416 C35.604514,24.4544818 35.8909695,25.3512827 35.8909695,26.4808457 C35.8909695,27.6071534 35.6053278,28.5039543 35.0340359,29.1712754 C34.462744,29.8385964 33.6741776,30.1722519 32.6683132,30.1722519 C31.6591936,30.1722519 30.8673721,29.8385964 30.2928249,29.1712754 C29.7182778,28.5039543 29.4310085,27.6071534 29.4310085,26.4808457 C29.4310085,25.3480275 29.721533,24.4504128 30.3025906,23.7879746 C30.8836482,23.1255364 31.6722145,22.7943222 32.6683132,22.7943222 Z M32.6683132,23.6048691 C31.9521638,23.6048691 31.3841356,23.8636556 30.9642117,24.3812363 C30.5442877,24.898817 30.3343288,25.5986798 30.3343288,26.4808457 C30.3343288,27.3532459 30.5402187,28.0514811 30.9520046,28.5755722 C31.3637905,29.0996634 31.9358877,29.361705 32.6683132,29.361705 C33.3909731,29.361705 33.9581875,29.0996634 34.3699734,28.5755722 C34.7817593,28.0514811 34.9876492,27.3532459 34.9876492,26.4808457 C34.9876492,25.5986798 34.7809455,24.898817 34.367532,24.3812363 C33.9541184,23.8636556 33.3877179,23.6048691 32.6683132,23.6048691 Z" id="O-Copy" stroke="#2B2727" fill="#4D4D4D" transform="translate(32.660989, 26.483287) rotate(-20.000000) translate(-32.660989, -26.483287) "></path>
                <path d="M17.7345997,35.7893278 L20.3957325,35.7893278 C21.0630536,35.7893278 21.6058541,36.001728 22.0241505,36.4265348 C22.4424469,36.8513416 22.6515919,37.399025 22.6515919,38.0696012 C22.6515919,38.7271566 22.4391917,39.266702 22.0143849,39.6882536 C21.5895781,40.1098052 21.0467775,40.3205778 20.3859669,40.3205778 L18.613506,40.3205778 L18.613506,42.8352262 L17.7345997,42.8352262 L17.7345997,35.7893278 Z M18.613506,36.5705778 L18.613506,39.5393278 L20.1662403,39.5393278 C20.6675449,39.5393278 21.0565384,39.4107483 21.3332325,39.1535856 C21.6099266,38.8964229 21.7482716,38.5350983 21.7482716,38.0696012 C21.7482716,37.5845728 21.612368,37.2134827 21.3405568,36.95632 C21.0687455,36.6991572 20.6773106,36.5705778 20.1662403,36.5705778 L18.613506,36.5705778 Z" id="P" stroke="#2B2727" fill="#4D4D4D" transform="translate(20.193096, 39.312277) rotate(-20.000000) translate(-20.193096, -39.312277) "></path>
                <path d="M20.7345997,25.7893278 L23.3957325,25.7893278 C24.0630536,25.7893278 24.6058541,26.001728 25.0241505,26.4265348 C25.4424469,26.8513416 25.6515919,27.399025 25.6515919,28.0696012 C25.6515919,28.7271566 25.4391917,29.266702 25.0143849,29.6882536 C24.5895781,30.1098052 24.0467775,30.3205778 23.3859669,30.3205778 L21.613506,30.3205778 L21.613506,32.8352262 L20.7345997,32.8352262 L20.7345997,25.7893278 Z M21.613506,26.5705778 L21.613506,29.5393278 L23.1662403,29.5393278 C23.6675449,29.5393278 24.0565384,29.4107483 24.3332325,29.1535856 C24.6099266,28.8964229 24.7482716,28.5350983 24.7482716,28.0696012 C24.7482716,27.5845728 24.612368,27.2134827 24.3405568,26.95632 C24.0687455,26.6991572 23.6773106,26.5705778 23.1662403,26.5705778 L21.613506,26.5705778 Z" id="P" stroke="#2B2727" fill="#4D4D4D" transform="translate(23.193096, 29.312277) rotate(-10.000000) translate(-23.193096, -29.312277) "></path>
            </g>
        </g>
    </g>
</svg>