<?xml version="1.0" encoding="UTF-8"?>
<svg width="42px" height="59px" viewBox="0 0 42 59" version="1.1" xmlns="http://www.w3.org/2000/svg" xmlns:xlink="http://www.w3.org/1999/xlink">
    <!-- Generator: Sketch 47 (45396) - http://www.bohemiancoding.com/sketch -->
    <title>Content / HSA FSA</title>
    <desc>Created with Sketch.</desc>
    <defs></defs>
    <g id="Content" stroke="none" stroke-width="1" fill="none" fill-rule="evenodd">
        <g id="Content-/-HSA-FSA" fill="#2B2727">
            <g id="Group-8">
                <g id="Group-7">
                    <path d="M36.8803103,8.62409077 L30.3409338,8.62409077 C30.3409338,6.04934616 28.2446701,3.95314088 25.6699839,3.95314088 L25.5788432,3.95314088 C25.1345319,1.83412858 23.2547426,0.227778657 20.9990048,0.227778657 C18.743267,0.227778657 16.8635243,1.83412858 16.4305991,3.96451523 L16.3280666,3.96451523 C13.753322,3.96451523 11.6571167,6.06077884 11.6571167,8.63546512 L5.1177402,8.63546512 C2.54299559,8.63546512 0.446790315,10.7317287 0.446790315,13.306415 L0.446790315,53.4310406 C0.446790315,56.0057852 2.54305392,58.1019906 5.1177402,58.1019906 L36.8801761,58.1019906 C39.4549207,58.1019906 41.551126,56.0057268 41.551126,53.4310406 L41.551126,13.294749 C41.5397283,10.7200044 39.4548624,8.62379912 36.8801761,8.62379912 L36.8803103,8.62409077 Z M13.5366435,8.62409077 C13.5366435,7.07472926 14.7898053,5.82150917 16.3392251,5.82150917 L18.2075934,5.82150917 L18.2075934,4.89872854 C18.2075934,3.34936704 19.4607552,2.09614695 21.010175,2.09614695 C22.5595948,2.09614695 23.8127566,3.34930871 23.8127566,4.89872854 L23.8127566,5.83294185 L25.6697505,5.83294185 C27.2191121,5.83294185 28.4723321,7.08610361 28.4723321,8.63552345 L28.4723321,11.438105 L13.5369352,11.438105 L13.5366435,8.62409077 Z M39.6824835,53.4308661 C39.6824835,54.9802277 38.4293218,56.2334477 36.8799019,56.2334477 L5.11746605,56.2334477 C3.56810454,56.2334477 2.31488445,54.980286 2.31488445,53.4308661 L2.31488445,13.294574 C2.31488445,11.7452125 3.56804621,10.4919924 5.11746605,10.4919924 L11.6568426,10.4919924 L11.6568426,13.294574 L30.3294427,13.294574 L30.3294427,10.4919924 L36.8688192,10.4919924 C38.4181808,10.4919924 39.6714008,11.7451542 39.6714008,13.294574 L39.6714008,53.4308661 L39.6824835,53.4308661 Z" id="Fill-1"></path>
                </g>
                <path d="M16.589359,26.4417949 C17.0939744,26.4417949 17.4934615,26.0212821 17.4934615,25.5271795 L17.4934615,20.1551282 C17.4934615,19.6610256 17.0939744,19.2405128 16.589359,19.2405128 C16.0847436,19.2405128 15.6852564,19.6610256 15.6852564,20.1551282 L15.6852564,21.9528205 L12.7732051,21.9528205 L12.7732051,20.1551282 C12.7732051,19.6610256 12.3737179,19.2405128 11.8691026,19.2405128 C11.3644872,19.2405128 10.965,19.6610256 10.965,20.1551282 L10.965,25.5271795 C10.965,26.0212821 11.3644872,26.4417949 11.8691026,26.4417949 C12.3737179,26.4417949 12.7732051,26.0212821 12.7732051,25.5271795 L12.7732051,23.5297436 L15.6852564,23.5297436 L15.6852564,25.5271795 C15.6852564,26.0212821 16.0847436,26.4417949 16.589359,26.4417949 Z M18.8811538,25.8320513 C19.5434615,26.2420513 20.3319231,26.4733333 21.3621795,26.4733333 C23.2439744,26.4733333 24.2847436,25.5376923 24.2847436,24.1289744 C24.2847436,22.5415385 22.6867949,22.2051282 21.5303846,21.9633333 C20.7524359,21.8161538 20.3214103,21.69 20.3214103,21.3220513 C20.3214103,21.0171795 20.5526923,20.7753846 21.2570513,20.7753846 C21.6985897,20.7753846 22.2137179,20.9120513 22.7919231,21.1853846 C22.9075641,21.2379487 23.0442308,21.28 23.1808974,21.28 C23.6329487,21.28 24.0008974,20.9120513 24.0008974,20.46 C24.0008974,20.1446154 23.8116667,19.8607692 23.5488462,19.7346154 C22.8970513,19.3982051 22.1401282,19.23 21.3726923,19.23 C19.4698718,19.23 18.4711538,20.2497436 18.4711538,21.4271795 C18.4711538,23.0882051 20.0901282,23.3825641 21.2465385,23.6138462 C21.9929487,23.7715385 22.445,23.9292308 22.445,24.3287179 C22.445,24.6651282 22.0665385,24.9279487 21.4462821,24.9279487 C20.7944872,24.9279487 20.2267949,24.7282051 19.7432051,24.4233333 C19.6170513,24.3392308 19.4698718,24.2971795 19.3016667,24.2971795 C18.8496154,24.2971795 18.4816667,24.675641 18.4816667,25.1276923 C18.4816667,25.4325641 18.639359,25.6848718 18.8811538,25.8320513 Z M31.4019231,25.2117949 C31.4334615,25.3064103 31.465,25.4220513 31.465,25.5271795 C31.465,26.0317949 31.055,26.4417949 30.5503846,26.4417949 C30.1508974,26.4417949 29.7934615,26.1684615 29.6883333,25.8005128 L29.4885897,25.2012821 L26.6080769,25.2012821 L26.4083333,25.8005128 C26.2926923,26.1684615 25.9457692,26.4417949 25.5462821,26.4417949 C25.0416667,26.4417949 24.6316667,26.0317949 24.6316667,25.5271795 C24.6316667,25.4220513 24.6526923,25.3064103 24.6947436,25.2117949 L26.5555128,20.2707692 C26.7867949,19.6715385 27.365,19.2405128 28.0483333,19.2405128 C28.7316667,19.2405128 29.3098718,19.6715385 29.530641,20.2707692 L31.4019231,25.2117949 Z M27.1232051,23.6769231 L28.9734615,23.6769231 L28.0483333,20.9120513 L27.1232051,23.6769231 Z M17.8351282,39.0571795 C18.5184615,39.0571795 19.1071795,38.6261538 19.3279487,38.0269231 L21.1676923,33.1489744 C21.2097436,33.0333333 21.2412821,32.9282051 21.2412821,32.8125641 C21.2412821,32.2869231 20.8102564,31.8558974 20.2846154,31.8558974 C19.8641026,31.8558974 19.5066667,32.1397436 19.3805128,32.5076923 L17.8351282,37.0071795 L16.3002564,32.5076923 C16.1635897,32.1397436 15.8166667,31.8558974 15.3961538,31.8558974 C14.8705128,31.8558974 14.4394872,32.2869231 14.4394872,32.8125641 C14.4394872,32.9282051 14.4710256,33.0333333 14.5025641,33.1489744 L16.3528205,38.0269231 C16.5735897,38.6261538 17.1623077,39.0571795 17.8351282,39.0571795 Z M22.0507692,38.4474359 C22.7130769,38.8574359 23.5015385,39.0887179 24.5317949,39.0887179 C26.4135897,39.0887179 27.454359,38.1530769 27.454359,36.744359 C27.454359,35.1569231 25.8564103,34.8205128 24.7,34.5787179 C23.9220513,34.4315385 23.4910256,34.3053846 23.4910256,33.9374359 C23.4910256,33.6325641 23.7223077,33.3907692 24.4266667,33.3907692 C24.8682051,33.3907692 25.3833333,33.5274359 25.9615385,33.8007692 C26.0771795,33.8533333 26.2138462,33.8953846 26.3505128,33.8953846 C26.8025641,33.8953846 27.1705128,33.5274359 27.1705128,33.0753846 C27.1705128,32.76 26.9812821,32.4761538 26.7184615,32.35 C26.0666667,32.0135897 25.3097436,31.8453846 24.5423077,31.8453846 C22.6394872,31.8453846 21.6407692,32.8651282 21.6407692,34.0425641 C21.6407692,35.7035897 23.2597436,35.9979487 24.4161538,36.2292308 C25.1625641,36.3869231 25.6146154,36.5446154 25.6146154,36.9441026 C25.6146154,37.2805128 25.2361538,37.5433333 24.6158974,37.5433333 C23.9641026,37.5433333 23.3964103,37.3435897 22.9128205,37.0387179 C22.7866667,36.9546154 22.6394872,36.9125641 22.4712821,36.9125641 C22.0192308,36.9125641 21.6512821,37.2910256 21.6512821,37.7430769 C21.6512821,38.0479487 21.8089744,38.3002564 22.0507692,38.4474359 Z M12.7048718,51.6725641 C13.2094872,51.6725641 13.6089744,51.2520513 13.6089744,50.7579487 L13.6089744,48.7920513 L16.1951282,48.7920513 C16.6051282,48.7920513 16.9520513,48.4451282 16.9520513,48.0246154 C16.9520513,47.6041026 16.6051282,47.2571795 16.1951282,47.2571795 L13.6089744,47.2571795 L13.6089744,46.0902564 L16.2687179,46.0902564 C16.6787179,46.0902564 17.025641,45.7433333 17.025641,45.3333333 C17.025641,44.9128205 16.6787179,44.5658974 16.2687179,44.5658974 L12.7574359,44.5658974 C12.1371795,44.5658974 11.8007692,44.9023077 11.8007692,45.5225641 L11.8007692,50.7579487 C11.8007692,51.2520513 12.2002564,51.6725641 12.7048718,51.6725641 Z M18.0453846,51.0628205 C18.7076923,51.4728205 19.4961538,51.7041026 20.5264103,51.7041026 C22.4082051,51.7041026 23.4489744,50.7684615 23.4489744,49.3597436 C23.4489744,47.7723077 21.8510256,47.4358974 20.6946154,47.1941026 C19.9166667,47.0469231 19.485641,46.9207692 19.485641,46.5528205 C19.485641,46.2479487 19.7169231,46.0061538 20.4212821,46.0061538 C20.8628205,46.0061538 21.3779487,46.1428205 21.9561538,46.4161538 C22.0717949,46.4687179 22.2084615,46.5107692 22.3451282,46.5107692 C22.7971795,46.5107692 23.1651282,46.1428205 23.1651282,45.6907692 C23.1651282,45.3753846 22.9758974,45.0915385 22.7130769,44.9653846 C22.0612821,44.6289744 21.304359,44.4607692 20.5369231,44.4607692 C18.6341026,44.4607692 17.6353846,45.4805128 17.6353846,46.6579487 C17.6353846,48.3189744 19.254359,48.6133333 20.4107692,48.8446154 C21.1571795,49.0023077 21.6092308,49.16 21.6092308,49.5594872 C21.6092308,49.8958974 21.2307692,50.1587179 20.6105128,50.1587179 C19.9587179,50.1587179 19.3910256,49.9589744 18.9074359,49.6541026 C18.7812821,49.57 18.6341026,49.5279487 18.4658974,49.5279487 C18.0138462,49.5279487 17.6458974,49.9064103 17.6458974,50.3584615 C17.6458974,50.6633333 17.8035897,50.915641 18.0453846,51.0628205 Z M30.5661538,50.4425641 C30.5976923,50.5371795 30.6292308,50.6528205 30.6292308,50.7579487 C30.6292308,51.2625641 30.2192308,51.6725641 29.7146154,51.6725641 C29.3151282,51.6725641 28.9576923,51.3992308 28.8525641,51.0312821 L28.6528205,50.4320513 L25.7723077,50.4320513 L25.5725641,51.0312821 C25.4569231,51.3992308 25.11,51.6725641 24.7105128,51.6725641 C24.2058974,51.6725641 23.7958974,51.2625641 23.7958974,50.7579487 C23.7958974,50.6528205 23.8169231,50.5371795 23.8589744,50.4425641 L25.7197436,45.5015385 C25.9510256,44.9023077 26.5292308,44.4712821 27.2125641,44.4712821 C27.8958974,44.4712821 28.4741026,44.9023077 28.6948718,45.5015385 L30.5661538,50.4425641 Z M26.2874359,48.9076923 L28.1376923,48.9076923 L27.2125641,46.1428205 L26.2874359,48.9076923 Z" id="HSA-VS-FSA"></path>
            </g>
        </g>
    </g>
</svg>