<?xml version="1.0" encoding="UTF-8"?>
<svg width="17px" height="20px" viewBox="0 0 17 20" version="1.1" xmlns="http://www.w3.org/2000/svg" xmlns:xlink="http://www.w3.org/1999/xlink">
    <!-- Generator: Sketch 47 (45396) - http://www.bohemiancoding.com/sketch -->
    <title>Content / Category / Life</title>
    <desc>Created with Sketch.</desc>
    <defs></defs>
    <g id="Content" stroke="none" stroke-width="1" fill="none" fill-rule="evenodd">
        <g id="Content-/-Category-/-Life" fill-rule="nonzero" fill="#2B2727">
            <path d="M16.0969008,2.92707148 L15.661099,2.92707148 C12.9077946,2.92707148 10.9048385,2.17424856 9.16003753,0.484350052 L8.86430214,0.188614668 C8.60625194,-0.062871556 8.19502835,-0.062871556 7.93697815,0.188614668 L7.63306401,0.484350052 C5.8963998,2.17269669 3.89432452,2.92707148 1.13200252,2.92707148 L0.704379469,2.92707148 C0.337384062,2.92707148 0.0391950514,3.22444262 0.0391950514,3.5922559 L0.0391950514,4.0280577 C0.0391950514,4.49581956 0.0391950514,4.98241353 0.0203524586,5.48375022 C-0.0713955542,10.3784204 -0.197558089,17.0826925 8.0401458,19.9391752 C8.27361779,20.0202749 8.52755764,20.0202749 8.76102964,19.9391752 C16.9987134,17.0826925 16.8726767,10.3784204 16.7890017,5.4814434 C16.7890017,4.9801067 16.7701612,4.49351273 16.7701612,4.02575087 L16.7701612,3.5924027 C16.7701612,3.41463851 16.6988928,3.2442394 16.5727366,3.11891571 C16.4457625,2.99439941 16.2745476,2.92476885 16.096796,2.92722667 L16.0969008,2.92707148 Z M14.3815223,10.5209404 L8.40054578,10.5209404 L8.40054578,17.7289399 C4.30298963,16.1872237 2.88743592,13.4822788 2.4195692,10.5209404 L8.40054578,10.5209404 L8.40054578,2.74692916 C10.1347564,4.16248288 12.1353007,4.9218488 14.5706823,5.09150553 L14.5706823,5.52321796 C14.6100032,7.16567969 14.6419507,8.88112108 14.381451,10.5210663 L14.3815223,10.5209404 Z" id="Page-1-Copy-11"></path>
        </g>
    </g>
</svg>