<?xml version="1.0" encoding="UTF-8"?>
<svg width="58px" height="38px" viewBox="0 0 58 38" version="1.1" xmlns="http://www.w3.org/2000/svg" xmlns:xlink="http://www.w3.org/1999/xlink">
    <!-- Generator: Sketch 47 (45396) - http://www.bohemiancoding.com/sketch -->
    <title>Content / Money Cloud</title>
    <desc>Created with Sketch.</desc>
    <defs></defs>
    <g id="Content" stroke="none" stroke-width="1" fill="none" fill-rule="evenodd">
        <g id="Content-/-Money-Cloud" fill-rule="nonzero" fill="#2B2727">
            <g id="Group-25">
                <path d="M48.3542682,14.6476777 C48.3905102,10.2419782 46.426655,6.06034151 43.0153793,3.2746326 C39.6018422,0.488517781 35.112293,-0.598743711 30.8038382,0.318615052 C26.4955572,1.23371231 22.8352262,4.05606918 20.853221,7.98859252 C18.3751926,6.23540511 15.1269771,6.0065873 12.4294089,7.3996737 C9.72940518,8.79044062 8.03281335,11.5697709 8.02597085,14.6051731 L8.02597085,14.9857146 C4.53090297,16.054884 1.76740261,18.7413187 0.596639439,22.2022315 C-0.572151877,25.6633763 -0.00364462958,29.475576 2.12559004,32.4451046 C4.25482496,35.4146911 7.68419383,37.1769826 11.3380303,37.1792441 L46.6424257,37.1792441 C50.493129,37.1860402 54.0856729,35.2380039 56.1784338,32.0034155 C58.2714267,28.7710885 58.5817166,24.698178 57.0006934,21.1853086 C55.4196123,17.6743528 52.1623508,15.2056603 48.3547901,14.6298466 L48.3542682,14.6476777 Z M46.6418458,35.3804497 L11.3420894,35.3804497 C8.18903108,35.3895073 5.23776733,33.8356105 3.45697856,31.2330255 C1.67885662,28.6303824 1.3028671,25.3142638 2.45577019,22.3783679 C3.60646976,19.4450234 6.13662931,17.2705004 9.21244858,16.5726815 C9.67227031,16.4662226 9.97579313,16.0245219 9.90783204,15.5556426 C9.63148786,13.7344941 10.1637937,11.8861495 11.3642985,10.4908016 C12.5648092,9.0931922 14.3134736,8.2913441 16.1550336,8.2913441 C17.8108604,8.28454799 19.4009876,8.93465498 20.5810867,10.0944006 C20.8008063,10.289203 21.0998003,10.3662159 21.3851963,10.2982607 C21.6728654,10.2325727 21.9084387,10.0332414 22.0217227,9.76142601 C23.4986007,6.06021394 26.628986,3.26743058 30.4727888,2.2161212 C34.318969,1.16510176 38.4327026,1.97828058 41.59011,4.41105571 C44.7454298,6.84605755 46.5779438,10.6197537 46.5371208,14.6040597 L46.5371208,15.3787118 C46.5076749,15.8770429 46.8814203,16.3051745 47.379734,16.3414166 C50.6959105,16.5792572 53.6493186,18.5295086 55.1697451,21.4855261 C56.6919112,24.4438052 56.5582505,27.9818411 54.8209168,30.8156794 C53.0812984,33.6516053 49.9916782,35.3753932 46.6644261,35.3617662 L46.6418458,35.3804497 Z" id="Page-1"></path>
                <path d="M35.9042864,24.4432636 C35.9042864,26.8251907 34.386135,29.2332928 30.3551815,29.5473931 L30.3551815,31.2749446 C30.3551815,31.693745 30.0149062,32.0340203 29.5961058,32.0340203 C29.0987804,32.0340203 28.7585051,31.693745 28.7585051,31.2749446 L28.7585051,29.5473931 C26.5074531,29.416518 24.6752015,28.6050923 23.3402753,27.4010412 C23.1047001,27.191641 23,26.9037158 23,26.6157905 C23,26.0922901 23.4188004,25.5164395 23.9946509,25.5164395 C24.2302261,25.5164395 24.4396263,25.5949646 24.6228514,25.7520148 C25.6698524,26.6681406 27.0833036,27.4272162 28.7585051,27.6104414 L28.7585051,21.2237358 C26.0886527,20.4908351 23.3141003,19.6008843 23.3141003,16.3813565 C23.3141003,13.6591541 25.5913273,11.7483774 28.7585051,11.5651523 L28.7585051,9.75907567 C28.7585051,9.3402753 29.0987804,9 29.5961058,9 C30.0149062,9 30.3551815,9.3402753 30.3551815,9.75907567 L30.3551815,11.5913273 C32.1874331,11.7745524 33.6270594,12.3242279 34.9096355,13.4235789 C35.1452107,13.6068041 35.2499108,13.8947293 35.2499108,14.1826546 C35.2499108,14.7585051 34.8049354,15.2558305 34.2290849,15.2558305 C34.0196847,15.2558305 33.7841095,15.1773054 33.6008843,15.0202553 C32.5800584,14.1564795 31.5330575,13.7376792 30.3551815,13.580629 L30.3551815,19.260609 C33.0512089,20.0196847 35.9042864,21.0405106 35.9042864,24.4432636 Z M28.7585051,18.8418087 L28.7585051,13.502104 C26.8739034,13.6329791 25.5651523,14.706155 25.5651523,16.2504814 C25.5651523,17.7162827 26.9786035,18.3183082 28.7585051,18.8418087 Z M33.6532344,24.6264888 C33.6532344,22.9251123 32.1874331,22.2183866 30.3551815,21.6687112 L30.3551815,27.6104414 C32.8418087,27.3486912 33.6532344,25.8567148 33.6532344,24.6264888 Z" id="$"></path>
            </g>
        </g>
    </g>
</svg>