<?xml version="1.0" encoding="UTF-8"?>
<svg width="43px" height="38px" viewBox="0 0 43 38" version="1.1" xmlns="http://www.w3.org/2000/svg" xmlns:xlink="http://www.w3.org/1999/xlink">
    <!-- Generator: Sketch 47 (45396) - http://www.bohemiancoding.com/sketch -->
    <title>Content / Open Book</title>
    <desc>Created with Sketch.</desc>
    <defs></defs>
    <g id="Content" stroke="none" stroke-width="1" fill="none" fill-rule="evenodd">
        <g id="Content-/-Open-Book" stroke="#2B2727" fill="#2B2727">
            <path d="M6.48769474,0.0138276124 C6.20175214,0.0677328573 5.99549738,0.320866703 6.00018349,0.613841469 L6.00018349,4.85143933 L0.731341813,3.61391075 C0.656340081,3.59984642 0.581338349,3.59984642 0.506336617,3.61391075 C0.211015797,3.66078383 -0.00461118228,3.91626373 7.49259371e-05,4.21392461 L7.49259371e-05,31.814562 C0.00242098011,32.0934724 0.196951472,32.334888 0.468835751,32.3958254 L20.8693069,37.1959363 C20.9560269,37.2146867 21.0450929,37.2146867 21.1318129,37.1959363 L41.532284,32.3958254 C41.8041623,32.334888 41.9986988,32.0934724 42.0010449,31.814562 L42.0010449,4.21392461 C42.005731,4.02876633 41.9236971,3.85298027 41.7807258,3.73578556 C41.6401005,3.61859686 41.4502501,3.57406383 41.269778,3.61391075 L36.0009363,4.85143933 L36.0009363,0.613841469 C36.0056224,0.400554543 35.8978059,0.201331942 35.7149937,0.0888293444 C35.5345215,-0.0213271994 35.3071703,-0.030705416 35.1196659,0.0700789114 L21.0007399,7.72025558 L6.88181385,0.0700789114 C6.75993903,0.00679545003 6.62165384,-0.011954983 6.48805475,0.0138276124 L6.48769474,0.0138276124 Z M7.2002112,1.60758442 L18.6754762,7.83272817 L7.2002112,5.13266582 L7.2002112,1.60758442 Z M34.8008486,1.60758442 L34.8008486,5.13266582 L23.3255836,7.83272817 L34.8008486,1.60758442 Z M1.20007264,4.96394193 L20.400516,9.48276628 L20.400516,35.8269746 L1.20007264,31.3268707 L1.20007264,4.96394193 Z M40.8009871,4.96394193 L40.8009871,31.3273507 L21.6005437,35.8274547 L21.6005437,9.48324629 L40.8009871,4.96394193 Z" id="Page-1-Copy-12"></path>
        </g>
    </g>
</svg>