<?xml version="1.0" encoding="UTF-8"?>
<svg width="20px" height="20px" viewBox="0 0 20 20" version="1.1" xmlns="http://www.w3.org/2000/svg" xmlns:xlink="http://www.w3.org/1999/xlink">
    <!-- Generator: Sketch 47 (45396) - http://www.bohemiancoding.com/sketch -->
    <title>Content / Category / Pet</title>
    <desc>Created with Sketch.</desc>
    <defs></defs>
    <g id="Content" stroke="none" stroke-width="1" fill="none" fill-rule="evenodd">
        <g id="Content-/-Category-/-Pet" fill-rule="nonzero" fill="#2B2727">
            <g id="Group-2">
                <path d="M19.6536842,6.89052632 C19.4285605,6.28813158 19.0492368,5.85126316 18.5578684,5.63023684 C18.3327447,5.52846842 18.0952895,5.47707105 17.8547368,5.47707105 C16.8257368,5.47707105 15.7792895,6.43615 15.2519474,7.86501842 C14.5991842,9.63415 14.9785,11.3673868 16.1349737,11.8955447 C16.3672921,12.0024526 16.6160526,12.0559079 16.8751053,12.0559079 C17.9236316,12.0559079 18.9885789,11.1759605 19.5261579,9.86635526 C19.9322105,8.87540789 19.9795,7.76314474 19.6536263,6.89030263 L19.6536842,6.89052632 Z" id="Fill-1"></path>
                <path d="M4.74815789,7.865 C4.22081579,6.43613158 3.17434211,5.47705263 2.14536842,5.47705263 C1.90379737,5.47705263 1.66736842,5.52845 1.44223684,5.63021842 C0.950868421,5.85225789 0.571552632,6.28811316 0.346421053,6.89050789 C0.0205526316,7.76324474 0.0678421053,8.87550789 0.474915789,9.86656053 C1.01152105,11.1761921 2.07646842,12.0561132 3.12491579,12.0561132 C3.38293421,12.0561132 3.63273158,12.0016316 3.86504737,11.89575 C5.02046842,11.3663553 5.39978421,9.63422368 4.74807368,7.86522368 L4.74815789,7.865 Z" id="Fill-2"></path>
                <path d="M7.03631579,7.66657895 C7.13191579,7.67069211 7.22751579,7.66863421 7.32207895,7.65835526 C7.87615789,7.60387368 8.37778947,7.31911842 8.7715,6.83598684 C9.40781579,6.05472368 9.58357895,4.83248684 9.44994737,3.57519737 C9.24641053,1.63748684 8.22463158,0.19125 6.85331579,0.131513158 C6.85331579,0.131513158 6.65697632,0.131513158 6.55726316,0.141792105 C5.95178947,0.201413158 5.40184211,0.515976316 4.96597368,1.05152895 C4.33378947,1.82763421 4.03052632,2.98202895 4.15389474,4.14047632 C4.35640263,6.05555526 5.62284211,7.60468684 7.03626316,7.66626579 L7.03631579,7.66657895 Z" id="Fill-3"></path>
                <path d="M10,9.17763158 C6.71052632,9.17763158 3.42105263,13.0878947 3.42105263,16.8421053 C3.42105263,17.9625789 3.98334211,18.8641053 4.53434211,19.2331316 C5.21586842,19.6895526 5.69594737,19.8684211 6.69510526,19.8684211 C7.88239474,19.8684211 8.20210526,19.4531316 8.75821053,19.0871579 C9.16013158,18.8219474 9.50760526,18.5937368 10,18.5937368 C10.4923947,18.5937368 10.8398421,18.8229711 11.2417895,19.0871579 C11.7979211,19.4531053 12.1176053,19.8684211 13.3048947,19.8684211 C14.3040789,19.8684211 14.7841316,19.6895553 15.4656579,19.2331316 C16.0166579,18.8641053 16.5789474,17.9625789 16.5789474,16.8421053 C16.5789474,13.0878947 13.2894737,9.17763158 10,9.17763158 Z" id="Fill-4"></path>
                <path d="M12.6871053,7.64894737 C12.7816763,7.6582 12.8772789,7.66128421 12.9728684,7.65717105 C14.3873421,7.59549211 15.6528684,6.04635526 15.8552368,4.13138158 C15.9785921,2.97288158 15.6743158,1.81846053 15.0431579,1.04243421 C14.6073158,0.506855263 14.0778947,0.20875 13.4724211,0.148118421 C13.3727079,0.138868421 13.1568421,0.131671053 13.1568421,0.131671053 C11.7845263,0.191292105 10.7637368,1.62838158 10.5591842,3.56614474 C10.42555,4.82332895 10.6023579,6.04559211 11.2376316,6.82693421 C11.6313421,7.31109211 12.1329737,7.59482895 12.6870526,7.64930263 L12.6871053,7.64894737 Z" id="Fill-5"></path>
            </g>
        </g>
    </g>
</svg>