<?xml version="1.0" encoding="UTF-8"?>
<svg width="43px" height="42px" viewBox="0 0 43 42" version="1.1" xmlns="http://www.w3.org/2000/svg" xmlns:xlink="http://www.w3.org/1999/xlink">
    <!-- Generator: Sketch 47 (45396) - http://www.bohemiancoding.com/sketch -->
    <title>Content / Price Tag</title>
    <desc>Created with Sketch.</desc>
    <defs></defs>
    <g id="Content" stroke="none" stroke-width="1" fill="none" fill-rule="evenodd">
        <g id="Content-/-Price-Tag" stroke="#2B2727" stroke-width="0.5" fill="#2B2727">
            <path d="M41.0347823,0.000190295663 L22.4977274,0.327754817 C22.2501934,0.333338898 22.0156953,0.43384284 21.8425983,0.610651448 L0.282896632,22.1703527 C0.102362126,22.3490242 0,22.592837 0,22.8478275 C0,23.1028085 0.102362126,23.3466309 0.282896632,23.5253024 L18.4778556,41.7050133 C18.848225,42.0716616 19.445636,42.0716616 19.8178922,41.7050133 L41.3775934,20.145313 C41.5525439,19.9722256 41.654906,19.737718 41.6604901,19.490184 L42.0029439,0.967899271 C42.006665,0.711060099 41.9061658,0.461663193 41.7237684,0.279275268 C41.5413757,0.0968825777 41.2919788,-0.00362136422 41.0351444,9.97687412e-05 L41.0347823,0.000190295663 Z M40.0818673,1.90602024 L39.7543028,19.0880301 L19.1475165,39.6948163 L2.29283301,22.8401328 L22.8996192,2.23334653 L40.0818673,1.90602024 Z M32.9645454,5.22635716 C31.9874264,5.22635716 31.0103074,5.6023107 30.2696066,6.34307821 C28.7881097,7.82457512 28.7881097,10.2515066 30.2696066,11.7327653 C31.7511035,13.212404 34.178035,13.212404 35.6592936,11.7327653 C37.1407905,10.2531266 37.1407905,7.82433689 35.6592936,6.34307821 C34.9185452,5.60232976 33.9414262,5.22635716 32.9643548,5.22635716 L32.9645454,5.22635716 Z M32.9645454,7.11732163 C33.4502938,7.11732163 33.9286095,7.30716135 34.3045821,7.68311489 C35.0564796,8.43501245 35.0564796,9.62615616 34.3045821,10.3780537 C33.5526845,11.1299513 32.3615408,11.1299513 31.6096432,10.3780537 C30.8577457,9.62615616 30.8577457,8.43501245 31.6096432,7.68311489 C31.9855968,7.30716135 32.478797,7.11732163 32.964593,7.11732163 L32.9645454,7.11732163 Z M21.0978953,12.9391556 C20.5711715,12.9391556 20.1449803,13.3653612 20.1449803,13.8920706 L20.1449803,14.5323342 C18.4997249,14.9157347 17.2118127,16.3674578 17.2118127,18.2397452 C17.2118127,19.4346052 17.7980937,20.3689384 18.5072053,20.8900399 C19.216317,21.4111415 19.9775055,21.647512 20.6065723,21.9472038 C21.7307261,22.416219 22.8920912,22.9224646 22.8995239,23.9572826 C22.8995239,25.2321876 22.1662082,25.8631126 21.0085595,25.8631126 C20.1096271,25.8631126 19.3558238,25.1670558 19.0133938,24.4784318 C18.823554,23.985203 18.1721604,23.7358252 17.7031357,23.9721957 C17.2341205,24.2085615 17.0387157,24.8785608 17.316014,25.3271455 C17.8185337,26.3377595 18.8030854,27.3502317 20.1449803,27.6647413 L20.1449803,28.1858905 C20.1449803,28.7126142 20.5711858,29.1388054 21.0978953,29.1388054 C21.6246047,29.1388054 22.0508102,28.7125999 22.0508102,28.1858905 L22.0508102,27.6200972 C23.6067298,27.1752812 24.7904408,25.758959 24.7904408,23.9573303 C24.7904408,22.7624702 24.219073,21.8132716 23.5099613,21.2921224 C22.8008496,20.7709732 22.0396611,20.5346503 21.4105943,20.2349585 C20.2920151,19.7659481 19.1250754,19.2615559 19.1176427,18.2397928 C19.1176427,16.9648879 19.8509584,16.3339629 21.0086071,16.3339629 C21.9075395,16.3339629 22.6613429,17.0151541 23.0037728,17.7037781 C23.1936126,18.1970069 23.8450062,18.4463848 24.3140309,18.2100142 C24.7830462,17.9736484 24.9635854,17.3036491 24.6862633,16.8550644 C24.2079477,15.8910003 23.2978186,14.934369 22.0508817,14.5770259 L22.0508817,13.8921183 C22.0508817,13.3653945 21.6246762,12.9392033 21.0979667,12.9392033 L21.0978953,12.9391556 Z" id="Page-1"></path>
        </g>
    </g>
</svg>