<?xml version="1.0" encoding="UTF-8"?>
<svg width="42px" height="46px" viewBox="0 0 42 46" version="1.1" xmlns="http://www.w3.org/2000/svg" xmlns:xlink="http://www.w3.org/1999/xlink">
    <!-- Generator: Sketch 47 (45396) - http://www.bohemiancoding.com/sketch -->
    <title>Content / Price Sticker</title>
    <desc>Created with Sketch.</desc>
    <defs></defs>
    <g id="Content" stroke="none" stroke-width="1" fill="none" fill-rule="evenodd">
        <g id="Content-/-Price-Sticker" stroke-width="0.5" stroke="#FFFFFF" fill="#2B2727">
            <g id="Group-14">
                <path d="M20.9996646,45.1300011 C19.1529985,45.1300011 17.4773797,44.1194018 16.5714731,42.4769379 C16.5260929,42.4141044 16.4842024,42.3460296 16.4492915,42.2744695 C16.1735114,41.7159299 15.7406611,41.0160127 15.2588871,40.8606493 C14.8818729,40.736725 14.3023992,40.881595 13.5343849,41.2830438 C13.4593306,41.3214432 13.3825336,41.3546084 13.3039895,41.3772985 C11.6179148,42.1575113 9.68393789,41.9655077 8.19178814,40.8501711 C6.71514344,39.7470331 5.94717381,37.9353093 6.15137589,36.0762213 C6.14962878,35.9994199 6.15486565,35.9226229 6.16708649,35.8423317 C6.44810341,34.0201074 6.09028506,33.5069212 4.34834745,33.2241661 C4.26456651,33.2102026 4.18253268,33.1892596 4.10398413,33.1613326 C2.30620016,32.7773344 0.860967725,31.4630147 0.297200177,29.6791733 C-0.263082083,27.907575 0.152328406,25.9875839 1.37589657,24.6053994 C1.4212768,24.5390717 1.47189389,24.4744911 1.52949496,24.4151474 C2.78795175,23.121793 2.78795175,22.4515455 1.52949496,21.1581465 C1.47015125,21.0988028 1.41778704,21.0342222 1.37240681,20.9661474 C0.15059023,19.5837395 -0.264829195,17.6655357 0.295453066,15.893714 C0.859220614,14.1098725 2.30619569,12.7955617 4.10572231,12.4132972 C4.18252374,12.3853703 4.26281046,12.3644228 4.34484876,12.3522064 C6.08677743,12.0676997 6.44285761,11.5527798 6.1635878,9.73055549 C6.15660382,9.65201142 6.15136695,9.57520999 6.15311407,9.49492327 C5.94889858,7.63780138 6.71688161,5.82777556 8.19352631,4.7245481 C9.68764213,3.60746887 11.628545,3.41546529 13.3146644,4.20090604 C13.3897187,4.22534327 13.464773,4.25676 13.5363331,4.29341361 C14.3043474,4.69486507 14.8837987,4.84149736 15.2608353,4.71580808 C15.7425646,4.55871993 16.1737125,3.86052753 16.4512396,3.30198791 C16.4878932,3.22868071 16.5297837,3.1606059 16.5751639,3.09602531 C17.4810258,1.45530402 19.1531594,0.446429545 20.9998254,0.446429545 C22.8482341,0.446429545 24.5255956,1.46053195 25.4315022,3.10822382 C25.4751397,3.16756754 25.5152831,3.23389523 25.548447,3.30196557 C25.8259697,3.86050519 26.2570773,4.56042235 26.7405939,4.71578573 C27.1141184,4.83796739 27.6953392,4.69658538 28.4650962,4.29339127 C28.5384034,4.25499055 28.6134577,4.22357381 28.6902591,4.19913659 C30.3763338,3.41369584 32.3103108,3.6091847 33.8060352,4.72277865 C35.2826799,5.82591674 36.0489069,7.63415523 35.8481901,9.49315381 C35.8499372,9.57169789 35.8447003,9.65024196 35.8307368,9.73053315 C35.5497199,11.5527575 35.9075382,12.0659437 37.6494759,12.3504414 C37.7332568,12.3644049 37.813548,12.3836053 37.8920921,12.4115322 C39.6898747,12.7955305 41.1351071,14.1081075 41.7006173,15.891949 C42.2591569,17.6653346 41.8454891,19.5870237 40.6201783,20.9692975 C40.5747981,21.0356252 40.5259236,21.0984587 40.468327,21.1560598 C39.2116129,22.4494141 39.2116129,23.1196617 40.468327,24.4130607 C40.5259281,24.4724044 40.5765452,24.5352423 40.6236725,24.6033127 C41.8472317,25.9857206 42.2609085,27.905667 41.7023689,29.6770866 C41.140344,31.460928 39.6933689,32.7769814 37.892101,33.1592459 C37.8152996,33.18892 37.7350129,33.2081159 37.6512319,33.2220794 C35.9093032,33.504839 35.5532231,34.017976 35.8324929,35.840245 C35.8447092,35.9205362 35.8499461,36.0025701 35.8499461,36.0828612 C36.0524145,37.9399831 35.2844359,39.7465237 33.8077912,40.847874 C32.3172054,41.9666959 30.3814858,42.1569568 28.6920152,41.3750013 C28.6152137,41.3505654 28.5401639,41.3191474 28.4668522,41.2807467 C27.6953526,40.8775525 27.1106286,40.7344055 26.74235,40.8583522 C26.2588781,41.0136977 25.8294728,41.7136327 25.550203,42.2721723 C25.5170392,42.3419898 25.4768958,42.4083175 25.4315156,42.471151 C24.5221237,44.1171002 22.8465049,45.1294422 20.9998388,45.1294422 L20.9996646,45.1300011 Z M18.8458018,40.8240181 C18.8894393,40.8851089 18.9278356,40.9496895 18.9609994,41.0177598 C19.3607038,41.8311276 20.1426458,42.3372985 20.999669,42.3372985 C21.8566922,42.3372985 22.6386477,41.8311276 23.0400813,41.0177598 C23.071498,40.9514321 23.1116458,40.8885987 23.1535363,40.8275078 C23.8918363,39.4172176 24.7854997,38.5584518 25.8781819,38.2041143 C26.9621063,37.8515373 28.1594811,38.0138623 29.5453296,38.6980867 C29.6186369,38.7225239 29.6902014,38.7521936 29.7582718,38.7888472 C30.5349993,39.1972782 31.4443465,39.1274607 32.1355504,38.6125587 C32.8477108,38.0802034 33.200261,37.1795694 33.0536555,36.2579791 C33.0414391,36.179435 33.0362023,36.1026335 33.0362023,36.0258366 C32.6364979,32.9329123 33.9543073,31.0794097 36.9599207,30.5065715 C37.0332279,30.4821343 37.1082822,30.4629339 37.1868263,30.4507175 C38.0577907,30.3110826 38.7664657,29.6932038 39.035235,28.8361806 C39.311015,27.9652162 39.0841094,27.0174415 38.4452831,26.3628778 C38.3911763,26.3070238 38.3405547,26.2476801 38.2969216,26.1830995 C36.2128539,23.926242 36.2128539,21.6415022 38.3004113,19.3845553 C38.3423018,19.3217218 38.3911718,19.2623737 38.4452831,19.2065197 C39.0841184,18.5537433 39.3110195,17.6042259 39.035235,16.7314743 C38.7664389,15.8761937 38.0577907,15.2565722 37.188569,15.1186799 C37.1082778,15.1064636 37.0314808,15.0872632 36.9564265,15.0610789 C33.956041,14.4885981 32.6382003,12.6331742 33.0361933,9.53868596 C33.0361933,9.46363164 33.0414302,9.38857732 33.0536466,9.31178036 C33.1985183,8.39018999 32.847684,7.48781339 32.1355415,6.95545811 C31.4425949,6.4388313 30.5332477,6.37073415 29.7582628,6.78091671 C29.6884454,6.81757031 29.6168808,6.84724441 29.5453207,6.87167716 C28.1594275,7.55238057 26.9568247,7.71645716 25.878173,7.3656496 C24.7837928,7.0200521 23.8901294,6.15781885 23.1500421,4.74574133 C23.1098987,4.68639761 23.071498,4.62530678 23.0400813,4.5607262 C22.6386298,3.74561582 21.8566922,3.23944488 20.999669,3.23944488 C20.1426458,3.23944488 19.3606904,3.74561582 18.9609994,4.55898356 C18.9278356,4.6270539 18.8876922,4.69338159 18.8440546,4.75621953 C18.1057546,6.16302444 17.2138339,7.02004763 16.122939,7.37438516 C15.0459852,7.72347242 13.8433824,7.56289452 12.4540486,6.87692744 C12.3807414,6.85249021 12.310924,6.82282059 12.2411065,6.78790963 C11.4661216,6.37773154 10.5567745,6.44754899 9.86557051,6.96245102 C9.15341016,7.4948063 8.80085995,8.39718291 8.94572278,9.31877328 C8.95619652,9.39208048 8.96143339,9.4671348 8.96143339,9.54218912 C9.36113774,12.6368561 8.04332831,14.493978 5.03945756,15.0663694 C4.96615035,15.0908066 4.88934892,15.1117496 4.81080485,15.1239704 C3.94158315,15.2636053 3.23295277,15.8814842 2.96239529,16.7385074 C2.68661523,17.6094717 2.9135253,18.5572464 3.55409071,19.2118102 C3.60994467,19.2694113 3.66056176,19.328755 3.70419935,19.3950827 C5.78473708,21.6501975 5.78473708,23.9331053 3.70070512,26.1882649 C3.65707201,26.2528455 3.60819756,26.3121892 3.5523436,26.3680432 C2.91351056,27.0225622 2.68486678,27.9703369 2.9606513,28.841346 C3.23119225,29.6983691 3.93983604,30.3179907 4.81080038,30.4576256 C4.89109157,30.4698419 4.96788853,30.4890423 5.04119574,30.5152266 C8.04337299,31.0859648 9.36116902,32.9431313 8.95968628,36.0411942 C8.95968628,36.1145014 8.95619652,36.1895557 8.94223303,36.26461 C8.79736126,37.1827151 9.14993827,38.0868344 9.86208075,38.6191896 C10.5550273,39.1358165 11.4643745,39.2056562 12.2393594,38.793731 C12.3091769,38.7570774 12.3824841,38.7274033 12.4575384,38.7029706 C13.8434316,38.0205245 15.0425491,37.8581906 16.1194582,38.2089982 C17.2120957,38.5563383 18.1057591,39.4150863 18.8458464,40.823678 L18.8458018,40.8240181 Z" id="Fill-1"></path>
                <path d="M22.3988904,32.3701199 C23.5901493,32.1740636 24.7030973,31.7287576 25.5755152,31.0303297 C26.9055544,29.9691045 27.6351412,28.5291447 27.6351412,26.9774322 C27.6351412,25.4275071 26.9038118,23.98576 25.5755152,22.9245347 C24.3416789,21.9366345 22.7166414,21.3920361 21.0026397,21.3920361 C21.0002575,21.3920361 20.9978767,21.392042 20.9954973,21.3920539 C19.9160046,21.3906602 18.9133436,21.064378 18.1713621,20.4722107 C17.5220665,19.9520539 17.1625055,19.287079 17.1625055,18.601103 C17.1625055,17.9151269 17.5203284,17.2484094 18.1713621,16.7282526 C19.6409916,15.5553239 22.7445058,15.6391048 24.3188726,16.8993042 C24.9227656,17.3827851 25.8024878,17.285063 26.2824745,16.6811253 C26.7642126,16.0789749 26.6664905,15.2009953 26.0642955,14.719266 C25.0488133,13.9063427 23.7523198,13.396389 22.3988904,13.1928421 L22.3988904,11.3627959 C22.3988904,10.5912963 21.774041,9.96644688 21.0025414,9.96644688 C20.2310418,9.96644688 19.6061923,10.5912963 19.6061923,11.3627959 L19.6061923,13.2075178 C18.4136163,13.4038791 17.299276,13.8499447 16.4261358,14.5482144 C15.0995819,15.6094397 14.3699951,17.0493995 14.3699951,18.6011119 C14.3699951,20.151037 15.1013246,21.5910415 16.4278785,22.6522668 C17.6617595,23.640167 19.2885397,24.1847654 21.0025414,24.1847654 L21.0024431,24.1847565 C21.0048253,24.1847565 21.0072061,24.1847505 21.0095855,24.1847386 C22.0890782,24.1861323 23.0917354,24.5124146 23.831978,25.1045819 C24.4830162,25.6264813 24.8425772,26.2914562 24.8425772,26.9774322 C24.8425772,27.6634082 24.4847544,28.3301258 23.831978,28.8502826 C22.3605612,30.0232113 19.2606216,29.9394304 17.6862548,28.679231 C17.0823618,28.1992354 16.2043911,28.2952595 15.722653,28.8974099 C15.2409148,29.4995603 15.3386369,30.3775399 15.9408319,30.8610118 C16.9566729,31.672416 18.2531502,32.1816099 19.6061923,32.3848647 L19.6061923,34.2139028 C19.6061923,34.9854024 20.2310418,35.6102518 21.0025414,35.6102518 C21.774041,35.6102518 22.3988904,34.9836597 22.3988904,34.2139028 L22.3988904,32.3701199 Z" id="Combined-Shape"></path>
            </g>
        </g>
    </g>
</svg>