<?xml version="1.0" encoding="UTF-8"?>
<svg width="103px" height="95px" viewBox="0 0 103 95" version="1.1" xmlns="http://www.w3.org/2000/svg" xmlns:xlink="http://www.w3.org/1999/xlink">
    <!-- Generator: Sketch 47 (45396) - http://www.bohemiancoding.com/sketch -->
    <title>Content / Quote Cards</title>
    <desc>Created with Sketch.</desc>
    <defs></defs>
    <g id="Content" stroke="none" stroke-width="1" fill="none" fill-rule="evenodd">
        <g id="Content-/-Quote-Cards">
            <g id="Group-28">
                <path d="M1.7355083,40.3042637 C1.1239119,40.0974537 0.832992774,39.8202633 0.832992774,39.5418548 L0.832992774,2.04820117 C0.832992774,1.84206789 0.981783473,1.63512253 1.33488379,1.4591716 C2.00732892,1.12459415 3.14524465,0.934025759 4.37998537,0.934025759 L98.7976771,0.934025759 C99.4718988,0.934025759 100.14923,0.979502306 100.723961,1.08710307 C101.817462,1.29201822 102.444604,1.63877689 102.444604,2.01490584 L102.444604,39.5433436 C102.444604,39.820534 102.156794,40.0965063 101.549195,40.3026396 C100.866534,40.5344888 99.915606,40.6640157 98.8989436,40.6640157 L4.37998537,40.6640157 C3.36732032,40.6640157 2.41950136,40.5354362 1.7355083,40.3042637 Z" id="Fill-3" stroke="#2B2727" stroke-width="2" fill-rule="nonzero"></path>
                <path d="M1.7355083,93.8845684 C1.1239119,93.6777584 0.832992774,93.400568 0.832992774,93.1221595 L0.832992774,55.6285059 C0.832992774,55.4223726 0.981783473,55.2154272 1.33488379,55.0394763 C2.00732892,54.7048989 3.14524465,54.5143305 4.37998537,54.5143305 L98.7976771,54.5143305 C99.4718988,54.5143305 100.14923,54.559807 100.723961,54.6674078 C101.817462,54.8723229 102.444604,55.2190816 102.444604,55.5952105 L102.444604,93.1236484 C102.444604,93.4008387 102.156794,93.676811 101.549195,93.8829443 C100.866534,94.1147935 99.915606,94.2443204 98.8989436,94.2443204 L4.37998537,94.2443204 C3.36732032,94.2443204 2.41950136,94.1157409 1.7355083,93.8845684 Z" id="Fill-3" stroke="#2B2727" stroke-width="2" fill-rule="nonzero"></path>
                <path d="M10.0788904,64.2694174 L40.5512754,64.2694174" id="Line" stroke="#2B2727" stroke-width="2" stroke-linecap="round"></path>
                <path d="M10.0788904,9.99659699 L40.5512754,9.99659699" id="Line" stroke="#2B2727" stroke-width="2" stroke-linecap="round"></path>
                <path d="M18.8057808,28.520008 C18.8057808,26.0712723 16.7351587,25.3510559 14.8806016,24.8829153 L14.8806016,22.3441526 C15.4387693,22.4701905 16.0329478,22.8843149 16.5551046,23.0283582 C16.6811425,23.064369 16.789175,23.0823744 16.8972074,23.0823744 C17.5273967,23.0823744 18.1755915,22.5962283 18.1755915,21.9120228 C18.1755915,21.7139633 18.1035698,21.5159038 17.9955374,21.3538551 C17.4733805,20.5796225 15.9429207,20.1654981 14.8806016,20.0394602 L14.8806016,19.0491627 C14.8806016,18.5990275 14.502488,18.2209139 14.0523528,18.2209139 C13.5482013,18.2209139 13.1700877,18.5990275 13.1700877,19.0491627 L13.1700877,20.0034494 C10.7393575,20.2555251 9.29892473,21.8039903 9.29892473,23.6225367 C9.29892473,26.0712723 11.3155306,26.7554779 13.1700877,27.2236185 L13.1700877,30.0684731 C12.3778497,29.9244299 11.6936442,29.6183379 11.1174711,29.2222189 C10.9014061,29.0781756 10.6673358,29.006154 10.4152601,29.006154 C9.78507078,29.006154 9.22690309,29.5283109 9.22690309,30.194511 C9.22690309,30.4105759 9.29892473,30.59063 9.40695719,30.7706841 C9.96512487,31.6529492 11.729655,32.2111168 13.1700877,32.3371547 L13.1700877,33.2374252 C13.1700877,33.6875604 13.5482013,34.065674 14.0523528,34.065674 C14.502488,34.065674 14.8806016,33.6875604 14.8806016,33.2374252 L14.8806016,32.3191493 C17.5093913,32.0490682 18.8057808,30.5186084 18.8057808,28.520008 Z M13.1700877,24.4327801 C12.4138605,24.2167152 11.9097091,23.9286286 11.9097091,23.4064717 C11.9097091,22.7942878 12.3598443,22.3441526 13.1700877,22.2361201 L13.1700877,24.4327801 Z M16.2130019,28.8080945 C16.2130019,29.3662622 15.7628666,29.8884191 14.8806016,30.0684731 L14.8806016,27.6557483 C15.6548342,27.907824 16.2130019,28.213916 16.2130019,28.8080945 Z M25.6478363,31.0047544 L25.6478363,21.5159038 C25.6478363,20.7056604 24.9636307,20.0574656 24.1533873,20.0574656 C23.7392629,20.0574656 23.3431439,20.2195143 23.0730628,20.4895955 L20.3002297,23.2984393 C20.0841648,23.5145042 19.9761324,23.7845853 19.9761324,24.0546665 C19.9761324,24.648845 20.4802838,25.1169856 21.0384515,25.1169856 C21.2905273,25.1169856 21.542603,25.0269586 21.7406625,24.8288991 L23.0910682,23.4424826 L23.0910682,31.0047544 C23.0910682,31.68896 23.6672413,32.2651331 24.3514468,32.2651331 C25.0716632,32.2651331 25.6478363,31.68896 25.6478363,31.0047544 Z M36.8291954,31.0047544 C36.8291954,30.4105759 36.3250439,29.9064245 35.7308654,29.9064245 L31.8236916,29.9064245 C34.9386274,27.6377429 36.6311359,25.8552074 36.6311359,23.8025907 C36.6311359,21.4078713 34.5965246,19.9674386 32.0397565,19.9674386 C30.5273022,19.9674386 28.5106963,20.6156333 27.9345232,21.5339092 C27.8264908,21.6959579 27.7724746,21.876012 27.7724746,22.0560661 C27.7724746,22.7042608 28.2946314,23.2084122 28.8888099,23.2084122 C29.1588911,23.2084122 29.3929614,23.1363906 29.6270317,22.9743419 C30.3112373,22.5062013 31.1394861,22.2361201 32.0937728,22.2361201 C33.0840703,22.2361201 34.038357,22.758277 34.038357,23.8025907 C34.038357,25.2070127 32.5979242,26.5214075 28.1145773,29.8344028 C27.7724746,30.0864786 27.5744151,30.500603 27.5744151,30.9147274 C27.5744151,31.6349437 28.1505882,32.1571006 28.7807775,32.1571006 L35.7308654,32.1571006 C36.3250439,32.1571006 36.8291954,31.6529492 36.8291954,31.0047544 Z M47.9565383,28.213916 C47.9565383,25.7831858 46.1379919,24.3247476 44.1033807,24.3247476 C43.0050507,24.3247476 42.0327586,24.7568774 41.4565855,25.3330505 L41.4565855,22.3981688 L46.1559973,22.3981688 C46.7501758,22.3981688 47.2543273,21.8940174 47.2543273,21.2818335 C47.2543273,20.6516441 46.7501758,20.1474927 46.1559973,20.1474927 L40.3402502,20.1474927 C39.5480122,20.1474927 38.8998174,20.7956874 38.8998174,21.5879254 L38.8998174,26.1973102 C38.8998174,26.8995211 39.4039689,27.421678 40.1962069,27.421678 C40.5563151,27.421678 40.8984179,27.3136455 41.1865044,27.115586 C41.8346991,26.6834562 42.4648885,26.5394129 43.2031102,26.5394129 C44.5715213,26.5394129 45.3637593,27.2596293 45.3637593,28.3219485 C45.3637593,29.2942406 44.5535159,30.104484 43.1310886,30.104484 C42.266829,30.104484 41.4385801,29.8704136 40.7363692,29.4382838 C40.5203043,29.312246 40.2862339,29.2402243 40.070169,29.2402243 C39.4399797,29.2402243 38.8458012,29.7263704 38.8458012,30.3925705 C38.8458012,30.5726246 38.8998174,30.7526787 38.9898445,30.9147274 C39.5480122,31.8510087 41.5826234,32.3731655 43.149094,32.3731655 C46.0479649,32.3731655 47.9565383,30.7706841 47.9565383,28.213916 Z" id="$125" fill="#2B2727" fill-rule="nonzero"></path>
                <path d="M18.8057808,83.8678814 C18.8057808,81.4191458 16.7351587,80.6989294 14.8806016,80.2307888 L14.8806016,77.6920261 C15.4387693,77.818064 16.0329478,78.2321884 16.5551046,78.3762316 C16.6811425,78.4122425 16.789175,78.4302479 16.8972074,78.4302479 C17.5273967,78.4302479 18.1755915,77.9441018 18.1755915,77.2598963 C18.1755915,77.0618368 18.1035698,76.8637773 17.9955374,76.7017286 C17.4733805,75.927496 15.9429207,75.5133716 14.8806016,75.3873337 L14.8806016,74.3970362 C14.8806016,73.946901 14.502488,73.5687874 14.0523528,73.5687874 C13.5482013,73.5687874 13.1700877,73.946901 13.1700877,74.3970362 L13.1700877,75.3513229 C10.7393575,75.6033986 9.29892473,77.1518638 9.29892473,78.9704101 C9.29892473,81.4191458 11.3155306,82.1033513 13.1700877,82.571492 L13.1700877,85.4163466 C12.3778497,85.2723034 11.6936442,84.9662114 11.1174711,84.5700924 C10.9014061,84.4260491 10.6673358,84.3540275 10.4152601,84.3540275 C9.78507078,84.3540275 9.22690309,84.8761844 9.22690309,85.5423845 C9.22690309,85.7584494 9.29892473,85.9385035 9.40695719,86.1185576 C9.96512487,87.0008226 11.729655,87.5589903 13.1700877,87.6850282 L13.1700877,88.5852986 C13.1700877,89.0354339 13.5482013,89.4135475 14.0523528,89.4135475 C14.502488,89.4135475 14.8806016,89.0354339 14.8806016,88.5852986 L14.8806016,87.6670228 C17.5093913,87.3969416 18.8057808,85.8664819 18.8057808,83.8678814 Z M13.1700877,79.7806536 C12.4138605,79.5645886 11.9097091,79.2765021 11.9097091,78.7543452 C11.9097091,78.1421613 12.3598443,77.6920261 13.1700877,77.5839936 L13.1700877,79.7806536 Z M16.2130019,84.155968 C16.2130019,84.7141357 15.7628666,85.2362925 14.8806016,85.4163466 L14.8806016,83.0036218 C15.6548342,83.2556975 16.2130019,83.5617895 16.2130019,84.155968 Z M25.6478363,86.3526279 L25.6478363,76.8637773 C25.6478363,76.0535339 24.9636307,75.4053391 24.1533873,75.4053391 C23.7392629,75.4053391 23.3431439,75.5673878 23.0730628,75.8374689 L20.3002297,78.6463128 C20.0841648,78.8623777 19.9761324,79.1324588 19.9761324,79.40254 C19.9761324,79.9967185 20.4802838,80.4648591 21.0384515,80.4648591 C21.2905273,80.4648591 21.542603,80.3748321 21.7406625,80.1767726 L23.0910682,78.7903561 L23.0910682,86.3526279 C23.0910682,87.0368335 23.6672413,87.6130066 24.3514468,87.6130066 C25.0716632,87.6130066 25.6478363,87.0368335 25.6478363,86.3526279 Z M37.2433198,83.9038923 C37.2433198,83.2737029 36.7391683,82.7695515 36.1449898,82.7695515 L35.5868221,82.7695515 L35.5868221,76.8277664 C35.5868221,75.7114311 34.5064976,75.2072796 33.4081676,75.3873337 C32.633935,75.3873337 31.8597024,75.8014581 31.445578,76.4496529 L27.4303718,82.7875569 C27.2683231,83.0396326 27.1963015,83.3277192 27.1963015,83.6158057 C27.1963015,84.4260491 27.79048,85.0202276 28.5106963,85.0202276 L33.030054,85.0202276 L33.030054,86.3526279 C33.030054,87.0368335 33.6062271,87.6130066 34.2904327,87.6130066 C35.0106491,87.6130066 35.5868221,87.0368335 35.5868221,86.3526279 L35.5868221,85.0202276 L36.1449898,85.0202276 C36.7391683,85.0202276 37.2433198,84.5160762 37.2433198,83.9038923 Z M33.030054,82.7695515 L29.7890804,82.7695515 L33.030054,77.7640477 L33.030054,82.7695515 Z M47.902522,83.5617895 C47.902522,81.1310592 46.0839757,79.6726211 44.0493645,79.6726211 C42.9510345,79.6726211 41.9787424,80.1047509 41.4025693,80.680924 L41.4025693,77.7460423 L46.1019811,77.7460423 C46.6961596,77.7460423 47.2003111,77.2418909 47.2003111,76.6297069 C47.2003111,75.9995176 46.6961596,75.4953662 46.1019811,75.4953662 L40.2862339,75.4953662 C39.4939959,75.4953662 38.8458012,76.1435609 38.8458012,76.9357989 L38.8458012,81.5451837 C38.8458012,82.2473946 39.3499527,82.7695515 40.1421907,82.7695515 C40.5022989,82.7695515 40.8444016,82.661519 41.1324882,82.4634595 C41.7806829,82.0313297 42.4108722,81.8872864 43.149094,81.8872864 C44.5175051,81.8872864 45.3097431,82.6075028 45.3097431,83.6698219 C45.3097431,84.642114 44.4994997,85.4523575 43.0770724,85.4523575 C42.2128127,85.4523575 41.3845639,85.2182871 40.6823529,84.7861573 C40.466288,84.6601194 40.2322177,84.5880978 40.0161528,84.5880978 C39.3859635,84.5880978 38.791785,85.0742439 38.791785,85.740444 C38.791785,85.9204981 38.8458012,86.1005522 38.9358283,86.2626009 C39.4939959,87.1988821 41.5286072,87.721039 43.0950778,87.721039 C45.9939487,87.721039 47.902522,86.1185576 47.902522,83.5617895 Z" id="$145" fill="#2B2727" fill-rule="nonzero"></path>
                <path d="M94.8200209,6.17497058 L95.7881209,8.1367661 L97.9528697,8.45140831 C98.5279902,8.53517502 98.7577023,9.24163341 98.3415834,9.64753996 L96.7752236,11.1740847 L97.1449347,13.3303017 C97.2427918,13.9033539 96.6419467,14.3396388 96.1274537,14.0694653 L94.1913828,13.0514672 L92.2553119,14.0694653 C91.7408189,14.3401559 91.1394567,13.9033539 91.2378309,13.3303017 L91.6075419,11.1740847 L90.0411821,9.64715215 C89.6250633,9.24111633 89.8547754,8.53465794 90.4298958,8.45089123 L92.5946446,8.13624902 L93.5627447,6.1744535 C93.8197327,5.6538848 94.5630329,5.6538848 94.8200209,6.17497058 Z" id="Page-1" fill="#2B2727" fill-rule="nonzero"></path>
                <path d="M94.8200209,59.7552753 L95.7881209,61.7170708 L97.9528697,62.031713 C98.5279902,62.1154797 98.7577023,62.8219381 98.3415834,63.2278447 L96.7752236,64.7543894 L97.1449347,66.9106064 C97.2427918,67.4836586 96.6419467,67.9199435 96.1274537,67.64977 L94.1913828,66.6317719 L92.2553119,67.64977 C91.7408189,67.9204606 91.1394567,67.4836586 91.2378309,66.9106064 L91.6075419,64.7543894 L90.0411821,63.2274569 C89.6250633,62.821421 89.8547754,62.1149626 90.4298958,62.0311959 L92.5946446,61.7165537 L93.5627447,59.7547582 C93.8197327,59.2341895 94.5630329,59.2341895 94.8200209,59.7552753 Z" id="Page-1" fill="#2B2727" fill-rule="nonzero"></path>
                <path d="M83.7397691,6.17497058 L84.7078691,8.1367661 L86.8726179,8.45140831 C87.4477384,8.53517502 87.6774505,9.24163341 87.2613316,9.64753996 L85.6949718,11.1740847 L86.0646829,13.3303017 C86.16254,13.9033539 85.5616949,14.3396388 85.0472018,14.0694653 L83.111131,13.0514672 L81.1750601,14.0694653 C80.6605671,14.3401559 80.0592049,13.9033539 80.1575791,13.3303017 L80.5272901,11.1740847 L78.9609303,9.64715215 C78.5448115,9.24111633 78.7745236,8.53465794 79.349644,8.45089123 L81.5143928,8.13624902 L82.4824929,6.1744535 C82.7394809,5.6538848 83.4827811,5.6538848 83.7397691,6.17497058 Z" id="Page-1" fill="#2B2727" fill-rule="nonzero"></path>
                <path d="M83.7397691,59.7552753 L84.7078691,61.7170708 L86.8726179,62.031713 C87.4477384,62.1154797 87.6774505,62.8219381 87.2613316,63.2278447 L85.6949718,64.7543894 L86.0646829,66.9106064 C86.16254,67.4836586 85.5616949,67.9199435 85.0472018,67.64977 L83.111131,66.6317719 L81.1750601,67.64977 C80.6605671,67.9204606 80.0592049,67.4836586 80.1575791,66.9106064 L80.5272901,64.7543894 L78.9609303,63.2274569 C78.5448115,62.821421 78.7745236,62.1149626 79.349644,62.0311959 L81.5143928,61.7165537 L82.4824929,59.7547582 C82.7394809,59.2341895 83.4827811,59.2341895 83.7397691,59.7552753 Z" id="Page-1" fill="#2B2727" fill-rule="nonzero"></path>
                <path d="M72.6595173,6.17497058 L73.6276173,8.1367661 L75.7923661,8.45140831 C76.3674866,8.53517502 76.5971987,9.24163341 76.1810798,9.64753996 L74.61472,11.1740847 L74.9844311,13.3303017 C75.0822882,13.9033539 74.4814431,14.3396388 73.96695,14.0694653 L72.0308792,13.0514672 L70.0948083,14.0694653 C69.5803153,14.3401559 68.9789531,13.9033539 69.0773272,13.3303017 L69.4470383,11.1740847 L67.8806785,9.64715215 C67.4645597,9.24111633 67.6942717,8.53465794 68.2693922,8.45089123 L70.434141,8.13624902 L71.4022411,6.1744535 C71.6592291,5.6538848 72.4025293,5.6538848 72.6595173,6.17497058 Z" id="Page-1" fill="#2B2727" fill-rule="nonzero"></path>
                <path d="M72.6595173,59.7552753 L73.6276173,61.7170708 L75.7923661,62.031713 C76.3674866,62.1154797 76.5971987,62.8219381 76.1810798,63.2278447 L74.61472,64.7543894 L74.9844311,66.9106064 C75.0822882,67.4836586 74.4814431,67.9199435 73.96695,67.64977 L72.0308792,66.6317719 L70.0948083,67.64977 C69.5803153,67.9204606 68.9789531,67.4836586 69.0773272,66.9106064 L69.4470383,64.7543894 L67.8806785,63.2274569 C67.4645597,62.821421 67.6942717,62.1149626 68.2693922,62.0311959 L70.434141,61.7165537 L71.4022411,59.7547582 C71.6592291,59.2341895 72.4025293,59.2341895 72.6595173,59.7552753 Z" id="Page-1" fill="#2B2727" fill-rule="nonzero"></path>
                <path d="M61.5792654,6.17497058 L62.5473655,8.1367661 L64.7121143,8.45140831 C65.2872348,8.53517502 65.5169469,9.24163341 65.100828,9.64753996 L63.5344682,11.1740847 L63.9041793,13.3303017 C64.0020364,13.9033539 63.4011912,14.3396388 62.8866982,14.0694653 L60.9506274,13.0514672 L59.0145565,14.0694653 C58.5000635,14.3401559 57.8987013,13.9033539 57.9970754,13.3303017 L58.3667865,11.1740847 L56.8004267,9.64715215 C56.3843079,9.24111633 56.6140199,8.53465794 57.1891404,8.45089123 L59.3538892,8.13624902 L60.3219893,6.1744535 C60.5789772,5.6538848 61.3222775,5.6538848 61.5792654,6.17497058 Z" id="Page-1" fill="#2B2727" fill-rule="nonzero"></path>
                <path d="M50.4990136,6.17497058 L51.4671137,8.1367661 L53.6318625,8.45140831 C54.206983,8.53517502 54.4366951,9.24163341 54.0205762,9.64753996 L52.4542164,11.1740847 L52.8239275,13.3303017 C52.9217846,13.9033539 52.3209394,14.3396388 51.8064464,14.0694653 L49.8703755,13.0514672 L47.9343047,14.0694653 C47.4198117,14.3401559 46.8184495,13.9033539 46.9168236,13.3303017 L47.2865347,11.1740847 L45.7201749,9.64715215 C45.304056,9.24111633 45.5337681,8.53465794 46.1088886,8.45089123 L48.2736374,8.13624902 L49.2417375,6.1744535 C49.4987254,5.6538848 50.2420257,5.6538848 50.4990136,6.17497058 Z" id="Page-1" fill="#2B2727" fill-rule="nonzero"></path>
            </g>
        </g>
    </g>
</svg>