<?xml version="1.0" encoding="UTF-8"?>
<svg width="44px" height="41px" viewBox="0 0 44 41" version="1.1" xmlns="http://www.w3.org/2000/svg" xmlns:xlink="http://www.w3.org/1999/xlink">
    <!-- Generator: Sketch 47 (45396) - http://www.bohemiancoding.com/sketch -->
    <title>Content / Scales</title>
    <desc>Created with Sketch.</desc>
    <defs></defs>
    <g id="Content" stroke="none" stroke-width="1" fill="none" fill-rule="evenodd">
        <g id="Content-/-Scales" fill-rule="nonzero" fill="#2B2727">
            <path d="M42.5326561,8.66559444 L39.522989,3.42727371 L39.522989,0.721976684 L39.522989,0.715211277 C39.522989,0.664485876 39.501095,0.622218315 39.4943604,0.571492914 C39.4876215,0.52753292 39.4792011,0.478499952 39.4657275,0.434535629 L39.4657275,0.427774551 C39.4505682,0.399029147 39.4219396,0.377049149 39.408466,0.348308074 C39.3798331,0.297582673 39.3512045,0.246857271 39.3074123,0.204589711 C39.2720447,0.169083228 39.2282568,0.153864309 39.1928893,0.125123234 C39.1575217,0.103143236 39.1204684,0.0676367541 39.0783663,0.0524178351 C39.0211048,0.0304378379 38.9638433,0.0236724311 38.9065775,0.0169113528 C38.8678426,0.0152189189 38.8392097,0 38.8038422,0 L38.7971033,0 C38.7533153,0 38.7112089,0.0152189189 38.6741555,0.0219843257 C38.6236286,0.028745404 38.5663671,0.0371989162 38.5158403,0.0574908081 L38.5091056,0.0574908081 L25.3589233,5.89400682 C25.3370294,5.85850034 25.3151354,5.81454034 25.2949229,5.77903386 C25.2730289,5.75028845 25.2595554,5.71478197 25.2376614,5.6860409 C25.1231384,5.49836254 24.9934517,5.31744526 24.8570348,5.15173391 C24.8418754,5.12975392 24.8216672,5.11622743 24.8065079,5.09424743 C24.6481926,4.92009556 24.4898774,4.76115828 24.3164157,4.6174226 C24.3096767,4.61065719 24.3096767,4.61065719 24.3012563,4.60220368 C24.1294675,4.45848532 23.9425237,4.32829344 23.7404118,4.21331615 C23.7117832,4.19810156 23.6898849,4.17780967 23.6612563,4.16259075 C23.4743125,4.05437887 23.2738908,3.96814699 23.0650573,3.88868051 C23.0296897,3.87346592 22.9926364,3.85993944 22.9505343,3.84472052 C22.7416921,3.77201512 22.5345401,3.71452864 22.31053,3.67902216 C22.2953749,3.67902216 22.2819014,3.67226108 22.2600031,3.66380757 L22.2616889,1.4437759 C22.2616889,1.04643486 21.9383238,0.721786231 21.5425248,0.721786231 C21.1467388,0.721786231 20.8233608,1.04642187 20.8233608,1.4437759 L20.8233608,3.67224376 C18.7905582,4.0188594 17.2309897,5.79250407 17.2309897,7.93648443 C17.2309897,8.34735195 17.2882512,8.7379449 17.3960395,9.11157889 L4.03028003,14.4780225 L4.02354326,14.4847879 C3.9511224,14.5135333 3.8938609,14.5574933 3.8365994,14.6082187 C3.82144134,14.6234376 3.80123102,14.6301987 3.78607252,14.6437252 C3.74228457,14.6876852 3.72207209,14.7367181 3.6934435,14.7806825 C3.67154909,14.8094279 3.64965555,14.8381689 3.636182,14.8669143 C3.62944523,14.8888943 3.62944523,14.9108743 3.62102437,14.9396197 C3.61428716,15.0055597 3.59239276,15.0698116 3.59239276,15.142517 L3.59239276,15.1492824 L3.59239276,18.0067686 L0.581044121,23.2450894 C0.229046034,23.8588672 0.0488281318,24.5216433 0.0134735476,25.1861508 C0.0151577195,25.2064384 0,25.2284184 0,25.2504027 C0,25.2656173 0.0067367739,25.2723827 0.0067367739,25.2859092 C-0.0151576329,26.065381 0.171786648,26.8516052 0.581033343,27.5651111 C1.3574546,28.9211358 2.75197754,29.7293487 4.30982143,29.7293487 C5.86939166,29.7293487 7.2639146,28.9211358 8.03861125,27.5651111 C8.44787079,26.8516052 8.63481033,26.065381 8.61290773,25.2859092 C8.61290773,25.2706903 8.61964235,25.2639292 8.61964235,25.2504027 C8.61964235,25.2284184 8.60448731,25.2064427 8.60448731,25.1861508 C8.56911547,24.5148909 8.38891055,23.8521147 8.03691681,23.2450894 L5.03061267,18.0067686 L5.03061267,15.6413435 L18.029029,10.4186053 C18.2294464,10.6992809 18.4601825,10.9596647 18.7195644,11.1913247 L18.726299,11.1980857 C18.9772433,11.4145095 19.2433383,11.6089533 19.5380749,11.7611338 C19.5734424,11.7831138 19.6104957,11.7966403 19.6525979,11.8186203 C19.7536516,11.8693457 19.86144,11.9200711 19.9608037,11.9623386 C20.0180652,11.9843186 20.068592,12.0062986 20.1258535,12.0265905 C20.2184826,12.062097 20.3127974,12.0908424 20.4138512,12.1195835 C20.4711127,12.1348024 20.5283742,12.1483289 20.5940604,12.1635435 C20.6732159,12.1855235 20.7591103,12.19905 20.8382701,12.2142689 L20.8382701,29.578813 L16.5267349,29.578813 L16.5267349,33.1852986 C12.9629924,33.1852986 10.0594321,36.1002669 10.0594321,39.6780119 L10.0594321,40.4000015 L33.0537116,40.4000015 L33.0537116,39.6780119 C33.0537116,36.1002669 30.1501513,33.1852986 26.5864088,33.1852986 L26.5864088,29.578813 L22.2748736,29.578813 L22.2765594,12.2073433 C22.2917144,12.2073433 22.305188,12.2005823 22.3270863,12.1921287 C22.542663,12.1566179 22.7582398,12.0991358 22.9670906,12.0264304 C23.0024581,12.0112115 23.0395114,11.997685 23.0816136,11.9824704 C23.2904557,11.9030039 23.4841342,11.816772 23.6778126,11.7085601 C23.7064412,11.6933412 23.7283395,11.6730493 23.7569681,11.6578347 C23.9506509,11.5428618 24.1375948,11.4126656 24.3178126,11.2689472 C24.3245472,11.2621818 24.3245472,11.2621818 24.3329677,11.2537283 C24.5047565,11.1100099 24.6630674,10.9510726 24.8146524,10.7769035 C24.8298117,10.7549235 24.8500242,10.741397 24.8651793,10.719417 C25.0083352,10.5537186 25.1312829,10.3728013 25.2458059,10.18511 C25.2677042,10.1563646 25.2811777,10.1208581 25.3030674,10.092117 C25.4108558,9.90443868 25.5034848,9.70999492 25.5826446,9.5003279 C25.5978039,9.46482142 25.6112775,9.4276225 25.6180164,9.39211602 C25.6904373,9.18245334 25.7544377,8.96602958 25.7982256,8.74284474 C25.8049603,8.71409933 25.8049603,8.68535826 25.8133807,8.65661285 C25.8403278,8.42666261 25.8689607,8.18147613 25.8689607,7.93631129 C25.8689607,7.71312645 25.8470667,7.48822753 25.8116992,7.27180377 L38.0844841,1.83264179 L38.0844841,3.43383135 L35.0731355,8.67215208 C34.2967142,10.0281768 34.2967142,11.6446026 35.0731355,12.9938749 C35.8495567,14.3431472 37.2440797,15.1581125 38.8019236,15.1581125 C40.3614921,15.1581125 41.756015,14.3498996 42.5307116,12.9938749 C43.3088187,11.6361621 43.3088187,10.0214244 42.5323975,8.66539966 L42.5326561,8.66559444 Z M4.31175904,28.2874384 C3.27768044,28.2874384 2.34293961,27.746379 1.82590031,26.8451904 C1.66758505,26.5628267 1.5665356,26.27539 1.50253517,25.9710549 L7.12262129,25.9710549 C7.05862086,26.2737105 6.95757141,26.562844 6.79925615,26.8435023 C6.28053535,27.746379 5.34579452,28.2874384 4.31171592,28.2874384 L4.31175904,28.2874384 Z M7.04182312,24.5287636 L1.58169496,24.5287636 C1.64569539,24.3343199 1.72485086,24.1466415 1.82590462,23.9657156 L4.31176335,19.6439928 L6.79762207,23.9657156 C6.89867584,24.1466328 6.97783131,24.3343112 7.04183174,24.5287636 L7.04182312,24.5287636 Z M31.5671287,38.9564373 L11.5486708,38.9564373 C11.9006689,36.5115413 13.999175,34.6279621 16.5289251,34.6279621 L26.588599,34.6279621 C29.118263,34.6279621 31.2148763,36.5115413 31.5671287,38.9564373 Z M25.1502709,33.1857141 L17.9655287,33.1857141 L17.9655287,31.0214765 L25.1519955,31.0214765 L25.1502709,33.1857141 Z M21.5578998,5.05062506 C22.736846,5.05062506 23.7574726,5.77261473 24.1953521,6.79725139 L24.2812465,7.07792704 C24.3317734,7.23009891 24.360402,7.3670562 24.3823002,7.49555564 C24.4109332,7.64096644 24.4328271,7.7846848 24.4328271,7.93684369 C24.4328271,9.53128083 23.1460926,10.823071 21.5578955,10.823071 C21.3861067,10.823071 21.2126364,10.801091 21.0408562,10.7723456 C20.9903293,10.7655845 20.9482271,10.7503656 20.8977003,10.7436002 C20.7680179,10.7148591 20.6383356,10.6708948 20.5170736,10.6286272 C20.4817061,10.6134126 20.4379182,10.5998861 20.4025463,10.5846672 C20.2593904,10.5204153 20.1297081,10.4477099 20.0000257,10.3682435 C19.9360253,10.3242835 19.877078,10.2820116 19.8198165,10.2380516 C19.762555,10.1940916 19.6968687,10.1450586 19.6396072,10.0943332 C19.5671864,10.0300813 19.4964513,9.96414134 19.4307651,9.89312837 C19.4156057,9.87791378 19.4088711,9.8643873 19.3953976,9.84916838 C19.2303477,9.65472462 19.0871918,9.44506626 18.9709787,9.20664952 L18.8783496,9.01220575 C18.7621408,8.67235119 18.6829854,8.31220474 18.6829854,7.93683936 C18.6829854,6.34240222 19.9697199,5.05061207 21.557917,5.05061207 L21.5578998,5.05062506 Z M38.8040405,5.06584398 L41.2898992,9.38756679 C41.4195816,9.61920948 41.5206354,9.85590782 41.5846315,10.1010727 L36.0300807,10.1010727 C36.0940811,9.85590349 36.1951306,9.6174954 36.3248129,9.38756679 L38.8040405,5.06584398 Z M38.8040405,13.7076448 C37.7699619,13.7076448 36.8352211,13.1665854 36.3181818,12.2653968 C36.1817605,12.0337542 36.0874457,11.788572 36.0234496,11.5434072 L41.5844676,11.5434072 C41.5204672,11.7953374 41.4194178,12.0337368 41.2897354,12.2653968 C40.7726961,13.1665854 39.8379553,13.7076448 38.8038767,13.7076448 L38.8040405,13.7076448 Z" id="Page-1-Copy-2"></path>
        </g>
    </g>
</svg>