<?xml version="1.0" encoding="UTF-8"?>
<svg width="42px" height="42px" viewBox="0 0 42 42" version="1.1" xmlns="http://www.w3.org/2000/svg" xmlns:xlink="http://www.w3.org/1999/xlink">
    <!-- Generator: Sketch 47 (45396) - http://www.bohemiancoding.com/sketch -->
    <title>Content / Steering Wheel</title>
    <desc>Created with Sketch.</desc>
    <defs></defs>
    <g id="Content" stroke="none" stroke-width="1" fill="none" fill-rule="evenodd">
        <g id="Content-/-Steering-Wheel" fill="#2B2727">
            <g id="Group-10">
                <path d="M21,4.12411364 C11.78625,4.12411364 4.29545455,11.6149091 4.29545455,20.8286591 L4.29545455,21.0225511 C4.29358841,21.0878039 4.29918205,21.1530566 4.31036932,21.2164432 C4.51731,30.1948977 11.8216875,37.4379886 20.821142,37.5334432 L21.0001193,37.5334432 L21.089608,37.5334432 L21.1045227,37.5334432 C30.1836818,37.4775116 37.5351136,30.1414432 37.6749545,21.0823295 L37.6749545,21.0692761 C37.6898693,21.009617 37.7010566,20.949958 37.7047841,20.8902989 L37.7047841,20.8306398 C37.7047841,11.6168898 30.2139886,4.12609432 21.0002386,4.12609432 L21,4.12411364 Z M21,6.03320455 C27.9576818,6.03320455 33.7465227,10.8321818 35.3329773,17.2939773 C34.49775,16.7328 33.5357591,16.2294205 32.3798523,15.8173909 C29.3559,14.7398045 25.3324432,14.1320455 20.9997614,14.1320455 C16.6707545,14.1320455 12.655125,14.7901568 9.63494318,15.9218182 C8.44176136,16.3692614 7.45738636,16.9155 6.60722045,17.5177227 C8.11172727,10.9404273 13.9600841,6.03358636 20.9998568,6.03358636 L21,6.03320455 Z M21,16.0411364 C25.1500295,16.0411364 29.0072045,16.6488955 31.7386364,17.6221023 C33.1052114,18.1086818 34.1902432,18.6829364 34.8707386,19.2627273 C35.5512341,19.8425182 35.7954545,20.3571136 35.7954545,20.8287545 C35.7954545,22.8701932 35.3759748,24.8184682 34.6321023,26.5856182 C34.01685,26.4029134 33.3979227,26.2854566 32.7826705,26.2425784 C27.6410114,25.88649 22.7933523,30.1949693 22.9537159,35.4897375 C22.3142659,35.5736325 21.6636,35.6239705 20.9998568,35.6239705 C20.3417455,35.6239705 19.6966636,35.5736325 19.0609364,35.4897375 C19.2212714,30.1948739 14.373975,25.886533 9.23198182,26.2425784 C8.61672955,26.2854566 7.99780227,26.4029134 7.38255,26.5856182 C6.67967045,24.917025 6.26391818,23.0862545 6.21919773,21.1714364 C6.21733159,21.126692 6.21174273,21.0819477 6.20428295,21.0372034 L6.20428295,21.0222886 L6.20428295,21.0073739 L6.20428295,21.00924 L6.20428295,20.9943252 C6.22479136,20.5338334 6.50444455,20.0118116 7.17371932,19.428298 C7.86352159,18.8279843 8.94110795,18.223948 10.3058216,17.7130752 C13.0352489,16.6914252 16.8702307,16.0426207 20.9995943,16.0426207 L21,16.0411364 Z M9.82895455,28.1519318 C13.5949227,28.1575255 17.0739545,31.2877568 17.1522273,35.11725 C13.3713205,34.1030455 10.2021818,31.6271932 8.26302273,28.3309091 C8.78315455,28.2078634 9.31077955,28.1519318 9.82905,28.1519318 L9.82895455,28.1519318 Z M32.1863182,28.1519318 C32.7045886,28.1519318 33.2322136,28.2078634 33.7523455,28.3309091 C31.8152864,31.6251886 28.6421864,34.0992273 24.8631409,35.11725 C24.9414423,31.2879 28.4203023,28.15575 32.1864136,28.1519318 L32.1863182,28.1519318 Z" id="Fill-1"></path>
                <path d="M21,0 C9.41325,0 0,9.41325 0,21 C0,32.58675 9.41325,42 21,42 C32.58675,42 42,32.58675 42,21 C42,9.41325 32.58675,0 21,0 Z M21,1.90909091 C31.5539318,1.90909091 40.0909091,10.4441591 40.0909091,21 C40.0909091,31.5558409 31.5539318,40.0909091 21,40.0909091 C10.4460682,40.0909091 1.90909091,31.5558409 1.90909091,21 C1.90909091,10.4441591 10.4460682,1.90909091 21,1.90909091 Z" id="Fill-2"></path>
                <path d="M21,18.0466364 C19.1375386,18.0466364 17.4447,18.4250993 16.1375455,19.1056091 C14.8303909,19.7861189 13.79595,20.8450295 13.79595,22.2377114 C13.79595,23.6322545 14.8288159,24.7042568 16.1375455,25.3847523 C17.446275,26.0652477 19.1373,26.4586159 21,26.4586159 C22.8606,26.4586159 24.5553,26.0652382 25.8624545,25.3847523 C27.1696091,24.7042664 28.2189886,23.6322545 28.2189886,22.2377114 C28.2189886,20.8450295 27.1693705,19.7861045 25.8624545,19.1056091 C24.5555386,18.4251136 22.8608386,18.0466364 21,18.0466364 Z M21,19.9557273 C22.5902727,19.9557273 24.0277227,20.2931734 24.9822682,20.7909545 C25.9368136,21.2887357 26.3096591,21.8405727 26.3096591,22.2376636 C26.3096591,22.6384964 25.9367898,23.2015159 24.9822682,23.6993114 C24.0277466,24.1971068 22.5903205,24.5494295 21,24.5494295 C19.4060045,24.5494295 17.9722773,24.1970686 17.0177318,23.6993114 C16.0631864,23.2015541 15.7052318,22.6384773 15.7052318,22.2376636 C15.7052318,21.8405584 16.0613202,21.2887023 17.0177318,20.7909545 C17.9741434,20.2932068 19.4059568,19.9557273 21,19.9557273 Z" id="Fill-3"></path>
            </g>
        </g>
    </g>
</svg>