<?xml version="1.0" encoding="UTF-8"?>
<svg width="42px" height="42px" viewBox="0 0 42 42" version="1.1" xmlns="http://www.w3.org/2000/svg" xmlns:xlink="http://www.w3.org/1999/xlink">
    <!-- Generator: Sketch 47 (45396) - http://www.bohemiancoding.com/sketch -->
    <title>Content / Stethoscope</title>
    <desc>Created with Sketch.</desc>
    <defs></defs>
    <g id="Content" stroke="none" stroke-width="1" fill="none" fill-rule="evenodd">
        <g id="Content-/-Stethoscope" fill="#2B2727">
            <path d="M37.057855,20.9995079 C34.7347681,20.9995079 32.7846321,22.611557 32.2588247,24.7724785 C28.0457838,25.3098183 24.7660097,28.8859076 24.7108675,33.2287994 C24.7062367,33.2728064 24.7062367,33.3098644 24.7062367,33.351553 C24.7062367,36.7539444 21.9338299,39.5286636 18.5291261,39.5286636 C15.1267347,39.5286636 12.3520155,36.7562569 12.3520155,33.351553 L12.3543339,19.6774769 C16.4978837,19.077613 19.7036606,15.5339271 19.7588028,11.2401297 C19.7657519,11.198441 19.7657519,11.1613831 19.7657519,11.1173761 L19.7657519,7.19617376 C21.2040735,6.69589184 22.2370705,5.3177819 22.2370705,3.70579202 C22.2370705,1.66066917 20.5764013,-5.68434189e-14 18.5312784,-5.68434189e-14 C16.4861556,-5.68434189e-14 14.8254864,1.66066917 14.8254864,3.70579202 C14.8254864,5.31784119 15.8561709,6.69592148 17.296805,7.19617376 L17.2944867,11.1173761 C17.2944867,14.5197675 14.5220799,17.2944867 11.1173761,17.2944867 C7.71498464,17.2944867 4.94026546,14.5220799 4.94026546,11.1173761 L4.94026546,7.19617376 C6.3785871,6.69589184 7.41158404,5.3177819 7.41158404,3.70579202 C7.41158404,1.66066917 5.75091487,-5.68434189e-14 3.70579202,-5.68434189e-14 C1.66066917,-5.68434189e-14 0,1.66066917 0,3.70579202 C0,5.31784119 1.03068452,6.69592148 2.47131858,7.19617376 L2.47131858,11.1173761 C2.47131858,11.1613831 2.47131858,11.198441 2.47826768,11.2401297 C2.53385456,15.5342236 5.73936466,19.0803997 9.8827366,19.6774769 L9.8827366,33.351553 C9.8827366,33.3955601 9.8827366,33.432618 9.8896857,33.4743066 C9.94990334,38.1875998 13.8039508,42 18.5286281,42 C23.2533054,42 27.1076848,38.1899715 27.1699421,33.4766784 C27.1768912,33.4396204 27.1768912,33.3956134 27.1768912,33.3516064 C27.1768912,30.3059197 29.3934292,27.7674225 32.3024463,27.2669924 C32.8837931,29.3491731 34.796889,30.8824816 37.0574221,30.8824816 C39.7812089,30.8824816 41.9976876,28.6659437 41.9976876,25.9422162 C42,23.216117 39.7811496,20.9996383 37.0574221,20.9996383 L37.057855,20.9995079 Z M18.5288949,2.47054778 C19.2074995,2.47054778 19.7633683,3.02641658 19.7633683,3.70502121 C19.7633683,4.38362585 19.2074995,4.93949465 18.5288949,4.93949465 C17.8502902,4.93949465 17.2944214,4.38362585 17.2944214,3.70502121 C17.2944214,3.02641658 17.8502902,2.47054778 18.5288949,2.47054778 Z M3.7057268,4.94186636 C3.02712216,4.94186636 2.47125336,4.38599756 2.47125336,3.70739292 C2.47125336,3.02878829 3.02712216,2.47291948 3.7057268,2.47291948 C4.38433143,2.47291948 4.94020023,3.02878829 4.94020023,3.70739292 C4.94251858,4.38599756 4.38664977,4.94186636 3.7057268,4.94186636 Z M37.057855,28.4110919 C35.6936492,28.4110919 34.5865364,27.3062915 34.5865364,25.9397733 C34.5865364,24.5755675 35.6913367,23.4684547 37.057855,23.4684547 C38.4220608,23.4684547 39.5291735,24.5732551 39.5291735,25.9397733 C39.5291735,27.3062915 38.4243732,28.4110919 37.057855,28.4110919 Z" id="Page-1"></path>
        </g>
    </g>
</svg>