<?xml version="1.0" encoding="UTF-8"?>
<svg width="19px" height="19px" viewBox="0 0 19 19" version="1.1" xmlns="http://www.w3.org/2000/svg" xmlns:xlink="http://www.w3.org/1999/xlink">
    <!-- Generator: Sketch 44.1 (41455) - http://www.bohemiancoding.com/sketch -->
    <title>adduser</title>
    <desc>Created with Sketch.</desc>
    <defs></defs>
    <g id="Mobile-Hamburger-Menu" stroke="none" stroke-width="1" fill="none" fill-rule="evenodd">
        <g id="Artboard" transform="translate(-572.000000, -458.000000)" fill="#4D4D4D">
            <g id="Group-4" transform="translate(572.000000, 429.000000)">
                <g id="Group-Copy-4" transform="translate(0.000000, 23.000000)">
                    <path d="M10.7864963,15.0645484 C10.2917029,15.4801749 9.75732598,16.0145517 9.34169952,16.5291369 C8.47086312,17.5780989 8.0750284,18.8843535 8.0750284,20.269775 C8.0750284,21.5760296 8.47086312,22.7437421 9.16357389,23.7333289 L8.47086312,23.7333289 C2.47396703,23.7333289 0.633335561,23.3968694 0.554168615,23.3770776 C0.376042989,23.3572859 0.217709099,23.2385355 0.118750418,23.0999933 C0.0197917363,22.9614512 -0.0197917363,22.7635338 0.0197917363,22.6051999 C0.376042989,20.9229023 1.1479207,19.6760229 2.65209266,18.7458113 C3.04792739,18.5083105 3.50313732,18.3301849 3.97813899,18.1322675 C4.88855886,17.7562245 5.91772914,17.3405981 6.11564651,16.6874708 C6.25418866,16.2322608 6.01668783,15.5989253 5.48231095,14.8072558 C3.85938857,12.2145384 3.56251253,9.99786391 4.61147455,8.21660765 C5.44272747,6.83118611 6.92710769,5.99993318 8.55003007,5.99993318 C10.1729524,5.99993318 11.6771244,6.83118611 12.4885856,8.21660765 C12.6667112,8.53327543 12.8250451,8.88952668 12.9240038,9.24577793 C13.3396302,10.5718243 13.0427542,12.1155797 12.3896269,13.3228756 C12.0135839,14.0551698 11.4000401,14.5301715 10.7864963,15.0645484 Z M14.2500501,25 C11.6177492,25 9.50003341,22.8822842 9.50003341,20.2499833 C9.50003341,17.6176824 11.6177492,15.4999666 14.2500501,15.4999666 C16.8625593,15.4999666 19.0000668,17.6176824 19.0000668,20.2499833 C19.0000668,22.8822842 16.8625593,25 14.2500501,25 Z M13.6167146,23.0999933 L14.8833857,23.0999933 C15.0615113,23.0999933 15.2000535,22.9614512 15.2000535,22.7833255 L15.2000535,21.1999866 L16.7833924,21.1999866 C16.961518,21.1999866 17.1000601,21.0614445 17.1000601,20.8833189 L17.1000601,19.6166477 C17.1000601,19.4385221 16.961518,19.29998 16.7833924,19.29998 L15.2000535,19.29998 L15.2000535,17.7166411 C15.2000535,17.5385154 15.0615113,17.3999733 14.8833857,17.3999733 L13.6167146,17.3999733 C13.4385889,17.3999733 13.3000468,17.5385154 13.3000468,17.7166411 L13.3000468,19.29998 L11.7167079,19.29998 C11.5385822,19.29998 11.4000401,19.4385221 11.4000401,19.6166477 L11.4000401,20.8833189 C11.4000401,21.0614445 11.5385822,21.1999866 11.7167079,21.1999866 L13.3000468,21.1999866 L13.3000468,22.7833255 C13.3000468,22.9614512 13.4385889,23.0999933 13.6167146,23.0999933 Z" id="adduser"></path>
                </g>
            </g>
        </g>
    </g>
</svg>
