<?xml version="1.0" encoding="UTF-8"?>
<svg width="107px" height="94px" viewBox="0 0 107 94" version="1.1" xmlns="http://www.w3.org/2000/svg" xmlns:xlink="http://www.w3.org/1999/xlink">
    <!-- Generator: Sketch 44.1 (41455) - http://www.bohemiancoding.com/sketch -->
    <title>Group 2</title>
    <desc>Created with Sketch.</desc>
    <defs></defs>
    <g id="Page-1" stroke="none" stroke-width="1" fill="none" fill-rule="evenodd">
        <g id="Group-2" transform="translate(2.000000, 2.000000)" stroke="#00A4A5" stroke-width="4" fill-rule="nonzero">
            <path d="M102.019172,30.3027657 C100.990193,27.5494212 99.2564068,25.5526421 97.0104952,24.5424049 C95.9815159,24.0772555 94.8961726,23.8423354 93.7966715,23.8423354 C89.0933917,23.8423354 84.3103651,28.2259638 81.9000274,34.7568425 C78.916424,42.8429501 80.6501736,50.7649947 85.936101,53.1790274 C86.9979654,53.6676676 88.1349821,53.9119939 89.3190417,53.9119939 C94.1115709,53.9119939 98.979156,49.8900492 101.436284,43.9042825 C103.29224,39.3749942 103.508387,34.2912121 102.018907,30.3017433 L102.019172,30.3027657 Z" id="Fill-1"></path>
            <path d="M21.0998193,34.7568425 C18.6894817,28.2259638 13.9063345,23.8423354 9.20317496,23.8423354 C8.09901925,23.8423354 7.01836668,24.0772555 5.98935132,24.5424049 C3.74343962,25.5572729 2.00969008,27.5494212 0.980674726,30.3027657 C-0.508781397,34.2917533 -0.292634046,39.3755354 1.56798929,43.9053049 C4.02066632,49.8911919 8.88825176,53.9130164 13.6804202,53.9130164 C14.8597523,53.9130164 16.0015083,53.6639993 17.0633608,53.18005 C22.3444768,50.7603642 24.0782264,42.8433711 21.0994344,34.7578649 L21.0998193,34.7568425 Z" id="Fill-2"></path>
            <path d="M36.5332796,34.4402605 C36.9702412,34.4590604 37.4072029,34.4496544 37.8394254,34.4026728 C40.3719699,34.1536558 42.6647917,32.8521349 44.4643357,30.6439024 C47.3727625,27.0730103 48.1761282,21.4865753 47.5653346,15.7399265 C46.6350229,6.88330101 41.9647486,0.273037085 35.6968363,0 C35.6968363,0 34.7994218,0 34.34366,0.046981622 C31.5762041,0.319489475 29.0625439,1.75725225 27.0703076,4.20508386 C24.1807652,7.75240091 22.7946316,13.0287524 23.3585152,18.3236271 C24.2841238,27.0768111 30.072675,34.1573724 36.533039,34.4388292 L36.5332796,34.4402605 Z" id="Fill-3"></path>
            <path d="M50.7154613,41.1359839 C35.6801698,41.1359839 20.6448782,59.0084862 20.6448782,76.1677247 C20.6448782,81.289034 23.2149508,85.4096091 25.7334223,87.0963046 C28.8484941,89.182452 31.0428047,90 35.6096843,90 C41.0364623,90 42.4977723,88.1018509 45.0395786,86.4291077 C46.8766507,85.2169194 48.4648586,84.1738452 50.7154613,84.1738452 C52.9660639,84.1738452 54.5541516,85.2215984 56.3913441,86.4291077 C58.9332707,88.1017307 60.3944605,90 65.8212381,90 C70.388238,90 72.5824286,89.1824644 75.6975003,87.0963046 C78.2159718,85.4096091 80.7860445,81.289034 80.7860445,76.1677247 C80.7860445,59.0084862 65.7507529,41.1359839 50.7154613,41.1359839 Z" id="Fill-4"></path>
            <path d="M64.5378209,34.3589508 C64.9700793,34.4012415 65.4070528,34.4153384 65.8439665,34.3965385 C72.3091419,34.1146247 78.0935192,27.0340393 79.0184903,18.2813364 C79.5823139,12.9862212 78.1915495,7.70974941 75.306698,4.16279317 C73.314582,1.71484129 70.8947418,0.352302036 68.1272863,0.0751754072 C67.6715244,0.0328967571 66.6848604,0 66.6848604,0 C60.4123772,0.272507848 55.7466254,6.84096223 54.811671,15.6978282 C54.2008654,21.443996 55.0090063,27.0305512 57.91267,30.6018041 C59.7122138,32.8147276 62.0050357,34.1115936 64.53758,34.3605746 L64.5378209,34.3589508 Z" id="Fill-5"></path>
        </g>
    </g>
</svg>
