<svg width="114px" height="136px" viewBox="0 0 114 136" version="1.1" xmlns="http://www.w3.org/2000/svg" xmlns:xlink="http://www.w3.org/1999/xlink">
    <g id="Page-1" stroke="none" stroke-width="1" fill="none" fill-rule="evenodd">
        <g id="application" fill-rule="nonzero" fill="#4D4D4D">
            <g id="a-link">
                <g id="a">
                    <path d="M108.52,5 C109.969625,5.340916 111.24776,6.1930057 112.12,7.4 C112.999016,8.58161683 113.469391,10.0173158 113.46,11.49 L113.46,90.49 C113.46,94.5366667 110.59,100.183333 104.85,107.43 C99.1428596,114.643807 92.6043052,121.158865 85.37,126.84 C78.1233333,132.533333 72.4766667,135.38 68.43,135.38 L65.75,135.52 C64.5233333,135.613333 62.36,135.66 59.26,135.66 C41.3787267,135.577511 23.5347859,134.018884 5.91,131 C4.41522613,130.629897 3.07932253,129.788382 2.1,128.6 C1.08372185,127.426823 0.532326979,125.922048 0.55,124.37 L0.55,11.54 C0.522170963,10.0035632 1.03543304,8.5062538 2,7.31 C2.98271987,6.09198475 4.35134159,5.24541462 5.88,4.91 C23.5047859,1.89111601 41.3487267,0.332488759 59.23,0.25 C68.83,0.25 77.7233333,0.65 85.91,1.45 C94.0966667,2.25 99.72,2.98 102.78,3.64 C104.715728,3.99298539 106.631677,4.44693836 108.52,5 L108.52,5 Z M23.13,36.38 L90.88,36.38 L90.88,27.38 L23.13,27.38 L23.13,36.38 Z M23.13,54.45 L90.88,54.45 L90.88,45.45 L23.13,45.45 L23.13,54.45 Z M23.13,72.52 L90.88,72.52 L90.88,63.52 L23.13,63.52 L23.13,72.52 Z M63.77,122.2 C66.139652,122.192837 68.4053133,121.225962 70.05,119.52 C71.8184635,117.883959 72.8166262,115.579111 72.8,113.17 L72.8,99.62 C73.2170093,97.3183542 75.0183542,95.5170093 77.32,95.1 L90.87,95.1 C95.8047268,95.0145311 99.7845311,91.0347268 99.87,86.1 L77.33,86.1 C70.0034397,86.4658739 64.1458739,92.3234397 63.78,99.65 L63.78,122.2 L63.77,122.2 Z" id="Shape"></path>
                </g>
            </g>
        </g>
    </g>
</svg>
