<?xml version="1.0" encoding="UTF-8"?>
<svg width="200px" height="200px" viewBox="0 0 200 200" version="1.1" xmlns="http://www.w3.org/2000/svg" xmlns:xlink="http://www.w3.org/1999/xlink">
    <!-- Generator: Sketch Beta 47 (45392) - http://www.bohemiancoding.com/sketch -->
    <title>3x/Auto/Color</title>
    <desc>Created with Sketch Beta.</desc>
    <defs></defs>
    <g id="Products" stroke="none" stroke-width="1" fill="none" fill-rule="evenodd">
        <g id="3x/Auto/Color">
            <g id="Auto" transform="translate(0.000000, 25.000000)">
                <rect id="Rectangle-Copy-3" x="0" y="0" width="200" height="150"></rect>
                <path d="M177.1,101.3 L158,101.3 C156.2,101.3 154.8,99.8 154.8,98.1 C154.8,96.4 156.3,94.9 158,94.9 L173.9,94.9 L173.9,72.7 L140,67.8 L61.5,67.8 C61.5,67.8 61.4,67.8 61.4,67.8 L25.2,67.8 L25.2,73.9 L35.3,73.9 C37.1,73.9 38.5,75.4 38.5,77.1 C38.5,78.8 37,80.3 35.3,80.3 L25.2,80.3 L25.2,94.9 L33.5,94.9 C35.3,94.9 36.7,96.4 36.7,98.1 C36.7,99.8 35.2,101.3 33.5,101.3 L22,101.3 C20.2,101.3 18.8,99.8 18.8,98.1 L18.8,64.5 C18.8,64.5 18.8,64.5 18.8,64.4 C18.8,63.6 19.1,63 19.5,62.4 L37,40.3 L34.8,40.3 C33,40.3 31.6,38.8 31.6,37.1 C31.6,35.4 33.1,33.9 34.8,33.9 L118.7,33.9 C119.7,33.9 120.6,34.4 121.2,35.1 L142,61.5 L177.6,66.6 C179.2,66.8 180.4,68.2 180.4,69.8 L180.4,98.1 C180.4,99.9 178.9,101.3 177.1,101.3 Z M96.4,61.2 L133.5,61.2 L117,40.3 L96.4,40.3 L96.4,61.2 Z M65.8,61.2 L89.9,61.2 L89.9,40.3 L72.3,40.3 L65.8,61.2 Z M28.6,61.2 L59,61.2 L65.5,40.3 L45.1,40.3 L28.6,61.2 Z M116.8,101.3 L76.2,101.3 C74.4,101.3 73,99.8 73,98.1 C73,96.4 74.5,94.9 76.2,94.9 L116.8,94.9 C118.6,94.9 120,96.4 120,98.1 C120,99.8 118.5,101.3 116.8,101.3 Z M105,80.3 L91.6,80.3 C89.8,80.3 88.4,78.8 88.4,77.1 C88.4,75.4 89.9,73.9 91.6,73.9 L105,73.9 C106.8,73.9 108.2,75.4 108.2,77.1 C108.2,78.8 106.8,80.3 105,80.3 Z" id="Shape" fill="#2B2727" fill-rule="nonzero"></path>
                <path d="M144.3,115.1 C134.9,115.1 127.3,107.5 127.3,98.1 C127.3,88.7 134.9,81.1 144.3,81.1 C153.7,81.1 161.3,88.7 161.3,98.1 C161.3,107.5 153.6,115.1 144.3,115.1 Z M144.3,87.6 C138.5,87.6 133.8,92.3 133.8,98.1 C133.8,103.9 138.5,108.6 144.3,108.6 C150.1,108.6 154.8,103.9 154.8,98.1 C154.8,92.3 150,87.6 144.3,87.6 Z" id="Shape" fill="#FF700A" fill-rule="nonzero"></path>
                <path d="M59.5,115.1 C50.1,115.1 42.5,107.5 42.5,98.1 C42.5,88.7 50.1,81.1 59.5,81.1 C68.9,81.1 76.5,88.7 76.5,98.1 C76.5,107.5 68.9,115.1 59.5,115.1 Z M59.5,87.6 C53.7,87.6 49,92.3 49,98.1 C49,103.9 53.7,108.6 59.5,108.6 C65.3,108.6 70,103.9 70,98.1 C70,92.3 65.3,87.6 59.5,87.6 Z" id="Shape" fill="#FF700A" fill-rule="nonzero"></path>
            </g>
        </g>
    </g>
</svg>