<?xml version="1.0" encoding="UTF-8"?>
<svg width="18px" height="18px" viewBox="0 0 18 18" version="1.1" xmlns="http://www.w3.org/2000/svg" xmlns:xlink="http://www.w3.org/1999/xlink">
    <!-- Generator: Sketch 47 (45396) - http://www.bohemiancoding.com/sketch -->
    <title>Navigation/Back</title>
    <desc>Created with Sketch.</desc>
    <defs></defs>
    <g id="Navigation" stroke="none" stroke-width="1" fill="none" fill-rule="evenodd">
        <g id="Navigation/Back" fill-rule="nonzero" fill="#000000">
            <path d="M16.2429004,4.83065284 C16.0383307,4.59891183 15.7655568,4.49677854 15.4972764,4.49606717 C15.2490941,4.49540909 15.0047573,4.58063571 14.8218189,4.75205481 L8.50024389,11.0863382 L2.18426089,4.77116788 C2.00552843,4.59404344 1.75346874,4.49658254 1.50078921,4.4955871 C1.25953889,4.49463668 1.01823609,4.58162243 0.818477202,4.77116788 C0.609553441,4.96940961 0.502291204,5.23110194 0.50445263,5.49661754 C0.506522331,5.75086532 0.608925432,6.00861874 0.818477202,6.21752417 L7.79787784,13.204136 C7.97649478,13.372385 8.19997017,13.4960672 8.50024389,13.4960672 C8.80051761,13.4960672 9.02821645,13.3626764 9.21015506,13.204136 L16.182201,6.21752417 C16.375817,6.03142479 16.4936744,5.76706303 16.4960311,5.49270196 C16.4979784,5.26601015 16.4210741,5.03249186 16.2429004,4.83065284 Z" id="Arrow-3" transform="translate(8.500244, 8.995823) rotate(-270.000000) translate(-8.500244, -8.995823) "></path>
        </g>
    </g>
</svg>