<?xml version="1.0" encoding="UTF-8"?>
<svg width="96px" height="88px" viewBox="0 0 96 88" version="1.1" xmlns="http://www.w3.org/2000/svg" xmlns:xlink="http://www.w3.org/1999/xlink">
    <!-- Generator: Sketch 43.2 (39069) - http://www.bohemiancoding.com/sketch -->
    <title>Group 42</title>
    <desc>Created with Sketch.</desc>
    <defs></defs>
    <g id="Page-1" stroke="none" stroke-width="1" fill="none" fill-rule="evenodd">
        <g id="Group-42" fill="#00A4A5">
            <g id="Page-1">
                <path d="M80.640384,17.3077308 C79.2978816,17.3077308 77.955456,17.3077308 76.41792,17.8861538 C74.8804224,7.69230769 66.045504,0 55.68,0 C48.764928,0 42.24,3.46307692 38.4,9.03692308 C36.6749952,8.27069231 34.755072,7.69226923 32.64,7.69226923 C26.302464,7.69226923 21.12,11.9215 19.582464,17.8861154 C18.2399616,17.503 16.897536,17.3076923 15.36,17.3076923 C7.102464,17.3076923 0,24.8046154 0,33.6538462 C0,42.3076923 7.102464,50 15.36,50 L80.64,50 C88.897536,50 96,42.3076923 96,33.6538462 C96,24.8046154 88.897536,17.3076923 80.64,17.3076923 L80.640384,17.3077308 Z M80.640384,46.1538846 L15.360384,46.1538846 C9.21792,46.1538846 3.840384,40.3846538 3.840384,33.6538846 C3.840384,26.9231154 9.21792,21.1538846 15.360384,21.1538846 C17.0853888,21.1538846 18.81792,21.537 20.355456,22.3107308 C20.9329536,22.5060385 21.6979584,22.5060385 22.0804608,22.3107308 C22.6579584,21.9276154 23.0404608,21.3491923 23.0404608,20.7707692 C23.235456,15.7676923 27.4579968,11.7338462 32.6404608,11.7338462 C34.5604608,11.7338462 36.4804608,12.3122692 38.0179968,13.2738077 C38.4004992,13.4616154 38.9779968,13.4616154 39.5554944,13.4616154 C40.132992,13.2663077 40.5154944,13.0785 40.7104896,12.5000769 C43.7855616,7.11392308 49.5455616,3.84623077 55.6880256,3.84623077 C64.9055616,3.84623077 72.5855616,11.5385385 72.9680256,20.7708462 C72.9680256,21.5370769 73.350528,22.1155 74.1230208,22.4986154 C74.7005184,22.8817308 75.4655232,22.6939231 76.0430208,22.3033077 C77.0030208,21.5370769 78.3454848,21.1464615 80.6479488,21.1464615 C86.7904128,21.1464615 92.1679488,26.9156923 92.1679488,33.6464615 C92.1604416,40.3847308 86.7829248,46.1539615 80.6404608,46.1539615 L80.640384,46.1538846 Z" id="Fill-1"></path>
                <path d="M26.000025,55.2771215 C25.0000133,54.7027087 23.7967993,55.0831679 23.2031924,55.8515343 L17.2031224,65.4002541 L17.2031224,65.5942077 C17.2031224,65.7881613 17.2031224,65.7881613 17,65.9746669 L17,66.3551261 L17,66.5490797 L17,66.7430333 L17,67.1234925 C17,67.3174461 17,67.3174461 17.2031224,67.5039517 C17.2031224,67.6979053 17.4062447,67.6979053 17.4062447,67.8844109 C17.4062447,68.0783645 17.6093671,68.0783645 17.8046894,68.0783645 L18.0078118,68.2723181 L18.2109341,68.2723181 L18.4140565,68.2723181 C18.6171789,68.2723181 18.8125011,68.4662717 19.0156235,68.4662717 L23.4140748,68.4662717 L19.2108258,75.1503755 C18.6092588,76.1052475 19.0077034,77.2541495 19.8123928,77.8209615 C20.2030174,78 20.601462,78 20.9999067,78 C21.6014737,78 22.398363,77.6195408 22.7968076,77.045128 L28.7968776,67.4964082 L28.7968776,67.3024546 C28.7968776,67.108501 28.7968776,67.108501 29,66.9219954 L29,66.5415362 L29,66.3475826 L29,66.153629 L29,65.7731698 C29,65.5792162 29,65.5792162 28.7968776,65.3927106 C28.7968776,65.198757 28.5937553,65.198757 28.5937553,65.0122514 C28.5937553,64.8182978 28.3906329,64.8182978 28.1953106,64.8182978 L27.9921882,64.6243442 L27.7890659,64.6243442 C27.5859435,64.6243442 27.5859435,64.6243442 27.3906212,64.4303906 L26.9921766,64.4303906 L26.7890542,64.4303906 L22.3906029,64.4303906 L26.5938519,57.7462868 C27.203239,56.9928355 27.0000967,55.8440099 26.000085,55.2769878 L26.000025,55.2771215 Z" id="Fill-2"></path>
                <path d="M51.000025,65.2771215 C50.0000133,64.7027087 48.7967993,65.0831679 48.2031924,65.8515343 L42.2031224,75.4002541 L42.2031224,75.5942077 C42.2031224,75.7881613 42.2031224,75.7881613 42,75.9746669 L42,76.3551261 L42,76.5490797 L42,76.7430333 L42,77.1234925 C42,77.3174461 42,77.3174461 42.2031224,77.5039517 C42.2031224,77.6979053 42.4062447,77.6979053 42.4062447,77.8844109 C42.4062447,78.0783645 42.6093671,78.0783645 42.8046894,78.0783645 L43.0078118,78.2723181 L43.2109341,78.2723181 L43.4140565,78.2723181 C43.6171789,78.2723181 43.8125011,78.4662717 44.0156235,78.4662717 L48.4140748,78.4662717 L44.2108258,85.1503755 C43.6092588,86.1052475 44.0077034,87.2541495 44.8123928,87.8209615 C45.2030174,88 45.601462,88 45.9999067,88 C46.6014737,88 47.398363,87.6195408 47.7968076,87.045128 L53.7968776,77.4964082 L53.7968776,77.3024546 C53.7968776,77.108501 53.7968776,77.108501 54,76.9219954 L54,76.5415362 L54,76.3475826 L54,76.153629 L54,75.7731698 C54,75.5792162 54,75.5792162 53.7968776,75.3927106 C53.7968776,75.198757 53.5937553,75.198757 53.5937553,75.0122514 C53.5937553,74.8182978 53.3906329,74.8182978 53.1953106,74.8182978 L52.9921882,74.6243442 L52.7890659,74.6243442 C52.5859435,74.6243442 52.5859435,74.6243442 52.3906212,74.4303906 L51.9921766,74.4303906 L51.7890542,74.4303906 L47.3906029,74.4303906 L51.5938519,67.7462868 C52.203239,66.9928355 52.0000967,65.8440099 51.000085,65.2769878 L51.000025,65.2771215 Z" id="Fill-3"></path>
                <path d="M76.000025,55.2771215 C75.0000133,54.7027087 73.7967993,55.0831679 73.2031924,55.8515343 L67.2031224,65.4002541 L67.2031224,65.5942077 C67.2031224,65.7881613 67.2031224,65.7881613 67,65.9746669 L67,66.3551261 L67,66.5490797 L67,66.7430333 L67,67.1234925 C67,67.3174461 67,67.3174461 67.2031224,67.5039517 C67.2031224,67.6979053 67.4062447,67.6979053 67.4062447,67.8844109 C67.4062447,68.0783645 67.6093671,68.0783645 67.8046894,68.0783645 L68.0078118,68.2723181 L68.2109341,68.2723181 L68.4140565,68.2723181 C68.6171789,68.2723181 68.8125011,68.4662717 69.0156235,68.4662717 L73.4140748,68.4662717 L69.2108258,75.1503755 C68.6092588,76.1052475 69.0077034,77.2541495 69.8123928,77.8209615 C70.2030174,78 70.601462,78 70.9999067,78 C71.6014737,78 72.398363,77.6195408 72.7968076,77.045128 L78.7968776,67.4964082 L78.7968776,67.3024546 C78.7968776,67.108501 78.7968776,67.108501 79,66.9219954 L79,66.5415362 L79,66.3475826 L79,66.153629 L79,65.7731698 C79,65.5792162 79,65.5792162 78.7968776,65.3927106 C78.7968776,65.198757 78.5937553,65.198757 78.5937553,65.0122514 C78.5937553,64.8182978 78.3906329,64.8182978 78.1953106,64.8182978 L77.9921882,64.6243442 L77.7890659,64.6243442 C77.5859435,64.6243442 77.5859435,64.6243442 77.3906212,64.4303906 L76.9921766,64.4303906 L76.7890542,64.4303906 L72.3906029,64.4303906 L76.5938519,57.7462868 C77.203239,56.9928355 77.0000967,55.8440099 76.000085,55.2769878 L76.000025,55.2771215 Z" id="Fill-4"></path>
            </g>
        </g>
    </g>
</svg>
