<?xml version="1.0" encoding="UTF-8"?>
<svg width="45px" height="42px" viewBox="0 0 45 42" version="1.1" xmlns="http://www.w3.org/2000/svg" xmlns:xlink="http://www.w3.org/1999/xlink">
    <!-- Generator: Sketch 47.1 (45422) - http://www.bohemiancoding.com/sketch -->
    <title>bad-weather copy</title>
    <desc>Created with Sketch.</desc>
    <defs></defs>
    <g id="Form-Flows/Comparison" stroke="none" stroke-width="1" fill="none" fill-rule="evenodd">
        <g id="bad-weather-copy" fill-rule="nonzero" fill="#2B2727">
            <path d="M37.80018,8.11299881 C37.170882,8.11299881 36.54162,8.11299881 35.8209,8.38413459 C35.100198,3.60576923 30.95883,0 26.1,0 C22.85856,0 19.8,1.62331731 18,4.23605769 C17.191404,3.87688702 16.29144,3.6057512 15.3,3.6057512 C12.32928,3.6057512 9.9,5.58820312 9.17928,8.38411659 C8.549982,8.20453125 7.92072,8.11298077 7.2,8.11298077 C3.32928,8.11298077 0,11.6271635 0,15.7752404 C0,19.8317308 3.32928,23.4375 7.2,23.4375 L37.8,23.4375 C41.67072,23.4375 45,19.8317308 45,15.7752404 C45,11.6271635 41.67072,8.11298077 37.8,8.11298077 L37.80018,8.11299881 Z M37.80018,21.6346334 L7.20018,21.6346334 C4.3209,21.6346334 1.80018,18.9303065 1.80018,15.7752584 C1.80018,12.6202103 4.3209,9.91588341 7.20018,9.91588341 C8.008776,9.91588341 8.8209,10.0954688 9.54162,10.4581551 C9.812322,10.5497055 10.170918,10.5497055 10.350216,10.4581551 C10.620918,10.2785697 10.800216,10.0074339 10.800216,9.73629806 C10.89162,7.39110577 12.870936,5.50024041 15.300216,5.50024041 C16.200216,5.50024041 17.100216,5.77137619 17.820936,6.22209736 C18.000234,6.31013222 18.270936,6.31013222 18.541638,6.31013222 C18.81234,6.21858173 18.991638,6.13054688 19.083042,5.85941105 C20.524482,3.33465144 23.224482,1.80292067 26.103762,1.80292067 C30.424482,1.80292067 34.024482,5.40868992 34.203762,9.73633416 C34.203762,10.0955048 34.38306,10.3666406 34.745166,10.546226 C35.015868,10.7258113 35.374464,10.6377765 35.645166,10.4546755 C36.095166,10.0955048 36.724446,9.91240383 37.803726,9.91240383 C40.683006,9.91240383 43.203726,12.6167308 43.203726,15.7717788 C43.200207,18.9303426 40.679496,21.6346695 37.800216,21.6346695 L37.80018,21.6346334 Z" id="Fill-1"></path>
            <path d="M12.1875117,25.9111507 C11.7187562,25.6418947 11.1547497,25.820235 10.8764964,26.1804067 L8.06396363,30.6563691 L8.06396363,30.7472849 C8.06396363,30.8382006 8.06396363,30.8382006 7.96875,30.9256251 L7.96875,31.1039654 L7.96875,31.1948811 L7.96875,31.2857969 L7.96875,31.4641371 C7.96875,31.5550529 7.96875,31.5550529 8.06396363,31.6424774 C8.06396363,31.7333931 8.1591772,31.7333931 8.1591772,31.8208176 C8.1591772,31.9117334 8.25439083,31.9117334 8.34594816,31.9117334 L8.44116178,32.0026491 L8.53637536,32.0026491 L8.63158898,32.0026491 C8.72680261,32.0026491 8.81835989,32.0935649 8.91357352,32.0935649 L10.9753476,32.0935649 L9.00507459,35.2267385 C8.72309006,35.6743348 8.90986097,36.2128826 9.28705913,36.4785757 C9.47016441,36.5625 9.65693531,36.5625 9.84370627,36.5625 C10.1256908,36.5625 10.4992327,36.3841597 10.6860036,36.1149037 L13.4985364,31.6389413 L13.4985364,31.5480256 C13.4985364,31.4571098 13.4985364,31.4571098 13.59375,31.3696853 L13.59375,31.1913451 L13.59375,31.1004293 L13.59375,31.0095136 L13.59375,30.8311733 C13.59375,30.7402576 13.59375,30.7402576 13.4985364,30.6528331 C13.4985364,30.5619173 13.4033228,30.5619173 13.4033228,30.4744928 C13.4033228,30.3835771 13.3081092,30.3835771 13.2165518,30.3835771 L13.1213382,30.2926613 L13.0261246,30.2926613 C12.930911,30.2926613 12.930911,30.2926613 12.8393537,30.2017456 L12.6525828,30.2017456 L12.5573692,30.2017456 L10.4955951,30.2017456 L12.4658681,27.0685719 C12.7515183,26.7153916 12.6562953,26.1768796 12.1875398,25.911088 L12.1875117,25.9111507 Z" id="Fill-2"></path>
            <path d="M23.9062617,30.5986507 C23.4375062,30.3293947 22.8734997,30.507735 22.5952464,30.8679067 L19.7827136,35.3438691 L19.7827136,35.4347849 C19.7827136,35.5257006 19.7827136,35.5257006 19.6875,35.6131251 L19.6875,35.7914654 L19.6875,35.8823811 L19.6875,35.9732969 L19.6875,36.1516371 C19.6875,36.2425529 19.6875,36.2425529 19.7827136,36.3299774 C19.7827136,36.4208931 19.8779272,36.4208931 19.8779272,36.5083176 C19.8779272,36.5992334 19.9731408,36.5992334 20.0646982,36.5992334 L20.1599118,36.6901491 L20.2551254,36.6901491 L20.350339,36.6901491 C20.4455526,36.6901491 20.5371099,36.7810649 20.6323235,36.7810649 L22.6940976,36.7810649 L20.7238246,39.9142385 C20.4418401,40.3618348 20.628611,40.9003826 21.0058091,41.1660757 C21.1889144,41.25 21.3756853,41.25 21.5624563,41.25 C21.8444408,41.25 22.2179827,41.0716597 22.4047536,40.8024037 L25.2172864,36.3264413 L25.2172864,36.2355256 C25.2172864,36.1446098 25.2172864,36.1446098 25.3125,36.0571853 L25.3125,35.8788451 L25.3125,35.7879293 L25.3125,35.6970136 L25.3125,35.5186733 C25.3125,35.4277576 25.3125,35.4277576 25.2172864,35.3403331 C25.2172864,35.2494173 25.1220728,35.2494173 25.1220728,35.1619928 C25.1220728,35.0710771 25.0268592,35.0710771 24.9353018,35.0710771 L24.8400882,34.9801613 L24.7448746,34.9801613 C24.649661,34.9801613 24.649661,34.9801613 24.5581037,34.8892456 L24.3713328,34.8892456 L24.2761192,34.8892456 L22.2143451,34.8892456 L24.1846181,31.7560719 C24.4702683,31.4028916 24.3750453,30.8643796 23.9062898,30.598588 L23.9062617,30.5986507 Z" id="Fill-3"></path>
            <path d="M35.6250117,25.9111507 C35.1562562,25.6418947 34.5922497,25.820235 34.3139964,26.1804067 L31.5014636,30.6563691 L31.5014636,30.7472849 C31.5014636,30.8382006 31.5014636,30.8382006 31.40625,30.9256251 L31.40625,31.1039654 L31.40625,31.1948811 L31.40625,31.2857969 L31.40625,31.4641371 C31.40625,31.5550529 31.40625,31.5550529 31.5014636,31.6424774 C31.5014636,31.7333931 31.5966772,31.7333931 31.5966772,31.8208176 C31.5966772,31.9117334 31.6918908,31.9117334 31.7834482,31.9117334 L31.8786618,32.0026491 L31.9738754,32.0026491 L32.069089,32.0026491 C32.1643026,32.0026491 32.2558599,32.0935649 32.3510735,32.0935649 L34.4128476,32.0935649 L32.4425746,35.2267385 C32.1605901,35.6743348 32.347361,36.2128826 32.7245591,36.4785757 C32.9076644,36.5625 33.0944353,36.5625 33.2812063,36.5625 C33.5631908,36.5625 33.9367327,36.3841597 34.1235036,36.1149037 L36.9360364,31.6389413 L36.9360364,31.5480256 C36.9360364,31.4571098 36.9360364,31.4571098 37.03125,31.3696853 L37.03125,31.1913451 L37.03125,31.1004293 L37.03125,31.0095136 L37.03125,30.8311733 C37.03125,30.7402576 37.03125,30.7402576 36.9360364,30.6528331 C36.9360364,30.5619173 36.8408228,30.5619173 36.8408228,30.4744928 C36.8408228,30.3835771 36.7456092,30.3835771 36.6540518,30.3835771 L36.5588382,30.2926613 L36.4636246,30.2926613 C36.368411,30.2926613 36.368411,30.2926613 36.2768537,30.2017456 L36.0900828,30.2017456 L35.9948692,30.2017456 L33.9330951,30.2017456 L35.9033681,27.0685719 C36.1890183,26.7153916 36.0937953,26.1768796 35.6250398,25.911088 L35.6250117,25.9111507 Z" id="Fill-4"></path>
        </g>
    </g>
</svg>