<?xml version="1.0" encoding="UTF-8"?>
<svg width="56px" height="89px" viewBox="0 0 56 89" version="1.1" xmlns="http://www.w3.org/2000/svg" xmlns:xlink="http://www.w3.org/1999/xlink">
    <!-- Generator: Sketch 44.1 (41455) - http://www.bohemiancoding.com/sketch -->
    <title>Group 50 Copy</title>
    <desc>Created with Sketch.</desc>
    <defs></defs>
    <g id="PPC-Calculator-Modal" stroke="none" stroke-width="1" fill="none" fill-rule="evenodd">
        <g id="Group-50-Copy" fill-rule="nonzero" fill="#00A4A5">
            <g id="noun_1047978_00a4a5-copy">
                <path d="M55.0454545,58.915493 C50.1705696,56.7321662 45.0409646,55.1491447 39.7727273,54.2022535 L39.7727273,38.1321127 C43.7333186,37.3090375 46.6950437,34.0521088 47.0909091,30.084507 L48.5672727,12.7357746 C48.8914964,8.72989129 46.5205723,4.98551854 42.7254545,3.50985915 C33.2761525,-0.118991412 22.7874838,-0.118991412 13.3381818,3.50985915 C9.54306404,4.98551854 7.17214001,8.72989129 7.49636364,12.7357746 L8.90909091,30.084507 C9.29548795,34.3006181 12.5713454,37.7034051 16.8254545,38.3076056 L16.8254545,54.1019718 C11.348372,55.0332755 6.0147701,56.6509147 0.954545455,58.915493 C0.503421883,59.1211195 0.215133593,59.5666082 0.216363636,60.0561972 L0.216363636,87.0069014 C0.216363636,87.699202 0.786183046,88.2604225 1.48909091,88.2604225 L7.11454545,88.2604225 C7.81745332,88.2604225 8.38727273,87.699202 8.38727273,87.0069014 L8.38727273,72.3908451 L47.6127273,72.3908451 L47.6127273,87.0194366 C47.6127273,87.7117372 48.1825467,88.2729577 48.8854545,88.2729577 L54.5109091,88.2729577 C55.213817,88.2729577 55.7836364,87.7117372 55.7836364,87.0194366 L55.7836364,60.0687324 C55.7898779,59.5746181 55.5007989,59.1229988 55.0454545,58.915493 Z M11.4545455,29.8087324 L9.99090909,12.46 C9.75564403,9.56035606 11.4702036,6.84930311 14.2163636,5.77873239 C23.0761746,2.37520682 32.9110981,2.37520682 41.7709091,5.77873239 C44.5170692,6.84930311 46.2316287,9.56035606 45.9963636,12.46 L44.5454545,29.8087324 C44.2370728,33.2013741 41.3601652,35.8068854 37.9018182,35.8256338 L18.1236364,35.8256338 C14.6555168,35.8198 11.7638418,33.2109102 11.4545455,29.8087324 Z M37.2145455,38.3326761 L37.2145455,53.8011268 L35.4963636,53.575493 L35.4963636,38.3452113 L37.2145455,38.3326761 Z M32.9509091,38.3326761 L32.9509091,53.3749296 C29.8494382,53.1558364 26.7360164,53.1558364 23.6345455,53.3749296 L23.6345455,38.3452113 L32.9509091,38.3326761 Z M21.0890909,38.3326761 L21.0890909,53.5002817 C20.5163636,53.5002817 19.9436364,53.6507042 19.3709091,53.7259155 L19.3709091,38.3452113 L21.0890909,38.3326761 Z M5.81635972,86.0291539 L2.76181426,86.0291539 L2.76181426,72.3908451 L5.84181426,72.3908451 L5.81635972,86.0291539 Z M53.2254545,86.0291539 L50.1581818,86.0291539 L50.1581818,72.3908451 L53.2381818,72.3908451 L53.2254545,86.0291539 Z M53.2254545,69.8712676 L2.76181818,69.8712676 L2.76181818,64.8571831 L53.2381818,64.8571831 L53.2254545,69.8712676 Z M53.2254545,62.3501408 L2.76181818,62.3501408 L2.76181818,60.8835211 C8.69907683,58.3095847 15.0065031,56.6603165 21.4581818,55.9947887 L23.4563636,55.831831 C26.7053353,55.5813873 29.9692102,55.5813873 33.2181818,55.831831 L33.2181818,55.831831 L35.1018182,56.0073239 C41.3550579,56.7092554 47.4650118,58.3362457 53.2254545,60.8333803 L53.2254545,62.3501408 Z" id="Shape"></path>
            </g>
        </g>
    </g>
</svg>
