<?xml version="1.0" encoding="UTF-8"?>
<svg width="45px" height="71px" viewBox="0 0 45 71" version="1.1" xmlns="http://www.w3.org/2000/svg" xmlns:xlink="http://www.w3.org/1999/xlink">
    <!-- Generator: Sketch 47.1 (45422) - http://www.bohemiancoding.com/sketch -->
    <title>Group Copy</title>
    <desc>Created with Sketch.</desc>
    <defs></defs>
    <g id="Form-Flows/Comparison" stroke="none" stroke-width="1" fill="none" fill-rule="evenodd">
        <g id="Group-Copy" fill-rule="nonzero" fill="#2B2727">
            <path d="M44.2329545,47.3428069 C40.3156363,45.5883478 36.1936323,44.316277 31.9602273,43.5553823 L31.9602273,30.6418763 C35.1428453,29.9804766 37.522803,27.3633017 37.8409091,24.1750503 L39.0272727,10.2341046 C39.2878096,7.01509122 37.3826027,4.00622026 34.3329545,2.82042253 C26.7397654,-0.0956180989 18.3113709,-0.0956180989 10.7181818,2.82042253 C7.6685336,4.00622026 5.76332679,7.01509122 6.02386364,10.2341046 L7.15909091,24.1750503 C7.46958853,27.5629967 10.101974,30.2973791 13.5204545,30.7828974 L13.5204545,43.4747988 C9.1192275,44.2231678 4.8332974,45.5230565 0.767045455,47.3428069 C0.404535442,47.5080425 0.172875209,47.8660244 0.173863636,48.2594442 L0.173863636,69.9162601 C0.173863636,70.472573 0.631754233,70.9235538 1.19659091,70.9235538 L5.71704545,70.9235538 C6.28188213,70.9235538 6.73977273,70.472573 6.73977273,69.9162601 L6.73977273,58.1712148 L38.2602273,58.1712148 L38.2602273,69.926333 C38.2602273,70.482646 38.7181179,70.9336267 39.2829545,70.9336267 L43.8034091,70.9336267 C44.3682458,70.9336267 44.8261364,70.482646 44.8261364,69.926333 L44.8261364,48.2695171 C44.8311519,47.872461 44.5988563,47.5095526 44.2329545,47.3428069 Z M9.20454549,23.9534457 L8.02840909,10.0125 C7.83935681,7.68242898 9.21712789,5.50390428 11.4238636,4.64362424 C18.5433546,1.90864834 26.4464181,1.90864834 33.5659091,4.64362424 C35.7726449,5.50390428 37.1504159,7.68242898 36.9613636,10.0125 L35.7954545,23.9534457 C35.5476478,26.6796756 33.235847,28.7733901 30.4568182,28.7884557 L14.5636364,28.7884557 C11.7767546,28.7837679 9.45308716,26.6873386 9.20454549,23.9534457 Z M29.9045455,30.8030433 L29.9045455,43.2330483 L28.5238636,43.0517354 L28.5238636,30.8131162 L29.9045455,30.8030433 Z M26.4784091,30.8030433 L26.4784091,42.8905684 C23.9861557,42.7145114 21.4842989,42.7145114 18.9920455,42.8905684 L18.9920455,30.8131162 L26.4784091,30.8030433 Z M16.9465909,30.8030433 L16.9465909,42.9912978 C16.4863636,42.9912978 16.0261364,43.112173 15.5659091,43.1726107 L15.5659091,30.8131162 L16.9465909,30.8030433 Z M4.67386049,69.1305701 L2.21931503,69.1305701 L2.21931503,58.1712148 L4.69431503,58.1712148 L4.67386049,69.1305701 Z M42.7704545,69.1305701 L40.3056818,69.1305701 L40.3056818,58.1712148 L42.7806818,58.1712148 L42.7704545,69.1305701 Z M42.7704545,56.1465543 L2.21931818,56.1465543 L2.21931818,52.1173793 L42.7806818,52.1173793 L42.7704545,56.1465543 Z M42.7704545,50.1027917 L2.21931818,50.1027917 L2.21931818,48.924258 C6.9903296,46.8559163 12.0587971,45.5306115 17.2431818,44.9958123 L18.8488636,44.8648642 C21.4596444,44.6636148 24.0824011,44.6636148 26.6931818,44.8648642 L26.6931818,44.8648642 L28.2068182,45.0058853 C33.231743,45.5699374 38.1415273,46.8773403 42.7704545,48.8839663 L42.7704545,50.1027917 Z" id="Shape"></path>
        </g>
    </g>
</svg>