<?xml version="1.0" encoding="UTF-8"?>
<svg width="53px" height="46px" viewBox="0 0 53 46" version="1.1" xmlns="http://www.w3.org/2000/svg" xmlns:xlink="http://www.w3.org/1999/xlink">
    <!-- Generator: Sketch 47.1 (45422) - http://www.bohemiancoding.com/sketch -->
    <title>Book Search</title>
    <desc>Created with Sketch.</desc>
    <defs></defs>
    <g id="Landing-Pages" stroke="none" stroke-width="1" fill="none" fill-rule="evenodd">
        <g id="Book-Search" fill-rule="nonzero" fill="#2B2727">
            <g id="Group-13">
                <path d="M15.1702489,41.1709785 C17.4220094,41.1749858 19.5649183,42.1371792 21.0600376,43.8155686 L21.2457517,44.0059791 C21.4856096,44.2549532 21.74463,44.4848517 22.0204446,44.6935725 C22.1318731,44.7729102 22.2379954,44.8522479 22.3388116,44.9157181 C22.5785025,45.0747284 22.8284298,45.2178454 23.0869739,45.3441417 L23.2355452,45.412901 C23.3735042,45.4816603 23.5114632,45.5398413 23.6600345,45.5927331 C23.8423435,45.661209 24.0283472,45.7194807 24.2171767,45.7672761 C24.3445234,45.8043003 24.5143192,45.851903 24.7159516,45.8889272 C25.0031446,45.9456534 25.2938886,45.982764 25.5861546,46 L25.9947255,46 C26.4331545,45.999279 26.870419,45.9549834 27.30003,45.8677705 C27.4698258,45.8360354 27.6130909,45.7990112 27.6873765,45.7725653 C27.9105835,45.7167946 28.1302865,45.647915 28.3453349,45.5662872 L28.7220691,45.4234794 C29.1360188,45.2261603 29.4073262,45.0723798 29.6665578,44.8998505 L29.9477819,44.7041509 C30.244001,44.4789081 30.5208769,44.2294537 30.775536,43.9583765 L30.9506379,43.767966 C32.4301636,42.1047311 34.5573592,41.1582589 36.7873654,41.1709785 L38.9522608,41.1709785 C39.6848825,41.1709785 40.2787898,40.5789668 40.2787898,39.8486835 C40.2787898,39.1184001 39.6848825,38.5263884 38.9522608,38.5263884 L36.813896,38.5263884 C33.8064237,38.5114529 30.9400272,39.7963462 28.9555382,42.0489824 C28.7016926,42.3089035 28.5241706,42.4593155 28.3347227,42.593768 L28.1755392,42.7048407 C28.0061185,42.8131991 27.8287456,42.9086748 27.6449276,42.9904565 L27.3530912,43.122686 C27.222928,43.1709264 27.0900487,43.211546 26.9551325,43.2443371 L26.7269695,43.2972289 C26.4702551,43.3494095 26.2089671,43.3759864 25.9469705,43.3765666 L25.7135014,43.3765666 C25.5352409,43.365985 25.3579393,43.3430094 25.1828898,43.3078073 C25.0714613,43.3078073 24.9812574,43.2602047 24.8698289,43.2284696 C24.760224,43.2007253 24.6521798,43.1671796 24.5461558,43.1279752 L24.3073806,43.0274807 C24.0522505,42.9020825 23.898029,42.8137323 23.7502384,42.7154191 L23.6122794,42.5779004 C23.4423819,42.4493491 23.2827216,42.3078818 23.134729,42.154766 L23.0339128,42.0489824 C21.0327976,39.8177988 18.1726768,38.542355 15.1702489,38.542256 L2.65312125,38.542256 L2.65312125,8.44682074 L5.96413763,8.44682074 L5.96413763,33.348281 C5.96413763,34.0785644 6.5580449,34.6705761 7.29066663,34.6705761 L15.541677,34.6705761 C19.1556702,34.6746746 22.5966777,36.2136649 25.0024818,38.9019202 C25.3181146,39.2543384 25.7983863,39.4121357 26.2623831,39.3158712 C26.72638,39.2196067 27.1036098,38.8839054 27.2519738,38.4352227 C27.4003378,37.98654 27.2972959,37.4930415 26.9816631,37.1406232 C24.0772799,33.8805456 19.9156456,32.0103242 15.541677,31.9995401 L8.61719563,31.9995401 L8.61719563,2.66045763 L15.541677,2.66045763 C18.9821221,2.66370224 22.2738527,4.05903378 24.6628904,6.52684834 L24.6628904,9.54697022 C24.6628904,10.2772536 25.2567977,10.8692653 25.9894194,10.8692653 C26.7220411,10.8692653 27.3159484,10.2772536 27.3159484,9.54697022 L27.3159484,6.52155916 C29.7049861,4.0537446 32.9967167,2.65841306 36.4371618,2.65516845 L43.3669493,2.65516845 L43.3669493,13.6355065 C43.3669493,14.3657899 43.9608565,14.9578015 44.6934783,14.9578015 C45.4261,14.9578015 46.0200073,14.3657899 46.0200073,13.6355065 L46.0200073,8.44682074 L49.346942,8.44682074 L49.346942,31.2326089 C49.346942,31.9628923 49.9408493,32.554904 50.673471,32.554904 C51.4060927,32.554904 52,31.9628923 52,31.2326089 L52,7.80154076 C52,7.27129075 51.7886845,6.7627584 51.4125406,6.38781503 C51.0363967,6.01287165 50.526236,5.80223065 49.9942882,5.80223065 L46.0200073,5.80223065 L46.0200073,1.32229504 C46.0200073,0.592011657 45.4261,0 44.6934783,0 L36.4424679,0 C32.5660429,0.00695947619 28.8356871,1.47506682 26.0000316,4.109693 C23.1579114,1.47711694 19.4214393,0.0145097459 15.541677,0.0158675405 L7.29066663,0.0158675405 C6.56421664,0.0158154012 5.97285503,0.598215841 5.96413763,1.32229504 L5.96413763,5.78636311 L2.0057751,5.78636311 C1.4710577,5.78634633 0.958469756,5.99916409 0.581864868,6.37754633 C0.20525998,6.75592858 -0.00418053207,7.26854683 6.32571478e-05,7.80154076 L6.32571478e-05,39.1769576 C6.32571478e-05,40.2811461 0.898051038,41.1762677 2.0057751,41.1762677 L15.1702489,41.1709785 Z" id="Shape"></path>
                <path d="M44.0081973,29.7594661 C46.7565123,24.4237402 45.2088794,17.881094 40.3613683,14.34243 C35.5138572,10.8037661 28.8113418,11.3238366 24.5676179,15.5679199 C20.3238939,19.8120031 19.8038673,26.5150859 23.3422317,31.3630074 C26.8805961,36.2109289 33.4226885,37.7586928 38.7579627,35.0101452 L46.6576965,42.9105478 C47.5955606,43.8494592 48.9630436,44.2166622 50.245028,43.8738351 C51.5270123,43.5310079 52.5287341,42.5302341 52.8728544,41.2484955 C53.2169746,39.9667569 52.8512134,38.5987801 51.9133493,37.6598687 L44.0081973,29.7594661 Z M26.4911607,30.8811282 C23.2962401,27.68582 22.8031931,22.6784161 25.3135481,18.9212508 C27.8239031,15.1640855 32.6384894,13.7035844 36.8128926,15.4329334 C40.9872958,17.1622824 43.3588833,21.5998324 42.4772841,26.0317498 C41.5956849,30.4636672 37.7064373,33.6555979 33.1880544,33.6554808 C30.6747839,33.6626166 28.2631872,32.6635534 26.4911607,30.8811282 L26.4911607,30.8811282 Z M49.9953069,40.992343 C49.5977729,41.370789 48.9732729,41.370789 48.5757389,40.992343 L41.0769518,33.4712465 C41.3316071,33.2545002 41.5808443,33.0323352 41.819245,32.7939143 C42.0576458,32.5554934 42.2797919,32.3062351 42.4965199,32.0515582 L49.9953069,39.5726548 C50.1839019,39.7607319 50.2898985,40.0161399 50.2898985,40.2824989 C50.2898985,40.5488579 50.1839019,40.8042659 49.9953069,40.992343 L49.9953069,40.992343 Z" id="Shape"></path>
            </g>
        </g>
    </g>
</svg>