<?xml version="1.0" encoding="UTF-8"?>
<svg width="40px" height="30px" viewBox="0 0 40 30" version="1.1" xmlns="http://www.w3.org/2000/svg" xmlns:xlink="http://www.w3.org/1999/xlink">
    <!-- Generator: Sketch 43.2 (39069) - http://www.bohemiancoding.com/sketch -->
    <title>Group 6</title>
    <desc>Created with Sketch.</desc>
    <defs></defs>
    <g id="Icons-&amp;-Logos" stroke="none" stroke-width="1" fill="none" fill-rule="evenodd">
        <g id="Artboard" transform="translate(-479.000000, -355.000000)" fill-rule="nonzero" fill="#999999">
            <g id="Group-6" transform="translate(479.000000, 355.000000)">
                <path d="M37.5032422,3.76903553 L26.0598657,3.76903553 L26.0598657,1.89593909 C26.0598657,0.860406091 25.2064613,0.0228426396 24.1513432,0.0228426396 L15.2526633,0.0228426396 C14.1975452,0.0228426396 13.3441408,0.860406091 13.3441408,1.89593909 L13.3441408,3.76903553 L8.89092172,3.76903553 L8.89092172,1.2715736 L3.81704493,1.2715736 L3.81704493,3.76903553 L1.90852246,3.76903553 C0.853404354,3.76903553 0,4.60659898 0,5.64213198 L0,28.1040609 C0,29.1395939 0.853404354,29.9771574 1.90852246,29.9771574 L37.5032422,29.9771574 C38.5583604,29.9771574 39.4117647,29.1395939 39.4117647,28.1040609 L39.4117647,5.64213198 C39.4117647,4.60659898 38.5583604,3.76903553 37.5032422,3.76903553 Z M14.6242473,1.89593909 C14.6242473,1.55329949 14.9113015,1.2715736 15.2604215,1.2715736 L24.1591014,1.2715736 C24.5082214,1.2715736 24.7952756,1.55329949 24.7952756,1.89593909 L24.7952756,3.76903553 L14.6242473,3.76903553 L14.6242473,1.89593909 Z M5.08163502,2.52030457 L7.62633164,2.52030457 L7.62633164,3.76903553 L5.08163502,3.76903553 L5.08163502,2.52030457 Z M38.1394164,28.1040609 C38.1394164,28.4467005 37.8523622,28.7284264 37.5032422,28.7284264 L1.90852246,28.7284264 C1.5594025,28.7284264 1.27234831,28.4467005 1.27234831,28.1040609 L1.27234831,5.64213198 C1.27234831,5.29949239 1.5594025,5.0177665 1.90852246,5.0177665 L37.5032422,5.0177665 C37.8523622,5.0177665 38.1394164,5.29949239 38.1394164,5.64213198 L38.1394164,28.1040609 Z" id="Shape"></path>
                <path d="M19.7058824,6.89086294 C14.0966883,6.89086294 9.5348541,11.3680203 9.5348541,16.8730964 C9.5348541,22.3781726 14.0966883,26.8553299 19.7058824,26.8553299 C25.3150764,26.8553299 29.8769106,22.3781726 29.8769106,16.8730964 C29.8769106,11.3680203 25.3150764,6.89086294 19.7058824,6.89086294 Z M19.7058824,25.606599 C14.7949282,25.606599 10.8072024,21.6852792 10.8072024,16.8730964 C10.8072024,12.0532995 14.8026864,8.13959391 19.7058824,8.13959391 C24.6090783,8.13959391 28.6045623,12.0609137 28.6045623,16.8730964 C28.6045623,21.6852792 24.6168365,25.606599 19.7058824,25.606599 Z" id="Shape"></path>
                <path d="M19.7058824,10.0126904 C15.8500463,10.0126904 12.7157249,13.0888325 12.7157249,16.8730964 C12.7157249,20.6573604 15.8500463,23.7335025 19.7058824,23.7335025 C23.5617184,23.7335025 26.6960398,20.6573604 26.6960398,16.8730964 C26.6960398,13.0888325 23.5617184,10.0126904 19.7058824,10.0126904 Z M19.7058824,22.4847716 C16.5482862,22.4847716 13.9880732,19.964467 13.9880732,16.8730964 C13.9880732,13.7817259 16.5560445,11.2614213 19.7058824,11.2614213 C22.8557202,11.2614213 25.4236915,13.7817259 25.4236915,16.8730964 C25.4236915,19.964467 22.8634785,22.4847716 19.7058824,22.4847716 Z" id="Shape"></path>
                <path d="M15.2526633,16.8730964 L16.5250116,16.8730964 C16.5250116,15.1522843 17.9525243,13.751269 19.7058824,13.751269 L19.7058824,12.5025381 C17.2542844,12.5025381 15.2526633,14.4670051 15.2526633,16.8730964 Z" id="Shape"></path>
                <path d="M34.3301297,6.26649746 C32.9258916,6.26649746 31.7854331,7.3857868 31.7854331,8.76395939 C31.7854331,10.142132 32.9258916,11.2614213 34.3301297,11.2614213 C35.7343678,11.2614213 36.8748263,10.142132 36.8748263,8.76395939 C36.8670681,7.3857868 35.7266095,6.26649746 34.3301297,6.26649746 Z M34.3301297,10.0126904 C33.6318898,10.0126904 33.0577814,9.45685279 33.0577814,8.76395939 C33.0577814,8.0786802 33.6318898,7.51522843 34.3301297,7.51522843 C35.0283696,7.51522843 35.602478,8.07106599 35.602478,8.76395939 C35.5947198,9.44923858 35.0283696,10.0126904 34.3301297,10.0126904 Z" id="Shape"></path>
                <rect id="Rectangle-path" x="3.81704493" y="7.51522843" width="3.81704493" height="1.24873096"></rect>
            </g>
        </g>
    </g>
</svg>