<?xml version="1.0" encoding="UTF-8"?>
<svg width="70px" height="67px" viewBox="0 0 70 67" version="1.1" xmlns="http://www.w3.org/2000/svg" xmlns:xlink="http://www.w3.org/1999/xlink">
    <!-- Generator: Sketch 43.2 (39069) - http://www.bohemiancoding.com/sketch -->
    <title>Combined Shape</title>
    <desc>Created with Sketch.</desc>
    <defs></defs>
    <g id="Icons-&amp;-Logos" stroke="none" stroke-width="1" fill="none" fill-rule="evenodd">
        <g id="Artboard" transform="translate(-322.000000, -547.000000)" fill-rule="nonzero" fill="#4D4D4D">
            <path d="M343.07,613.031 C339.836925,613.031 337.216,610.410075 337.216,607.177 C337.216,603.943925 339.836925,601.323 343.07,601.323 C346.303075,601.323 348.924,603.943925 348.924,607.177 C348.924,610.410075 346.303075,613.031 343.07,613.031 Z M378.686,601.323 C381.917,601.323 384.539,603.943 384.54,607.177 C384.54,610.411 381.917,613.031 378.686,613.031 C375.452,613.031 372.83,610.411 372.83,607.177 C372.83,603.943 375.452,601.323 378.686,601.323 Z M380.905,589.369 L346.01,589.608 L344.306,592.783 L384.051,592.783 C386.072,592.783 387.71,594.421 387.71,596.442 C387.71,598.463 386.072,600.101 384.051,600.101 L338.191,600.101 C336.903,600.101 335.71,599.425 335.05,598.321 C334.389,597.217 334.358,595.846 334.966,594.712 L339.597,586.082 L335.214,572.46 L329.435,554.73 L326.237,554.73 C324.216,554.73 322.578,553.092 322.578,551.071 C322.578,549.05 324.216,547.412 326.237,547.412 L332.092,547.412 C333.675,547.412 335.08,548.43 335.571,549.937 L337.202,554.937 L388.255,559.132 C389.359,559.224 390.363,559.811 390.986,560.729 C391.607,561.648 391.777,562.799 391.451,563.859 L384.377,586.788 C383.906,588.314 382.501,589.359 380.905,589.369 Z M382.148587,563.22407 L368.99637,582.723034 C368.378703,583.638764 368.62033,584.881828 369.536059,585.499495 C370.451789,586.117163 371.694853,585.875536 372.31252,584.959806 L385.464738,565.460842 C386.082405,564.545112 385.840778,563.302048 384.925048,562.684381 C384.009319,562.066714 382.766255,562.308341 382.148587,563.22407 Z M355.633052,563.22407 L347.513571,575.261696 C346.895904,576.177426 347.137531,577.42049 348.053261,578.038157 C348.96899,578.655825 350.212054,578.414198 350.829722,577.498468 L358.949203,565.460842 C359.56687,564.545112 359.325243,563.302048 358.409513,562.684381 C357.493784,562.066714 356.25072,562.308341 355.633052,563.22407 Z M343.837774,562.071764 L340.093662,568.057181 C339.507878,568.993627 339.792146,570.227638 340.728592,570.813422 C341.665038,571.399205 342.899049,571.114937 343.484833,570.178491 L347.228946,564.193074 C347.814729,563.256628 347.530461,562.022617 346.594015,561.436833 C345.657569,560.851049 344.423558,561.135318 343.837774,562.071764 Z M368.39082,563.22407 L357.475374,579.406884 C356.857707,580.322614 357.099334,581.565678 358.015064,582.183345 C358.930793,582.801013 360.173857,582.559385 360.791525,581.643656 L371.70697,565.460842 C372.324638,564.545112 372.083011,563.302048 371.167281,562.684381 C370.251551,562.066714 369.008487,562.308341 368.39082,563.22407 Z" id="Combined-Shape"></path>
        </g>
    </g>
</svg>