<?xml version="1.0" encoding="UTF-8"?>
<svg width="26px" height="26px" viewBox="0 0 26 26" version="1.1" xmlns="http://www.w3.org/2000/svg" xmlns:xlink="http://www.w3.org/1999/xlink">
    <!-- Generator: Sketch Beta 47 (45392) - http://www.bohemiancoding.com/sketch -->
    <title>1x/Chat</title>
    <desc>Created with Sketch Beta.</desc>
    <defs></defs>
    <g id="Contact" stroke="none" stroke-width="1" fill="none" fill-rule="evenodd">
        <g id="1x/Chat" fill-rule="nonzero" fill="#2B2727">
            <g id="Chat-Icon" transform="translate(1.000000, 2.000000)">
                <path d="M20.4442623,3.1813975 C18.1819672,1.13003239 15.1868852,0 12,0 C8.81311475,0 5.81803279,1.13003239 3.5557377,3.1813975 C1.26393443,5.26330403 0,8.03748265 0,11 C0,13.3364183 0.821311475,15.6270245 2.32131148,17.5053216 C2.02622951,18.1008792 1.62295082,18.5742712 1.11147541,18.9204072 C0.68852459,19.2054604 0.486885246,19.7195743 0.6,20.2285979 C0.708196721,20.7325312 1.10163934,21.0990282 1.59344262,21.1702915 C2.60655738,21.3179084 4.58360656,21.3891717 6.41803279,20.2540491 C6.83606557,19.994447 6.97377049,19.4294308 6.72295082,18.9967608 C6.47213115,18.5640907 5.92622951,18.4215641 5.50819672,18.6811661 C4.74098361,19.1545581 3.9295082,19.347987 3.22622951,19.4039796 C3.6295082,18.9051365 3.94918033,18.3197594 4.1852459,17.6580287 C4.30327869,17.3322536 4.2295082,16.9708468 4.00819672,16.716335 C2.54262295,15.077279 1.7704918,13.0971772 1.7704918,11 C1.7704918,5.94539565 6.35901639,1.83248496 12,1.83248496 C17.6409836,1.83248496 22.2295082,5.94539565 22.2295082,11 C22.2295082,16.0546043 17.6409836,20.167515 12,20.167515 C11.1836066,20.167515 10.3672131,20.080981 9.58032787,19.907913 C9.10327869,19.801018 8.63114754,20.1217029 8.53278689,20.6154558 C8.4295082,21.1092087 8.73934426,21.5978714 9.21639344,21.6996761 C10.1262295,21.8981953 11.0606557,22 12.004918,22 C15.1868852,22 18.1868852,20.8699676 20.4491803,18.8186025 C22.7360656,16.736696 24,13.9625174 24,11 C24,8.03748265 22.7360656,5.26330403 20.4442623,3.1813975 Z" id="Shape"></path>
                <circle id="Oval" cx="12" cy="11" r="1"></circle>
                <circle id="Oval" cx="16" cy="11" r="1"></circle>
                <circle id="Oval" cx="8" cy="11" r="1"></circle>
            </g>
        </g>
    </g>
</svg>