<?xml version="1.0" encoding="UTF-8"?>
<svg width="13px" height="13px" viewBox="0 0 13 13" version="1.1" xmlns="http://www.w3.org/2000/svg" xmlns:xlink="http://www.w3.org/1999/xlink">
    <!-- Generator: Sketch 43.1 (39012) - http://www.bohemiancoding.com/sketch -->
    <title>chat</title>
    <desc>Created with Sketch.</desc>
    <defs></defs>
    <g id="Symbols" stroke="none" stroke-width="1" fill="none" fill-rule="evenodd">
        <g id="Chat" transform="translate(-19.000000, -42.000000)" fill="#4D4D4D">
            <g id="chat">
                <path d="M31.3906686,45.1010069 C31.2417097,44.1124617 30.1312891,43.1645417 29.1562857,43.056208 C27.9375314,42.9343326 26.7187771,42.866624 25.5000229,42.866624 C24.2812686,42.866624 23.0625143,42.9343326 21.84376,43.056208 C20.8687566,43.1645417 19.758336,44.1124617 19.5958354,45.1010069 C19.4875017,45.8728846 19.4333349,46.6718457 19.4333349,47.4708069 C19.4333349,48.2426846 19.4875017,49.028104 19.5958354,49.78644 C19.758336,50.7749851 20.8687566,51.7229051 21.84376,51.8312389 C22.1958446,51.871864 22.5479291,51.8854057 22.9000137,51.9124891 L22.9000137,54.1333303 C22.9000137,54.3093726 22.9948057,54.4718731 23.1573063,54.5395817 C23.2114731,54.5531234 23.26564,54.5666651 23.3333486,54.5666651 C23.4416823,54.5666651 23.550016,54.52604 23.6312663,54.4447897 L26.2177337,51.9395726 C27.1927371,51.9260309 28.1677406,51.871864 29.1562857,51.777072 C30.1312891,51.6687383 31.2417097,50.7749851 31.3906686,49.78644 C31.512544,49.028104 31.5667109,48.2426846 31.5667109,47.4572651 C31.5667109,46.6718457 31.512544,45.8728846 31.3906686,45.1010069 Z"></path>
            </g>
        </g>
    </g>
</svg>