<?xml version="1.0" encoding="UTF-8"?>
<svg width="24px" height="22px" viewBox="0 0 24 22" version="1.1" xmlns="http://www.w3.org/2000/svg" xmlns:xlink="http://www.w3.org/1999/xlink">
    <!-- Generator: Sketch 47 (45396) - http://www.bohemiancoding.com/sketch -->
    <title>Chat Icon</title>
    <desc>Created with Sketch.</desc>
    <defs></defs>
    <g id="New-Grid" stroke="none" stroke-width="1" fill="none" fill-rule="evenodd">
        <g id="Chat-Icon" fill-rule="nonzero" fill="#000000">
            <path d="M20.4442623,3.21382488 C18.1819672,1.17096774 15.1868852,0.0456221198 12,0.0456221198 C8.81311475,0.0456221198 5.81803279,1.17096774 3.5557377,3.21382488 C1.26393443,5.28709677 0,8.04976959 0,11 C0,13.3267281 0.821311475,15.6078341 2.32131148,17.478341 C2.02622951,18.0714286 1.62295082,18.5428571 1.11147541,18.8875576 C0.68852459,19.1714286 0.486885246,19.6834101 0.6,20.1903226 C0.708196721,20.6921659 1.10163934,21.0571429 1.59344262,21.1281106 C2.60655738,21.2751152 4.58360656,21.3460829 6.41803279,20.2156682 C6.83606557,19.9571429 6.97377049,19.39447 6.72295082,18.9635945 C6.47213115,18.5327189 5.92622951,18.3907834 5.50819672,18.6493088 C4.74098361,19.1207373 3.9295082,19.3133641 3.22622951,19.3691244 C3.6295082,18.8723502 3.94918033,18.2894009 4.1852459,17.6304147 C4.30327869,17.3059908 4.2295082,16.9460829 4.00819672,16.6926267 C2.54262295,15.0603687 1.7704918,13.0884793 1.7704918,11 C1.7704918,5.96635945 6.35901639,1.87050691 12,1.87050691 C17.6409836,1.87050691 22.2295082,5.96635945 22.2295082,11 C22.2295082,16.0336406 17.6409836,20.1294931 12,20.1294931 C11.1836066,20.1294931 10.3672131,20.043318 9.58032787,19.8709677 C9.10327869,19.7645161 8.63114754,20.083871 8.53278689,20.575576 C8.4295082,21.0672811 8.73934426,21.5539171 9.21639344,21.6552995 C10.1262295,21.8529954 11.0606557,21.9543779 12.004918,21.9543779 C15.1868852,21.9543779 18.1868852,20.8290323 20.4491803,18.7861751 C22.7360656,16.7129032 24,13.9502304 24,11 C24,8.04976959 22.7360656,5.28709677 20.4442623,3.21382488 Z" id="Shape"></path>
            <ellipse id="Oval" cx="11.995082" cy="11" rx="1.16065574" ry="1.19631336"></ellipse>
            <ellipse id="Oval" cx="15.6147541" cy="11" rx="1.16065574" ry="1.19631336"></ellipse>
            <ellipse id="Oval" cx="8.37540984" cy="11" rx="1.16065574" ry="1.19631336"></ellipse>
        </g>
    </g>
</svg>