<?xml version="1.0" encoding="UTF-8"?>
<svg width="35px" height="35px" viewBox="0 0 35 35" version="1.1" xmlns="http://www.w3.org/2000/svg" xmlns:xlink="http://www.w3.org/1999/xlink">
    <!-- Generator: Sketch 47.1 (45422) - http://www.bohemiancoding.com/sketch -->
    <title>np_clock_1326247_000000</title>
    <desc>Created with Sketch.</desc>
    <defs></defs>
    <g id="Product-Page" stroke="none" stroke-width="1" fill="none" fill-rule="evenodd">
        <g id="Product-Page-(Desktop)" transform="translate(-513.000000, -8489.000000)" fill-rule="nonzero" fill="#000000">
            <g id="Understanding-Life-Insurance" transform="translate(64.000000, 7125.000000)">
                <g id="What-is-life-insurance" transform="translate(294.000000, 1163.000000)">
                    <g id="Term-Life" transform="translate(0.000000, 200.000000)">
                        <g id="np_clock_1326247_000000" transform="translate(155.000000, 1.000000)">
                            <path d="M17.5,0 C7.85280488,0 0,7.85280488 0,17.5 C0,27.1471951 7.85280488,35 17.5,35 C27.1471951,35 35,27.1471951 35,17.5 C35,7.85280488 27.1471951,0 17.5,0 Z M17.5,33.2926829 C8.79353659,33.2926829 1.70731707,26.2064634 1.70731707,17.5 C1.70731707,8.79353659 8.79353659,1.70731707 17.5,1.70731707 C26.2064634,1.70731707 33.2926829,8.79353659 33.2926829,17.5 C33.2926829,26.2064634 26.2064634,33.2926829 17.5,33.2926829 Z" id="Shape"></path>
                            <path d="M24.3292683,17.0731707 L17.9268293,17.0731707 L17.9268293,6.40243902 C17.9268293,5.9322439 17.5433488,5.54878049 17.0731707,5.54878049 C16.6029927,5.54878049 16.2195122,5.93226098 16.2195122,6.40243902 L16.2195122,18.7804878 L24.3292683,18.7804878 C24.7994634,18.7804878 25.1829268,18.3970073 25.1829268,17.9268293 C25.1829268,17.4566512 24.7994463,17.0731707 24.3292683,17.0731707 Z" id="Shape"></path>
                        </g>
                    </g>
                </g>
            </g>
        </g>
    </g>
</svg>