<?xml version="1.0" encoding="UTF-8"?>
<svg width="18px" height="18px" viewBox="0 0 18 18" version="1.1" xmlns="http://www.w3.org/2000/svg" xmlns:xlink="http://www.w3.org/1999/xlink">
    <!-- Generator: Sketch 47 (45396) - http://www.bohemiancoding.com/sketch -->
    <title>Navigation/Close</title>
    <desc>Created with Sketch.</desc>
    <defs></defs>
    <g id="Navigation" stroke="none" stroke-width="1" fill="none" fill-rule="evenodd">
        <g id="Navigation/Close" fill-rule="nonzero" fill="#000000">
            <g id="noun_1191733" transform="translate(1.000000, 1.000000)">
                <path d="M15.0034943,0.00137329102 C14.7515315,0.00137329102 14.4870559,0.100179051 14.3089905,0.278469213 L8,6.59329224 L1.69302368,0.278469213 C1.48114014,0.0622406006 1.24736023,0.00137329102 1.00271606,0.00137329102 C0.758071899,0.00137329102 0.484268188,0.0538482666 0.281448364,0.278469213 C0.07862854,0.50309016 0.0029296875,0.713104248 0.00215148926,0.998703003 C0.00137329102,1.28430176 0.0848999023,1.51036072 0.281448364,1.69076538 L6.5921936,8 L0.281448364,14.3039093 C0.0585470305,14.5268438 0.00215148926,14.7131958 0.00215148926,14.9993744 C0.00215148926,15.2253876 0.106369019,15.5269318 0.281448364,15.6928406 C0.45652771,15.8587494 0.675994873,15.999176 1.00271606,16.0006714 C1.32943726,16.0021667 1.482178,15.9328358 1.72213745,15.6928406 L8,9.42210388 C12.010809,13.4300695 14.1080482,15.5203151 14.2917175,15.6928406 C14.5672216,15.9516288 14.7953949,16.0006714 15.0034943,16.0006714 C15.2115936,16.0006714 15.4894674,15.9315491 15.7191905,15.6928406 C15.9489136,15.4541321 16.003006,15.2260284 16.003006,14.9993744 C16.003006,14.7727203 15.9664238,14.5663041 15.7191905,14.3039093 C15.5543683,14.1289794 13.4507669,12.0276763 9.40838623,8 L15.7191905,1.69076538 C15.8968264,1.51204422 16.0042167,1.25070371 16.0033264,0.998703003 C16.0024361,0.746702291 15.8980848,0.455930359 15.7191905,0.278469213 C15.5411251,0.100179051 15.255457,0.00137329102 15.0034943,0.00137329102 Z" id="Shape"></path>
            </g>
        </g>
    </g>
</svg>
