<?xml version="1.0" encoding="UTF-8"?>
<svg width="45px" height="43px" viewBox="0 0 45 43" version="1.1" xmlns="http://www.w3.org/2000/svg" xmlns:xlink="http://www.w3.org/1999/xlink">
    <!-- Generator: Sketch 47.1 (45422) - http://www.bohemiancoding.com/sketch -->
    <title>Group 16 Copy</title>
    <desc>Created with Sketch.</desc>
    <defs></defs>
    <g id="Landing-Pages" stroke="none" stroke-width="1" fill="none" fill-rule="evenodd">
        <g id="Group-16-Copy" fill="#2B2727">
            <path d="M22.375,42.1254596 L2.6875,42.1254596 C1,42.1254596 0.4375,41.5050551 0.375,39.8299632 C0.3125,37.7826287 1.0625,35.859375 1.5,33.9361213 C2,31.5165441 2.625,29.0969669 3.1875,26.6773897 C3.3125,26.1190257 3,25.5606618 3,25.0022978 L3,2.48161765 L3,1.98529412 C3.125,0.868566176 3.75,0.186121324 4.875,0.124080882 L5.375,0.124080882 L39.5,0.124080882 C41.25,0.124080882 41.8125,0.744485294 41.8125,2.41957721 C41.8125,8.80974265 41.75,15.1999081 41.8125,21.5900735 C41.8125,23.5753676 41.4375,25.5606618 41.8125,27.4839154 C42.1875,29.4071691 42.6875,31.3304228 43.125,33.2536765 C43.5,34.8046875 43.8125,36.3556985 44.25,37.8446691 C44.4375,38.7132353 44.4375,39.519761 44.375,40.3883272 C44.3125,41.3809743 43.625,42.0013787 42.6875,42.0634191 L42,42.0634191 C35.5,42.1254596 28.9375,42.1254596 22.375,42.1254596 Z M22.375,25.4986213 L39.25,25.4986213 C39.875,25.4986213 40.0625,25.3125 40.0625,24.6920956 L40.0625,2.60569853 C40.0625,1.98529412 39.9375,1.79917279 39.25,1.79917279 L5.4375,1.79917279 C4.8125,1.79917279 4.6875,1.98529412 4.6875,2.54365809 L4.6875,24.6920956 C4.6875,25.3745404 4.9375,25.4986213 5.5,25.4986213 L22.375,25.4986213 Z M34.875,37.7826287 L41.6875,37.7826287 C42.3125,37.7826287 42.5,37.6585478 42.3125,37.0381434 C41.6875,34.4944853 41.125,31.9508272 40.5,29.4071691 C40.3125,28.7247243 40.4375,27.7941176 39.875,27.3598346 C39.3125,26.9875919 38.4375,27.2977941 37.75,27.2357537 C37.25,27.1737132 37.0625,27.2977941 37.1875,27.8561581 C37.5625,29.4692096 37.8125,31.0202206 38.125,32.6332721 C38.375,34.1842831 38.25,34.308364 36.75,34.2463235 L36.25,34.2463235 L30.375,34.2463235 L14.5,34.2463235 C14,34.2463235 13.5625,34.308364 13.0625,34.308364 C11.25,34.2463235 9.5,34.1842831 7.6875,34.308364 C6.875,34.3704044 6.4375,33.9981618 6.625,33.191636 C6.9375,31.5165441 7.25,29.9034926 7.5625,28.2904412 C7.75,27.2977941 7.75,27.2977941 6.75,27.2977941 C6.3125,27.2977941 5.9375,27.3598346 5.5,27.2977941 C4.9375,27.2357537 4.75,27.5459559 4.625,27.980239 C3.9375,31.0202206 3.1875,34.0602022 2.5,37.1001838 C2.375,37.7205882 2.5,37.8446691 3.125,37.8446691 L16.25,37.8446691 C17.4375,37.8446691 17.4375,37.8446691 17.875,36.7279412 C18.375,35.5491728 18.875,35.2389706 20.1875,35.2389706 L24.9375,35.2389706 C25.8125,35.2389706 26.5,35.6112132 26.8125,36.4797794 C26.9375,36.7899816 27.0625,37.0381434 27.1875,37.3483456 C27.3125,37.7826287 27.5625,37.9067096 28,37.9067096 C30.3125,37.7826287 32.625,37.7826287 34.875,37.7826287 Z M22.4375,39.4577206 L22.4375,39.4577206 L17.8125,39.4577206 L2.75,39.4577206 C2.25,39.4577206 2,39.5818015 2.125,40.078125 C2.25,40.5744485 2.625,40.3883272 2.875,40.3883272 L33.875,40.3883272 L42.125,40.3883272 C42.6875,40.3883272 42.8125,40.2022059 42.75,39.7058824 C42.625,39.2715993 42.25,39.4577206 42,39.4577206 L22.4375,39.4577206 Z M10.5,32.5091912 L11.375,32.5091912 C12.6875,32.5091912 12.6875,32.5091912 12.8125,31.2063419 C12.875,30.8340993 12.8125,30.6479779 12.375,30.7100184 L9.125,30.7100184 C8.9375,30.7100184 8.75,30.7100184 8.6875,30.9581801 C8.1875,32.198989 8.375,32.5091912 9.6875,32.5091912 L10.5,32.5091912 Z M34.25,32.5091912 L35.9375,32.5091912 C36.0625,32.5091912 36.3125,32.5091912 36.3125,32.3851103 C36.25,31.8887868 36.1875,31.3924632 36.0625,30.8961397 C35.9375,30.5238971 35.625,30.7100184 35.375,30.7100184 L33.25,30.7100184 C31.9375,30.7100184 31.9375,30.7100184 32.125,32.0128676 C32.1875,32.3851103 32.3125,32.5091912 32.6875,32.5091912 L34.25,32.5091912 Z M16.4375,32.5091912 L17.3125,32.5091912 C18.875,32.5091912 18.5,32.7573529 18.625,31.2063419 C18.625,30.8340993 18.5,30.7100184 18.1875,30.7100184 L15,30.7100184 C14.8125,30.7100184 14.625,30.7720588 14.5625,30.9581801 C14.125,32.0128676 14.4375,32.5091912 15.5625,32.5091912 L16.4375,32.5091912 Z M28.3125,32.5091912 L29.25,32.5091912 C30.4375,32.5091912 30.4375,32.5091912 30.3125,31.3304228 C30.25,30.8961397 30.125,30.7100184 29.625,30.7100184 C28.875,30.7720588 28.125,30.7100184 27.375,30.7100184 C25.875,30.7100184 26.1875,30.5238971 26.1875,32.0128676 C26.1875,32.4471507 26.375,32.5712316 26.75,32.5091912 L28.3125,32.5091912 Z M22.375,32.5091912 L23.3125,32.5091912 C24.625,32.5091912 24.5625,32.5091912 24.5,31.2063419 C24.5,30.7720588 24.3125,30.7100184 23.9375,30.7100184 L21.6875,30.7100184 C20.3125,30.7100184 20.3125,30.7100184 20.375,32.0749081 C20.375,32.3851103 20.5,32.5091912 20.8125,32.5091912 C21.25,32.5091912 21.8125,32.5091912 22.375,32.5091912 Z M33.6875,29.0349265 C34.125,29.0349265 34.5625,28.972886 35,29.0349265 C35.5625,29.0969669 35.75,28.8488051 35.5625,28.3524816 C35.5,28.1663603 35.4375,28.0422794 35.4375,27.8561581 C35.4375,27.3598346 35.1875,27.2357537 34.6875,27.2357537 C34,27.2977941 33.3125,27.2357537 32.625,27.2357537 C31.5,27.2357537 31.5,27.2357537 31.5625,28.3524816 C31.5625,28.9108456 31.8125,29.1590074 32.375,29.0969669 C32.875,28.972886 33.3125,29.0349265 33.6875,29.0349265 Z M11.0625,29.0349265 L11.8125,29.0349265 C13.3125,28.972886 13.0625,29.3451287 13.25,27.6700368 C13.3125,27.2977941 13.1875,27.2357537 12.875,27.2357537 L10.6875,27.2357537 C9.125,27.2357537 9.625,27.0496324 9.25,28.4145221 C9.125,28.8488051 9.25,29.0349265 9.75,29.0349265 C10.125,28.972886 10.625,29.0349265 11.0625,29.0349265 Z M28.0625,29.0349265 L28.8125,29.0349265 C30.125,29.0349265 30.125,29.0349265 30,27.7320772 C29.9375,27.2977941 29.75,27.2357537 29.375,27.2357537 L27.1875,27.2357537 C26.125,27.2357537 26.125,27.2357537 26.125,28.2904412 C26.125,28.8488051 26.25,29.0969669 26.875,29.0349265 C27.1875,28.972886 27.625,29.0349265 28.0625,29.0349265 Z M16.6875,29.0349265 L17.5,29.0349265 C18.75,29.0349265 18.6875,29.0349265 18.75,27.7941176 C18.75,27.3598346 18.625,27.1737132 18.1875,27.2357537 L16.1875,27.2357537 C14.875,27.2357537 14.875,27.2357537 14.75,28.5386029 L14.75,28.6006434 C14.6875,28.9108456 14.8125,29.0349265 15.125,29.0349265 C15.6875,28.972886 16.1875,29.0349265 16.6875,29.0349265 Z M22.375,29.0349265 L23.1875,29.0349265 C24.75,29.0349265 24.375,29.1590074 24.375,27.7941176 C24.375,27.3598346 24.25,27.1737132 23.75,27.2357537 C22.9375,27.2357537 22.0625,27.2977941 21.25,27.2357537 C20.6875,27.1737132 20.4375,27.3598346 20.4375,27.980239 C20.4375,29.0349265 20.4375,29.0349265 21.5,29.0349265 C21.8125,29.0349265 22.0625,29.0349265 22.375,29.0349265 Z M22.4375,37.7826287 L24.9375,37.7826287 C25.125,37.7826287 25.5,37.96875 25.5,37.5344669 C25.5,37.2863051 25.4375,36.8520221 25,36.8520221 L19.9375,36.8520221 C19.5,36.8520221 19.4375,37.2863051 19.4375,37.5344669 C19.4375,37.9067096 19.8125,37.7205882 20,37.7205882 C20.75,37.7826287 21.625,37.7826287 22.4375,37.7826287 Z" id="Shape"></path>
            <path d="M22.375,23.6994485 L7.9375,23.6994485 C6.75,23.6994485 6.5,23.4512868 6.5,22.2725184 L6.5,4.90119485 C6.5,3.78446691 6.6875,3.59834559 7.8125,3.59834559 L36.75,3.59834559 C37.9375,3.59834559 38.1875,3.84650735 38.1875,4.96323529 L38.1875,22.3345588 C38.1875,23.3892463 37.9375,23.6994485 36.875,23.6994485 C32.0625,23.6994485 27.25,23.6994485 22.375,23.6994485 Z M22.4375,22.0243566 L35.8125,22.0243566 C36.4375,22.0243566 36.5625,21.8382353 36.5625,21.2798713 L36.5625,6.14200368 C36.5625,5.52159926 36.4375,5.39751838 35.8125,5.39751838 L9,5.39751838 C8.4375,5.39751838 8.25,5.58363971 8.25,6.14200368 L8.25,21.4039522 C8.25,22.0243566 8.5,22.1484375 9.0625,22.1484375 C13.5,22.0243566 18,22.0243566 22.4375,22.0243566 Z" id="Shape"></path>
        </g>
    </g>
</svg>