<?xml version="1.0" encoding="UTF-8"?>
<svg width="84px" height="64px" viewBox="0 0 84 64" version="1.1" xmlns="http://www.w3.org/2000/svg" xmlns:xlink="http://www.w3.org/1999/xlink">
    <!-- Generator: Sketch 44.1 (41455) - http://www.bohemiancoding.com/sketch -->
    <title>Page 1</title>
    <desc>Created with Sketch.</desc>
    <defs></defs>
    <g id="Page-1" stroke="none" stroke-width="1" fill="none" fill-rule="evenodd">
        <g fill="#00A4A5">
            <path d="M8.254,0.0078 C3.9493,0.0078 0.5978,3.789 0.5978,8.1953 L0.5978,47.4453 C0.5978,51.8437 3.9455,55.6328 8.254,55.6328 L31.348,55.6328 L30.56675,59.789 L22.56675,59.789 C22.0355,59.78509 21.52765,59.99603 21.14875,60.37103 C20.77375,60.74603 20.56281,61.25775 20.56281,61.78903 C20.56281,62.32031 20.77375,62.82813 21.14875,63.20313 C21.52766,63.57813 22.03547,63.78907 22.56675,63.78907 L61.44175,63.78907 C61.973,63.78907 62.48475,63.57813 62.85975,63.20313 C63.23475,62.82813 63.44569,62.32032 63.44569,61.78903 C63.44569,61.25774 63.23475,60.74603 62.85975,60.37103 C62.48475,59.99603 61.97303,59.78509 61.44175,59.789 L53.44175,59.789 L52.62925,55.6328 L75.72325,55.6328 C80.03575,55.6328 83.37945,51.8437 83.37945,47.4453 L83.37945,8.1953 C83.37945,3.7891 80.03175,0.0078 75.72325,0.0078 L8.254,0.0078 Z M8.254,4.0078 L75.723,4.0078 C77.6527,4.0078 79.3792,5.7695 79.3792,8.1953 L79.3792,47.4453 C79.3792,49.8555 77.6487,51.6328 75.723,51.6328 L8.254,51.6328 C6.3399,51.6328 4.5978,49.8555 4.5978,47.4453 L4.5978,8.1953 C4.5978,5.7695 6.3361,4.0078 8.254,4.0078 Z M35.442,55.6328 L48.567,55.6328 L49.3795,59.789 L34.6295,59.789 L35.442,55.6328 Z" id="Fill-1"></path>
            <path d="M41.262,46.668 C40.72684,46.65628 40.2073,46.86331 39.8245,47.23831 C39.44559,47.61722 39.22684,48.12893 39.22684,48.66411 C39.22684,49.20317 39.44559,49.71491 39.8245,50.09381 C40.20731,50.46881 40.72684,50.67584 41.262,50.66412 L42.7386,50.66412 C43.27376,50.67584 43.7933,50.46881 44.1761,50.09381 C44.55501,49.7149 44.77376,49.20319 44.77376,48.66411 C44.77376,48.12895 44.55501,47.61721 44.1761,47.23831 C43.79329,46.86331 43.27376,46.65628 42.7386,46.668 L41.2659,46.668 L41.262,46.668 Z" id="Fill-2"></path>
            <path d="M13.699,7.727 C10.4607,7.727 7.9998,10.5708 7.9998,13.8051 L7.9998,39.6531 C7.9998,42.8875 10.4646,45.7312 13.699,45.7312 L70.301,45.7312 C73.5393,45.7312 76.0002,42.8874 76.0002,39.6531 L76.0002,13.8051 C76.0002,10.5707 73.5354,7.727 70.301,7.727 L13.699,7.727 Z M13.699,11.727 L70.301,11.727 C71.12522,11.727 72.0002,12.55903 72.0002,13.8051 L72.0002,39.6531 C72.0002,40.8992 71.1252,41.7312 70.301,41.7312 L13.699,41.7312 C12.87478,41.7312 11.9998,40.89917 11.9998,39.6531 L11.9998,13.8051 C11.9998,12.559 12.8748,11.727 13.699,11.727 Z" id="Fill-3"></path>
        </g>
    </g>
</svg>
