<?xml version="1.0" encoding="UTF-8"?>
<svg width="19px" height="19px" viewBox="0 0 19 19" version="1.1" xmlns="http://www.w3.org/2000/svg" xmlns:xlink="http://www.w3.org/1999/xlink">
    <!-- Generator: Sketch 44.1 (41455) - http://www.bohemiancoding.com/sketch -->
    <title>dashboard</title>
    <desc>Created with Sketch.</desc>
    <defs></defs>
    <g id="Mobile-Hamburger-Menu" stroke="none" stroke-width="1" fill="none" fill-rule="evenodd">
        <g id="Artboard" transform="translate(-572.000000, -318.000000)" fill="#4D4D4D">
            <g id="Group-2" transform="translate(572.000000, 289.000000)">
                <g id="Group-Copy" transform="translate(0.000000, 23.000000)">
                    <path d="M9.50003341,5.99993318 C14.7448435,5.99993318 19.0000668,10.2551565 19.0000668,15.4999666 C19.0000668,20.7447767 14.7448435,25 9.50003341,25 C4.2552233,25 0,20.7447767 0,15.4999666 C0,10.2551565 4.2552233,5.99993318 9.50003341,5.99993318 Z M9.50003341,10.6311995 C10.3114946,10.6311995 10.9646219,9.97807217 10.9646219,9.16661099 C10.9646219,8.3551498 10.3114946,7.7020225 9.50003341,7.7020225 C8.68857222,7.7020225 8.03544492,8.3551498 8.03544492,9.16661099 C8.03544492,9.97807217 8.68857222,10.6311995 9.50003341,10.6311995 Z M9.50003341,21.3187371 C10.9646219,21.3187371 12.2115013,20.1312329 12.2115013,18.6666444 C12.2115013,18.0531006 12.0927509,17.4791402 11.7364996,17.0239303 L13.4385889,11.6603698 C13.5375476,11.3832854 13.4385889,11.0666177 13.1812964,10.888492 C12.8646286,10.7103664 12.4687938,10.7895334 12.2708765,11.1062011 L9.14378216,16.0541352 C7.8573193,16.2322608 6.84794075,17.3208063 6.84794075,18.6666444 C6.84794075,20.1312329 8.03544492,21.3187371 9.50003341,21.3187371 Z M15.833389,16.9645551 C16.6448502,16.9645551 17.2979775,16.3114278 17.2979775,15.4999666 C17.2979775,14.6885054 16.6448502,14.0353781 15.833389,14.0353781 C15.0219278,14.0353781 14.3688005,14.6885054 14.3688005,15.4999666 C14.3688005,16.3114278 15.0219278,16.9645551 15.833389,16.9645551 Z M3.1666778,16.9645551 C3.97813899,16.9645551 4.63126629,16.3114278 4.63126629,15.4999666 C4.63126629,14.6885054 3.97813899,14.0353781 3.1666778,14.0353781 C2.35521662,14.0353781 1.70208932,14.6885054 1.70208932,15.4999666 C1.70208932,16.3114278 2.35521662,16.9645551 3.1666778,16.9645551 Z" id="dashboard"></path>
                </g>
            </g>
        </g>
    </g>
</svg>
