<?xml version="1.0" encoding="UTF-8"?>
<svg width="200px" height="200px" viewBox="0 0 200 200" version="1.1" xmlns="http://www.w3.org/2000/svg" xmlns:xlink="http://www.w3.org/1999/xlink">
    <!-- Generator: Sketch Beta 47 (45392) - http://www.bohemiancoding.com/sketch -->
    <title>3x/Disability/Color</title>
    <desc>Created with Sketch Beta.</desc>
    <defs>
        <polygon id="path-1" points="0.323016106 0.233854584 67.1814732 0.233854584 67.1814732 130.365788 0.323016106 130.365788"></polygon>
        <polygon id="path-3" points="48.4979803 74.5951843 0 74.5951843 0 0.793269603 48.4979803 0.793269603"></polygon>
    </defs>
    <g id="Products" stroke="none" stroke-width="1" fill="none" fill-rule="evenodd">
        <g id="3x/Disability/Color">
            <g id="Disability" transform="translate(25.000000, 0.000000)">
                <rect id="Rectangle-Copy-6" x="0" y="0" width="150" height="200"></rect>
                <g id="DisabilityIcon-Copy" transform="translate(29.000000, 35.000000)">
                    <g id="Group-3" transform="translate(22.341085, 0.000000)">
                        <mask id="mask-2" fill="white">
                            <use xlink:href="#path-1"></use>
                        </mask>
                        <g id="Clip-2"></g>
                        <path d="M22.571039,6.77885976 C13.9320897,6.77885976 6.90192438,13.7715294 6.90192438,22.3667294 C6.90192438,30.9619293 13.9320897,37.954599 22.571039,37.954599 C31.2099883,37.954599 38.2401536,30.9619293 38.2401536,22.3667294 C38.2401536,13.7715294 31.2099883,6.77885976 22.571039,6.77885976 M22.571039,44.5004394 C10.3031434,44.5004394 0.323016106,34.5720595 0.323016106,22.3667294 C0.323016106,10.1624433 10.3031434,0.233019389 22.571039,0.233019389 C34.8389346,0.233019389 44.8190619,10.1624433 44.8190619,22.3667294 C44.8190619,34.5720595 34.8389346,44.5004394 22.571039,44.5004394 M60.6015155,127.083471 L60.6015155,84.8528831 C60.6015155,73.4201083 50.7788035,56.4092753 23.7180715,56.4092753 C16.5336392,56.4092753 12.2687352,57.617176 12.2267578,57.6297039 C10.485745,58.1339528 8.65867864,57.1411148 8.14760378,55.4112173 C7.63652891,53.6802758 8.62404729,51.8668588 10.3608623,51.3521699 C10.567601,51.2916183 15.4884019,49.8644789 23.7180715,49.8644789 C55.6062047,49.8644789 67.1814732,70.7882002 67.1814732,84.8528831 L67.1814732,127.083471 C67.1814732,128.891668 65.7080664,130.356392 63.8914943,130.356392 C62.0749223,130.356392 60.6015155,128.891668 60.6015155,127.083471 Z M36.3847524,130.365788 L24.2490856,130.365788 C22.4314641,130.365788 20.9591068,128.901064 20.9591068,127.092867 C20.9591068,125.285714 22.4314641,123.819947 24.2490856,123.819947 L36.3847524,123.819947 C41.6728556,123.819947 45.9765887,119.539573 45.9765887,114.277845 C45.9765887,109.017161 41.6728556,104.736787 36.3847524,104.736787 L27.7678413,104.736787 C25.9512693,104.736787 24.4778625,103.27102 24.4778625,101.462823 C24.4778625,99.6556695 25.9512693,98.1909463 27.7678413,98.1909463 L36.3847524,98.1909463 C45.301802,98.1909463 52.555497,105.407031 52.555497,114.277845 C52.555497,123.148659 45.301802,130.365788 36.3847524,130.365788" id="Fill-1" fill="#2B2626" mask="url(#mask-2)"></path>
                    </g>
                    <g id="Group-6" transform="translate(0.000000, 55.852713)">
                        <mask id="mask-4" fill="white">
                            <use xlink:href="#path-3"></use>
                        </mask>
                        <g id="Clip-5"></g>
                        <path d="M6.51476438,68.099705 L40.5345221,68.099705 L18.2692926,9.08040962 C11.9327373,13.6949506 6.51476438,19.4170229 6.51476438,29.117505 L6.51476438,68.099705 Z M45.2406977,74.5957023 L3.25712241,74.5957023 C1.45840526,74.5957023 -0.000519560123,73.1410962 -0.000519560123,71.3477037 L-0.000519560123,29.117505 C-0.000519560123,13.283641 11.7384218,5.51123726 18.0458817,1.33494299 C18.8730215,0.78687559 19.9038287,0.647009619 20.8494282,0.950570578 C21.7929493,1.25413154 22.5473506,1.97107414 22.8975342,2.89729768 L48.2894765,70.2039109 C48.665638,71.2016214 48.527435,72.3195132 47.9185105,73.1960066 C47.3106252,74.0725 46.3089133,74.5957023 45.2406977,74.5957023 L45.2406977,74.5957023 Z" id="Fill-4" fill="#FF700A" mask="url(#mask-4)"></path>
                    </g>
                </g>
            </g>
        </g>
    </g>
</svg>