<?xml version="1.0" encoding="UTF-8"?>
<svg width="19px" height="17px" viewBox="0 0 19 17" version="1.1" xmlns="http://www.w3.org/2000/svg" xmlns:xlink="http://www.w3.org/1999/xlink">
    <!-- Generator: Sketch 47.1 (45422) - http://www.bohemiancoding.com/sketch -->
    <title>Discount</title>
    <desc>Created with Sketch.</desc>
    <defs></defs>
    <g id="Form-Flows/Comparison" stroke="none" stroke-width="1" fill="none" fill-rule="evenodd">
        <g id="Discount" fill-rule="nonzero" fill="#2B2727">
            <g id="Group-2">
                <path d="M9.22352941,4.26581197 C9.69411765,4.26581197 10.0705882,3.89487179 10.0705882,3.43119658 L10.0705882,0.834615385 C10.0705882,0.370940171 9.69411765,0 9.22352941,0 C8.75294118,0 8.37647059,0.370940171 8.37647059,0.834615385 L8.37647059,3.43119658 C8.37647059,3.89487179 8.75294118,4.26581197 9.22352941,4.26581197 Z" id="Shape"></path>
                <path d="M3.85882353,2.68931624 C3.57647059,2.41111111 3.01176471,2.41111111 2.63529412,2.68931624 C2.35294118,2.96752137 2.35294118,3.52393162 2.63529412,3.89487179 L4.51764706,5.74957265 C4.8,6.02777778 5.36470588,6.02777778 5.74117647,5.74957265 C6.02352941,5.47136752 6.02352941,4.91495726 5.74117647,4.54401709 L3.85882353,2.68931624 Z" id="Shape"></path>
                <path d="M17.6,8.2534188 L14.9647059,8.2534188 C14.4941176,8.2534188 14.1176471,8.62435897 14.1176471,9.08803419 C14.1176471,9.5517094 14.4941176,9.92264957 14.9647059,9.92264957 L17.6,9.92264957 C18.0705882,9.92264957 18.4470588,9.5517094 18.4470588,9.08803419 C18.4470588,8.62435897 18.0705882,8.2534188 17.6,8.2534188 Z" id="Shape"></path>
                <path d="M3.48235294,8.2534188 L0.847058824,8.2534188 C0.376470588,8.2534188 0,8.62435897 0,9.08803419 C0,9.5517094 0.376470588,9.92264957 0.847058824,9.92264957 L3.48235294,9.92264957 C3.95294118,9.92264957 4.32941176,9.5517094 4.32941176,9.08803419 C4.32941176,8.62435897 3.95294118,8.2534188 3.48235294,8.2534188 Z" id="Shape"></path>
                <path d="M15.8117647,2.5965812 C15.5294118,2.31837607 14.9647059,2.31837607 14.5882353,2.5965812 L12.6117647,4.45128205 C12.3294118,4.72948718 12.3294118,5.28589744 12.6117647,5.65683761 C12.8941176,5.93504274 13.4588235,5.93504274 13.8352941,5.65683761 L15.8117647,3.80213675 C16.0941176,3.52393162 16.0941176,2.96752137 15.8117647,2.5965812 Z" id="Shape"></path>
                <path d="M9.78823529,10.85 C8.65882353,10.4790598 8.28235294,10.2935897 8.28235294,9.92264957 C8.28235294,9.64444444 8.65882353,9.36623932 9.41176471,9.36623932 C10.2588235,9.36623932 10.8235294,9.64444444 11.0117647,9.73717949 L11.2,9.73717949 C11.3882353,9.73717949 11.4823529,9.64444444 11.5764706,9.5517094 L11.9529412,8.80982906 L11.9529412,8.53162393 C11.9529412,8.43888889 11.8588235,8.34615385 11.7647059,8.34615385 C11.3882353,8.16068376 10.9176471,8.06794872 10.3529412,7.97521368 L10.1647059,7.97521368 L10.1647059,7.14059829 C10.1647059,6.95512821 9.97647059,6.76965812 9.78823529,6.76965812 L8.84705882,6.76965812 C8.65882353,6.76965812 8.47058824,6.95512821 8.47058824,7.14059829 L8.47058824,7.97521368 L8.28235294,7.97521368 C7.05882353,8.2534188 6.30588235,9.08803419 6.30588235,10.0153846 C6.30588235,11.3136752 7.62352941,11.8700855 8.84705882,12.2410256 C9.97647059,12.6119658 10.1647059,12.982906 10.1647059,13.1683761 C10.1647059,13.6320513 9.6,13.9102564 8.84705882,13.9102564 C8.18823529,13.9102564 7.52941176,13.7247863 6.96470588,13.4465812 L6.77647059,13.4465812 L6.68235294,13.4465812 C6.58823529,13.4465812 6.49411765,13.5393162 6.49411765,13.6320513 L6.11764706,14.3739316 C6.02352941,14.5594017 6.11764706,14.7448718 6.30588235,14.8376068 C6.77647059,15.115812 7.34117647,15.3012821 8.09411765,15.3012821 L8.28235294,15.3012821 L8.28235294,16.0431624 C8.28235294,16.2286325 8.47058824,16.4141026 8.65882353,16.4141026 L9.50588235,16.4141026 C9.69411765,16.4141026 9.88235294,16.2286325 9.88235294,16.0431624 L9.88235294,15.208547 L10.0705882,15.208547 C11.5764706,14.8376068 12.1411765,13.8175214 12.1411765,13.075641 C12.2352941,11.7773504 11.0117647,11.2209402 9.78823529,10.85 Z" id="Shape"></path>
            </g>
        </g>
    </g>
</svg>