<?xml version="1.0" encoding="UTF-8"?>
<svg width="20px" height="18px" viewBox="0 0 20 18" version="1.1" xmlns="http://www.w3.org/2000/svg" xmlns:xlink="http://www.w3.org/1999/xlink">
    <!-- Generator: Sketch 44.1 (41455) - http://www.bohemiancoding.com/sketch -->
    <title>Group</title>
    <desc>Created with Sketch.</desc>
    <defs></defs>
    <g id="Page-1" stroke="none" stroke-width="1" fill="none" fill-rule="evenodd">
        <g id="Group" fill-rule="nonzero" fill="#00A4A5">
            <path d="M9.8,4.6 C10.3,4.6 10.7,4.2 10.7,3.7 L10.7,0.9 C10.7,0.4 10.3,0 9.8,0 C9.3,0 8.9,0.4 8.9,0.9 L8.9,3.7 C8.9,4.2 9.3,4.6 9.8,4.6 Z" id="Shape"></path>
            <path d="M4.1,2.9 C3.8,2.6 3.2,2.6 2.8,2.9 C2.5,3.2 2.5,3.8 2.8,4.2 L4.8,6.2 C5.1,6.5 5.7,6.5 6.1,6.2 C6.4,5.9 6.4,5.3 6.1,4.9 L4.1,2.9 Z" id="Shape"></path>
            <path d="M18.7,8.9 L15.9,8.9 C15.4,8.9 15,9.3 15,9.8 C15,10.3 15.4,10.7 15.9,10.7 L18.7,10.7 C19.2,10.7 19.6,10.3 19.6,9.8 C19.6,9.3 19.2,8.9 18.7,8.9 Z" id="Shape"></path>
            <path d="M3.7,8.9 L0.9,8.9 C0.4,8.9 0,9.3 0,9.8 C0,10.3 0.4,10.7 0.9,10.7 L3.7,10.7 C4.2,10.7 4.6,10.3 4.6,9.8 C4.6,9.3 4.2,8.9 3.7,8.9 Z" id="Shape"></path>
            <path d="M16.8,2.8 C16.5,2.5 15.9,2.5 15.5,2.8 L13.4,4.8 C13.1,5.1 13.1,5.7 13.4,6.1 C13.7,6.4 14.3,6.4 14.7,6.1 L16.8,4.1 C17.1,3.8 17.1,3.2 16.8,2.8 Z" id="Shape"></path>
            <path d="M10.4,11.7 C9.2,11.3 8.8,11.1 8.8,10.7 C8.8,10.4 9.2,10.1 10,10.1 C10.9,10.1 11.5,10.4 11.7,10.5 C11.8,10.5 11.8,10.5 11.9,10.5 C12.1,10.5 12.2,10.4 12.3,10.3 L12.7,9.5 C12.7,9.4 12.7,9.3 12.7,9.2 C12.7,9.1 12.6,9 12.5,9 C12.1,8.8 11.6,8.7 11,8.6 L10.8,8.6 L10.8,7.7 C10.8,7.5 10.6,7.3 10.4,7.3 L9.4,7.3 C9.2,7.3 9,7.5 9,7.7 L9,8.6 L8.8,8.6 C7.5,8.9 6.7,9.8 6.7,10.8 C6.7,12.2 8.1,12.8 9.4,13.2 C10.6,13.6 10.8,14 10.8,14.2 C10.8,14.7 10.2,15 9.4,15 C8.7,15 8,14.8 7.4,14.5 C7.3,14.5 7.3,14.5 7.2,14.5 C7.2,14.5 7.1,14.5 7.1,14.5 C7,14.5 6.9,14.6 6.9,14.7 L6.5,15.5 C6.4,15.7 6.5,15.9 6.7,16 C7.2,16.3 7.8,16.5 8.6,16.5 L8.8,16.5 L8.8,17.3 C8.8,17.5 9,17.7 9.2,17.7 L10.1,17.7 C10.3,17.7 10.5,17.5 10.5,17.3 L10.5,16.4 L10.7,16.4 C12.3,16 12.9,14.9 12.9,14.1 C13,12.7 11.7,12.1 10.4,11.7 Z" id="Shape"></path>
        </g>
    </g>
</svg>