<?xml version="1.0" encoding="UTF-8"?>
<svg width="96px" height="88px" viewBox="0 0 96 88" version="1.1" xmlns="http://www.w3.org/2000/svg" xmlns:xlink="http://www.w3.org/1999/xlink">
    <!-- Generator: Sketch 44.1 (41455) - http://www.bohemiancoding.com/sketch -->
    <title>Group</title>
    <desc>Created with Sketch.</desc>
    <defs></defs>
    <g id="Page-1" stroke="none" stroke-width="1" fill="none" fill-rule="evenodd">
        <g id="Group" fill="#00A4A5">
            <path d="M14.668,66.918 C9.5821,66.918 0.085999,43.66 0.085999,37.75 C0.085999,31.2227 16.059,4.418 23.004,4.418 C29.4688,4.418 32.7931,11.1836 33.387,14.465 C33.59403,15.5939 32.84403,16.6798 31.7112,16.8869 C30.5823,17.09393 29.4964,16.34393 29.2893,15.2111 C28.87914,12.9728 26.5471,8.5822 23.0002,8.5822 C19.5041,9.23454 4.250199,31.5982 4.250199,37.7502 C4.250199,43.1018 11.6213,58.7272 14.6172,62.2702 C17.1953,58.7858 23,44.2082 23,39.8322 C23,35.4845 21.2617,32.6486 21.2461,32.6252 C20.62501,31.65254 20.91016,30.3674 21.87501,29.7463 C22.84767,29.12521 24.13281,29.41036 24.75391,30.37521 C24.85547,30.53537 27.16801,34.20721 27.16801,39.83221 C27.16801,43.91031 19.90241,66.91821 14.66801,66.91821 L14.668,66.918 Z" id="Fill-1"></path>
            <path d="M48,69 C47.56641,69 47.13672,68.86719 46.7734,68.60156 C40.6757,64.15236 37.582,60.78516 37.582,58.58156 C37.582,56.70266 38.5976,52.33156 48,52.33156 C57.3984,52.33156 58.418,56.70266 58.418,58.58156 C58.418,60.78076 55.3282,64.15186 49.2266,68.59756 C48.86332,68.86709 48.43363,68.9999 48,68.9999 L48,69 Z M48,56.5 C44.2617,56.5 41.75,57.33594 41.75,58.582 C42.04297,59.2695 44.832,61.8828 48,64.3125 C51.168,61.875 53.9609,59.2422 54.2773,58.3359 C54.24996,57.3359 51.7382,56.5 48,56.5 Z" id="Fill-2"></path>
            <path d="M33.418,83.582 C24.8321,83.582 20.918,77.1015 20.918,71.082 C20.918,65.9492 28.1055,53.668 29.5469,51.262 C30.14456,50.27762 31.418,49.9573 32.4063,50.54716 C33.3946,51.13702 33.7149,52.41826 33.12114,53.40656 C30.01174,58.60186 25.08204,67.99656 25.08204,71.08256 C25.08204,72.47316 25.48048,79.41456 33.41404,79.41456 C39.61324,79.41456 45.91404,72.14116 45.91404,66.91456 C45.91404,65.76616 46.84763,64.83256 47.99604,64.83256 C49.14444,64.83256 50.07804,65.76615 50.07804,66.91456 C50.08194,74.19576 41.99994,83.58256 33.41804,83.58256 L33.418,83.582 Z" id="Fill-3"></path>
            <path d="M23,66.918 C22.46484,66.918 21.9336,66.71488 21.5234,66.30862 L17.3554,62.14062 C16.5429,61.32812 16.5429,60.00782 17.3554,59.19532 C18.1679,58.38282 19.4882,58.38282 20.3007,59.19532 L24.4687,63.36332 C25.2812,64.17582 25.2812,65.49612 24.4687,66.30862 C24.06636,66.71096 23.53511,66.918 22.9999,66.918 L23,66.918 Z" id="Fill-4"></path>
            <path d="M37.5,41.918 C34.0547,41.918 31.25,39.1133 31.25,35.668 C31.25,32.2227 34.0547,29.418 37.5,29.418 C40.9453,29.418 43.75,32.2227 43.75,35.668 C43.75,39.1133 40.9453,41.918 37.5,41.918 Z M37.5,33.5821 C36.3516,33.5821 35.418,34.51569 35.418,35.6641 C35.418,36.8125 36.35159,37.7461 37.5,37.7461 C38.64841,37.7461 39.582,36.81251 39.582,35.6641 C39.582,34.5157 38.64841,33.5821 37.5,33.5821 Z" id="Fill-5" stroke="#FFFFFF"></path>
            <path d="M81.332,66.918 C76.0937,66.918 68.832,43.91 68.832,39.836 C68.832,34.211 71.1445,30.5352 71.2461,30.379 C71.86329,29.41416 73.1563,29.1212 74.1211,29.75009 C75.08594,30.36728 75.3711,31.66029 74.75001,32.62509 C74.7422,32.64071 73.00001,35.49229 73.00001,39.83209 C73.00001,44.20709 78.80471,58.78109 81.38281,62.27009 C84.37891,58.72319 91.74981,43.09809 91.74981,37.75009 C91.74981,31.60169 76.49581,9.23809 72.93781,8.57809 C69.45341,8.58199 67.12141,12.96869 66.71121,15.20309 C66.50808,16.33589 65.41821,17.09369 64.28931,16.87889 C63.15651,16.67577 62.40651,15.58589 62.61351,14.45699 C63.21117,11.18359 66.53541,4.41799 73.00051,4.41799 C79.94581,4.41799 95.91851,31.22299 95.91851,37.74999 C95.91851,43.66019 86.42241,66.91799 81.33251,66.91799 L81.332,66.918 Z" id="Fill-6"></path>
            <path d="M73,66.918 C72.46484,66.918 71.9336,66.71488 71.5234,66.30862 C70.7109,65.49612 70.7109,64.17582 71.5234,63.36332 L75.6914,59.19532 C76.5039,58.38282 77.8242,58.38282 78.6367,59.19532 C79.4492,60.00782 79.4492,61.32812 78.6367,62.14062 L74.4687,66.30862 C74.06636,66.71096 73.53511,66.918 72.9999,66.918 L73,66.918 Z" id="Fill-8"></path>
            <path d="M58.5,41.918 C55.0547,41.918 52.25,39.1133 52.25,35.668 C52.25,32.2227 55.0547,29.418 58.5,29.418 C61.9453,29.418 64.75,32.2227 64.75,35.668 C64.75,39.1133 61.9453,41.918 58.5,41.918 Z M58.5,33.5821 C57.3516,33.5821 56.418,34.51569 56.418,35.6641 C56.418,36.8125 57.35159,37.7461 58.5,37.7461 C59.64841,37.7461 60.582,36.81251 60.582,35.6641 C60.582,34.5157 59.64841,33.5821 58.5,33.5821 Z" id="Fill-9" stroke="#FFFFFF"></path>
            <path d="M64.668,12.75 C64.13284,12.75 63.6016,12.54688 63.1914,12.14062 C60.8711,9.81642 54.7422,4.41792 48.0004,4.41792 C41.2586,4.41792 35.1294,9.81632 32.8094,12.14062 C31.9969,12.95312 30.6766,12.95312 29.8641,12.14062 C29.0516,11.32812 29.0516,10.00782 29.8641,9.19532 C32.5516,6.50392 39.7,0.25002 48.0011,0.25002 C56.3022,0.25002 63.4501,6.50392 66.1421,9.19142 C66.9546,10.00392 66.9546,11.32422 66.1421,12.13672 C65.73585,12.54688 65.20069,12.75 64.6694,12.75 L64.668,12.75 Z" id="Fill-10"></path>
            <path d="M48,87.75 C42.7969,87.75 40.3281,85.1875 38.6992,83.4922 L38.19529,82.97267 C37.38279,82.16017 37.38279,80.83987 38.19529,80.02737 C39.00779,79.21487 40.32809,79.21487 41.14059,80.02737 L41.70309,80.60159 C43.17579,82.13679 44.56639,83.58209 47.99999,83.58209 C51.43359,83.58209 52.82419,82.13679 54.30079,80.60159 L54.86329,80.02737 C55.67579,79.21487 56.99609,79.21487 57.80859,80.02737 C58.62109,80.83987 58.62109,82.16017 57.80859,82.97267 L57.30468,83.4922 C55.67188,85.1875 53.20308,87.75 47.99998,87.75 L48,87.75 Z" id="Fill-11"></path>
            <path d="M62.582,83.582 C54,83.582 45.914,74.1953 45.914,66.914 C45.914,65.7656 46.84759,64.832 47.996,64.832 C49.1444,64.832 50.078,65.76559 50.078,66.914 C50.078,72.1406 56.3788,79.414 62.578,79.414 C70.5116,79.414 70.91,72.4726 70.91,71.082 C70.91,67.9922 65.9803,58.594 62.8709,53.402 C62.28106,52.41372 62.60528,51.1364 63.58574,50.5426 C64.57011,49.95666 65.85134,50.27698 66.44514,51.25744 C67.88654,53.66764 75.07404,65.94544 75.07404,71.07744 C75.08185,77.10474 71.17174,83.58144 62.58204,83.58144 L62.582,83.582 Z" id="Fill-12"></path>
            <path d="M48,69 C47.56641,69 47.13672,68.86719 46.7734,68.60156 C40.6757,64.15236 37.582,60.78516 37.582,58.58156 C37.582,56.70266 38.5976,52.33156 48,52.33156 C57.3984,52.33156 58.418,56.70266 58.418,58.58156 C58.418,60.78076 55.3282,64.15186 49.2266,68.59756 C48.86332,68.86709 48.43363,68.9999 48,68.9999 L48,69 Z M48,56.5 C44.2617,56.5 41.75,57.33594 41.75,58.582 C42.04297,59.2695 44.832,61.8828 48,64.3125 C51.168,61.875 53.9609,59.2422 54.2773,58.3359 C54.24996,57.3359 51.7382,56.5 48,56.5 Z" id="Fill-7"></path>
        </g>
    </g>
</svg>
