<?xml version="1.0" encoding="UTF-8"?>
<svg width="45px" height="42px" viewBox="0 0 45 42" version="1.1" xmlns="http://www.w3.org/2000/svg" xmlns:xlink="http://www.w3.org/1999/xlink">
    <!-- Generator: Sketch 47.1 (45422) - http://www.bohemiancoding.com/sketch -->
    <title>Group 4 Copy</title>
    <desc>Created with Sketch.</desc>
    <defs></defs>
    <g id="Form-Flows/Comparison" stroke="none" stroke-width="1" fill="none" fill-rule="evenodd">
        <g id="Group-4-Copy" fill-rule="nonzero">
            <path d="M6.875625,31.3678125 C4.49160938,31.3678125 0.0403120313,20.465625 0.0403120313,17.6953125 C0.0403120313,14.6356406 7.52765625,2.0709375 10.783125,2.0709375 C13.8135,2.0709375 15.3717656,5.2423125 15.6501563,6.78046875 C15.7472016,7.30964063 15.3956391,7.81865625 14.864625,7.91573438 C14.3354531,8.01277969 13.8264375,7.66121719 13.7293594,7.13020313 C13.5370969,6.081 12.4439531,4.02290625 10.7813437,4.02290625 C9.14254688,4.32869063 1.99228078,14.8116563 1.99228078,17.6954063 C1.99228078,20.2039688 5.44748438,27.528375 6.8518125,29.1891563 C8.06029688,27.5558438 10.78125,20.7225938 10.78125,18.6713438 C10.78125,16.6333594 9.96642187,15.3040313 9.95910937,15.2930625 C9.66797344,14.8371281 9.8016375,14.2347188 10.2539109,13.9435781 C10.7098453,13.6524422 11.3122547,13.7861063 11.6033953,14.2383797 C11.6510016,14.3134547 12.7350047,16.0346297 12.7350047,18.6713484 C12.7350047,20.5829578 9.32925469,31.3679109 6.87562969,31.3679109 L6.875625,31.3678125 Z" id="Fill-1" fill="#2B2727"></path>
            <path d="M22.5,32.34375 C22.2967547,32.34375 22.0953375,32.2814953 21.9250312,32.1569813 C19.0667344,30.0714187 17.6165625,28.4930437 17.6165625,27.4601062 C17.6165625,26.5793719 18.092625,24.5304187 22.5,24.5304187 C26.9055,24.5304187 27.3834375,26.5793719 27.3834375,27.4601062 C27.3834375,28.4909813 25.9350938,30.0711844 23.0749688,32.1551063 C22.9046813,32.2814484 22.7032641,32.3437031 22.5,32.3437031 L22.5,32.34375 Z M22.5,26.484375 C20.7476719,26.484375 19.5703125,26.8762219 19.5703125,27.4603125 C19.7076422,27.7825781 21.015,29.0075625 22.5,30.1464844 C23.985,29.0039062 25.2941719,27.7697812 25.4424844,27.3449531 C25.4296688,26.8762031 24.2522813,26.484375 22.5,26.484375 Z" id="Fill-2" fill="#4D4D4D"></path>
            <path d="M15.6646875,39.1790625 C11.6400469,39.1790625 9.8053125,36.1413281 9.8053125,33.3196875 C9.8053125,30.9136875 13.1744531,25.156875 13.8501094,24.0290625 C14.1302625,23.5676344 14.7271875,23.4174844 15.1904531,23.6939813 C15.6537188,23.9704781 15.8038594,24.5710594 15.5255344,25.034325 C14.0680031,27.4696219 11.7572063,31.8733875 11.7572063,33.31995 C11.7572063,33.9717937 11.943975,37.225575 15.6628313,37.225575 C18.5687063,37.225575 21.5222063,33.8161688 21.5222063,31.3662 C21.5222063,30.8278875 21.9598266,30.3902625 22.4981438,30.3902625 C23.0364563,30.3902625 23.4740813,30.8278828 23.4740813,31.3662 C23.4759094,34.7792625 19.6874719,39.179325 15.6647063,39.179325 L15.6646875,39.1790625 Z" id="Fill-3" fill="#2B2727"></path>
            <path d="M10.78125,31.3678125 C10.5303938,31.3678125 10.281375,31.2726 10.0890938,31.0821656 L8.13534375,29.1284156 C7.75448438,28.7475562 7.75448438,28.1286656 8.13534375,27.7478063 C8.51620313,27.3669469 9.13509375,27.3669469 9.51595313,27.7478063 L11.4697031,29.7015562 C11.8505625,30.0824156 11.8505625,30.7013062 11.4697031,31.0821656 C11.2811063,31.2707625 11.0320828,31.3678125 10.7812031,31.3678125 L10.78125,31.3678125 Z" id="Fill-4" fill="#2B2727"></path>
            <path d="M17.578125,19.6490625 C15.9631406,19.6490625 14.6484375,18.3343594 14.6484375,16.719375 C14.6484375,15.1043906 15.9631406,13.7896875 17.578125,13.7896875 C19.1931094,13.7896875 20.5078125,15.1043906 20.5078125,16.719375 C20.5078125,18.3343594 19.1931094,19.6490625 17.578125,19.6490625 Z M17.578125,15.7416094 C17.0398125,15.7416094 16.6021875,16.1792297 16.6021875,16.7175469 C16.6021875,17.2558594 17.0398078,17.6934844 17.578125,17.6934844 C18.1164422,17.6934844 18.5540625,17.2558641 18.5540625,16.7175469 C18.5540625,16.1792344 18.1164422,15.7416094 17.578125,15.7416094 Z" id="Fill-5" stroke="#FFFFFF" stroke-width="0.5" fill="#2B2727"></path>
            <path d="M38.124375,31.3678125 C35.6689219,31.3678125 32.265,20.5828125 32.265,18.673125 C32.265,16.0364062 33.3489844,14.313375 33.3966094,14.2401562 C33.6859172,13.7878875 34.2920156,13.6505625 34.7442656,13.9453547 C35.1965344,14.2346625 35.3302031,14.8407609 35.0390672,15.2930109 C35.0354063,15.3003328 34.2187547,16.6370109 34.2187547,18.6712922 C34.2187547,20.7220734 36.9397078,27.5536359 38.1481922,29.1891047 C39.5526141,27.5264953 43.0077234,20.2022297 43.0077234,17.6953547 C43.0077234,14.8132922 35.8574109,4.33035469 34.1895984,4.02097969 C32.5562859,4.02280781 31.4631609,6.07907344 31.2708797,7.12644844 C31.1756625,7.65744844 30.6647859,8.01266719 30.1356141,7.91197969 C29.6046141,7.81676719 29.2530516,7.30588594 29.3500828,6.77671406 C29.6302359,5.24230781 31.1884734,2.07093281 34.2189891,2.07093281 C37.4745984,2.07093281 44.9618016,14.6357766 44.9618016,17.6953078 C44.9618016,20.4657141 40.5105047,31.3678078 38.1246141,31.3678078 L38.124375,31.3678125 Z" id="Fill-6" fill="#2B2727"></path>
            <path d="M34.21875,31.3678125 C33.9678938,31.3678125 33.718875,31.2726 33.5265938,31.0821656 C33.1457344,30.7013062 33.1457344,30.0824156 33.5265938,29.7015562 L35.4803438,27.7478063 C35.8612031,27.3669469 36.4800938,27.3669469 36.8609531,27.7478063 C37.2418125,28.1286656 37.2418125,28.7475562 36.8609531,29.1284156 L34.9072031,31.0821656 C34.7186063,31.2707625 34.4695828,31.3678125 34.2187031,31.3678125 L34.21875,31.3678125 Z" id="Fill-8" fill="#2B2727"></path>
            <path d="M27.421875,19.6490625 C25.8068906,19.6490625 24.4921875,18.3343594 24.4921875,16.719375 C24.4921875,15.1043906 25.8068906,13.7896875 27.421875,13.7896875 C29.0368594,13.7896875 30.3515625,15.1043906 30.3515625,16.719375 C30.3515625,18.3343594 29.0368594,19.6490625 27.421875,19.6490625 Z M27.421875,15.7416094 C26.8835625,15.7416094 26.4459375,16.1792297 26.4459375,16.7175469 C26.4459375,17.2558594 26.8835578,17.6934844 27.421875,17.6934844 C27.9601922,17.6934844 28.3978125,17.2558641 28.3978125,16.7175469 C28.3978125,16.1792344 27.9601922,15.7416094 27.421875,15.7416094 Z" id="Fill-9" stroke="#FFFFFF" stroke-width="0.5" fill="#2B2727"></path>
            <path d="M30.313125,5.9765625 C30.0622688,5.9765625 29.81325,5.88135 29.6209687,5.69091563 C28.5333281,4.60144688 25.6604062,2.0709 22.5001875,2.0709 C19.3399688,2.0709 16.4669062,4.6014 15.3794062,5.69091563 C14.9985469,6.071775 14.3796563,6.071775 13.9987969,5.69091563 C13.6179375,5.31005625 13.6179375,4.69116563 13.9987969,4.31030625 C15.2585625,3.0487125 18.609375,0.117196875 22.5005156,0.117196875 C26.3916562,0.117196875 29.7422344,3.0487125 31.0041094,4.30847813 C31.3849687,4.6893375 31.3849687,5.30822813 31.0041094,5.6890875 C30.8136797,5.88135 30.5628234,5.9765625 30.3137812,5.9765625 L30.313125,5.9765625 Z" id="Fill-10" fill="#2B2727"></path>
            <path d="M22.5,41.1328125 C20.0610469,41.1328125 18.9037969,39.9316406 18.14025,39.1369688 L17.9040422,38.8934391 C17.5231828,38.5125797 17.5231828,37.8936891 17.9040422,37.5128297 C18.2849016,37.1319703 18.9037922,37.1319703 19.2846516,37.5128297 L19.5483234,37.7819953 C20.2386516,38.5016203 20.8904953,39.1791047 22.4999953,39.1791047 C24.1094953,39.1791047 24.7613391,38.5016203 25.4534953,37.7819953 L25.7171672,37.5128297 C26.0980266,37.1319703 26.7169172,37.1319703 27.0977766,37.5128297 C27.4786359,37.8936891 27.4786359,38.5125797 27.0977766,38.8934391 L26.8615687,39.1369688 C26.0961937,39.9316406 24.9389437,41.1328125 22.4999906,41.1328125 L22.5,41.1328125 Z" id="Fill-11" fill="#2B2727"></path>
            <path d="M29.3353125,39.1790625 C25.3125,39.1790625 21.5221875,34.7790469 21.5221875,31.3659375 C21.5221875,30.827625 21.9598078,30.39 22.498125,30.39 C23.0364375,30.39 23.4740625,30.8276203 23.4740625,31.3659375 C23.4740625,33.8159063 26.4275625,37.2253125 29.3334375,37.2253125 C33.0523125,37.2253125 33.2390625,33.9715313 33.2390625,33.3196875 C33.2390625,31.8713438 30.9282656,27.4659375 29.4707344,25.0321875 C29.1942469,24.5689312 29.346225,23.9701875 29.8058156,23.6918437 C30.2672391,23.4171844 30.8678156,23.5673344 31.1461594,24.026925 C31.8218156,25.1567062 35.1909562,30.911925 35.1909562,33.31755 C35.1946172,36.1428469 33.3617531,39.1788 29.3353312,39.1788 L29.3353125,39.1790625 Z" id="Fill-12" fill="#2B2727"></path>
            <path d="M22.5,32.34375 C22.2967547,32.34375 22.0953375,32.2814953 21.9250312,32.1569813 C19.0667344,30.0714187 17.6165625,28.4930437 17.6165625,27.4601062 C17.6165625,26.5793719 18.092625,24.5304187 22.5,24.5304187 C26.9055,24.5304187 27.3834375,26.5793719 27.3834375,27.4601062 C27.3834375,28.4909813 25.9350938,30.0711844 23.0749688,32.1551063 C22.9046813,32.2814484 22.7032641,32.3437031 22.5,32.3437031 L22.5,32.34375 Z M22.5,26.484375 C20.7476719,26.484375 19.5703125,26.8762219 19.5703125,27.4603125 C19.7076422,27.7825781 21.015,29.0075625 22.5,30.1464844 C23.985,29.0039062 25.2941719,27.7697812 25.4424844,27.3449531 C25.4296688,26.8762031 24.2522813,26.484375 22.5,26.484375 Z" id="Fill-7" fill="#2B2727"></path>
        </g>
    </g>
</svg>