<?xml version="1.0" encoding="UTF-8"?>
<svg width="11px" height="6px" viewBox="0 0 11 6" version="1.1" xmlns="http://www.w3.org/2000/svg" xmlns:xlink="http://www.w3.org/1999/xlink">
    <!-- Generator: Sketch 47 (45396) - http://www.bohemiancoding.com/sketch -->
    <title>Arrow 3</title>
    <desc>Created with Sketch.</desc>
    <defs></defs>
    <g id="New-Grid" stroke="none" stroke-width="1" fill="none" fill-rule="evenodd">
        <path d="M10.4923199,0.223382292 C10.3559401,0.0688882868 10.1740908,0.000799428586 9.99523719,0.000325181281 C9.82978234,-0.000113537943 9.66689116,0.0567042049 9.54493218,0.170983611 L5.33054886,4.39383918 L1.11989353,0.183725653 C1.00073856,0.065642696 0.832698756,0.000668764505 0.664245741,5.13455305e-06 C0.50341219,-0.000628478101 0.342543659,0.0573620206 0.209371066,0.183725653 C0.0700885594,0.315886808 -0.00141959887,0.490348363 2.13521282e-05,0.667358758 C0.0014011528,0.836857278 0.0696698869,1.0086929 0.209371066,1.14796318 L4.86230482,5.80570441 C4.98138279,5.91787037 5.13036638,6.00032518 5.33054886,6.00032518 C5.53073134,6.00032518 5.68253057,5.91139797 5.80382297,5.80570441 L10.4518536,1.14796318 C10.5809309,1.02389693 10.6595025,0.847655756 10.6610737,0.664748372 C10.6623719,0.513620502 10.6111023,0.357941641 10.4923199,0.223382292 Z" id="Arrow-3" fill="#000000" fill-rule="nonzero" transform="translate(5.330549, 3.000163) rotate(-360.000000) translate(-5.330549, -3.000163) "></path>
    </g>
</svg>