<?xml version="1.0" encoding="UTF-8"?>
<svg width="100px" height="80px" viewBox="0 0 100 80" version="1.1" xmlns="http://www.w3.org/2000/svg" xmlns:xlink="http://www.w3.org/1999/xlink">
    <!-- Generator: Sketch 43.2 (39069) - http://www.bohemiancoding.com/sketch -->
    <title>Group 43</title>
    <desc>Created with Sketch.</desc>
    <defs></defs>
    <g id="Page-1" stroke="none" stroke-width="1" fill="none" fill-rule="evenodd">
        <g id="Group-43" fill="#00A4A5">
            <path d="M62.4990368,29.164145 L62.4990368,17.492145 L63.1396568,18.136675 C63.9560668,18.949175 65.2763568,18.949175 66.0888568,18.136675 C66.9052668,17.324175 66.9052668,16.003875 66.0888568,15.191375 L51.5188568,0.609375 C50.7063568,-0.203125 49.3821568,-0.203125 48.5696568,0.609375 C48.5618468,0.613285 48.5618468,0.617185 48.5579368,0.621095 C48.5579368,0.624995 48.5501268,0.628905 48.5462168,0.632815 L33.9762168,15.191815 C33.1598068,16.004315 33.1637168,17.324615 33.9762168,18.137115 C34.7887168,18.949615 36.1051168,18.949615 36.9176168,18.137115 L37.5269968,17.527735 L37.5269968,29.164735 L0,29.164735 L0,79.191735 L100.000037,79.191735 L100.000037,29.164735 L62.4990368,29.164145 Z M95.8310368,75.023145 L87.4990368,75.023145 L87.4990368,74.999705 C87.4990368,54.288705 70.7100368,37.499705 49.9990368,37.499705 C29.2880368,37.499705 12.4990368,54.288705 12.4990368,74.999705 L12.4990368,75.023145 L4.16703777,75.023145 L4.16703777,74.999705 C4.16703777,68.812205 5.37403777,62.808705 7.76083777,57.159705 C10.0733368,51.702705 13.3780368,46.800705 17.5889368,42.589705 C21.4639368,38.710805 25.9327368,35.601405 30.8819368,33.331905 L69.1159368,33.331905 C74.0651368,35.601405 78.5261368,38.710805 82.4089368,42.589705 C86.6198368,46.800605 89.9206368,51.703005 92.2292368,57.159705 C94.6198368,62.808105 95.8308368,68.811705 95.8308368,74.999705 L95.8308368,75.023145 L95.8310368,75.023145 Z M41.6670368,74.995805 C41.6670368,70.398105 45.4014368,66.663805 49.9990368,66.663805 C54.5966368,66.663805 58.3310368,70.398205 58.3310368,74.995805 L58.3310368,75.019235 L41.6670368,75.019235 L41.6670368,74.995805 Z M49.9990368,62.495805 C43.0967368,62.495805 37.4990368,68.093505 37.4990368,74.995805 L37.4990368,75.019235 L29.0342368,75.019235 L29.0342368,74.995805 C29.0342368,69.394205 31.2139368,64.132805 35.1748368,60.171805 C39.1357368,56.214805 44.3975368,54.031205 49.9988368,54.031205 C55.5965368,54.031205 60.8618368,56.214805 64.8228368,60.171805 C68.7759368,64.132705 70.9634368,69.398405 70.9634368,74.995805 L70.9634368,75.019235 L62.4986368,75.023145 L62.4986368,74.999705 C62.4986368,68.093505 56.9009368,62.495705 49.9986368,62.495705 L49.9990368,62.495805 Z M49.9990368,49.866805 C36.1200368,49.866805 24.8700368,61.116805 24.8700368,74.995805 L24.8700368,75.019235 L16.6669368,75.019235 L16.6669368,74.995805 C16.6669368,70.491905 17.5458468,66.128605 19.2802368,62.018805 C20.9599368,58.050005 23.3622368,54.487605 26.4286368,51.424805 C29.4911368,48.362305 33.0575368,45.960005 37.0226368,44.280305 C41.1320368,42.542005 45.4953368,41.663105 49.9996368,41.663105 C54.4996368,41.663105 58.8668368,42.542015 62.9686368,44.280305 C66.9413368,45.960005 70.5077368,48.362305 73.5706368,51.424805 C76.6335368,54.487305 79.0315368,58.053705 80.7112368,62.018805 C82.4495368,66.128205 83.3284368,70.491505 83.3284368,74.995805 L83.3284368,75.019235 L75.1253368,75.019235 L75.1253368,74.995805 C75.1292468,61.116805 63.8793368,49.866805 50.0003368,49.866805 L49.9990368,49.866805 Z M41.6982368,13.362805 L50.0420368,5.026905 L58.3311368,13.319905 L58.3311368,29.163905 L52.1358368,29.163905 L52.1358368,22.913905 C52.1358368,21.761605 51.2022468,20.828005 50.0499368,20.828005 C48.9015368,20.828005 47.9679368,21.761595 47.9679368,22.913905 L47.9679368,29.163905 L41.6984368,29.163905 L41.6982368,13.362805 Z M4.16723677,33.327805 L22.3552368,33.327805 C14.3904368,38.620805 8.03523777,46.132805 4.16723677,54.983805 L4.16723677,33.327805 Z M77.6442368,33.327805 L95.8322368,33.327805 L95.8322368,54.983805 C91.9611368,46.136105 85.6092368,38.624805 77.6442368,33.327805 Z" id="Page-1"></path>
        </g>
    </g>
</svg>
