<?xml version="1.0" encoding="UTF-8"?>
<svg width="45px" height="36px" viewBox="0 0 45 36" version="1.1" xmlns="http://www.w3.org/2000/svg" xmlns:xlink="http://www.w3.org/1999/xlink">
    <!-- Generator: Sketch 47.1 (45422) - http://www.bohemiancoding.com/sketch -->
    <title>earthquake copy</title>
    <desc>Created with Sketch.</desc>
    <defs></defs>
    <g id="Form-Flows/Comparison" stroke="none" stroke-width="1" fill="none" fill-rule="evenodd">
        <g id="earthquake-copy" fill-rule="nonzero" fill="#2B2727">
            <path d="M28.1245666,13.1238653 L28.1245666,7.87146525 L28.4128456,8.16150375 C28.7802301,8.52712875 29.3743606,8.52712875 29.7399856,8.16150375 C30.1073701,7.79587875 30.1073701,7.20174375 29.7399856,6.83611875 L23.1834856,0.27421875 C22.8178606,-0.09140625 22.2219706,-0.09140625 21.8563456,0.27421875 C21.8528311,0.27597825 21.8528311,0.27773325 21.8510716,0.27949275 C21.8510716,0.28124775 21.8475571,0.28300725 21.8457976,0.28476675 L15.2892976,6.83631675 C14.9219131,7.20194175 14.9236726,7.79607675 15.2892976,8.16170175 C15.6549226,8.52732675 16.2473026,8.52732675 16.6129276,8.16170175 L16.8871486,7.88748075 L16.8871486,13.1241307 L0,13.1241307 L0,35.6362807 L45.0000167,35.6362807 L45.0000167,13.1241307 L28.1245666,13.1238653 Z M43.1239666,33.7604152 L39.3745666,33.7604152 L39.3745666,33.7498673 C39.3745666,24.4299172 31.8195166,16.8748672 22.4995666,16.8748672 C13.1796166,16.8748672 5.62456656,24.4299172 5.62456656,33.7498673 L5.62456656,33.7604152 L1.875167,33.7604152 L1.875167,33.7498673 C1.875167,30.9654923 2.418317,28.2639172 3.492377,25.7218672 C4.53300156,23.2662173 6.02011656,21.0603173 7.91502156,19.1653672 C9.65877156,17.4198623 11.6697316,16.0206322 13.8968716,14.9993572 L31.1021716,14.9993572 C33.3293116,16.0206322 35.3367616,17.4198623 37.0840216,19.1653672 C38.9789266,21.0602722 40.4642866,23.2663522 41.5031566,25.7218672 C42.5789266,28.2636472 43.1238766,30.9652673 43.1238766,33.7498673 L43.1238766,33.7604152 L43.1239666,33.7604152 Z M18.7501666,33.7481123 C18.7501666,31.6791473 20.4306466,29.9987123 22.4995666,29.9987123 C24.5684866,29.9987123 26.2489666,31.6791923 26.2489666,33.7481123 L26.2489666,33.7586558 L18.7501666,33.7586558 L18.7501666,33.7481123 Z M22.4995666,28.1231122 C19.3935316,28.1231122 16.8745666,30.6420772 16.8745666,33.7481123 L16.8745666,33.7586558 L13.0654066,33.7586558 L13.0654066,33.7481123 C13.0654066,31.2273923 14.0462716,28.8597623 15.8286766,27.0773122 C17.6110816,25.2966623 19.9788916,24.3140422 22.4994766,24.3140422 C25.0184416,24.3140422 27.3878266,25.2966623 29.1702766,27.0773122 C30.9491716,28.8597173 31.9335466,31.2292822 31.9335466,33.7481123 L31.9335466,33.7586558 L28.1243866,33.7604153 L28.1243866,33.7498673 C28.1243866,30.6420772 25.6054216,28.1230673 22.4993866,28.1230673 L22.4995666,28.1231122 Z M22.4995666,22.4400623 C16.2540166,22.4400623 11.1915166,27.5025623 11.1915166,33.7481123 L11.1915166,33.7586558 L7.50012156,33.7586558 L7.50012156,33.7481123 C7.50012156,31.7213573 7.89563106,29.7578722 8.67610656,27.9084622 C9.43197156,26.1225023 10.5130066,24.5194223 11.8928866,23.1411623 C13.2710116,21.7630373 14.8758916,20.6820023 16.6601866,19.9261373 C18.5094166,19.1439023 20.4729016,18.7483973 22.4998366,18.7483973 C24.5248366,18.7483973 26.4900766,19.1439067 28.3358866,19.9261373 C30.1236016,20.6820023 31.7284816,21.7630373 33.1067866,23.1411623 C34.4850916,24.5192873 35.5641916,26.1241673 36.3200566,27.9084622 C37.1022916,29.7576922 37.4977966,31.7211773 37.4977966,33.7481123 L37.4977966,33.7586558 L33.8064016,33.7586558 L33.8064016,33.7481123 C33.8081611,27.5025623 28.7457016,22.4400623 22.5001516,22.4400623 L22.4995666,22.4400623 Z M18.7642066,6.01326225 L22.5189166,2.26210725 L26.2490116,5.99395725 L26.2490116,13.1237573 L23.4611266,13.1237573 L23.4611266,10.3112573 C23.4611266,9.79272225 23.0410111,9.37260225 22.5224716,9.37260225 C22.0056916,9.37260225 21.5855716,9.79271775 21.5855716,10.3112573 L21.5855716,13.1237573 L18.7642966,13.1237573 L18.7642066,6.01326225 Z M1.87525655,14.9975122 L10.0598566,14.9975122 C6.47569656,17.3793622 3.615857,20.7597622 1.87525655,24.7427122 L1.87525655,14.9975122 Z M34.9399066,14.9975122 L43.1245066,14.9975122 L43.1245066,24.7427122 C41.3825116,20.7612473 38.5241566,17.3811622 34.9399066,14.9975122 Z" id="Page-1"></path>
        </g>
    </g>
</svg>