<?xml version="1.0" encoding="UTF-8"?>
<svg width="24px" height="18px" viewBox="0 0 24 18" version="1.1" xmlns="http://www.w3.org/2000/svg" xmlns:xlink="http://www.w3.org/1999/xlink">
    <!-- Generator: Sketch 47 (45396) - http://www.bohemiancoding.com/sketch -->
    <title>Mail Icon</title>
    <desc>Created with Sketch.</desc>
    <defs></defs>
    <g id="New-Grid" stroke="none" stroke-width="1" fill="none" fill-rule="evenodd">
        <g id="Mail-Icon" fill-rule="nonzero" fill="#000000">
            <path d="M22.6944785,0.00243902439 L1.30552147,0.00243902439 C0.58404908,0.00243902439 0,0.582926829 0,1.3 L0,16.695122 C0,17.4121951 0.58404908,17.9926829 1.30552147,17.9926829 L22.6895706,17.9926829 C23.4110429,17.9926829 23.995092,17.4121951 23.995092,16.695122 L23.995092,1.3 C24,0.587804878 23.4110429,0.00243902439 22.6944785,0.00243902439 Z M22.2282209,16.2365854 L1.76687117,16.2365854 L1.76687117,1.75853659 L21.1337423,1.75853659 L12.1226994,9.41707317 L5.57055215,3.84634146 C5.19754601,3.52926829 4.64294479,3.57317073 4.32392638,3.94390244 C4.00490798,4.31463415 4.04907975,4.86585366 4.42208589,5.18292683 L11.5484663,11.2414634 C11.5582822,11.2512195 11.5680982,11.2560976 11.5730061,11.2609756 C11.5828221,11.2707317 11.592638,11.2756098 11.602454,11.2853659 C11.6171779,11.295122 11.6368098,11.3097561 11.6564417,11.3195122 C11.6613497,11.3243902 11.6711656,11.3292683 11.6760736,11.3341463 C11.7006135,11.3487805 11.7251534,11.3634146 11.7546012,11.3731707 C11.7595092,11.3780488 11.7693252,11.3780488 11.7742331,11.3829268 C11.793865,11.3926829 11.8134969,11.397561 11.8380368,11.4073171 C11.8478528,11.4121951 11.8527607,11.4121951 11.8625767,11.4170732 C11.8822086,11.4219512 11.9018405,11.4268293 11.9214724,11.4317073 C11.9312883,11.4317073 11.9411043,11.4365854 11.9460123,11.4365854 C11.9656442,11.4414634 11.990184,11.4463415 12.009816,11.4463415 C12.0196319,11.4463415 12.0245399,11.4463415 12.0343558,11.4512195 C12.0638037,11.4560976 12.0932515,11.4560976 12.1226994,11.4560976 C12.1521472,11.4560976 12.1815951,11.4560976 12.2110429,11.4512195 C12.2208589,11.4512195 12.2257669,11.4512195 12.2355828,11.4463415 C12.2552147,11.4414634 12.2797546,11.4414634 12.2993865,11.4365854 C12.3092025,11.4365854 12.3190184,11.4317073 12.3239264,11.4317073 C12.3435583,11.4268293 12.3631902,11.4219512 12.3828221,11.4170732 C12.392638,11.4121951 12.397546,11.4121951 12.407362,11.4073171 C12.4269939,11.402439 12.4515337,11.3926829 12.4711656,11.3829268 C12.4760736,11.3780488 12.4858896,11.3780488 12.4907975,11.3731707 C12.5153374,11.3634146 12.5447853,11.3487805 12.5693252,11.3341463 C12.5742331,11.3292683 12.5840491,11.3243902 12.5889571,11.3195122 C12.608589,11.3097561 12.6233129,11.295122 12.6429448,11.2853659 C12.6527607,11.2804878 12.6625767,11.2707317 12.6723926,11.2609756 C12.6822086,11.2560976 12.6920245,11.2463415 12.6969325,11.2414634 L22.2282209,3.13902439 L22.2282209,16.2365854 L22.2282209,16.2365854 Z" id="Shape"></path>
        </g>
    </g>
</svg>