<?xml version="1.0" encoding="UTF-8"?>
<svg width="16px" height="16px" viewBox="0 0 16 16" version="1.1" xmlns="http://www.w3.org/2000/svg" xmlns:xlink="http://www.w3.org/1999/xlink">
    <!-- Generator: Sketch 46.2 (44496) - http://www.bohemiancoding.com/sketch -->
    <title>Shape</title>
    <desc>Created with Sketch.</desc>
    <defs></defs>
    <g id="Quotes" stroke="none" stroke-width="1" fill="none" fill-rule="evenodd">
        <g id="Comparison---Desktop" transform="translate(-101.000000, -632.000000)" fill-rule="nonzero" fill="#78C07F">
            <g id="Result-1" transform="translate(71.000000, 462.000000)">
                <g id="Sub-Panel" transform="translate(0.000000, 153.000000)">
                    <path d="M37.9999978,17 C33.5817288,17 30,20.5817504 30,25.0000022 C30,29.4182712 33.5817288,33 37.9999978,33 C42.4182669,33 45.9999957,29.4182712 45.9999957,25.0000022 C45.9999957,20.5817504 42.4182669,17 37.9999978,17 L37.9999978,17 Z M34.9729716,20.8918908 C35.8088633,20.8918908 36.4864847,21.5695123 36.4864847,22.4054039 C36.4864847,23.2412956 35.8088633,23.918917 34.9729716,23.918917 C34.1370583,23.918917 33.4594585,23.2412956 33.4594585,22.4054039 C33.4594585,21.5695123 34.1370583,20.8918908 34.9729716,20.8918908 Z M41.027024,20.8918908 C41.8629157,20.8918908 42.5405372,21.5695123 42.5405372,22.4054039 C42.5405372,23.2412956 41.8629157,23.918917 41.027024,23.918917 C40.1911108,23.918917 39.5135109,23.2412956 39.5135109,22.4054039 C39.5135109,21.5695123 40.1911108,20.8918908 41.027024,20.8918908 Z M32.8108101,26.9459476 L43.1891856,26.9459476 C42.4323858,29.0859254 40.3950026,30.6216223 37.9999978,30.6216223 C35.6049931,30.6216223 33.5676315,29.0859254 32.8108101,26.9459476 L32.8108101,26.9459476 Z" id="Shape"></path>
                </g>
            </g>
        </g>
    </g>
</svg>