<svg xmlns:dc="http://purl.org/dc/elements/1.1/" xmlns:cc="http://creativecommons.org/ns#" xmlns:rdf="http://www.w3.org/1999/02/22-rdf-syntax-ns#" xmlns:svg="http://www.w3.org/2000/svg" xmlns="http://www.w3.org/2000/svg" xmlns:sodipodi="http://sodipodi.sourceforge.net/DTD/sodipodi-0.dtd" xmlns:inkscape="http://www.inkscape.org/namespaces/inkscape" version="1.1" x="0px" y="0px" viewBox="0 0 100 100"><g transform="translate(0,-952.36218)"><path style="color:#000000;enable-background:accumulate;" d="m 50,965.36218 c -20.4345,0 -37,16.5656 -37,37.00002 0,20.4345 16.5655,37 37,37 20.4345,0 37,-16.5655 37,-37 0,-20.43442 -16.5655,-37.00002 -37,-37.00002 z m -14,18 c 3.866,0 7,3.134 7,7 0,3.866 -3.134,7 -7,7 -3.8661,0 -7,-3.134 -7,-7 0,-3.866 3.1339,-7 7,-7 z m 28,0 c 3.866,0 7,3.134 7,7 0,3.866 -3.134,7 -7,7 -3.8661,0 -7,-3.134 -7,-7 0,-3.866 3.1339,-7 7,-7 z m -38,28.00002 48,0 c -3.5002,9.8974 -12.9231,17 -24,17 -11.0769,0 -20.4997,-7.1026 -24,-17 z" fill="#000000" stroke="none" marker="none" visibility="visible" display="inline" overflow="visible"></path></g></svg>
