<?xml version="1.0" encoding="UTF-8"?>
<svg width="26px" height="26px" viewBox="0 0 26 26" version="1.1" xmlns="http://www.w3.org/2000/svg" xmlns:xlink="http://www.w3.org/1999/xlink">
    <!-- Generator: Sketch Beta 47 (45392) - http://www.bohemiancoding.com/sketch -->
    <title>1x/Facebook</title>
    <desc>Created with Sketch Beta.</desc>
    <defs></defs>
    <g id="Social-Media" stroke="none" stroke-width="1" fill="none" fill-rule="evenodd">
        <g id="1x/Facebook" fill-rule="nonzero">
            <g id="Facebook-Logo">
                <path d="M12.969637,0 C20.1329932,0 25.939363,5.80717123 25.939363,12.969726 C25.939363,20.1330822 20.1329932,25.939363 12.969637,25.939363 C5.80628082,25.939363 0,20.1329932 0,12.969726 C0,5.80717123 5.80636986,0 12.969637,0 Z" id="Shape" fill="#2B2727"></path>
                <path d="M14.5487808,8.92877397 L16.2202603,8.92877397 L16.2202603,6.45966438 L14.2553904,6.45966438 L14.2553904,6.46856849 C11.8746096,6.55289041 11.3866644,7.89117808 11.3436575,9.29678082 L11.3387603,9.29678082 L11.3387603,10.5297329 L9.71758904,10.5297329 L9.71758904,12.9477329 L11.3387603,12.9477329 L11.3387603,19.4293014 L13.7819589,19.4293014 L13.7819589,12.9477329 L15.7833356,12.9477329 L16.1699521,10.5297329 L13.7827603,10.5297329 L13.7827603,9.78481507 C13.7827603,9.30978082 14.0988562,8.92877397 14.5487808,8.92877397 Z" id="Shape" fill="#FFFFFF"></path>
            </g>
        </g>
    </g>
</svg>