<?xml version="1.0" encoding="UTF-8"?>
<svg width="85px" height="140px" viewBox="0 0 85 140" version="1.1" xmlns="http://www.w3.org/2000/svg" xmlns:xlink="http://www.w3.org/1999/xlink">
    <!-- Generator: Sketch 43.2 (39069) - http://www.bohemiancoding.com/sketch -->
    <title>Group 38</title>
    <desc>Created with Sketch.</desc>
    <defs></defs>
    <g id="Page-1" stroke="none" stroke-width="1" fill="none" fill-rule="evenodd">
        <g id="Group-38" transform="translate(-7.000000, 0.470006)" fill="#00A4A5">
            <g id="Page-1" transform="translate(46.500000, 88.000000) rotate(-20.000000) translate(-46.500000, -88.000000) translate(13.000000, 46.000000)">
                <path d="M58.432375,38.59044 C54.6570925,37.323888 51.9580813,34.61682 50.4009175,30.544836 C49.1872125,27.368628 49.1577325,24.517164 49.1577325,24.500784 C49.1577325,17.95794 46.6157525,11.805864 42.00297,7.175784 C37.3901875,2.549232 31.25617,-0.000336 24.7295325,-0.000336 C18.2061613,-0.000336 12.072395,2.545872 7.459445,7.175784 C2.8466625,11.802336 0.3046825,17.954664 0.3046825,24.500784 L0.3046825,83.9963078 L66.6045325,83.9963078 L66.6012579,57.749664 C66.6012579,56.305872 66.6307044,54.950784 66.6536016,53.756388 C66.8204484,46.071732 66.918595,41.435268 58.4323666,38.590188 L58.432375,38.59044 Z M24.7297,3.50112 C36.2746375,3.50112 45.6672,12.92172 45.6672,24.50448 C45.6672,24.6422904 45.6933719,27.926808 47.0968125,31.677324 C49.0073175,36.766548 52.5438287,40.304124 57.323525,41.908524 C63.3725362,43.936368 63.3234587,46.193868 63.1664275,53.678604 C63.1402556,54.892656 63.1108091,56.264208 63.1108091,57.747396 L63.1108091,69.996276 L3.79235912,69.996276 L3.79235912,24.501876 C3.79235912,12.922476 13.1849216,3.501876 24.7298591,3.501876 L24.7297,3.50112 Z M10.77025,73.5 L10.77025,77.0011234 C10.77025,77.9657794 11.5521316,78.7500034 12.5171912,78.7500034 C13.4822425,78.7500034 14.2608662,77.9657878 14.2608662,77.0011234 L14.2608662,73.5 L17.7515662,73.5 L17.7515662,77.0011234 C17.7515662,77.9657794 18.5334479,78.7500034 19.4952412,78.7500034 C20.4570262,78.7500034 21.2389162,77.9657878 21.2389162,77.0011234 L21.2389162,73.5 L24.7296162,73.5 L24.7296162,77.0011234 C24.7296162,77.9657794 25.5114979,78.7500034 26.4732912,78.7500034 C27.4383425,78.7500034 28.2202325,77.9657878 28.2202325,77.0011234 L28.2202325,73.5 L31.7076662,73.5 L31.7076662,77.0011234 C31.7076662,77.9657794 32.4895479,78.7500034 33.4546075,78.7500034 C34.4196587,78.7500034 35.1982825,77.9657878 35.1982825,77.0011234 L35.1982825,73.5 L38.6889825,73.5 L38.6889825,77.0011234 C38.6889825,77.9657794 39.4675979,78.7500034 40.4326575,78.7500034 C41.3944425,78.7500034 42.1763325,77.9657878 42.1763325,77.0011234 L42.1763325,73.5 L45.6670325,73.5 L45.6670325,77.0011234 C45.6670325,77.9657794 46.4489141,78.7500034 47.4107075,78.7500034 C48.3757588,78.7500034 49.1576487,77.9657878 49.1576487,77.0011234 L49.1576487,73.5 L52.6450825,73.5 L52.6450825,77.0011234 C52.6450825,77.9657794 53.4269641,78.7500034 54.3920238,78.7500034 C55.3538087,78.7500034 56.1356988,77.9657878 56.1356988,77.0011234 L56.1356988,73.5 L57.8793737,73.5 L57.8793737,80.4988834 L9.02632375,80.4956023 L9.02632375,73.496724 L10.77025,73.5 Z M3.7922,73.5 L5.535875,73.5 L5.535875,80.4988834 L3.7922,80.4956023 L3.7922,73.5 Z M61.366975,80.4956074 L61.366975,73.496724 L63.11065,73.496724 L63.11065,80.4956074 L61.366975,80.4956074 Z" id="Fill-1"></path>
                <path d="M7.2820625,68.25 C8.2438475,68.25 9.0257375,67.4657844 9.0257375,66.50112 L9.0257375,26.32224 C9.0257375,25.354308 8.24385588,24.57336 7.2820625,24.57336 C6.31701125,24.57336 5.53512125,25.3575756 5.53512125,26.32224 L5.53512125,66.49776 C5.53512125,67.465692 6.31700288,68.249916 7.2820625,68.249916 L7.2820625,68.25 Z" id="Fill-2"></path>
            </g>
            <path d="M63.5014036,68 C64.3280069,68 65,67.2099785 65,66.2381722 L65,25.7618278 C65,24.7867297 64.3280141,24 63.5014036,24 C62.6719931,24 62,24.7900215 62,25.7618278 L62,66.2347873 C62,67.2098854 62.6719859,67.9999154 63.5014036,67.9999154 L63.5014036,68 Z" id="Fill-2"></path>
            <path d="M57,51.2381722 L57,10.7618278 C57,9.78672975 56.3280141,9 55.5014036,9 C54.6719931,9 54,9.79002154 54,10.7618278 L54,51.2347873 C54,52.2098854 54.6719859,52.9999154 55.5014036,52.9999154 C56.3280069,53 57,52.2099785 57,51.2381722 Z" id="Fill-2"></path>
            <path d="M46.5014036,44 C47.3280069,44 48,43.2099785 48,42.2381722 L48,1.76182783 C48,0.786729748 47.3280141,0 46.5014036,0 C45.6719931,0 45,0.79002154 45,1.76182783 L45,42.2347873 C45,43.2098854 45.6719859,43.9999154 46.5014036,43.9999154 L46.5014036,44 Z" id="Fill-2"></path>
        </g>
    </g>
</svg>
