<?xml version="1.0" encoding="UTF-8"?>
<svg width="42px" height="68px" viewBox="0 0 42 68" version="1.1" xmlns="http://www.w3.org/2000/svg" xmlns:xlink="http://www.w3.org/1999/xlink">
    <!-- Generator: Sketch 47.1 (45422) - http://www.bohemiancoding.com/sketch -->
    <title>falling-objects copy</title>
    <desc>Created with Sketch.</desc>
    <defs></defs>
    <g id="Form-Flows/Comparison" stroke="none" stroke-width="1" fill="none" fill-rule="evenodd">
        <g id="falling-objects-copy" transform="translate(-3.000000, 0.000000)" fill-rule="nonzero" fill="#2B2727">
            <g id="Page-1" transform="translate(22.833495, 42.875491) rotate(-20.000000) translate(-22.833495, -42.875491) translate(6.333495, 22.375491)">
                <path d="M28.2737298,18.6727935 C26.4469802,18.0599458 25.1410071,16.7500742 24.3875407,14.7797594 C23.8002641,13.2428845 23.7859996,11.8631439 23.7859996,11.8552181 C23.7859996,8.68932581 22.5560093,5.71251484 20.3240177,3.47215355 C18.0920262,1.23349935 15.1239532,-0.000162580645 11.9659028,-0.000162580645 C8.80943289,-0.000162580645 5.84148145,1.23187355 3.60940887,3.47215355 C1.37741734,5.71080774 0.147427016,8.68774065 0.147427016,11.8552181 L0.147427016,40.6433747 L32.2279996,40.6433747 L32.2264151,27.9433858 C32.2264151,27.2447768 32.2406634,26.589089 32.2517427,26.0111555 C32.332475,22.2927735 32.3799653,20.0493232 28.2737258,18.6726716 L28.2737298,18.6727935 Z M11.9659839,1.69409032 C17.552244,1.69409032 22.0970323,6.25244516 22.0970323,11.8570065 C22.0970323,11.9236889 22.1096961,13.5129716 22.7887802,15.3277374 C23.7132181,17.7902652 25.4244332,19.5019955 27.7371895,20.2783181 C30.6641304,21.2595329 30.6403832,22.3518716 30.5644004,25.9735181 C30.5517366,26.5609626 30.5374883,27.2246168 30.5374883,27.9422884 L30.5374883,33.8691658 L1.83501248,33.8691658 L1.83501248,11.8557465 C1.83501248,6.25281097 6.37980077,1.69445613 11.9660609,1.69445613 L11.9659839,1.69409032 Z M5.21141129,35.5645161 L5.21141129,37.2586081 C5.21141129,37.7253771 5.5897411,38.1048404 6.05670542,38.1048404 C6.52366573,38.1048404 6.90041913,37.7253812 6.90041913,37.2586081 L6.90041913,35.5645161 L8.58946752,35.5645161 L8.58946752,37.2586081 C8.58946752,37.7253771 8.96779737,38.1048404 9.43318123,38.1048404 C9.89856106,38.1048404 10.2768949,37.7253812 10.2768949,37.2586081 L10.2768949,35.5645161 L11.9659433,35.5645161 L11.9659433,37.2586081 C11.9659433,37.7253771 12.3442732,38.1048404 12.809657,38.1048404 C13.2766173,38.1048404 13.6549512,37.7253812 13.6549512,37.2586081 L13.6549512,35.5645161 L15.3424191,35.5645161 L15.3424191,37.2586081 C15.3424191,37.7253771 15.720749,38.1048404 16.1877133,38.1048404 C16.6546736,38.1048404 17.031427,37.7253812 17.031427,37.2586081 L17.031427,35.5645161 L18.7204754,35.5645161 L18.7204754,37.2586081 C18.7204754,37.7253771 19.0972248,38.1048404 19.5641891,38.1048404 C20.029569,38.1048404 20.4079028,37.7253812 20.4079028,37.2586081 L20.4079028,35.5645161 L22.0969512,35.5645161 L22.0969512,37.2586081 C22.0969512,37.7253771 22.475281,38.1048404 22.9406649,38.1048404 C23.4076252,38.1048404 23.785959,37.7253812 23.785959,37.2586081 L23.785959,35.5645161 L25.473427,35.5645161 L25.473427,37.2586081 C25.473427,37.7253771 25.8517568,38.1048404 26.3187212,38.1048404 C26.784101,38.1048404 27.1624349,37.7253812 27.1624349,37.2586081 L27.1624349,35.5645161 L28.0061486,35.5645161 L28.0061486,38.9510726 L4.36757601,38.949485 L4.36757601,35.562931 L5.21141129,35.5645161 Z M1.83493548,35.5645161 L2.67864919,35.5645161 L2.67864919,38.9510726 L1.83493548,38.949485 L1.83493548,35.5645161 Z M29.6936976,38.9494875 L29.6936976,35.562931 L30.5374113,35.562931 L30.5374113,38.9494875 L29.6936976,38.9494875 Z" id="Fill-1"></path>
                <path d="M3.52357863,33.0241935 C3.98895847,33.0241935 4.36729234,32.6447344 4.36729234,32.1779613 L4.36729234,12.7365677 C4.36729234,12.2682135 3.98896252,11.8903355 3.52357863,11.8903355 C3.05661835,11.8903355 2.67828448,12.2697946 2.67828448,12.7365677 L2.67828448,32.1763355 C2.67828448,32.6446897 3.0566143,33.0241529 3.52357863,33.0241529 L3.52357863,33.0241935 Z" id="Fill-2"></path>
            </g>
            <path d="M30.7264856,33.1306481 C31.126455,33.1306481 31.4516129,32.7483796 31.4516129,32.2781507 L31.4516129,12.6928228 C31.4516129,12.2210011 31.1264584,11.8403255 30.7264856,11.8403255 C30.325158,11.8403255 30,12.222594 30,12.6928228 L30,32.2765129 C30,32.7483345 30.3251545,33.1306071 30.7264856,33.1306071 L30.7264856,33.1306481 Z" id="Fill-2"></path>
            <path d="M27.5806452,25.0200862 L27.5806452,5.43475829 C27.5806452,4.96293665 27.2554907,4.58226097 26.8555179,4.58226097 C26.4541902,4.58226097 26.1290323,4.96452945 26.1290323,5.43475829 L26.1290323,25.0184484 C26.1290323,25.49027 26.4541867,25.8725426 26.8555179,25.8725426 C27.2554872,25.8725835 27.5806452,25.4903151 27.5806452,25.0200862 Z" id="Fill-2"></path>
            <path d="M22.5006792,21.5177448 C22.9006485,21.5177448 23.2258065,21.1354764 23.2258065,20.6652475 L23.2258065,1.0799196 C23.2258065,0.608097943 22.900652,0.227422258 22.5006792,0.227422258 C22.0993515,0.227422258 21.7741935,0.609690745 21.7741935,1.0799196 L21.7741935,20.6636097 C21.7741935,21.1354313 22.099348,21.5177039 22.5006792,21.5177039 L22.5006792,21.5177448 Z" id="Fill-2"></path>
        </g>
    </g>
</svg>