<?xml version="1.0" encoding="UTF-8"?>
<svg width="45px" height="33px" viewBox="0 0 45 33" version="1.1" xmlns="http://www.w3.org/2000/svg" xmlns:xlink="http://www.w3.org/1999/xlink">
    <!-- Generator: Sketch 47.1 (45422) - http://www.bohemiancoding.com/sketch -->
    <title>Group 5 Copy</title>
    <desc>Created with Sketch.</desc>
    <defs></defs>
    <g id="Form-Flows/Comparison" stroke="none" stroke-width="1" fill="none" fill-rule="evenodd">
        <g id="Group-5-Copy" fill-rule="nonzero" fill="#2B2727">
            <path d="M9.3798,15.0800136 C11.67903,15.0800136 13.54581,13.2147065 13.54581,10.9238519 C13.54581,8.6347011 11.67903,6.76943887 9.3798,6.76943887 C7.08408,6.76943887 5.21379,8.63474591 5.21379,10.9238519 C5.21379,13.2147514 7.08408,15.0800136 9.3798,15.0800136 Z M9.3798,8.36657609 C10.794825,8.36657609 11.946195,9.51377444 11.946195,10.9236726 C11.946195,12.3335707 10.794825,13.4825176 9.3798,13.4825176 C7.964775,13.4825176 6.81516,12.3353193 6.81516,10.9236726 C6.81516,9.51377444 7.964775,8.36657609 9.3798,8.36657609 Z" id="Fill-1"></path>
            <path d="M42.8958,0.0632201087 L2.10419775,0.0632201087 C0.94405275,0.0632201087 8.776188e-05,1.00551359 8.776188e-05,2.16145516 L8.776188e-05,30.1249198 C8.776188e-05,31.2791128 0.94405275,32.2196576 2.10419775,32.2196576 L42.8958,32.2196576 C44.055945,32.2196576 44.99991,31.2791128 44.99991,30.1249198 L44.99991,2.16145516 C44.99991,1.00551359 44.055945,0.0632201087 42.8958,0.0632201087 Z M43.39854,30.6258832 L1.6011873,30.6258832 L1.6011873,1.6603125 L43.39854,1.6603125 L43.39854,30.6258832 Z" id="Fill-2"></path>
            <path d="M9.8541,26.2260326 C9.8541,26.6586375 10.2056625,27.0176739 10.63809,27.0229198 L38.97594,27.0229198 C39.418911,27.0229198 39.775725,26.6638745 39.775725,26.2260326 C39.775725,26.0421294 39.714201,25.8722421 39.5981865,25.7251141 L39.3942825,25.4746594 L39.397797,25.4711531 L28.511847,11.8447537 C28.2165345,11.4366656 27.543312,11.427909 27.233937,11.8237386 L21.550887,18.9294995 L19.147977,15.9240334 C18.9880155,15.7138602 18.7559865,15.6000147 18.502857,15.6000147 C18.244458,15.6000147 18.010647,15.7208637 17.857737,15.9275352 L10.070487,25.6831602 C9.9052515,25.9020901 9.8542755,26.0597189 9.8542755,26.2260909 L9.8541,26.2260326 Z M18.50445,17.6805571 L21.55248,21.4864524 L27.86463,13.5911128 L37.32183,25.4271726 L12.31713,25.4271726 L18.50445,17.6805571 Z" id="Fill-3"></path>
        </g>
    </g>
</svg>