<?xml version="1.0" encoding="UTF-8"?>
<svg width="92px" height="86px" viewBox="0 0 92 86" version="1.1" xmlns="http://www.w3.org/2000/svg" xmlns:xlink="http://www.w3.org/1999/xlink">
    <!-- Generator: Sketch 43.2 (39069) - http://www.bohemiancoding.com/sketch -->
    <title>Page 1</title>
    <desc>Created with Sketch.</desc>
    <defs></defs>
    <g id="Page-1" stroke="none" stroke-width="1" fill="none" fill-rule="evenodd">
        <g fill="#4D4D4D">
            <path d="M6.82235964,0.4609 C3.50966754,0.4609 0.8242,3.14763221 0.8242,6.46035818 L0.8242,79.5394448 C0.8242,82.8528541 3.50383164,85.538903 6.82261855,85.538903 L85.1807814,85.538903 C88.4936165,85.538903 91.1790768,82.8521708 91.178925,79.5394448 L91.175575,6.46035818 C91.1754231,3.14694892 88.495784,0.4609 85.1771404,0.4609 L6.82235964,0.4609 Z M83.4822289,5.15620371 C85.1401718,5.15620166 86.4842,6.49288846 86.4842,8.14660058 L86.4842,62.6562 L84.8748,62.66011 C84.81621,62.66401 79.406,62.95308 74.2848,59.19921 C72.4684,57.86331 71.1637,56.32031 69.8981,54.82811 C67.5309,52.02731 65.0856,49.13671 59.984,48.64841 L58.4215,48.57809 C53.3199,49.13669 50.8785,52.02731 48.5113,54.82811 C47.2496,56.32031 45.9449,57.86721 44.1246,59.19921 C39.0621,62.91011 33.5736,62.66401 33.3906,62.65621 L5.515603,62.6523 L5.515603,8.14649256 C5.515603,6.49505481 6.85341002,5.15629835 8.51757411,5.15629629 L83.4822289,5.15620371 Z M8.51702744,80.8444922 C6.85916503,80.8443308 5.515202,79.5008114 5.515202,77.8490002 L5.515202,67.3482 L33.2382,67.3443 C33.52336,67.36383 40.4179,67.73492 46.8942,62.9849 C49.1598,61.3247 50.7184,59.481 52.0895,57.8599 C54.2692,55.2818 55.7575,53.5201 59.1989,53.2935 C62.6403,53.52006 64.1286,55.2818 66.3083,57.8599 C67.6794,59.481 69.238,61.3247 71.5036,62.9849 C77.027,67.0357 82.8476,67.3638 84.5346,67.3638 C84.82757,67.3638 84.99554,67.35599 85.01507,67.35208 L86.47987,67.35208 L86.47987,77.8559924 C86.47987,79.5106859 85.1421279,80.8519498 83.4780446,80.8517878 L8.51702744,80.8444922 Z" id="Fill-1"></path>
            <path d="M28.398,38.598 C34.0582,38.598 38.668,33.9925 38.668,28.328 C38.668,22.6678 34.0625,18.062 28.398,18.062 C22.7378,18.062 18.132,22.6675 18.132,28.328 C18.132,33.9921 22.7375,38.598 28.398,38.598 Z M28.398,22.758 C31.4722,22.758 33.9722,25.258 33.9722,28.3322 C33.9722,31.4064 31.4722,33.9064 28.398,33.9064 C25.3238,33.9064 22.8238,31.4064 22.8238,28.3322 C22.8238,25.258 25.3238,22.758 28.398,22.758 Z" id="Fill-2"></path>
        </g>
    </g>
</svg>