<?xml version="1.0" encoding="UTF-8"?>
<svg width="87px" height="109px" viewBox="0 0 87 109" version="1.1" xmlns="http://www.w3.org/2000/svg" xmlns:xlink="http://www.w3.org/1999/xlink">
    <!-- Generator: Sketch 43.2 (39069) - http://www.bohemiancoding.com/sketch -->
    <title>Group 46</title>
    <desc>Created with Sketch.</desc>
    <defs></defs>
    <g id="Page-1" stroke="none" stroke-width="1" fill="none" fill-rule="evenodd">
        <g id="Group-46" transform="translate(1.000000, 1.000000)" stroke="#00A4A5" stroke-width="0.5" fill="#4D4D4D">
            <path d="M21.3917353,42.4398571 C20.4220949,42.4398571 19.6265193,43.2304809 19.6265193,44.2050732 L19.6265193,96.6752833 C19.6265193,97.6449237 20.4171431,98.4404993 21.3917353,98.4404993 C22.3613757,98.4404993 23.1569514,97.6498755 23.1569514,96.6752833 L23.1569514,44.2050732 C23.1569514,43.2304682 22.3613503,42.4398571 21.3917353,42.4398571 Z M83.2203783,7.96097545 L45.9416936,11.7300879 C45.0466488,11.8245671 44.355456,12.5853654 44.355456,13.4853748 L44.355456,15.0019814 L38.7812838,15.0019814 L38.7812838,11.879279 C38.7812838,10.9096386 37.99066,10.1140629 37.0160678,10.1140629 L28.9356885,10.1140629 C29.0450868,9.58200312 29.2589062,9.09470064 29.2589062,8.52782531 C29.2589062,3.82384978 25.4350564,0 20.7360455,0 C16.0320699,0 12.2082201,3.82384978 12.2082201,8.52782531 C12.2082201,12.0681865 14.3861304,15.1064916 17.4641519,16.3893824 C11.919767,18.2839314 4.84388186,22.7093829 0.159509941,33.0817298 C-0.248232435,33.9668328 0.154532661,35.0110306 1.03964842,35.4088312 C1.27335147,35.5182295 1.52198635,35.5679514 1.76066668,35.5679514 C2.42698578,35.5679514 3.07843668,35.1800927 3.36676251,34.5286927 C9.95535791,19.9494618 21.7152331,18.5912116 24.8530838,18.5173799 L24.8530838,25.4839176 C16.6434989,28.4276416 10.7015681,36.1549013 10.7015681,45.3586693 L10.7015681,99.7574165 C10.7015681,104.24257 21.6957568,107.260892 31.9689399,107.260892 C42.2421231,107.260892 53.2414036,104.24257 53.2414036,99.7574165 L53.2513455,45.3637612 C53.2513455,36.0353702 47.1599689,28.2080557 38.7866812,25.3642592 L38.7866812,23.0768742 L44.3608533,23.0768742 L44.3608533,24.3199978 C44.3608533,25.2150426 45.0371143,25.9758664 45.9222682,26.0703202 L83.2009529,30.3217578 C83.8324565,30.3366769 84.2451761,30.1775567 84.5733711,29.8891545 C84.951288,29.5510304 85.1650947,29.0736697 85.1650947,28.5713845 L85.1601301,9.71627513 C85.1601301,9.21903081 84.9463107,8.74663471 84.5833257,8.40856153 C84.2049124,8.07037378 83.7275517,7.91125356 83.2203783,7.96097545 Z M20.7412519,13.5251676 C17.9864354,13.5251676 15.7388941,11.2875555 15.7388941,8.52777439 C15.7388941,5.77295789 17.9864354,3.52541663 20.7412519,3.52541663 C23.4960684,3.52541663 25.7336805,5.77295789 25.7336805,8.52777439 C25.7336805,11.2875555 23.4960684,13.5251676 20.7412519,13.5251676 Z M49.7214989,45.3644867 L49.761279,99.5353737 C49.0999372,100.788452 42.2528414,103.737166 31.9741845,103.737166 C21.6955276,103.737166 14.854122,100.788477 14.2316438,99.764125 L14.236621,45.3653778 C14.236621,35.5894135 22.202561,27.6330207 31.9829807,27.6330207 C41.7639096,27.6280434 49.7204296,35.5890316 49.7204296,45.3653778 L49.7214989,45.3644867 Z M44.3562198,19.5475496 L37.0217961,19.5475496 C36.0521557,19.5475496 35.25658,20.3381734 35.25658,21.3127657 L35.25658,24.2515251 L28.3895879,24.2515251 L28.3895879,13.6402433 L35.25658,13.6402433 L35.25658,16.7629458 C35.25658,17.7325862 36.0472038,18.5281619 37.0217961,18.5281619 L44.3562198,18.5281619 L44.3562198,19.5475496 Z M81.6349044,26.5885556 L47.8861427,22.7448476 L47.8861427,15.0772899 L81.6349044,11.6661343 L81.6349044,26.5885556 Z" id="Page-1"></path>
        </g>
    </g>
</svg>
