<?xml version="1.0" encoding="UTF-8"?>
<svg width="47px" height="30px" viewBox="0 0 47 30" version="1.1" xmlns="http://www.w3.org/2000/svg" xmlns:xlink="http://www.w3.org/1999/xlink">
    <!-- Generator: Sketch 43.2 (39069) - http://www.bohemiancoding.com/sketch -->
    <title>Shape</title>
    <desc>Created with Sketch.</desc>
    <defs></defs>
    <g id="Icons-&amp;-Logos" stroke="none" stroke-width="1" fill="none" fill-rule="evenodd">
        <g id="Artboard" transform="translate(-509.000000, -246.000000)" fill-rule="nonzero" fill="#00A4A5">
            <path d="M552.300884,260.976568 C551.788806,258.717938 553.456489,257.426313 553.963423,257.092547 C554.313191,256.887945 554.62981,256.623905 554.894994,256.302713 C555.557952,255.497447 555.823706,254.448716 555.623104,253.426274 C555.617961,253.39827 555.610531,253.370837 555.601958,253.343976 L553.341614,246.469214 C553.2496,246.189743 552.988417,246 552.694087,246 L509.681818,246 C509.305189,246 509,246.305189 509,246.681818 L509,254.432142 C509,256.161548 510.407072,257.569191 512.137049,257.569191 L528.152061,257.569191 L528.152061,258.070411 C528.152061,262.321344 531.610303,265.779014 535.860093,265.779014 L541.926732,265.779014 L544.02648,273.921969 C544.341957,275.145584 545.444411,276 546.706889,276 L552.602073,276 C553.46449,276 554.261754,275.609083 554.790406,274.927265 C555.318487,274.245447 555.497943,273.375029 555.283053,272.540044 L552.300884,260.976568 Z M552.200297,247.363065 L554.173741,253.365122 L510.363065,253.365122 L510.363065,247.363065 L552.200297,247.363065 Z M553.712528,274.091138 C553.444487,274.436905 553.039854,274.635221 552.602073,274.635221 L546.706889,274.635221 C546.06622,274.635221 545.506134,274.20144 545.346681,273.580774 L544.974053,272.13484 L548.117389,272.13484 C548.494018,272.13484 548.799207,271.82965 548.799207,271.453021 C548.799207,271.076393 548.494018,270.771203 548.117389,270.771203 L544.622571,270.771203 L544.1545,268.956069 L547.205822,268.956069 C547.582451,268.956069 547.88764,268.65088 547.88764,268.274251 C547.88764,267.897622 547.582451,267.592433 547.205822,267.592433 L543.801875,267.592433 L543.333803,265.778442 L546.291968,265.778442 C546.668597,265.778442 546.973786,265.473253 546.973786,265.096624 C546.973786,264.719995 546.668597,264.414806 546.291968,264.414806 L542.634268,264.414806 C542.61255,264.414806 542.594262,264.425093 542.573687,264.427379 C542.552541,264.425665 542.534253,264.414806 542.512535,264.414806 L535.859521,264.414806 C532.361274,264.414806 529.515126,261.568658 529.515126,258.070411 L529.515126,256.887373 C529.515126,256.510744 529.209937,256.205555 528.833308,256.205555 L512.136478,256.205555 C511.260916,256.205555 510.535663,255.565458 510.393355,254.729902 L554.217747,254.729902 C554.137164,254.983083 554.016574,255.224834 553.842833,255.435724 C553.439915,255.924941 552.84611,256.205555 552.212299,256.205555 L551.457898,256.205555 L540.337347,256.205555 L531.003353,256.205555 C530.626724,256.205555 530.321535,256.510744 530.321535,256.887373 L530.321535,257.817229 C530.321535,261.021146 532.928218,263.627257 536.131563,263.627257 L541.872438,263.627257 L541.873009,263.627257 C541.927875,263.627257 541.983883,263.620971 542.039892,263.606683 C542.057037,263.602111 542.069611,263.590109 542.086185,263.584394 C542.131906,263.568963 542.171912,263.547817 542.21249,263.523813 C542.249067,263.502096 542.2845,263.481521 542.315934,263.454088 C542.349653,263.424941 542.375943,263.391793 542.403376,263.356359 C542.429665,263.322068 542.454812,263.289492 542.474815,263.250629 C542.494247,263.212337 542.505677,263.172331 542.51825,263.13061 C542.531395,263.086032 542.541683,263.043168 542.545112,262.996304 C542.546255,262.978587 542.555399,262.963156 542.555399,262.945439 C542.555399,262.91572 542.542254,262.890574 542.538825,262.861998 C542.535396,262.833422 542.541683,262.805989 542.534824,262.777414 L541.215195,257.56862 L551.460184,257.56862 L551.620209,257.56862 C551.013831,258.512764 550.629201,259.767241 550.974396,261.283472 C550.974968,261.286901 550.977254,261.289758 550.978397,261.293188 C550.978968,261.296045 550.977825,261.298903 550.978968,261.302332 L553.964566,272.879524 C554.071439,273.302446 553.980568,273.744228 553.712528,274.091138 Z M531.685171,257.56862 L536.613922,257.56862 C536.710508,258.106416 536.668788,259.162577 535.329155,260.277604 C535.039968,260.518784 535.000533,260.947992 535.241142,261.237751 C535.375448,261.399489 535.569763,261.483502 535.765221,261.483502 C535.918959,261.483502 536.073268,261.432066 536.200716,261.325764 C537.767812,260.022137 538.089004,258.589918 537.987274,257.569191 L539.806409,257.569191 L540.995733,262.264193 L536.130991,262.264193 C533.679189,262.264193 531.6846,260.269603 531.6846,257.817801 L531.685171,257.56862 L531.685171,257.56862 Z M514.91633,249.631982 C514.91633,249.255353 515.221519,248.950164 515.598148,248.950164 L526.861007,248.950164 C527.237636,248.950164 527.542826,249.255353 527.542826,249.631982 C527.542826,250.008611 527.237636,250.3138 526.861007,250.3138 L515.598148,250.3138 C515.221519,250.3138 514.91633,250.008611 514.91633,249.631982 Z M541.95245,249.631982 C541.95245,249.255353 542.257639,248.950164 542.634268,248.950164 L546.842909,248.950164 C547.219538,248.950164 547.524728,249.255353 547.524728,249.631982 C547.524728,250.008611 547.219538,250.3138 546.842909,250.3138 L542.634268,250.3138 C542.258211,250.3138 541.95245,250.008611 541.95245,249.631982 Z M533.75863,249.631982 C533.75863,249.255353 534.063819,248.950164 534.440448,248.950164 L538.649089,248.950164 C539.025718,248.950164 539.330908,249.255353 539.330908,249.631982 C539.330908,250.008611 539.025718,250.3138 538.649089,250.3138 L534.440448,250.3138 C534.064391,250.3138 533.75863,250.008611 533.75863,249.631982 Z" id="Shape" transform="translate(532.344263, 261.000000) scale(-1, 1) translate(-532.344263, -261.000000) "></path>
        </g>
    </g>
</svg>
