<?xml version="1.0" encoding="UTF-8"?>
<svg width="45px" height="57px" viewBox="0 0 45 57" version="1.1" xmlns="http://www.w3.org/2000/svg" xmlns:xlink="http://www.w3.org/1999/xlink">
    <!-- Generator: Sketch 47 (45396) - http://www.bohemiancoding.com/sketch -->
    <title>Content / Fire Extinguisher</title>
    <desc>Created with Sketch.</desc>
    <defs></defs>
    <g id="Content" stroke="none" stroke-width="1" fill="none" fill-rule="evenodd">
        <g id="Content-/-Fire-Extinguisher" stroke="#2B2727" stroke-width="0.5" fill="#2B2727" fill-rule="nonzero">
            <path d="M11.1933499,22.206902 C10.6859799,22.206902 10.2696903,22.6206005 10.2696903,23.1305616 L10.2696903,50.5859041 C10.2696903,51.093274 10.6833888,51.5095636 11.1933499,51.5095636 C11.7007198,51.5095636 12.1170095,51.0958651 12.1170095,50.5859041 L12.1170095,23.1305616 C12.1170095,22.6205938 11.7007066,22.206902 11.1933499,22.206902 Z M43.5455468,4.16562669 L24.0392583,6.13783669 C23.5709209,6.18727348 23.2092502,6.58536562 23.2092502,7.05630077 L23.2092502,7.84987399 L20.2925322,7.84987399 L20.2925322,6.2159018 C20.2925322,5.70853183 19.8788337,5.29224222 19.3688727,5.29224222 L15.1407672,5.29224222 C15.1980105,5.01383884 15.3098928,4.75885499 15.3098928,4.46223417 C15.3098928,2.00085163 13.3090411,0 10.8502564,0 C8.38887378,0 6.38802215,2.00085163 6.38802215,4.46223417 C6.38802215,6.31474875 7.52762637,7.90455956 9.13821902,8.57583963 C6.23708738,9.56717341 2.53458935,11.8828166 0.083464504,17.3102075 C-0.129889065,17.7733427 0.0808601133,18.3197253 0.54400208,18.5278768 C0.66628856,18.5851201 0.796388206,18.6111374 0.921279077,18.6111374 C1.26993442,18.6111374 1.61080989,18.408188 1.76167806,18.0673392 C5.20919891,10.4386719 11.362622,9.72795956 13.0045206,9.68932669 L13.0045206,13.334608 C8.70880756,14.8749287 5.59965773,18.9182623 5.59965773,23.7341874 L5.59965773,52.1986482 C5.59965773,54.5455308 11.3524309,56.1248853 16.7279337,56.1248853 C22.1034365,56.1248853 27.858874,54.5455308 27.858874,52.1986482 L27.8640761,23.7368518 C27.8640761,18.855717 24.6767279,14.7600291 20.2953564,13.2719961 L20.2953564,12.0751086 L23.2120744,12.0751086 L23.2120744,12.7255802 C23.2120744,13.1939176 23.5659319,13.5920231 24.0290938,13.6414466 L43.5353823,15.8660361 C43.8658203,15.8738426 44.0817782,15.790582 44.2535081,15.6396739 C44.4512553,15.4627485 44.5631309,15.2129667 44.5631309,14.9501431 L44.5605332,5.08409745 C44.5605332,4.82391147 44.4486509,4.57672746 44.2587169,4.39982871 C44.06071,4.22287 43.8109282,4.13960942 43.5455468,4.16562669 Z M10.8529806,7.07712258 C9.4115069,7.07712258 8.23546784,5.90627904 8.23546784,4.46220753 C8.23546784,3.02073378 9.4115069,1.84469475 10.8529806,1.84469475 C12.2944544,1.84469475 13.4652979,3.02073378 13.4652979,4.46220753 C13.4652979,5.90627904 12.2944544,7.07712258 10.8529806,7.07712258 Z M26.0170634,23.7372314 L26.0378785,52.082463 C25.6918276,52.7381435 22.1090449,54.2810752 16.7306779,54.2810752 C11.352311,54.2810752 7.7725057,52.7381566 7.44679036,52.2021584 L7.44939471,23.7376977 C7.44939471,18.6223675 11.6176191,14.4591387 16.7352806,14.4591387 C21.8532085,14.4565343 26.0165039,18.6221677 26.0165039,23.7376977 L26.0170634,23.7372314 Z M23.2096499,10.228369 L19.3718701,10.228369 C18.8645001,10.228369 18.4482105,10.6420675 18.4482105,11.1520286 L18.4482105,12.6897515 L14.8550169,12.6897515 L14.8550169,7.13733661 L18.4482105,7.13733661 L18.4482105,8.77130885 C18.4482105,9.27867883 18.861909,9.69496844 19.3718701,9.69496844 L23.2096499,9.69496844 L23.2096499,10.228369 Z M42.7159383,13.9126163 L25.0567026,11.9013737 L25.0567026,7.8892796 L42.7159383,6.1043726 L42.7159383,13.9126163 Z" id="Page-1"></path>
        </g>
    </g>
</svg>