<?xml version="1.0" encoding="UTF-8"?>
<svg width="45px" height="29px" viewBox="0 0 45 29" version="1.1" xmlns="http://www.w3.org/2000/svg" xmlns:xlink="http://www.w3.org/1999/xlink">
    <!-- Generator: Sketch 47.1 (45422) - http://www.bohemiancoding.com/sketch -->
    <title>Icon / Firearm</title>
    <desc>Created with Sketch.</desc>
    <defs></defs>
    <g id="Form-Flows/Comparison" stroke="none" stroke-width="1" fill="none" fill-rule="evenodd">
        <g id="Icon-/-Firearm" fill-rule="nonzero" fill="#2B2727">
            <g id="Group-7">
                <path d="M41.4582938,14.3392672 C40.9680064,12.1767491 42.5647241,10.9400869 43.0500865,10.6205237 C43.3849707,10.4246282 43.6881166,10.1718239 43.9420162,9.86429968 C44.5767632,9.09330032 44.8312085,8.08919617 44.6391428,7.11026234 C44.6342186,7.08345 44.6271048,7.05718436 44.6188966,7.03146638 L42.4547374,0.449247447 C42.3666389,0.18166883 42.1165701,0 41.8347648,0 L0.652805093,0 C0.292202859,0 6.25150859e-07,0.292202234 6.25150859e-07,0.652804468 L6.25150859e-07,8.07332745 C6.25150859e-07,9.7291417 1.34719722,11.076885 3.00355818,11.076885 L18.3370803,11.076885 L18.3370803,11.5567765 C18.3370803,15.6268187 21.6481631,18.9373538 25.7171109,18.9373538 L31.5255951,18.9373538 L33.5359921,26.7338001 C33.8380446,27.9053464 34.8935856,28.7234043 36.1023412,28.7234043 L41.7466663,28.7234043 C42.5723847,28.7234043 43.3357225,28.349122 43.8418787,27.6963176 C44.3474882,27.0435131 44.5193078,26.2101341 44.313562,25.4106804 L41.4582938,14.3392672 Z M41.3619871,1.30506223 L43.2514548,7.05171255 L1.30506286,7.05171255 L1.30506286,1.30506223 L41.3619871,1.30506223 Z M42.8098679,26.8957704 C42.5532329,27.2268239 42.1658183,27.416701 41.7466663,27.416701 L36.1023412,27.416701 C35.4889347,27.416701 34.9526821,27.0013787 34.8000143,26.407124 L34.4432429,25.0227191 L37.4528199,25.0227191 C37.8134221,25.0227191 38.1056243,24.730516 38.1056243,24.3699137 C38.1056243,24.0093124 37.8134221,23.7171093 37.4528199,23.7171093 L34.1067175,23.7171093 L33.6585645,21.979215 L36.580043,21.979215 C36.9406452,21.979215 37.2328474,21.6870128 37.2328474,21.3264105 C37.2328474,20.9658083 36.9406452,20.6736061 36.580043,20.6736061 L33.3209448,20.6736061 L32.8727907,18.9368062 L35.7050764,18.9368062 C36.0656786,18.9368062 36.3578808,18.6446039 36.3578808,18.2840017 C36.3578808,17.9233995 36.0656786,17.6311972 35.7050764,17.6311972 L32.2030232,17.6311972 C32.1822293,17.6311972 32.1647196,17.6410465 32.1450201,17.6432352 C32.1247739,17.6415941 32.1072641,17.6311972 32.0864703,17.6311972 L25.7165633,17.6311972 C22.3671779,17.6311972 19.6421425,14.9061619 19.6421425,11.5567765 L19.6421425,10.4240805 C19.6421425,10.0634783 19.3499403,9.77127606 18.9893381,9.77127606 L3.00301148,9.77127606 C2.16470743,9.77127606 1.47031626,9.15841723 1.33406392,8.35841681 L43.2935882,8.35841681 C43.2164342,8.60082415 43.1009757,8.83228787 42.934628,9.03420383 C42.5488554,9.50260309 41.9803187,9.77127606 41.3734784,9.77127606 L40.6511796,9.77127606 L30.0038435,9.77127606 L21.0670407,9.77127606 C20.7064385,9.77127606 20.4142363,10.0634783 20.4142363,10.4240805 L20.4142363,11.3143682 C20.4142363,14.3819483 22.9099966,16.877161 25.977029,16.877161 L31.4736115,16.877161 L31.4741582,16.877161 C31.5266895,16.877161 31.5803141,16.8711424 31.6339398,16.8574624 C31.6503552,16.853085 31.6623941,16.8415937 31.6782629,16.8361219 C31.7220383,16.8213476 31.7603419,16.8011014 31.7991932,16.7781188 C31.8342137,16.757326 31.8681389,16.7376265 31.8982353,16.7113609 C31.9305195,16.6834541 31.9556907,16.6517167 31.9819564,16.6177905 C32.0071267,16.5849587 32.0312036,16.5537689 32.0503554,16.5165597 C32.0689605,16.4798971 32.0799041,16.4415935 32.0919421,16.4016479 C32.1045278,16.3589668 32.114378,16.3179268 32.1176611,16.273057 C32.1187554,16.2560939 32.1275103,16.2413196 32.1275103,16.2243565 C32.1275103,16.1959021 32.1149247,16.1718262 32.1116416,16.1444662 C32.1083585,16.1171062 32.114378,16.0908405 32.1078108,16.0634815 L30.8443363,11.0763383 L40.6533683,11.0763383 L40.8065837,11.0763383 C40.226009,11.980306 39.8577463,13.181401 40.1882521,14.6331115 C40.1887998,14.6363946 40.1909885,14.63913 40.1920829,14.642414 C40.1926296,14.6451495 40.1915352,14.6478859 40.1926296,14.6511689 L43.0511808,25.7357145 C43.1535061,26.1406398 43.0665019,26.5636226 42.8098679,26.8957704 Z M21.7198452,11.0763383 L26.4388621,11.0763383 C26.5313381,11.5912494 26.4913934,12.6024673 25.2087661,13.6700464 C24.9318849,13.9009634 24.894128,14.3119072 25.1244983,14.5893361 C25.2530891,14.7441916 25.4391354,14.8246296 25.6262761,14.8246296 C25.773472,14.8246296 25.9212147,14.7753823 26.0432393,14.6736038 C27.5436504,13.4254503 27.8511747,12.0541768 27.7537736,11.076885 L29.4954986,11.076885 L30.6342131,15.5720997 L25.9764814,15.5720997 C23.6290114,15.5720997 21.7192985,13.6623859 21.7192985,11.3149159 L21.7198452,11.0763383 L21.7198452,11.0763383 Z M5.6645719,3.47742957 C5.6645719,3.11682734 5.95677414,2.82462511 6.31737637,2.82462511 L17.1009648,2.82462511 C17.461567,2.82462511 17.7537702,3.11682734 17.7537702,3.47742957 C17.7537702,3.83803181 17.461567,4.13023404 17.1009648,4.13023404 L6.31737637,4.13023404 C5.95677414,4.13023404 5.6645719,3.83803181 5.6645719,3.47742957 Z M31.5502187,3.47742957 C31.5502187,3.11682734 31.8424209,2.82462511 32.2030232,2.82462511 L36.2325731,2.82462511 C36.5931753,2.82462511 36.8853785,3.11682734 36.8853785,3.47742957 C36.8853785,3.83803181 36.5931753,4.13023404 36.2325731,4.13023404 L32.2030232,4.13023404 C31.8429686,4.13023404 31.5502187,3.83803181 31.5502187,3.47742957 Z M23.7050719,3.47742957 C23.7050719,3.11682734 23.9972741,2.82462511 24.3578764,2.82462511 L28.3874263,2.82462511 C28.7480285,2.82462511 29.0402317,3.11682734 29.0402317,3.47742957 C29.0402317,3.83803181 28.7480285,4.13023404 28.3874263,4.13023404 L24.3578764,4.13023404 C23.9978218,4.13023404 23.7050719,3.83803181 23.7050719,3.47742957 Z" id="Shape" transform="translate(22.350890, 14.361702) scale(-1, 1) translate(-22.350890, -14.361702) "></path>
            </g>
        </g>
    </g>
</svg>