<?xml version="1.0" encoding="UTF-8"?>
<svg width="47px" height="36px" viewBox="0 0 47 36" version="1.1" xmlns="http://www.w3.org/2000/svg" xmlns:xlink="http://www.w3.org/1999/xlink">
    <!-- Generator: Sketch 47.1 (45422) - http://www.bohemiancoding.com/sketch -->
    <title>flood copy</title>
    <desc>Created with Sketch.</desc>
    <defs></defs>
    <g id="Form-Flows/Comparison" stroke="none" stroke-width="1" fill="none" fill-rule="evenodd">
        <g id="flood-copy" transform="translate(1.000000, -2.000000)" fill-rule="nonzero" fill="#2B2727">
            <g id="Page-1-Copy-3" transform="translate(0.000000, 18.296703)" stroke="#2B2727">
                <path d="M5.90513736,2.86872527 C6.39770934,4.28657143 7.73055495,5.23889011 9.22371429,5.23889011 C10.7130165,5.23889011 12.0458571,4.28657143 12.5403626,2.86872527 L11.9299451,2.65624121 L12.5403626,2.86872527 C12.8513621,1.97050549 13.6935495,1.3678022 14.6342967,1.3678022 C15.5730659,1.3678022 16.4153077,1.97050549 16.7282308,2.86872527 C17.2208027,4.28657143 18.5536484,5.23889011 20.0448791,5.23889011 C21.5361099,5.23889011 22.8689505,4.28657143 23.363456,2.86872527 C23.6744555,1.97050549 24.5166429,1.3678022 25.4554615,1.3678022 C26.3961593,1.3678022 27.2364725,1.97050549 27.547467,2.86872527 L28.1598132,2.65624121 L27.547467,2.86872527 C28.040039,4.28657143 29.3748132,5.23889011 30.866044,5.23889011 C32.3592033,5.23889011 33.692044,4.28657143 34.1846209,2.86872527 C34.4956203,1.97050549 35.3378077,1.3678022 36.2766264,1.3678022 C37.2173242,1.3678022 38.0576374,1.97050549 38.3705604,2.86872527 C38.3705604,2.86872527 38.8983403,3.35823741 39.3131868,3.21428571 C39.7280333,3.07033402 39.5952527,2.44375714 39.5952527,2.44375714 C39.1026808,1.02591099 37.7698352,0.0716637363 36.2766758,0.0716637363 C34.7873736,0.0716637363 33.4526044,1.02591099 32.9580989,2.44375714 L33.5704451,2.65624121 L32.9580989,2.44375714 C32.6470995,3.34197692 31.8068407,3.94468022 30.8660934,3.94468022 C29.9273242,3.94468022 29.0850824,3.34197692 28.7740879,2.44375714 C28.2815159,1.02398242 26.9486703,0.0716637363 25.455511,0.0716637363 C23.9662088,0.0716637363 22.6314396,1.02591099 22.1388626,2.44375714 L22.7473516,2.65624121 L22.1350055,2.44375714 C21.824006,3.34197692 20.9837473,3.94468022 20.043,3.94468022 C19.1022527,3.94468022 18.261989,3.34197692 17.9509945,2.44375714 L17.3386484,2.65624121 L17.9509945,2.44375714 C17.456489,1.02591099 16.1236484,0.0716637363 14.6324176,0.0716637363 C13.1392582,0.0716637363 11.8064176,1.02398242 11.3138407,2.44375714 C11.0009126,3.34197692 10.1606538,3.94468022 9.22183516,3.94468022 C8.28113736,3.94468022 7.4388956,3.34197692 7.1279011,2.44375714 L6.51748352,2.65624121 L7.1279011,2.44375714 C6.6333956,1.02591099 5.30055495,0.0716637363 3.81125275,0.0716637363 C2.32002198,0.0716637363 0.987181319,1.02591099 0.492675824,2.44375714 C0.492675824,2.44375714 0.247252747,2.96703297 0.741758242,3.21428571 C1.23626374,3.46153846 1.71736813,2.87065385 1.71736813,2.87065385 C2.03029615,1.97050549 2.87248352,1.3678022 3.81323077,1.3678022 C4.7519011,1.3678022 5.59221429,1.97050549 5.90513736,2.86872527 Z" id="Fill-1"></path>
                <path d="M43.7751099,9.18296703 C43.4621819,10.0811868 42.6219231,10.6838901 41.6831044,10.6838901 C40.7443352,10.6838901 39.9020934,10.0811868 39.5891703,9.18296703 C39.0965984,7.76512088 37.7637527,6.8128022 36.2705934,6.8128022 C34.7812912,6.8128022 33.446522,7.76512088 32.9520165,9.18296703 L33.5682198,9.3954511 L32.9558736,9.18296703 C32.6448742,10.0792582 31.8046154,10.6838901 30.8638681,10.6838901 C29.9250989,10.6838901 29.0828571,10.0811868 28.7718626,9.18296703 C28.2792907,7.76512088 26.9464451,6.8128022 25.4532857,6.8128022 C23.9639835,6.8128022 22.6292143,7.76512088 22.1366374,9.18296703 L22.7470549,9.3954511 L22.1347088,9.18296703 C21.8237093,10.0792582 20.9834505,10.6838901 20.0427033,10.6838901 C19.101956,10.6838901 18.2616923,10.0811868 17.9506978,9.18296703 L17.3364231,9.3954511 L17.9487692,9.18103846 C17.4542637,7.76319231 16.1214231,6.81087363 14.6301923,6.81087363 C13.137033,6.81087363 11.8041923,7.76319231 11.3116154,9.18103846 C10.9986874,10.0792582 10.1584286,10.6819615 9.21960989,10.6819615 C8.27891209,10.6819615 7.43667033,10.0792582 7.12567582,9.18103846 C7.12567582,9.18103846 6.86099913,8.7510465 6.42857143,8.9010989 C5.99614373,9.0511513 5.90098352,9.60600659 5.90098352,9.60600659 C6.39355549,11.0238527 7.7264011,11.9781 9.21956044,11.9781 C10.7088626,11.9781 12.0417033,11.0238527 12.5362088,9.60600659 L11.9277198,9.39545604 L12.5381374,9.60794011 C12.8491368,8.70972033 13.6913242,8.10701703 14.6320714,8.10701703 C15.5708407,8.10701703 16.4130824,8.70972033 16.7260055,9.60794011 C17.2185775,11.0257863 18.5514231,11.9800335 20.0426538,11.9800335 C21.5338846,11.9800335 22.8667253,11.0257863 23.3612308,9.60794011 C23.6722302,8.70972033 24.5144176,8.10701703 25.4532363,8.10701703 C26.3939341,8.10701703 27.2342473,8.70972033 27.5452418,9.60794011 L28.1575879,9.39545604 L27.5452418,9.60794011 C28.0378137,11.0238577 29.3725879,11.9800335 30.8638187,11.9800335 C32.356978,11.9800335 33.6898187,11.0257863 34.1823956,9.60794011 C34.4933951,8.70972033 35.3355824,8.10701703 36.2744011,8.10701703 C37.2150989,8.10701703 38.0554121,8.70972033 38.3683352,9.60794011 L38.9768242,9.39545604 L38.364478,9.60794011 C38.8589835,11.0238577 40.1918242,11.9800335 41.6830549,11.9800335 C43.1723571,11.9800335 44.5051978,11.0257863 44.9997033,9.60794011 C44.9997033,9.60794011 44.7527473,8.9010989 44.5054945,8.9010989 C44.2582418,8.9010989 43.7751099,9.18296703 43.7751099,9.18296703 Z" id="Fill-2"></path>
                <path d="M32.9543901,15.9206044 C32.6433907,16.8188242 31.8031319,17.4215275 30.8623846,17.4215275 C29.9236154,17.4215275 29.0813736,16.8188242 28.7703791,15.9206044 C28.2778071,14.5027582 26.9449615,13.5504396 25.4518022,13.5504396 C23.9605714,13.5504396 22.6277308,14.5027582 22.1351538,15.9206044 C21.8241544,16.8188242 20.9838956,17.4215275 20.0431484,17.4215275 C19.1043791,17.4215275 18.2621374,16.8188242 17.9511429,15.9206044 C17.4566374,14.5027582 16.1237967,13.5504396 14.6325659,13.5504396 C13.1394066,13.5504396 11.8065659,14.5027582 11.313989,15.9206044 C11.001061,16.8188242 10.1608022,17.4215275 9.22198352,17.4215275 C8.28128571,17.4215275 7.43904396,16.8188242 7.12804945,15.9206044 C6.63547747,14.5027582 5.30263187,13.5504396 3.8114011,13.5504396 C2.32016934,13.5504396 0.987328681,14.5027582 0.492823187,15.9206044 C0.492823187,15.9206044 0.492823187,16.5659341 0.989010989,16.5659341 C1.48519879,16.5659341 1.71751549,16.3455725 1.71751549,16.3455725 C2.03044352,15.4492813 2.87070231,14.8466275 3.81145055,14.8466275 C4.75021978,14.8466275 5.59246154,15.4512593 5.90345604,16.3455725 C6.39602802,17.7653473 7.72887363,18.7176659 9.22203297,18.7176659 C10.7113352,18.7176659 12.0441758,17.7653473 12.5386813,16.3475011 L11.9282637,16.1311549 L12.5406099,16.343639 C12.8516093,15.4473478 13.6918681,14.844694 14.6326154,14.844694 C15.5713846,14.844694 16.4136264,15.4493258 16.7265495,16.343639 C17.2191214,17.7634137 18.551967,18.7157324 20.0431978,18.7157324 C21.5344286,18.7157324 22.8672692,17.7634137 23.3617747,16.343639 C23.6727742,15.4473478 24.513033,14.844694 25.4537802,14.844694 C26.3945275,14.844694 27.2347912,15.4493258 27.5457857,16.343639 L28.1581319,16.1311549 L27.5457857,16.3475011 C28.0383577,17.7653473 29.3731319,18.7176659 30.8643626,18.7176659 C32.357522,18.7176659 33.6903626,17.7653473 34.1829396,16.3455725 C34.493939,15.4492813 35.3341978,14.8466275 36.2749451,14.8466275 C37.2156429,14.8466275 38.055956,15.4512593 38.3688791,16.3455725 C38.3688791,16.3455725 38.6183009,16.7212627 39.0659341,16.5659341 C39.5135672,16.4106054 39.5935714,15.9206044 39.5935714,15.9206044 C39.0971374,14.5046868 37.7642967,13.5504396 36.2730659,13.5504396 C34.7817363,13.5504396 33.4488956,14.5027582 32.9543901,15.9206044 Z" id="Fill-3"></path>
            </g>
            <g id="Group-39" transform="translate(19.012401, 12.469046) rotate(-9.000000) translate(-19.012401, -12.469046) translate(7.512401, 1.969046)">
                <path d="M23.2200387,7.51284263 L8.69281959,7.51284263 L8.69281959,6.52383164 C8.69281959,5.97380782 9.13475643,5.53482065 9.67991323,5.53482065 L23.2200387,5.53482065 C23.7081811,5.53482065 24.1526229,5.97761595 24.1526229,6.52383164 C24.1526229,7.07385542 23.7350907,7.51284263 23.2200387,7.51284263 Z" id="Combined-Shape" transform="translate(16.422721, 6.523832) rotate(45.000000) translate(-16.422721, -6.523832) "></path>
                <path d="M17.7501446,18.8551772 L17.7501446,18.8551772 C17.7501446,19.2366972 18.1313703,19.5459803 18.6090225,19.5459803 L18.6090225,19.5459803 C19.0833678,19.5459803 19.4679005,19.232918 19.4679005,18.8551772 L19.4679005,18.8551772 L19.4679005,8.78378677 C19.4679005,8.40297946 19.0866748,8.09427417 18.6090225,8.09427417 L17.7501446,8.09427417" id="Combined-Shape"></path>
                <path d="M5.15326777,16.7029966 L5.15326777,16.7029966 C5.15326777,17.0082126 4.77204207,17.2556391 4.29438982,17.2556391 L4.29438982,17.2556391 C3.82004462,17.2556391 3.43551186,17.0051892 3.43551186,16.7029966 L3.43551186,16.7029966 L3.43551186,8.64588427 C3.43551186,8.34123842 3.81673757,8.09427417 4.29438982,8.09427417 L5.15326777,8.09427417" id="Combined-Shape"></path>
                <path d="M13.3805816,7.20936942 L-1.14517019,7.20936942 L-1.14517019,6.22035843 C-1.14517019,5.67033461 -0.703277953,5.23134744 -0.158176245,5.23134744 L13.3805816,5.23134744 C13.8686747,5.23134744 14.3130717,5.67414274 14.3130717,6.22035843 C14.3130717,6.7703822 13.8955817,7.20936942 13.3805816,7.20936942 Z" id="Combined-Shape-Copy" transform="translate(6.583951, 6.220358) scale(-1, 1) rotate(45.000000) translate(-6.583951, -6.220358) "></path>
            </g>
        </g>
    </g>
</svg>