<?xml version="1.0" encoding="UTF-8"?>
<svg width="92px" height="71px" viewBox="0 0 92 71" version="1.1" xmlns="http://www.w3.org/2000/svg" xmlns:xlink="http://www.w3.org/1999/xlink">
    <!-- Generator: Sketch 43.2 (39069) - http://www.bohemiancoding.com/sketch -->
    <title>Group 40</title>
    <desc>Created with Sketch.</desc>
    <defs></defs>
    <g id="Page-1" stroke="none" stroke-width="1" fill="none" fill-rule="evenodd">
        <g id="Group-40" transform="translate(0.000000, -5.000000)">
            <g id="Page-1-Copy-3" transform="translate(0.000000, 37.000000)" stroke="#00A4A5" fill="#00A4A5">
                <path d="M11.9415,5.8012 C12.93759,8.6684 15.6329,10.5942 18.6524,10.5942 C21.6641,10.5942 24.3594,8.6684 25.3594,5.8012 L24.125,5.37151 L25.3594,5.8012 C25.98831,3.9848 27.6914,2.766 29.5938,2.766 C31.4922,2.766 33.1954,3.9848 33.8282,5.8012 C34.82429,8.6684 37.5196,10.5942 40.5352,10.5942 C43.5508,10.5942 46.2461,8.6684 47.2461,5.8012 C47.87501,3.9848 49.5781,2.766 51.4766,2.766 C53.3789,2.766 55.0782,3.9848 55.7071,5.8012 L56.9454,5.37151 L55.7071,5.8012 C56.70319,8.6684 59.4024,10.5942 62.418,10.5942 C65.4375,10.5942 68.1328,8.6684 69.1289,5.8012 C69.75781,3.9848 71.4609,2.766 73.3594,2.766 C75.2617,2.766 76.961,3.9848 77.5938,5.8012 C77.5938,5.8012 78.6610882,6.79110232 79.5,6.5 C80.3389118,6.20889768 80.0704,4.94182 80.0704,4.94182 C79.07431,2.07462 76.379,0.14492 73.3595,0.14492 C70.3478,0.14492 67.6486,2.07462 66.6486,4.94182 L67.8869,5.37151 L66.6486,4.94182 C66.01969,6.75822 64.3205,7.97702 62.4181,7.97702 C60.5197,7.97702 58.8165,6.75822 58.1876,4.94182 C57.19151,2.07072 54.4962,0.14492 51.4767,0.14492 C48.465,0.14492 45.7658,2.07462 44.7697,4.94182 L46.0002,5.37151 L44.7619,4.94182 C44.13299,6.75822 42.4338,7.97702 40.5314,7.97702 C38.629,7.97702 36.9298,6.75822 36.3009,4.94182 L35.0626,5.37151 L36.3009,4.94182 C35.3009,2.07462 32.6056,0.14492 29.59,0.14492 C26.5705,0.14492 23.8752,2.07072 22.8791,4.94182 C22.24629,6.75822 20.5471,7.97702 18.6486,7.97702 C16.7463,7.97702 15.0431,6.75822 14.4142,4.94182 L13.1798,5.37151 L14.4142,4.94182 C13.4142,2.07462 10.7189,0.14492 7.7072,0.14492 C4.6916,0.14492 1.9963,2.07462 0.9963,4.94182 C0.9963,4.94182 0.5,6 1.5,6.5 C2.5,7 3.4729,5.8051 3.4729,5.8051 C4.10571,3.9848 5.8088,2.766 7.7112,2.766 C9.6094,2.766 11.3087,3.9848 11.9415,5.8012 Z" id="Fill-1"></path>
                <path d="M88.523,18.57 C87.89019,20.3864 86.191,21.6052 84.2925,21.6052 C82.3941,21.6052 80.6909,20.3864 80.0581,18.57 C79.06201,15.7028 76.3667,13.777 73.3472,13.777 C70.3355,13.777 67.6363,15.7028 66.6363,18.57 L67.8824,18.99969 L66.6441,18.57 C66.01519,20.3825 64.316,21.6052 62.4136,21.6052 C60.5152,21.6052 58.812,20.3864 58.1831,18.57 C57.18701,15.7028 54.4917,13.777 51.4722,13.777 C48.4605,13.777 45.7613,15.7028 44.7652,18.57 L45.9996,18.99969 L44.7613,18.57 C44.13239,20.3825 42.4332,21.6052 40.5308,21.6052 C38.6284,21.6052 36.9292,20.3864 36.3003,18.57 L35.0581,18.99969 L36.2964,18.5661 C35.2964,15.6989 32.6011,13.7731 29.5855,13.7731 C26.566,13.7731 23.8707,15.6989 22.8746,18.5661 C22.24179,20.3825 20.5426,21.6013 18.6441,21.6013 C16.7418,21.6013 15.0386,20.3825 14.4097,18.5661 C14.4097,18.5661 13.8744649,17.6965607 13,18 C12.1255351,18.3034393 11.9331,19.42548 11.9331,19.42548 C12.92919,22.29268 15.6245,24.22238 18.644,24.22238 C21.6557,24.22238 24.351,22.29268 25.351,19.42548 L24.1205,18.9997 L25.3549,19.42939 C25.98381,17.61299 27.6869,16.39419 29.5893,16.39419 C31.4877,16.39419 33.1909,17.61299 33.8237,19.42939 C34.81979,22.29659 37.5151,24.22629 40.5307,24.22629 C43.5463,24.22629 46.2416,22.29659 47.2416,19.42939 C47.87051,17.61299 49.5736,16.39419 51.4721,16.39419 C53.3744,16.39419 55.0737,17.61299 55.7026,19.42939 L56.9409,18.9997 L55.7026,19.42939 C56.69869,22.29269 59.3979,24.22629 62.4135,24.22629 C65.433,24.22629 68.1283,22.29659 69.1244,19.42939 C69.75331,17.61299 71.4564,16.39419 73.3549,16.39419 C75.2572,16.39419 76.9565,17.61299 77.5893,19.42939 L78.8198,18.9997 L77.5815,19.42939 C78.5815,22.29269 81.2768,24.22629 84.2924,24.22629 C87.3041,24.22629 89.9994,22.29659 90.9994,19.42939 C90.9994,19.42939 90.5,18 90,18 C89.5,18 88.523,18.57 88.523,18.57 Z" id="Fill-2"></path>
                <path d="M66.6411,32.195 C66.01219,34.0114 64.313,35.2302 62.4106,35.2302 C60.5122,35.2302 58.809,34.0114 58.1801,32.195 C57.18401,29.3278 54.4887,27.402 51.4692,27.402 C48.4536,27.402 45.7583,29.3278 44.7622,32.195 C44.13329,34.0114 42.4341,35.2302 40.5317,35.2302 C38.6333,35.2302 36.9301,34.0114 36.3012,32.195 C35.3012,29.3278 32.6059,27.402 29.5903,27.402 C26.5708,27.402 23.8755,29.3278 22.8794,32.195 C22.24659,34.0114 20.5474,35.2302 18.6489,35.2302 C16.7466,35.2302 15.0434,34.0114 14.4145,32.195 C13.41841,29.3278 10.7231,27.402 7.7075,27.402 C4.691898,27.402 1.996598,29.3278 0.996598,32.195 C0.996598,32.195 0.996598,33.5 2,33.5 C3.003402,33.5 3.473198,33.05438 3.473198,33.05438 C4.106008,31.24188 5.805198,30.02318 7.7076,30.02318 C9.606,30.02318 11.3092,31.24588 11.9381,33.05438 C12.93419,35.92548 15.6295,37.85128 18.649,37.85128 C21.6607,37.85128 24.356,35.92548 25.356,33.05828 L24.1216,32.62078 L25.3599,33.05047 C25.98881,31.23797 27.688,30.01927 29.5904,30.01927 C31.4888,30.01927 33.192,31.24197 33.8248,33.05047 C34.82089,35.92157 37.5162,37.84737 40.5318,37.84737 C43.5474,37.84737 46.2427,35.92157 47.2427,33.05047 C47.87161,31.23797 49.5708,30.01927 51.4732,30.01927 C53.3756,30.01927 55.0748,31.24197 55.7037,33.05047 L56.942,32.62078 L55.7037,33.05828 C56.69979,35.92548 59.399,37.85128 62.4146,37.85128 C65.4341,37.85128 68.1294,35.92548 69.1255,33.05438 C69.75441,31.24188 71.4536,30.02318 73.356,30.02318 C75.2583,30.02318 76.9576,31.24588 77.5904,33.05438 C77.5904,33.05438 78.0947863,33.8141091 79,33.5 C79.9052137,33.1858909 80.067,32.195 80.067,32.195 C79.0631,29.3317 76.3678,27.402 73.3522,27.402 C70.3364,27.402 67.6411,29.3278 66.6411,32.195 Z" id="Fill-3"></path>
            </g>
            <g id="Group-39" transform="translate(38.158390, 25.024700) rotate(-9.000000) translate(-38.158390, -25.024700) translate(15.158390, 4.024700)">
                <path d="M46.9560785,15.1926373 L17.5788132,15.1926373 L17.5788132,13.1926373 C17.5788132,12.0803669 18.4725077,11.1926373 19.5749359,11.1926373 L46.9560785,11.1926373 C47.943211,11.1926373 48.8419711,12.0880678 48.8419711,13.1926373 C48.8419711,14.3049076 47.9976282,15.1926373 46.9560785,15.1926373 Z" id="Combined-Shape" fill="#00A4A5" transform="translate(33.210392, 13.192637) rotate(45.000000) translate(-33.210392, -13.192637) "></path>
                <path d="M35.8947368,38.1293583 L35.8947368,38.1293583 C35.8947368,38.9008766 36.66566,39.5263158 37.6315789,39.5263158 L37.6315789,39.5263158 C38.5908104,39.5263158 39.3684211,38.8932342 39.3684211,38.1293583 L39.3684211,38.1293583 L39.3684211,17.7627688 C39.3684211,16.9926918 38.5974979,16.3684211 37.6315789,16.3684211 L35.8947368,16.3684211" id="Combined-Shape" fill="#00A4A5"></path>
                <path d="M10.4210526,33.7771709 L10.4210526,33.7771709 C10.4210526,34.3943855 9.65012952,34.8947368 8.68421053,34.8947368 L8.68421053,34.8947368 C7.72497912,34.8947368 6.94736842,34.3882715 6.94736842,33.7771709 L6.94736842,33.7771709 L6.94736842,17.4838993 C6.94736842,16.8678377 7.71829153,16.3684211 8.68421053,16.3684211 L10.4210526,16.3684211" id="Combined-Shape" fill="#00A4A5"></path>
                <path d="M27.0585086,14.5789474 L-2.31578947,14.5789474 L-2.31578947,12.5789474 C-2.31578947,11.466677 -1.42218516,10.5789474 -0.319868372,10.5789474 L27.0585086,10.5789474 C28.0455414,10.5789474 28.9442108,11.4743779 28.9442108,12.5789474 C28.9442108,13.6912177 28.0999532,14.5789474 27.0585086,14.5789474 Z" id="Combined-Shape-Copy" fill="#00A4A5" transform="translate(13.314211, 12.578947) scale(-1, 1) rotate(45.000000) translate(-13.314211, -12.578947) "></path>
                <path d="M23.0183849,40.9765619 L23.0183849,28.852333" id="Line" stroke="#00A4A5" stroke-width="5" stroke-linecap="round"></path>
            </g>
        </g>
    </g>
</svg>
