<?xml version="1.0" encoding="UTF-8"?>
<svg width="100px" height="74px" viewBox="0 0 100 74" version="1.1" xmlns="http://www.w3.org/2000/svg" xmlns:xlink="http://www.w3.org/1999/xlink">
    <!-- Generator: Sketch 43.2 (39069) - http://www.bohemiancoding.com/sketch -->
    <title>Page 1</title>
    <desc>Created with Sketch.</desc>
    <defs></defs>
    <g id="Page-1" stroke="none" stroke-width="1" fill="none" fill-rule="evenodd">
        <path d="M98.2229012,46.3477 L75.8869012,46.3477 L75.8869012,24.9457 C75.8869012,23.96914 75.0939312,23.1684 74.1096012,23.1684 L51.7776012,23.1723 L51.7776012,1.7773 C51.7776012,0.79292 50.9807212,0 50.0003012,0 L1.77730018,0 C0.796829976,0 0,0.79687 0,1.7773 L0,71.30031 C0,72.28078 0.796879976,73.07761 1.77730018,73.07761 L98.2223012,73.07761 C99.2027712,73.07761 99.9996012,72.27683 99.9996012,71.30031 L99.9996012,48.12431 C99.9996012,47.14384 99.2027212,46.34701 98.2223012,46.34701 L98.2229012,46.3477 Z M72.3319012,26.7347 L72.3319012,46.3437 L27.6679012,46.3437 L27.6679012,26.7347 L72.3319012,26.7347 Z M3.55889718,3.5587 L48.2269012,3.5587 L48.2269012,23.1677 L3.55889718,23.1716 L3.55889718,3.5587 Z M3.55889718,26.7347 L24.1139012,26.7347 L24.1139012,46.3437 L3.55889718,46.3476 L3.55889718,26.7347 Z M48.2229012,69.5197 L3.55889718,69.5197 L3.55889718,49.9067 L48.2269012,49.9067 L48.2229012,69.5197 Z M96.4459012,69.5197 L51.7779012,69.5197 L51.7779012,49.9067 L96.4419012,49.9067 L96.4459012,69.5197 Z" fill="#00A4A5"></path>
    </g>
</svg>
