<?xml version="1.0" encoding="UTF-8"?>
<svg width="294px" height="181px" viewBox="0 0 294 181" version="1.1" xmlns="http://www.w3.org/2000/svg" xmlns:xlink="http://www.w3.org/1999/xlink">
    <!-- Generator: Sketch 44.1 (41455) - http://www.bohemiancoding.com/sketch -->
    <title>Group 8</title>
    <desc>Created with Sketch.</desc>
    <defs></defs>
    <g id="PPC-Calculator-Modal" stroke="none" stroke-width="1" fill="none" fill-rule="evenodd">
        <g id="Group-8" transform="translate(3.000000, 0.000000)">
            <path d="M270.897534,137.606261 L270.897534,125.62218 C270.897534,123.983142 269.588784,122.897534 267.612849,122.897534 L244.953779,122.897534 C242.977844,122.897534 241.669094,123.983142 241.669094,125.62218 L241.669094,137.606261 C241.669094,139.245299 242.977844,140.330906 244.953779,140.330906 L267.612849,140.330906 C269.588784,140.330906 270.897534,139.234672 270.897534,137.606261 Z M246.567999,135.56007 L246.567999,127.66837 L265.998629,127.66837 L265.998629,135.56007 L246.567999,135.56007 Z" id="Fill-2-Copy-5" fill="#00A4A5" transform="translate(256.283314, 131.614220) scale(-1, 1) rotate(-270.000000) translate(-256.283314, -131.614220) "></path>
            <path d="M257.897534,137.606261 L257.897534,125.62218 C257.897534,123.983142 256.588784,122.897534 254.612849,122.897534 L231.953779,122.897534 C229.977844,122.897534 228.669094,123.983142 228.669094,125.62218 L228.669094,137.606261 C228.669094,139.245299 229.977844,140.330906 231.953779,140.330906 L254.612849,140.330906 C256.588784,140.330906 257.897534,139.234672 257.897534,137.606261 Z M233.567999,135.56007 L233.567999,127.66837 L252.998629,127.66837 L252.998629,135.56007 L233.567999,135.56007 Z" id="Fill-2-Copy-6" fill="#00A4A5" transform="translate(243.283314, 131.614220) scale(-1, 1) rotate(-270.000000) translate(-243.283314, -131.614220) "></path>
            <path d="M264.22844,108.708727 L264.22844,96.7246456 C264.22844,95.0856078 262.919691,94 260.943756,94 L238.284685,94 C236.30875,94 235,95.0856078 235,96.7246456 L235,108.708727 C235,110.347764 236.30875,111.433372 238.284685,111.433372 L260.943756,111.433372 C262.919691,111.433372 264.22844,110.337138 264.22844,108.708727 Z M239.785176,106.708727 L239.785176,98.7246456 L259.443264,98.7246456 L259.443264,106.708727 L239.785176,106.708727 Z" id="Fill-2-Copy-10" fill="#00A4A5" transform="translate(249.614220, 102.716686) scale(-1, 1) translate(-249.614220, -102.716686) "></path>
            <path d="M264.672553,86 L225,86 L225,86 C223.895431,86 223,86.8954305 223,88 L223,152.519997 L223,152.519997 C223,153.624566 223.895431,154.519997 225,154.519997 L276,154.519997 L275.898954,86.0748424 L264.672553,86 Z" id="Path-2-Copy" stroke="#00A4A5" stroke-width="5" transform="translate(249.500000, 120.259998) scale(-1, 1) translate(-249.500000, -120.259998) "></path>
            <path d="M287.916387,58 L244.524802,58 L223.227603,83.9020041 L223.227603,83.9020041 C222.876844,84.3286029 222.938325,84.9587759 223.364923,85.3095349 C223.543873,85.4566709 223.768357,85.5371094 224.000029,85.5371094 L287.205225,85.5371094 L287.916387,58 Z" id="Path-3-Copy" stroke="#00A4A5" stroke-width="5" transform="translate(255.458193, 71.768555) scale(-1, 1) translate(-255.458193, -71.768555) "></path>
            <path d="M237.701728,57.63426 L218.830192,22.0257489 L104.674686,22.0257489 L104.674686,2 L104.674686,2 C104.674686,0.8954305 103.779255,-2.02906125e-16 102.674686,0 L88.0493139,0 L88.0493139,0 C86.9447444,2.02906125e-16 86.0493139,0.8954305 86.0493139,2 L86.0493139,22.0257489 L69.8272157,22.0257489 L51.2275598,57.6450647 L51.2275598,57.6450647 C50.7162851,58.6241827 51.0955469,59.8323847 52.0746648,60.3436594 C52.3604295,60.4928797 52.6780308,60.5708096 53.0004097,60.5708096 L62.6173943,60.5708096 L62.6173943,165.704341 L56.8067544,165.704341 L56.8067544,165.704341 C55.7021849,165.704341 54.8067544,166.599772 54.8067544,167.704341 L54.8067544,169.822605 L54.8067544,169.822605 C54.8067544,170.927174 55.7021849,171.822605 56.8067544,171.822605 L111.283689,171.822605 L111.283689,179 L111.283689,179 C111.283689,180.104569 112.179119,181 113.283689,181 L130.509879,181 L158.147528,181 L175.373719,181 L175.373719,181 C176.478288,181 177.373719,180.104569 177.373719,179 L177.373719,171.822605 L231.850653,171.822605 L231.850653,171.822605 C232.955223,171.822605 233.850653,170.927174 233.850653,169.822605 L233.850653,167.704341 L233.850653,167.704341 C233.850653,166.599772 232.955223,165.704341 231.850653,165.704341 L226.040013,165.704341 L226.040013,60.5708096 L235.934563,60.5708096 L235.934563,60.5708096 C237.039132,60.5708096 237.934563,59.6753791 237.934563,58.5708096 C237.934563,58.244301 237.854624,57.9227575 237.701728,57.63426 Z M92.0574984,6.11826359 L98.6665014,6.11826359 L98.6665014,22.0257489 L92.0574984,22.0257489 L92.0574984,6.11826359 Z M59.613302,54.452546 L73.4321264,27.1440125 L85.7489047,27.1440125 L104.374277,27.1440125 L214.924872,27.1440125 L228.743696,54.452546 L226.040013,54.452546 L160.851211,54.452546 L145.537974,42.8280775 L145.537974,42.8280775 C144.823113,42.2854179 143.834294,42.2854179 143.119434,42.8280775 L127.806196,54.452546 L62.3169851,54.452546 L59.613302,54.452546 Z M68.3251696,58.9386524 L124.695147,58.9386524 L112.98328,68.1653168 L112.98328,165.704341 L68.3251696,165.704341 L68.3251696,58.9386524 Z M136.518064,174.881736 L136.518064,141.843113 L152.139344,141.843113 L152.139344,174.881736 L136.518064,174.881736 L136.518064,174.881736 Z M170.665943,174.881736 L158.447937,174.881736 L158.447937,137.77027 L158.447937,137.77027 C158.447937,136.665701 157.552507,135.77027 156.447937,135.77027 L132.810289,135.77027 L132.810289,135.77027 C131.705719,135.77027 130.810289,136.665701 130.810289,137.77027 L130.810289,174.881736 L118.592283,174.881736 L118.592283,70.5730696 L144.629113,48.9707031 L170.665943,71.5996239 L170.665943,174.881736 Z M165.96226,58.9386524 L220.332238,58.9386524 L220.332238,165.704341 L176.674128,165.704341 L176.674128,68.1653168 L165.96226,58.9386524 Z" id="Shape" fill="#00A4A5" fill-rule="nonzero"></path>
            <path d="M98.3309063,149.980011 L98.3309063,137.196992 C98.3309063,135.448685 97.0221564,134.290703 95.0462213,134.290703 L72.3871508,134.290703 C70.4112157,134.290703 69.1024658,135.448685 69.1024658,137.196992 L69.1024658,149.980011 C69.1024658,151.728318 70.4112157,152.8863 72.3871508,152.8863 L95.0462213,152.8863 C97.0221564,152.8863 98.3309063,151.716984 98.3309063,149.980011 Z M74.001371,147.797408 L74.001371,139.379595 L93.4320011,139.379595 L93.4320011,147.797408 L74.001371,147.797408 Z" id="Fill-2-Copy-5" fill="#00A4A5" transform="translate(83.716686, 143.588502) rotate(-270.000000) translate(-83.716686, -143.588502) "></path>
            <path d="M111.330906,149.980011 L111.330906,137.196992 C111.330906,135.448685 110.022156,134.290703 108.046221,134.290703 L85.3871508,134.290703 C83.4112157,134.290703 82.1024658,135.448685 82.1024658,137.196992 L82.1024658,149.980011 C82.1024658,151.728318 83.4112157,152.8863 85.3871508,152.8863 L108.046221,152.8863 C110.022156,152.8863 111.330906,151.716984 111.330906,149.980011 Z M87.001371,147.797408 L87.001371,139.379595 L106.432001,139.379595 L106.432001,147.797408 L87.001371,147.797408 Z" id="Fill-2-Copy-6" fill="#00A4A5" transform="translate(96.716686, 143.588502) rotate(-270.000000) translate(-96.716686, -143.588502) "></path>
            <path d="M98.3309063,87.9800114 L98.3309063,75.1969917 C98.3309063,73.4486847 97.0221564,72.2907031 95.0462213,72.2907031 L72.3871508,72.2907031 C70.4112157,72.2907031 69.1024658,73.4486847 69.1024658,75.1969917 L69.1024658,87.9800114 C69.1024658,89.7283184 70.4112157,90.8863 72.3871508,90.8863 L95.0462213,90.8863 C97.0221564,90.8863 98.3309063,89.7169839 98.3309063,87.9800114 Z M74.001371,85.7974081 L74.001371,77.3795951 L93.4320011,77.3795951 L93.4320011,85.7974081 L74.001371,85.7974081 Z" id="Fill-2-Copy-5" fill="#00A4A5" transform="translate(83.716686, 81.588502) rotate(-270.000000) translate(-83.716686, -81.588502) "></path>
            <path d="M111.330906,87.9800114 L111.330906,75.1969917 C111.330906,73.4486847 110.022156,72.2907031 108.046221,72.2907031 L85.3871508,72.2907031 C83.4112157,72.2907031 82.1024658,73.4486847 82.1024658,75.1969917 L82.1024658,87.9800114 C82.1024658,89.7283184 83.4112157,90.8863 85.3871508,90.8863 L108.046221,90.8863 C110.022156,90.8863 111.330906,89.7169839 111.330906,87.9800114 Z M87.001371,85.7974081 L87.001371,77.3795951 L106.432001,77.3795951 L106.432001,85.7974081 L87.001371,85.7974081 Z" id="Fill-2-Copy-6" fill="#00A4A5" transform="translate(96.716686, 81.588502) rotate(-270.000000) translate(-96.716686, -81.588502) "></path>
            <path d="M46.3309063,137.606261 L46.3309063,125.62218 C46.3309063,123.983142 45.0221564,122.897534 43.0462213,122.897534 L20.3871508,122.897534 C18.4112157,122.897534 17.1024658,123.983142 17.1024658,125.62218 L17.1024658,137.606261 C17.1024658,139.245299 18.4112157,140.330906 20.3871508,140.330906 L43.0462213,140.330906 C45.0221564,140.330906 46.3309063,139.234672 46.3309063,137.606261 Z M22.001371,135.56007 L22.001371,127.66837 L41.4320011,127.66837 L41.4320011,135.56007 L22.001371,135.56007 Z" id="Fill-2-Copy-5" fill="#00A4A5" transform="translate(31.716686, 131.614220) rotate(-270.000000) translate(-31.716686, -131.614220) "></path>
            <path d="M59.3309063,137.606261 L59.3309063,125.62218 C59.3309063,123.983142 58.0221564,122.897534 56.0462213,122.897534 L33.3871508,122.897534 C31.4112157,122.897534 30.1024658,123.983142 30.1024658,125.62218 L30.1024658,137.606261 C30.1024658,139.245299 31.4112157,140.330906 33.3871508,140.330906 L56.0462213,140.330906 C58.0221564,140.330906 59.3309063,139.234672 59.3309063,137.606261 Z M35.001371,135.56007 L35.001371,127.66837 L54.4320011,127.66837 L54.4320011,135.56007 L35.001371,135.56007 Z" id="Fill-2-Copy-6" fill="#00A4A5" transform="translate(44.716686, 131.614220) rotate(-270.000000) translate(-44.716686, -131.614220) "></path>
            <path d="M206.330906,149.980011 L206.330906,137.196992 C206.330906,135.448685 205.022156,134.290703 203.046221,134.290703 L180.387151,134.290703 C178.411216,134.290703 177.102466,135.448685 177.102466,137.196992 L177.102466,149.980011 C177.102466,151.728318 178.411216,152.8863 180.387151,152.8863 L203.046221,152.8863 C205.022156,152.8863 206.330906,151.716984 206.330906,149.980011 Z M182.001371,147.797408 L182.001371,139.379595 L201.432001,139.379595 L201.432001,147.797408 L182.001371,147.797408 Z" id="Fill-2-Copy-5" fill="#00A4A5" transform="translate(191.716686, 143.588502) rotate(-270.000000) translate(-191.716686, -143.588502) "></path>
            <path d="M219.330906,149.980011 L219.330906,137.196992 C219.330906,135.448685 218.022156,134.290703 216.046221,134.290703 L193.387151,134.290703 C191.411216,134.290703 190.102466,135.448685 190.102466,137.196992 L190.102466,149.980011 C190.102466,151.728318 191.411216,152.8863 193.387151,152.8863 L216.046221,152.8863 C218.022156,152.8863 219.330906,151.716984 219.330906,149.980011 Z M195.001371,147.797408 L195.001371,139.379595 L214.432001,139.379595 L214.432001,147.797408 L195.001371,147.797408 Z" id="Fill-2-Copy-6" fill="#00A4A5" transform="translate(204.716686, 143.588502) rotate(-270.000000) translate(-204.716686, -143.588502) "></path>
            <path d="M206.330906,87.9800114 L206.330906,75.1969917 C206.330906,73.4486847 205.022156,72.2907031 203.046221,72.2907031 L180.387151,72.2907031 C178.411216,72.2907031 177.102466,73.4486847 177.102466,75.1969917 L177.102466,87.9800114 C177.102466,89.7283184 178.411216,90.8863 180.387151,90.8863 L203.046221,90.8863 C205.022156,90.8863 206.330906,89.7169839 206.330906,87.9800114 Z M182.001371,85.7974081 L182.001371,77.3795951 L201.432001,77.3795951 L201.432001,85.7974081 L182.001371,85.7974081 Z" id="Fill-2-Copy-5" fill="#00A4A5" transform="translate(191.716686, 81.588502) rotate(-270.000000) translate(-191.716686, -81.588502) "></path>
            <path d="M219.330906,87.9800114 L219.330906,75.1969917 C219.330906,73.4486847 218.022156,72.2907031 216.046221,72.2907031 L193.387151,72.2907031 C191.411216,72.2907031 190.102466,73.4486847 190.102466,75.1969917 L190.102466,87.9800114 C190.102466,89.7283184 191.411216,90.8863 193.387151,90.8863 L216.046221,90.8863 C218.022156,90.8863 219.330906,89.7169839 219.330906,87.9800114 Z M195.001371,85.7974081 L195.001371,77.3795951 L214.432001,77.3795951 L214.432001,85.7974081 L195.001371,85.7974081 Z" id="Fill-2-Copy-6" fill="#00A4A5" transform="translate(204.716686, 81.588502) rotate(-270.000000) translate(-204.716686, -81.588502) "></path>
            <path d="M105.22844,118.708727 L105.22844,106.724646 C105.22844,105.085608 103.919691,104 101.943756,104 L79.2846849,104 C77.3087499,104 76,105.085608 76,106.724646 L76,118.708727 C76,120.347764 77.3087499,121.433372 79.2846849,121.433372 L101.943756,121.433372 C103.919691,121.433372 105.22844,120.337138 105.22844,118.708727 Z M80.7851763,116.708727 L80.7851763,108.724646 L100.443264,108.724646 L100.443264,116.708727 L80.7851763,116.708727 Z" id="Fill-2-Copy-11" fill="#00A4A5"></path>
            <path d="M53.2284404,108.708727 L53.2284404,96.7246456 C53.2284404,95.0856078 51.9196906,94 49.9437555,94 L27.2846849,94 C25.3087499,94 24,95.0856078 24,96.7246456 L24,108.708727 C24,110.347764 25.3087499,111.433372 27.2846849,111.433372 L49.9437555,111.433372 C51.9196906,111.433372 53.2284404,110.337138 53.2284404,108.708727 Z M28.7851763,106.708727 L28.7851763,98.7246456 L48.4432641,98.7246456 L48.4432641,106.708727 L28.7851763,106.708727 Z" id="Fill-2-Copy-9" fill="#00A4A5"></path>
            <path d="M213.22844,118.708727 L213.22844,106.724646 C213.22844,105.085608 211.919691,104 209.943756,104 L187.284685,104 C185.30875,104 184,105.085608 184,106.724646 L184,118.708727 C184,120.347764 185.30875,121.433372 187.284685,121.433372 L209.943756,121.433372 C211.919691,121.433372 213.22844,120.337138 213.22844,118.708727 Z M188.785176,116.708727 L188.785176,108.724646 L208.443264,108.724646 L208.443264,116.708727 L188.785176,116.708727 Z" id="Fill-2-Copy-12" fill="#00A4A5"></path>
            <path d="M159.22844,122.708727 L159.22844,110.724646 C159.22844,109.085608 157.919691,108 155.943756,108 L133.284685,108 C131.30875,108 130,109.085608 130,110.724646 L130,122.708727 C130,124.347764 131.30875,125.433372 133.284685,125.433372 L155.943756,125.433372 C157.919691,125.433372 159.22844,124.337138 159.22844,122.708727 Z M134.785176,120.708727 L134.785176,112.724646 L154.443264,112.724646 L154.443264,120.708727 L134.785176,120.708727 Z" id="Fill-2-Copy-13" fill="#00A4A5"></path>
            <path d="M53.6725531,86 L14,86 L14,86 C12.8954305,86 12,86.8954305 12,88 L12,152.519997 L12,152.519997 C12,153.624566 12.8954305,154.519997 14,154.519997 L65,154.519997 L64.8989539,86.0748424 L53.6725531,86 Z" id="Path-2" stroke="#00A4A5" stroke-width="5"></path>
            <path d="M64.9163867,58 L21.5248019,58 L0.227603174,83.9020041 L0.227603174,83.9020041 C-0.123155808,84.3286029 -0.0616754442,84.9587759 0.364923409,85.3095349 C0.543872547,85.4566709 0.768357031,85.5371094 1.00002873,85.5371094 L64.2052248,85.5371094 L64.9163867,58 Z" id="Path-3" stroke="#00A4A5" stroke-width="5"></path>
            <circle id="Oval-3" stroke="#00A4A5" stroke-width="4" cx="144.5" cy="80.5" r="14.5"></circle>
            <path d="M145,67 L145,94.0178515" id="Line" stroke="#00A4A5" stroke-width="4" stroke-linecap="round"></path>
            <path d="M158.017851,81 L131,81" id="Line-Copy-7" stroke="#00A4A5" stroke-width="4" stroke-linecap="round"></path>
        </g>
    </g>
</svg>
