<?xml version="1.0" encoding="UTF-8"?>
<svg width="100px" height="100px" viewBox="0 0 100 100" version="1.1" xmlns="http://www.w3.org/2000/svg" xmlns:xlink="http://www.w3.org/1999/xlink">
    <!-- Generator: Sketch 47.1 (45422) - http://www.bohemiancoding.com/sketch -->
    <title>np_family-house_564880_000000</title>
    <desc>Created with Sketch.</desc>
    <defs></defs>
    <g id="Form-Flow" stroke="none" stroke-width="1" fill="none" fill-rule="evenodd">
        <g id="Personal-Property-Calculator" transform="translate(-545.000000, -416.000000)" fill-rule="nonzero" fill="#000000">
            <g id="Group-10" transform="translate(0.000000, 36.000000)">
                <g id="1-bed-copy-2" transform="translate(492.000000, 253.000000)">
                    <g id="np_family-house_564880_000000" transform="translate(53.000000, 127.000000)">
                        <path d="M99.0909157,30.1198727 L94.1605,7.129 L27.7545,7.129 L27.7545,2.7618 L27.7545,2.7618 C27.7545,1.6572305 26.8590695,0.7618 25.7545,0.7618 L17.0595,0.7618 L17.0595,0.7618 C15.9549305,0.7618 15.0595,1.6572305 15.0595,2.7618 L15.0595,7.1095 L5.8407,7.1095 L0.909860105,30.1204481 L0.909860105,30.1204481 C0.678424145,31.2004996 1.36636294,32.2636702 2.44641441,32.4951062 C2.58414533,32.5246195 2.72460876,32.5395 2.86546628,32.5395 L5.5282,32.5395 L5.5282,96.0745 L2.3544,96.0745 L2.3544,96.0745 C1.47527314,96.0745 0.7626,96.7871731 0.7626,97.6663 L0.7626,97.6663 L0.7626,97.6663 C0.7626,98.5454269 1.47527314,99.2581 2.3544,99.2581 L97.6278,99.2581 L97.6278,99.2581 C98.5069269,99.2581 99.2196,98.5454269 99.2196,97.6663 L99.2196,97.6663 L99.2196,97.6663 C99.2196,96.7871731 98.5069269,96.0745 97.6278,96.0745 L94.454,96.0745 L94.454,32.5395 L97.1355711,32.5392399 L97.1355711,32.5392399 C98.2401406,32.5391328 99.1354843,31.6436155 99.1353771,30.539046 C99.1353635,30.3981455 99.1204603,30.2576409 99.0909157,30.1198727 Z M18.243,3.945 L24.5907,3.945 L24.5907,7.1286 L18.243,7.1286 L18.243,3.945 Z M4.317,29.355 L8.399,10.293 L91.602,10.293 L95.684,29.355 L4.317,29.355 Z M37.286,96.054 L37.286,69.062 L48.399,69.062 L48.399,96.054 L37.286,96.054 Z M51.583,96.054 L51.583,69.062 L62.696,69.062 L62.696,96.054 L51.583,96.054 Z M91.29,96.054 L65.88,96.054 L65.88,67.878 L65.88,67.878 C65.88,66.7734305 64.9845695,65.878 63.88,65.878 L36.122,65.878 L36.122,65.878 C35.0174305,65.878 34.122,66.7734305 34.122,67.878 L34.122,96.054 L8.712,96.054 L8.712,32.538 L91.29,32.538 L91.29,96.054 Z" id="Shape"></path>
                        <path d="M25.773,37.285 L17.058,37.285 L17.058,37.285 C15.9534305,37.285 15.058,38.1804305 15.058,39.285 L15.058,44.8162 L15.058,44.8162 C15.058,45.9207695 15.9534305,46.8162 17.058,46.8162 L25.773,46.8162 L25.773,46.8162 C26.8775695,46.8162 27.773,45.9207695 27.773,44.8162 L27.773,39.285 L27.773,39.285 C27.773,38.1804305 26.8775695,37.285 25.773,37.285 Z M24.5894,43.6522 L18.2417,43.6522 L18.2417,40.4686 L24.5894,40.4686 L24.5894,43.6522 Z" id="Shape"></path>
                        <path d="M44.816,37.285 L36.101,37.285 L36.101,37.285 C34.9964305,37.285 34.101,38.1804305 34.101,39.285 L34.101,44.8162 L34.101,44.8162 C34.101,45.9207695 34.9964305,46.8162 36.101,46.8162 L44.816,46.8162 L44.816,46.8162 C45.9205695,46.8162 46.816,45.9207695 46.816,44.8162 L46.816,39.285 L46.816,39.285 C46.816,38.1804305 45.9205695,37.285 44.816,37.285 Z M43.6519,43.6522 L37.3042,43.6522 L37.3042,40.4686 L43.6519,40.4686 L43.6519,43.6522 Z" id="Shape"></path>
                        <path d="M63.879,37.285 L55.164,37.285 L55.164,37.285 C54.0594305,37.285 53.164,38.1804305 53.164,39.285 L53.164,44.8162 L53.164,44.8162 C53.164,45.9207695 54.0594305,46.8162 55.164,46.8162 L63.879,46.8162 L63.879,46.8162 C64.9835695,46.8162 65.879,45.9207695 65.879,44.8162 L65.879,39.285 L65.879,39.285 C65.879,38.1804305 64.9835695,37.285 63.879,37.285 Z M62.7149,43.6522 L56.3672,43.6522 L56.3672,40.4686 L62.7149,40.4686 L62.7149,43.6522 Z" id="Shape"></path>
                        <path d="M82.941,37.285 L74.226,37.285 L74.226,37.285 C73.1214305,37.285 72.226,38.1804305 72.226,39.285 L72.226,44.8162 L72.226,44.8162 C72.226,45.9207695 73.1214305,46.8162 74.226,46.8162 L82.941,46.8162 L82.941,46.8162 C84.0455695,46.8162 84.941,45.9207695 84.941,44.8162 L84.941,39.285 L84.941,39.285 C84.941,38.1804305 84.0455695,37.285 82.941,37.285 Z M81.7574,43.6522 L75.4097,43.6522 L75.4097,40.4686 L81.7574,40.4686 L81.7574,43.6522 Z" id="Shape"></path>
                        <path d="M25.773,51.582 L17.058,51.582 L17.058,51.582 C15.9534305,51.582 15.058,52.4774305 15.058,53.582 L15.058,59.1132 L15.058,59.1132 C15.058,60.2177695 15.9534305,61.1132 17.058,61.1132 L25.773,61.1132 L25.773,61.1132 C26.8775695,61.1132 27.773,60.2177695 27.773,59.1132 L27.773,53.582 L27.773,53.582 C27.773,52.4774305 26.8775695,51.582 25.773,51.582 Z M24.5894,57.9492 L18.2417,57.9492 L18.2417,54.7656 L24.5894,54.7656 L24.5894,57.9492 Z" id="Shape"></path>
                        <path d="M44.816,51.582 L36.101,51.582 L36.101,51.582 C34.9964305,51.582 34.101,52.4774305 34.101,53.582 L34.101,59.1132 L34.101,59.1132 C34.101,60.2177695 34.9964305,61.1132 36.101,61.1132 L44.816,61.1132 L44.816,61.1132 C45.9205695,61.1132 46.816,60.2177695 46.816,59.1132 L46.816,53.582 L46.816,53.582 C46.816,52.4774305 45.9205695,51.582 44.816,51.582 Z M43.6519,57.9492 L37.3042,57.9492 L37.3042,54.7656 L43.6519,54.7656 L43.6519,57.9492 Z" id="Shape"></path>
                        <path d="M63.879,51.582 L55.164,51.582 L55.164,51.582 C54.0594305,51.582 53.164,52.4774305 53.164,53.582 L53.164,59.1132 L53.164,59.1132 C53.164,60.2177695 54.0594305,61.1132 55.164,61.1132 L63.879,61.1132 L63.879,61.1132 C64.9835695,61.1132 65.879,60.2177695 65.879,59.1132 L65.879,53.582 L65.879,53.582 C65.879,52.4774305 64.9835695,51.582 63.879,51.582 Z M62.7149,57.9492 L56.3672,57.9492 L56.3672,54.7656 L62.7149,54.7656 L62.7149,57.9492 Z" id="Shape"></path>
                        <path d="M82.941,51.582 L74.226,51.582 L74.226,51.582 C73.1214305,51.582 72.226,52.4774305 72.226,53.582 L72.226,59.1132 L72.226,59.1132 C72.226,60.2177695 73.1214305,61.1132 74.226,61.1132 L82.941,61.1132 L82.941,61.1132 C84.0455695,61.1132 84.941,60.2177695 84.941,59.1132 L84.941,53.582 L84.941,53.582 C84.941,52.4774305 84.0455695,51.582 82.941,51.582 Z M81.7574,57.9492 L75.4097,57.9492 L75.4097,54.7656 L81.7574,54.7656 L81.7574,57.9492 Z" id="Shape"></path>
                        <path d="M25.773,72.227 L17.058,72.227 L17.058,72.227 C15.9534305,72.227 15.058,73.1224305 15.058,74.227 L15.058,86.106 L15.058,86.106 C15.058,87.2105695 15.9534305,88.106 17.058,88.106 L25.773,88.106 L25.773,88.106 C26.8775695,88.106 27.773,87.2105695 27.773,86.106 L27.773,74.227 L27.773,74.227 C27.773,73.1224305 26.8775695,72.227 25.773,72.227 Z M24.5894,84.942 L18.2417,84.942 L18.2417,75.4108 L24.5894,75.4108 L24.5894,84.942 Z" id="Shape"></path>
                        <path d="M82.941,72.227 L74.226,72.227 L74.226,72.227 C73.1214305,72.227 72.226,73.1224305 72.226,74.227 L72.226,86.106 L72.226,86.106 C72.226,87.2105695 73.1214305,88.106 74.226,88.106 L82.941,88.106 L82.941,88.106 C84.0455695,88.106 84.941,87.2105695 84.941,86.106 L84.941,74.227 L84.941,74.227 C84.941,73.1224305 84.0455695,72.227 82.941,72.227 Z M81.7574,84.942 L75.4097,84.942 L75.4097,75.4108 L81.7574,75.4108 L81.7574,84.942 Z" id="Shape"></path>
                    </g>
                </g>
            </g>
        </g>
    </g>
</svg>