<?xml version="1.0" encoding="UTF-8"?>
<svg width="117px" height="146px" viewBox="0 0 117 146" version="1.1" xmlns="http://www.w3.org/2000/svg" xmlns:xlink="http://www.w3.org/1999/xlink">
    <!-- Generator: Sketch 44.1 (41455) - http://www.bohemiancoding.com/sketch -->
    <title>Shape</title>
    <desc>Created with Sketch.</desc>
    <defs></defs>
    <g id="Page-1" stroke="none" stroke-width="1" fill="none" fill-rule="evenodd">
        <g id="Group-60-Copy-4" transform="translate(1.000000, 1.000000)" stroke="#FFFFFF" stroke-width="1.5" fill="#00A4A5" fill-rule="nonzero">
            <path d="M95.59375,28.183001 L94.6354167,26.0244932 L94.6354167,26.0244932 C94.3958333,21.227809 93.1979167,16.9107933 90.8020833,13.3132803 C85.2916667,4.67924884 74.03125,0.362233133 57.5,0.362233133 C40.96875,0.362233133 29.7083333,4.67924884 24.4375,13.073446 C22.0416667,16.9107933 20.84375,21.227809 20.6041667,25.784659 L20.6041667,25.784659 L19.6458333,27.9431668 C9.34375,48.0892401 0,94.1374077 0,110.685968 C0,111.40547 0.239583333,111.885139 0.71875,112.364807 C2.63541667,114.283481 7.42708333,116.441989 12.9375,116.441989 C13.8958333,116.441989 15.09375,116.441989 16.0520833,116.202155 C14.6145833,126.275191 15.8125,133.470217 19.8854167,138.266902 C28.9895833,148.579772 48.3958333,142.583917 57.2604167,139.705907 C62.53125,141.384746 71.15625,144.262757 79.3020833,144.262757 C85.2916667,144.262757 90.8020833,142.823751 94.6354167,138.506736 C98.7083333,133.710052 100.145833,126.515025 98.46875,116.441989 C99.6666667,116.681823 100.625,116.681823 101.583333,116.681823 C107.09375,116.681823 111.885417,114.523315 113.802083,112.604642 C114.28125,112.124973 114.520833,111.645305 114.520833,110.925802 C115,94.1374077 105.65625,48.0892401 95.59375,28.183001 Z M79.5416667,63.4386293 C75.46875,65.8369714 70.4375,67.0361424 65.8854167,67.2759766 C74.5104167,60.3207846 82.65625,49.7680796 88.1666667,40.4145455 C86.25,48.0892401 82.8958333,56.2436031 79.5416667,63.4386293 Z M79.0625,73.2718317 C72.59375,77.109179 63.96875,77.109179 57.5,77.109179 C51.03125,77.109179 42.40625,77.109179 35.9375,73.2718317 L35.9375,68.954816 C43.125,72.0726607 51.2708333,72.0726607 57.5,72.0726607 L57.5,72.0726607 L57.5,72.0726607 C57.5,72.0726607 57.5,72.0726607 57.5,72.0726607 C63.7291667,72.0726607 71.875,72.0726607 79.0625,68.954816 L79.0625,73.2718317 Z M27.0729167,40.4145455 C32.5833333,49.7680796 40.7291667,60.3207846 49.3541667,67.2759766 C44.5625,66.7963082 39.53125,65.8369714 35.6979167,63.4386293 C32.1041667,56.2436031 28.9895833,48.0892401 27.0729167,40.4145455 Z M57.5,41.8535508 C48.875,29.3821721 48.3958333,24.1058195 49.3541667,21.9473117 C50.3125,20.028638 53.6666667,19.5489696 56.78125,19.5489696 C57.0208333,19.5489696 57.2604167,19.5489696 57.5,19.5489696 C60.6145833,19.5489696 64.4479167,19.7888038 65.40625,21.9473117 C66.84375,24.1058195 66.125,29.3821721 57.5,41.8535508 Z M28.5104167,15.7116223 C32.8229167,8.75643034 42.6458333,5.15891725 57.5,5.15891725 C72.3541667,5.15891725 82.1770833,8.75643034 86.7291667,15.7116223 C88.6458333,18.5896328 89.6041667,22.1871459 89.84375,26.0244932 L88.8854167,28.183001 C84.8125,38.2560377 74.03125,54.8045979 62.53125,63.6784635 C63.4895833,59.3614478 63.4895833,53.3655926 60.1354167,46.1705665 C69.4791667,32.9796851 72.59375,24.8253221 69.71875,19.7888038 C68.0416667,16.1912907 63.96875,14.5124513 57.5,14.7522855 C51.03125,14.5124513 46.9583333,16.1912907 45.0416667,19.7888038 C42.1666667,25.0651563 45.28125,33.4593536 55.34375,47.1299033 C59.8958333,56.4834373 57.9791667,63.4386293 56.5416667,66.556474 C43.84375,58.8817794 30.6666667,39.4552087 26.1145833,28.183001 L25.15625,26.0244932 C25.6354167,22.1871459 26.59375,18.5896328 28.5104167,15.7116223 Z M4.79166667,109.486797 C5.27083333,94.3772419 12.6979167,56.7232715 21.0833333,35.8576956 C22.0416667,42.3332192 24.1979167,49.0485769 26.8333333,55.7639347 L26.3541667,57.2029399 C23.9583333,64.6378003 17.0104167,89.8203919 16.7708333,111.40547 C11.7395833,112.364807 6.94791667,110.925802 4.79166667,109.486797 Z M29.9479167,62.7191267 C30.4270833,63.6784635 30.90625,64.6378003 31.3854167,65.8369714 L31.3854167,74.4710028 C28.2708333,80.7066921 25.875,86.4627131 23.71875,91.9788998 C25.15625,79.9871895 28.03125,68.954816 29.9479167,62.7191267 Z M23.71875,135.149057 C18.9270833,129.63287 17.0104167,115.242818 34.5,78.0685159 C40.96875,81.4261947 48.6354167,81.9058632 55.1041667,81.9058632 L55.1041667,135.388891 C47.1979167,138.027067 30.4270833,142.823751 23.71875,135.149057 Z M91.28125,135.149057 C84.5729167,142.823751 67.8020833,138.027067 59.8958333,135.388891 L59.8958333,81.9058632 C66.125,81.9058632 73.7916667,81.4261947 80.5,78.0685159 C97.9895833,115.242818 96.0729167,129.63287 91.28125,135.149057 Z M83.8541667,74.2311686 L83.8541667,65.5971371 C84.3333333,64.6378003 84.8125,63.6784635 85.2916667,62.4792925 C87.2083333,68.954816 89.84375,79.7473553 91.7604167,91.4992314 C89.3645833,86.2228789 86.96875,80.4668579 83.8541667,74.2311686 Z M98.2291667,111.165636 C97.75,89.5805577 91.0416667,64.3979661 88.6458333,56.9631057 L88.1666667,55.5241005 C90.8020833,49.0485769 92.9583333,42.093385 93.9166667,35.6178614 C102.302083,56.4834373 109.96875,94.1374077 110.208333,109.246963 C108.052083,110.925802 103.260417,112.364807 98.2291667,111.165636 Z" id="Shape"></path>
        </g>
    </g>
</svg>