<?xml version="1.0" encoding="UTF-8"?>
<svg width="45px" height="49px" viewBox="0 0 45 49" version="1.1" xmlns="http://www.w3.org/2000/svg" xmlns:xlink="http://www.w3.org/1999/xlink">
    <!-- Generator: Sketch 47.1 (45422) - http://www.bohemiancoding.com/sketch -->
    <title>golf-equipment copy</title>
    <desc>Created with Sketch.</desc>
    <defs></defs>
    <g id="Form-Flows/Comparison" stroke="none" stroke-width="1" fill="none" fill-rule="evenodd">
        <g id="golf-equipment-copy" fill-rule="nonzero" fill="#2B2727">
            <path d="M9.73596774,46.4385484 C10.2028258,46.9035194 10.9588548,46.9054065 11.4257419,46.4385484 L32.0449355,25.8174194 C32.3605839,25.5036581 32.3605839,24.9914516 32.0449355,24.6776613 L24.0271935,16.6579839 C23.7115452,16.3442226 23.2012258,16.3442226 22.8855484,16.6579839 L2.26441887,37.2791129 C1.7994479,37.7440839 1.7994479,38.502 2.26441887,38.967 L9.73596774,46.4385484 Z M10.5808548,48.4004995 C9.86259677,48.4004995 9.14245161,48.1264304 8.59620968,47.578306 L1.12475806,40.1068548 C0.0303870968,39.014371 0.0303870968,37.233871 1.12475806,36.1395 L21.7458871,15.518371 C22.6890484,14.5733226 24.2238387,14.5733226 25.167,15.518371 L33.1866774,23.5361129 C34.1298387,24.4792742 34.1298387,26.0159516 33.1866774,26.9591129 L12.5655484,47.5783055 C12.0174194,48.1264345 11.2991613,48.400499 10.5809032,48.400499 L10.5808548,48.4004995 Z" id="Fill-1"></path>
            <path d="M28.6069355,20.9027419 C28.4009129,20.9027419 28.1929984,20.8252452 28.0361129,20.6664774 C27.7204645,20.350829 27.7204645,19.8423968 28.0361129,19.5267194 L40.2669194,7.2959129 C40.5825677,6.98026452 41.0928871,6.98026452 41.4085645,7.2959129 C41.7223258,7.61156129 41.7223258,8.11999355 41.4085645,8.43567097 L29.1758226,20.6664774 C29.0189419,20.8252452 28.8129194,20.9027419 28.6068871,20.9027419" id="Fill-2"></path>
            <path d="M38.3356452,8.08596774 C38.6512935,8.40161613 39.1616129,8.40161613 39.4772903,8.08596774 L41.0593065,6.50395161 C41.3730677,6.19019032 41.3730677,5.67798387 41.0593065,5.36419355 L37.5455806,1.85046774 C37.2299323,1.53859839 36.7196129,1.53670645 36.4039355,1.85046774 L34.8238065,3.43248387 C34.6707048,3.58558548 34.5875419,3.78782903 34.5875419,4.00330645 C34.5875419,4.21877903 34.6707097,4.41913065 34.8238065,4.57224194 L38.3356452,8.08596774 Z M38.9064677,9.9345 C38.2865323,9.9345 37.6684355,9.69823548 37.1958871,9.22572581 L33.6821613,5.7138871 C33.2266403,5.25647903 32.9752742,4.64975806 32.9752742,4.00330645 C32.9752742,3.35690323 33.2266597,2.74824194 33.6821613,2.29083871 L35.2641774,0.710709677 C36.2073387,-0.232451613 37.742129,-0.232451613 38.6852903,0.710709677 L42.1990161,4.22254839 C43.1421774,5.16759677 43.1421774,6.7005 42.1990161,7.64554839 L40.617,9.22567742 C40.1463581,9.69820645 39.5264032,9.93445161 38.9064194,9.93445161 L38.9064677,9.9345 Z" id="Fill-3"></path>
            <path d="M26.0308065,18.3285484 C25.8247839,18.3285484 25.6187613,18.2491645 25.461871,18.0922839 C25.1462226,17.7766355 25.1462226,17.2663161 25.461871,16.9506387 L31.2552581,11.1572516 C31.5709065,10.8416032 32.0812258,10.8416032 32.3950161,11.1572516 C32.7106645,11.4729 32.7106645,11.9832194 32.3950161,12.2970097 L26.601629,18.0923323 C26.4447484,18.2492129 26.2368339,18.3285968 26.0308065,18.3285968" id="Fill-4"></path>
            <path d="M29.3235484,11.9472581 C29.6373097,12.2647984 30.1514032,12.2629065 30.4651935,11.9472581 L32.0453226,10.367129 C32.1984242,10.2140274 32.2815871,10.0117839 32.2815871,9.79630645 C32.2815871,9.58083387 32.1984194,9.37859032 32.0453226,9.22548387 L28.5334839,5.71364516 C28.2197226,5.39988387 27.705629,5.39799677 27.3918387,5.71364516 L25.8117097,7.29566129 C25.4960613,7.60942258 25.4960613,8.12162903 25.8117097,8.43541935 L29.3235484,11.9472581 Z M29.894371,13.7957903 C29.2744355,13.7957903 28.6544516,13.5614129 28.1837903,13.0907903 L28.1837903,13.0888984 L24.6700645,9.57705968 C23.7269032,8.63201129 23.7269032,7.09722097 24.6700645,6.15405968 L26.2520806,4.57204355 C27.1952419,3.63076935 28.7300323,3.63265645 29.6731935,4.57204355 L33.1869194,8.08576935 C33.6424403,8.54317742 33.8956935,9.14989839 33.8956935,9.79635 C33.8956935,10.4427532 33.6424161,11.0514145 33.1869194,11.5069306 L31.6049032,13.0889468 C31.1323742,13.5595887 30.5143065,13.7958339 29.8943226,13.7958339 L29.894371,13.7957903 Z" id="Fill-5"></path>
            <path d="M31.181129,23.478871 C30.9751065,23.478871 30.7671919,23.3994871 30.6103065,23.2426065 C30.2946581,22.9269581 30.2946581,22.4166387 30.6103065,22.1009613 L36.405629,16.3075742 C36.7193903,15.9919258 37.2297097,15.9919258 37.5453871,16.3075742 C37.8610645,16.6232226 37.8610355,17.1335419 37.5453871,17.4473323 L31.752,23.2426548 C31.5932323,23.3995355 31.3872048,23.4789194 31.1811774,23.4789194" id="Fill-6"></path>
            <path d="M38.906129,16.4216129 C38.7001065,16.4216129 38.4921919,16.5009968 38.3353065,16.6578774 L36.7551774,18.2398935 C36.6020758,18.3911032 36.5189129,18.5952387 36.5189129,18.808829 C36.5189129,19.0261935 36.6020806,19.2265452 36.7551774,19.3796516 L40.2670161,22.8933774 C40.5732145,23.1976887 41.1024677,23.1976887 41.4086613,22.8933774 L42.9887903,21.3113613 C43.3044387,20.9976 43.3044387,20.4853935 42.9887903,20.1697161 L39.4769516,16.6578774 C39.320071,16.5009968 39.1140484,16.4216129 38.906129,16.4216129 M40.8378387,24.7417742 C40.1914355,24.7417742 39.5827742,24.4903887 39.125371,24.033 L35.6135323,20.5192742 C35.1580113,20.0637532 34.9047581,19.4570323 34.9047581,18.8086935 C34.9047581,18.1641774 35.1580355,17.5555645 35.6135323,17.0981129 L37.1955484,15.5179839 C38.1405968,14.5729355 39.6753871,14.5748226 40.6166613,15.5179839 L44.1303871,19.0298226 C44.5859081,19.4872306 44.8372742,20.0958387 44.8372742,20.7404032 C44.8372742,21.3868065 44.5858887,21.9954677 44.1303871,22.452871 L42.548371,24.033 C42.0909629,24.4904081 41.4842419,24.7417742 40.8377903,24.7417742" id="Fill-7"></path>
            <path d="M7.21451613,32.3283871 L11.9416935,37.0555645 C12.2460048,37.3598758 12.7771452,37.3598758 13.0814516,37.0555645 L22.3882258,27.7487903 C22.5413274,27.5956887 22.6244903,27.3934452 22.6244903,27.1779677 C22.6244903,26.9624952 22.5413274,26.7621387 22.3882258,26.6090323 L17.6610484,21.8799677 L7.21451613,32.3283871 Z M12.5124194,38.9041935 C11.8660161,38.9041935 11.2573548,38.6528081 10.7999516,38.1954194 L5.50398387,32.8994516 C5.35277419,32.7482419 5.26771935,32.5422194 5.26771935,32.328629 C5.26771935,32.1131565 5.35277419,31.909021 5.50398387,31.7578065 L17.0922097,20.1695806 C17.2434194,20.018371 17.4475548,19.9333161 17.6611452,19.9333161 C17.8766177,19.9333161 18.0807532,20.018371 18.2319677,20.1695806 L23.5279355,25.4674839 C23.9853435,25.9248919 24.2367097,26.5316129 24.2367097,27.1780645 C24.2367097,27.8244677 23.9853242,28.433129 23.5279355,28.8886452 L14.2230968,38.1954194 C13.7656887,38.6528274 13.1570806,38.9041935 12.5125161,38.9041935 L12.5124194,38.9041935 Z" id="Fill-8"></path>
            <path d="M14.9395161,24.603871 L20.2374194,29.8998387 L22.388371,27.7488871 C22.5414726,27.5957855 22.6246355,27.3935419 22.6246355,27.1780645 C22.6246355,26.9625919 22.5414726,26.7622355 22.388371,26.609129 L17.6611935,21.8800645 L14.9395161,24.603871 Z M20.2374194,31.8469355 C20.0295048,31.8469355 19.8253742,31.7694387 19.6665968,31.610671 L13.2286935,25.1727677 C12.9149323,24.8590065 12.9149323,24.3486871 13.2286935,24.0330097 L17.0921129,20.1695903 C17.3945323,19.867171 17.9294516,19.867171 18.231871,20.1695903 L23.5278387,25.4674935 C23.9852468,25.9249016 24.2366129,26.5316226 24.2366129,27.1780742 C24.2366129,27.8244774 23.9852274,28.4331387 23.5278387,28.8886548 L20.8060645,31.610429 C20.6491839,31.7691968 20.4431613,31.8466935 20.237129,31.8466935 L20.2374194,31.8469355 Z" id="Fill-9"></path>
            <path d="M23.8703226,48.3870968 C23.7833758,48.3870968 23.69265,48.3719758 23.6057032,48.3417339 C23.1842081,48.1961952 22.9630742,47.7368952 23.1105097,47.3153952 L29.5614774,28.7676532 C29.7070161,28.3461581 30.1700903,28.1250242 30.5878161,28.2705726 C31.0093113,28.4161113 31.2304452,28.8772984 31.0830097,29.2969113 L24.6320419,47.8446532 C24.5167452,48.1773145 24.2048758,48.387121 23.8703323,48.387121" id="Fill-10"></path>
            <path d="M36.7741935,48.3870968 C36.4396403,48.3870968 36.1277903,48.1772952 36.0124839,47.844629 L29.5615161,29.2968871 C29.4140855,28.877279 29.637121,28.4160968 30.0585968,28.2705484 C30.4744258,28.1250097 30.9375,28.3461532 31.0830484,28.767629 L37.5359516,47.315371 C37.6814903,47.7368661 37.4603468,48.1961613 37.038871,48.3417097 C36.9519242,48.3719516 36.8630903,48.3870726 36.7742516,48.3870726" id="Fill-11"></path>
        </g>
    </g>
</svg>