<?xml version="1.0" encoding="UTF-8"?>
<svg width="93px" height="101px" viewBox="0 0 93 101" version="1.1" xmlns="http://www.w3.org/2000/svg" xmlns:xlink="http://www.w3.org/1999/xlink">
    <!-- Generator: Sketch 43.2 (39069) - http://www.bohemiancoding.com/sketch -->
    <title>Page 1</title>
    <desc>Created with Sketch.</desc>
    <defs></defs>
    <g id="Page-1" stroke="none" stroke-width="1" fill="none" fill-rule="evenodd">
        <g fill="#4D4D4D">
            <path d="M20.121,95.973 C21.08584,96.93394 22.6483,96.93784 23.6132,95.973 L66.2262,53.356 C66.87854,52.70756 66.87854,51.649 66.2262,51.0005 L49.6562,34.4265 C49.00386,33.77806 47.9492,33.77806 47.2968,34.4265 L4.679799,77.0435 C3.718859,78.00444 3.718859,79.5708 4.679799,80.5318 L20.121,95.973 Z M21.8671,100.027699 C20.3827,100.027699 18.8944,99.4612895 17.7655,98.328499 L2.3245,82.8875 C0.0628,80.6297 0.0628,76.95 2.3245,74.6883 L44.9415,32.0713 C46.8907,30.1182 50.0626,30.1182 52.0118,32.0713 L68.5858,48.6413 C70.535,50.5905 70.535,53.7663 68.5858,55.7155 L25.9688,98.328498 C24.836,99.461298 23.3516,100.027698 21.8672,100.027698 L21.8671,100.027699 Z" id="Fill-1"></path>
            <path d="M59.121,43.199 C58.69522,43.199 58.26553,43.03884 57.9413,42.71072 C57.28896,42.05838 57.28896,41.00762 57.9413,40.35522 L83.2183,15.07822 C83.87064,14.42588 84.9253,14.42588 85.5777,15.07822 C86.22614,15.73056 86.22614,16.78132 85.5777,17.43372 L60.2967,42.71072 C59.97248,43.03884 59.5467,43.199 59.1209,43.199" id="Fill-2"></path>
            <path d="M79.227,16.711 C79.87934,17.36334 80.934,17.36334 81.5864,16.711 L84.8559,13.4415 C85.50434,12.79306 85.50434,11.7345 84.8559,11.086 L77.5942,3.8243 C76.94186,3.17977 75.8872,3.17586 75.2348,3.8243 L71.9692,7.0938 C71.65279,7.41021 71.48092,7.82818 71.48092,8.2735 C71.48092,8.71881 71.6528,9.13287 71.9692,9.4493 L79.227,16.711 Z M80.4067,20.5313 C79.1255,20.5313 77.8481,20.04302 76.8715,19.0665 L69.6098,11.8087 C68.66839,10.86339 68.1489,9.6095 68.1489,8.2735 C68.1489,6.9376 68.66843,5.6797 69.6098,4.7344 L72.8793,1.4688 C74.8285,-0.4804 78.0004,-0.4804 79.9496,1.4688 L87.2113,8.7266 C89.1605,10.6797 89.1605,13.8477 87.2113,15.8008 L83.9418,19.0664 C82.96914,20.04296 81.6879,20.5312 80.4066,20.5312 L80.4067,20.5313 Z" id="Fill-3"></path>
            <path d="M53.797,37.879 C53.37122,37.879 52.94544,37.71494 52.6212,37.39072 C51.96886,36.73838 51.96886,35.68372 52.6212,35.03132 L64.5942,23.05832 C65.24654,22.40598 66.3012,22.40598 66.9497,23.05832 C67.60204,23.71066 67.60204,24.76532 66.9497,25.41382 L54.9767,37.39082 C54.65248,37.71504 54.22279,37.8791 53.797,37.8791" id="Fill-4"></path>
            <path d="M60.602,24.691 C61.25044,25.34725 62.3129,25.34334 62.9614,24.691 L66.227,21.4254 C66.54341,21.10899 66.71528,20.69102 66.71528,20.2457 C66.71528,19.80039 66.5434,19.38242 66.227,19.066 L58.9692,11.8082 C58.32076,11.15976 57.2583,11.15586 56.6098,11.8082 L53.3442,15.0777 C52.69186,15.72614 52.69186,16.7847 53.3442,17.4332 L60.602,24.691 Z M61.7817,28.5113 C60.5005,28.5113 59.2192,28.02692 58.2465,27.0543 L58.2465,27.05039 L50.9848,19.79259 C49.0356,17.83949 49.0356,14.66759 50.9848,12.71839 L54.2543,9.44889 C56.2035,7.50359 59.3754,7.50749 61.3246,9.44889 L68.5863,16.71059 C69.52771,17.6559 70.0511,18.90979 70.0511,20.24579 C70.0511,21.58169 69.52766,22.83959 68.5863,23.78099 L65.3168,27.05049 C64.34024,28.02315 63.0629,28.51139 61.7816,28.51139 L61.7817,28.5113 Z" id="Fill-5"></path>
            <path d="M64.441,48.523 C64.01522,48.523 63.58553,48.35894 63.2613,48.03472 C62.60896,47.38238 62.60896,46.32772 63.2613,45.67532 L75.2383,33.70232 C75.88674,33.04998 76.9414,33.04998 77.5938,33.70232 C78.2462,34.35466 78.24614,35.40932 77.5938,36.05782 L65.6208,48.03482 C65.29268,48.35904 64.86689,48.5231 64.4411,48.5231" id="Fill-6"></path>
            <path d="M80.406,33.938 C79.98022,33.938 79.55053,34.10206 79.2263,34.42628 L75.9607,37.69578 C75.64429,38.00828 75.47242,38.43016 75.47242,38.87158 C75.47242,39.3208 75.6443,39.73486 75.9607,40.05128 L83.2185,47.31298 C83.85131,47.94189 84.9451,47.94189 85.5779,47.31298 L88.8435,44.04348 C89.49584,43.39504 89.49584,42.33648 88.8435,41.68408 L81.5857,34.42628 C81.26148,34.10206 80.8357,33.938 80.406,33.938 M84.3982,51.133 C83.0623,51.133 81.8044,50.61347 80.8591,49.6682 L73.6013,42.4065 C72.65989,41.46509 72.1365,40.2112 72.1365,38.8713 C72.1365,37.5393 72.65994,36.2815 73.6013,35.3361 L76.8708,32.0705 C78.8239,30.1174 81.9958,30.1213 83.9411,32.0705 L91.2028,39.3283 C92.14421,40.27361 92.6637,41.5314 92.6637,42.8635 C92.6637,44.1994 92.14417,45.4573 91.2028,46.4026 L87.9333,49.6682 C86.98799,50.61351 85.7341,51.133 84.3981,51.133" id="Fill-7"></path>
            <path d="M14.91,66.812 L24.6795,76.5815 C25.30841,77.21041 26.4061,77.21041 27.035,76.5815 L46.269,57.3475 C46.58541,57.03109 46.75728,56.61312 46.75728,56.1678 C46.75728,55.72249 46.58541,55.30842 46.269,54.992 L36.4995,45.2186 L14.91,66.812 Z M25.859,80.402 C24.5231,80.402 23.2652,79.88247 22.3199,78.9372 L11.3749,67.9922 C11.0624,67.6797 10.88662,67.25392 10.88662,66.8125 C10.88662,66.36719 11.0624,65.94531 11.3749,65.6328 L35.3239,41.6838 C35.6364,41.3713 36.05828,41.19552 36.4997,41.19552 C36.94501,41.19552 37.36689,41.3713 37.6794,41.6838 L48.6244,52.6328 C49.56971,53.57811 50.0892,54.832 50.0892,56.168 C50.0892,57.5039 49.56967,58.7618 48.6244,59.7032 L29.3944,78.9372 C28.44909,79.88251 27.1913,80.402 25.8592,80.402 L25.859,80.402 Z" id="Fill-8"></path>
            <path d="M30.875,50.848 L41.824,61.793 L46.2693,57.3477 C46.58571,57.03129 46.75758,56.61332 46.75758,56.168 C46.75758,55.72269 46.58571,55.30862 46.2693,54.9922 L36.4998,45.2188 L30.875,50.848 Z M41.824,65.817 C41.39431,65.817 40.97244,65.65684 40.6443,65.32872 L27.3393,52.02372 C26.69086,51.37528 26.69086,50.32062 27.3393,49.66822 L35.3237,41.68382 C35.9487,41.05882 37.0542,41.05882 37.6792,41.68382 L48.6242,52.63282 C49.56951,53.57813 50.089,54.83202 50.089,56.16802 C50.089,57.50392 49.56947,58.76182 48.6242,59.70322 L42.9992,65.32822 C42.67498,65.65634 42.2492,65.8165 41.8234,65.8165 L41.824,65.817 Z" id="Fill-9"></path>
            <path d="M49.332,100 C49.15231,100 48.96481,99.96875 48.78512,99.90625 C47.91403,99.60547 47.45702,98.65625 47.76172,97.78515 L61.09372,59.45315 C61.3945,58.58206 62.35152,58.12505 63.21482,58.42585 C64.08591,58.72663 64.54292,59.67975 64.23822,60.54695 L50.90622,98.87895 C50.66794,99.56645 50.02341,100.00005 49.33202,100.00005" id="Fill-10"></path>
            <path d="M76,100 C75.30859,100 74.6641,99.56641 74.4258,98.8789 L61.0938,60.5469 C60.78911,59.67971 61.25005,58.7266 62.1211,58.4258 C62.98048,58.12502 63.9375,58.58205 64.2383,59.4531 L77.5743,97.7851 C77.87508,98.65619 77.41805,99.6054001 76.547,99.9062 C76.36731,99.9687 76.18372,99.9999501 76.00012,99.9999501" id="Fill-11"></path>
        </g>
    </g>
</svg>