<svg xmlns:dc="http://purl.org/dc/elements/1.1/" xmlns:cc="http://creativecommons.org/ns#" xmlns:rdf="http://www.w3.org/1999/02/22-rdf-syntax-ns#" xmlns:svg="http://www.w3.org/2000/svg" xmlns="http://www.w3.org/2000/svg" xmlns:sodipodi="http://sodipodi.sourceforge.net/DTD/sodipodi-0.dtd" xmlns:inkscape="http://www.inkscape.org/namespaces/inkscape" version="1.1" x="0px" y="0px" viewBox="0 0 100 100"><g transform="translate(0,-952.36218)"><path style="color:#000000;enable-background:accumulate;" d="m 50,965.36219 c -20.4345,0 -37,16.5656 -37,37.00001 0,20.4345 16.5655,37 37,37 20.4345,0 37,-16.5655 37,-37 0,-20.43441 -16.5655,-37.00001 -37,-37.00001 z m -14,18 c 3.866,0 7,3.134 7,7 0,3.866 -3.134,7 -7,7 -3.8661,0 -7,-3.134 -7,-7 0,-3.866 3.1339,-7 7,-7 z m 29,0 c 3.866,0 7,3.134 7,7 0,3.866 -3.134,7 -7,7 -3.8661,0 -7,-3.134 -7,-7 0,-3.866 3.1339,-7 7,-7 z m 3.9688,27.93751 a 2.0001999,2.0001999 0 0 1 1.75,3.1875 c -4.5429,6.5571 -12.1171,10.875 -20.6563,10.875 -8.5393,0 -16.0822,-4.3179 -20.625,-10.875 a 2.0001999,2.0001999 0 0 1 1.375,-3.1562 2.0001999,2.0001999 0 0 1 1.9063,0.875 c 3.8289,5.5266 10.1458,9.1562 17.3437,9.1562 7.1978,0 13.546,-3.6296 17.375,-9.1562 a 2.0001999,2.0001999 0 0 1 1.5313,-0.9063 z" fill="#000000" stroke="none" marker="none" visibility="visible" display="inline" overflow="visible"></path></g></svg>
