<?xml version="1.0" encoding="UTF-8"?>
<svg width="16px" height="16px" viewBox="0 0 16 16" version="1.1" xmlns="http://www.w3.org/2000/svg" xmlns:xlink="http://www.w3.org/1999/xlink">
    <!-- Generator: Sketch 46.2 (44496) - http://www.bohemiancoding.com/sketch -->
    <title>good (2)</title>
    <desc>Created with Sketch.</desc>
    <defs></defs>
    <g id="Quotes" stroke="none" stroke-width="1" fill="none" fill-rule="evenodd">
        <g id="Comparison---Desktop" transform="translate(-64.000000, -304.000000)" fill-rule="nonzero" fill="#999999">
            <g id="Result-1" transform="translate(64.000000, 304.000000)">
                <g id="Sub-Panel">
                    <g id="good-(2)">
                        <path d="M8,2.16216218e-06 C3.58172973,2.16216218e-06 0,3.58175351 0,8.00000432 C0,12.4182746 3.58172973,16.0000043 8,16.0000043 C12.4182703,16.0000043 16,12.4182746 16,8.00000432 C16,3.58175351 12.4182703,2.16216218e-06 8,2.16216218e-06 Z M4.97297297,3.89189405 C5.80886486,3.89189405 6.48648649,4.56951568 6.48648649,5.40540757 C6.48648649,6.24129946 5.80886486,6.91892108 4.97297297,6.91892108 C4.13705946,6.91892108 3.45945946,6.24129946 3.45945946,5.40540757 C3.45945946,4.56951568 4.13705946,3.89189405 4.97297297,3.89189405 Z M11.2432432,3.89189405 C12.0791351,3.89189405 12.7567568,4.56951568 12.7567568,5.40540757 C12.7567568,6.24129946 12.0791351,6.91892108 11.2432432,6.91892108 C10.4073297,6.91892108 9.72972973,6.24129946 9.72972973,5.40540757 C9.72972973,4.56951568 10.4073297,3.89189405 11.2432432,3.89189405 Z M12.1013622,9.93243676 C12.2699936,9.9202518 12.4302626,10.007451 12.5116296,10.1556551 C12.5929965,10.3038591 12.5805392,10.4858885 12.4797405,10.6216259 C11.4974919,12.0393773 9.85982703,12.9729773 8.01351351,12.9729773 C6.16717838,12.9729773 4.53628108,12.0393773 3.55405405,10.6216259 C3.46455361,10.4977247 3.44710091,10.3357826 3.5081468,10.1956568 C3.5691927,10.0555309 3.69966985,9.95803458 3.85135135,9.93920432 C4.01344165,9.91939484 4.17286902,9.99257269 4.26352432,10.1283935 C5.09139459,11.3233341 6.45721081,12.1081124 8.01351351,12.1081124 C9.56979459,12.1081124 10.9423784,11.3233341 11.7702703,10.1283935 C11.8439037,10.0148777 11.9664209,9.94236587 12.1013622,9.93243676 L12.1013622,9.93243676 Z" id="Shape"></path>
                    </g>
                </g>
            </g>
        </g>
    </g>
</svg>