<?xml version="1.0" encoding="UTF-8"?>
<svg width="26px" height="26px" viewBox="0 0 26 26" version="1.1" xmlns="http://www.w3.org/2000/svg" xmlns:xlink="http://www.w3.org/1999/xlink">
    <!-- Generator: Sketch Beta 47 (45392) - http://www.bohemiancoding.com/sketch -->
    <title>1x/Google Plus</title>
    <desc>Created with Sketch Beta.</desc>
    <defs></defs>
    <g id="Social-Media" stroke="none" stroke-width="1" fill="none" fill-rule="evenodd">
        <g id="1x/Google-Plus" fill-rule="nonzero">
            <g id="Google-Plus-Logo">
                <path d="M12.969726,0 C20.1030753,0 25.9394521,5.83637671 25.9394521,12.969726 C25.9394521,20.1030753 20.1030753,25.9394521 12.969726,25.9394521 C5.83637671,25.9394521 0,20.1029863 0,12.969726 C0,5.83646575 5.83637671,0 12.969726,0 Z" id="Shape" fill="#2B2727"></path>
                <g id="Group" transform="translate(4.897260, 7.835616)" fill="#FFFFFF">
                    <polygon id="Shape" points="14.6383562 2.94539041 14.6383562 4.40450685 16.0973836 4.40450685 16.0973836 5.86362329 14.6383562 5.86362329 14.6383562 7.32273973 13.1792397 7.32273973 13.1792397 5.86362329 11.7201233 5.86362329 11.7201233 4.40450685 13.1792397 4.40450685 13.1792397 2.94539041"></polygon>
                    <path d="M1.5064863,8.78176712 C-0.438972603,6.83630822 -0.438972603,3.43173288 1.5875137,1.48636301 C3.04663014,0.0272465753 5.15414384,-0.296952055 7.01857534,0.432561644 L7.74808904,0.837876712 L8.55871918,1.40533562 L7.26174658,2.70230822 L6.77540411,2.37810959 C5.64057534,1.64859589 4.01931507,1.81065068 2.96560274,2.86445205 C1.74965753,4.08039726 1.66863014,6.2690274 2.96560274,7.566 C4.18154795,8.8629726 6.37017808,8.8629726 7.50500685,7.566 C7.82920548,7.24180137 8.15349315,6.75536986 8.23452055,6.2690274 L8.23452055,6.10688356 L5.31637671,6.10688356 L5.31637671,4.48571233 L9.93680822,4.48571233 L10.0178356,4.8910274 L10.0178356,6.02585616 C9.93680822,7.07965753 9.53149315,8.1334589 8.80189041,8.8629726 C6.85652055,10.727226 3.45194521,10.727226 1.5064863,8.78176712 Z" id="Shape"></path>
                </g>
            </g>
        </g>
    </g>
</svg>