<?xml version="1.0" encoding="UTF-8"?>
<svg width="23px" height="23px" viewBox="0 0 23 23" version="1.1" xmlns="http://www.w3.org/2000/svg" xmlns:xlink="http://www.w3.org/1999/xlink">
    <!-- Generator: Sketch 47.1 (45422) - http://www.bohemiancoding.com/sketch -->
    <title>Group Copy</title>
    <desc>Created with Sketch.</desc>
    <defs></defs>
    <g id="Form-Flows/Comparison" stroke="none" stroke-width="1" fill="none" fill-rule="evenodd">
        <g id="Group-Copy" stroke="#00CC00">
            <g id="noun_1191733" transform="translate(6.000000, 8.000000)" stroke-width="0.6" fill="#00CC00" fill-rule="nonzero">
                <path d="M9.44005273,0.00183105469 C9.24416143,0.00183105469 9.03854181,0.0786487222 8.90010282,0.217262446 L3.99510608,5.12679377 L1.71923098,2.86345526 C1.55449969,2.69534586 1.39760995,2.63855644 1.17995812,2.63361916 C0.962306293,2.62868188 0.779662616,2.69778401 0.621785615,2.86345526 C0.463908613,3.02912652 0.400121291,3.19952495 0.404643067,3.42340926 C0.409164843,3.64729356 0.478532442,3.81306489 0.621785615,3.96146106 L2.90059091,6.2204548 C3.22475926,6.56475417 3.42868862,6.76656957 3.51237898,6.82590099 C3.63791451,6.91489811 3.78330682,7.00183105 3.99510608,7.00183105 C4.20690533,7.00183105 4.40594476,6.92167195 4.54678372,6.7811533 C4.64067636,6.68747419 4.82177247,6.50057469 5.09007205,6.2204548 L9.99647895,1.31526824 C10.134584,1.17631944 10.2180759,0.97313727 10.2173837,0.777216437 C10.2166915,0.581295603 10.1355623,0.355231642 9.99647895,0.217262446 C9.85803996,0.0786487222 9.63594402,0.00183105469 9.44005273,0.00183105469 Z" id="Shape"></path>
            </g>
            <path d="M22,11.5 C22,5.7014134 17.2986416,1 11.5003525,1 C5.70100594,1 1,5.70106091 1,11.5 C1,17.2989391 5.70100594,22 11.5003525,22 C17.2986416,22 22,17.2985866 22,11.5 Z" id="Stroke-3" stroke-width="2"></path>
        </g>
    </g>
</svg>