<?xml version="1.0" encoding="UTF-8"?>
<svg width="19px" height="14px" viewBox="0 0 19 14" version="1.1" xmlns="http://www.w3.org/2000/svg" xmlns:xlink="http://www.w3.org/1999/xlink">
    <!-- Generator: Sketch 43.2 (39069) - http://www.bohemiancoding.com/sketch -->
    <title>Group 20</title>
    <desc>Created with Sketch.</desc>
    <defs></defs>
    <g id="Details-Modal" stroke="none" stroke-width="1" fill="none" fill-rule="evenodd">
        <g id="Renters-Details" transform="translate(-650.000000, -1221.000000)" fill-rule="nonzero" fill="#00CC00">
            <g id="Group-20" transform="translate(650.000000, 1221.000000)">
                <path d="M0.656513014,8.82643826 L5.17356174,13.343487 C6.04891243,14.2188377 7.4681363,14.2188377 8.34348699,13.343487 C9.21883767,12.4681363 9.21883767,11.0489124 8.34348699,10.1735617 L3.82643826,5.65651301 C2.95108757,4.78116233 1.5318637,4.78116233 0.656513014,5.65651301 C-0.218837671,6.5318637 -0.218837671,7.95108757 0.656513014,8.82643826 Z" id="Line"></path>
                <path d="M15.2265692,0.647418376 L5.64741838,10.2265692 C4.78419387,11.0897937 4.78419387,12.4893571 5.64741838,13.3525816 C6.51064288,14.2158061 7.91020632,14.2158061 8.77343082,13.3525816 L18.3525816,3.77343082 C19.2158061,2.91020632 19.2158061,1.51064288 18.3525816,0.647418376 C17.4893571,-0.215806125 16.0897937,-0.215806125 15.2265692,0.647418376 Z" id="Line"></path>
            </g>
        </g>
    </g>
</svg>
