<?xml version="1.0" encoding="UTF-8"?>
<svg width="26px" height="26px" viewBox="0 0 26 26" version="1.1" xmlns="http://www.w3.org/2000/svg" xmlns:xlink="http://www.w3.org/1999/xlink">
    <!-- Generator: Sketch 43.2 (39069) - http://www.bohemiancoding.com/sketch -->
    <title>Group 21 Copy</title>
    <desc>Created with Sketch.</desc>
    <defs></defs>
    <g id="Icons-&amp;-Logos" stroke="none" stroke-width="1" fill="none" fill-rule="evenodd">
        <g id="Artboard" transform="translate(-46.000000, -20.000000)">
            <g id="Group-21-Copy" transform="translate(47.000000, 21.000000)">
                <g id="Group-9" fill="#FFFFFF">
                    <path d="M23.3825647,11.8677882 C23.3825647,18.2270824 18.2268,23.3828471 11.8682118,23.3828471 C5.50821176,23.3828471 0.353152941,18.2270824 0.353152941,11.8677882 C0.353152941,5.50849412 5.50821176,0.352729412 11.8682118,0.352729412 C18.2268,0.352729412 23.3825647,5.50849412 23.3825647,11.8677882" id="Fill-1"></path>
                    <path d="M23.3825647,11.8677882 C23.3825647,18.2270824 18.2268,23.3828471 11.8682118,23.3828471 C5.50821176,23.3828471 0.353152941,18.2270824 0.353152941,11.8677882 C0.353152941,5.50849412 5.50821176,0.352729412 11.8682118,0.352729412 C18.2268,0.352729412 23.3825647,5.50849412 23.3825647,11.8677882 Z" id="Stroke-3" stroke="#09C6A9" stroke-width="2" stroke-linecap="round" stroke-linejoin="round"></path>
                </g>
                <g id="checkmark-copy-4" transform="translate(6.000000, 7.714286)" fill-rule="nonzero" fill="#3AD1BA">
                    <g id="Layer_1">
                        <path d="M4.3688347,8.30357143 C4.08481607,8.30357143 3.80079743,8.21617647 3.61145168,7.99768908 L0.534583149,5.15735294 C0.108555199,4.76407563 0.108555199,4.10861345 0.534583149,3.71533613 C0.960611099,3.32205882 1.67065768,3.32205882 2.09668563,3.71533613 L4.3688347,5.81281513 L10.0492074,0.569117647 C10.4752353,0.175840336 11.1852819,0.175840336 11.6113099,0.569117647 C12.0373378,0.962394958 12.0373378,1.61785714 11.6113099,2.01113445 L5.12621772,7.99768908 C4.93687197,8.17247899 4.65285334,8.30357143 4.3688347,8.30357143 Z" id="Shape"></path>
                    </g>
                </g>
            </g>
        </g>
    </g>
</svg>