<?xml version="1.0" encoding="UTF-8"?>
<svg width="18px" height="16px" viewBox="0 0 18 16" version="1.1" xmlns="http://www.w3.org/2000/svg" xmlns:xlink="http://www.w3.org/1999/xlink">
    <!-- Generator: Sketch 46.2 (44496) - http://www.bohemiancoding.com/sketch -->
    <title>Like Icon</title>
    <desc>Created with Sketch.</desc>
    <defs></defs>
    <g id="Quotes" stroke="none" stroke-width="1" fill="none" fill-rule="evenodd">
        <g id="Comparison---Desktop" transform="translate(-395.000000, -1015.000000)" stroke="#4D4D4D" stroke-width="1.25" fill-rule="nonzero">
            <g id="Guaranteed-Issue-Whole-Life" transform="translate(71.000000, 908.000000)">
                <g id="Policy-Type" transform="translate(324.000000, 34.000000)">
                    <g transform="translate(0.000000, 22.000000)" id="Group-4">
                        <g transform="translate(1.000000, 50.000000)">
                            <g id="Like-Icon" transform="translate(0.000000, 2.000000)">
                                <path d="M15.8428235,6.74350693 C15.8428235,6.06009245 15.3032941,5.52399384 14.6176471,5.52399384 L10.9411765,5.52307879 C10.7454047,5.52307879 10.0588235,5.2303207 10.5983529,4.40052717 C10.9411765,3.76653026 10.9411765,1.37504798 10.9411765,1.37504798 C10.9411765,0.692546897 10.4016471,0.156448284 9.716,0.156448284 C9.02941176,0.156448284 8.48990588,0.692570317 8.48990588,1.37596138 C8.48990588,4.93753919 5.05884706,6.01161007 5.05884706,6.01161007 L5.05884706,12.3543897 C6.62778824,12.8914252 7.01931765,13.8181802 8.98072941,13.8181802 L12.6572,13.8181802 C13.3437882,13.8181802 13.8823765,13.2811447 13.8823765,12.5986671 C13.8823765,12.305909 13.7840306,12.0616316 13.6369647,11.8667719 C14.3235529,11.8667719 14.8621412,11.3297364 14.8621412,10.6472588 C14.8621412,10.3545007 14.7637953,10.0617426 14.5680235,9.81746523 C15.0579059,9.62259842 15.3520235,9.18346831 15.3520235,8.69491361 C15.3520235,8.40215553 15.2536776,8.10939744 15.0579059,7.86512009 C15.5,7.71874104 15.8428235,7.27960391 15.8428235,6.74348187 L15.8428235,6.74350693 Z" id="Shape"></path>
                                <path d="M2.60752941,5.03543914 L0.157176471,5.03543914 L0.157176471,13.3305639 L2.60847059,13.3305639 C3.44211765,13.3305639 4.07905882,12.6471495 4.07905882,11.8667735 L4.07813953,6.49922958 C4.07813953,5.66943606 3.44119835,5.03543914 2.60755129,5.03543914 L2.60752941,5.03543914 Z" id="Shape"></path>
                            </g>
                        </g>
                    </g>
                </g>
            </g>
        </g>
    </g>
</svg>