<?xml version="1.0" encoding="UTF-8"?>
<svg width="200px" height="200px" viewBox="0 0 200 200" version="1.1" xmlns="http://www.w3.org/2000/svg" xmlns:xlink="http://www.w3.org/1999/xlink">
    <!-- Generator: Sketch Beta 47 (45392) - http://www.bohemiancoding.com/sketch -->
    <title>3x/Health/Color</title>
    <desc>Created with Sketch Beta.</desc>
    <defs></defs>
    <g id="Products" stroke="none" stroke-width="1" fill="none" fill-rule="evenodd">
        <g id="3x/Health/Color">
            <g id="Health" transform="translate(25.000000, 0.000000)">
                <rect id="Rectangle" x="0" y="0" width="150" height="200"></rect>
                <path d="M81.8,159.3 C67.3,159.3 53.9,147.6 53.9,131.2 L53.9,116.3 C53.9,114.5 55.4,113.1 57.1,113.1 C58.8,113.1 60.3,114.6 60.3,116.3 L60.3,131.2 C60.3,143 69.7,152.6 81.4,152.8 C93.1,152.5 102.5,142.9 102.5,131.2 L102.5,127.6 C102.5,125.8 104,124.4 105.7,124.4 C107.4,124.4 108.9,125.9 108.9,127.6 L108.9,131.2 C109.2,147.6 95.3,159.3 81.8,159.3 Z M27.5,77.4 L27.5,51.8 C27.5,47.9 30.7,44.7 34.6,44.7 L38.9,44.7 C38.9,44.7 38.9,44.7 38.9,44.7 C40.4,42.2 43.1,40.5 46.3,40.5 C51,40.5 54.8,44.3 54.8,49 C54.8,53.7 51,57.5 46.3,57.5 C42.4,57.5 39,54.8 38.1,51.2 L34.7,51.2 C34.4,51.2 34.1,51.5 34.1,51.8 L34.1,77.4 C34.1,90.3 44.5,100.5 57.9,100.7 C71.3,100.4 81.7,90.3 81.7,77.4 L81.7,51.8 C81.7,51.5 81.4,51.2 81.1,51.2 L78.3,51.2 C77.3,54.8 74,57.5 70.1,57.5 C65.4,57.5 61.6,53.7 61.6,49 C61.6,44.3 65.4,40.5 70.1,40.5 C73.2,40.5 76,42.2 77.5,44.7 L81.2,44.7 C85.1,44.7 88.3,47.9 88.3,51.8 L88.3,77.4 C88.3,93.6 75,107.2 58.2,107.2 C40.9,107.2 27.5,93.8 27.5,77.4 Z M70,46.9 C68.9,46.9 68,47.8 68,48.9 C68,50 68.9,50.9 70,50.9 C71.1,50.9 72,50 72,48.9 C72.1,47.8 71.2,46.9 70,46.9 Z M46.2,46.9 C45.1,46.9 44.2,47.8 44.2,48.9 C44.2,50 45.1,50.9 46.2,50.9 C47.3,50.9 48.2,50 48.2,48.9 C48.2,47.8 47.3,46.9 46.2,46.9 Z" id="Shape" fill="#2B2727" fill-rule="nonzero"></path>
                <path d="M106,130.8 C97.4,130.8 90.5,123.8 90.5,115.3 C90.5,106.8 97.5,99.8 106,99.8 C114.5,99.8 121.5,106.8 121.5,115.3 C121.5,123.8 114.5,130.8 106,130.8 Z M106,106.2 C101,106.2 97,110.3 97,115.2 C97,120.1 101.1,124.2 106,124.2 C110.9,124.2 115,120.1 115,115.2 C115,110.3 110.9,106.2 106,106.2 Z" id="Shape" fill="#FF700A" fill-rule="nonzero"></path>
            </g>
        </g>
    </g>
</svg>