<?xml version="1.0" encoding="UTF-8"?>
<svg width="162px" height="136px" viewBox="0 0 162 136" version="1.1" xmlns="http://www.w3.org/2000/svg" xmlns:xlink="http://www.w3.org/1999/xlink">
    <!-- Generator: Sketch 43.2 (39069) - http://www.bohemiancoding.com/sketch -->
    <title>a-link</title>
    <desc>Created with Sketch.</desc>
    <defs></defs>
    <g id="Page-1" stroke="none" stroke-width="1" fill="none" fill-rule="evenodd">
        <g id="health" fill-rule="nonzero" fill="#4D4D4D">
            <g id="a-link">
                <g id="a">
                    <path d="M13.84,69 L42.54,69 L54.16,49.53 C55.125539,47.940598 56.8934216,47.0183904 58.749396,47.1359635 C60.6053704,47.2535365 62.2427468,48.3914618 63,50.09 L80.59,90.39 L101.7,32.69 C102.456636,30.6950678 104.395806,29.4000521 106.528403,29.4654969 C108.661,29.5309417 110.517112,30.9424263 111.15,32.98 L121.92,69.25 L147.61,69.25 C154.19,61.31 158.78,51.71 158.61,40.48 C158.18,17.86 140.35,-0.12 118.77,0.32 C103.12,0.64 89.95,10.62 83.97,24.67 C82.42,28.5 79.66,28.53 78.07,24.67 C72,10.36 58.42,0.33 42.49,0.33 C20.91,0.33 3.42,18.67 3.42,41.33 C3.42,53.9 7.38,62.12 13.84,69 Z" id="Shape"></path>
                    <path d="M156.47,79.22 L118.2,79.22 C115.999935,79.2120084 114.063608,77.7668672 113.43,75.66 L105.88,50.25 L85.68,105.48 C84.9648214,107.374403 83.1776665,108.650418 81.1536894,108.711751 C79.1297124,108.773084 77.2685733,107.607623 76.44,105.76 L57.74,63 L49.64,76.53 C48.7483142,78.0500644 47.1222617,78.9884639 45.36,79 L5.16,79 C-1.25,79.47 -0.74,89 5.52,89 L32.68,89 C50.15,107.44 72.68,131.17 73.88,132.31 C78.52,136.69 83.13,137.1 88.01,132.31 C89.01,131.31 112.63,106.42 129.01,89.16 L156.48,89.16 L156.48,89.16 C163,89.14 163.15,79.22 156.47,79.22 Z" id="Shape"></path>
                </g>
            </g>
        </g>
    </g>
</svg>