<?xml version="1.0" encoding="UTF-8"?>
<svg width="50px" height="45px" viewBox="0 0 50 45" version="1.1" xmlns="http://www.w3.org/2000/svg" xmlns:xlink="http://www.w3.org/1999/xlink">
    <!-- Generator: Sketch 47.1 (45422) - http://www.bohemiancoding.com/sketch -->
    <title>Shape</title>
    <desc>Created with Sketch.</desc>
    <defs></defs>
    <g id="Product-Page" stroke="none" stroke-width="1" fill="none" fill-rule="evenodd">
        <g id="Product-Page-(Desktop)" transform="translate(-1018.000000, -14505.000000)" fill-rule="nonzero" fill="#000000">
            <g id="Understanding-Life-Insurance" transform="translate(64.000000, 7125.000000)">
                <g id="Getting-Started-with-life-insurance" transform="translate(295.000000, 7151.000000)">
                    <g id="Group-11-Copy-3" transform="translate(587.000000, 229.000000)">
                        <g id="np_health_1406202_000000" transform="translate(72.000000, 0.000000)">
                            <path d="M35.6068125,0.901125 L35.4947513,0.901125 C31.6956825,0.945070875 28.0348763,2.31834375 25.1436263,4.781475 C21.8806763,1.856925 18.7322513,0.393525 15.8623763,0.393525 C11.898495,0.382538812 8.09931375,1.986525 5.34418875,4.83856875 C3.278745,6.97651875 1.89010125,9.67696875 1.34953875,12.5993812 C1.18035,13.5156375 1.78459875,14.3989312 2.7008325,14.5681312 C3.61708875,14.7395194 4.49818875,14.1352706 4.6695825,13.2190312 C5.09365688,10.9272937 6.19007625,8.8113375 7.81828875,7.14346875 C9.9386325,4.9417875 12.8632388,3.70254375 15.9194138,3.7135125 C18.1694138,3.7135125 20.9819138,5.2318125 23.9637263,8.1563625 C24.6646575,8.8507125 25.7918513,8.8507125 26.4949763,8.1563625 C28.9119825,5.68665 32.2077263,4.271625 35.6620388,4.2188625 C38.2636013,4.19469244 40.7618888,5.22961875 42.5813513,7.0885125 C44.7544575,9.314325 45.9651263,12.3026062 45.9563513,15.411825 C45.9431674,16.7346 45.7146506,18.04635 45.2818013,19.2943687 L32.5681763,19.2943687 C32.1045525,19.2855797 31.6563075,19.4679506 31.3311263,19.7997412 L26.2114763,25.2006412 L20.3626013,11.9818912 C20.1143081,11.404035 19.56717,11.0150662 18.940995,10.9667475 C18.3147638,10.9206045 17.7149138,11.2238269 17.3809575,11.7555412 L12.7139513,19.4066662 L1.91226375,19.4066662 C0.98065125,19.4066662 0.22476375,20.1625537 0.22476375,21.0941662 C0.22476375,22.0257787 0.98065125,22.7816662 1.91226375,22.7816662 L13.6696388,22.7816662 C14.2519388,22.761891 14.78367,22.4432887 15.0758888,21.9379162 L18.5629388,16.3129162 L24.1879388,29.0265412 C24.4186538,29.5275206 24.8822888,29.8856475 25.4249888,29.9823412 L25.7062388,29.9823412 C26.1720563,29.9911303 26.6181075,29.80656 26.9432887,29.474775 L33.3001012,22.724775 L43.4251013,22.724775 L42.5813513,23.737725 L25.1438512,40.612725 L11.4199762,27.2820375 C10.7520075,26.629425 9.68196375,26.6426438 9.02935125,27.3106018 C8.37673875,27.9785706 8.3899575,29.0486143 9.05791556,29.7012268 L24.0192906,44.1569143 C24.6762906,44.8006956 25.7265906,44.8006956 26.3813406,44.1569143 L45.0012156,26.1569143 C47.7653968,23.2850706 49.3078281,19.4552893 49.3078281,15.4694143 C49.3078281,11.4835393 47.7653406,7.65347681 45.0012156,4.78191431 C42.5336968,2.25505181 39.1388406,0.853189313 35.6080281,0.901564313 L35.6068125,0.901125 Z" id="Shape"></path>
                        </g>
                    </g>
                </g>
            </g>
        </g>
    </g>
</svg>