<?xml version="1.0" encoding="UTF-8"?>
<svg width="25px" height="23px" viewBox="0 0 25 23" version="1.1" xmlns="http://www.w3.org/2000/svg" xmlns:xlink="http://www.w3.org/1999/xlink">
    <!-- Generator: Sketch 44.1 (41455) - http://www.bohemiancoding.com/sketch -->
    <title>Group 40</title>
    <desc>Created with Sketch.</desc>
    <defs></defs>
    <g id="Page-1" stroke="none" stroke-width="1" fill="none" fill-rule="evenodd">
        <g id="Group-40">
            <polygon id="Rectangle-3" fill="#4D4D4D" points="4.93902439 9.32926829 12.6219512 1.64634146 20.304878 9.32926829 20.304878 21.402439 4.93902439 21.402439"></polygon>
            <path d="M25.7685796,8.33742289 L9.64690966,8.33742289 L9.64690966,7.23986192 C9.64690966,6.62946965 10.1373518,6.14230094 10.7423429,6.14230094 L25.7685796,6.14230094 C26.3102987,6.14230094 26.8035207,6.63369573 26.8035207,7.23986192 C26.8035207,7.85025419 26.3401618,8.33742289 25.7685796,8.33742289 Z" id="Combined-Shape" fill="#4D4D4D" transform="translate(18.225215, 7.239862) rotate(45.000000) translate(-18.225215, -7.239862) "></path>
            <path d="M19.7272144,20.5337915 L19.7272144,8.7804878 L20.6803594,8.7804878 C21.2104369,8.7804878 21.6335045,9.12307542 21.6335045,9.54567867 L21.6335045,20.6281285 L21.6335045,22.1801329 L20.8059677,22.1801329 L4.66900021,22.1801329 L3.84146341,22.1801329 L3.84146341,20.6281285 L3.84146341,9.54567867 C3.84146341,9.12307542 4.26453098,8.7804878 4.79460847,8.7804878 L5.74775353,8.7804878 L5.74775353,20.5337915 L19.7272144,20.5337915 Z" id="Combined-Shape" fill="#4D4D4D"></path>
            <path d="M14.8491816,8.00064185 L-1.27086008,8.00064185 L-1.27086008,6.90308087 C-1.27086008,6.2926886 -0.780467465,5.8055199 -0.175537521,5.8055199 L14.8491816,5.8055199 C15.3908459,5.8055199 15.8840181,6.29691468 15.8840181,6.90308087 C15.8840181,7.51347314 15.420706,8.00064185 14.8491816,8.00064185 Z" id="Combined-Shape-Copy" fill="#4D4D4D" transform="translate(7.306579, 6.903081) scale(-1, 1) rotate(45.000000) translate(-7.306579, -6.903081) "></path>
            <path d="M14.2682927,22.5 L14.2682927,17.2983857 C14.2682927,16.5341608 13.5312005,15.9146341 12.6219512,15.9146341 C11.7127019,15.9146341 10.9756098,16.5341608 10.9756098,17.2983857 L10.9756098,22.5 C11.4065627,22.5 12.5041237,22.5 14.2682927,22.5 Z" id="Line" fill="#FFFFFF" fill-rule="nonzero"></path>
        </g>
    </g>
</svg>
