<?xml version="1.0" encoding="UTF-8"?>
<svg width="25px" height="23px" viewBox="0 0 25 23" version="1.1" xmlns="http://www.w3.org/2000/svg" xmlns:xlink="http://www.w3.org/1999/xlink">
    <!-- Generator: Sketch 44.1 (41455) - http://www.bohemiancoding.com/sketch -->
    <title>Combined-Shape</title>
    <desc>Created with Sketch.</desc>
    <defs></defs>
    <g id="Page-1" stroke="none" stroke-width="1" fill="none" fill-rule="evenodd">
        <path d="M14.2682927,22.1801329 L20.8059677,22.1801329 L21.6335045,22.1801329 L21.6335045,20.6281285 L21.6335045,12.200337 L22.7830865,13.349919 C23.1872562,13.7540887 23.8593807,13.7372526 24.2909932,13.3056401 C24.7196174,12.8770159 24.7183254,12.1807866 24.3352721,11.7977334 L13.7101183,1.17257953 C13.6918968,1.15435811 13.6731974,1.13690862 13.6540604,1.1202317 L13.3717442,0.837915569 C12.9401317,0.406303056 12.2488915,0.408582708 11.8211414,0.836332774 L1.19706066,11.4604135 C0.814046158,11.843428 0.812789332,12.539622 1.24141356,12.9682463 C1.67302607,13.3998588 2.34511749,13.4167279 2.74924627,13.0125992 L3.84146341,11.920382 L3.84146341,20.6281285 L3.84146341,22.1801329 L4.66900021,22.1801329 L10.9756098,22.1801329 L10.9756098,17.2983857 C10.9756098,16.5341608 11.7127019,15.9146341 12.6219512,15.9146341 C13.5312005,15.9146341 14.2682927,16.5341608 14.2682927,17.2983857 L14.2682927,22.1801329 Z" id="Combined-Shape" fill="#4D4D4D" fill-rule="nonzero"></path>
    </g>
</svg>