<?xml version="1.0" encoding="UTF-8"?>
<svg width="45px" height="45px" viewBox="0 0 45 45" version="1.1" xmlns="http://www.w3.org/2000/svg" xmlns:xlink="http://www.w3.org/1999/xlink">
    <!-- Generator: Sketch 47.1 (45422) - http://www.bohemiancoding.com/sketch -->
    <title>Hurricane</title>
    <desc>Created with Sketch.</desc>
    <defs></defs>
    <g id="Form-Flows/Comparison" stroke="none" stroke-width="1" fill="none" fill-rule="evenodd">
        <g id="Hurricane" fill-rule="nonzero" fill="#2B2727">
            <g id="hurricane">
                <path d="M23.3378474,2.00719736 C23.6742705,2.07428442 24.0106937,2.13879529 24.3471169,2.20588235 L24.5494956,2.20588235 C25.0199633,2.20588235 25.4247342,1.87559943 25.5587652,1.41373178 C25.6928096,0.88476386 25.3563864,0.355769517 24.8175576,0.2241848 C24.4811344,0.157097732 24.1447113,0.0925868709 23.7399269,0.0254998031 C23.201125,-0.106098126 22.6622961,0.288695661 22.5282652,0.817650371 C22.3968515,1.34661829 22.7332747,1.87561264 23.3377666,2.00719736 L23.3378474,2.00719736 Z" id="Fill-1"></path>
                <path d="M26.8592433,3.17430992 C36.5371089,6.82756663 39.1588739,15.6247654 39.1588739,20.2699956 C39.1588739,26.2773311 34.4760357,35.2579855 24.5496675,35.2579855 C20.1155816,35.2579855 16.4327479,32.9668341 14.6838639,29.1272727 C13.247294,25.9070752 13.4985439,22.3142685 15.4326185,20.2096695 C15.7448077,19.8370849 15.7448077,19.2176961 15.3692066,18.9080141 C14.9936056,18.5983321 14.3692022,18.5983321 14.057013,18.9709167 C11.6229361,21.6951274 11.24731,25.9703495 12.9960691,29.8729622 C15.0570174,34.394815 19.3641047,37.0588235 24.54707,37.0588235 C35.7858817,37.0588235 41.0294118,27.0257458 41.0294118,20.2127416 C41.0294118,13.3365622 36.8465758,4.85189453 27.541589,1.38531411 C27.0415992,1.1990218 26.5415845,1.44821672 26.356269,1.94177552 C26.1074916,2.43291261 26.3587103,2.98936782 26.8587,3.17567252 L26.8592433,3.17430992 Z" id="Fill-2"></path>
                <path d="M44.2322219,22.5253335 C43.695438,22.4092669 43.1586272,22.7005697 43.0250982,23.2239942 C42.9570199,23.515297 42.8915557,23.8065998 42.8234774,24.0979026 C42.689935,24.5644416 43.0250982,25.0310038 43.561909,25.1470588 L43.7635298,25.1470588 C44.2322356,25.1470588 44.6354903,24.855756 44.7690194,24.4483982 C44.8370978,24.1570954 44.9025618,23.8657926 44.9706401,23.515297 C45.1041825,23.0510303 44.7690194,22.584468 44.2322087,22.5253335 L44.2322219,22.5253335 Z" id="Fill-3"></path>
                <path d="M43.4923623,26.3273337 C42.9902688,26.1391539 42.4881503,26.3908737 42.302055,26.8894333 C38.6037259,36.5868457 29.6979908,39.213906 24.9954497,39.213906 C18.9139981,39.213906 9.82254406,34.5216097 9.82254406,24.5751927 C9.82254406,20.1321512 12.1419627,16.4418791 16.0288951,14.6894629 C19.288822,13.2499915 22.9259554,13.5017488 25.0565201,15.4397297 C25.4337015,15.7525495 26.060732,15.7525495 26.3742348,15.3761898 C26.6877375,14.9998301 26.6877375,14.3741655 26.3105561,14.0613458 C23.5527352,11.6223527 19.2247671,11.245968 15.2740056,12.9982591 C10.6988093,15.004685 7.94117647,19.3203464 7.94117647,24.51378 C7.94117647,35.7752912 18.0980383,41.0294118 24.9950986,41.0294118 C31.9561135,41.0294118 40.5454616,36.8381276 44.0548113,27.514347 C44.2434018,27.0157875 43.9935779,26.5147628 43.4914845,26.326633 L43.4923623,26.3273337 Z" id="Fill-4"></path>
                <path d="M22.1033512,43.0282125 C21.7669261,42.9592162 21.430501,42.8928695 21.0940759,42.8238733 C20.5552708,42.6885303 20.0164389,43.0282125 19.8824071,43.5722612 C19.7483753,44.1163099 20.084787,44.6603312 20.6236189,44.7956607 C20.9600441,44.8646572 21.2964692,44.9310035 21.7012559,45 L21.9036358,45 C22.3741061,45 22.7788794,44.6603179 22.9129112,44.1853063 C23.0443256,43.7076314 22.7079004,43.1636099 22.103405,43.0282804 L22.1033512,43.0282125 Z" id="Fill-5"></path>
                <path d="M18.1092793,41.8822291 C8.41103338,38.2290867 5.78374725,29.4321631 5.78374725,24.7870783 C5.78374725,18.7799307 10.4764469,9.79955722 20.4237188,9.79955722 C24.8671422,9.79955722 28.5577315,12.0906369 30.3102984,15.9300783 C31.7498935,19.1501749 31.4981145,22.7428694 29.559967,24.8474025 C29.2471204,25.2199754 29.2471204,25.8393448 29.6235124,26.1490172 C29.9999045,26.4586895 30.6256228,26.4586895 30.9384694,26.0861165 C33.3776722,23.361991 33.7540892,19.0869027 32.0016475,15.1844121 C29.9974893,10.6651162 25.6808939,7.94117647 20.4876396,7.94117647 C9.22516046,7.94117647 3.97058824,17.9739404 3.97058824,24.7867315 C3.97058824,31.6626957 8.16223271,40.147098 17.4868146,43.6135699 C17.6114652,43.6764706 17.7361159,43.6764706 17.7996612,43.6764706 C18.1760533,43.6764706 18.5499926,43.4296989 18.6746307,43.0571259 C18.8628268,42.6240678 18.6110854,42.067599 18.1100426,41.8813683 L18.1092793,41.8822291 Z" id="Fill-6"></path>
                <path d="M1.40823842,19.8784346 C0.881325918,19.7624781 0.354387097,20.0535044 0.223313681,20.5196239 C0.156487294,20.8106502 0.0922271043,21.1016766 0.0254007179,21.4518395 C-0.105685858,21.9179356 0.28757387,22.3840551 0.814473212,22.5 L1.01238617,22.5 C1.47247229,22.5 1.86831137,22.2089737 1.99938479,21.8020024 C2.06621118,21.5109761 2.13047137,21.2199497 2.19729775,20.9289233 C2.26412414,20.4605513 1.9351246,19.9967077 1.40822526,19.8784928 L1.40823842,19.8784346 Z" id="Fill-7"></path>
                <path d="M20.065485,5.90190476 C26.1469851,5.90190476 35.2385118,10.5783066 35.2385118,20.4910314 C35.2385118,24.9190227 32.9190746,28.5967945 29.0321111,30.3432747 C25.7721582,31.7778701 22.1349958,31.5269655 20.0044141,29.5955493 C19.6272297,29.2837891 19.0001941,29.2837891 18.6866889,29.658874 C18.3731836,30.0339588 18.3731836,30.657504 18.7503681,30.9692641 C20.3815986,32.4038595 22.512431,33.0882353 24.8318682,33.0882353 C26.4630987,33.0882353 28.1555254,32.7131505 29.7842479,31.9654001 C34.361926,29.9072844 37.0588235,25.6061171 37.0588235,20.4302756 C37.0588235,9.20691124 26.9018806,3.97058824 20.0047653,3.97058824 C13.0436948,3.97058824 4.4542781,8.14767503 0.944900418,17.4398725 C0.756308201,17.939175 1.0085796,18.4385025 1.50823172,18.6235633 C2.01032918,18.8111057 2.51245172,18.5602386 2.69854843,18.0633678 C6.46061135,8.45741497 15.3635333,5.90222899 20.066112,5.90222899 L20.065485,5.90190476 Z" id="Fill-8"></path>
            </g>
        </g>
    </g>
</svg>