<?xml version="1.0" encoding="UTF-8"?>
<svg width="102px" height="102px" viewBox="0 0 102 102" version="1.1" xmlns="http://www.w3.org/2000/svg" xmlns:xlink="http://www.w3.org/1999/xlink">
    <!-- Generator: Sketch 43.2 (39069) - http://www.bohemiancoding.com/sketch -->
    <title>Page 1</title>
    <desc>Created with Sketch.</desc>
    <defs></defs>
    <g id="Page-1" stroke="none" stroke-width="1" fill="none" fill-rule="evenodd">
        <g fill="#4D4D4D">
            <path d="M52.8991207,4.54964734 C53.6616799,4.70171136 54.4242391,4.84793598 55.1867983,5 L55.6455234,5 C56.7119167,5 57.6293975,4.2513587 57.9332011,3.20445871 C58.2370351,2.00546475 57.4744759,0.806410906 56.2531306,0.508152213 C55.4905714,0.356088192 54.7280122,0.209863574 53.8105009,0.0577995535 C52.5892166,-0.240489085 51.3678712,0.654376831 51.0640677,1.85334084 C50.7661968,3.0523348 51.528756,4.25138865 52.8989376,4.54964734 L52.8991207,4.54964734 Z" id="Fill-1"></path>
            <path d="M60.8809514,7.19510249 C82.8174468,15.4758177 88.7601142,35.416135 88.7601142,45.9453233 C88.7601142,59.5619504 78.1456809,79.9181004 55.6459129,79.9181004 C45.5953183,79.9181004 37.2475619,74.724824 33.2834249,66.0218181 C30.0271998,58.7227039 30.5966995,50.5790085 34.980602,45.8085843 C35.6882309,44.9640591 35.6882309,43.5601112 34.8368684,42.8581653 C33.985506,42.1562194 32.5701916,42.1562194 31.8625627,43.0007445 C26.3453218,49.1756221 25.4939027,58.8661255 29.4577567,67.7120476 C34.1292395,77.9615807 43.8919707,84 55.6400254,84 C81.1146653,84 93,61.2583571 93,45.8155476 C93,30.229541 83.5189052,10.9976276 62.4276017,3.14004532 C61.2942916,2.71778275 60.1609248,3.28262457 59.7408763,4.40135785 C59.176981,5.51460191 59.74641,6.7759004 60.8797201,7.19819105 L60.8809514,7.19510249 Z" id="Fill-2"></path>
            <path d="M100.259703,51.0574227 C99.0429929,50.7943382 97.8262217,51.4546246 97.5235559,52.6410536 C97.369245,53.3013399 97.2208597,53.9616263 97.0665488,54.6219126 C96.7638526,55.6794009 97.5235559,56.7369419 98.7403271,57 L99.1973342,57 C100.259734,57 101.173778,56.3397136 101.476444,55.4163692 C101.630755,54.7560828 101.77914,54.0957965 101.933451,53.3013399 C102.236147,52.2490019 101.476444,51.1914609 100.259673,51.0574227 L100.259703,51.0574227 Z" id="Fill-3"></path>
            <path d="M98.5826878,59.6752898 C97.4446093,59.2487488 96.306474,59.8193137 95.8846581,60.9493821 C87.5017787,82.9301836 67.3154459,88.8848536 56.6563527,88.8848536 C42.8717291,88.8848536 22.2644332,78.2489819 22.2644332,55.7037702 C22.2644332,45.632876 27.5217822,37.2682593 36.3321623,33.2961158 C43.7213299,30.033314 51.965499,30.6039639 56.7947788,34.9967207 C57.6497233,35.7057789 59.0709926,35.7057789 59.7815988,34.8526969 C60.492205,33.9996149 60.492205,32.5814419 59.6372605,31.8723838 C53.3861997,26.3439995 43.5761388,25.4908608 34.6210793,29.4627207 C24.2506344,34.0106194 18,43.7927852 18,55.5645679 C18,81.09066 41.0222201,93 56.6555568,93 C72.4338572,93 91.9030462,83.4997558 99.8575722,62.3658533 C100.285044,61.2357849 99.7187766,60.100129 98.5806981,59.6737015 L98.5826878,59.6752898 Z" id="Fill-4"></path>
            <path d="M50.1009294,97.530615 C49.3383658,97.3742235 48.5758022,97.2238376 47.8132386,97.0674461 C46.5919472,96.7606686 45.3705948,97.530615 45.0667895,98.763792 C44.7629841,99.996969 45.5255172,101.230084 46.7468696,101.536831 C47.5094332,101.693223 48.2719968,101.843608 49.1895134,102 L49.6482411,102 C50.7146406,102 51.6321266,101.230054 51.935932,100.153361 C52.2338046,99.0706311 51.471241,97.8375157 50.1010514,97.530769 L50.1009294,97.530615 Z" id="Fill-5"></path>
            <path d="M41.0476998,94.9330527 C19.065009,86.6525965 13.1098271,66.7129031 13.1098271,56.1840441 C13.1098271,42.5678429 23.746613,22.2123297 46.2937626,22.2123297 C56.3655224,22.2123297 64.7308581,27.4054437 68.7033431,36.1081774 C71.9664253,43.4070632 71.3957263,51.5505039 67.0025919,56.3207789 C66.2934728,57.1652776 66.2934728,58.5691816 67.1466282,59.2711056 C67.9997835,59.9730295 69.4180783,59.9730295 70.1271974,59.1285308 C75.6560569,52.9538463 76.5092689,43.2636461 72.5370676,34.4180007 C67.9943091,24.1742633 58.2100262,18 46.4386498,18 C20.9103637,18 9,40.7409315 9,56.183258 C9,71.7687769 18.5010608,91.0000887 39.6367798,98.8574252 C39.9193212,99 40.2018626,99 40.3458988,99 C41.1990542,99 42.04665,98.4406509 42.329163,97.5961521 C42.7557407,96.6145536 42.1851268,95.3532244 41.04943,94.9311014 L41.0476998,94.9330527 Z" id="Fill-6"></path>
            <path d="M3.19200708,45.0577851 C1.99767208,44.7949503 0.803277419,45.45461 0.506177676,46.5111474 C0.354704533,47.1708072 0.209048103,47.8304669 0.0575749606,48.6241695 C-0.239554612,49.6806541 0.651834106,50.7371916 1.84613928,51 L2.29474199,51 C3.33760386,51 4.23483911,50.3403403 4.53193886,49.4178721 C4.683412,48.7582124 4.82906843,48.0985526 4.98054157,47.4388929 C5.13201472,46.3772497 4.38628243,45.3258708 3.19197725,45.057917 L3.19200708,45.0577851 Z" id="Fill-7"></path>
            <path d="M45.4817659,13.3776508 C59.2664995,13.3776508 79.87396,23.9774949 79.87396,46.4463378 C79.87396,56.4831182 74.616569,64.8194009 65.8061186,68.7780894 C58.4168919,72.0298389 50.1726571,71.4611219 45.3433387,67.083245 C44.4883873,66.3765887 43.0671067,66.3765887 42.3564948,67.226781 C41.6458829,68.0769733 41.6458829,69.4903424 42.5008343,70.1969986 C46.1982901,73.4487481 51.0281769,75 56.2855679,75 C59.9830237,75 63.8191909,74.1498077 67.5109618,72.4549068 C77.8870323,67.7898447 84,58.0405321 84,46.3086246 C84,20.8689988 60.9775961,9 45.3441346,9 C29.5657082,9 10.0963637,18.4680634 2.14177428,39.5303777 C1.71429859,40.6621301 2.28611376,41.793939 3.41865856,42.2134102 C4.55674614,42.6385063 5.69489056,42.0698742 6.11670978,40.9436337 C14.6440524,19.1701406 34.8240088,13.3783857 45.4831871,13.3783857 L45.4817659,13.3776508 Z" id="Fill-8"></path>
        </g>
    </g>
</svg>