<?xml version="1.0" encoding="UTF-8"?>
<svg width="45px" height="38px" viewBox="0 0 45 38" version="1.1" xmlns="http://www.w3.org/2000/svg" xmlns:xlink="http://www.w3.org/1999/xlink">
    <!-- Generator: Sketch 47.1 (45422) - http://www.bohemiancoding.com/sketch -->
    <title>Group 6 Copy</title>
    <desc>Created with Sketch.</desc>
    <defs></defs>
    <g id="Old" stroke="none" stroke-width="1" fill="none" fill-rule="evenodd">
        <g id="Group-6-Copy" fill-rule="nonzero" fill="#2B2727">
            <path d="M22.7610449,21.3948329 L22.7610337,21.3950519 C22.5355817,25.0288165 22.3867374,28.1729862 25.3398058,31.8812348 C24.9282424,32.1050464 24.5561149,32.2937505 24.1817793,32.4429544 C24.0329238,32.5175564 23.8818715,32.5548602 23.733016,32.6294622 C20.5938586,28.5856423 20.782122,25.1033174 20.9309775,21.3950688 L20.9309775,21.3204668 C21.0054108,20.308922 21.0426219,19.3742204 21.0426219,18.3999738 C21.0426219,16.9013057 19.8473843,15.6659718 18.3150055,15.6659718 C16.8570488,15.6659718 15.6990335,16.8640075 15.5873891,18.437272 C15.3269116,24.8026794 15.9989525,29.6341426 17.8224632,33.6407767 C17.4853219,33.6034785 17.1854141,33.6034785 16.9249142,33.5661747 C16.624984,33.5288765 16.3272786,33.4915727 15.9529431,33.4169707 C15.8785097,33.2304686 15.804082,33.0044607 15.7296542,32.8179529 C15.6924431,32.7806491 15.6924431,32.7060471 15.6552265,32.6314451 C15.5807987,32.5195393 15.5435877,32.3681334 15.506371,32.2189294 C15.4691599,32.1443274 15.4691599,32.0324216 15.4319432,31.9578196 C15.3575099,31.7340249 15.2830821,31.508017 15.2086544,31.2469072 C15.2086544,31.2096034 15.1714433,31.1723052 15.1714433,31.1350014 C15.0970156,30.911201 15.0597989,30.6851988 14.9853711,30.4613872 C14.9481544,30.4240834 14.9481544,30.3867852 14.9481544,30.3494814 L14.9481544,30.3121776 C14.9109378,30.1629736 14.8737267,29.9742695 14.83651,29.7877617 C14.7992933,29.7877617 14.7992933,29.7504635 14.7992933,29.7131597 C14.7992933,29.6758559 14.7620823,29.6385577 14.7620823,29.6012539 L14.7620823,29.5639557 C14.7248656,29.4498592 14.7248656,29.3379535 14.6876545,29.2260476 C14.6504378,29.0746417 14.6504378,28.9627359 14.6132268,28.813532 C14.5760101,28.662126 14.5760101,28.5502202 14.538799,28.4010163 C14.5015823,28.2496103 14.5015823,28.1377045 14.4643713,27.9885006 C14.4643713,27.8744041 14.4271546,27.7624983 14.4271546,27.6505925 C14.4271546,27.4640847 14.3899435,27.2380824 14.3527269,27.0515746 C14.2782991,26.5271532 14.2038714,26.0027317 14.1666547,25.441012 C14.129438,24.8792923 14.092227,24.3175726 14.0550103,23.755853 C14.0550103,23.4552206 14.0177992,23.1941108 14.0177992,22.8935009 C13.9805825,22.632408 13.9805825,22.3691019 13.9805825,22.1079921 L13.9805825,21.0964473 C13.9805825,20.1967971 14.0177936,19.2993938 14.0550103,18.3624453 C14.1294324,15.8895307 16.0733747,13.9805825 18.4638498,13.9805825 C20.891536,13.9805825 22.8726893,15.9663739 22.8726893,18.3997435 C22.8726893,19.4485865 22.7982616,20.4578844 22.7610449,21.3948329 Z M19.3017655,20.3218277 L19.3017126,20.3217936 C19.2213114,24.6108656 19.1822578,28.671225 22.2815534,33.3005767 C21.8496106,33.3761805 21.4590505,33.4517786 21.1052385,33.5273767 C20.8709107,33.5651786 20.5952119,33.6029748 20.3608665,33.6407767 C17.3810139,28.8223302 17.4200734,24.686606 17.4981866,20.2840315 L17.4958869,18.3495946 C17.4958869,17.8937462 17.9278415,17.4757282 18.3988262,17.4757282 C18.8698403,17.4757282 19.3017655,17.8937747 19.3017655,18.3495946 L19.3017655,20.3218277 Z M26.3949761,20.9940297 L26.3953216,20.9940524 C26.2473092,24.2082373 26.0992969,27.2697087 28.3980583,30.215837 C28.0280273,30.5569897 27.58175,30.8958968 27.172498,31.199373 C27.1354893,31.2370325 27.0984862,31.2370325 27.0614776,31.2746864 C24.3491286,27.8722323 24.5363397,24.2063149 24.6843632,20.9544761 C24.7213663,20.1614775 24.758375,19.4038644 24.758375,18.6485196 C24.758375,15.1328773 21.9347715,12.259845 18.4801093,12.259845 C15.0252241,12.259845 12.2018436,15.1328773 12.2018436,18.6859466 L12.2018436,18.7236061 C12.1648405,20.0482949 12.0538312,27.0034781 13.7626608,33.2038835 C13.5036336,33.1285702 13.2424107,33.0155974 13.0203698,32.940284 C12.6111067,32.7896574 12.2410646,32.599154 11.7948096,32.3732084 C10.4582344,26.7778727 10.4582344,20.994041 10.4952431,18.7633921 L10.4952431,18.6127655 C10.4952431,14.1138139 14.0979177,10.4854369 18.4821155,10.4854369 C22.9033163,10.4854369 26.4689879,14.1514677 26.4689879,18.6127655 C26.4689879,19.4057641 26.4319847,20.201031 26.3949761,20.9940297 Z" id="Combined-Shape"></path>
            <path d="M36.791574,14.9672251 C35.0969688,6.44668051 27.5661432,0 18.56553,0 C8.32277115,0 0,8.33278273 0,18.5878628 C0,23.2249031 1.73211248,27.711847 4.89627935,31.1424606 C5.61117683,31.8957704 6.40334827,32.6513424 7.2307675,33.2919951 C7.75812303,33.7073221 8.28548983,34.0828572 8.81285094,34.4230909 C9.56525566,34.8759703 10.3574271,35.29132 11.1848464,35.6668438 C11.8622366,35.9695024 12.577134,36.2323917 13.2567837,36.4201536 C14.0842029,36.6454905 14.8763744,36.8354807 15.6662864,36.9481434 C16.3436766,37.0608119 17.0983408,37.1359223 17.8507455,37.1359223 L17.8882584,37.1359223 L18.5656486,37.1359223 C19.0930041,37.1359223 19.6203709,37.09837 20.1852393,37.0608119 C21.0126585,36.9857015 21.8423372,36.873033 22.6697565,36.6830429 C23.384654,36.5328221 24.1018109,36.3052738 24.7792011,36.0799426 C25.3065566,35.8921637 25.8714306,35.6646155 26.3612845,35.43929 C27.0011675,35.1366313 27.6410504,34.7986373 28.2434261,34.4208513 C28.7332743,34.1181927 29.1856265,33.817751 29.6357137,33.4775174 C30.1630692,33.0621903 30.690436,32.6491028 31.2177971,32.1586597 C31.6326195,31.7433326 32.0452164,31.3302451 32.4600557,30.8773544 C33.6648071,31.5555594 35.0593542,31.9333454 36.5266564,31.9333454 C41.1956327,31.9333454 44.9996824,28.1247196 44.9996824,23.4501269 C45.0393986,18.8484333 41.3479212,15.1173442 36.7915797,14.9669084 L36.791574,14.9672251 Z M28.3562811,32.5346133 C27.9039458,32.8372719 27.4515879,33.1377136 27.0015007,33.4028424 C26.3616178,33.7806115 25.7217348,34.0810475 25.0818519,34.3461763 C24.5920037,34.5715132 24.1021442,34.7239454 23.6122903,34.8741662 C22.9349001,35.0995031 22.2200026,35.2519352 21.4653384,35.4021561 C20.6754265,35.5523769 19.883255,35.627493 19.093343,35.627493 L18.9433027,35.627493 L18.4909673,35.627493 C17.9260989,35.627493 17.3612305,35.5899406 16.7963621,35.5523826 C16.1189719,35.4772721 15.4415817,35.3646037 14.7619321,35.2121715 C13.9720201,35.0243927 13.1798486,34.7968445 12.3899366,34.4964141 C11.7125464,34.2335249 11.1101708,33.9308662 10.5077951,33.628185 C9.68037584,33.1753056 8.8882044,32.6472987 8.13579968,32.0817508 C7.57093129,31.6288714 7.00606284,31.1384169 6.51620897,30.6479738 C5.61151573,29.7046399 4.78409649,28.6884634 4.06919904,27.5573676 C2.41210108,24.8798377 1.54717457,21.7893446 1.54717457,18.6211453 C1.54717457,9.23191908 9.19266846,1.57949045 18.5683543,1.57949045 C26.7391758,1.57949045 33.5949837,7.3854052 35.212202,15.1153139 C34.6473336,15.1904243 34.0824652,15.3406508 33.555104,15.5681933 C32.1230496,8.59385661 25.9491509,3.3512276 18.6058616,3.3512276 C10.1701168,3.3512276 3.31713324,10.2130203 3.31713324,18.658347 C3.31713324,21.4860865 4.10704522,24.2762736 5.57660687,26.6512355 C5.16177883,22.9928249 4.93672395,19.9022187 4.93672395,18.5081431 C4.93672395,14.8519891 6.32901159,11.4585886 8.89080278,8.89382888 C11.4901013,6.32895606 14.916819,4.93499359 18.4935657,4.93499359 C22.145327,4.93499359 25.5346505,6.32895606 28.0963287,8.89382888 C30.1307587,10.9682586 31.4480319,13.605974 31.9003785,16.3963873 C31.2980028,16.7741564 30.7706417,17.2248019 30.318295,17.7527974 C30.318295,15.2277391 29.3760945,12.7755235 27.5689675,10.8157869 C25.3072909,8.33048664 21.9555877,6.89670957 18.603941,6.89670957 C12.2028522,6.89670957 6.92924077,12.1368502 6.89195945,18.5854536 C6.89195945,18.7732324 6.89195945,23.6002799 7.71937868,29.2935375 C7.79440452,29.3686479 7.79440452,29.3686479 7.83191176,29.4062059 C8.28424708,29.8590854 8.77411228,30.274435 9.30147344,30.6875112 C9.45151379,30.8001797 9.60376841,30.9128482 9.79132168,31.0652803 C8.69909212,24.6938177 8.66158484,18.6605527 8.66158484,18.6232265 C8.66158484,13.117957 13.1430248,8.63112622 18.6416799,8.63112622 C21.5035292,8.63112622 24.4027728,9.87487917 26.3623013,11.9868612 C28.0193992,13.8337145 28.8093112,16.1710108 28.6217749,18.548348 C28.584262,18.8112372 28.5467547,19.0763378 28.5467547,19.3392101 C28.5092418,19.6020994 28.4717346,19.8296476 28.4717346,20.09252 C28.3967144,20.770725 28.3216942,21.4864824 28.2841813,22.1669496 C28.2091611,22.5822767 28.1716482,23.0351788 28.1716482,23.4858074 C28.1716482,24.0513553 28.2466684,24.6169032 28.3216886,25.1448986 C28.5092418,26.3886516 28.9615715,27.5572998 29.8662647,28.5757384 C30.2810928,29.1037283 30.7334507,29.5941771 31.2585524,30.0470678 C30.8062171,30.4248369 30.3913664,30.8401357 29.9765835,31.2532684 C29.4860236,31.7061874 28.9586568,32.1215371 28.3562811,32.5346133 Z M36.5667564,30.4248934 C32.7251993,30.4248934 29.6007992,27.2944727 29.6007992,23.4505568 C29.6007992,19.6043786 32.7274588,16.47622 36.5667564,16.47622 C40.4083135,16.47622 43.5327136,19.6066408 43.5327136,23.4505568 C43.5327136,27.2945292 40.4083135,30.4248934 36.5667564,30.4248934 Z" id="Fill-5"></path>
            <path d="M39.181614,20.9390119 L39.181614,20.4532166 C39.181614,19.0724486 38.0690457,17.9126214 36.6979166,17.9126214 C35.3267874,17.9126214 34.2142191,19.0330109 34.2142191,20.4532166 L34.2142191,20.9390119 C33.3993741,21.0506139 32.7669903,21.7223882 32.7669903,22.5823992 L32.7669903,26.3921716 C32.7669903,27.2521826 33.4710235,27.961165 34.3250309,27.961165 L39.0730273,27.961165 C39.9270347,27.961165 40.631068,27.2521826 40.631068,26.3921716 L40.6288984,22.5823992 C40.6288984,21.724629 39.9987398,21.0527874 39.1816696,20.9390119 L39.181614,20.9390119 Z M36.6979166,19.3722032 C37.2542007,19.3722032 37.699673,19.8579984 37.699673,20.4181988 L37.699673,20.9039941 L35.6592228,20.9039941 L35.6592228,20.4181988 C35.6592228,19.8558193 36.1416268,19.3722032 36.6979166,19.3722032 Z M39.1446767,26.3550307 C39.1446767,26.3922276 39.1077339,26.4294301 39.0707966,26.4294301 L34.3228002,26.4294301 C34.2858574,26.4294301 34.2489201,26.3922276 34.2489201,26.3550307 L34.2489201,22.5824552 C34.2489201,22.4708532 34.3228002,22.3964537 34.4336231,22.3964537 L38.9947081,22.3964537 C39.105531,22.3964537 39.1794111,22.4708532 39.1794111,22.5824552 L39.1815862,26.3550307 L39.1446767,26.3550307 Z" id="Fill-6"></path>
        </g>
    </g>
</svg>