<?xml version="1.0" encoding="UTF-8"?>
<svg width="87px" height="89px" viewBox="0 0 87 89" version="1.1" xmlns="http://www.w3.org/2000/svg" xmlns:xlink="http://www.w3.org/1999/xlink">
    <!-- Generator: Sketch 43.2 (39069) - http://www.bohemiancoding.com/sketch -->
    <title>Group 44</title>
    <desc>Created with Sketch.</desc>
    <defs></defs>
    <g id="Page-1" stroke="none" stroke-width="1" fill="none" fill-rule="evenodd">
        <g id="Group-44" transform="translate(2.000000, 2.000000)">
            <g id="Page-1" stroke="#00A4A5" stroke-width="4" stroke-linecap="round">
                <path d="M4.0952381,13.7848333 C11.1019857,5.74629048 21.0116429,0.819309524 31.6459524,0.0831904762 C48.4671429,-0.940619048 59.4730952,9.29747619 61.2442857,11.0369286" id="Stroke-1"></path>
                <path d="M1.45585714,30.1463333 C3.24752381,27.1548643 13.7415714,10.2537143 31.5466429,8.73847619 C49.9752143,7.17081905 61.9845,23.203881 63.9205238,25.8668095" id="Stroke-2"></path>
                <path d="M2.10802381,41.4880952 C4.51162143,39.6964286 6.69919524,37.636831 8.63081667,35.3452381 C11.9781619,31.3739833 12.4180929,29.202381 14.6297262,26.3468738 C19.6247905,19.8440452 27.2952738,17.8884667 28.4511548,17.61255 C39.1212976,15.0410476 47.71925,20.7959833 48.4031548,21.2678571 C54.9099864,25.8269833 58.909396,33.1614524 59.2175626,41.1000714" id="Stroke-3"></path>
                <path d="M1.85207143,53.7420714 C6.34321667,50.6026619 10.2665571,46.7233452 13.453881,42.2682381 C17.6930667,36.2893952 18.0730024,32.666031 22.8441595,29.2269524 L22.8401564,29.2229595 C26.111535,26.787419 30.1068493,25.5156429 34.1860136,25.6196619 C39.8129731,25.9355993 44.9636564,28.8630905 48.1190374,33.5342214 C54.4578517,43.5043857 44.403735,54.2458779 50.5986017,66.1323167 C52.4182183,69.475669 55.0657898,72.2951381 58.2851588,74.3227929" id="Stroke-4"></path>
                <path d="M0.943952381,65.343881 C12.0543333,58.1252048 18.3487143,50.6747381 22.064119,45.1359286 C25.0515952,40.6687405 27.6430619,35.4976833 32.6185714,34.8343571 C36.5378167,34.3944364 40.3371738,36.3461143 42.2648024,39.7893905 C43.6045595,42.5328929 43.0846486,46.0241857 40.0411905,51.6553429 C33.6543595,63.500819 22.4521429,73.0109857 12.9307143,79.5664381" id="Stroke-5"></path>
                <path d="M4.19966667,74.3421429 C11.5903429,69.4270381 18.3374524,63.6003333 24.2755476,56.9977857 C27.9068976,52.9465714 31.2223,48.6153452 34.1857167,44.0486429" id="Stroke-6"></path>
                <path d="M63.9164286,31.7096905 C67.7156833,40.4160643 66.5,36.6048452 67.5,41.5" id="Stroke-7"></path>
                <path d="M41.0967381,62.6082619 C39.848919,65.5796643 39.6170262,68.8830881 40.4408652,71.9985405 C41.564701,75.8577905 44.1961986,79.101219 47.739501,80.9969048" id="Stroke-8"></path>
                <path d="M21.1519048,82.296119 C22.5236048,80.9043524 24.059319,79.6766 25.7190167,78.6408119 C28.1745214,77.1170762 29.8142548,76.0613238 31.5859571,76.2972095 C34.2974143,76.65714 36.5530714,80.0645214 37.4528976,84.4876857" id="Stroke-9"></path>
            </g>
            <circle id="Oval-2" stroke="#00A4A5" stroke-width="4" cx="66" cy="59" r="17"></circle>
            <path d="M71.6823609,53.9270716 L71.6823609,52.8151402 C71.6823609,49.6547156 69.1358157,47 65.9974535,47 C62.8590912,47 60.312546,49.5644471 60.312546,52.8151402 L60.312546,53.9270716 C58.4474563,54.1825162 57,55.720133 57,57.6886025 L57,66.4087483 C57,68.3772179 58.6114538,70 60.5661819,70 L71.4338181,70 C73.3885462,70 75,68.3772179 75,66.4087483 L74.9950342,57.6886025 C74.9950342,55.7252619 73.552671,54.1874912 71.6824883,53.9270716 L71.6823609,53.9270716 Z M65.9974535,50.3408206 C67.270726,50.3408206 68.2903627,51.452752 68.2903627,52.7349884 L68.2903627,53.8469198 L63.6199989,53.8469198 L63.6199989,52.7349884 C63.6199989,51.4477642 64.7241681,50.3408206 65.9974535,50.3408206 Z M71.5978156,66.3237369 C71.5978156,66.4088766 71.5132576,66.494029 71.4287123,66.494029 L60.5610761,66.494029 C60.476518,66.494029 60.3919727,66.4088766 60.3919727,66.3237369 L60.3919727,57.6887308 C60.3919727,57.4332862 60.5610761,57.2629941 60.8147374,57.2629941 L71.2545541,57.2629941 C71.5082154,57.2629941 71.6773188,57.4332862 71.6773188,57.6887308 L71.6822973,66.3237369 L71.5978156,66.3237369 Z" id="Fill-6" fill="#00A4A5"></path>
        </g>
    </g>
</svg>
