<?xml version="1.0" encoding="UTF-8"?>
<svg width="48px" height="20px" viewBox="0 0 48 20" version="1.1" xmlns="http://www.w3.org/2000/svg" xmlns:xlink="http://www.w3.org/1999/xlink">
    <!-- Generator: Sketch 47.1 (45422) - http://www.bohemiancoding.com/sketch -->
    <title>Shape</title>
    <desc>Created with Sketch.</desc>
    <defs></defs>
    <g id="Product-Page" stroke="none" stroke-width="1" fill="none" fill-rule="evenodd">
        <g id="Product-Page-(Desktop)" transform="translate(-1008.000000, -8497.000000)" fill-rule="nonzero" fill="#000000">
            <g id="Understanding-Life-Insurance" transform="translate(64.000000, 7125.000000)">
                <g id="What-is-life-insurance" transform="translate(294.000000, 1163.000000)">
                    <g id="Whole-Life" transform="translate(516.000000, 209.000000)">
                        <path d="M144.286919,0 C141.850838,0.0276587002 139.355226,0.908485526 137.223281,2.80835316 C132.944739,6.61881814 132.90645,12.9759837 137.223281,16.7651527 C141.450734,20.4756189 147.401805,20.5841143 152.167541,16.3396405 L165.119996,4.85285408 C169.238954,1.18492547 173.660195,1.34875787 177.187385,4.44436239 C180.625523,7.46126417 180.589358,12.086425 177.170364,15.1332284 C173.66202,18.2586255 169.283752,17.9778011 166.226055,15.575761 C164.594212,14.1885777 162.979418,12.7759045 161.358196,11.3716735 C160.934813,10.950415 160.151892,10.9823319 159.762518,11.4355016 C159.373177,11.8886714 159.464662,12.6673492 159.94549,13.0205583 C161.57096,14.4354102 163.211299,15.8417109 164.830397,17.2586324 C168.647234,20.2840308 174.353155,20.5457379 178.616719,16.7480178 C182.895261,12.9375528 182.93355,6.58038724 178.616719,2.79121829 C174.389266,-0.91924792 168.438195,-1.02774331 163.672459,3.21673047 L150.720004,14.7056955 C146.601047,18.3736241 142.179805,18.226785 138.652615,15.1312077 C135.214477,12.1143059 135.250642,7.47226077 138.669636,4.42545739 C142.188601,1.28943943 146.588383,1.59155989 149.647714,4.0169657 L154.481532,8.18695784 C154.904915,8.60821626 155.687835,8.57629944 156.07721,8.12312965 C156.466551,7.66995986 156.375065,6.8912821 155.894238,6.53594879 C154.268768,5.12109696 152.628429,3.71479623 151.009331,2.29787471 C148.909411,0.731989882 146.405303,0.0022603207 144.286102,8.16983387e-05 L144.286919,0 Z" id="Shape"></path>
                    </g>
                </g>
            </g>
        </g>
    </g>
</svg>