<?xml version="1.0" encoding="UTF-8"?>
<svg width="45px" height="45px" viewBox="0 0 45 45" version="1.1" xmlns="http://www.w3.org/2000/svg" xmlns:xlink="http://www.w3.org/1999/xlink">
    <!-- Generator: Sketch 47.1 (45422) - http://www.bohemiancoding.com/sketch -->
    <title>instruments copy</title>
    <desc>Created with Sketch.</desc>
    <defs></defs>
    <g id="Form-Flows/Comparison" stroke="none" stroke-width="1" fill="none" fill-rule="evenodd">
        <g id="instruments-copy" fill-rule="nonzero" fill="#2B2727">
            <path d="M45,3.58947 C45,3.341619 44.9015625,3.10257 44.725779,2.926755 L42.073254,0.275985 C41.7058695,-0.08964 41.113494,-0.08964 40.747869,0.275985 L40.085154,0.9387 C39.7177695,0.573075 39.125394,0.573075 38.758014,0.9387 C38.392389,1.3060845 38.392389,1.89846 38.7597735,2.264085 L38.758014,2.264085 C38.392389,1.89846 37.800009,1.89846 37.432629,2.264085 C37.065249,2.62971 37.0652445,3.223845 37.432629,3.58947 C37.0652445,3.223845 36.472869,3.223845 36.107244,3.58947 C35.7398595,3.955095 35.7398595,4.54923 36.107244,4.914855 L24.477444,16.546455 C22.696794,15.159555 21.097179,14.479245 19.634544,14.479245 C18.332019,14.479245 17.163054,15.02415 16.155819,16.09821 C15.361299,16.943715 14.797044,17.97381 14.345289,18.799965 C14.085135,19.272825 13.816179,19.76148 13.650939,19.928475 C13.186899,20.392515 11.418534,21.006 9.861084,21.545685 C7.250724,22.45095 4.29053445,23.47578 2.713734,25.05429 C0.628974,27.13554 -0.304415955,30.00429 0.087579,33.12279 C0.442656,35.94933 1.882314,38.80584 4.037364,40.9608895 C6.566859,43.4868745 10.013814,44.9986048 13.260564,44.9986048 C15.862104,44.9986048 18.171864,44.05995 19.948914,42.28632 C21.488769,40.74471 22.402809,37.96911 23.209659,35.52057 C23.765139,33.82956 24.341679,32.07879 24.920019,31.502205 C25.139745,31.282479 25.686414,30.97134 26.215524,30.674295 C27.876654,29.73564 30.149514,28.450665 30.488769,25.965045 C30.708495,24.347835 30.0405285,22.5549 28.454994,20.520945 L40.084794,8.892945 L40.100616,8.9070075 C40.2834285,9.08982 40.5242505,9.1812285 40.763331,9.1812285 C41.004153,9.1812285 41.243211,9.0898245 41.426046,8.9070075 C41.7934305,8.5413825 41.7934305,7.9472475 41.426046,7.5816225 L41.410224,7.56756 L41.426046,7.5816225 C41.6088585,7.764435 41.8496805,7.8558435 42.088761,7.8558435 C42.3278415,7.8558435 42.568641,7.7644395 42.751476,7.5816225 C43.1188605,7.2159975 43.1188605,6.6218625 42.753231,6.2562375 C42.9360435,6.43905 43.175106,6.5304585 43.414191,6.5304585 C43.655013,6.5304585 43.894071,6.4390545 44.076906,6.2562375 C44.4442905,5.8906125 44.442531,5.2964775 44.076906,4.9308525 L44.0610885,4.91679 L44.7238035,4.254075 C44.8995825,4.078296 44.9997795,3.839229 44.9997795,3.589605 L45,3.58947 Z M28.62945,25.71147 C28.416753,27.27594 26.68356,28.25676 25.29135,29.04075 C24.595245,29.4345 23.99409,29.773755 23.59332,30.174525 C22.70034,31.067505 22.11147,32.85693 21.42945,34.931025 C20.68767,37.18278 19.849185,39.733425 18.622215,40.9601245 C17.20719,42.3751495 15.35445,43.1222395 13.260915,43.1222395 C10.501155,43.1204818 7.549965,41.8179595 5.364765,39.632985 C3.4979841,37.766205 2.2534191,35.307 1.9475541,32.888385 C1.7225541,31.095405 1.9018521,28.50966 4.0393341,26.377335 C5.310225,25.102935 8.17371,24.111495 10.474785,23.313465 C12.5613,22.59099 14.206635,22.019715 14.978385,21.251565 C15.333462,20.896488 15.623505,20.367405 15.990885,19.699425 C16.996365,17.86779 17.9649,16.350795 19.636605,16.350795 C21.10788,16.350795 22.997565,17.49339 25.251255,19.7469 C27.699885,22.19553 28.837215,24.202935 28.629765,25.7112 L28.62945,25.71147 Z M27.228465,19.09692 C27.021042,18.8736795 26.8048305,18.6504345 26.57808,18.42192 C26.3495655,18.1951605 26.126325,17.977194 25.90308,17.76978 L29.38356,14.2893 C29.107584,14.6566845 29.135709,15.180525 29.4696945,15.51276 C29.837079,15.878385 30.4294545,15.878385 30.7950795,15.51276 C31.162464,15.147135 31.162464,14.553 30.7950795,14.187375 C30.461094,13.8533895 29.9372895,13.8252645 29.5716195,14.1012405 L32.0360895,11.6367705 C31.7601135,12.004155 31.7882385,12.5279955 32.122224,12.8619855 C32.487849,13.2276105 33.081984,13.2276105 33.447609,12.8619855 C33.8149935,12.494601 33.8149935,11.9022255 33.447609,11.5366005 C33.1136235,11.202615 32.591574,11.17449 32.224149,11.450466 L34.686864,8.985996 C34.410888,9.3533805 34.439013,9.875466 34.7729985,10.209456 C35.1386235,10.575081 35.7327585,10.575081 36.0983835,10.209456 C36.465768,9.843831 36.465768,9.249696 36.0983835,8.884071 C35.764398,8.5500855 35.2405935,8.5219605 34.8749235,8.7979365 L37.4325435,6.2403165 L38.7579285,7.5674565 L27.228465,19.09692 Z M38.757915,4.91472 L41.41044,2.262195 L42.73758,3.58758 L40.085055,6.24186 L38.757915,4.91472 Z" id="Fill-1"></path>
            <path d="M19.28475,21.9654 C18.28278,21.9654 17.34237,22.3556355 16.632225,23.06403 C15.169725,24.52653 15.169725,26.90487 16.632225,28.36728 C17.340615,29.07567 18.282825,29.46591 19.28475,29.46591 C20.28672,29.46591 21.22713,29.0756745 21.937275,28.36728 C22.645665,27.65889 23.035905,26.71668 23.035905,25.71651 C23.035905,24.71454 22.6456695,23.77413 21.937275,23.06574 C21.228885,22.355595 20.286675,21.965355 19.28475,21.965355 L19.28475,21.9654 Z M20.610135,27.04005 C20.256813,27.395127 19.785735,27.58851 19.28475,27.58851 C18.783765,27.58851 18.31266,27.3933945 17.95761,27.04005 C17.22636,26.3088 17.22636,25.12053 17.95761,24.38928 C18.312687,24.034203 18.783765,23.839065 19.28475,23.839065 C19.785735,23.839065 20.25684,24.0341805 20.610135,24.38928 C20.965212,24.744357 21.158595,25.21368 21.158595,25.714665 C21.1603545,26.21565 20.9652345,26.684955 20.610135,27.04005 Z" id="Fill-2"></path>
            <path d="M11.9934,27.7029 C11.6260155,27.337275 11.03364,27.337275 10.668015,27.7029 C10.3006305,28.0702845 10.3006305,28.66266 10.668015,29.028285 L15.969465,34.331535 C16.154037,34.516107 16.3930995,34.605756 16.63218,34.605756 C16.873002,34.605756 17.11206,34.514352 17.294895,34.331535 C17.66052,33.96591 17.66052,33.37353 17.294895,33.00615 L11.9934,27.7029 Z" id="Fill-3"></path>
        </g>
    </g>
</svg>