<?xml version="1.0" encoding="UTF-8"?>
<svg width="100px" height="100px" viewBox="0 0 100 100" version="1.1" xmlns="http://www.w3.org/2000/svg" xmlns:xlink="http://www.w3.org/1999/xlink">
    <!-- Generator: Sketch 43.2 (39069) - http://www.bohemiancoding.com/sketch -->
    <title>Page 1</title>
    <desc>Created with Sketch.</desc>
    <defs></defs>
    <g id="Page-1" stroke="none" stroke-width="1" fill="none" fill-rule="evenodd">
        <g fill="#00A4A5">
            <path d="M100,7.9766 C100,7.42582 99.78125,6.8946 99.39062,6.5039 L93.49612,0.6133 C92.67971,-0.1992 91.36332,-0.1992 90.55082,0.6133 L89.07812,2.086 C88.26171,1.2735 86.94532,1.2735 86.12892,2.086 C85.31642,2.90241 85.31642,4.2188 86.13283,5.0313 L86.12892,5.0313 C85.31642,4.2188 84.00002,4.2188 83.18362,5.0313 C82.36722,5.8438 82.36721,7.1641 83.18362,7.9766 C82.36721,7.1641 81.05082,7.1641 80.23832,7.9766 C79.42191,8.7891 79.42191,10.1094 80.23832,10.9219 L54.39432,36.7699 C50.43732,33.6879 46.88262,32.1761 43.63232,32.1761 C40.73782,32.1761 38.14012,33.387 35.90182,35.7738 C34.13622,37.6527 32.88232,39.9418 31.87842,41.7777 C31.3003,42.8285 30.70262,43.9144 30.33542,44.2855 C29.30422,45.3167 25.37452,46.68 21.91352,47.8793 C16.11272,49.891 9.534521,52.1684 6.03052,55.6762 C1.39772,60.3012 -0.6764799,66.6762 0.19462,73.6062 C0.98368,79.8874 4.18292,86.2352 8.97192,91.024199 C14.59302,96.637499 22.25292,99.9968996 29.46792,99.9968996 C35.24912,99.9968996 40.38192,97.911 44.33092,93.9696 C47.75282,90.5438 49.78402,84.3758 51.57702,78.9346 C52.81142,75.1768 54.09262,71.2862 55.37782,70.0049 C55.8661,69.51662 57.08092,68.8252 58.25672,68.1651 C61.94812,66.0792 66.99892,63.2237 67.75282,57.7001 C68.2411,54.1063 66.75673,50.122 63.23332,45.6021 L89.07732,19.7621 L89.11248,19.79335 C89.51873,20.1996 90.05389,20.40273 90.58518,20.40273 C91.12034,20.40273 91.65158,20.19961 92.05788,19.79335 C92.87429,18.98085 92.87429,17.66055 92.05788,16.84805 L92.02272,16.8168 L92.05788,16.84805 C92.46413,17.2543 92.99929,17.45743 93.53058,17.45743 C94.06187,17.45743 94.59698,17.25431 95.00328,16.84805 C95.81969,16.03555 95.81969,14.71525 95.00718,13.90275 C95.41343,14.309 95.94468,14.51213 96.47598,14.51213 C97.01114,14.51213 97.54238,14.30901 97.94868,13.90275 C98.76509,13.09025 98.76118,11.76995 97.94868,10.95745 L97.91353,10.9262 L99.38623,9.4535 C99.77685,9.06288 99.99951,8.53162 99.99951,7.9769 L100,7.9766 Z M63.621,57.1366 C63.14834,60.6132 59.2968,62.7928 56.203,64.535 C54.6561,65.41 53.3202,66.1639 52.4296,67.0545 C50.4452,69.0389 49.1366,73.0154 47.621,77.6245 C45.9726,82.6284 44.1093,88.2965 41.3827,91.022499 C38.2382,94.166999 34.121,95.827199 29.4687,95.827199 C23.3359,95.823293 16.7777,92.928799 11.9217,88.0733 C7.773298,83.9249 5.007598,78.46 4.327898,73.0853 C3.827898,69.1009 4.226338,63.3548 8.976298,58.6163 C11.8005,55.7843 18.1638,53.5811 23.2773,51.8077 C27.914,50.2022 31.5703,48.9327 33.2853,47.2257 C34.07436,46.43664 34.7189,45.2609 35.5353,43.7765 C37.7697,39.7062 39.922,36.3351 43.6369,36.3351 C46.9064,36.3351 51.1057,38.8742 56.1139,43.882 C61.5553,49.3234 64.0827,53.7843 63.6217,57.136 L63.621,57.1366 Z M60.5077,42.4376 C60.04676,41.94151 59.56629,41.44541 59.0624,40.9376 C58.55459,40.43369 58.0585,39.94932 57.5624,39.4884 L65.2968,31.754 C64.68352,32.57041 64.74602,33.7345 65.48821,34.4728 C66.30462,35.2853 67.62101,35.2853 68.43351,34.4728 C69.24992,33.6603 69.24992,32.34 68.43351,31.5275 C67.69132,30.78531 66.52731,30.72281 65.71471,31.33609 L71.19131,25.85949 C70.57803,26.6759 70.64053,27.83999 71.38272,28.58219 C72.19522,29.39469 73.51552,29.39469 74.32802,28.58219 C75.14443,27.76578 75.14443,26.44939 74.32802,25.63689 C73.58583,24.8947 72.42572,24.8322 71.60922,25.44548 L77.08192,19.96888 C76.46864,20.78529 76.53114,21.94548 77.27333,22.68768 C78.08583,23.50018 79.40613,23.50018 80.21863,22.68768 C81.03504,21.87518 81.03504,20.55488 80.21863,19.74238 C79.47644,19.00019 78.31243,18.93769 77.49983,19.55097 L83.18343,13.86737 L86.12873,16.81657 L60.5077,42.4376 Z M86.1287,10.9216 L92.0232,5.0271 L94.9724,7.9724 L89.0779,13.8708 L86.1287,10.9216 Z" id="Fill-1"></path>
            <path d="M42.855,48.812 C40.6284,48.812 38.5386,49.67919 36.9605,51.2534 C33.7105,54.5034 33.7105,59.7886 36.9605,63.0384 C38.5347,64.6126 40.6285,65.4798 42.855,65.4798 C45.0816,65.4798 47.1714,64.61261 48.7495,63.0384 C50.3237,61.4642 51.1909,59.3704 51.1909,57.1478 C51.1909,54.9212 50.32371,52.8314 48.7495,51.2572 C47.1753,49.6791 45.0815,48.8119 42.855,48.8119 L42.855,48.812 Z M45.8003,60.089 C45.01514,60.87806 43.9683,61.3078 42.855,61.3078 C41.7417,61.3078 40.6948,60.87421 39.9058,60.089 C38.2808,58.464 38.2808,55.8234 39.9058,54.1984 C40.69486,53.40934 41.7417,52.9757 42.855,52.9757 C43.9683,52.9757 45.0152,53.40929 45.8003,54.1984 C46.58936,54.98746 47.0191,56.0304 47.0191,57.1437 C47.02301,58.257 46.58941,59.2999 45.8003,60.089 Z" id="Fill-2"></path>
            <path d="M26.652,61.562 C25.83559,60.7495 24.5192,60.7495 23.7067,61.562 C22.89029,62.37841 22.89029,63.6948 23.7067,64.5073 L35.4877,76.2923 C35.89786,76.70246 36.42911,76.90168 36.9604,76.90168 C37.49556,76.90168 38.0268,76.69856 38.4331,76.2923 C39.2456,75.4798 39.2456,74.1634 38.4331,73.347 L26.652,61.562 Z" id="Fill-3"></path>
        </g>
    </g>
</svg>
