<?xml version="1.0" encoding="UTF-8"?>
<svg width="19px" height="19px" viewBox="0 0 19 19" version="1.1" xmlns="http://www.w3.org/2000/svg" xmlns:xlink="http://www.w3.org/1999/xlink">
    <!-- Generator: Sketch 44.1 (41455) - http://www.bohemiancoding.com/sketch -->
    <title>send</title>
    <desc>Created with Sketch.</desc>
    <defs></defs>
    <g id="Mobile-Hamburger-Menu" stroke="none" stroke-width="1" fill="none" fill-rule="evenodd">
        <g id="Artboard" transform="translate(-572.000000, -380.000000)" fill="#4D4D4D">
            <g id="Group-2" transform="translate(572.000000, 289.000000)">
                <g id="Group-Copy-3" transform="translate(0.000000, 85.000000)">
                    <path d="M17.8719378,6.27701749 C17.5552701,6.01972492 17.1198519,5.94055797 16.7240171,6.05930839 C16.3479742,6.15826707 7.56044325,8.61244237 0.455209934,14.4114211 C0.138542154,14.6885054 -0.0395834725,15.1041319 -1.11022302e-16,15.5395501 C0.0593752088,15.9551765 0.31666778,16.3312195 0.692710769,16.5291369 L4.13647288,18.0531006 L12.6667112,12.5114144 L6.33335561,19.7749816 L6.33335561,23.7135371 C6.33335561,24.2874975 6.59064818,24.8218744 7.14481679,24.9604165 C7.26356721,24.9802083 7.36252589,25 7.48127631,25 C7.91669451,25 8.3521127,24.7427074 8.5698218,24.327081 L10.4104533,21.397904 L14.5469262,23.495828 C14.7250518,23.574995 14.9229691,23.6343702 15.1208865,23.6343702 C15.2990121,23.6343702 15.4969295,23.5947867 15.6750551,23.495828 C16.0313064,23.3374942 16.2688072,23.0010346 16.3677659,22.6249916 C18.0698552,14.6687137 18.3469395,7.62285556 18.3667313,7.32597951 C18.386523,6.93014479 18.2083974,6.51451833 17.8719378,6.27701749 Z" id="send"></path>
                </g>
            </g>
        </g>
    </g>
</svg>
