<?xml version="1.0" encoding="UTF-8"?>
<svg width="45px" height="56px" viewBox="0 0 45 56" version="1.1" xmlns="http://www.w3.org/2000/svg" xmlns:xlink="http://www.w3.org/1999/xlink">
    <!-- Generator: Sketch 47.1 (45422) - http://www.bohemiancoding.com/sketch -->
    <title>jewelry copy</title>
    <desc>Created with Sketch.</desc>
    <defs></defs>
    <g id="Form-Flows/Comparison" stroke="none" stroke-width="1" fill="none" fill-rule="evenodd">
        <g id="jewelry-copy" fill-rule="nonzero">
            <path d="M1.06474074e-15,33.4701563 C1.06474074e-15,45.9147656 10.1235938,55.9701563 22.5,55.9701563 C34.8764062,55.9701563 45,45.8465625 45,33.4701563 C45,24.0496875 39.1635,15.96375 30.9375,12.5880469 L37.1255625,6.04842187 L37.1969719,5.9770125 L37.2683812,5.90560312 L37.2683812,5.83419375 L37.2683812,5.76278437 L37.2683812,5.691375 L37.2683812,5.61996562 L37.2683812,5.47988906 L37.2683812,5.40847969 L37.1969719,5.33707031 L37.1255625,5.26566094 L32.55525,0.623910937 C32.4151734,0.483834375 32.2750969,0.412425 32.0636109,0.412425 L12.2333766,0.423414844 C12.0218906,0.423414844 11.8818141,0.494824219 11.7417375,0.634900781 L7.171425,5.27665078 L7.10001563,5.34806016 L7.02860625,5.41946953 L7.02860625,5.49087891 L7.02860625,5.63095547 L7.02860625,5.70236484 L7.02860625,5.77377422 L7.02860625,5.84518359 L7.02860625,5.91659297 C7.02860625,5.91659297 7.02860625,5.98800234 7.10001563,5.98800234 L7.171425,6.05941172 L13.5709875,12.8105367 C5.55395625,16.3124508 -2.8125e-05,24.2581148 -2.8125e-05,33.4704516 L1.06474074e-15,33.4701563 Z M29.53125,12.09375 C28.8995344,11.8822641 28.3365,11.7421875 27.702,11.6021109 L30.3744375,6.32867344 L35.0161875,6.32867344 L29.53125,12.09375 Z M26.227125,11.2505625 C25.032375,11.0390766 23.7661875,10.899 22.5,10.899 C21.0223125,10.899 19.5474375,11.0390766 18.1411875,11.3219719 L15.5401875,6.26003438 L28.7596406,6.26003438 L26.227125,11.2505625 Z M31.7806875,1.61845312 L34.94475,4.85395313 L30.234375,4.85395313 L27.702,1.61845312 L31.7806875,1.61845312 Z M25.9441875,1.61845312 L28.4765625,4.85395313 L15.8203125,4.85395313 L18.3526875,1.61845312 L25.9441875,1.61845312 Z M12.5159063,1.61845312 L16.5945938,1.61845312 L14.0622188,4.85121094 L9.35184375,4.85121094 L12.5159063,1.61845312 Z M9.35184375,6.25746094 L13.9935938,6.25746094 L16.7346563,11.6709609 C16.1716078,11.8110375 15.5399063,12.0225234 14.9768438,12.2340094 L9.35184375,6.25746094 Z M22.4995781,12.3768281 C34.1728594,12.3768281 43.5933281,21.8690156 43.5933281,33.4705781 C43.5933281,45.1438594 34.1011406,54.5643281 22.4995781,54.5643281 C10.8980156,54.5643281 1.40582813,45.0721406 1.40582813,33.4705781 C1.40582813,21.8690156 10.8262969,12.3768281 22.4995781,12.3768281 Z" id="Fill-1" fill="#2B2727"></path>
            <path d="M22.5,52.3110938 C32.9069531,52.3110938 41.3444531,43.8735938 41.3444531,33.4666406 C41.3444531,23.0596875 32.9069531,14.6221875 22.5,14.6221875 C12.0930469,14.6221875 3.65554687,23.0596875 3.65554687,33.4666406 C3.65554687,43.8735938 12.0930469,52.3110938 22.5,52.3110938 Z M22.5,16.1001562 C32.1321094,16.1001562 39.9382031,23.90625 39.9382031,33.5383594 C39.9382031,43.1704687 32.1321094,50.9048438 22.5,50.9048438 C12.8678906,50.9048438 5.06179687,43.1015625 5.06179687,33.4694531 C5.06179687,23.8345313 12.8678906,16.1001562 22.5,16.1001562 Z" id="Fill-2" fill="#000000"></path>
        </g>
    </g>
</svg>