<?xml version="1.0" encoding="UTF-8"?>
<svg width="64px" height="80px" viewBox="0 0 64 80" version="1.1" xmlns="http://www.w3.org/2000/svg" xmlns:xlink="http://www.w3.org/1999/xlink">
    <!-- Generator: Sketch 43.1 (39012) - http://www.bohemiancoding.com/sketch -->
    <title>Page 1</title>
    <desc>Created with Sketch.</desc>
    <defs></defs>
    <g id="Icons" stroke="none" stroke-width="1" fill="none" fill-rule="evenodd">
        <g id="Page-1" fill="#00A4A5">
            <path d="M0,47.602 C0,65.301 14.398,79.602 32,79.602 C49.602,79.602 64,65.204 64,47.602 C64,34.204 55.6992,22.704 44,17.903 L52.8008,8.6022 L52.90236,8.50064 L53.00392,8.39908 L53.00392,8.29752 L53.00392,8.19596 L53.00392,8.0944 L53.00392,7.99284 L53.00392,7.79362 L53.00392,7.69206 L52.90236,7.5905 L52.8008,7.48894 L46.3008,0.88734 C46.10158,0.68812 45.90236,0.58656 45.60158,0.58656 L17.39858,0.60219 C17.0978,0.60219 16.89858,0.70375 16.69936,0.90297 L10.19936,7.50457 L10.0978,7.60613 L9.99624,7.70769 L9.99624,7.80925 L9.99624,8.00847 L9.99624,8.11003 L9.99624,8.21159 L9.99624,8.31315 L9.99624,8.41471 C9.99624,8.41471 9.99624,8.51627 10.0978,8.51627 L10.19936,8.61783 L19.30096,18.21943 C7.89896,23.19993 -4e-05,34.50043 -4e-05,47.60242 L0,47.602 Z M42,17.2 C41.10156,16.89922 40.3008,16.7 39.3984,16.50078 L43.1992,9.00078 L49.8008,9.00078 L42,17.2 Z M37.3008,16.0008 C35.6016,15.70002 33.8008,15.5008 32,15.5008 C29.8984,15.5008 27.8008,15.70002 25.8008,16.10236 L22.1016,8.90316 L40.9026,8.90316 L37.3008,16.0008 Z M45.1992,2.3018 L49.6992,6.9034 L43,6.9034 L39.3984,2.3018 L45.1992,2.3018 Z M36.8984,2.3018 L40.5,6.9034 L22.5,6.9034 L26.1016,2.3018 L36.8984,2.3018 Z M17.8004,2.3018 L23.6012,2.3018 L19.9996,6.8995 L13.3004,6.8995 L17.8004,2.3018 Z M13.3004,8.8995 L19.902,8.8995 L23.8004,16.5987 C22.99962,16.79792 22.1012,17.0987 21.3004,17.39948 L13.3004,8.8995 Z M31.9994,17.6026 C48.6014,17.6026 61.9994,31.1026 61.9994,47.6026 C61.9994,64.2046 48.4994,77.6026 31.9994,77.6026 C15.4994,77.6026 1.9994,64.1026 1.9994,47.6026 C1.9994,31.1026 15.3974,17.6026 31.9994,17.6026 Z" id="Fill-1"></path>
            <path d="M32,74.398 C46.801,74.398 58.801,62.398 58.801,47.597 C58.801,32.796 46.801,20.796 32,20.796 C17.199,20.796 5.199,32.796 5.199,47.597 C5.199,62.398 17.199,74.398 32,74.398 Z M32,22.898 C45.699,22.898 56.801,34 56.801,47.699 C56.801,61.398 45.699,72.398 32,72.398 C18.301,72.398 7.199,61.3 7.199,47.601 C7.199,33.898 18.301,22.898 32,22.898 Z" id="Fill-2"></path>
        </g>
    </g>
</svg>
