<?xml version="1.0" encoding="UTF-8"?>
<svg width="102px" height="63px" viewBox="0 0 102 63" version="1.1" xmlns="http://www.w3.org/2000/svg" xmlns:xlink="http://www.w3.org/1999/xlink">
    <!-- Generator: Sketch 47.1 (45422) - http://www.bohemiancoding.com/sketch -->
    <title>Group Copy</title>
    <desc>Created with Sketch.</desc>
    <defs></defs>
    <g id="Form-Flows/Comparison" stroke="none" stroke-width="1" fill="none" fill-rule="evenodd">
        <g id="Group-Copy" transform="translate(1.000000, 0.000000)">
            <path d="M94.0616438,47.7799517 L94.0616438,43.6188125 C94.0616438,43.0497021 93.6072167,42.6727549 92.9211281,42.6727549 L85.0533955,42.6727549 C84.3673069,42.6727549 83.9128799,43.0497021 83.9128799,43.6188125 L83.9128799,47.7799517 C83.9128799,48.3490622 84.3673069,48.726009 85.0533955,48.726009 L92.9211281,48.726009 C93.6072167,48.726009 94.0616438,48.3453722 94.0616438,47.7799517 Z M85.6138885,47.0694688 L85.6138885,44.3292951 L92.3606351,44.3292951 L92.3606351,47.0694688 L85.6138885,47.0694688 Z" id="Fill-2-Copy-5" fill="#2B2727" fill-rule="nonzero" transform="translate(88.987262, 45.699382) scale(-1, 1) rotate(90.000000) translate(-88.987262, -45.699382) "></path>
            <path d="M89.5477549,47.7799517 L89.5477549,43.6188125 C89.5477549,43.0497021 89.0933278,42.6727549 88.4072392,42.6727549 L80.5395066,42.6727549 C79.8534181,42.6727549 79.398991,43.0497021 79.398991,43.6188125 L79.398991,47.7799517 C79.398991,48.3490622 79.8534181,48.726009 80.5395066,48.726009 L88.4072392,48.726009 C89.0933278,48.726009 89.5477549,48.3453722 89.5477549,47.7799517 Z M81.0999997,47.0694688 L81.0999997,44.3292951 L87.8467462,44.3292951 L87.8467462,47.0694688 L81.0999997,47.0694688 Z" id="Fill-2-Copy-6" fill="#2B2727" fill-rule="nonzero" transform="translate(84.473373, 45.699382) scale(-1, 1) rotate(90.000000) translate(-84.473373, -45.699382) "></path>
            <path d="M91.7459861,37.7460858 L91.7459861,33.5849464 C91.7459861,33.015836 91.2915594,32.6388889 90.6054708,32.6388889 L82.7377378,32.6388889 C82.0516493,32.6388889 81.5972222,33.015836 81.5972222,33.5849464 L81.5972222,37.7460858 C81.5972222,38.3151958 82.0516493,38.6921431 82.7377378,38.6921431 L90.6054708,38.6921431 C91.2915594,38.6921431 91.7459861,38.3115063 91.7459861,37.7460858 Z M83.2587417,37.0516413 L83.2587417,34.2793908 L90.0844667,34.2793908 L90.0844667,37.0516413 L83.2587417,37.0516413 Z" id="Fill-2-Copy-10" fill="#2B2727" fill-rule="nonzero" transform="translate(86.671604, 35.665516) scale(-1, 1) translate(-86.671604, -35.665516) "></path>
            <path d="M91.900192,29.8611111 L78.125,29.8611111 L78.125,29.8611111 C77.7414691,29.8611111 77.4305556,30.1720245 77.4305556,30.5555556 L77.4305556,52.9583323 L77.4305556,52.9583323 C77.4305556,53.3418632 77.7414691,53.6527767 78.125,53.6527767 L95.8333333,53.6527767 L95.7982479,29.8870981 L91.900192,29.8611111 Z" id="Path-2-Copy" stroke="#2B2727" stroke-width="2" transform="translate(86.631944, 41.756944) scale(-1, 1) translate(-86.631944, -41.756944) "></path>
            <path d="M99.9709674,20.1388889 L84.9044448,20.1388889 L77.509584,29.1326403 L77.509584,29.1326403 C77.3877927,29.2807649 77.4091403,29.499575 77.5572646,29.6213663 C77.6194,29.6724552 77.6973458,29.7003852 77.7777875,29.7003852 L99.7240361,29.7003852 L99.9709674,20.1388889 Z" id="Path-3-Copy" stroke="#2B2727" stroke-width="2" transform="translate(88.700761, 24.919637) scale(-1, 1) translate(-88.700761, -24.919637) "></path>
            <path d="M82.5353222,20.0118958 L75.9827056,7.64782948 L36.3453771,7.64782948 L36.3453771,0.694444444 L36.3453771,0.694444444 C36.3453771,0.310913368 36.0344635,-7.04535156e-17 35.6509326,0 L30.5726784,0 L30.5726784,0 C30.1891474,7.04535156e-17 29.878234,0.310913368 29.878234,0.694444444 L29.878234,7.64782948 L24.245561,7.64782948 L17.7873472,20.0156475 L17.7873472,20.0156475 C17.6098212,20.355619 17.7415093,20.7751336 18.0814808,20.9526595 C18.1807047,21.0044721 18.2909829,21.0315311 18.40292,21.0315311 L21.7421508,21.0315311 L21.7421508,57.5362295 L19.7245675,57.5362295 L19.7245675,57.5362295 C19.3410364,57.5362295 19.0301231,57.8471431 19.0301231,58.230674 L19.0301231,58.9661823 L19.0301231,58.9661823 C19.0301231,59.3497132 19.3410364,59.6606267 19.7245675,59.6606267 L38.6401698,59.6606267 L38.6401698,62.1527778 L38.6401698,62.1527778 C38.6401698,62.5363087 38.951083,62.8472222 39.3346142,62.8472222 L45.3159302,62.8472222 L54.9123361,62.8472222 L60.8936524,62.8472222 L60.8936524,62.8472222 C61.2771833,62.8472222 61.5880969,62.5363087 61.5880969,62.1527778 L61.5880969,59.6606267 L80.503699,59.6606267 L80.503699,59.6606267 C80.8872302,59.6606267 81.1981434,59.3497132 81.1981434,58.9661823 L81.1981434,58.230674 L81.1981434,58.230674 C81.1981434,57.8471431 80.8872302,57.5362295 80.503699,57.5362295 L78.4861156,57.5362295 L78.4861156,21.0315311 L81.9217233,21.0315311 L81.9217233,21.0315311 C82.3052542,21.0315311 82.6161677,20.7206177 82.6161677,20.3370867 C82.6161677,20.2237156 82.5884111,20.1120686 82.5353222,20.0118958 Z M31.9644092,2.12439708 L34.2592019,2.12439708 L34.2592019,7.64782948 L31.9644092,7.64782948 L31.9644092,2.12439708 Z M20.6990632,18.907134 L25.4972661,9.42500434 L29.7739252,9.42500434 L36.2410684,9.42500434 L74.6266917,9.42500434 L79.4248944,18.907134 L78.4861156,18.907134 L55.8511149,18.907134 L50.5340188,14.8708602 L50.5340188,14.8708602 C50.2858031,14.6824368 49.9424632,14.6824368 49.6942479,14.8708602 L44.3771514,18.907134 L21.637842,18.907134 L20.6990632,18.907134 Z M23.7240172,20.4648099 L43.296926,20.4648099 L39.2303056,23.6685128 L39.2303056,57.5362295 L23.7240172,57.5362295 L23.7240172,20.4648099 Z M47.4021056,60.722825 L47.4021056,49.2510809 L52.8261611,49.2510809 L52.8261611,60.722825 L47.4021056,60.722825 L47.4021056,60.722825 Z M59.259008,60.722825 L55.0166448,60.722825 L55.0166448,47.8368993 L55.0166448,47.8368993 C55.0166448,47.4533684 54.7057316,47.1424549 54.3222003,47.1424549 L46.1146837,47.1424549 L46.1146837,47.1424549 C45.7311524,47.1424549 45.4202392,47.4533684 45.4202392,47.8368993 L45.4202392,60.722825 L41.177876,60.722825 L41.177876,24.5045381 L50.218442,17.0037164 L59.259008,24.8609805 L59.259008,60.722825 Z M57.6257847,20.4648099 L76.5042493,20.4648099 L76.5042493,57.5362295 L61.3451833,57.5362295 L61.3451833,23.6685128 L57.6257847,20.4648099 Z" id="Shape" fill="#2B2727" fill-rule="nonzero"></path>
            <path d="M34.142676,52.0763929 L34.142676,47.6378446 C34.142676,47.0307936 33.6882489,46.6287165 33.0021603,46.6287165 L25.1344275,46.6287165 C24.4483389,46.6287165 23.9939119,47.0307936 23.9939119,47.6378446 L23.9939119,52.0763929 C23.9939119,52.6834439 24.4483389,53.085521 25.1344275,53.085521 L33.0021603,53.085521 C33.6882489,53.085521 34.142676,52.6795085 34.142676,52.0763929 Z M25.6949206,51.3185446 L25.6949206,48.3956929 L32.4416672,48.3956929 L32.4416672,51.3185446 L25.6949206,51.3185446 Z" id="Fill-2-Copy-5" fill="#2B2727" fill-rule="nonzero" transform="translate(29.068294, 49.857119) rotate(90.000000) translate(-29.068294, -49.857119) "></path>
            <path d="M38.6565648,52.0763928 L38.6565648,47.6378446 C38.6565648,47.0307935 38.2021377,46.6287165 37.5160492,46.6287165 L29.6483165,46.6287165 C28.9622279,46.6287165 28.5078008,47.0307935 28.5078008,47.6378446 L28.5078008,52.0763928 C28.5078008,52.6834439 28.9622279,53.085521 29.6483165,53.085521 L37.5160492,53.085521 C38.2021377,53.085521 38.6565648,52.6795085 38.6565648,52.0763928 Z M30.2088096,51.3185446 L30.2088096,48.3956928 L36.9555561,48.3956928 L36.9555561,51.3185446 L30.2088096,51.3185446 Z" id="Fill-2-Copy-6" fill="#2B2727" fill-rule="nonzero" transform="translate(33.582183, 49.857119) rotate(90.000000) translate(-33.582183, -49.857119) "></path>
            <path d="M34.1426759,30.5486152 L34.1426759,26.1100667 C34.1426759,25.5030157 33.6882489,25.1009388 33.0021603,25.1009388 L25.1344275,25.1009388 C24.4483389,25.1009388 23.9939119,25.5030157 23.9939119,26.1100667 L23.9939119,30.5486152 C23.9939119,31.1556663 24.4483389,31.5577432 25.1344275,31.5577432 L33.0021603,31.5577432 C33.6882489,31.5577432 34.1426759,31.1517307 34.1426759,30.5486152 Z M25.6949206,29.7907669 L25.6949206,26.8679151 L32.4416672,26.8679151 L32.4416672,29.7907669 L25.6949206,29.7907669 Z" id="Fill-2-Copy-5" fill="#2B2727" fill-rule="nonzero" transform="translate(29.068294, 28.329341) rotate(90.000000) translate(-29.068294, -28.329341) "></path>
            <path d="M38.6565648,30.5486152 L38.6565648,26.1100667 C38.6565648,25.5030156 38.2021377,25.1009387 37.5160491,25.1009387 L29.6483164,25.1009387 C28.9622279,25.1009387 28.5078008,25.5030156 28.5078008,26.1100667 L28.5078008,30.5486152 C28.5078008,31.1556662 28.9622279,31.5577432 29.6483164,31.5577432 L37.5160491,31.5577432 C38.2021377,31.5577432 38.6565648,31.1517306 38.6565648,30.5486152 Z M30.2088096,29.7907668 L30.2088096,26.8679151 L36.9555561,26.8679151 L36.9555561,29.7907668 L30.2088096,29.7907668 Z" id="Fill-2-Copy-6" fill="#2B2727" fill-rule="nonzero" transform="translate(33.582183, 28.329341) rotate(90.000000) translate(-33.582183, -28.329341) "></path>
            <path d="M16.0871202,47.7799518 L16.0871202,43.6188125 C16.0871202,43.0497021 15.6326932,42.6727549 14.9466046,42.6727549 L7.07887179,42.6727549 C6.39278321,42.6727549 5.93835616,43.0497021 5.93835616,43.6188125 L5.93835616,47.7799518 C5.93835616,48.3490622 6.39278321,48.726009 7.07887179,48.726009 L14.9466046,48.726009 C15.6326932,48.726009 16.0871202,48.3453722 16.0871202,47.7799518 Z M7.63936491,47.0694688 L7.63936491,44.3292952 L14.3861115,44.3292952 L14.3861115,47.0694688 L7.63936491,47.0694688 Z" id="Fill-2-Copy-5" fill="#2B2727" fill-rule="nonzero" transform="translate(11.012738, 45.699382) rotate(90.000000) translate(-11.012738, -45.699382) "></path>
            <path d="M20.6010091,47.7799518 L20.6010091,43.6188125 C20.6010091,43.0497021 20.1465821,42.6727549 19.4604935,42.6727549 L11.5927607,42.6727549 C10.9066721,42.6727549 10.4522451,43.0497021 10.4522451,43.6188125 L10.4522451,47.7799518 C10.4522451,48.3490622 10.9066721,48.726009 11.5927607,48.726009 L19.4604935,48.726009 C20.1465821,48.726009 20.6010091,48.3453722 20.6010091,47.7799518 Z M12.1532538,47.0694688 L12.1532538,44.3292952 L18.9000004,44.3292952 L18.9000004,47.0694688 L12.1532538,47.0694688 Z" id="Fill-2-Copy-6" fill="#2B2727" fill-rule="nonzero" transform="translate(15.526627, 45.699382) rotate(90.000000) translate(-15.526627, -45.699382) "></path>
            <path d="M71.6426759,52.0763929 L71.6426759,47.6378446 C71.6426759,47.0307936 71.1882488,46.6287165 70.5021602,46.6287165 L62.6344276,46.6287165 C61.9483391,46.6287165 61.493912,47.0307936 61.493912,47.6378446 L61.493912,52.0763929 C61.493912,52.6834439 61.9483391,53.085521 62.6344276,53.085521 L70.5021602,53.085521 C71.1882488,53.085521 71.6426759,52.6795085 71.6426759,52.0763929 Z M63.1949207,51.3185446 L63.1949207,48.3956929 L69.9416672,48.3956929 L69.9416672,51.3185446 L63.1949207,51.3185446 Z" id="Fill-2-Copy-5" fill="#2B2727" fill-rule="nonzero" transform="translate(66.568294, 49.857119) rotate(90.000000) translate(-66.568294, -49.857119) "></path>
            <path d="M76.1565648,52.0763929 L76.1565648,47.6378446 C76.1565648,47.0307936 75.7021377,46.6287165 75.0160491,46.6287165 L67.1483165,46.6287165 C66.462228,46.6287165 66.0078009,47.0307936 66.0078009,47.6378446 L66.0078009,52.0763929 C66.0078009,52.6834439 66.462228,53.085521 67.1483165,53.085521 L75.0160491,53.085521 C75.7021377,53.085521 76.1565648,52.6795085 76.1565648,52.0763929 Z M67.7088095,51.3185446 L67.7088095,48.3956929 L74.4555561,48.3956929 L74.4555561,51.3185446 L67.7088095,51.3185446 Z" id="Fill-2-Copy-6" fill="#2B2727" fill-rule="nonzero" transform="translate(71.082183, 49.857119) rotate(90.000000) translate(-71.082183, -49.857119) "></path>
            <path d="M71.6426759,30.5486152 L71.6426759,26.1100667 C71.6426759,25.5030157 71.1882488,25.1009387 70.5021602,25.1009387 L62.6344276,25.1009387 C61.948339,25.1009387 61.493912,25.5030157 61.493912,26.1100667 L61.493912,30.5486152 C61.493912,31.1556663 61.948339,31.5577432 62.6344276,31.5577432 L70.5021602,31.5577432 C71.1882488,31.5577432 71.6426759,31.1517307 71.6426759,30.5486152 Z M63.1949206,29.7907669 L63.1949206,26.8679151 L69.9416672,26.8679151 L69.9416672,29.7907669 L63.1949206,29.7907669 Z" id="Fill-2-Copy-5" fill="#2B2727" fill-rule="nonzero" transform="translate(66.568294, 28.329341) rotate(90.000000) translate(-66.568294, -28.329341) "></path>
            <path d="M76.1565647,30.5486152 L76.1565647,26.1100667 C76.1565647,25.5030157 75.7021377,25.1009387 75.0160491,25.1009387 L67.1483165,25.1009387 C66.4622279,25.1009387 66.0078009,25.5030157 66.0078009,26.1100667 L66.0078009,30.5486152 C66.0078009,31.1556663 66.4622279,31.5577432 67.1483165,31.5577432 L75.0160491,31.5577432 C75.7021377,31.5577432 76.1565647,31.1517307 76.1565647,30.5486152 Z M67.7088095,29.7907669 L67.7088095,26.8679151 L74.4555561,26.8679151 L74.4555561,29.7907669 L67.7088095,29.7907669 Z" id="Fill-2-Copy-6" fill="#2B2727" fill-rule="nonzero" transform="translate(71.082183, 28.329341) rotate(90.000000) translate(-71.082183, -28.329341) "></path>
            <path d="M36.5376528,41.218308 L36.5376528,37.0571688 C36.5376528,36.4880583 36.083226,36.1111111 35.3971375,36.1111111 L27.5294045,36.1111111 C26.8433159,36.1111111 26.3888889,36.4880583 26.3888889,37.0571688 L26.3888889,41.218308 C26.3888889,41.7874181 26.8433159,42.1643653 27.5294045,42.1643653 L35.3971375,42.1643653 C36.083226,42.1643653 36.5376528,41.7837285 36.5376528,41.218308 Z M28.0504084,40.5238635 L28.0504084,37.7516132 L34.8761333,37.7516132 L34.8761333,40.5238635 L28.0504084,40.5238635 Z" id="Fill-2-Copy-11" fill="#2B2727" fill-rule="nonzero"></path>
            <path d="M18.4820974,37.7460858 L18.4820974,33.5849464 C18.4820974,33.015836 18.0276703,32.6388889 17.3415818,32.6388889 L9.47384892,32.6388889 C8.78776038,32.6388889 8.33333333,33.015836 8.33333333,33.5849464 L8.33333333,37.7460858 C8.33333333,38.3151958 8.78776038,38.6921431 9.47384892,38.6921431 L17.3415818,38.6921431 C18.0276703,38.6921431 18.4820974,38.3115063 18.4820974,37.7460858 Z M9.99485288,37.0516413 L9.99485288,34.2793908 L16.8205778,34.2793908 L16.8205778,37.0516413 L9.99485288,37.0516413 Z" id="Fill-2-Copy-9" fill="#2B2727" fill-rule="nonzero"></path>
            <path d="M74.0376528,41.218308 L74.0376528,37.0571688 C74.0376528,36.4880583 73.583226,36.1111111 72.8971375,36.1111111 L65.0294045,36.1111111 C64.343316,36.1111111 63.8888889,36.4880583 63.8888889,37.0571688 L63.8888889,41.218308 C63.8888889,41.7874181 64.343316,42.1643653 65.0294045,42.1643653 L72.8971375,42.1643653 C73.583226,42.1643653 74.0376528,41.7837285 74.0376528,41.218308 Z M65.5504083,40.5238635 L65.5504083,37.7516132 L72.3761333,37.7516132 L72.3761333,40.5238635 L65.5504083,40.5238635 Z" id="Fill-2-Copy-12" fill="#2B2727" fill-rule="nonzero"></path>
            <path d="M55.2876528,42.6071969 L55.2876528,38.4460576 C55.2876528,37.8769472 54.833226,37.5 54.1471375,37.5 L46.2794045,37.5 C45.593316,37.5 45.1388889,37.8769472 45.1388889,38.4460576 L45.1388889,42.6071969 C45.1388889,43.1763069 45.593316,43.5532542 46.2794045,43.5532542 L54.1471375,43.5532542 C54.833226,43.5532542 55.2876528,43.1726174 55.2876528,42.6071969 Z M46.8004083,41.9127524 L46.8004083,39.1405021 L53.6261333,39.1405021 L53.6261333,41.9127524 L46.8004083,41.9127524 Z" id="Fill-2-Copy-13" fill="#2B2727" fill-rule="nonzero"></path>
            <path d="M18.6363032,29.8611111 L4.86111111,29.8611111 L4.86111111,29.8611111 C4.47758003,29.8611111 4.16666667,30.1720245 4.16666667,30.5555556 L4.16666667,52.9583323 L4.16666667,52.9583323 C4.16666667,53.3418632 4.47758003,53.6527767 4.86111111,53.6527767 L22.5694444,53.6527767 L22.534359,29.8870981 L18.6363032,29.8611111 Z" id="Path-2" stroke="#2B2727" stroke-width="2"></path>
            <path d="M22.540412,20.1388889 L7.47388955,20.1388889 L0.0790288797,29.1326403 L0.0790288797,29.1326403 C-0.0427624335,29.2807649 -0.0214150849,29.499575 0.126709517,29.6213663 C0.188844634,29.6724552 0.266790636,29.7003852 0.347232198,29.7003852 L22.2934808,29.7003852 L22.540412,20.1388889 Z" id="Path-3" stroke="#2B2727" stroke-width="2"></path>
            <circle id="Oval-3" stroke="#2B2727" stroke-width="2" cx="50.1736111" cy="27.9513889" r="5.03472222"></circle>
        </g>
    </g>
</svg>