<?xml version="1.0" encoding="UTF-8"?>
<svg width="26px" height="26px" viewBox="0 0 26 26" version="1.1" xmlns="http://www.w3.org/2000/svg" xmlns:xlink="http://www.w3.org/1999/xlink">
    <!-- Generator: Sketch Beta 47 (45392) - http://www.bohemiancoding.com/sketch -->
    <title>1x/LinkedIn</title>
    <desc>Created with Sketch Beta.</desc>
    <defs></defs>
    <g id="Social-Media" stroke="none" stroke-width="1" fill="none" fill-rule="evenodd">
        <g id="1x/LinkedIn" fill-rule="nonzero">
            <g id="LinkedIn-Logo">
                <path d="M12.969637,0 C20.1329932,0 25.939363,5.80717123 25.939363,12.969726 C25.939363,20.1322808 20.1329932,25.939363 12.969637,25.939363 C5.80628082,25.939363 0,20.1321918 0,12.969726 C0,5.80726027 5.80636986,0 12.969637,0 Z" id="Shape" fill="#2B2727"></path>
                <path d="M7.30840411,17.8203288 L9.737,17.8203288 L9.737,9.72560274 L7.30840411,9.72560274 L7.30840411,17.8203288 Z M16.7698219,9.44521233 C15.5911849,9.44521233 14.5365822,9.87563699 13.7884589,10.8257055 L13.7884589,9.69897945 L11.3509589,9.69897945 L11.3509589,17.8204178 L13.7884589,17.8204178 L13.7884589,13.4285548 C13.7884589,12.5003904 14.6388014,11.5949315 15.703911,11.5949315 C16.7690205,11.5949315 17.0316918,12.5003904 17.0316918,13.4058493 L17.0316918,17.8196164 L19.4602877,17.8196164 L19.4602877,13.2250959 C19.4601986,10.0336849 17.9492603,9.44521233 16.7698219,9.44521233 Z M8.51134932,8.91666438 C9.1825411,8.91666438 9.72729452,8.37191096 9.72729452,7.70071918 C9.72729452,7.0295274 9.1825411,6.48486301 8.51134932,6.48486301 C7.84015753,6.48486301 7.29540411,7.02961644 7.29540411,7.70080822 C7.29540411,8.372 7.84015753,8.91666438 8.51134932,8.91666438 Z" id="Shape" fill="#FFFFFF"></path>
            </g>
        </g>
    </g>
</svg>