<?xml version="1.0" encoding="UTF-8"?>
<svg width="70px" height="78px" viewBox="0 0 70 78" version="1.1" xmlns="http://www.w3.org/2000/svg" xmlns:xlink="http://www.w3.org/1999/xlink">
    <!-- Generator: Sketch 44.1 (41455) - http://www.bohemiancoding.com/sketch -->
    <title>Page 1</title>
    <desc>Created with Sketch.</desc>
    <defs></defs>
    <g id="Page-1" stroke="none" stroke-width="1" fill="none" fill-rule="evenodd">
        <path d="M5.9998,72.25 L5.9998,38.082 L64.3318,38.082 L64.33571,72.25 L5.9998,72.25 Z M15.6365,25.531 C15.6365,14.761 24.3982,6 35.1675,6 C45.9368,6 54.6985,14.7617 54.6985,25.531 L54.6985,33.0818 L15.6365,33.0818 L15.6365,25.531 Z M64.3315,33.0818 L59.6987,33.0818 L59.6987,25.531 C59.6987,12.008 48.6907,1 35.1677,1 C21.6407,1 10.6367,12.008 10.6367,25.531 L10.6367,33.0818 L6,33.0818 C3.2422,33.0818 1,35.324 1,38.0818 L1,72.2498 C1,75.0076 3.2422,77.2498 6,77.2498 L64.332,77.2498 C67.0898,77.2498 69.332,75.0076 69.332,72.2498 L69.332,38.0818 C69.332,35.324 67.0898,33.0818 64.332,33.0818 L64.3315,33.0818 Z M35.1675,54.9058 C33.0542,54.9058 31.3394,53.191 31.3394,51.0777 C31.3394,48.9644 33.0542,47.2496 35.1675,47.2496 C37.2769,47.2496 38.9956,48.9644 38.9956,51.0777 C38.9956,53.191 37.2768,54.9058 35.1675,54.9058 Z M35.1675,42.2498 C30.3003,42.2498 26.3394,46.2107 26.3394,51.0779 C26.3394,55.0701 29.023,58.4138 32.6675,59.5037 L32.6675,64.1248 C32.6675,65.5076 33.7847,66.6248 35.1675,66.6248 C36.5503,66.6248 37.6675,65.5076 37.6675,64.1248 L37.6675,59.5037 C41.312,58.4139 43.9956,55.0701 43.9956,51.0779 C43.9956,46.2107 40.0347,42.2498 35.1675,42.2498 Z" stroke="#FFFFFF" fill="#00A4A5"></path>
    </g>
</svg>