<?xml version="1.0" encoding="UTF-8"?>
<svg width="70px" height="90px" viewBox="0 0 70 90" version="1.1" xmlns="http://www.w3.org/2000/svg" xmlns:xlink="http://www.w3.org/1999/xlink">
    <!-- Generator: Sketch 43.2 (39069) - http://www.bohemiancoding.com/sketch -->
    <title>lock</title>
    <desc>Created with Sketch.</desc>
    <defs></defs>
    <g id="Icons-&amp;-Logos" stroke="none" stroke-width="1" fill="none" fill-rule="evenodd">
        <g id="Artboard" transform="translate(-277.000000, -475.000000)" fill-rule="nonzero" fill="#4D4D4D">
            <g id="lock" transform="translate(277.000000, 475.000000)">
                <path d="M18.7388235,24.328 C18.7349312,15.8592 25.5904796,8.969 34.0173756,8.96500001 C42.4478551,8.96108999 49.3068779,15.8478 49.3108597,24.313 L49.3147521,37.852 C49.3147521,39.6372 50.7573945,41.0864 52.5345166,41.0864 L55.0193222,41.0864 C56.7964444,41.0864 58.2390867,39.6372 58.2390867,37.852 L58.2351947,24.309 C58.2274198,10.899 47.3626156,-0.00699999999 34.0132941,5.99116699e-14 C20.6639729,0.00781000001 9.81130315,10.922 9.81428959,24.332 L9.81818188,37.852 C9.81818188,39.6372 11.2608244,41.0864 13.0379466,41.0864 L15.522752,41.0864 C17.2998742,41.0864 18.7425168,39.6372 18.7425168,37.852 L18.7388235,24.328 Z" id="Fill-1"></path>
                <path d="M69.0142987,52.3520001 C69.0142987,47.7309002 65.2929138,43.9925999 60.7004889,44.0003998 L8.95867873,44.0199301 C4.37013574,44.0316501 0.644868778,47.7699301 0.644868778,52.3793299 L0.664310405,81.6493302 C0.664310405,86.2587329 4.38569501,90.0009321 8.97812036,90.0009321 L60.7229169,89.9696819 C65.3114597,89.9696819 69.0367267,86.231382 69.0367267,81.6180799 L69.0142987,52.3520001 Z M38.6363801,69.4969999 L38.6402724,76.5868 C38.6402724,78.6883999 36.9448787,80.3953998 34.8527882,80.3953998 C32.7606977,80.3953998 31.0614217,78.6923001 31.0614217,76.5907001 L31.0575294,69.4969002 C28.9343801,68.1882999 27.5811312,65.8407001 27.5772489,63.2938 C27.5733665,60.3446 29.3038009,57.6610001 32.2824615,56.4110001 C33.0057339,56.1102199 33.7912036,55.98912 34.5728507,55.98912 C37.4426064,55.98912 40.1840453,57.5360199 41.3973305,60.1453199 C43.0771946,63.7625199 41.618983,67.65702 38.6364796,69.4969201 L38.6363801,69.4969999 Z" id="Fill-2"></path>
                <path d="M34.841629,57.9490002 L34.8377367,59.9059999 C33.9355873,59.9059999 33.0917729,60.2575602 32.4540715,60.8981898 C31.8163502,61.53881 31.4663711,62.3864899 31.4663711,63.2926902 C31.4663711,64.6910901 32.3529611,65.9606898 33.6751312,66.4528898 L34.8417285,66.88648 L36.0083258,66.4528898 C37.3265339,65.9607002 38.2131041,64.6911902 38.2131041,63.2926902 C38.2131041,61.4254902 36.7004797,59.9059899 34.8417285,59.9059899 L34.841629,57.9490002 Z" id="Fill-3"></path>
            </g>
        </g>
    </g>
</svg>