<?xml version="1.0" encoding="UTF-8"?>
<svg width="102px" height="79px" viewBox="0 0 102 79" version="1.1" xmlns="http://www.w3.org/2000/svg" xmlns:xlink="http://www.w3.org/1999/xlink">
    <!-- Generator: Sketch 47.1 (45422) - http://www.bohemiancoding.com/sketch -->
    <title>Group Copy</title>
    <desc>Created with Sketch.</desc>
    <defs></defs>
    <g id="Form-Flows/Comparison" stroke="none" stroke-width="1" fill="none" fill-rule="evenodd">
        <g id="Group-Copy" transform="translate(1.000000, 1.000000)" stroke="#FFFFFF" fill-rule="nonzero" fill="#2B2727">
            <path d="M99.7334911,36.2993765 C98.8501578,32.7058648 95.4168244,30.1030876 91.5334911,30.0359192 C87.6001578,23.8564225 80.8168244,13.5176491 73.5501579,13.4336885 C70.0668246,5.47422808 60.5834913,0 50.0001579,0 C39.4168246,0 29.9334913,5.47422808 26.4334913,13.4336885 C19.1668246,13.5176491 12.3834913,23.8564225 8.45015793,30.0359192 C4.23349129,30.1030876 0.650157954,33.1592518 0.0834912876,37.1893584 C-0.449842046,40.9843754 1.61682462,44.5946792 5.00015796,46.089177 L5.00015796,62.0752664 C5.00015796,65.1650148 7.13349129,67.7509999 10.0001579,68.4562684 L10.0001579,75.3578259 C10.0001579,76.2813919 10.7501579,77.037037 11.6668246,77.037037 L16.6668246,77.037037 C17.3501579,77.037037 17.9668246,76.6172341 18.2168246,75.9791341 L21.1334913,68.6409817 L78.8834911,68.6409817 L81.8001578,75.9791341 C82.0334911,76.6172341 82.6501578,77.037037 83.3334911,77.037037 L88.3334911,77.037037 C89.2501578,77.037037 90.0001578,76.2813919 90.0001578,75.3578259 L90.0001578,68.4394764 C92.8668244,67.7509999 95.0001578,65.1650148 95.0001578,62.0584743 L95.0001578,46.089177 C98.7001578,44.4771344 100.750158,40.4134436 99.7334911,36.2993765 Z M26.7126899,17.2034729 C29.4713387,17.2034729 31.7284151,19.9234604 31.7284151,23.2478895 C31.7284151,24.3560325 32.4807739,26.3477237 33.4003235,26.3477237 C34.3198731,26.3477237 35.0722319,25.4410613 35.0722319,24.3329182 C35.0722319,20.1421227 32.9321892,16.5356208 29.8893159,15.0245167 C33.1160991,7.36825564 41.1412595,3.25508607 50.1194076,3.25508607 C59.0975558,3.25508607 67.1227161,7.36825564 70.3494993,15.0245167 C67.3066261,16.5356208 65.1665833,20.1421227 65.1665833,24.3329182 C65.1665833,25.4410613 65.9189421,26.3477237 66.8384917,26.3477237 C67.7580413,26.3477237 68.5104001,24.3560325 68.5104001,23.2478895 C68.5104001,19.9234604 70.7674764,17.2034729 73.5261253,17.2034729 C79.2774904,17.2034729 84.7111926,24.8680168 88.172043,30.3885839 C87.2524933,30.8116931 86.39982,31.3959867 85.6307422,32.1213167 C85.2629222,32.4638336 84.9285407,32.8264987 84.6108778,33.2093117 C84.5440015,33.2899039 84.4938444,33.3704961 84.4269681,33.4510884 C84.1929007,33.7533092 83.9755526,34.0756781 83.7749237,34.418195 C83.7080474,34.5189353 83.6411711,34.6196756 83.5742948,34.7405639 C83.3569467,35.123377 83.1563178,35.5464861 82.9724081,35.9494472 C82.9055319,36.0904836 82.8553741,36.2516681 82.7884978,36.4128524 C82.6380259,36.7755175 82.5209926,37.1583305 82.4039593,37.5411436 C82.3705207,37.6418839 82.337083,37.7426241 82.3203637,37.8433644 C82.1866111,38.3269177 82.1030156,38.8306191 82.0361393,39.3343205 C82.01942,39.4753569 82.0027007,39.6163933 81.9859822,39.7574296 C81.9191059,40.2812791 81.8856674,40.8051285 81.8856674,41.3692741 L81.8856674,47.6442181 C71.6034307,43.4332746 60.2846107,43.6951993 50.1194076,48.3896962 C39.9542044,43.6951993 28.6353845,43.4534227 18.3531479,47.6442181 L18.3531479,41.3692741 C18.3531479,40.8252766 18.3029906,40.2812791 18.2528333,39.7372816 C18.2361142,39.5962452 18.2193952,39.4552088 18.2026761,39.3343205 C18.1357997,38.8306191 18.0354853,38.3269177 17.9184516,37.8433644 C17.8850135,37.7426241 17.8515753,37.6418839 17.8348562,37.5612916 C17.7178226,37.1784786 17.600789,36.7956656 17.4503173,36.4128524 C17.40016,36.2718161 17.3332837,36.1106316 17.2664073,35.9695953 C17.0824974,35.5464861 16.8818684,35.143525 16.6645203,34.7405639 C16.597644,34.6398236 16.5474867,34.5390833 16.4806104,34.438343 C16.2632623,34.0958261 16.0459142,33.7533092 15.811847,33.4510884 C15.7616898,33.3704961 15.6948135,33.310052 15.6446562,33.2294598 C14.6582302,32.0004284 13.4377371,31.0131736 12.0834913,30.3885839 C15.5276226,24.8680168 20.9446059,17.2034729 26.7126899,17.2034729 Z M19.2168246,55.2072931 C18.7334913,55.2072931 18.3334913,54.8042825 18.3334913,54.3173113 L18.3334913,51.3283156 C27.9668246,47.7348039 38.7001579,47.7348039 48.3334913,51.3283156 L48.3334913,55.2072931 L19.2168246,55.2072931 Z M51.6668246,51.3283156 C61.3001579,47.7348039 72.0334913,47.7348039 81.6668244,51.3283156 L81.6668244,54.3173113 C81.6668244,54.8042825 81.2668244,55.2072931 80.7834911,55.2072931 L51.6668246,55.2072931 L51.6668246,51.3283156 Z M15.5334913,73.6786149 L13.3334913,73.6786149 L13.3334913,68.6409817 L17.5334913,68.6409817 L15.5334913,73.6786149 Z M86.6668244,73.6786149 L84.4668244,73.6786149 L82.4668244,68.6409817 L86.6668244,68.6409817 L86.6668244,73.6786149 Z M92.9168244,43.2681024 C92.7668244,43.3016867 92.6334911,43.3856472 92.5001578,43.4528156 L90.0001578,43.4528156 C89.0834911,43.4528156 88.3334911,44.2084607 88.3334911,45.1320267 C88.3334911,46.0555928 89.0834911,46.8112378 90.0001578,46.8112378 L91.6668244,46.8112378 L91.6668244,62.0584743 C91.6668244,63.838438 90.2334911,65.2825596 88.4668244,65.2825596 L88.3334911,65.2825596 L80.0001578,65.2825596 L20.0001579,65.2825596 L11.6668246,65.2825596 L11.5168246,65.2825596 C9.76682459,65.2825596 8.33349126,63.838438 8.33349126,62.0584743 L8.33349126,46.8112378 L10.0001579,46.8112378 C10.9168246,46.8112378 11.6668246,46.0555928 11.6668246,45.1320267 C11.6668246,44.2084607 10.9168246,43.4528156 10.0001579,43.4528156 L7.50015793,43.4528156 C7.36682462,43.3856472 7.23349129,43.3016867 7.08349129,43.2681024 C4.61682462,42.6300022 3.03349129,40.2119383 3.38349129,37.6595375 C3.73349129,35.2246814 5.96682462,33.3775493 8.60015793,33.3775493 C8.78349126,33.3775493 8.95015793,33.4111335 9.11682459,33.4279256 C9.13349126,33.4279256 9.15015793,33.4447177 9.18349126,33.4447177 C10.0001579,33.5286782 10.7834913,33.7469757 11.4834913,34.09961 C11.5001579,34.09961 11.5168246,34.1164021 11.5334913,34.1164021 C11.8501579,34.2843233 12.1501579,34.4690364 12.4334913,34.6705418 C12.5168246,34.7209181 12.5834913,34.7880865 12.6501579,34.855255 C12.8668246,35.0231761 13.0668246,35.2078893 13.2668246,35.4093947 C13.3834913,35.5437316 13.4834913,35.6780684 13.6001579,35.8124053 C13.7334913,35.9803264 13.8668246,36.1314554 13.9834913,36.3161686 C14.1168246,36.5176739 14.2168246,36.7191793 14.3168246,36.9374767 C14.3834913,37.0886057 14.4668246,37.2229426 14.5334913,37.3740716 C14.6334913,37.6259533 14.7168246,37.9114191 14.7834913,38.1800929 C14.8168246,38.2976377 14.8668246,38.4151824 14.8834913,38.5495193 C14.9501579,38.9693221 15.0001579,39.3891249 15.0001579,39.8257198 L15.0001579,50.1696599 L15.0001579,54.3173113 L15.0001579,56.8865042 C15.0001579,57.8100703 15.7501579,58.5657153 16.6668246,58.5657153 L19.2168246,58.5657153 L50.0001579,58.5657153 L80.7834911,58.5657153 L83.3334911,58.5657153 C84.2501578,58.5657153 85.0001578,57.8100703 85.0001578,56.8865042 L85.0001578,54.3173113 L85.0001578,50.1696599 L85.0001578,39.8257198 C85.0001578,39.3891249 85.0501578,38.9693221 85.1334911,38.5663115 C85.1501578,38.4319746 85.2001578,38.3312219 85.2334911,38.196885 C85.3001578,37.9282113 85.3834911,37.6427453 85.4834911,37.3908637 C85.5501578,37.2397347 85.6334911,37.1053979 85.7001578,36.9542688 C85.8001578,36.7527635 85.9001578,36.5344661 86.0334911,36.3329607 C86.1501578,36.1482475 86.2834911,35.9971185 86.4168244,35.8291974 C86.5168244,35.6948605 86.6334911,35.5605236 86.7501578,35.4261867 C86.9334911,35.2246814 87.1501578,35.0399682 87.3668244,34.8720471 C87.4334911,34.8048787 87.5168244,34.7377102 87.5834911,34.6873339 C87.8668244,34.4858285 88.1668244,34.2843233 88.4834911,34.1331942 C88.5001578,34.1331942 88.5168244,34.1164021 88.5168244,34.1164021 C89.2168244,33.7637678 89.9834911,33.5454704 90.8168244,33.4615098 C90.8334911,33.4615098 90.8668244,33.4447177 90.8834911,33.4447177 C91.0501578,33.4279256 91.2334911,33.3943413 91.4001578,33.3943413 C93.8334911,33.3943413 95.9834911,34.9560076 96.5001578,37.1221899 C97.2668244,40.1783541 95.2668244,42.6467944 92.9168244,43.2681024 Z" id="Shape"></path>
            <path d="M45.4744751,21.3777778 C45.6895289,21.5839333 45.9583461,21.6924361 46.237916,21.6924361 C46.5174859,21.6924361 46.7863031,21.5839333 47.0013568,21.3777778 L47.9906041,20.3795514 C48.442217,20.6074074 48.9475934,20.7376108 49.4744751,20.7376108 C50.0013568,20.7376108 50.4959805,20.6074074 50.9583461,20.3795514 L51.9475934,21.3777778 C52.1411418,21.5839333 52.409959,21.6924361 52.6895289,21.6924361 C52.9690988,21.6924361 53.237916,21.5839333 53.4529698,21.3777778 C53.8723246,20.9546166 53.8723246,20.2710485 53.4529698,19.8478873 L52.4637224,18.849661 C52.926088,17.905686 52.926088,16.809807 52.4637224,15.865832 L53.4529698,14.8676056 C53.8723246,14.4444444 53.8723246,13.7608764 53.4529698,13.3377152 C53.0336149,12.914554 52.3561956,12.914554 51.9368407,13.3377152 L50.9368407,14.3467919 C50.0121096,13.9127804 48.926088,13.9127804 48.0013568,14.3467919 L47.0013568,13.3377152 C46.582002,12.914554 45.9045827,12.914554 45.4852278,13.3377152 C45.065873,13.7608764 45.065873,14.4444444 45.4852278,14.8676056 L46.4744751,15.865832 C46.0121096,16.809807 46.0121096,17.905686 46.4744751,18.849661 L45.4852278,19.8478873 C45.0551203,20.2601982 45.0551203,20.9546166 45.4744751,21.3777778 Z M50.3131848,16.4951487 C50.7863031,16.9725613 50.7863031,17.7429316 50.3131848,18.2203443 C49.8615719,18.6760564 49.065873,18.6760564 48.6035074,18.2203443 C48.1303891,17.7429316 48.1303891,16.9725613 48.6035074,16.4951487 C48.8400665,16.2672927 49.1411418,16.1370892 49.4637224,16.1370892 C49.7863031,16.1370892 50.0873784,16.2672927 50.3131848,16.4951487 Z" id="Shape" stroke-width="0.5"></path>
            <path d="M23.9690988,39.8232656 C24.1841525,40.029421 24.4529698,40.1379239 24.7325396,40.1379239 C25.0121096,40.1379239 25.2809267,40.029421 25.4959805,39.8232656 L26.4852278,38.8250391 C26.9368407,39.0528952 27.442217,39.1830986 27.9690988,39.1830986 C28.4959805,39.1830986 28.9906041,39.0528952 29.4529698,38.8250391 L30.442217,39.8232656 C30.6357655,40.029421 30.9045827,40.1379239 31.1841525,40.1379239 C31.4637224,40.1379239 31.7325396,40.029421 31.9475934,39.8232656 C32.3669482,39.4001043 32.3669482,38.7165362 31.9475934,38.293375 L30.9583461,37.2951487 C31.4207117,36.3511737 31.4207117,35.2552947 30.9583461,34.3113198 L31.9475934,33.3130934 C32.3669482,32.8899322 32.3669482,32.2063641 31.9475934,31.7832029 C31.5282386,31.3600417 30.8508192,31.3600417 30.4314644,31.7832029 L29.4314644,32.7922796 C28.5067332,32.3582681 27.4207117,32.3582681 26.4959805,32.7922796 L25.4959805,31.7832029 C25.0766256,31.3600417 24.3992063,31.3600417 23.9798515,31.7832029 C23.5604967,32.2063641 23.5604967,32.8899322 23.9798515,33.3130934 L24.9690988,34.3113198 C24.5067332,35.2552947 24.5067332,36.3511737 24.9690988,37.2951487 L23.9798515,38.293375 C23.5497439,38.705686 23.5497439,39.4001043 23.9690988,39.8232656 Z M28.8078084,34.9406364 C29.2809267,35.418049 29.2809267,36.1884194 28.8078084,36.665832 C28.3561956,37.1215441 27.5604967,37.1215441 27.098131,36.665832 C26.6250127,36.1884194 26.6250127,35.418049 27.098131,34.9406364 C27.3346901,34.7127804 27.6357655,34.582577 27.9583461,34.582577 C28.2809267,34.582577 28.582002,34.7127804 28.8078084,34.9406364 Z" id="Shape-Copy-4" stroke-width="0.5"></path>
            <path d="M45.4744751,39.8232656 C45.6895289,40.029421 45.9583461,40.1379239 46.237916,40.1379239 C46.5174859,40.1379239 46.7863031,40.029421 47.0013568,39.8232656 L47.9906041,38.8250391 C48.442217,39.0528952 48.9475934,39.1830986 49.4744751,39.1830986 C50.0013568,39.1830986 50.4959805,39.0528952 50.9583461,38.8250391 L51.9475934,39.8232656 C52.1411418,40.029421 52.409959,40.1379239 52.6895289,40.1379239 C52.9690988,40.1379239 53.237916,40.029421 53.4529698,39.8232656 C53.8723246,39.4001043 53.8723246,38.7165362 53.4529698,38.293375 L52.4637224,37.2951487 C52.926088,36.3511737 52.926088,35.2552947 52.4637224,34.3113198 L53.4529698,33.3130934 C53.8723246,32.8899322 53.8723246,32.2063641 53.4529698,31.7832029 C53.0336149,31.3600417 52.3561956,31.3600417 51.9368407,31.7832029 L50.9368407,32.7922796 C50.0121096,32.3582681 48.926088,32.3582681 48.0013568,32.7922796 L47.0013568,31.7832029 C46.582002,31.3600417 45.9045827,31.3600417 45.4852278,31.7832029 C45.065873,32.2063641 45.065873,32.8899322 45.4852278,33.3130934 L46.4744751,34.3113198 C46.0121096,35.2552947 46.0121096,36.3511737 46.4744751,37.2951487 L45.4852278,38.293375 C45.0551203,38.705686 45.0551203,39.4001043 45.4744751,39.8232656 Z M50.3131848,34.9406364 C50.7863031,35.418049 50.7863031,36.1884194 50.3131848,36.665832 C49.8615719,37.1215441 49.065873,37.1215441 48.6035074,36.665832 C48.1303891,36.1884194 48.1303891,35.418049 48.6035074,34.9406364 C48.8400665,34.7127804 49.1411418,34.582577 49.4637224,34.582577 C49.7863031,34.582577 50.0873784,34.7127804 50.3131848,34.9406364 Z" id="Shape-Copy-6" stroke-width="0.5"></path>
            <path d="M66.9798515,39.8232656 C67.1949053,40.029421 67.4637224,40.1379239 67.7432923,40.1379239 C68.0228622,40.1379239 68.2916794,40.029421 68.5067332,39.8232656 L69.4959805,38.8250391 C69.9475934,39.0528952 70.4529698,39.1830986 70.9798515,39.1830986 C71.5067332,39.1830986 72.0013568,39.0528952 72.4637224,38.8250391 L73.4529698,39.8232656 C73.6465181,40.029421 73.9153353,40.1379239 74.1949052,40.1379239 C74.4744748,40.1379239 74.7432926,40.029421 74.9583459,39.8232656 C75.3777007,39.4001043 75.3777007,38.7165362 74.9583459,38.293375 L73.9690988,37.2951487 C74.4314644,36.3511737 74.4314644,35.2552947 73.9690988,34.3113198 L74.9583459,33.3130934 C75.3777007,32.8899322 75.3777007,32.2063641 74.9583459,31.7832029 C74.5389911,31.3600417 73.8615719,31.3600417 73.442217,31.7832029 L72.442217,32.7922796 C71.5174859,32.3582681 70.4314644,32.3582681 69.5067332,32.7922796 L68.5067332,31.7832029 C68.0873784,31.3600417 67.409959,31.3600417 66.9906041,31.7832029 C66.5712493,32.2063641 66.5712493,32.8899322 66.9906041,33.3130934 L67.9798515,34.3113198 C67.5174859,35.2552947 67.5174859,36.3511737 67.9798515,37.2951487 L66.9906041,38.293375 C66.5604967,38.705686 66.5604967,39.4001043 66.9798515,39.8232656 Z M71.8185611,34.9406364 C72.2916794,35.418049 72.2916794,36.1884194 71.8185611,36.665832 C71.3669482,37.1215441 70.5712493,37.1215441 70.1088837,36.665832 C69.6357655,36.1884194 69.6357655,35.418049 70.1088837,34.9406364 C70.3454429,34.7127804 70.6465181,34.582577 70.9690988,34.582577 C71.2916794,34.582577 71.5927547,34.7127804 71.8185611,34.9406364 Z" id="Shape-Copy-5" stroke-width="0.5"></path>
        </g>
    </g>
</svg>