<?xml version="1.0" encoding="UTF-8"?>
<svg width="137px" height="106px" viewBox="0 0 137 106" version="1.1" xmlns="http://www.w3.org/2000/svg" xmlns:xlink="http://www.w3.org/1999/xlink">
    <!-- Generator: Sketch 44.1 (41455) - http://www.bohemiancoding.com/sketch -->
    <title>Group 6 Copy</title>
    <desc>Created with Sketch.</desc>
    <defs></defs>
    <g id="PPC-Calculator-Modal" stroke="none" stroke-width="1" fill="none" fill-rule="evenodd">
        <g id="Group-6-Copy" transform="translate(1.000000, 1.000000)" stroke="#FFFFFF" fill-rule="nonzero" fill="#00A4A5">
            <path d="M134.640213,49.0041583 C133.447713,44.1529175 128.812713,40.6391683 123.570213,40.5484909 C118.260213,32.2061704 109.102713,18.2488263 99.2927132,18.1354795 C94.5902132,7.39020791 81.7877132,0 67.5002132,0 C53.2127132,0 40.4102132,7.39020791 35.6852132,18.1354795 C25.8752132,18.2488263 16.7177132,32.2061704 11.4077132,40.5484909 C5.71521324,40.6391683 0.877713238,44.7649899 0.112713238,50.2056338 C-0.607286762,55.3289068 2.18271324,60.2028169 6.75021324,62.220389 L6.75021324,83.8016097 C6.75021324,87.97277 9.63021324,91.4638498 13.5002132,92.4159624 L13.5002132,101.733065 C13.5002132,102.979879 14.5127132,104 15.7502132,104 L22.5002132,104 C23.4227132,104 24.2552132,103.433266 24.5927132,102.571831 L28.5302132,92.6653253 L106.492713,92.6653253 L110.430213,102.571831 C110.745213,103.433266 111.577713,104 112.500213,104 L119.250213,104 C120.487713,104 121.500213,102.979879 121.500213,101.733065 L121.500213,92.3932931 C125.370213,91.4638498 128.250213,87.97277 128.250213,83.7789403 L128.250213,62.220389 C133.245213,60.0441315 136.012713,54.5581489 134.640213,49.0041583 Z M36.0621313,23.2246884 C39.7863073,23.2246884 42.8333604,26.8966715 42.8333604,31.3846508 C42.8333604,32.8806439 43.8490447,35.569427 45.0904367,35.569427 C46.3318287,35.569427 47.3475131,34.3454327 47.3475131,32.8494396 C47.3475131,27.1918656 44.4584554,22.3230881 40.3505764,20.2830975 C44.7067338,9.94714512 55.5407003,4.3943662 67.6612003,4.3943662 C79.7817003,4.3943662 90.6156668,9.94714512 94.9718241,20.2830975 C90.8639452,22.3230881 87.9748874,27.1918656 87.9748874,32.8494396 C87.9748874,34.3454327 88.9905718,35.569427 90.2319638,35.569427 C91.4733558,35.569427 92.4890402,32.8806439 92.4890402,31.3846508 C92.4890402,26.8966715 95.5360932,23.2246884 99.2602692,23.2246884 C107.024612,23.2246884 114.36011,33.5718227 119.032258,41.0245883 C117.790866,41.5957857 116.639757,42.3845821 115.601502,43.3637776 C115.104945,43.8261754 114.65353,44.3157732 114.224685,44.8325708 C114.134402,44.9413703 114.06669,45.0501698 113.976407,45.1589693 C113.660416,45.5669674 113.366996,46.0021654 113.096147,46.4645633 C113.005864,46.6005626 112.915581,46.736562 112.825298,46.8997613 C112.531878,47.4165589 112.261029,47.9877562 112.012751,48.5317537 C111.922468,48.7221529 111.854755,48.9397519 111.764472,49.1573508 C111.561335,49.6469486 111.40334,50.1637462 111.245345,50.6805438 C111.200203,50.8165432 111.155062,50.9525426 111.132491,51.0885419 C110.951925,51.7413389 110.839071,52.4213358 110.748788,53.1013327 C110.726217,53.2917318 110.703646,53.4821309 110.681076,53.67253 C110.590793,54.3797268 110.545651,55.0869235 110.545651,55.84852 L110.545651,64.3196945 C96.6646314,58.6349207 81.3842245,58.9885191 67.6612003,65.3260899 C53.938176,58.9885191 38.6577691,58.6621206 24.7767496,64.3196945 L24.7767496,55.84852 C24.7767496,55.1141234 24.7090373,54.3797268 24.641325,53.6453302 C24.6187542,53.454931 24.5961835,53.2645319 24.5736127,53.1013327 C24.4833296,52.4213358 24.3479051,51.7413389 24.1899097,51.0885419 C24.1447682,50.9525426 24.0996267,50.8165432 24.0770559,50.7077437 C23.9190605,50.1909461 23.7610652,49.6741485 23.5579283,49.1573508 C23.490216,48.9669517 23.399933,48.7493527 23.3096499,48.5589536 C23.0613715,47.9877562 22.7905224,47.4437587 22.4971024,46.8997613 C22.4068194,46.7637619 22.3391071,46.6277625 22.248824,46.4917631 C21.9554041,46.0293653 21.6619842,45.5669674 21.3459935,45.1589693 C21.2782812,45.0501698 21.1879982,44.9685702 21.1202859,44.8597707 C19.7886108,43.2005783 18.1409451,41.8677844 16.3127132,41.0245883 C20.9622905,33.5718227 28.2752179,23.2246884 36.0621313,23.2246884 Z M25.9427132,74.5298457 C25.2902132,74.5298457 24.7502132,73.9857814 24.7502132,73.3283702 L24.7502132,69.293226 C37.7552132,64.4419852 52.2452132,64.4419852 65.2502132,69.293226 L65.2502132,74.5298457 L25.9427132,74.5298457 Z M69.7502132,69.293226 C82.7552132,64.4419852 97.2452132,64.4419852 110.250213,69.293226 L110.250213,73.3283702 C110.250213,73.9857814 109.710213,74.5298457 109.057713,74.5298457 L69.7502132,74.5298457 L69.7502132,69.293226 Z M20.9702132,99.4661301 L18.0002132,99.4661301 L18.0002132,92.6653253 L23.6702132,92.6653253 L20.9702132,99.4661301 Z M117.000213,99.4661301 L114.030213,99.4661301 L111.330213,92.6653253 L117.000213,92.6653253 L117.000213,99.4661301 Z M125.437713,58.4119383 C125.235213,58.457277 125.055213,58.5706237 124.875213,58.6613011 L121.500213,58.6613011 C120.262713,58.6613011 119.250213,59.6814219 119.250213,60.9282361 C119.250213,62.1750503 120.262713,63.195171 121.500213,63.195171 L123.750213,63.195171 L123.750213,83.7789403 C123.750213,86.1818913 121.815213,88.1314554 119.430213,88.1314554 L119.250213,88.1314554 L108.000213,88.1314554 L27.0002132,88.1314554 L15.7502132,88.1314554 L15.5477132,88.1314554 C13.1852132,88.1314554 11.2502132,86.1818913 11.2502132,83.7789403 L11.2502132,63.195171 L13.5002132,63.195171 C14.7377132,63.195171 15.7502132,62.1750503 15.7502132,60.9282361 C15.7502132,59.6814219 14.7377132,58.6613011 13.5002132,58.6613011 L10.1252132,58.6613011 C9.94521324,58.5706237 9.76521324,58.457277 9.56271324,58.4119383 C6.23271324,57.550503 4.09521324,54.2861167 4.56771324,50.8403756 C5.04021324,47.5533199 8.05521324,45.0596915 11.6102132,45.0596915 C11.8577132,45.0596915 12.0827132,45.1050302 12.3077132,45.1276995 C12.3302132,45.1276995 12.3527132,45.1503689 12.3977132,45.1503689 C13.5002132,45.2637156 14.5577132,45.5584172 15.5027132,46.0344735 C15.5252132,46.0344735 15.5477132,46.0571429 15.5702132,46.0571429 C15.9977132,46.2838364 16.4027132,46.5331992 16.7852132,46.8052314 C16.8977132,46.8732394 16.9877132,46.9639168 17.0777132,47.0545942 C17.3702132,47.2812877 17.6402132,47.5306506 17.9102132,47.8026828 C18.0677132,47.9840376 18.2027132,48.1653924 18.3602132,48.3467471 C18.5402132,48.5734406 18.7202132,48.7774648 18.8777132,49.0268276 C19.0577132,49.2988598 19.1927132,49.570892 19.3277132,49.8655936 C19.4177132,50.0696177 19.5302132,50.2509725 19.6202132,50.4549966 C19.7552132,50.7950369 19.8677132,51.1804158 19.9577132,51.5431254 C20.0027132,51.7018109 20.0702132,51.8604963 20.0927132,52.0418511 C20.1827132,52.6085848 20.2502132,53.1753186 20.2502132,53.7647217 L20.2502132,67.7290409 L20.2502132,73.3283702 L20.2502132,76.7967807 C20.2502132,78.0435949 21.2627132,79.0637156 22.5002132,79.0637156 L25.9427132,79.0637156 L67.5002132,79.0637156 L109.057713,79.0637156 L112.500213,79.0637156 C113.737713,79.0637156 114.750213,78.0435949 114.750213,76.7967807 L114.750213,73.3283702 L114.750213,67.7290409 L114.750213,53.7647217 C114.750213,53.1753186 114.817713,52.6085848 114.930213,52.0645205 C114.952713,51.8831657 115.020213,51.7471496 115.065213,51.5657948 C115.155213,51.2030852 115.267713,50.8177062 115.402713,50.477666 C115.492713,50.2736419 115.605213,50.0922871 115.695213,49.8882629 C115.830213,49.6162307 115.965213,49.3215292 116.145213,49.049497 C116.302713,48.8001341 116.482713,48.59611 116.662713,48.3694165 C116.797713,48.1880617 116.955213,48.0067069 117.112713,47.8253521 C117.360213,47.5533199 117.652713,47.3039571 117.945213,47.0772636 C118.035213,46.9865862 118.147713,46.8959088 118.237713,46.8279007 C118.620213,46.5558685 119.025213,46.2838364 119.452713,46.0798122 C119.475213,46.0798122 119.497713,46.0571429 119.497713,46.0571429 C120.442713,45.5810865 121.477713,45.286385 122.602713,45.1730382 C122.625213,45.1730382 122.670213,45.1503689 122.692713,45.1503689 C122.917713,45.1276995 123.165213,45.0823608 123.390213,45.0823608 C126.675213,45.0823608 129.577713,47.1906103 130.275213,50.1149564 C131.310213,54.240778 128.610213,57.5731724 125.437713,58.4119383 Z" id="Shape"></path>
            <path d="M61.3905414,28.86 C61.680864,29.1383099 62.0437672,29.2847887 62.4211866,29.2847887 C62.7986059,29.2847887 63.1615092,29.1383099 63.4518317,28.86 L64.7873156,27.5123944 C65.396993,27.82 66.0792511,27.9957746 66.7905414,27.9957746 C67.5018317,27.9957746 68.1695737,27.82 68.7937672,27.5123944 L70.1292511,28.86 C70.3905414,29.1383099 70.7534446,29.2847887 71.130864,29.2847887 C71.5082834,29.2847887 71.8711866,29.1383099 72.1615092,28.86 C72.7276382,28.2887324 72.7276382,27.3659155 72.1615092,26.7946479 L70.8260253,25.4470423 C71.4502188,24.1726761 71.4502188,22.6932394 70.8260253,21.4188732 L72.1615092,20.0712676 C72.7276382,19.5 72.7276382,18.5771831 72.1615092,18.0059155 C71.5953801,17.4346479 70.680864,17.4346479 70.114735,18.0059155 L68.764735,19.368169 C67.5163479,18.7822535 66.0502188,18.7822535 64.8018317,19.368169 L63.4518317,18.0059155 C62.8857027,17.4346479 61.9711866,17.4346479 61.4050575,18.0059155 C60.8389285,18.5771831 60.8389285,19.5 61.4050575,20.0712676 L62.7405414,21.4188732 C62.1163479,22.6932394 62.1163479,24.1726761 62.7405414,25.4470423 L61.4050575,26.7946479 C60.8244124,27.3512676 60.8244124,28.2887324 61.3905414,28.86 Z M67.9227995,22.2684507 C68.5615092,22.9129577 68.5615092,23.9529577 67.9227995,24.5974648 C67.3131221,25.2126761 66.2389285,25.2126761 65.614735,24.5974648 C64.9760253,23.9529577 64.9760253,22.9129577 65.614735,22.2684507 C65.9340898,21.9608451 66.3405414,21.7850704 66.7760253,21.7850704 C67.2115092,21.7850704 67.6179608,21.9608451 67.9227995,22.2684507 Z" id="Shape" stroke-width="0.5"></path>
            <path d="M32.3582834,53.7614085 C32.6486059,54.0397183 33.0115092,54.1861972 33.3889285,54.1861972 C33.7663479,54.1861972 34.1292511,54.0397183 34.4195737,53.7614085 L35.7550575,52.4138028 C36.364735,52.7214085 37.046993,52.8971831 37.7582834,52.8971831 C38.4695737,52.8971831 39.1373156,52.7214085 39.7615092,52.4138028 L41.096993,53.7614085 C41.3582834,54.0397183 41.7211866,54.1861972 42.0986059,54.1861972 C42.4760253,54.1861972 42.8389285,54.0397183 43.1292511,53.7614085 C43.6953801,53.1901408 43.6953801,52.2673239 43.1292511,51.6960563 L41.7937672,50.3484507 C42.4179608,49.0740845 42.4179608,47.5946479 41.7937672,46.3202817 L43.1292511,44.9726761 C43.6953801,44.4014085 43.6953801,43.4785915 43.1292511,42.9073239 C42.5631221,42.3360563 41.6486059,42.3360563 41.0824769,42.9073239 L39.7324769,44.2695775 C38.4840898,43.683662 37.0179608,43.683662 35.7695737,44.2695775 L34.4195737,42.9073239 C33.8534446,42.3360563 32.9389285,42.3360563 32.3727995,42.9073239 C31.8066705,43.4785915 31.8066705,44.4014085 32.3727995,44.9726761 L33.7082834,46.3202817 C33.0840898,47.5946479 33.0840898,49.0740845 33.7082834,50.3484507 L32.3727995,51.6960563 C31.7921543,52.2526761 31.7921543,53.1901408 32.3582834,53.7614085 Z M38.8905414,47.1698592 C39.5292511,47.8143662 39.5292511,48.8543662 38.8905414,49.4988732 C38.280864,50.1140845 37.2066705,50.1140845 36.5824769,49.4988732 C35.9437672,48.8543662 35.9437672,47.8143662 36.5824769,47.1698592 C36.9018317,46.8622535 37.3082834,46.6864789 37.7437672,46.6864789 C38.1792511,46.6864789 38.5857027,46.8622535 38.8905414,47.1698592 Z" id="Shape-Copy-4" stroke-width="0.5"></path>
            <path d="M61.3905414,53.7614085 C61.680864,54.0397183 62.0437672,54.1861972 62.4211866,54.1861972 C62.7986059,54.1861972 63.1615092,54.0397183 63.4518317,53.7614085 L64.7873156,52.4138028 C65.396993,52.7214085 66.0792511,52.8971831 66.7905414,52.8971831 C67.5018317,52.8971831 68.1695737,52.7214085 68.7937672,52.4138028 L70.1292511,53.7614085 C70.3905414,54.0397183 70.7534446,54.1861972 71.130864,54.1861972 C71.5082834,54.1861972 71.8711866,54.0397183 72.1615092,53.7614085 C72.7276382,53.1901408 72.7276382,52.2673239 72.1615092,51.6960563 L70.8260253,50.3484507 C71.4502188,49.0740845 71.4502188,47.5946479 70.8260253,46.3202817 L72.1615092,44.9726761 C72.7276382,44.4014085 72.7276382,43.4785915 72.1615092,42.9073239 C71.5953801,42.3360563 70.680864,42.3360563 70.114735,42.9073239 L68.764735,44.2695775 C67.5163479,43.683662 66.0502188,43.683662 64.8018317,44.2695775 L63.4518317,42.9073239 C62.8857027,42.3360563 61.9711866,42.3360563 61.4050575,42.9073239 C60.8389285,43.4785915 60.8389285,44.4014085 61.4050575,44.9726761 L62.7405414,46.3202817 C62.1163479,47.5946479 62.1163479,49.0740845 62.7405414,50.3484507 L61.4050575,51.6960563 C60.8244124,52.2526761 60.8244124,53.1901408 61.3905414,53.7614085 Z M67.9227995,47.1698592 C68.5615092,47.8143662 68.5615092,48.8543662 67.9227995,49.4988732 C67.3131221,50.1140845 66.2389285,50.1140845 65.614735,49.4988732 C64.9760253,48.8543662 64.9760253,47.8143662 65.614735,47.1698592 C65.9340898,46.8622535 66.3405414,46.6864789 66.7760253,46.6864789 C67.2115092,46.6864789 67.6179608,46.8622535 67.9227995,47.1698592 Z" id="Shape-Copy-6" stroke-width="0.5"></path>
            <path d="M90.4227995,53.7614085 C90.7131221,54.0397183 91.0760253,54.1861972 91.4534446,54.1861972 C91.830864,54.1861972 92.1937672,54.0397183 92.4840898,53.7614085 L93.8195737,52.4138028 C94.4292511,52.7214085 95.1115092,52.8971831 95.8227995,52.8971831 C96.5340898,52.8971831 97.2018317,52.7214085 97.8260253,52.4138028 L99.1615092,53.7614085 C99.4227995,54.0397183 99.7857027,54.1861972 100.163122,54.1861972 C100.540541,54.1861972 100.903445,54.0397183 101.193767,53.7614085 C101.759896,53.1901408 101.759896,52.2673239 101.193767,51.6960563 L99.8582834,50.3484507 C100.482477,49.0740845 100.482477,47.5946479 99.8582834,46.3202817 L101.193767,44.9726761 C101.759896,44.4014085 101.759896,43.4785915 101.193767,42.9073239 C100.627638,42.3360563 99.7131221,42.3360563 99.146993,42.9073239 L97.796993,44.2695775 C96.5486059,43.683662 95.0824769,43.683662 93.8340898,44.2695775 L92.4840898,42.9073239 C91.9179608,42.3360563 91.0034446,42.3360563 90.4373156,42.9073239 C89.8711866,43.4785915 89.8711866,44.4014085 90.4373156,44.9726761 L91.7727995,46.3202817 C91.1486059,47.5946479 91.1486059,49.0740845 91.7727995,50.3484507 L90.4373156,51.6960563 C89.8566705,52.2526761 89.8566705,53.1901408 90.4227995,53.7614085 Z M96.9550575,47.1698592 C97.5937672,47.8143662 97.5937672,48.8543662 96.9550575,49.4988732 C96.3453801,50.1140845 95.2711866,50.1140845 94.646993,49.4988732 C94.0082834,48.8543662 94.0082834,47.8143662 94.646993,47.1698592 C94.9663479,46.8622535 95.3727995,46.6864789 95.8082834,46.6864789 C96.2437672,46.6864789 96.6502188,46.8622535 96.9550575,47.1698592 Z" id="Shape-Copy-5" stroke-width="0.5"></path>
        </g>
    </g>
</svg>
