<?xml version="1.0" encoding="UTF-8"?>
<svg width="41px" height="42px" viewBox="0 0 41 42" version="1.1" xmlns="http://www.w3.org/2000/svg" xmlns:xlink="http://www.w3.org/1999/xlink">
    <!-- Generator: Sketch Beta 47 (45392) - http://www.bohemiancoding.com/sketch -->
    <title>1x / Made In NY / Black</title>
    <desc>Created with Sketch Beta.</desc>
    <defs>
        <polygon id="path-1" points="40.9678974 0.04018 0 0.04018 0 41 40.9678974 41"></polygon>
    </defs>
    <g id="Logos" stroke="none" stroke-width="1" fill="none" fill-rule="evenodd">
        <g id="1x-/-Made-In-NY-/-Black">
            <g id="Group">
                <g id="Group-3" transform="translate(0.000000, 0.005376)">
                    <mask id="mask-2" fill="white">
                        <use xlink:href="#path-1"></use>
                    </mask>
                    <g id="Clip-2"></g>
                    <path d="M20.4672,39.4348569 C30.7218011,39.5020969 39.3327578,31.2015558 39.4034144,20.6744869 C39.4745722,10.0720691 30.9939044,1.66419911 20.6030011,1.60479467 C9.91475667,1.54370467 1.58843111,10.2040891 1.56474222,20.4822424 C1.54059778,30.9739147 10.1191189,39.4974502 20.4672,39.4348569 M20.4845111,40.9995991 C9.26846,41.0719413 -0.0267866667,31.8475336 4.55555559e-05,20.4761836 C0.0263311111,9.35712022 9.03403111,-0.033702 20.6321567,0.0405991111 C31.8713956,0.112622444 41.0538011,9.21462244 40.9672911,20.7021391 C40.8813278,32.1154458 31.5484067,41.0588213 20.4845111,40.9995991" id="Fill-1" fill="#2B2727" mask="url(#mask-2)"></path>
                </g>
                <path d="M37.2959734,5.45123244 C38.1279546,5.44772467 38.8250912,4.75250133 38.8241801,3.92721689 C38.8232234,3.09400578 38.1150168,2.37905689 37.2880468,2.37646022 C36.4654501,2.37386356 35.7405701,3.10216022 35.7485879,3.923208 C35.7568334,4.76908356 36.4511912,5.45478578 37.2959734,5.45123244 M37.3007112,2.03005578 C38.3557323,2.03096689 39.2044323,2.87397244 39.2007879,3.91742244 C39.1971434,4.96679467 38.3318612,5.83034578 37.2849946,5.82948022 C36.248879,5.82856911 35.365329,4.97130467 35.3765357,3.935508 C35.3893823,2.74468578 36.3458668,1.97917022 37.3007112,2.03005578" id="Fill-4" fill="#2B2727"></path>
                <path d="M18.8300244,29.8201382 L18.8300244,29.5098593 C18.8300244,26.3441582 18.8300244,23.1784116 18.83007,20.0127104 C18.83007,19.6181993 18.8303889,19.6180627 19.2341478,19.6179716 C19.6744422,19.6178804 20.1147822,19.6168782 20.5551222,19.6184727 C20.8350611,19.6194749 20.8487278,19.632686 20.8488189,19.9172716 C20.8495478,22.0656716 20.8492744,24.2141171 20.8492744,26.3626082 C20.8492744,28.5490016 20.8494567,30.7353949 20.8490467,32.9217882 C20.8490011,33.2488316 20.8445367,33.2530227 20.5191789,33.2536149 C20.0560611,33.2544349 19.5925789,33.2428638 19.1300078,33.2587627 C18.9209533,33.2659604 18.7946278,33.181546 18.6741333,33.0264749 C17.7012033,31.7741527 16.7229433,30.5258849 15.7465056,29.2762504 C14.1393511,27.2194171 12.5322878,25.1625382 10.9257711,23.1052038 C10.8979822,23.0695793 10.87771,23.0282149 10.8398533,22.9667604 C10.7574889,23.1039282 10.7827267,23.2035127 10.7826811,23.2965371 C10.7812689,26.4926238 10.7815422,29.6887104 10.7814056,32.8847971 C10.7814056,33.2530227 10.7809044,33.2534327 10.4200133,33.2537516 C9.96454889,33.254116 9.50885667,33.2459616 9.05362,33.2569404 C8.83354111,33.2622704 8.76151778,33.1748949 8.76274778,32.9616949 C8.76898889,31.8837138 8.76543556,30.8056871 8.76543556,29.7276604 C8.76539,26.4860182 8.76534444,23.2443304 8.76548111,20.0027338 C8.76548111,19.6182904 8.76589111,19.6181082 9.15776,19.6180171 C9.61322444,19.6178349 10.0688711,19.6240304 10.5241989,19.615056 C10.7009089,19.6115482 10.82318,19.6714993 10.9313744,19.8101249 C12.6820289,22.0532804 14.4359178,24.2939304 16.1889867,26.5352638 C17.0164122,27.5931549 17.8435644,28.6512738 18.6711722,29.7090738 C18.7032433,29.7500282 18.7288,29.7996382 18.8300244,29.8201382" id="Fill-6" fill="#2B2727"></path>
                <path d="M30.1825418,30.2635942 C30.1824962,31.1516542 30.1829518,32.0396687 30.1822229,32.9277287 C30.1819496,33.244112 30.1730662,33.2531776 29.8680718,33.2538609 C29.4050907,33.2548631 28.942064,33.2549542 28.4790373,33.2538609 C28.1734507,33.2530864 28.1657518,33.2450687 28.1656607,32.9286853 C28.1652051,31.1753887 28.163064,29.4220009 28.1685762,27.6687042 C28.169214,27.4678498 28.1139551,27.3048064 27.9986084,27.1427653 C26.3570596,24.8369253 24.7195651,22.5282153 23.0812051,20.2200976 C22.9801629,20.077782 22.8796673,19.935102 22.7803107,19.7916476 C22.7060551,19.6844553 22.729334,19.6199942 22.8659096,19.6199031 C23.5641396,19.6193564 24.2624151,19.6203131 24.9606907,19.6213609 C25.083554,19.6215431 25.1477418,19.7085087 25.2103807,19.7960664 C26.336104,21.3699653 27.4618273,22.9438642 28.5875051,24.5178542 C28.7420296,24.7338331 28.9043896,24.9448009 29.047844,25.1679776 C29.1547173,25.3343009 29.2227318,25.359402 29.3493307,25.1774987 C29.9085251,24.374172 30.4797007,23.5790909 31.0460929,22.7806387 C31.7398129,21.8026976 32.4361296,20.8266698 33.1235173,19.8443098 C33.2405951,19.6769387 33.3712484,19.6097442 33.5761573,19.6133887 C34.2286951,19.6249598 34.8815973,19.6168509 35.5343629,19.618992 C35.606614,19.6192198 35.7008229,19.5889709 35.7432351,19.666962 C35.786604,19.7466842 35.7085673,19.8062253 35.6655629,19.8650831 C34.4300962,21.556242 33.193764,23.2467631 31.9575684,24.9374209 C31.4066651,25.6908642 30.8573107,26.4454464 30.3034918,27.1967942 C30.2127907,27.3198398 30.1801273,27.4489898 30.1807651,27.5994598 C30.1844551,28.4874742 30.1825873,29.3755342 30.1825418,30.2635942" id="Fill-8" fill="#2B2727"></path>
                <path d="M12.8709432,8.26770922 C12.8311277,8.93846922 12.7693088,9.58845589 12.7876677,10.2409481 C12.7952299,10.5104092 12.7773721,10.517197 12.5182977,10.4182959 C12.0006954,10.2208126 11.483731,10.0215981 10.9655366,9.82570922 C10.8758377,9.79177033 10.7896466,9.738197 10.6484699,9.75154478 C10.7946577,9.96661256 10.9282266,10.1642326 11.0629343,10.3610326 C11.3244232,10.7430614 11.5814477,11.1283248 11.8509543,11.5046592 C11.9566888,11.6522137 11.9293554,11.7359903 11.7873588,11.8362581 C11.3023288,12.1787903 11.2986843,12.1874914 10.9533732,11.6894326 C10.3523132,10.8225103 9.76236878,9.94784367 9.16212878,9.08032922 C9.070471,8.94780811 9.08568656,8.86143478 9.21852656,8.78421811 C9.231601,8.77661033 9.24508544,8.76868367 9.25583656,8.75825144 C9.55909989,8.46368922 9.87434433,8.44487478 10.2622954,8.62714256 C10.7415399,8.85232367 11.254131,9.005937 11.7489554,9.19918367 C11.9037532,9.25963589 11.9505388,9.22478589 11.9496277,9.06115033 C11.9462566,8.43877033 11.9586477,7.81620811 11.9493999,7.19391922 C11.9463477,6.98691478 12.018781,6.859177 12.1913454,6.74738367 C12.6592466,6.44430256 12.6537799,6.43819811 12.974081,6.90742033 C13.5560988,7.75985589 14.1348821,8.61452367 14.7259199,9.46067256 C14.8516532,9.64066256 14.8656388,9.73878922 14.6588621,9.86935144 C14.1915532,10.1643237 14.1943321,10.1787192 13.8750332,9.72512256 C13.5823388,9.30938256 13.3006688,8.88585256 13.0135777,8.46614922 C12.9676121,8.39895478 12.9185488,8.33381033 12.8709432,8.26770922" id="Fill-10" fill="#2B2727"></path>
                <path d="M25.2070688,6.96633278 C25.2077977,6.51237167 25.0061232,6.22095278 24.5557154,6.05982278 C24.1189743,5.90361278 23.6565399,5.84671389 23.208911,5.73236944 C23.0493299,5.69159722 22.9903354,5.74457833 22.9589477,5.89277056 C22.8318021,6.49351167 22.7039732,7.09425278 22.5633888,7.69194167 C22.5223432,7.86641944 22.5878977,7.92518611 22.7412832,7.95721167 C23.1271388,8.037845 23.5108532,8.12881944 23.8967088,8.20913389 C24.0534199,8.24175167 24.213001,8.24102278 24.370441,8.20043278 C24.8945577,8.06522389 25.2061121,7.60620611 25.2070688,6.96633278 M26.0568166,6.97084278 C26.0494366,7.32471833 25.9774588,7.66333278 25.8269432,7.98399833 C25.4445499,8.798805 24.6829066,9.21053611 23.7968966,9.04571611 C23.0969354,8.91551833 22.4048099,8.74336389 21.7075366,8.59817833 C21.4818088,8.55121056 21.5405299,8.40552389 21.5709154,8.26790056 C21.7947754,7.25415278 22.019501,6.24058722 22.2467321,5.22761389 C22.3672721,4.69024056 22.3699599,4.689785 22.9006821,4.80385611 C23.4192866,4.91533056 23.9395766,5.02001722 24.4551288,5.14424722 C25.0557788,5.28893167 25.5784377,5.55411056 25.8818832,6.13558167 C26.0197799,6.399895 26.0548121,6.681155 26.0568166,6.97084278" id="Fill-12" fill="#2B2727"></path>
                <path d="M20.9407272,13.8703319 C20.9407272,14.1562841 20.9407728,14.4422819 20.9406817,14.7282341 C20.9405906,15.1913519 20.9367183,15.6545152 20.942185,16.1175419 C20.9441439,16.2814963 20.8812317,16.3522441 20.7154094,16.3510141 C19.9974994,16.3457297 20.110295,16.4155208 20.1067417,15.772823 C20.1011839,14.7782997 20.1048739,13.7837308 20.1055572,12.7892074 C20.105785,12.4671297 20.1128917,12.4853974 20.4392972,12.456333 C20.7914417,12.4249908 21.0251872,12.5367386 21.2432161,12.8275197 C21.7298406,13.4765497 22.2596517,14.0932352 22.7724706,14.7225852 C22.8241306,14.785953 22.8800272,14.845813 22.9381106,14.9120052 C23.0039383,14.8333763 22.976195,14.7549297 22.9765139,14.6840452 C22.9791561,14.031143 22.9825272,13.3781952 22.9756483,12.7253841 C22.9735983,12.5312719 23.0402006,12.4546474 23.2404628,12.4593852 C23.906485,12.4750563 23.8092239,12.3847197 23.8124583,13.0253219 C23.8175606,14.0350152 23.8143261,15.0447541 23.813415,16.054493 C23.8131872,16.3336119 23.7963772,16.3291019 23.5163017,16.3547497 C23.1759561,16.3859097 22.940115,16.2800386 22.7251383,15.997913 C22.1920017,15.2981341 21.6227394,14.6258708 21.0677817,13.9427197 C21.0445483,13.9141108 21.0194928,13.8870508 20.9953028,13.8592163 C20.9771261,13.8629519 20.9589039,13.8666419 20.9407272,13.8703319" id="Fill-14" fill="#2B2727"></path>
                <path d="M28.4419551,9.32576433 C28.3743051,9.32143656 28.3500696,9.36257322 28.3189551,9.39528211 C27.9098662,9.82546322 27.9168362,9.89630211 28.3969007,10.2342332 C28.9306751,10.6099754 29.460714,10.9910477 29.9984973,11.3609132 C30.1558918,11.4691532 30.187234,11.5562554 30.0691084,11.7250843 C29.7278518,12.2129843 29.7353684,12.2178132 29.2546207,11.8779688 C28.4984896,11.3434199 27.7445907,10.8056366 26.9837218,10.2779666 C26.8247784,10.1677221 26.7915229,10.0806199 26.9111062,9.91393211 C27.5834607,8.97648989 28.2509862,8.03540322 28.9097651,7.08834878 C29.0284829,6.917561 29.1180907,6.92074989 29.2734351,7.03226989 C30.0996307,7.62535767 30.9304273,8.21211322 31.763274,8.79590767 C31.8906473,8.88519656 31.9192107,8.96446322 31.8172573,9.09010544 C31.7313396,9.19588544 31.6492484,9.30713211 31.582464,9.42557656 C31.4913529,9.58734433 31.4010618,9.58333544 31.2581084,9.480061 C30.6551807,9.04459544 30.0421396,8.62302433 29.4395762,8.186921 C29.3060984,8.09029767 29.2363073,8.083601 29.1358118,8.23083656 C28.8434362,8.659241 28.854324,8.56339211 29.2394507,8.83736322 C29.4497351,8.98696767 29.6576051,9.140171 29.8713518,9.28458211 C30.0009118,9.37204878 30.0082007,9.45400322 29.9199596,9.58406433 C29.5696829,10.1004366 29.5733273,10.1032154 29.0705307,9.75366767 C28.8960529,9.63235322 28.7228051,9.50921656 28.5481451,9.38812989 C28.5111084,9.36248211 28.4702907,9.34225544 28.4419551,9.32576433" id="Fill-16" fill="#2B2727"></path>
                <path d="M17.6269614,5.80435178 C17.4870603,6.29216067 17.3656548,6.72065622 17.2406048,7.14805844 C17.2057092,7.26723178 17.2369603,7.33032622 17.3660192,7.30818622 C17.7158859,7.24828067 18.0650692,7.184594 18.413797,7.11867511 C18.5151126,7.09949622 18.5346103,7.04136733 18.4718803,6.95608733 C18.1999592,6.58649511 17.9289492,6.21621956 17.6269614,5.80435178 M19.7927181,8.56606622 C19.687667,8.57996067 19.619197,8.52661511 19.5628448,8.44743956 C19.4749226,8.32389289 19.3738803,8.20786289 19.3004903,8.07629844 C19.1996759,7.89562511 19.067337,7.85221067 18.8681226,7.89157067 C18.2958992,8.00477622 17.7209426,8.104634 17.1459403,8.20353511 C16.9926459,8.22991178 16.8933348,8.29665067 16.8722426,8.45732511 C16.8703292,8.47217622 16.8638603,8.48638956 16.8593959,8.50087622 C16.6193181,9.289124 16.8237714,9.07396511 16.0171192,9.24078956 C15.783647,9.28907844 15.7564959,9.25732622 15.8200914,9.02790844 C16.048917,8.20253289 16.281387,7.378114 16.5136748,6.55369511 C16.6370392,6.11595178 16.7669637,5.68003067 16.8852714,5.24092067 C16.9219437,5.10480067 16.9942859,5.03163844 17.1319548,5.01642289 C17.1920881,5.00977178 17.2565037,5.00867844 17.3106692,4.98553622 C17.847587,4.75643733 18.143607,5.00284733 18.4434537,5.44787956 C19.0698426,6.37753178 19.7593259,7.26463511 20.4227059,8.16936844 C20.590897,8.39874067 20.5821048,8.42270289 20.3072681,8.47431733 C20.1360248,8.50647956 19.9642348,8.53558956 19.7927181,8.56606622" id="Fill-18" fill="#2B2727"></path>
                <path d="M18.1648222,14.4133951 C18.1647311,14.9747307 18.1594467,15.5361573 18.1676467,16.0973562 C18.1704256,16.2849996 18.1005889,16.3536518 17.9154967,16.352194 C17.2699289,16.3470462 17.3692856,16.3869073 17.3668711,15.8289429 C17.3624522,14.804854 17.3714722,13.7807196 17.3612222,12.7567673 C17.3589444,12.5270762 17.4312411,12.4510896 17.6607044,12.4581507 C18.2264133,12.4755073 18.1612233,12.4069007 18.1643667,12.9569384 C18.1671456,13.442424 18.1649589,13.9279096 18.1648222,14.4133951" id="Fill-20" fill="#2B2727"></path>
                <path d="M36.8361038,3.52630978 C36.8524582,3.63031311 36.7837604,3.784382 36.9754582,3.80315089 C37.1434216,3.81955089 37.3095171,3.79909644 37.4691438,3.74752756 C37.570186,3.71490978 37.6325516,3.63823978 37.6366516,3.52703867 C37.640706,3.41715867 37.5866316,3.34094422 37.4908282,3.29024089 C37.3707893,3.226782 37.2400449,3.24655311 37.1126716,3.234572 C36.893686,3.21398089 36.7953316,3.29885089 36.8361038,3.52630978 M37.5755616,4.079992 C37.8074849,4.291552 37.9369538,4.551902 38.0948038,4.792162 C38.1673282,4.90254311 38.1726127,4.96399756 38.008886,4.97333644 C37.8214704,4.984042 37.6910449,4.93201756 37.6059927,4.75307533 C37.5217149,4.57563644 37.4238616,4.40352756 37.2857371,4.25802311 C37.1861527,4.15315422 37.0653849,4.11748422 36.9337293,4.15616089 C36.7925527,4.19757089 36.8419349,4.32918089 36.8352382,4.42817311 C36.8281316,4.53399867 36.8326871,4.64059867 36.8329604,4.74687978 C36.8332793,4.87370644 36.8071304,4.96919089 36.6463649,4.97028422 C36.4915671,4.97137756 36.452526,4.89211089 36.4531638,4.75662867 C36.4555782,4.21005311 36.4550316,3.66352311 36.4534371,3.11694756 C36.4530727,2.99540533 36.4831393,2.90465867 36.6265938,2.90515978 C36.8996082,2.90607089 37.1736249,2.88046867 37.4450904,2.92142311 C37.8084871,2.97622644 38.0224616,3.160772 38.0536216,3.43387756 C38.0832782,3.69381756 37.919506,3.92246089 37.5755616,4.079992" id="Fill-22" fill="#2B2727"></path>
            </g>
        </g>
    </g>
</svg>