<?xml version="1.0" encoding="UTF-8"?>
<svg width="88px" height="93px" viewBox="0 0 88 93" version="1.1" xmlns="http://www.w3.org/2000/svg" xmlns:xlink="http://www.w3.org/1999/xlink">
    <!-- Generator: Sketch 43.2 (39069) - http://www.bohemiancoding.com/sketch -->
    <title>Page 1</title>
    <desc>Created with Sketch.</desc>
    <defs></defs>
    <g id="Page-1" stroke="none" stroke-width="1" fill="none" fill-rule="evenodd">
        <path d="M41.7592482,78.4337125 C42.6565077,78.4337125 43.4399711,79.2171759 43.4399711,80.1144354 C43.4399711,81.0116949 42.6565077,81.7951583 41.7592482,81.7951583 L19.3496096,81.7951583 C18.4523501,81.7951583 17.6688867,81.0116949 17.6688867,80.1144354 C17.6688867,79.2171759 18.4523501,78.4337125 19.3496096,78.4337125 L41.7592482,78.4337125 Z M31.6749108,20.7289157 L31.6749108,27.7890499 L23.8313133,27.7890499 C23.8313133,27.7890499 22.1505904,30.0700713 22.1505904,31.9337349 C22.1505904,33.7973986 23.8313133,35.6324234 23.8313133,35.6324234 L31.6749108,35.6324234 L31.6749108,42.5783133 C31.6749108,42.5783133 33.6354618,44.2590361 35.5963735,44.2590361 C37.5572852,44.2590361 39.5182843,42.5783133 39.5182843,42.5783133 L39.5182843,35.6324234 L47.3614337,35.6324234 C47.3614337,35.6324234 49.0421566,33.9776938 49.0421566,31.9337349 C49.0421566,29.8897761 47.3614337,27.7890499 47.3614337,27.7890499 L39.5182843,27.7890499 L39.5182843,20.7289157 C39.5182843,20.7289157 37.5571214,19.0481928 35.5963735,19.0481928 C33.6356256,19.0481928 31.6749108,20.7289157 31.6749108,20.7289157 Z M14.8676819,53.7831101 C13.9704224,53.7831101 13.186959,54.5665735 13.186959,55.463833 C13.186959,56.3610925 13.9704224,57.1445559 14.8676819,57.1445559 C15.7649414,57.1445559 16.5484048,56.3610925 16.5484048,55.463833 C16.5484048,54.5665735 15.7649414,53.7831101 14.8676819,53.7831101 Z M14.8676819,70.253074 C13.9704224,70.253074 13.186959,71.0365373 13.186959,71.9337969 C13.186959,72.8310564 13.9704224,73.6145198 14.8676819,73.6145198 C15.7649414,73.6145198 16.5484048,72.8310564 16.5484048,71.9337969 C16.5484048,71.0365373 15.7649414,70.253074 14.8676819,70.253074 Z M14.8676819,78.4334884 C13.9704224,78.4334884 13.186959,79.2169518 13.186959,80.1142113 C13.186959,81.0114708 13.9704224,81.7949342 14.8676819,81.7949342 C15.7649414,81.7949342 16.5484048,81.0114708 16.5484048,80.1142113 C16.5484048,79.2169518 15.7649414,78.4334884 14.8676819,78.4334884 Z M14.8676819,61.9635246 C13.9704224,61.9635246 13.186959,62.746988 13.186959,63.6442475 C13.186959,64.541507 13.9704224,65.3249704 14.8676819,65.3249704 C15.7649414,65.3249704 16.5484048,64.541507 16.5484048,63.6442475 C16.5484048,62.746988 15.7649414,61.9635246 14.8676819,61.9635246 Z M19.3496096,70.2530964 C18.4523501,70.2530964 17.6688867,71.0365598 17.6688867,71.9338193 C17.6688867,72.8310788 18.4523501,73.6145422 19.3496096,73.6145422 L50.6088145,73.6145422 C50.0485735,72.4940602 49.4883325,71.3735783 49.1512916,70.2530964 L19.3496096,70.2530964 Z M19.3496096,65.3247687 L48.036188,65.3247687 C47.9223918,64.6507316 47.9223918,63.8672458 47.9223918,63.1976458 C47.9223918,62.751201 47.9223918,62.4141824 48.036188,61.9633229 L19.3496096,61.9633229 C18.4523501,61.9633229 17.6688867,62.7467863 17.6688867,63.6440458 C17.6688867,64.5413053 18.338554,65.3247687 19.3496096,65.3247687 Z M17.6688867,55.4636313 C17.6688867,56.3608908 18.4523501,57.1443542 19.3496096,57.1443542 L48.7051157,57.1443542 C49.0421342,56.0238723 49.488579,54.9033904 50.0487976,53.7829084 L19.3498337,53.7829084 C18.3387781,53.7829084 17.6691108,54.5663718 17.6691108,55.4636313 L17.6688867,55.4636313 Z M60.2469759,89.6385542 L10.9457711,89.6385542 C6.91024337,89.6385542 3.66263855,86.3909494 3.66263855,82.3554217 L3.66263855,10.6445783 C3.66263855,6.6090506 6.91024337,3.36144578 10.9457711,3.36144578 L60.2469759,3.36144578 C64.2825036,3.36144578 67.5301084,6.6090506 67.5301084,10.6445783 L67.5301084,42.0180723 C68.0903494,42.0180723 68.6505904,41.9042761 69.2108313,41.9042761 C69.7710723,41.9042761 70.3313133,41.9042761 70.8915542,42.0180723 L70.8915542,10.6445783 C70.8915542,4.81896867 66.0725855,0 60.2469759,0 L10.9457711,0 C5.12016145,0 0.301192771,4.81896867 0.301192771,10.6445783 L0.301192771,82.3554217 C0.301192771,88.1810313 5.12016145,93 10.9457711,93 L60.2469759,93 C65.4029855,93 69.7710723,89.3015133 70.6683542,84.4825446 C70.2219094,84.4825446 69.6616684,84.5963407 69.2108313,84.5963407 C68.5367942,84.4825446 67.8671494,84.4825446 67.1930675,84.3731183 C66.295808,87.3975904 63.4945807,89.6385542 60.2469759,89.6385542 Z M87.6990072,63.1938361 C87.6990072,73.3920145 79.4092337,81.681788 69.2110554,81.681788 C59.0128771,81.681788 50.7231036,73.3920145 50.7231036,63.1938361 C50.7231036,52.9956578 59.0128771,44.7058843 69.2110554,44.7058843 C79.4048639,44.7058843 87.6990072,53.0000277 87.6990072,63.1938361 Z M84.3375614,63.1938361 C84.3375614,54.9040627 77.5008289,48.0673301 69.2110554,48.0673301 C60.9212819,48.0673301 54.0845494,54.9040627 54.0845494,63.1938361 C54.0845494,71.4836096 60.9212819,78.3203422 69.2110554,78.3203422 C77.5008289,78.3203422 84.3375614,71.5974506 84.3375614,63.1938361 Z M69.2110554,58.7119084 C70.5547373,58.7119084 71.5658602,59.4953718 71.5658602,60.1694313 C71.5658602,61.0666908 72.2398973,61.7363133 73.1327422,61.7363133 C74.0300017,61.7363133 74.6996241,61.0622761 74.6996241,60.1694313 C74.6996241,58.0423084 73.0189012,56.2477446 70.7779373,55.6875036 L70.7779373,55.2410588 C70.7779373,54.3437993 70.1039002,53.6741769 69.2110554,53.6741769 C68.3137959,53.6741769 67.6441735,54.348214 67.6441735,55.2410588 L67.6441735,55.6875036 C65.4032096,56.2477446 63.7224867,58.0423084 63.7224867,60.1694313 C63.7224867,62.7474361 66.1866506,64.7652 69.3248964,64.7652 C70.6685783,64.7652 71.6797012,65.5486634 71.6797012,66.2227229 C71.6753313,66.8923901 70.5548494,67.7896048 69.2111675,67.7896048 C67.8674855,67.7896048 66.8563627,67.0061414 66.8563627,66.3320819 C66.8563627,65.4348224 66.1823255,64.7652 65.2894807,64.7652 C64.3922212,64.7652 63.7225988,65.4392371 63.7225988,66.3320819 C63.7225988,68.4592048 65.4033217,70.2537687 67.6442855,70.8140096 L67.6399157,71.1510282 C67.6399157,72.0482877 68.3139528,72.7179101 69.2067976,72.7179101 C70.1040571,72.7179101 70.7736795,72.043873 70.7736795,71.1510282 L70.7736795,70.7045834 C73.0146434,70.1443424 74.6953663,68.3497786 74.6953663,66.2226557 C74.6953663,63.6446508 72.2312024,61.626887 69.0929566,61.626887 C67.7492747,61.626887 66.7381518,60.8434236 66.7381518,60.1693641 C66.7469028,59.4996969 67.7535886,58.7118412 69.2110554,58.7118412 L69.2110554,58.7119084 Z" fill="#4D4D4D"></path>
    </g>
</svg>