<?xml version="1.0" encoding="UTF-8"?>
<svg width="16px" height="14px" viewBox="0 0 16 14" version="1.1" xmlns="http://www.w3.org/2000/svg" xmlns:xlink="http://www.w3.org/1999/xlink">
    <!-- Generator: Sketch 46.2 (44496) - http://www.bohemiancoding.com/sketch -->
    <title>noun_1146350</title>
    <desc>Created with Sketch.</desc>
    <defs></defs>
    <g id="Quotes" stroke="none" stroke-width="1" fill="none" fill-rule="evenodd">
        <g id="Comparison---Desktop" transform="translate(-396.000000, -1471.000000)" fill-rule="nonzero" fill="#4D4D4D">
            <g id="Result-1" transform="translate(71.000000, 1354.000000)">
                <g id="Dividers" transform="translate(127.000000, 39.000000)">
                    <g id="Group" transform="translate(197.000000, 5.000000)">
                        <g id="Policy-Type" transform="translate(0.000000, 22.000000)">
                            <g id="Group-4" transform="translate(1.000000, 49.000000)">
                                <g id="noun_1146350" transform="translate(0.000000, 2.000000)">
                                    <path d="M14.9906061,2.54545455 L10.8181818,2.54545455 L10.8181818,0.680909091 C10.8181818,0.329455159 10.5332721,0.0445454545 10.1818182,0.0445454545 L5.51515152,0.0445454545 C5.16369758,0.0445454545 4.87878788,0.329455159 4.87878788,0.680909091 L4.87878788,2.54545455 L0.706363636,2.54545455 C0.354909705,2.54545455 0.07,2.83036425 0.07,3.18181818 L0.07,13.3190909 C0.07,13.6705448 0.354909705,13.9554545 0.706363636,13.9554545 L14.9906061,13.9554545 C15.34206,13.9554545 15.6269697,13.6705448 15.6269697,13.3190909 L15.6269697,3.18181818 C15.6269697,2.83036425 15.34206,2.54545455 14.9906061,2.54545455 Z M6.15151515,1.31727273 L9.54545455,1.31727273 L9.54545455,2.54545455 L6.15151515,2.54545455 L6.15151515,1.31727273 Z M14.3542424,12.6827273 L1.34272727,12.6827273 L1.34272727,3.81818182 L14.3542424,3.81818182 L14.3542424,12.6827273 Z" id="Shape"></path>
                                    <polygon id="Shape" points="8.48484848 5.75272727 7.21212121 5.75272727 7.21212121 7.61090909 5.35393939 7.61090909 5.35393939 8.88363636 7.21212121 8.88363636 7.21212121 10.7418182 8.48484848 10.7418182 8.48484848 8.88363636 10.3430303 8.88363636 10.3430303 7.61090909 8.48484848 7.61090909"></polygon>
                                </g>
                            </g>
                        </g>
                    </g>
                </g>
            </g>
        </g>
    </g>
</svg>