<?xml version="1.0" encoding="UTF-8"?>
<svg width="94px" height="89px" viewBox="0 0 94 89" version="1.1" xmlns="http://www.w3.org/2000/svg" xmlns:xlink="http://www.w3.org/1999/xlink">
    <!-- Generator: Sketch 44.1 (41455) - http://www.bohemiancoding.com/sketch -->
    <title>noun_321200_00a4a5 copy</title>
    <desc>Created with Sketch.</desc>
    <defs></defs>
    <g id="PPC-Calculator-Modal" stroke="none" stroke-width="1" fill="none" fill-rule="evenodd">
        <g id="noun_321200_00a4a5-copy" fill="#00A4A5" fill-rule="nonzero">
            <path d="M28.6543333,32.3366667 C28.9676667,32.6333333 29.3593333,32.7894737 29.7666667,32.7894737 C30.174,32.7894737 30.5656667,32.6333333 30.879,32.3366667 L32.3203333,30.9001754 C32.9783333,31.2280702 33.7146667,31.4154386 34.4823333,31.4154386 C35.25,31.4154386 35.9706667,31.2280702 36.6443333,30.9001754 L38.0856667,32.3366667 C38.3676667,32.6333333 38.7593333,32.7894737 39.1666667,32.7894737 C39.574,32.7894737 39.9656667,32.6333333 40.279,32.3366667 C40.89,31.7277193 40.89,30.7440351 40.279,30.1350877 L38.8376667,28.6985965 C39.5113333,27.3401754 39.5113333,25.7631579 38.8376667,24.4047368 L40.279,22.9682456 C40.89,22.3592982 40.89,21.375614 40.279,20.7666667 C39.668,20.1577193 38.681,20.1577193 38.07,20.7666667 L36.613,22.2187719 C35.2656667,21.5942105 33.6833333,21.5942105 32.336,22.2187719 L30.879,20.7666667 C30.268,20.1577193 29.281,20.1577193 28.67,20.7666667 C28.059,21.375614 28.059,22.3592982 28.67,22.9682456 L30.1113333,24.4047368 C29.4376667,25.7631579 29.4376667,27.3401754 30.1113333,28.6985965 L28.67,30.1350877 C28.0433333,30.7284211 28.0433333,31.7277193 28.6543333,32.3366667 Z M35.7043333,25.3103509 C36.3936667,25.9973684 36.3936667,27.1059649 35.7043333,27.7929825 C35.0463333,28.4487719 33.887,28.4487719 33.2133333,27.7929825 C32.524,27.1059649 32.524,25.9973684 33.2133333,25.3103509 C33.558,24.9824561 33.9966667,24.7950877 34.4666667,24.7950877 C34.9366667,24.7950877 35.3753333,24.9824561 35.7043333,25.3103509 Z" id="Shape" stroke="#FFFFFF" stroke-width="0.5"></path>
            <path d="M53.721,32.3366667 C54.0343333,32.6333333 54.426,32.7894737 54.8333333,32.7894737 C55.2406667,32.7894737 55.6323333,32.6333333 55.9456667,32.3366667 L57.387,30.9001754 C58.045,31.2280702 58.7813333,31.4154386 59.549,31.4154386 C60.3166667,31.4154386 61.0373333,31.2280702 61.711,30.9001754 L63.1523333,32.3366667 C63.4343333,32.6333333 63.826,32.7894737 64.2333333,32.7894737 C64.6406667,32.7894737 65.0323333,32.6333333 65.3456667,32.3366667 C65.9566667,31.7277193 65.9566667,30.7440351 65.3456667,30.1350877 L63.9043333,28.6985965 C64.578,27.3401754 64.578,25.7631579 63.9043333,24.4047368 L65.3456667,22.9682456 C65.9566667,22.3592982 65.9566667,21.375614 65.3456667,20.7666667 C64.7346667,20.1577193 63.7476667,20.1577193 63.1366667,20.7666667 L61.6796667,22.2187719 C60.3323333,21.5942105 58.75,21.5942105 57.4026667,22.2187719 L55.9456667,20.7666667 C55.3346667,20.1577193 54.3476667,20.1577193 53.7366667,20.7666667 C53.1256667,21.375614 53.1256667,22.3592982 53.7366667,22.9682456 L55.178,24.4047368 C54.5043333,25.7631579 54.5043333,27.3401754 55.178,28.6985965 L53.7366667,30.1350877 C53.11,30.7284211 53.11,31.7277193 53.721,32.3366667 Z M60.771,25.3103509 C61.4603333,25.9973684 61.4603333,27.1059649 60.771,27.7929825 C60.113,28.4487719 58.9536667,28.4487719 58.28,27.7929825 C57.5906667,27.1059649 57.5906667,25.9973684 58.28,25.3103509 C58.6246667,24.9824561 59.0633333,24.7950877 59.5333333,24.7950877 C60.0033333,24.7950877 60.442,24.9824561 60.771,25.3103509 Z" id="Shape" stroke="#FFFFFF" stroke-width="0.5"></path>
            <path d="M93.2323333,36.4119298 C92.3863333,35.1159649 90.945,34.3508772 89.394,34.3508772 L84.6,34.3508772 C84.6,15.4110526 69.137,0 50.1333333,0 L43.8666667,0 C25.38,0 10.2616667,14.5678947 9.43133333,32.7894737 L4.82533333,32.7894737 C3.22733333,32.7894737 1.72333333,33.5857895 0.830333333,34.9129825 C-0.0626666667,36.2401754 -0.235,37.9108772 0.329,39.3161404 L11.0136667,70.1226316 C11.6403333,72.5115789 13.5673333,74.2759649 15.9173333,74.775614 L14.523,89 L21.62,89 L24.7533333,74.9473684 L69.2466667,74.9473684 L72.38,89 L79.477,89 L78.0826667,74.775614 C80.417,74.2603509 82.344,72.5115789 82.9393333,70.2475439 L93.624,40.7370175 C94.235,39.3161404 94.094,37.7078947 93.2323333,36.4119298 Z M43.8666667,3.12280702 L50.1333333,3.12280702 C67.4136667,3.12280702 81.4666667,17.1285965 81.4666667,34.3508772 L81.4666667,34.3821053 C81.4196667,34.3821053 81.3726667,34.3977193 81.31,34.4133333 C81.1846667,34.4289474 81.0593333,34.4601754 80.934,34.4914035 C80.7616667,34.5226316 80.605,34.5694737 80.4326667,34.6163158 C80.3073333,34.6475439 80.1976667,34.694386 80.0723333,34.7412281 C79.9156667,34.8036842 79.759,34.8661404 79.618,34.9442105 C79.5083333,35.0066667 79.3986667,35.0535088 79.289,35.1159649 C79.148,35.1940351 79.007,35.2877193 78.866,35.3814035 C78.7563333,35.4594737 78.6623333,35.5219298 78.5683333,35.6 C78.443,35.7092982 78.3176667,35.8185965 78.1923333,35.9435088 C78.0983333,36.0215789 78.02,36.1152632 77.926,36.2089474 C77.8006667,36.3338596 77.7066667,36.49 77.597,36.6305263 C77.5343333,36.7242105 77.456,36.8178947 77.3933333,36.9115789 C77.2836667,37.0833333 77.1896667,37.2550877 77.0956667,37.4424561 C77.0486667,37.5361404 77.0016667,37.6142105 76.9546667,37.7078947 C76.8293333,37.9889474 76.7353333,38.27 76.6413333,38.5666667 L73.5393333,51.6668421 C73.5236667,51.7605263 73.4766667,51.8542105 73.4453333,51.9478947 C71.5026667,48.8563158 68.056,46.8421053 64.2333333,46.8421053 L29.7666667,46.8421053 C26.1633333,46.8421053 22.8106667,48.6845614 20.7896667,51.5575439 L17.1236667,35.3189474 L16.92,35.0535088 C15.51,33.1798246 14.0373333,32.7894737 13.0503333,32.7894737 L12.5803333,32.7894737 C13.3793333,16.2854386 27.1033333,3.12280702 43.8666667,3.12280702 Z M25.4896667,56.1168421 C25.4583333,56.1168421 25.4426667,56.1012281 25.427,56.1012281 C24.3773333,55.8982456 23.4216667,55.3985965 22.6226667,54.6803509 C23.8446667,51.8542105 26.6646667,49.9649123 29.7666667,49.9649123 L64.2333333,49.9649123 C67.4606667,49.9649123 70.3433333,51.9635088 71.5026667,54.9145614 C70.4686667,55.7421053 69.1683333,56.2105263 67.821,56.2105263 L26.555,56.2105263 C26.1946667,56.2105263 25.8343333,56.1792982 25.4896667,56.1168421 Z M19.0976667,85.877193 L17.9696667,85.877193 L19.035,74.9473684 L21.5416667,74.9473684 L19.0976667,85.877193 Z M74.8866667,85.877193 L72.4426667,74.9473684 L74.9493333,74.9473684 L76.0146667,85.877193 L74.8866667,85.877193 Z M90.71,39.597193 L79.947,69.3263158 C79.5553333,70.7940351 78.2236667,71.8245614 76.6883333,71.8245614 L68.5416667,71.8245614 L25.4426667,71.8245614 L17.296,71.8245614 C15.7606667,71.8245614 14.429,70.7940351 14.006,69.2170175 L3.25866667,38.2075439 C3.03933333,37.6766667 3.102,37.1145614 3.41533333,36.6461404 C3.74433333,36.1777193 4.24566667,35.9122807 4.82533333,35.9122807 L9.4,35.9122807 L13.0503333,35.9122807 C13.3793333,35.9122807 13.8023333,36.1933333 14.2253333,36.6929825 L17.766,52.3070175 C18.0166667,53.415614 18.4866667,54.4305263 19.082,55.3361404 L19.0663333,55.3673684 L19.4893333,55.8826316 C20.3196667,56.944386 21.3693333,57.7875439 22.5756667,58.3808772 C22.7323333,58.4589474 22.9046667,58.5370175 23.0613333,58.5994737 C23.2963333,58.6931579 23.5313333,58.7868421 23.7663333,58.8649123 C24.111,58.9742105 24.4556667,59.0678947 24.816,59.1303509 C24.957,59.1615789 25.0823333,59.177193 25.2233333,59.192807 C25.662,59.2552632 26.1163333,59.3021053 26.5706667,59.3021053 L67.8366667,59.3021053 C68.291,59.3021053 68.7296667,59.2552632 69.184,59.192807 C69.3093333,59.177193 69.419,59.1615789 69.5443333,59.1303509 C69.936,59.0522807 70.312,58.9585965 70.6723333,58.8336842 C70.8446667,58.7712281 71.0013333,58.7087719 71.1736667,58.6463158 C71.393,58.5526316 71.6123333,58.4589474 71.8316667,58.3496491 C72.1136667,58.2091228 72.38,58.0685965 72.6306667,57.8968421 C72.8186667,57.7875439 72.991,57.6626316 73.179,57.5377193 C73.367,57.412807 73.5393333,57.2722807 73.7116667,57.1161404 C73.884,56.975614 74.0406667,56.8194737 74.1973333,56.6633333 C74.354,56.507193 74.5106667,56.3666667 74.6516667,56.2105263 L75.0746667,55.7577193 L75.059,55.6796491 C75.7953333,54.7115789 76.3593333,53.5873684 76.657,52.3382456 L79.7433333,39.2692982 C80.0253333,38.1763158 81.028,37.4112281 82.156,37.4112281 L84.6,37.4112281 L89.394,37.4112281 C89.8953333,37.4112281 90.334,37.6454386 90.616,38.0670175 C90.898,38.5510526 90.945,39.0507018 90.71,39.597193 Z" id="Shape"></path>
        </g>
    </g>
</svg>
