<?xml version="1.0" encoding="UTF-8"?>
<svg width="72px" height="31px" viewBox="0 0 72 31" version="1.1" xmlns="http://www.w3.org/2000/svg" xmlns:xlink="http://www.w3.org/1999/xlink">
    <!-- Generator: Sketch Beta 47 (45392) - http://www.bohemiancoding.com/sketch -->
    <title>1x/Norton/Color</title>
    <desc>Created with Sketch Beta.</desc>
    <defs></defs>
    <g id="Logos" stroke="none" stroke-width="1" fill="none" fill-rule="evenodd">
        <g id="1x/Norton/Color" fill-rule="nonzero">
            <g id="Group-33">
                <path d="M13.0877697,5.79517548 C6.90434818,5.79517548 1.87350395,10.8979028 1.87350395,17.1704263 C1.87350395,23.4427175 6.90434818,28.5459096 13.0877697,28.5459096 L59.8305977,28.5459096 C66.0135611,28.5459096 71.0446344,23.4427175 71.0446344,17.1704263 C71.0446344,10.8979028 66.0135611,5.79517548 59.8305977,5.79517548 L13.0877697,5.79517548 Z M59.8305977,29.5149701 L13.0877697,29.5149701 C6.37753422,29.5149701 0.918367347,23.9768509 0.918367347,17.1704263 C0.918367347,10.3640019 6.37753422,4.82634731 13.0877697,4.82634731 L59.8305977,4.82634731 C66.5408332,4.82634731 72,10.3640019 72,17.1704263 C72,23.9768509 66.5408332,29.5149701 59.8305977,29.5149701 L59.8305977,29.5149701 Z" id="Fill-2" fill="#BFC0BF"></path>
                <path d="M54.3672317,15.4512622 C53.4306909,15.4512622 52.6706734,14.6843185 52.6706734,13.737575 C52.6706734,12.7898999 53.4306909,12.0227233 54.3672317,12.0227233 C55.3037725,12.0227233 56.0640204,12.7898999 56.0640204,13.737575 C56.0640204,14.6843185 55.3037725,15.4512622 54.3672317,15.4512622 M54.3672317,10.3952096 C52.5416225,10.3952096 51.0612245,11.8915999 51.0612245,13.737575 C51.0612245,15.5826185 52.5416225,17.0778443 54.3672317,17.0778443 C56.1939932,17.0778443 57.6734694,15.5826185 57.6734694,13.737575 C57.6734694,11.8915999 56.1939932,10.3952096 54.3672317,10.3952096" id="Fill-3" fill="#1A1918"></path>
                <path d="M39.305316,15.4512622 C38.3698275,15.4512622 37.6101463,14.6843185 37.6101463,13.737575 C37.6101463,12.7898999 38.3698275,12.0227233 39.305316,12.0227233 C40.2428783,12.0227233 41.0018682,12.7898999 41.0018682,13.737575 C41.0018682,14.6843185 40.2428783,15.4512622 39.305316,15.4512622 M39.305316,10.3952096 C37.4799613,10.3952096 36,11.8915999 36,13.737575 C36,15.5826185 37.4799613,17.0778443 39.305316,17.0778443 C41.1318228,17.0778443 42.6122449,15.5826185 42.6122449,13.737575 C42.6122449,11.8915999 41.1318228,10.3952096 39.305316,10.3952096" id="Fill-4" fill="#1A1918"></path>
                <path d="M51.1991232,15.5074705 C50.9812075,15.570276 50.6477267,15.6321298 50.5208695,15.6321298 C49.9317522,15.6321298 49.8034535,15.4311048 49.8034535,14.8727551 L49.8034535,11.7193988 L51.212818,11.7193988 L51.212818,10.4016742 L49.8034535,10.4016742 L49.8034535,8.53892216 L48.2177381,8.53892216 L47.8844977,10.4016742 L46.7797826,10.4016742 L46.7797826,10.4026258 L46.6899254,10.4026258 C45.7865482,10.4069081 45.1051712,10.9526492 44.6681384,11.8074216 L44.1167419,10.4016742 L42.9795918,10.4016742 L42.9795918,16.9510439 L44.9230542,16.9510439 L44.9230542,14.1014853 C44.9230542,12.6652868 45.7800612,11.7477088 46.79588,11.7193988 L47.8590301,11.7193988 L47.8590301,14.9752897 C47.8590301,16.5078374 48.6523682,17.0778443 49.9442457,17.0778443 C50.6109669,17.0778443 51.1219998,16.9384352 51.4285714,16.8378038 L51.1991232,15.5074705" id="Fill-5" fill="#1A1918"></path>
                <polyline id="Fill-6" fill="#1A1918" points="60.0612245 12.5094758 60.0612245 17.0778443 58.2244898 17.0778443 58.2244898 10.3952096 59.3392831 10.3952096 59.7127494 11.4159317"></polyline>
                <path d="M59.6938776,11.5515184 C60.3031431,10.893549 61.1366469,10.3952096 62.1131025,10.3952096 C63.7826581,10.3952096 64.4693878,11.634061 64.4693878,12.7830169 L64.4693878,17.0778443 L62.4058863,17.0778443 L62.4058863,12.8382825 C62.4058863,12.2785105 61.9054273,11.974668 61.362414,11.974668 C60.7844909,11.974668 60.4129689,12.2827799 60.0865493,12.6117646" id="Fill-7" fill="#1A1918"></path>
                <polyline id="Fill-8" fill="#1A1918" points="29.0204082 8.53892216 31.0857895 8.53892216 33.9219655 13.9072856 33.9219655 8.53892216 35.6326531 8.53892216 35.6326531 17.0778443 33.7613452 17.0778443 30.731783 11.1750582 30.731783 17.0778443 29.0204082 17.0778443 29.0204082 8.53892216"></polyline>
                <polyline id="Fill-9" fill="#9E9F9E" points="69.244898 4.82634731 69.244898 5.14001037 68.9124236 5.14001037 68.9124236 6.68263473 68.6529108 6.68263473 68.6529108 5.14001037 68.3265306 5.14001037 68.3265306 4.82634731 69.244898 4.82634731"></polyline>
                <polyline id="Fill-10" fill="#9E9F9E" points="69.244898 6.68263473 69.244898 4.82634731 69.7930902 4.82634731 70.1573182 6.04184309 70.5276255 4.82634731 71.0816327 4.82634731 71.0816327 6.68263473 70.7475368 6.68263473 70.7475368 5.23057846 70.7380214 5.23057846 70.3135292 6.68263473 70.0167019 6.68263473 69.5882449 5.23057846 69.5789939 5.23057846 69.5789939 6.68263473 69.244898 6.68263473"></polyline>
                <path d="M28.4693878,25.1728401 L28.8795973,24.4897657 C29.2128515,24.7533714 29.7129519,24.9981984 30.3228948,24.9981984 C30.9157364,24.9981984 31.2816582,24.7106499 31.2816582,24.2113718 C31.2816582,23.636979 30.8192681,23.4848717 30.0593609,23.2017832 C29.3779438,22.9454542 28.7079275,22.5773921 28.7079275,21.5438607 C28.7079275,20.5753503 29.4213545,20.0479042 30.380995,20.0479042 C31.0190013,20.0479042 31.4890651,20.1824065 31.8677032,20.4211304 L31.5394917,21.1478652 C31.221804,20.971111 30.8422889,20.8511621 30.3963423,20.8511621 C29.8616009,20.8511621 29.541063,21.0671169 29.541063,21.5210915 C29.541063,22.0544059 29.9126852,22.1898472 30.6116419,22.4358478 C31.3406355,22.6888905 32.1428571,23.0499106 32.1428571,24.1949404 C32.1428571,25.1636855 31.496081,25.8023952 30.3356111,25.8023952 C29.4744121,25.8023952 28.841887,25.4840966 28.4693878,25.1728401" id="Fill-11" fill="#9E9F9E"></path>
                <polyline id="Fill-12" fill="#9E9F9E" points="33.6734694 20.0479042 37.193919 20.0479042 37.193919 20.8434426 34.6753021 20.8434426 34.6753021 22.4142324 36.6643114 22.4142324 36.6643114 23.1926235 34.6753021 23.1926235 34.6753021 25.0080644 37.3469388 25.0080644 37.3469388 25.8023952 33.6734694 25.8023952 33.6734694 20.0479042"></polyline>
                <path d="M38.877551,22.9365371 C38.877551,21.3040356 39.5807701,20.0479042 40.9844621,20.0479042 C41.6131134,20.0479042 42.1099506,20.2690772 42.4597646,20.721989 L41.9629274,21.3608551 C41.6625436,21.0340261 41.4077878,20.8738987 40.998404,20.8738987 C40.1743555,20.8738987 39.7939116,21.6233514 39.7939116,23.0079135 C39.7939116,24.3074813 40.1954795,24.9660699 41.0057974,24.9660699 C41.4559505,24.9660699 41.7721774,24.7033389 42.0495359,24.3767447 L42.5510204,24.9980015 C42.1862084,25.4767402 41.7295068,25.8023952 40.998404,25.8023952 C39.5509852,25.8023952 38.877551,24.5760822 38.877551,22.9365371" id="Fill-13" fill="#9E9F9E"></path>
                <path d="M44.0816327,23.5539959 L44.0816327,20.0479042 L44.9749951,20.0479042 L44.9749951,23.7103731 C44.9749951,24.4913058 45.1532718,25.0023923 45.9132015,25.0023923 C46.6663166,25.0023923 46.8529467,24.4913058 46.8529467,23.7103731 L46.8529467,20.0479042 L47.755102,20.0479042 L47.755102,23.5539959 C47.755102,24.9613909 47.2556632,25.8023952 45.9063869,25.8023952 C44.5793129,25.8023952 44.0816327,24.9613909 44.0816327,23.5539959" id="Fill-14" fill="#9E9F9E"></path>
                <path d="M50.9552144,22.6103925 C51.6164915,22.6103925 51.9566518,22.3732681 51.9566518,21.7087404 C51.9566518,21.0698086 51.6097057,20.8421017 51.0070921,20.8421017 L50.1687303,20.8421017 L50.1687303,22.6103925 L50.9552144,22.6103925 Z M52.9591837,25.8023952 L51.9943015,25.8023952 L50.992864,23.3620911 L50.1687303,23.3620911 L50.1687303,25.8023952 L49.2857143,25.8023952 L49.2857143,20.0479042 L50.9871729,20.0479042 C52.040488,20.0479042 52.8628705,20.4646828 52.8628705,21.7256434 C52.8628705,22.5860039 52.3953142,23.0177537 51.8747857,23.223004 L52.9591837,25.8023952 L52.9591837,25.8023952 Z" id="Fill-15" fill="#9E9F9E"></path>
                <polyline id="Fill-16" fill="#9E9F9E" points="54.4897959 20.0479042 58.0123791 20.0479042 58.0123791 20.8434426 55.4913123 20.8434426 55.4913123 22.4142324 57.4791817 22.4142324 57.4791817 23.1926235 55.4913123 23.1926235 55.4913123 25.0080644 58.1632653 25.0080644 58.1632653 25.8023952 54.4897959 25.8023952 54.4897959 20.0479042"></polyline>
                <path d="M61.0774282,24.9701684 C62.4241811,24.9701684 62.8846383,24.331744 62.8846383,22.8039523 C62.8846383,21.4634351 62.5231963,20.6802645 61.1989579,20.6802645 L60.6745887,20.6802645 L60.6745887,24.9701684 L61.0774282,24.9701684 Z M59.6938776,19.8622754 L61.1340775,19.8622754 C63.0146413,19.8622754 63.9183673,20.9080778 63.9183673,22.8039523 C63.9183673,24.7356401 62.9986632,25.7891524 61.1839483,25.7891524 L59.6938776,25.7891524 L59.6938776,19.8622754 L59.6938776,19.8622754 Z" id="Fill-17" fill="#9E9F9E"></path>
                <path d="M13.1035804,8.15122752 C10.7120724,8.15122752 8.46250518,9.10879116 6.76858702,10.8468701 C5.07672598,12.5858884 4.14485386,14.8969088 4.14485386,17.3537475 C4.14485386,19.8101167 5.07672598,22.1211371 6.76858702,23.8613295 C8.46136234,25.5982344 10.7109295,26.555798 13.1035804,26.5567372 C15.4948598,26.555798 17.744427,25.5982344 19.4383451,23.8601554 C21.1281491,22.1211371 22.0602498,19.8101167 22.061164,17.3537475 C22.0602498,14.8969088 21.1281491,12.5858884 19.4374309,10.8459309 C17.7435127,9.10879116 15.4939456,8.15122752 13.1035804,8.15122752 M13.1035804,30.8150542 C5.879,30.8150542 0,24.7754528 0,17.3537475 C0,9.93180749 5.879,3.89338015 13.1035804,3.89338015 C20.3272465,3.89338015 26.2048751,9.93180749 26.2060179,17.3537475 C26.2048751,24.7754528 20.3272465,30.8150542 13.1035804,30.8150542" id="Fill-19" fill="#F6BC25"></path>
                <polygon id="Fill-21" fill="#F6BC25" points="27 2.78443114 27.9183673 2.78443114 27.9183673 1.85628743 27 1.85628743"></polygon>
                <polygon id="Fill-22" fill="#F6BC25" points="27 0.928143713 27.9183673 0.928143713 27.9183673 0 27 0"></polygon>
                <polygon id="Fill-23" fill="#F6BC25" points="24.244898 3.71257485 25.1632653 3.71257485 25.1632653 2.78443114 24.244898 2.78443114"></polygon>
                <polygon id="Fill-24" fill="#1A1918" points="22.4081633 5.75449102 23.3265306 5.75449102 23.3265306 4.82634731 22.4081633 4.82634731"></polygon>
                <polygon id="Fill-25" fill="#1A1918" points="25.1632653 4.64071856 26.0816327 4.64071856 26.0816327 3.71257485 25.1632653 3.71257485"></polygon>
                <polygon id="Fill-26" fill="#1A1918" points="21.6734694 4.64071856 22.5918367 4.64071856 22.5918367 3.71257485 21.6734694 3.71257485"></polygon>
                <polygon id="Fill-27" fill="#1A1918" points="24.244898 5.75449102 25.1632653 5.75449102 25.1632653 4.82634731 24.244898 4.82634731"></polygon>
                <polygon id="Fill-28" fill="#1A1918" points="26.0816327 1.85628743 27 1.85628743 27 0.928143713 26.0816327 0.928143713"></polygon>
                <polygon id="Fill-29" fill="#1A1918" points="24.244898 2.78443114 26.0816327 2.78443114 26.0816327 1.85628743 24.244898 1.85628743"></polygon>
                <polygon id="Fill-30" fill="#1A1918" points="23.3265306 4.64071856 24.244898 4.64071856 24.244898 2.78443114 23.3265306 2.78443114"></polygon>
                <path d="M23.3376891,5.75449102 L23.3376891,6.73855063 L22.3978886,6.73855063 L22.3978886,5.75449102 L20.8388467,5.75449102 L20.8388467,6.46340701 L20.003295,6.46340701 L20.003295,7.33797069 L20.9361753,7.33797069 L20.9361753,8.31267168 L20.003295,8.31267168 L20.003295,7.33797069 L19.0114818,7.33797069 L19.0114818,8.86693636 L18.0736904,8.86693636 L18.0736904,9.84257323 L17.451547,9.84257323 L17.451547,10.8224214 L16.7671223,10.8224214 C15.9985395,12.0205597 14.071837,15.7553537 13.4900983,17.2758966 C11.3903921,14.2139878 9.76058617,13.0004079 8.47678747,12.5614883 C7.78477288,12.3429643 6.95033723,13.1333004 8.1001976,14.376828 C10.741461,17.4211892 11.5732179,19.9419355 12.376178,21.9528704 C12.8009857,23.0132028 14.7049188,23.1781486 15.0873126,22.098163 C15.9003182,19.8162959 17.0789752,17.2522661 18.4748357,15.1463411 L18.4748357,14.0553591 L19.2199791,14.0553591 L19.2199791,13.0712995 L20.003295,13.0712995 L20.003295,11.9309508 L20.9390773,11.9309508 L20.9390773,10.8315461 L19.9925799,10.8315461 L19.9925799,9.83227873 L20.9390773,9.83227873 L20.9390773,10.8315461 L21.8650374,10.8315461 L21.8632516,9.84257323 L22.6052698,9.84257323 L22.6052698,8.64864639 L23.4408216,8.64864639 L23.4408216,7.82742687 L24.244898,7.82742687 L24.244898,5.75449102 L23.3376891,5.75449102" id="Fill-31" fill="#1A1918"></path>
            </g>
        </g>
    </g>
</svg>