<?xml version="1.0" encoding="UTF-8"?>
<svg width="42px" height="40px" viewBox="0 0 42 40" version="1.1" xmlns="http://www.w3.org/2000/svg" xmlns:xlink="http://www.w3.org/1999/xlink">
    <!-- Generator: Sketch 47 (45396) - http://www.bohemiancoding.com/sketch -->
    <title>Content / Pawprint</title>
    <desc>Created with Sketch.</desc>
    <defs></defs>
    <g id="Content" stroke="none" stroke-width="1" fill="none" fill-rule="evenodd">
        <g id="Content-/-Pawprint" fill="#2B2727">
            <g id="Group-21">
                <path d="M21.0027825,17.1374898 C15.6224408,17.1374898 10.9874867,20.4911778 8.6039513,26.1077112 C6.71960567,30.5519331 6.86197543,35.1625516 8.94896789,37.3218778 C10.0588344,38.4703477 11.3423858,39.0542182 12.7634892,39.0542182 C14.8070666,39.0542182 16.6720796,37.8599181 18.3175776,36.8055789 C19.304407,36.1734695 20.4190294,35.4592736 21.0005527,35.4592736 C21.5940833,35.4592736 22.7377109,36.1709989 23.7438111,36.7983523 C25.4061711,37.8334206 27.2905167,39.0083881 29.3147615,39.0083881 C30.7189412,39.0083881 31.978404,38.4413982 33.0520758,37.3194689 C35.1897223,35.0949182 35.3465452,30.409131 33.438111,25.9292703 C31.0953409,20.4234209 26.4462424,17.1375515 21.0028381,17.1375515 L21.0027825,17.1374898 Z M31.2015222,35.5393219 C30.6152305,36.1521542 30.0168575,36.4368381 29.3195854,36.4368381 C28.0312163,36.4368381 26.4773785,35.4693414 25.1069846,34.6152464 C23.6786546,33.7273656 22.3299404,32.8853148 21.0029678,32.8853148 C19.6687068,32.8853148 18.3393253,33.737001 16.9327367,34.639335 C15.5840226,35.5030655 14.0543352,36.4826682 12.7635572,36.4826682 C12.0469524,36.4826682 11.4244785,36.181079 10.7995957,35.536913 C9.63667251,34.3353863 9.38571879,30.8562523 10.9708964,27.113935 C11.7067721,25.3767768 14.6068534,19.7119427 21.0003983,19.7119427 C27.3122273,19.7119427 30.1472694,24.7665943 31.0737538,26.9403736 C32.6902837,30.723518 32.4055442,34.2824532 31.2016272,35.5393836 L31.2015222,35.5393219 Z" id="Fill-1"></path>
                <path d="M15.6273203,15.0627825 C15.883067,15.0627825 16.1364049,15.0362418 16.3873463,14.9855755 C19.2054028,14.4113467 20.8315682,10.7995339 20.088466,6.76333573 C19.4177531,3.12015222 17.0411972,0.475595298 14.4378997,0.475595298 C14.1845618,0.475595298 13.9288151,0.502135986 13.6802826,0.552802327 C10.862226,1.12703115 9.23606068,4.7388439 9.97916289,8.77504207 C10.6474669,12.4182256 13.0240228,15.0627825 15.6273203,15.0627825 Z M14.1941725,3.07160444 C14.2737946,3.05471772 14.3582344,3.04747878 14.4378565,3.04747878 C15.5694027,3.04747878 17.0846369,4.64708489 17.5599234,7.22870264 C18.0714169,10.0081557 17.0822034,12.2181914 15.8734131,12.4643274 C15.793791,12.4812142 15.7093512,12.4884531 15.6297292,12.4884531 C14.4981829,12.4884531 12.9829487,10.888847 12.5076622,8.30722924 C11.9961687,5.53018506 12.9853822,3.31774044 14.1941725,3.07160444 Z" id="Fill-2"></path>
                <path d="M9.37108034,13.5834958 C8.08512006,11.716074 6.15494434,10.5555597 4.33335258,10.5555597 C3.45510719,10.5555597 2.63961567,10.8233693 1.97131163,11.3324477 C-0.12291359,12.9296449 -0.231497555,16.4112496 1.72762771,19.2557418 C3.01358799,21.1231637 4.94376371,22.283678 6.76535546,22.283678 C7.64360086,22.283678 8.45909238,22.0158684 9.12498756,21.50679 C11.2216216,19.9095927 11.3302056,16.4303969 9.37108651,13.5834958 L9.37108034,13.5834958 Z M7.56875945,19.4632743 C7.34920119,19.6297512 7.08139163,19.7141972 6.76772109,19.7141972 C5.79540665,19.7141972 4.64934551,18.9613978 3.84830715,17.7984746 C2.60817697,15.9985626 2.68779285,14.0225568 3.5322401,13.3784031 C3.75179836,13.2119262 4.01960793,13.1274802 4.33327847,13.1274802 C5.3055929,13.1274802 6.45165404,13.8802796 7.25269241,15.0432028 C8.49282259,16.8431148 8.4132067,18.8167118 7.56875945,19.4632743 Z" id="Fill-3"></path>
                <path d="M25.6135862,14.9855755 C25.862094,15.0362418 26.117847,15.0627825 26.3736122,15.0627825 C28.9769097,15.0627825 31.3534656,12.4184726 32.0241785,8.77504207 C32.7648718,4.73853507 31.1387065,1.12660497 28.32065,0.552802327 C28.0721422,0.502135986 27.8163892,0.475595298 27.5630328,0.475595298 C24.9597354,0.475595298 22.5831795,3.11990515 21.9124666,6.76333573 C21.1693644,10.7998427 22.7931208,14.4093022 25.6135862,14.9855755 Z M24.4410277,7.22843087 C24.9163327,4.64681312 26.4315484,3.04720702 27.5606857,3.04720702 C27.6427167,3.04720702 27.7247476,3.05686098 27.8043697,3.07133267 C29.0131229,3.31743162 30.0023611,5.52991329 29.4932889,8.30695747 C29.0179839,10.8885752 27.5027681,12.4881813 26.3712219,12.4881813 C26.289191,12.4881813 26.2071601,12.4785335 26.127538,12.4640557 C24.9187847,12.2179567 23.9295465,10.0078839 24.4410277,7.22843087 Z" id="Fill-4"></path>
                <path d="M40.027212,11.3327565 C39.3613169,10.8236719 38.5434165,10.5558685 37.6675799,10.5558685 C35.8459882,10.5558685 33.9158125,11.7163828 32.6298522,13.5838047 C30.6707084,16.4284204 30.7768835,19.9098398 32.8735361,21.5070988 C33.5394313,22.0161834 34.3573317,22.2839868 35.2331682,22.2839868 C37.05476,22.2839868 38.9849357,21.1234725 40.2733666,19.2536418 C42.2301015,16.4114349 42.1239264,12.9300773 40.0272676,11.3328183 L40.027212,11.3327565 Z M38.1549725,17.796529 C37.3539341,18.9594521 36.2079347,19.7122515 35.2331497,19.7122515 C34.9194977,19.7122515 34.6516819,19.6278056 34.4321113,19.4613287 C33.5852429,18.8171133 33.5080358,16.8435163 34.7481784,15.0412572 C35.5492167,13.878334 36.6952161,13.1255346 37.6675923,13.1255346 C37.9812443,13.1255346 38.2490601,13.2099806 38.4686307,13.3764575 C39.3154991,14.0230818 39.3927062,15.9966787 38.1549787,17.796529 L38.1549725,17.796529 Z" id="Fill-5"></path>
            </g>
        </g>
    </g>
</svg>
