<?xml version="1.0" encoding="UTF-8"?>
<svg width="19px" height="19px" viewBox="0 0 19 19" version="1.1" xmlns="http://www.w3.org/2000/svg" xmlns:xlink="http://www.w3.org/1999/xlink">
    <!-- Generator: Sketch 44.1 (41455) - http://www.bohemiancoding.com/sketch -->
    <title>edit</title>
    <desc>Created with Sketch.</desc>
    <defs></defs>
    <g id="Mobile-Hamburger-Menu" stroke="none" stroke-width="1" fill="none" fill-rule="evenodd">
        <g id="Artboard" transform="translate(-572.000000, -349.000000)" fill="#4D4D4D">
            <g id="Group-2" transform="translate(572.000000, 289.000000)">
                <g id="Group-Copy-2" transform="translate(0.000000, 54.000000)">
                    <path d="M18.9208999,23.8520793 C19.059442,24.2083305 19.0198586,24.4656231 18.762566,24.7229157 C18.5844404,24.9010413 18.4063147,25 18.1688139,25 C18.0500635,25 17.9511048,24.9802083 17.8521461,24.9406248 C15.6552634,24.1687471 13.3792137,23.4166611 11.1229558,22.6843669 C10.9844136,22.6249916 10.8656632,22.5458247 10.7469128,22.446866 L0.277084308,11.9176623 C-0.0395834725,11.6207863 -0.0989586813,11.1259929 0.138542154,10.7499499 C0.732294242,9.79994655 1.40521327,8.94890189 2.17709099,8.21660765 C2.96876044,7.42493819 3.87918031,6.75201916 4.86876712,6.13847534 C5.24481011,5.92076624 5.71981178,5.96034971 6.03647956,6.27701749 L16.506308,16.8062212 C16.6250585,16.9051799 16.7042254,17.043722 16.7438089,17.1822642 C17.4761031,19.4385221 18.1688139,21.6551966 18.9208999,23.8520793 Z M14.4677592,21.8531139 L15.8729725,20.4479007 C15.5760964,19.5770643 15.2792204,18.7062279 15.0021361,17.8353915 L5.22501837,7.93952334 C4.88855886,8.19681591 4.55209934,8.53327543 4.21563982,8.81035973 L13.6760898,18.2708097 C14.032341,18.6468527 14.0125493,19.1614378 13.6365063,19.5374808 C13.4583807,19.7156064 13.280255,19.8145651 13.0427542,19.8145651 C12.8052534,19.8145651 12.5677525,19.7551899 12.3698352,19.5572725 L2.86980176,10.0374474 C2.53334224,10.3936986 2.2364662,10.7895334 1.97917363,11.1655763 L11.7562913,20.9822775 C12.607336,21.2593618 13.5969228,21.5562379 14.4677592,21.8531139 Z" id="edit"></path>
                </g>
            </g>
        </g>
    </g>
</svg>
