<?xml version="1.0" encoding="UTF-8"?>
<svg width="92px" height="91px" viewBox="0 0 92 91" version="1.1" xmlns="http://www.w3.org/2000/svg" xmlns:xlink="http://www.w3.org/1999/xlink">
    <!-- Generator: Sketch 43.2 (39069) - http://www.bohemiancoding.com/sketch -->
    <title>Page 1</title>
    <desc>Created with Sketch.</desc>
    <defs></defs>
    <g id="Page-1" stroke="none" stroke-width="1" fill="none" fill-rule="evenodd">
        <g transform="translate(0.000000, 0.000000)" fill="#00A4A5">
            <path d="M77.625,89.275 C77.625,88.322662 76.852338,87.55 75.9,87.55 L16.5577,87.55 C15.6053505,87.55 14.8327,88.322662 14.8327,89.275 C14.8327,90.227338 15.6053505,91 16.5577,91 L75.9,91 C76.852338,91 77.625,90.227338 77.625,89.275 Z" id="Fill-1"></path>
            <path d="M91.5423,48.10385 L91.5423,47.9645965 L91.5423,47.8388095 C91.5198405,47.775916 91.497381,47.7085375 91.470425,47.645644 L80.123145,22.758494 C82.54447,22.2194315 84.88932,21.356874 87.090535,20.206874 C87.9440535,19.7846055 88.29447,18.746949 87.8721785,17.893419 C87.44991,17.0399005 86.4167385,16.689484 85.5587235,17.1117755 C82.0278785,18.8592005 79.6244935,19.5734655 77.6929535,19.5824355 L77.441391,19.5824355 C74.993156,19.5240385 73.299551,18.3066255 70.977126,16.6176205 C67.275506,13.9492755 62.365581,10.3958905 51.750276,9.4885405 C52.8373825,7.5434305 52.814923,5.1670705 51.6873825,3.2443855 C50.559842,1.3217005 48.4979725,0.1447905 46.2698475,0.1447905 C44.0417225,0.1447905 41.9797725,1.3217005 40.8523125,3.2443855 C39.7292685,5.1670705 39.7023125,7.5434305 40.789419,9.4885405 C30.129494,10.4094375 25.219569,13.9492755 21.513119,16.6310755 C19.213119,18.3201955 17.488119,19.5419555 15.039884,19.5958905 L14.7883215,19.5958905 C12.8566665,19.5958905 10.4533965,18.872644 6.9225515,17.1252305 C6.069033,16.702962 5.0358615,17.048859 4.6135815,17.906874 C4.191313,18.7603925 4.5372215,19.793564 5.395225,20.215844 C7.59644,21.370329 9.936805,22.228344 12.362615,22.771949 L1.04684845,47.609649 C1.0198959,47.6725425 0.99743525,47.739921 0.97946535,47.807311 L0.97946535,47.933098 L0.97946535,48.0723515 C0.97497345,48.13973 0.97497345,48.20712 0.97946535,48.278995 C0.86716095,52.056975 2.2956415,55.718115 4.9281065,58.43131 C7.5650565,61.14462 11.1857165,62.671935 14.9681815,62.671935 C18.7506465,62.671935 22.3713065,61.14462 25.0037715,58.43131 C27.6407215,55.718 29.0646515,52.05686 28.9568965,48.278995 C28.9613815,48.20712 28.9613815,48.1397415 28.9568965,48.0723515 L28.9568965,47.933098 L28.9568965,47.807311 C28.938922,47.7399325 28.9164625,47.6725425 28.8895065,47.609649 L17.4119315,22.714449 C19.6310865,22.013662 21.6930365,20.895149 23.4943965,19.426139 C28.211248,15.693124 33.9386965,13.464999 39.9405465,13.029264 L39.9405465,70.300414 C34.8194815,70.457642 30.7450315,74.653394 30.7405465,79.774459 L30.7405465,80.924459 C30.7405465,81.8812935 31.5132085,82.649459 32.4655465,82.649459 L59.9850465,82.649459 C60.9373845,82.649459 61.7100465,81.8812935 61.7100465,80.924459 L61.7100465,79.774459 C61.7055615,74.653394 57.6311115,70.457619 52.5100465,70.300414 L52.5100465,13.020064 C58.525133,13.4468175 64.2745465,15.679439 69.0010465,19.425909 C70.802418,20.894804 72.864368,22.013409 75.083523,22.714219 L63.736243,47.609419 C63.709287,47.6723125 63.682331,47.739691 63.664368,47.807081 L63.664368,47.932868 L63.664368,48.0721215 C63.6598715,48.1395 63.6598715,48.20689 63.664368,48.278765 C63.879993,55.848065 70.083668,61.871765 77.6529565,61.871765 C85.2267415,61.871765 91.426518,55.84772 91.646168,48.278765 C91.6147155,48.2158715 91.578778,48.161971 91.5428405,48.103574 L91.5423,48.10385 Z M14.8832885,25.45 L24.4740585,46.6077 L5.3012585,46.6077 L14.8832885,25.45 Z M14.8832885,58.8 C9.7441685,58.768559 5.3778485,55.04456 4.5332885,49.977315 L25.3011385,49.977315 C24.4835575,55.09838 20.0677185,58.86739 14.8837485,58.86739 L14.8832885,58.8 Z M43.3998385,70.3 L43.3998385,12.8 C44.3072575,12.8 45.2416785,12.7326215 46.2298735,12.7326215 C47.2180685,12.7326215 48.1525585,12.7326215 49.0599085,12.8 L49.0599085,70.3 L43.3998385,70.3 Z M43.3998385,6.41635 C43.3998385,5.2708465 44.0916325,4.24216 45.1472635,3.80194 C46.2074255,3.3661935 47.4203535,3.6087745 48.2334035,4.417374 C49.0419915,5.225962 49.2800875,6.443329 48.844341,7.499029 C48.4085945,8.559191 47.375446,9.246454 46.229931,9.246454 C44.671106,9.246454 43.408866,7.988584 43.399896,6.429874 L43.3998385,6.41635 Z M58.2325385,79.24355 L34.2262885,79.2480465 C34.509292,76.1305115 37.1237135,73.7496665 40.2503335,73.7496665 L52.2218335,73.7496665 C55.3484535,73.7541515 57.9583785,76.1439665 58.2369085,79.2571315 L58.2325385,79.24355 Z M87.1573385,46.6077 L67.9753385,46.6077 L77.5661085,25.45 L87.1573385,46.6077 Z M77.5665685,58.8667 C72.43206,58.839744 68.0611285,55.115745 67.2165685,50.0485 L87.97523,50.0485 C87.126208,55.133685 82.72387,58.8667 77.56681,58.8667 L77.5665685,58.8667 Z" id="Fill-2"></path>
        </g>
    </g>
</svg>
