<?xml version="1.0" encoding="UTF-8"?>
<svg width="45px" height="45px" viewBox="0 0 45 45" version="1.1" xmlns="http://www.w3.org/2000/svg" xmlns:xlink="http://www.w3.org/1999/xlink">
    <!-- Generator: Sketch 47.1 (45422) - http://www.bohemiancoding.com/sketch -->
    <title>personal-liability copy</title>
    <desc>Created with Sketch.</desc>
    <defs></defs>
    <g id="Form-Flows/Comparison" stroke="none" stroke-width="1" fill="none" fill-rule="evenodd">
        <g id="personal-liability-copy" fill-rule="nonzero" fill="#2B2727">
            <path d="M37.96875,43.6671196 C37.96875,43.2013021 37.5908175,42.8233696 37.125,42.8233696 L8.098875,42.8233696 C7.63305187,42.8233696 7.255125,43.2013021 7.255125,43.6671196 C7.255125,44.1329371 7.63305187,44.5108696 8.098875,44.5108696 L37.125,44.5108696 C37.5908175,44.5108696 37.96875,44.1329371 37.96875,43.6671196 Z" id="Fill-1"></path>
            <path d="M44.776125,23.5290571 L44.776125,23.4609439 L44.776125,23.3994177 C44.7651394,23.3686546 44.7541538,23.3356977 44.7409688,23.3049346 L39.1906688,11.1318721 C40.3750125,10.8682002 41.52195,10.4462971 42.5986313,9.88379707 C43.0161131,9.67725269 43.1875125,9.16970332 42.9809569,8.75221582 C42.7744125,8.33473394 42.2690569,8.16333457 41.8493756,8.36989019 C40.1223319,9.22460894 38.9467631,9.57397769 38.0019881,9.57836519 L37.8789413,9.57836519 C36.681435,9.54980144 35.8530412,8.95432769 34.7170725,8.12818394 C32.9064975,6.82301519 30.5049038,5.08494644 25.312635,4.64113394 C25.8443719,3.68972144 25.8333863,2.52737144 25.2818719,1.58692769 C24.7303575,0.64648394 23.7218344,0.0708214402 22.6319906,0.0708214402 C21.5421469,0.0708214402 20.5335844,0.64648394 19.9821094,1.58692769 C19.4327944,2.52737144 19.4196094,3.68972144 19.9513463,4.64113394 C14.7372525,5.09157269 12.3356588,6.82301519 10.5227213,8.13476519 C9.39772125,8.96096519 8.55397125,9.55856519 7.356465,9.58494644 L7.23341813,9.58494644 C6.28858688,9.58494644 5.11307438,9.23118457 3.38603063,8.37647144 C2.96854875,8.16992707 2.46319313,8.33911582 2.25664313,8.75879707 C2.05009875,9.17627894 2.21929313,9.68163457 2.63896875,9.88818457 C3.71565,10.4528783 4.86039375,10.8725596 6.04693125,11.1384533 L0.512045437,23.2873283 C0.498862125,23.3180914 0.487875937,23.3510483 0.479086312,23.3840108 L0.479086312,23.4455371 L0.479086312,23.5136502 C0.476889187,23.5466071 0.476889187,23.5795696 0.479086312,23.6147258 C0.424154812,25.4626508 1.12286813,27.2534258 2.41048688,28.5805321 C3.70029937,29.9076946 5.47127438,30.6547508 7.32139313,30.6547508 C9.17151188,30.6547508 10.9424869,29.9076946 12.2301056,28.5805321 C13.5199181,27.2533696 14.2164056,25.4625946 14.1636994,23.6147258 C14.1658931,23.5795696 14.1658931,23.5466127 14.1636994,23.5136502 L14.1636994,23.4455371 L14.1636994,23.3840108 C14.1549075,23.3510539 14.1439219,23.3180914 14.1307369,23.2873283 L8.51670563,11.1103283 C9.60216188,10.7675521 10.6107244,10.2204533 11.4918244,9.50191582 C13.79898,7.67598457 16.6004494,6.58614082 19.5361369,6.37300957 L19.5361369,34.3860721 C17.0312681,34.4629771 15.0383306,36.5152471 15.0361369,39.0201158 L15.0361369,39.5826158 C15.0361369,40.0506327 15.4140694,40.4263658 15.8798869,40.4263658 L29.3405119,40.4263658 C29.8063294,40.4263658 30.1842619,40.0506327 30.1842619,39.5826158 L30.1842619,39.0201158 C30.1820681,36.5152471 28.1891306,34.4629658 25.6842619,34.3860721 L25.6842619,6.36850957 C28.6264238,6.57724769 31.4386369,7.66929082 33.7505119,9.50180332 C34.6316175,10.2202846 35.64018,10.7674283 36.7256363,11.1102158 L31.1753363,23.2872158 C31.1621513,23.3179789 31.1489663,23.3509358 31.14018,23.3838983 L31.14018,23.4454246 L31.14018,23.5135377 C31.1379806,23.5464946 31.1379806,23.5794571 31.14018,23.6146133 C31.2456488,27.3169883 34.280055,30.2633633 37.9824244,30.2633633 C41.6869931,30.2633633 44.7194925,27.3168196 44.82693,23.6146133 C44.8115456,23.5838502 44.7939675,23.5574858 44.7763894,23.5289221 L44.776125,23.5290571 Z M7.27986938,12.4483696 L11.9710069,22.7972446 L2.59300688,22.7972446 L7.27986938,12.4483696 Z M7.27986938,28.7608696 C4.76616938,28.7454908 2.63046937,26.9239696 2.21736938,24.4454258 L12.3755569,24.4454258 C11.9756531,26.9502946 9.81573188,28.7938321 7.28009437,28.7938321 L7.27986938,28.7608696 Z M21.2281819,34.3858696 L21.2281819,6.26086957 C21.6720281,6.26086957 22.1290819,6.22791269 22.6124381,6.22791269 C23.0957944,6.22791269 23.5528819,6.22791269 23.9966944,6.26086957 L23.9966944,34.3858696 L21.2281819,34.3858696 Z M21.2281819,3.13843207 C21.2281819,2.57813144 21.5665594,2.07496957 22.0829006,1.85964457 C22.6014581,1.64650769 23.1947381,1.76516144 23.5924256,2.16067207 C23.9879306,2.55617707 24.1043906,3.15162832 23.8912537,3.66800332 C23.6781169,4.18656082 23.1727725,4.52272207 22.6124662,4.52272207 C21.8499975,4.52272207 21.2325975,3.90745957 21.22821,3.14504707 L21.2281819,3.13843207 Z M28.4833069,38.7604321 L16.7411194,38.7626314 C16.879545,37.2377502 18.1583381,36.0732064 19.6876631,36.0732064 L25.5432881,36.0732064 C27.0726131,36.0754002 28.3492069,37.2443314 28.4854444,38.7670752 L28.4833069,38.7604321 Z M42.6313069,22.7972446 L33.2488069,22.7972446 L37.9399444,12.4483696 L42.6313069,22.7972446 Z M37.9401694,28.7934946 C35.428725,28.7803096 33.2907694,26.9587883 32.8776694,24.4802446 L43.0313625,24.4802446 C42.61608,26.9675633 40.4627625,28.7934946 37.9402875,28.7934946 L37.9401694,28.7934946 Z" id="Fill-2"></path>
        </g>
    </g>
</svg>