<?xml version="1.0" encoding="UTF-8"?>
<svg width="200px" height="200px" viewBox="0 0 200 200" version="1.1" xmlns="http://www.w3.org/2000/svg" xmlns:xlink="http://www.w3.org/1999/xlink">
    <!-- Generator: Sketch Beta 47 (45392) - http://www.bohemiancoding.com/sketch -->
    <title>3x/Pet/Color</title>
    <desc>Created with Sketch Beta.</desc>
    <defs></defs>
    <g id="Products" stroke="none" stroke-width="1" fill="none" fill-rule="evenodd">
        <g id="3x/Pet/Color">
            <g id="Pet" transform="translate(25.000000, 0.000000)">
                <rect id="Rectangle-Copy-4" x="0" y="0" width="150" height="200"></rect>
                <path d="M147.5,98.2 L79.5,46 C77.1,44.1 73.7,44.1 71.2,46 L3.2,98.2 C1.8,99.3 1.5,101.3 2.6,102.8 C3.7,104.2 5.7,104.5 7.2,103.4 L19.1,94.3 L19.1,130 C19.1,131.8 20.6,133.2 22.3,133.2 C24,133.2 25.5,131.7 25.5,130 L25.5,89.2 L75.2,51.1 C75.3,51 75.5,51 75.6,51.1 L125.3,89.2 L125.3,148.5 L93.3,148.5 L93.3,129 C93.3,119.1 85.3,111.1 75.4,111.1 C65.5,111.1 57.5,119.1 57.5,129 L57.5,148.5 L22.3,148.5 C20.5,148.5 19.1,150 19.1,151.7 C19.1,153.4 20.6,154.9 22.3,154.9 L128.5,154.9 C130.3,154.9 131.7,153.4 131.7,151.7 L131.7,94.1 L143.6,103.2 C145,104.3 147.1,104 148.2,102.6 C149.3,101.2 148.9,99.2 147.5,98.2 Z M63.9,129.1 C63.9,122.8 69,117.7 75.3,117.7 C81.6,117.7 86.7,122.8 86.7,129.1 L86.7,148.6 L63.9,148.6 L63.9,129.1 Z" id="Shape" fill="#2B2727" fill-rule="nonzero"></path>
                <path d="M52.7,112.3 C56.9,112.3 60.6,109.6 61.9,105.8 L88.8,105.8 C90.1,109.6 93.8,112.3 98,112.3 C103.4,112.3 107.8,107.9 107.8,102.5 C107.8,100 106.9,97.7 105.3,96 C106.9,94.3 107.8,92 107.8,89.5 C107.8,84.1 103.4,79.7 98,79.7 C93.8,79.7 90.1,82.4 88.8,86.2 L61.9,86.2 C60.6,82.4 56.9,79.7 52.7,79.7 C47.3,79.7 42.9,84.1 42.9,89.5 C42.9,92 43.8,94.3 45.4,96 C43.8,97.7 42.9,100 42.9,102.5 C42.9,107.9 47.3,112.3 52.7,112.3 Z M52.7,92.8 C50.9,92.8 49.4,91.3 49.4,89.5 C49.4,87.7 50.9,86.2 52.7,86.2 C54.5,86.2 56,87.7 56,89.5 C56,91.3 57.5,92.7 59.2,92.7 L91.4,92.7 C93.2,92.7 94.6,91.2 94.6,89.5 C94.6,87.7 96.1,86.2 97.9,86.2 C99.7,86.2 101.2,87.7 101.2,89.5 C101.2,91.3 99.7,92.8 97.9,92.8 C96.1,92.8 94.7,94.3 94.7,96 C94.7,97.7 96.2,99.2 97.9,99.2 C99.7,99.2 101.2,100.7 101.2,102.5 C101.2,104.3 99.7,105.8 97.9,105.8 C96.1,105.8 94.6,104.3 94.6,102.5 C94.6,100.7 93.1,99.3 91.4,99.3 L59.2,99.3 C57.4,99.3 56,100.8 56,102.5 C56,104.3 54.5,105.8 52.7,105.8 C50.9,105.8 49.4,104.3 49.4,102.5 C49.4,100.7 50.9,99.2 52.7,99.2 C54.5,99.2 55.9,97.7 55.9,96 C55.9,94.3 54.5,92.8 52.7,92.8 Z" id="Shape" fill="#FF700A" fill-rule="nonzero"></path>
            </g>
        </g>
    </g>
</svg>