<?xml version="1.0" encoding="UTF-8"?>
<svg width="26px" height="26px" viewBox="0 0 26 26" version="1.1" xmlns="http://www.w3.org/2000/svg" xmlns:xlink="http://www.w3.org/1999/xlink">
    <!-- Generator: Sketch Beta 47 (45392) - http://www.bohemiancoding.com/sketch -->
    <title>1x/Phone</title>
    <desc>Created with Sketch Beta.</desc>
    <defs></defs>
    <g id="Contact" stroke="none" stroke-width="1" fill="none" fill-rule="evenodd">
        <g id="1x/Phone" fill-rule="nonzero" fill="#2B2727">
            <g id="Phone-Icon" transform="translate(2.000000, 2.000000)">
                <path d="M21.2113511,15.4982045 C20.9170296,15.1811748 20.6120056,14.8802653 20.3123329,14.5901025 C20.1624965,14.4450211 20.0126602,14.2945663 19.8628238,14.1441116 L18.5571069,12.8330057 C18.0005719,12.2741737 17.3477134,11.9786375 16.6788011,11.9786375 C16.0045374,11.9786375 15.3570303,12.2741737 14.8004952,12.8330057 C14.6667128,12.9673403 14.527579,13.1016749 14.3937965,13.2360095 C14.0834212,13.5422925 13.7623433,13.8593222 13.451968,14.192472 C12.9007842,13.9238028 12.3388978,13.5530392 11.6860394,13.0371943 C10.8351829,12.3386543 10.1074063,11.6401143 9.45989911,10.8985872 C9.1120647,10.4955833 8.50201665,10.4525963 8.10066924,10.8072397 C7.69932184,11.1565097 7.65651145,11.7690755 8.00969716,12.1720794 C8.72677119,12.9995806 9.5348173,13.7787214 10.4766459,14.5471154 C10.4819972,14.5471154 10.4819972,14.5524888 10.4873485,14.5524888 C11.4345283,15.3047627 12.2318718,15.799114 13.0827283,16.1483841 C13.1041335,16.1591308 13.1255387,16.1645042 13.1469439,16.1698776 C13.3502933,16.2397316 13.9603413,16.4439202 14.5596868,15.8474745 C14.5703894,15.8367277 14.5864433,15.8206076 14.5971459,15.8098608 C14.9610342,15.3961102 15.3463277,15.0199733 15.7530264,14.6169694 C15.8921602,14.4826348 16.0312939,14.3429268 16.1704277,14.2032188 C16.2988589,14.0742576 16.4968569,13.913056 16.6895037,13.913056 C16.8821504,13.913056 17.0747972,14.0688842 17.2085796,14.2032188 L18.5142965,15.5143247 C18.6694842,15.6701528 18.8300232,15.825981 18.9798595,15.9764357 C19.2795322,16.2665985 19.5577998,16.5460145 19.8253647,16.8308039 C19.830716,16.8415507 19.8414186,16.8469241 19.8467699,16.8522974 C20.0501193,17.0564861 20.2695225,17.3788892 19.8360673,17.8410002 L18.2039212,19.4798826 C17.8560868,19.8291526 17.4707933,20.0118477 16.9838251,20.0548347 C16.1543738,20.1246887 15.2714095,19.9634872 14.1208803,19.5336164 C12.2051154,18.8243296 10.4177816,17.7442793 8.48596275,16.1322639 C6.15279651,14.1709785 4.31730106,11.817436 3.02228677,9.13611701 C2.56207508,8.16353438 2.02159391,6.87392205 1.93062183,5.50370895 C1.88246014,4.74068832 2.08580949,4.19260308 2.57812898,3.73049199 C2.93666599,3.42958245 3.25239261,3.10180598 3.55206534,2.79014967 C3.74471209,2.58596105 3.92665625,2.39789258 4.119303,2.22057089 L4.1246543,2.2151975 C4.50459651,1.84980734 4.82032313,1.84443396 5.17350885,2.19907735 L7.81169911,4.84815601 C7.81705041,4.8535294 7.82240171,4.85890278 7.82775301,4.86427617 C7.94013028,4.97174386 8.07391275,5.13831879 8.07926405,5.32101387 C8.07926405,5.51445572 7.93477898,5.70252418 7.81705041,5.82611203 L6.17955301,7.47036775 C5.8049621,7.84650468 5.8049621,8.45907054 6.17955301,8.84058085 C6.55414392,9.21671778 7.16419197,9.21671778 7.54413418,8.84058085 L9.18163158,7.19632513 C9.73281535,6.6428665 10.0164342,5.99268695 10.0110829,5.30489371 C10.0057316,4.63322062 9.71676145,3.99916123 9.17628028,3.47794291 L6.54344132,0.834237635 C5.44107378,-0.272679615 3.94271015,-0.278053 2.80288352,0.818117481 C2.57812898,1.02767948 2.37477963,1.24261487 2.17143027,1.45217688 C1.88781144,1.74771304 1.62024651,2.02712904 1.33127638,2.26893135 C1.32057378,2.27967812 1.30987118,2.29042489 1.29381729,2.30117166 C0.357340012,3.15553983 -0.0707638842,4.27320385 0.00950559639,5.62729679 C0.121882869,7.32528636 0.747984818,8.84058085 1.28311469,9.96899164 L1.28311469,9.97436502 C2.70120885,12.9082331 4.70259456,15.476711 7.24446145,17.6153181 C9.34752184,19.3670415 11.3167998,20.5545595 13.4412654,21.3444471 C14.222555,21.6346098 15.3623816,22 16.6252881,22 C16.7911783,22 16.9624199,21.9946266 17.1336615,21.9785065 L17.1390128,21.9785065 C18.07549,21.8979057 18.8888874,21.5163954 19.5577998,20.8447223 L21.1952972,19.2004666 C21.2006485,19.1950932 21.2059998,19.1897198 21.2113511,19.1843464 C22.2655569,18.0828025 22.2602056,16.5675081 21.2113511,15.4982045 Z" id="Shape"></path>
            </g>
        </g>
    </g>
</svg>