<?xml version="1.0" encoding="UTF-8"?>
<svg width="24px" height="24px" viewBox="0 0 24 24" version="1.1" xmlns="http://www.w3.org/2000/svg" xmlns:xlink="http://www.w3.org/1999/xlink">
    <!-- Generator: Sketch 47 (45396) - http://www.bohemiancoding.com/sketch -->
    <title>Phone Icon</title>
    <desc>Created with Sketch.</desc>
    <defs></defs>
    <g id="New-Grid" stroke="none" stroke-width="1" fill="none" fill-rule="evenodd">
        <g id="Phone-Icon" fill-rule="nonzero" fill="#000000">
            <path d="M23.1396557,16.9071322 C22.8185778,16.5612816 22.4858243,16.2330166 22.1589086,15.9164754 C21.9954508,15.7582048 21.8319929,15.5940724 21.6685351,15.4299399 L20.2441166,13.9996426 C19.6369875,13.3900076 18.9247783,13.0676046 18.1950557,13.0676046 C17.4594954,13.0676046 16.753124,13.3900076 16.1459948,13.9996426 C16.0000503,14.1461894 15.848268,14.2927363 15.7023235,14.4392831 C15.3637322,14.77341 15.0134654,15.1192605 14.6748741,15.4826967 C14.0735827,15.189603 13.4606158,14.7851337 12.7484066,14.2223938 C11.8201995,13.4603501 11.0262614,12.6983065 10.3198899,11.8893678 C9.94043422,11.4497273 9.27492725,11.4028323 8.83709372,11.789716 C8.39926019,12.1707378 8.35255795,12.8389915 8.73785145,13.278632 C9.52011403,14.1813607 10.4016189,15.0313324 11.4290682,15.8695804 C11.434906,15.8695804 11.434906,15.8754423 11.4407438,15.8754423 C12.4740309,16.6961047 13.3438602,17.2353971 14.2720673,17.616419 C14.2954184,17.6281427 14.3187695,17.6340046 14.3421206,17.6398665 C14.5639563,17.7160708 15.2294633,17.938822 15.8832947,17.288154 C15.8949702,17.2764303 15.9124836,17.2588446 15.9241591,17.2471209 C16.3211282,16.7957566 16.7414484,16.3854254 17.1851197,15.9457848 C17.336902,15.799238 17.4886843,15.6468292 17.6404666,15.4944205 C17.7805733,15.3537355 17.9965712,15.1778793 18.2067313,15.1778793 C18.4168914,15.1778793 18.6270515,15.3478736 18.772996,15.4944205 L20.1974144,16.9247178 C20.36671,17.0947122 20.5418434,17.2647065 20.7053013,17.428839 C21.032217,17.7453802 21.3357816,18.0501977 21.6276706,18.360877 C21.6335084,18.3726007 21.6451839,18.3784626 21.6510217,18.3843245 C21.8728574,18.6070757 22.1122064,18.9587882 21.6393462,19.4629093 L19.8588231,21.250781 C19.4793674,21.6318028 19.0590472,21.8311065 18.5278092,21.8780015 C17.6229532,21.9542059 16.6597195,21.7783497 15.4045967,21.3093997 C13.3146713,20.5356323 11.3648526,19.3573956 9.25741391,17.5988333 C6.71214165,15.4592493 4.70978297,12.8917483 3.29704011,9.9666731 C2.794991,8.90567387 2.20537518,7.49882405 2.10613291,6.00404612 C2.05359288,5.17165998 2.27542854,4.57374881 2.81250434,4.06962763 C3.20363562,3.74136267 3.54806467,3.38378834 3.87498037,3.04379964 C4.08514047,2.82104842 4.283625,2.61588282 4.4937851,2.42244097 L4.49962288,2.4165791 C4.91410528,2.01797165 5.25853433,2.01210977 5.64382784,2.39899347 L8.52185358,5.28889747 C8.52769136,5.29475934 8.53352914,5.30062122 8.53936692,5.30648309 C8.66196031,5.42372057 8.80790482,5.60543868 8.8137426,5.8047424 C8.8137426,6.01576987 8.65612253,6.22093547 8.52769136,6.35575858 L6.74133055,8.14949209 C6.33268592,8.55982329 6.33268592,9.22807695 6.74133055,9.64427002 C7.14997518,10.0546012 7.81548215,10.0546012 8.22996456,9.64427002 L10.0163254,7.8505365 C10.6176167,7.24676346 10.9270191,6.53747668 10.9211813,5.78715678 C10.9153435,5.0544225 10.6001034,4.36272134 10.0104876,3.79411954 L7.13829962,0.91007742 C5.93571686,-0.297468671 4.30113834,-0.303330545 3.05769111,0.892491797 C2.81250434,1.12110489 2.59066868,1.35557986 2.36883303,1.58419296 C2.05943066,1.90659604 1.76754164,2.2114135 1.4523015,2.47519784 C1.44062594,2.48692159 1.42895038,2.49864534 1.41143704,2.51036908 C0.389825468,3.44240709 -0.0771969646,4.66167692 0.0103697415,6.13886923 C0.13296313,7.99122149 0.815983438,9.64427002 1.39976148,10.8752636 L1.39976148,10.8811255 C2.94677329,14.0817088 5.13010316,16.8836847 7.90304885,19.2167106 C10.1972966,21.1276816 12.3455997,22.4231558 14.6631986,23.2848513 C15.5155145,23.6013926 16.7589617,24 18.1366779,24 C18.3176491,24 18.5044581,23.9941381 18.691267,23.9765525 L18.6971048,23.9765525 C19.7187164,23.8886244 20.606059,23.4724313 21.3357816,22.739697 L23.1221424,20.9459635 C23.1279802,20.9401017 23.1338179,20.9342398 23.1396557,20.9283779 C24.2896985,19.7266937 24.2838607,18.0736452 23.1396557,16.9071322 Z" id="Shape"></path>
        </g>
    </g>
</svg>