<?xml version="1.0" encoding="UTF-8"?>
<svg width="13px" height="13px" viewBox="0 0 13 13" version="1.1" xmlns="http://www.w3.org/2000/svg" xmlns:xlink="http://www.w3.org/1999/xlink">
    <!-- Generator: Sketch 43.1 (39012) - http://www.bohemiancoding.com/sketch -->
    <title>phone</title>
    <desc>Created with Sketch.</desc>
    <defs></defs>
    <g id="Symbols" stroke="none" stroke-width="1" fill="none" fill-rule="evenodd">
        <g id="Chat" transform="translate(-19.000000, -10.000000)" fill="#4D4D4D">
            <g id="phone">
                <path d="M26.4479429,19.113528 C26.298984,19.2624869 26.0823166,19.2895703 25.9062743,19.1812366 C25.3104389,18.8156103 24.7281451,18.355192 24.1864766,17.8135234 C23.644808,17.2853966 23.1979314,16.7031029 22.8323051,16.0937257 C22.7239714,15.9176834 22.7510549,15.701016 22.886472,15.5520571 L24.1729349,14.279136 C24.2677269,14.184344 24.3354354,14.0624686 24.3354354,13.9270514 C24.3354354,13.8322594 24.308352,13.7645509 24.2677269,13.6833006 L22.6156377,10.67704 C22.5343874,10.5280811 22.3989703,10.4332891 22.222928,10.4332891 C21.4916754,10.5009977 20.6656309,10.7447486 20.1916709,11.2187086 C18.5124983,12.8978811 19.5552103,16.6895611 22.4260537,19.5739463 C24.3489771,21.4968697 26.6510686,22.5666651 28.4792,22.5666651 C29.3729531,22.5666651 30.1583726,22.2958309 30.7135829,21.7406206 C31.2010846,21.2666606 31.512544,20.5218663 31.5667109,19.777072 C31.5667109,19.6010297 31.4719189,19.4520709 31.32296,19.3708206 L28.3166994,17.8541486 C28.3166994,17.8541486 28.1677406,17.7728983 28.0864903,17.7728983 C27.9375314,17.7728983 27.815656,17.8406069 27.7344057,17.9489406 L26.4479429,19.113528 Z"></path>
            </g>
        </g>
    </g>
</svg>