<?xml version="1.0" encoding="UTF-8"?>
<svg width="26px" height="26px" viewBox="0 0 26 26" version="1.1" xmlns="http://www.w3.org/2000/svg" xmlns:xlink="http://www.w3.org/1999/xlink">
    <!-- Generator: Sketch Beta 47 (45392) - http://www.bohemiancoding.com/sketch -->
    <title>1x/Pinterest</title>
    <desc>Created with Sketch Beta.</desc>
    <defs></defs>
    <g id="Social-Media" stroke="none" stroke-width="1" fill="none" fill-rule="evenodd">
        <g id="1x/Pinterest" fill-rule="nonzero">
            <g id="Pinterest-Logo">
                <path d="M12.969637,0 C20.1329932,0 25.939363,5.80717123 25.939363,12.969726 C25.939363,20.1330822 20.1329932,25.939363 12.969637,25.939363 C5.80628082,25.939363 0,20.1329932 0,12.969726 C0,5.80717123 5.80636986,0 12.969637,0 Z" id="Shape" fill="#2B2727"></path>
                <path d="M13.3620411,5.67913014 C8.79182877,5.67913014 6.4889589,8.85184247 6.4889589,11.4968082 C6.4889589,13.0985685 7.11473973,14.5235822 8.45872603,15.0545342 C8.67839041,15.1412603 8.8770411,15.0577397 8.94026027,14.8218699 L9.13641781,14.0736575 C9.20123973,13.8409932 9.17613014,13.758363 8.99858219,13.5549041 C8.61027397,13.1130822 8.36389726,12.5400137 8.36389726,11.7285822 C8.36389726,9.37540411 10.1821164,7.26860274 13.0986575,7.26860274 C15.6820959,7.26860274 17.1006096,8.79663699 17.1006096,10.8369247 C17.1006096,13.5216918 15.8733562,15.7881438 14.0511301,15.7881438 C13.0459452,15.7881438 12.2921233,14.9832123 12.5336918,13.9934315 C12.822274,12.8147945 13.3832329,11.5413288 13.3832329,10.6893836 C13.3832329,9.92826027 12.960911,9.29108219 12.0854589,9.29108219 C11.0567671,9.29108219 10.2308219,10.3213767 10.2308219,11.7017808 C10.2308219,12.5813288 10.5380137,13.1755 10.5380137,13.1755 L9.30025342,18.2506644 C8.93304795,19.7559932 9.24593836,21.6025274 9.27184932,21.7889795 C9.28805479,21.8992123 9.43399315,21.9251233 9.50041781,21.8424932 C9.59524658,21.7225548 10.8200959,20.2577397 11.2367192,18.7938151 C11.3550548,18.3795959 11.9136096,16.2338836 11.9136096,16.2338836 C12.2476027,16.852363 13.2243836,17.3955137 14.2627808,17.3955137 C17.3535753,17.3955137 19.4514726,14.666226 19.4514726,11.0135822 C19.4504932,8.2519726 17.0348973,5.67913014 13.3620411,5.67913014 Z" id="Shape" fill="#FFFFFF"></path>
            </g>
        </g>
    </g>
</svg>