<?xml version="1.0" encoding="UTF-8"?>
<svg width="22px" height="22px" viewBox="0 0 22 22" version="1.1" xmlns="http://www.w3.org/2000/svg" xmlns:xlink="http://www.w3.org/1999/xlink">
    <!-- Generator: Sketch 47.1 (45422) - http://www.bohemiancoding.com/sketch -->
    <title>Add</title>
    <desc>Created with Sketch.</desc>
    <defs></defs>
    <g id="Form-Flows/Comparison" stroke="none" stroke-width="1" fill="none" fill-rule="evenodd">
        <g id="Add" fill-rule="nonzero" fill="#000000">
            <path d="M18.0002364,3 C17.7482924,3 17.4838364,3.09880995 17.3057841,3.27710767 L10.9972612,9.59219843 L4.69075227,3.27710767 C4.47888443,3.06086989 4.24512185,3 4.00049581,3 C3.75586978,3 3.48208636,3.0524772 3.27928156,3.27710767 C3.07647677,3.50173814 3.00078352,3.71176113 3.00000538,3.997372 C2.99922724,4.28298286 3.08274767,4.50905141 3.27928156,4.68946372 L9.58955913,10.9989658 L3.27928156,17.3031424 C3.05639675,17.5260864 3.00000538,17.7124463 3.00000538,17.998637 C3.00000538,18.2246598 3.10421519,18.5262167 3.27928156,18.6921326 C3.45434793,18.8580484 3.67379883,18.998481 4.00049581,18.9999764 C4.32719279,19.0014719 4.47992221,18.9321379 4.71986388,18.6921326 L10.9972612,12.42113 C15.007773,16.4292656 17.1048567,18.5195998 17.2885125,18.6921326 C17.5639961,18.9509318 17.7921525,18.9999764 18.0002364,18.9999764 C18.2083204,18.9999764 18.4861736,18.9308512 18.7158797,18.6921326 C18.9455857,18.453414 18.9996741,18.2253006 18.9996741,17.998637 C18.9996741,17.7719733 18.9630946,17.5655483 18.7158797,17.3031424 C18.5510697,17.1282051 16.4476242,15.0268129 12.4055431,10.9989658 L18.7158797,4.68946372 C18.8935024,4.51073498 19.0008848,4.24938339 18.9999945,3.997372 C18.9991042,3.7453606 18.8947607,3.45457634 18.7158797,3.27710767 C18.5378274,3.09880995 18.2521805,3 18.0002364,3 Z" id="Shape" transform="translate(11.000000, 11.000000) rotate(-45.000000) translate(-11.000000, -11.000000) "></path>
        </g>
    </g>
</svg>
