<?xml version="1.0" encoding="UTF-8"?>
<svg width="12px" height="12px" viewBox="0 0 12 12" version="1.1" xmlns="http://www.w3.org/2000/svg" xmlns:xlink="http://www.w3.org/1999/xlink">
    <!-- Generator: Sketch 43.1 (39012) - http://www.bohemiancoding.com/sketch -->
    <title>Group 3 Copy 4</title>
    <desc>Created with Sketch.</desc>
    <defs></defs>
    <g id="Flow-1.5-(Calculator)" stroke="none" stroke-width="1" fill="none" fill-rule="evenodd">
        <g id="Fab-Five-|-Page-3-Copy-2" transform="translate(-1075.000000, -421.000000)">
            <g id="Group-11-Copy" transform="translate(937.000000, 414.000000)">
                <g id="Group-3-Copy-4" transform="translate(138.000000, 7.000000)">
                    <circle id="Oval" fill="#CCCCCC" cx="6" cy="6" r="6"></circle>
                    <path d="M6.17335849,7.61304151 L6.17335849,6.65090674 C7.31533154,6.40812507 8.09762803,5.79667493 8.09762803,4.59175849 C8.09762803,3.20700377 7.13549326,2.7664 6.09243127,2.7664 C4.73465229,2.7664 4.06925067,3.53970458 3.93437197,4.50183935 L4.91449057,4.6636938 C5.05836119,3.92635687 5.44501348,3.67458329 6.02948787,3.67458329 C6.59597844,3.67458329 7.00960647,3.93534879 7.00960647,4.63671806 C7.00960647,5.63482049 6.09243127,5.91356981 5.16626415,5.99449704 L5.16626415,7.61304151 L6.17335849,7.61304151 Z M6.33521294,8.80896604 C6.33521294,8.38634609 6.10142318,8.17054016 5.65182749,8.17054016 C5.20223181,8.17054016 4.96844205,8.38634609 4.96844205,8.80896604 C4.96844205,9.23158598 5.20223181,9.4384 5.65182749,9.4384 C6.10142318,9.4384 6.33521294,9.21360216 6.33521294,8.80896604 Z" id="?" fill="#FFFFFF"></path>
                </g>
            </g>
        </g>
    </g>
</svg>
