<svg xmlns="http://www.w3.org/2000/svg" width="14" height="14" viewBox="0 0 14 14">
    <g fill="none" fill-rule="evenodd" transform="translate(1 1)">
        <circle cx="6" cy="6" r="6" stroke="gray"/>
        <path fill="gray" fill-rule="nonzero" d="M5.378 7.138h1.04v-.06c0-1.379 1.637-.997 1.637-2.635 0-1.04-.814-1.776-2.001-1.776-1.084 0-1.76.52-2.054 1.282l1.074.46c.14-.39.451-.694.928-.694.502 0 .84.312.84.737 0 .979-1.464.658-1.464 2.625v.06zm.52 2.387c.442 0 .753-.32.753-.762S6.348 8 5.898 8c-.451 0-.763.32-.763.763 0 .441.312.762.763.762z"/>
    </g>
</svg>
