<?xml version="1.0" encoding="UTF-8"?>
<svg width="53px" height="37px" viewBox="0 0 53 37" version="1.1" xmlns="http://www.w3.org/2000/svg" xmlns:xlink="http://www.w3.org/1999/xlink">
    <!-- Generator: Sketch 43.2 (39069) - http://www.bohemiancoding.com/sketch -->
    <title>icon-link</title>
    <desc>Created with Sketch.</desc>
    <defs></defs>
    <g id="Page-1" stroke="none" stroke-width="1" fill="none" fill-rule="evenodd">
        <g id="quotes" fill-rule="nonzero" fill="#4D4D4D">
            <g id="icon-link">
                <g id="icon">
                    <path d="M23.39,13.6 C23.39,24.74 18.4766667,32.5033333 8.65,36.89 C8.43084584,36.9634925 8.20114772,37.0006495 7.97,37 C7.28584653,37.0398454 6.65313913,36.6368471 6.4,36 L3.76,30.49 C3.53644982,30.0521053 3.50741522,29.5403705 3.68,29.08 C3.83161534,28.6117169 4.16740632,28.2253767 4.61,28.01 C5.97621062,27.3469409 7.2530202,26.5136547 8.41,25.53 C9.3240513,24.7088884 10.0271644,23.6799423 10.46,22.53 C7.73041251,22.4788963 5.00597364,22.2718924 2.3,21.91 C1.49867991,21.8525574 0.845396435,21.2450454 0.73,20.45 C0.262367748,17.6437785 0.0182675183,14.8048594 -9.09042427e-13,11.96 C-0.0120999931,9.01768739 0.23215678,6.07991414 0.73,3.18 C0.826603691,2.36510231 1.48240342,1.73018793 2.3,1.66 C5.40960888,1.20923441 8.54789322,0.985309966 11.69,0.99 C14.8518976,0.989097178 18.0098588,1.21299495 21.14,1.66 C21.519433,1.73098185 21.868245,1.9158522 22.14,2.19 C22.4148541,2.45490579 22.5852293,2.80985415 22.62,3.19 C23.1858271,6.63018546 23.4435159,10.1140034 23.39,13.6 L23.39,13.6 Z M52.19,13.6 C52.19,24.74 47.2766667,32.5033333 37.45,36.89 C37.2341119,36.9627669 37.0078216,36.999919 36.78,37 C36.0922725,37.0442999 35.4542981,36.6405187 35.2,36 L32.56,30.49 C32.3243181,30.0452763 32.2915263,29.5206084 32.47,29.05 C32.6216153,28.5817169 32.9574063,28.1953767 33.4,27.98 C34.7662106,27.3169409 36.0430202,26.4836547 37.2,25.5 C38.1140513,24.6788884 38.8171644,23.6499423 39.25,22.5 C36.5204125,22.4488963 33.7959736,22.2418924 31.09,21.88 C30.2886799,21.8225574 29.6353964,21.2150454 29.52,20.42 C28.5452113,14.7045991 28.5452113,8.8654009 29.52,3.15 C29.6166037,2.33510231 30.2724034,1.70018793 31.09,1.63 C34.1996089,1.17923441 37.3378932,0.955309966 40.48,0.96 C43.6418953,0.95916464 46.7998516,1.18306208 49.93,1.63 C50.309433,1.70098185 50.658245,1.8858522 50.93,2.16 C51.2048541,2.42490579 51.3752293,2.77985415 51.41,3.16 C51.984308,6.60945767 52.2486963,10.1033993 52.2,13.6 L52.19,13.6 Z" id="Shape"></path>
                </g>
            </g>
        </g>
    </g>
</svg>