<?xml version="1.0" encoding="UTF-8"?>
<svg width="200px" height="200px" viewBox="0 0 200 200" version="1.1" xmlns="http://www.w3.org/2000/svg" xmlns:xlink="http://www.w3.org/1999/xlink">
    <!-- Generator: Sketch Beta 47 (45392) - http://www.bohemiancoding.com/sketch -->
    <title>3x/Renters/Color</title>
    <desc>Created with Sketch Beta.</desc>
    <defs></defs>
    <g id="Products" stroke="none" stroke-width="1" fill="none" fill-rule="evenodd">
        <g id="3x/Renters/Color">
            <g id="Renters" transform="translate(25.000000, 0.000000)">
                <rect id="Rectangle-Copy-2" x="0" y="0" width="150" height="200"></rect>
                <path d="M55.3,92.3 C49.2,92.3 44.2,87.3 44.2,81.2 C44.2,75.1 49.2,70.1 55.3,70.1 C61.4,70.1 66.4,75.1 66.4,81.2 C66.4,87.3 61.4,92.3 55.3,92.3 Z M55.3,76.5 C52.7,76.5 50.7,78.6 50.7,81.1 C50.7,83.6 52.8,85.7 55.3,85.7 C57.9,85.7 59.9,83.6 59.9,81.1 C59.9,78.6 57.8,76.5 55.3,76.5 Z" id="Shape" fill="#FF700A" fill-rule="nonzero"></path>
                <path d="M123,125.8 C123,125.8 85.6,88.5 83.5,86.4 C90.2,79.7 92.9,66.8 83.8,57.7 C74.2,48.1 61.2,52.4 57.9,55.7 C50.1,49.9 39,50.6 31.9,57.7 C28.1,61.5 26,66.5 26,71.9 C26,76.2 27.4,80.3 29.9,83.8 C24.1,91.7 24.7,102.8 31.8,109.9 C39.6,117.7 52.5,117.8 60.5,109.5 L67.2,116.2 C67.8,116.8 68.6,117.2 69.5,117.2 L76.9,117.2 L76.9,124.8 C76.9,126.6 78.4,128 80.1,128 L88.9,128 L88.9,133.8 C88.9,135.6 90.4,137 92.1,137 C93.8,137 95.3,135.5 95.3,133.8 L95.3,124.8 C95.3,123 93.8,121.6 92.1,121.6 L83.3,121.6 L83.3,114 C83.3,112.2 81.8,110.8 80.1,110.8 L71,110.8 L62.9,102.7 C61.7,101.5 59.7,101.4 58.4,102.6 C58.3,102.7 55.6,105.4 55.6,105.4 C50.3,110.7 41.8,110.7 36.5,105.4 C31,99.9 31.4,91.3 36.5,86.2 C38,84.7 37.4,82.5 36.5,81.6 C31.9,77 30.6,68.4 36.5,62.5 C41.8,57.2 50.4,57.2 55.7,62.6 C56.6,63.5 58.8,64 60.2,62.5 C63.9,58.8 72.5,55.8 79.3,62.5 C86.4,69.6 82.5,78.5 79.3,81.6 L76.6,84.3 C75.2,85.7 75.4,87.7 76.6,88.9 L117.4,129.6 L117.4,141.3 L104.4,141.3 C102.6,141.3 101.2,142.8 101.2,144.5 C101.2,146.2 102.7,147.7 104.4,147.7 L120.7,147.7 C122.5,147.7 123.9,146.2 123.9,144.5 L123.9,128.2 C124,127.3 123.6,126.4 123,125.8 Z" id="Shape" fill="#2B2727" fill-rule="nonzero"></path>
            </g>
        </g>
    </g>
</svg>