<?xml version="1.0" encoding="UTF-8"?>
<svg width="21px" height="22px" viewBox="0 0 21 22" version="1.1" xmlns="http://www.w3.org/2000/svg" xmlns:xlink="http://www.w3.org/1999/xlink">
    <!-- Generator: Sketch 47 (45396) - http://www.bohemiancoding.com/sketch -->
    <title>Content / Category / Renters</title>
    <desc>Created with Sketch.</desc>
    <defs></defs>
    <g id="Content" stroke="none" stroke-width="1" fill="none" fill-rule="evenodd">
        <g id="Content-/-Category-/-Renters" fill-rule="nonzero" fill="#2B2727">
            <g id="Group-3">
                <path d="M7.06177551,9.66877551 C8.36049388,10.9701204 10.2493061,11.2937 11.7935714,10.6439143 L12.1566163,10.8894612 L12.8388633,10.7947557 L12.2048592,11.6313394 L12.9853204,12.4135516 L14.4304735,12.3153373 L14.1533633,13.4132271 L14.8242061,14.1086292 L16.0097816,14.0560133 L15.7905539,14.9723806 L16.6411682,15.8256214 L17.5654376,15.4318888 L18.061762,15.8291235 L17.8197396,16.3771929 L17.8776153,16.4192847 L20.7757786,16.5911586 L20.9967618,15.5423647 L13.9304965,8.36048714 C14.5987129,6.8171198 14.2707333,5.07036469 12.9720373,3.77079327 C11.2857373,2.08186673 8.59448633,2.03889939 6.96603735,3.66468592 C5.32795776,5.29836551 5.37620061,7.98095122 7.06162061,9.66889 L7.06177551,9.66877551 Z M7.8089,6.32589796 C7.27048367,5.78835714 7.26520816,4.94036939 7.78522306,4.42211224 C8.30873327,3.90122857 9.15497,3.90823265 9.6907598,4.44666694 C10.2291761,4.98595878 10.2432067,5.8400751 9.72232755,6.36183429 C9.20144388,6.88184245 8.34470102,6.86693633 7.80891122,6.32588 L7.8089,6.32589796 Z" id="Fill-1"></path>
                <path d="M6.32342857,10.4062245 C5.31497551,9.39777143 4.74762245,8.06838776 4.72481429,6.66442857 C4.71692122,6.21807551 4.78444327,5.78662857 4.88353531,5.3657102 C3.99610469,6.44431633 3.65059245,7.94734286 4.11975367,9.41348571 C4.67660061,11.1646857 6.20856388,12.3179347 7.8790598,12.4485878 L8.08776571,12.8317918 L8.73755143,13.0615347 L7.79224735,13.5157673 L8.12635551,14.5663122 L9.45576163,15.1406918 L8.70688612,15.9904306 L8.98487184,16.9147 L10.0626024,17.4119 L9.44613102,18.1265857 L9.81267796,19.2753449 L10.8167535,19.3490045 L11.0754331,19.9303882 L10.6080453,20.3057127 L10.6396131,20.3688504 L13.137062,21.851718 L13.814909,21.0221606 L10.9939702,11.9442422 C10.723011,11.9872118 10.4476518,12.012642 10.1679151,12.012642 C8.72276204,12.012642 7.35730286,11.4417645 6.32352735,10.4061482 L6.32342857,10.4062245 Z" id="Fill-2"></path>
                <path d="M4.69318367,0.100840816 C2.17126531,0.100840816 0.119204082,2.15281224 0.119204082,4.67482041 C0.119204082,6.63210204 1.3705551,8.27024898 3.10244898,8.91902449 C3.08403408,8.7769651 3.06561918,8.63578571 3.05246408,8.48757755 C3.03843347,8.32184122 3.04018673,8.16399796 3.04106449,8.00528367 C1.8054951,7.39406531 0.942601,6.1435898 0.942601,4.67475306 C0.942601,2.607 2.62452367,0.9251 4.69225429,0.9251 C6.76000735,0.9251 8.44190735,2.60702245 8.44190735,4.67475306 C8.44190735,4.92380204 8.41033959,5.16407347 8.3612302,5.39909184 C8.39279796,5.55956612 8.48838347,5.71829388 8.74180776,5.7673898 C8.97155061,5.8112349 9.10310163,5.67882184 9.17938327,5.52711837 C9.23287469,5.25088367 9.26444469,4.96676939 9.26444469,4.67387755 C9.26707571,2.15195918 7.21597531,0.100795918 4.69315898,0.100795918 L4.69318367,0.100840816 Z" id="Fill-3"></path>
            </g>
        </g>
    </g>
</svg>
