<?xml version="1.0" encoding="UTF-8"?>
<svg width="16px" height="14px" viewBox="0 0 16 14" version="1.1" xmlns="http://www.w3.org/2000/svg" xmlns:xlink="http://www.w3.org/1999/xlink">
    <!-- Generator: Sketch 46.2 (44496) - http://www.bohemiancoding.com/sketch -->
    <title>Group 5</title>
    <desc>Created with Sketch.</desc>
    <defs></defs>
    <g id="Quotes" stroke="none" stroke-width="1" fill="none" fill-rule="evenodd">
        <g id="Comparison---Desktop" transform="translate(-396.000000, -1239.000000)" fill="#4D4D4D">
            <g id="Guaranteed-Issue-Whole-Life" transform="translate(71.000000, 1131.000000)">
                <g id="Policy-Type" transform="translate(324.000000, 34.000000)">
                    <g transform="translate(0.000000, 22.000000)" id="Group-4">
                        <g transform="translate(1.000000, 50.000000)">
                            <g id="Group-5" transform="translate(0.000000, 2.000000)">
                                <path d="M7.54832536,9.03349282 C7.54832536,10.4267943 6.66028708,11.8354067 4.30239234,12.0191388 L4.30239234,13.0296651 C4.30239234,13.2746411 4.10334928,13.4736842 3.85837321,13.4736842 C3.56746411,13.4736842 3.36842105,13.2746411 3.36842105,13.0296651 L3.36842105,12.0191388 C2.05167464,11.9425837 0.979904306,11.4679426 0.199043062,10.7636364 C0.0612440191,10.6411483 0,10.4727273 0,10.3043062 C0,9.99808612 0.244976077,9.66124402 0.581818182,9.66124402 C0.719617225,9.66124402 0.842105263,9.70717703 0.949282297,9.79904306 C1.56172249,10.3349282 2.38851675,10.7789474 3.36842105,10.8861244 L3.36842105,7.15023923 C1.80669856,6.7215311 0.183732057,6.20095694 0.183732057,4.31770335 C0.183732057,2.72535885 1.51578947,1.6076555 3.36842105,1.50047847 L3.36842105,0.444019139 C3.36842105,0.199043062 3.56746411,0 3.85837321,0 C4.10334928,0 4.30239234,0.199043062 4.30239234,0.444019139 L4.30239234,1.51578947 C5.37416268,1.62296651 6.21626794,1.94449761 6.96650718,2.58755981 C7.10430622,2.69473684 7.16555024,2.86315789 7.16555024,3.03157895 C7.16555024,3.36842105 6.90526316,3.65933014 6.56842105,3.65933014 C6.44593301,3.65933014 6.30813397,3.61339713 6.20095694,3.5215311 C5.60382775,3.01626794 4.99138756,2.77129187 4.30239234,2.67942584 L4.30239234,6.00191388 C5.87942584,6.44593301 7.54832536,7.0430622 7.54832536,9.03349282 Z M3.36842105,5.7569378 L3.36842105,2.63349282 C2.26602871,2.71004785 1.50047847,3.33779904 1.50047847,4.24114833 C1.50047847,5.09856459 2.32727273,5.4507177 3.36842105,5.7569378 Z M6.23157895,9.14066986 C6.23157895,8.14545455 5.37416268,7.73205742 4.30239234,7.41052632 L4.30239234,10.8861244 C5.7569378,10.7330144 6.23157895,9.86028708 6.23157895,9.14066986 Z" id="$-copy"></path>
                                <path d="M15.969378,9.03349282 C15.969378,10.4267943 15.0813397,11.8354067 12.723445,12.0191388 L12.723445,13.0296651 C12.723445,13.2746411 12.5244019,13.4736842 12.2794258,13.4736842 C11.9885167,13.4736842 11.7894737,13.2746411 11.7894737,13.0296651 L11.7894737,12.0191388 C10.4727273,11.9425837 9.40095694,11.4679426 8.62009569,10.7636364 C8.48229665,10.6411483 8.42105263,10.4727273 8.42105263,10.3043062 C8.42105263,9.99808612 8.66602871,9.66124402 9.00287081,9.66124402 C9.14066986,9.66124402 9.26315789,9.70717703 9.37033493,9.79904306 C9.98277512,10.3349282 10.8095694,10.7789474 11.7894737,10.8861244 L11.7894737,7.15023923 C10.2277512,6.7215311 8.60478469,6.20095694 8.60478469,4.31770335 C8.60478469,2.72535885 9.93684211,1.6076555 11.7894737,1.50047847 L11.7894737,0.444019139 C11.7894737,0.199043062 11.9885167,0 12.2794258,0 C12.5244019,0 12.723445,0.199043062 12.723445,0.444019139 L12.723445,1.51578947 C13.7952153,1.62296651 14.6373206,1.94449761 15.3875598,2.58755981 C15.5253589,2.69473684 15.5866029,2.86315789 15.5866029,3.03157895 C15.5866029,3.36842105 15.3263158,3.65933014 14.9894737,3.65933014 C14.8669856,3.65933014 14.7291866,3.61339713 14.6220096,3.5215311 C14.0248804,3.01626794 13.4124402,2.77129187 12.723445,2.67942584 L12.723445,6.00191388 C14.3004785,6.44593301 15.969378,7.0430622 15.969378,9.03349282 Z M11.7894737,5.7569378 L11.7894737,2.63349282 C10.6870813,2.71004785 9.9215311,3.33779904 9.9215311,4.24114833 C9.9215311,5.09856459 10.7483254,5.4507177 11.7894737,5.7569378 Z M14.6526316,9.14066986 C14.6526316,8.14545455 13.7952153,7.73205742 12.723445,7.41052632 L12.723445,10.8861244 C14.1779904,10.7330144 14.6526316,9.86028708 14.6526316,9.14066986 Z" id="$-copy"></path>
                            </g>
                        </g>
                    </g>
                </g>
            </g>
        </g>
    </g>
</svg>