<?xml version="1.0" encoding="UTF-8"?>
<svg width="54px" height="48px" viewBox="0 0 54 48" version="1.1" xmlns="http://www.w3.org/2000/svg" xmlns:xlink="http://www.w3.org/1999/xlink">
    <!-- Generator: Sketch 47.1 (45422) - http://www.bohemiancoding.com/sketch -->
    <title>Scales</title>
    <desc>Created with Sketch.</desc>
    <defs></defs>
    <g id="Landing-Pages" stroke="none" stroke-width="1" fill="none" fill-rule="evenodd">
        <g id="Scales" fill-rule="nonzero" fill="#2B2727">
            <path d="M26.8657681,0.00740324165 C26.2334868,0.0770446653 25.7590562,0.619306604 25.7727367,1.25670993 L25.7727367,3.67844288 C23.4829283,5.27499747 21.1000395,6.17705625 18.4091566,6.17705625 C15.7572203,6.17705625 12.9238767,5.80857151 9.91419316,4.73554854 C9.6243559,4.63221511 9.34454108,4.52591103 9.05127362,4.40880679 C8.4317123,4.15533148 7.72375769,4.44600412 7.45966647,5.06229029 L0.0960864172,22.2835024 C0.0297272173,22.4415583 -0.00293136679,22.6117736 0.000206468606,22.7832251 C0.000206468606,27.5241633 3.86099224,31.3938312 8.59104986,31.3938312 C13.3211075,31.3938312 17.1818933,27.5241633 17.1818933,22.7832251 C17.1824045,22.6182338 17.1497978,22.4548251 17.0860133,22.3027225 L10.8346407,7.50324334 C13.4911921,8.24691679 16.0555858,8.63722941 18.4091566,8.63722941 C21.0863647,8.63722941 23.5290182,7.85640366 25.7727367,6.56145831 L25.7727367,38.1593074 L13.5001032,38.1593074 C13.4617723,38.1575047 13.4233782,38.1575047 13.3850473,38.1593074 C12.7525703,38.2190536 12.2701006,38.7526586 12.2728399,39.3893939 L12.2728399,46.7699134 C12.2729077,47.4492433 12.8223325,47.9999321 13.5001032,48 L40.4998968,48 C41.1776675,47.9999321 41.7270923,47.4492433 41.7271601,46.7699134 L41.7271601,39.3893939 C41.7270923,38.710064 41.1776675,38.1593753 40.4998968,38.1593074 L28.2272633,38.1593074 L28.2272633,6.56145831 C30.4709818,7.85640366 32.9136353,8.63722941 35.5908434,8.63722941 C37.9444142,8.63722941 40.5088079,8.24691679 43.1653593,7.50324334 L36.9139867,22.3027225 C36.8502022,22.4548251 36.8175955,22.6182338 36.8181067,22.7832251 C36.8181067,27.5241633 40.6788925,31.3938312 45.4089501,31.3938312 C50.1390078,31.3938312 53.9997935,27.5241633 53.9997935,22.7832251 C54.0029314,22.6117736 53.9702728,22.4415583 53.9039136,22.2835024 L46.5403335,5.06229029 C46.2762423,4.44600412 45.5682877,4.15533148 44.9487264,4.40880679 C44.6554589,4.52591103 44.3756441,4.63221511 44.0858068,4.73554854 C41.0761233,5.80857151 38.2427797,6.17705625 35.5908434,6.17705625 C32.8999605,6.17705625 30.5170717,5.27499747 28.2272633,3.67844288 L28.2272633,1.25670993 C28.234877,0.902449695 28.0897172,0.562102626 27.8289594,0.32283147 C27.5682015,0.0835603147 27.2171715,-0.0313958369 26.8657681,0.00740324165 Z M8.62940184,8.59878921 L14.6890146,22.956206 C14.5919307,26.2806995 11.9325744,28.933658 8.59104986,28.933658 C5.61275296,28.933658 3.17136413,26.8254434 2.60814107,24.0133117 L11.0455765,24.0133117 C11.4881666,24.0195775 11.8998383,23.7865044 12.1229576,23.4033387 C12.346077,23.020173 12.346077,22.5462772 12.1229576,22.1631115 C11.8998383,21.7799458 11.4881666,21.5468726 11.0455765,21.5531385 L3.08754081,21.5531385 L8.62940184,8.59878921 Z M45.3705982,8.59878921 L51.5069149,22.956206 C51.409831,26.2806995 48.7504747,28.933658 45.4089501,28.933658 C42.4306532,28.933658 39.9892644,26.8254434 39.4260413,24.0133117 L47.8634768,24.0133117 C48.3060721,24.0195855 48.717752,23.7865141 48.9408762,23.4033451 C49.1640005,23.0201762 49.1640005,22.546274 48.9408762,22.163105 C48.717752,21.7799361 48.3060721,21.5468647 47.8634768,21.5531385 L39.9054411,21.5531385 L45.3705982,8.59878921 Z M14.7273666,40.6194805 L39.2726334,40.6194805 L39.2726334,45.5398268 L14.7273666,45.5398268 L14.7273666,40.6194805 Z" id="Shape"></path>
        </g>
    </g>
</svg>