<?xml version="1.0" encoding="UTF-8"?>
<svg width="18px" height="18px" viewBox="0 0 18 18" version="1.1" xmlns="http://www.w3.org/2000/svg" xmlns:xlink="http://www.w3.org/1999/xlink">
    <!-- Generator: Sketch 47 (45396) - http://www.bohemiancoding.com/sketch -->
    <title>Navigation/Search</title>
    <desc>Created with Sketch.</desc>
    <defs></defs>
    <g id="Navigation" stroke="none" stroke-width="1" fill="none" fill-rule="evenodd">
        <g id="Navigation/Search" fill-rule="nonzero" fill="#000000">
            <g id="Search-Icon" transform="translate(1.000000, 1.000000)">
                <path d="M0,6.5 C-7.15385344e-16,2.91014913 2.91014913,7.15385344e-16 6.5,0 C10.0898509,-7.15385344e-16 13,2.91014913 13,6.5 C12.9955621,10.088011 10.088011,12.9955621 6.5,13 C2.91014913,13 7.15385344e-16,10.0898509 0,6.5 Z M1.78989398,6.5 C1.78989398,9.10131972 3.89868028,11.210106 6.5,11.210106 C9.10131972,11.210106 11.210106,9.10131972 11.210106,6.5 C11.2058288,3.90108225 9.09892039,1.79590932 6.5,1.79377381 C3.89868028,1.78989398 1.78989398,3.89868028 1.78989398,6.5 Z" id="Shape"></path>
            </g>
            <path d="M14.1559173,12.9101025 C13.798413,12.638976 13.2955493,12.6758949 12.9813232,12.9963379 C12.6670971,13.3167809 12.6392123,13.8211114 12.9161895,14.1743582 L15.4765806,16.7381437 C15.7020197,16.9639812 16.0306043,17.0521808 16.3385598,16.9695186 C16.6465153,16.8868563 16.8870559,16.6458905 16.9695723,16.3373907 C17.0520888,16.0288909 16.9640448,15.6997256 16.7386057,15.473888 L14.1559173,12.9101025 Z" id="Shape"></path>
        </g>
    </g>
</svg>