<?xml version="1.0" encoding="UTF-8"?>
<svg width="42px" height="42px" viewBox="0 0 42 42" version="1.1" xmlns="http://www.w3.org/2000/svg" xmlns:xlink="http://www.w3.org/1999/xlink">
    <!-- Generator: Sketch 47 (45396) - http://www.bohemiancoding.com/sketch -->
    <title>Content / Search</title>
    <desc>Created with Sketch.</desc>
    <defs></defs>
    <g id="Content" stroke="none" stroke-width="1" fill="none" fill-rule="evenodd">
        <g id="Content-/-Search" fill-rule="nonzero" fill="#2B2727">
            <g id="Group-29">
                <path d="M17.0326,6.45249881e-14 C7.63926623,6.45249881e-14 0,7.63918445 0,17.0326074 C0,26.425968 7.63926055,34.0652035 17.0326,34.0652035 C20.2984972,34.0652035 23.344757,33.1454032 25.9392332,31.5458268 L35.2184518,40.8427576 C36.7614352,42.3857475 39.2997733,42.3857475 40.8427624,40.8427576 C42.3857459,39.2997678 42.3857459,36.7614911 40.8427624,35.2184445 L31.5635438,25.9392219 C33.1551962,23.3492965 34.0652056,20.2897655 34.0652056,17.0326074 C34.0652056,7.63918445 26.4259394,0 17.0326,0 L17.0326,6.45249881e-14 Z M17.0326,2.2710147 C25.1985802,2.2710147 31.7941919,8.86654981 31.7941919,17.0326074 C31.7941919,25.1986026 25.1985746,31.7941945 17.0326,31.7941945 C8.86662538,31.7941945 2.27101371,25.1986026 2.27101371,17.0326074 C2.27101371,8.86654981 8.8666197,2.2710147 17.0326,2.2710147 Z M30.2328703,27.8199145 L39.2459565,36.8152965 C39.9270716,37.4963779 39.9270716,38.5471162 39.2459565,39.2282543 C38.5648357,39.9093356 37.5141206,39.9093356 36.8329998,39.2282543 L27.8199193,30.2151641 C28.6955796,29.4965098 29.5154366,28.6965797 30.2328703,27.8199145 L30.2328703,27.8199145 Z" id="Shape"></path>
            </g>
        </g>
    </g>
</svg>