<?xml version="1.0" encoding="UTF-8"?>
<svg width="55px" height="47px" viewBox="0 0 55 47" version="1.1" xmlns="http://www.w3.org/2000/svg" xmlns:xlink="http://www.w3.org/1999/xlink">
    <!-- Generator: Sketch 47.1 (45422) - http://www.bohemiancoding.com/sketch -->
    <title>Shopping Cart</title>
    <desc>Created with Sketch.</desc>
    <defs></defs>
    <g id="Landing-Pages" stroke="none" stroke-width="1" fill="none" fill-rule="evenodd">
        <g id="Shopping-Cart" fill-rule="nonzero" fill="#2B2727">
            <g id="Group-14">
                <path d="M1.39064475,2.81818182 L11.3337547,2.81818182 L15.8533502,27.6181818 C15.9924147,28.4636364 16.4096081,29.2386364 16.965866,29.8022727 C17.7307206,30.5772727 18.7737042,31 19.88622,31 L48.6725664,31 C49.9241466,31 50.6890013,29.7318182 50.7585335,28.7454545 L54.9304678,10.7090909 C54.9304678,10.6386364 55,10.4977273 55,10.3568182 C55,9.44090909 54.3742099,8.38409091 52.9140329,8.38409091 L21.6940582,8.38409091 C20.9292035,8.38409091 20.3034134,9.01818182 20.3034134,9.79318182 C20.3034134,10.5681818 20.9292035,11.2022727 21.6940582,11.2022727 L51.9405815,11.2022727 L48.0467762,28.1113636 L19.88622,28.1113636 C19.5385588,28.1113636 19.1908976,27.9704545 18.9823009,27.6886364 C18.7737042,27.4772727 18.6346397,27.2659091 18.6346397,26.9840909 L13.9064475,1.12727273 C13.7673831,0.493181818 13.2111252,0 12.5158028,0 L1.39064475,0 C0.625790139,0 0,0.634090909 0,1.40909091 C0,2.18409091 0.625790139,2.81818182 1.39064475,2.81818182 Z" id="Shape"></path>
                <path d="M45,35 C41.6746988,35 39,37.6823529 39,41 C39,44.3176471 41.6746988,47 45,47 C48.3253012,47 51,44.3176471 51,41 C51,37.6823529 48.3253012,35 45,35 Z M45,44.1764706 C43.3373494,44.1764706 41.8915663,42.7647059 41.8915663,41 C41.8915663,39.2352941 43.3373494,37.8235294 45,37.8235294 C46.6626506,37.8235294 48.1084337,39.2352941 48.1084337,41 C48.1084337,42.7647059 46.7349398,44.1764706 45,44.1764706 Z" id="Shape"></path>
                <path d="M17,41 C17,44.3176471 19.6746988,47 23,47 C26.3253012,47 29,44.3176471 29,41 C29,37.6823529 26.253012,35 22.9277108,35 C19.6024096,35 17,37.6823529 17,41 Z M26.0361446,41 C26.0361446,42.7647059 24.6626506,44.1764706 22.9277108,44.1764706 C21.1927711,44.1764706 19.8192771,42.7647059 19.8192771,41 C19.8192771,39.2352941 21.2650602,37.8235294 22.9277108,37.8235294 C24.5903614,37.8235294 26.0361446,39.2352941 26.0361446,41 Z" id="Shape"></path>
            </g>
        </g>
    </g>
</svg>