<?xml version="1.0" encoding="UTF-8"?>
<svg width="19px" height="19px" viewBox="0 0 19 19" version="1.1" xmlns="http://www.w3.org/2000/svg" xmlns:xlink="http://www.w3.org/1999/xlink">
    <!-- Generator: Sketch 44.1 (41455) - http://www.bohemiancoding.com/sketch -->
    <title>signout</title>
    <desc>Created with Sketch.</desc>
    <defs></defs>
    <g id="Mobile-Hamburger-Menu" stroke="none" stroke-width="1" fill="none" fill-rule="evenodd">
        <g id="Artboard" transform="translate(-572.000000, -536.000000)" fill="#4D4D4D">
            <g id="Group-5" transform="translate(572.000000, 507.000000)">
                <g id="Group-Copy-5" transform="translate(0.000000, 23.000000)">
                    <path d="M3.08751086,15.4207996 C3.08751086,18.0333088 3.36459517,20.1114411 3.54272079,21.1801949 C4.78960018,21.4374875 6.90731596,21.8333222 9.50003341,21.9322809 L9.50003341,24.9802083 C5.54168615,24.8020826 1.95938189,23.951038 1.801048,23.9114545 C1.22708765,23.7729124 0.752085978,23.3374942 0.613543824,22.7635338 C0.593752088,22.6447834 0,19.9135238 0,15.4207996 C0,10.9280755 0.613543824,8.33535806 0.633335561,8.21660765 C0.771877714,7.66243903 1.22708765,7.22702083 1.801048,7.08847868 C1.95938189,7.04889521 5.54168615,6.19785055 9.50003341,6.03951666 L9.50003341,9.0676523 C6.90731596,9.16661099 4.76980844,9.56244571 3.54272079,9.81973828 C3.36459517,10.8489086 3.08751086,12.8676657 3.08751086,15.4207996 Z M12.0531674,21.2593618 C11.934417,21.2593618 11.8156666,21.2197784 11.7167079,21.1801949 C11.479207,21.0416527 11.4000401,20.7843602 11.4000401,20.5270676 L11.4000401,18.0333088 C9.26253257,17.795808 6.25418866,17.2020559 5.87814567,16.9843468 C5.403144,16.7072625 5.06668448,16.2520526 5.06668448,15.5197583 C5.06668448,14.7874641 5.403144,14.3124624 5.87814567,14.0551698 C6.25418866,13.8374607 9.26253257,13.2239169 11.4000401,13.0062078 L11.4000401,10.5124491 C11.4000401,10.2353647 11.479207,9.99786391 11.7167079,9.85932176 C11.9542087,9.74057134 12.2510847,9.74057134 12.4687938,9.89890523 C15.3979708,11.8582871 18.1094387,14.9260062 18.2083974,15.0645484 C18.4261065,15.321841 18.4261065,15.697884 18.2083974,15.9749683 C18.1094387,16.1135104 15.3979708,19.1614378 12.4687938,21.1406114 C12.3500434,21.2197784 12.2115013,21.2593618 12.0531674,21.2593618 Z" id="signout"></path>
                </g>
            </g>
        </g>
    </g>
</svg>
