<?xml version="1.0" encoding="UTF-8"?>
<svg width="114px" height="154px" viewBox="0 0 114 154" version="1.1" xmlns="http://www.w3.org/2000/svg" xmlns:xlink="http://www.w3.org/1999/xlink">
    <!-- Generator: Sketch 44.1 (41455) - http://www.bohemiancoding.com/sketch -->
    <title>Group 61</title>
    <desc>Created with Sketch.</desc>
    <defs></defs>
    <g id="Page-1" stroke="none" stroke-width="1" fill="none" fill-rule="evenodd">
        <g id="Group-61" transform="translate(0.000000, 1.000000)" stroke="#4D4D4D" stroke-width="0.5" fill="#4D4D4D">
            <path d="M90.5288421,38.7148755 C90.5288421,24.2524851 82.9509895,12.4859663 73.6386316,12.4859663 C64.3256632,12.4859663 56.7484211,24.2523327 56.7484211,38.7148755 L56.7484211,44.9581634 C56.7484211,51.7191733 56.9988284,51.9691973 63.3723263,58.3313266 C69.2629895,64.2115388 69.2629895,64.2115388 69.2629895,69.9369523 L69.2629895,151.110208 C69.2629895,151.800585 69.8234374,152.360039 70.5150416,152.360039 L76.7694258,152.360039 C77.46103,152.360039 78.0214779,151.800585 78.0214779,151.110208 L78.01551,82.4229187 L78.01551,69.9483794 L78.01551,69.93648 C78.01551,64.2110664 78.01551,64.2110664 83.9061732,58.3308543 C90.2797626,51.9685726 90.5300784,51.7187009 90.5300784,44.9576911 L90.5288421,38.7148755 Z M75.5161526,149.86054 L71.7600421,149.86054 L71.7600421,83.673496 L75.5161526,83.673496 L75.5161526,149.86054 Z M75.5161526,69.9244588 L75.5161526,69.9363581 L75.5161526,81.1789081 L71.7600421,81.1789081 L71.7600421,69.9363581 C71.7600421,63.1753483 71.5096347,62.9253242 65.1361368,56.5631949 C59.2454737,50.6829828 59.2454737,50.6829828 59.2454737,44.9575692 L59.2514263,38.7142813 C59.2514263,25.6327367 65.7085053,14.9856126 73.6381737,14.9856126 C81.5678421,14.9856126 88.0249211,25.6270993 88.0249211,38.7142813 L88.0249211,44.9575692 C88.0249211,50.6829828 88.0249211,50.6829828 82.1342579,56.5631949 C75.7666211,62.9195345 75.5163053,63.1753483 75.5163053,69.924474 L75.5161526,69.9244588 Z" id="Fill-1"></path>
            <path d="M39.2308947,0 C35.0932053,0 31.7244737,3.36260253 31.7244737,7.49310342 L31.7244737,63.6944263 C31.7244737,63.8551212 31.7542826,64.0217582 31.8198684,64.1705537 C31.8854542,64.3252913 31.9748811,64.4621875 32.0881642,64.5752544 C37.9788274,70.4554666 37.9788274,70.4554666 37.9788274,76.1808802 L37.9788274,82.4241681 L37.9847953,151.11146 C37.9847953,151.801837 38.5452432,152.361291 39.2368474,152.361291 L45.4912316,152.361291 C46.1828358,152.361291 46.7432837,151.801837 46.7432837,151.11146 L46.7373158,82.4241681 L46.7373158,7.49313389 C46.7373158,3.36278536 43.3746895,3.0472157e-05 39.2308947,3.0472157e-05 L39.2308947,0 Z M34.2287,63.1763996 L34.2287,7.49310342 C34.2287,4.73750626 36.4765053,2.4997834 39.2308947,2.4997834 C41.9913895,2.4997834 44.2330895,4.74360069 44.2330895,7.49310342 L44.2330895,81.1732555 L40.4769789,81.1732555 L40.4829468,76.1799355 C40.4829468,69.5557457 40.2325395,69.1689016 34.2285626,63.1756378 L34.2287,63.1763996 Z M44.2391947,149.86207 L40.4830842,149.86207 L40.4830842,83.6750196 L44.2391947,83.6750196 L44.2391947,149.86207 Z" id="Fill-2"></path>
            <path d="M21.7194737,13.736239 C21.7194737,13.0458618 21.1590258,12.4864082 20.4674216,12.4864082 C19.7758174,12.4864082 19.2153695,13.0458618 19.2153695,13.736239 L19.2153695,56.9274743 C13.2174063,62.9147961 12.9609853,63.3075822 12.9609853,69.9197356 L12.9609853,69.931635 L12.9609853,81.1741849 L9.20487474,81.1741849 L9.20487474,69.931635 C9.20487474,63.3074451 8.94849947,62.9206011 2.95049053,56.9273372 L2.95049053,13.7361018 C2.95049053,13.0457246 2.39004263,12.4862711 1.69843842,12.4862711 C1.00683421,12.4862711 0.446386316,13.0457246 0.446386316,13.7361018 L0.446386316,57.4453639 C0.446386316,57.6060588 0.482163158,57.7726958 0.541781053,57.9214913 C0.601398947,58.076229 0.696793684,58.2131251 0.810076842,58.3261921 C6.70074,64.2064042 6.70074,64.2064042 6.70074,69.9318178 L6.70074,151.111169 C6.70074,151.801546 7.26118789,152.361 7.95279211,152.361 L14.2071763,152.361 C14.8987805,152.361 15.4592284,151.801546 15.4592284,151.111169 L15.4592284,69.9485775 L15.4592284,69.9366781 C15.4592284,64.2112645 15.4592284,64.2112645 21.3498916,58.3310524 C21.4631747,58.2179702 21.5585695,58.075132 21.6181874,57.9263517 C21.6837732,57.771614 21.7135821,57.6109191 21.7135821,57.4502242 L21.7194737,13.736239 Z M12.9610158,149.861462 L9.20490526,149.861462 L9.20490526,83.6744102 L12.9610158,83.6744102 L12.9610158,149.861462 Z" id="Fill-3"></path>
            <path d="M7.95973684,39.964234 C8.65134105,39.964234 9.21178895,39.4047804 9.21178895,38.7144032 L9.20582105,13.7348525 C9.20582105,13.0444753 8.64537316,12.4850217 7.95376895,12.4850217 C7.26214947,12.4850217 6.70171684,13.0444753 6.70171684,13.7348525 L6.70768474,38.7144032 C6.70768474,39.4047804 7.26813263,39.964234 7.95973684,39.964234 Z" id="Fill-4"></path>
            <path d="M14.2130526,39.964234 C14.9046568,39.964234 15.4651047,39.4047804 15.4651047,38.7144032 L15.4651047,13.7348525 C15.4651047,13.0444753 14.9046568,12.4850217 14.2130526,12.4850217 C13.5214484,12.4850217 12.9610005,13.0444753 12.9610005,13.7348525 L12.9610005,38.7144032 C12.9610005,39.4047804 13.5214484,39.964234 14.2130526,39.964234 Z" id="Fill-5"></path>
            <path d="M113.546684,82.4241376 C113.546684,71.21724 108.872342,62.4450678 102.910095,62.4450678 C96.9478474,62.4450678 92.2735053,71.2236392 92.2735053,82.4241376 L92.2735053,88.6674255 C92.2735053,88.6733828 92.2794732,88.6793249 92.2794732,88.6852822 C92.2794732,88.8400198 92.3092821,89.0007147 92.3748679,89.1435529 C92.4404537,89.2982905 92.5298805,89.4351867 92.6491316,89.554211 C98.5338421,95.428481 98.5338421,95.4344231 98.5338421,101.147953 C98.5338421,101.153895 98.5278742,101.153895 98.5278742,101.159852 L98.5278742,107.40314 L98.5338421,151.112402 C98.5338421,151.80278 99.09429,152.362233 99.7858942,152.362233 L106.040278,152.362233 C106.731883,152.362233 107.292331,151.80278 107.292331,151.112402 L107.292331,101.160918 C107.292331,95.4355049 107.292331,95.4355049 113.182994,89.5552927 C113.296277,89.4422105 113.391672,89.2993723 113.451289,89.150592 C113.516875,88.9958544 113.546684,88.8351595 113.546684,88.6744645 L113.546684,82.4241376 Z M104.794179,149.86207 L101.038068,149.86207 L101.038068,108.653047 L104.794179,108.653047 L104.794179,149.86207 Z M104.794179,101.159943 L104.794179,106.153263 L101.038068,106.153263 L101.038068,101.171827 L101.038068,101.159928 C101.038068,94.5357382 100.781693,94.1488942 94.7836842,88.1556304 L94.7777316,82.4302168 C94.7777316,72.9552043 98.5040789,64.9437695 102.910095,64.9437695 C107.316111,64.9437695 111.042458,72.9486528 111.042458,82.4302168 L111.042458,88.1615724 C105.044495,94.1429521 104.794026,94.5357382 104.794026,101.159776 L104.794179,101.159943 Z" id="Fill-6"></path>
        </g>
    </g>
</svg>