<?xml version="1.0" encoding="UTF-8"?>
<svg width="19px" height="18px" viewBox="0 0 19 18" version="1.1" xmlns="http://www.w3.org/2000/svg" xmlns:xlink="http://www.w3.org/1999/xlink">
    <!-- Generator: Sketch 47.1 (45422) - http://www.bohemiancoding.com/sketch -->
    <title>Star</title>
    <desc>Created with Sketch.</desc>
    <defs></defs>
    <g id="Form-Flow" stroke="none" stroke-width="1" fill="none" fill-rule="evenodd">
        <g id="Star" fill-rule="nonzero" fill="#2B2727">
            <path d="M10.3153836,0.490778417 L12.5598594,4.96667758 C12.6918874,5.22842606 12.9559434,5.41165001 13.246405,5.4639997 L18.2106575,6.19689547 C18.9764198,6.30159487 19.2668814,7.21771458 18.7123638,7.76738641 L15.1212025,11.2224665 C14.9099577,11.4318652 14.8043353,11.7459634 14.8571465,12.0338868 L15.7021256,16.9285835 C15.8341536,17.6876541 15.0419857,18.237326 14.3554401,17.8970529 L9.91929958,15.5674914 C9.65524359,15.4366171 9.33837641,15.4366171 9.04791483,15.5674914 L4.61177429,17.8970529 C3.92522874,18.237326 3.13306078,17.6876541 3.26508878,16.9285835 L4.13647352,12.0338868 C4.18928472,11.7459634 4.08366233,11.4318652 3.87241754,11.2224665 L0.281256155,7.74121156 C-0.273261412,7.21771458 0.0436057693,6.30159487 0.782962525,6.17072062 L5.74721503,5.4639997 C6.03767661,5.41165001 6.30173259,5.22842606 6.43376059,4.96667758 L8.65183085,0.490778417 C8.99510363,-0.163592806 9.99851637,-0.163592806 10.3153836,0.490778417 Z" id="Shape"></path>
        </g>
    </g>
</svg>