<?xml version="1.0" encoding="UTF-8"?>
<svg width="50px" height="58px" viewBox="0 0 50 58" version="1.1" xmlns="http://www.w3.org/2000/svg" xmlns:xlink="http://www.w3.org/1999/xlink">
    <!-- Generator: Sketch 47.1 (45422) - http://www.bohemiancoding.com/sketch -->
    <title>Group 13 Copy</title>
    <desc>Created with Sketch.</desc>
    <defs></defs>
    <g id="Form-Flows/Comparison" stroke="none" stroke-width="1" fill="none" fill-rule="evenodd">
        <g id="Group-13-Copy" fill-rule="nonzero" fill="#2B2727">
            <path d="M38.5241489,33.3507135 L38.5241489,28.3986139 C38.5241489,27.7213255 37.9833432,27.2727273 37.1668411,27.2727273 L27.8035888,27.2727273 C26.9870867,27.2727273 26.446281,27.7213255 26.446281,28.3986139 L26.446281,33.3507135 C26.446281,34.0280018 26.9870867,34.4766 27.8035888,34.4766 L37.1668411,34.4766 C37.9833432,34.4766 38.5241489,34.0236108 38.5241489,33.3507135 Z M28.4236266,32.5242672 L28.4236266,29.2250602 L36.5468033,29.2250602 L36.5468033,32.5242672 L28.4236266,32.5242672 Z" id="Fill-2-Copy-4"></path>
            <path d="M49.4102029,21.4266168 L42.6298314,8.88505508 L42.6298314,8.88505508 C42.4132979,8.48453554 41.9946331,8.23494686 41.5393281,8.23494686 L21.6547709,8.23494686 L21.6547709,0.826446281 L21.6547709,0.826446281 C21.6547709,0.370012603 21.2847583,-9.07956969e-13 20.8283246,-9.09494702e-13 L15.3775357,-9.09494702e-13 L15.3775357,-9.09494702e-13 C14.921102,-9.09410856e-13 14.5510894,0.370012603 14.5510894,0.826446281 L14.5510894,8.23494686 L8.07706198,8.23494686 L8.07706198,8.23494686 C7.61901145,8.23494686 7.19828814,8.48752603 6.98294008,8.89179764 L0.303477455,21.4311119 L0.303477455,21.4311119 C0.0888895521,21.8339564 0.24150172,22.3344843 0.644346273,22.5490722 C0.763947731,22.6127817 0.897380384,22.6461039 1.03289204,22.6461039 L4.58302029,22.6461039 L4.58302029,54.7373083 L0.826446281,54.7373083 L0.826446281,54.7373083 C0.370012603,54.7373083 -5.58970041e-17,55.1073207 0,55.5637545 L0,56.1983471 L0,56.1983471 C5.58970041e-17,56.6547806 0.370012603,57.0247934 0.826446281,57.0247934 L27.0398197,57.0247934 L37.5807663,57.0247934 L48.899324,57.0247934 L48.899324,57.0247934 C49.3557574,57.0247934 49.7257702,56.6547806 49.7257702,56.1983471 L49.7257702,55.5637545 L49.7257702,55.5637545 C49.7257702,55.1073207 49.3557574,54.7373083 48.899324,54.7373083 L45.14275,54.7373083 L45.14275,22.6461039 L48.6832004,22.6461039 L48.6832004,22.6461039 C49.1396339,22.6461039 49.5096467,22.2760913 49.5096467,21.8196576 C49.5096467,21.6824194 49.4754702,21.5473415 49.4102029,21.4266168 Z M16.957175,1.8742621 L19.4778362,1.8742621 L19.4778362,7.82172372 L16.957175,7.82172372 L16.957175,1.8742621 Z M3.43726521,20.3586186 L8.70773855,10.5224321 L14.5510894,10.5224321 L21.6547709,10.5224321 L40.903456,10.5224321 L46.1739293,20.3586186 L45.14275,20.3586186 L4.46844479,20.3586186 L3.43726521,20.3586186 L3.43726521,20.3586186 Z M29.3313298,54.7373083 L29.3313298,41.7355372 L35.2892562,41.7355372 L35.2892562,54.7373083 L29.3313298,54.7373083 Z M27.0398197,40.1678974 L27.0398197,54.7373083 L6.75995492,54.7373083 L6.75995492,22.7272727 L42.8512397,22.7272727 L42.8512397,54.7373083 L37.4661908,54.7373083 L37.4661908,40.1678974 L37.4661908,40.1678974 C37.4661908,39.7114637 37.0961782,39.3414511 36.6397445,39.3414511 L27.866266,39.3414511 L27.866266,39.3414511 C27.4098323,39.3414511 27.0398197,39.7114637 27.0398197,40.1678974 Z" id="Shape"></path>
            <path d="M22.4084464,33.3507135 L22.4084464,28.3986139 C22.4084464,27.7213255 21.8676407,27.2727273 21.0511386,27.2727273 L11.6878863,27.2727273 C10.8713843,27.2727273 10.3305785,27.7213255 10.3305785,28.3986139 L10.3305785,33.3507135 C10.3305785,34.0280018 10.8713843,34.4766 11.6878863,34.4766 L21.0511386,34.4766 C21.8676407,34.4766 22.4084464,34.0236108 22.4084464,33.3507135 Z M12.3549195,32.5051801 L12.3549195,29.2441472 L20.3841055,29.2441472 L20.3841055,32.5051801 L12.3549195,32.5051801 Z" id="Fill-2-Copy-3"></path>
            <path d="M19.9714489,48.1844054 L19.9714489,43.2323058 C19.9714489,42.5550174 19.4306431,42.106419 18.614141,42.106419 L9.25088874,42.106419 C8.43438663,42.106419 7.89358089,42.5550174 7.89358089,43.2323058 L7.89358089,48.1844054 C7.89358089,48.8616938 8.43438663,49.3102918 9.25088874,49.3102918 L18.614141,49.3102918 C19.4306431,49.3102918 19.9714489,48.8573025 19.9714489,48.1844054 Z M9.91792188,47.3388719 L9.91792188,44.0778389 L17.9471079,44.0778389 L17.9471079,47.3388719 L9.91792188,47.3388719 Z" id="Fill-2-Copy-5" transform="translate(13.932515, 45.708355) rotate(90.000000) translate(-13.932515, -45.708355) "></path>
            <path d="M25.3433497,48.1844054 L25.3433497,43.2323058 C25.3433497,42.5550174 24.8025439,42.106419 23.9860418,42.106419 L14.6227896,42.106419 C13.8062875,42.106419 13.2654817,42.5550174 13.2654817,43.2323058 L13.2654817,48.1844054 C13.2654817,48.8616938 13.8062875,49.3102918 14.6227896,49.3102918 L23.9860418,49.3102918 C24.8025439,49.3102918 25.3433497,48.8573025 25.3433497,48.1844054 Z M15.2898227,47.3388719 L15.2898227,44.0778389 L23.3190087,44.0778389 L23.3190087,47.3388719 L15.2898227,47.3388719 Z" id="Fill-2-Copy-6" transform="translate(19.304416, 45.708355) rotate(90.000000) translate(-19.304416, -45.708355) "></path>
        </g>
    </g>
</svg>