<?xml version="1.0" encoding="UTF-8"?>
<svg width="121px" height="138px" viewBox="0 0 121 138" version="1.1" xmlns="http://www.w3.org/2000/svg" xmlns:xlink="http://www.w3.org/1999/xlink">
    <!-- Generator: Sketch 44.1 (41455) - http://www.bohemiancoding.com/sketch -->
    <title>Group 10</title>
    <desc>Created with Sketch.</desc>
    <defs></defs>
    <g id="PPC-Calculator-Modal" stroke="none" stroke-width="1" fill="none" fill-rule="evenodd">
        <g id="Group-10" fill="#00A4A5">
            <path d="M93.2284404,80.7087266 L93.2284404,68.7246456 C93.2284404,67.0856078 91.9196906,66 89.9437555,66 L67.2846849,66 C65.3087499,66 64,67.0856078 64,68.7246456 L64,80.7087266 C64,82.3477643 65.3087499,83.4333721 67.2846849,83.4333721 L89.9437555,83.4333721 C91.9196906,83.4333721 93.2284404,82.3371382 93.2284404,80.7087266 Z M68.7851763,78.7087266 L68.7851763,70.7246456 L88.4432641,70.7246456 L88.4432641,78.7087266 L68.7851763,78.7087266 Z" id="Fill-2-Copy-4"></path>
            <path d="M119.572691,51.8524127 L103.164192,21.5018333 L103.164192,21.5018333 C102.640181,20.532576 101.627012,19.9285714 100.525174,19.9285714 L52.4045455,19.9285714 L52.4045455,2 L52.4045455,2 C52.4045455,0.8954305 51.509115,-9.05773389e-13 50.4045455,-9.09494702e-13 L37.2136364,-9.09494702e-13 L37.2136364,-9.09494702e-13 C36.1090669,-9.09291796e-13 35.2136364,0.8954305 35.2136364,2 L35.2136364,19.9285714 L19.54649,19.9285714 L19.54649,19.9285714 C18.4380077,19.9285714 17.4198573,20.539813 16.898715,21.5181503 L0.734415442,51.8632907 L0.734415442,51.8632907 C0.215112716,52.8381745 0.584434162,54.049452 1.55931798,54.5687547 C1.84875351,54.7229317 2.17166053,54.8035714 2.49959874,54.8035714 L11.0909091,54.8035714 L11.0909091,132.464286 L2,132.464286 L2,132.464286 C0.8954305,132.464286 -1.3527075e-16,133.359716 0,134.464286 L0,136 L0,136 C1.3527075e-16,137.104569 0.8954305,138 2,138 L65.4363636,138 L90.9454545,138 L118.336364,138 L118.336364,138 C119.440933,138 120.336364,137.104569 120.336364,136 L120.336364,134.464286 L120.336364,134.464286 C120.336364,133.359716 119.440933,132.464286 118.336364,132.464286 L109.245455,132.464286 L109.245455,54.8035714 L117.813345,54.8035714 L117.813345,54.8035714 C118.917914,54.8035714 119.813345,53.9081409 119.813345,52.8035714 C119.813345,52.471455 119.730638,52.1445664 119.572691,51.8524127 Z M41.0363636,4.53571429 L47.1363636,4.53571429 L47.1363636,18.9285714 L41.0363636,18.9285714 L41.0363636,4.53571429 Z M8.31818182,49.2678571 L21.0727273,25.4642857 L35.2136364,25.4642857 L52.4045455,25.4642857 L98.9863636,25.4642857 L111.740909,49.2678571 L109.245455,49.2678571 L10.8136364,49.2678571 L8.31818182,49.2678571 L8.31818182,49.2678571 Z M70.9818182,132.464286 L70.9818182,101 L85.4,101 L85.4,132.464286 L70.9818182,132.464286 Z M65.4363636,97.2063117 L65.4363636,132.464286 L16.3590909,132.464286 L16.3590909,55 L103.7,55 L103.7,132.464286 L90.6681818,132.464286 L90.6681818,97.2063117 L90.6681818,97.2063117 C90.6681818,96.1017422 89.7727513,95.2063117 88.6681818,95.2063117 L67.4363636,95.2063117 L67.4363636,95.2063117 C66.3317941,95.2063117 65.4363636,96.1017422 65.4363636,97.2063117 Z" id="Shape" fill-rule="nonzero"></path>
            <path d="M54.2284404,80.7087266 L54.2284404,68.7246456 C54.2284404,67.0856078 52.9196906,66 50.9437555,66 L28.2846849,66 C26.3087499,66 25,67.0856078 25,68.7246456 L25,80.7087266 C25,82.3477643 26.3087499,83.4333721 28.2846849,83.4333721 L50.9437555,83.4333721 C52.9196906,83.4333721 54.2284404,82.3371382 54.2284404,80.7087266 Z M29.8989052,78.6625359 L29.8989052,70.7708362 L49.3295353,70.7708362 L49.3295353,78.6625359 L29.8989052,78.6625359 Z" id="Fill-2-Copy-3"></path>
            <path d="M48.3309063,116.606261 L48.3309063,104.62218 C48.3309063,102.983142 47.0221564,101.897534 45.0462213,101.897534 L22.3871508,101.897534 C20.4112157,101.897534 19.1024658,102.983142 19.1024658,104.62218 L19.1024658,116.606261 C19.1024658,118.245299 20.4112157,119.330906 22.3871508,119.330906 L45.0462213,119.330906 C47.0221564,119.330906 48.3309063,118.234672 48.3309063,116.606261 Z M24.001371,114.56007 L24.001371,106.66837 L43.4320011,106.66837 L43.4320011,114.56007 L24.001371,114.56007 Z" id="Fill-2-Copy-5" transform="translate(33.716686, 110.614220) rotate(-270.000000) translate(-33.716686, -110.614220) "></path>
            <path d="M61.3309063,116.606261 L61.3309063,104.62218 C61.3309063,102.983142 60.0221564,101.897534 58.0462213,101.897534 L35.3871508,101.897534 C33.4112157,101.897534 32.1024658,102.983142 32.1024658,104.62218 L32.1024658,116.606261 C32.1024658,118.245299 33.4112157,119.330906 35.3871508,119.330906 L58.0462213,119.330906 C60.0221564,119.330906 61.3309063,118.234672 61.3309063,116.606261 Z M37.001371,114.56007 L37.001371,106.66837 L56.4320011,106.66837 L56.4320011,114.56007 L37.001371,114.56007 Z" id="Fill-2-Copy-6" transform="translate(46.716686, 110.614220) rotate(-270.000000) translate(-46.716686, -110.614220) "></path>
        </g>
    </g>
</svg>
