<?xml version="1.0" encoding="UTF-8"?>
<svg width="19px" height="16px" viewBox="0 0 19 16" version="1.1" xmlns="http://www.w3.org/2000/svg" xmlns:xlink="http://www.w3.org/1999/xlink">
    <!-- Generator: Sketch 44.1 (41455) - http://www.bohemiancoding.com/sketch -->
    <title>Page 1</title>
    <desc>Created with Sketch.</desc>
    <defs></defs>
    <g id="Page-1" stroke="none" stroke-width="1" fill="none" fill-rule="evenodd">
        <path d="M0.475,0 C0.2115175,0 0,0.209774137 0,0.47107439 L0,3.29752073 C0,3.55882569 0.21152225,3.76859512 0.475,3.76859512 L18.525,3.76859512 C18.7884825,3.76859512 19,3.55882098 19,3.29752073 L19,0.47107439 C19,0.209769426 18.7884778,0 18.525,0 L0.475,0 Z M1.1875,4.23966951 L1.1875,15.0743805 C1.1875,15.3255573 1.39624113,15.5454549 1.6625,15.5454549 L17.3375,15.5454549 C17.6037613,15.5454549 17.8125,15.3255597 17.8125,15.0743805 L17.8125,4.23966951 L1.1875,4.23966951 Z M7.3625,5.65289268 L11.6375,5.65289268 C12.0317975,5.65289268 12.35,5.96846541 12.35,6.35950427 C12.35,6.75054312 12.0317975,7.06611585 11.6375,7.06611585 L7.3625,7.06611585 C6.9682025,7.06611585 6.65,6.75054312 6.65,6.35950427 C6.65,5.96846541 6.9682025,5.65289268 7.3625,5.65289268 Z" fill="#4D4D4D"></path>
    </g>
</svg>
