<?xml version="1.0" encoding="UTF-8"?>
<svg width="190px" height="40px" viewBox="0 0 190 40" version="1.1" xmlns="http://www.w3.org/2000/svg" xmlns:xlink="http://www.w3.org/1999/xlink">
    <!-- Generator: Sketch 47 (45396) - http://www.bohemiancoding.com/sketch -->
    <title>Magazine/Techgenius</title>
    <desc>Created with Sketch.</desc>
    <defs></defs>
    <g id="Magazine" stroke="none" stroke-width="1" fill="none" fill-rule="evenodd">
        <g id="Magazine/Techgenius" fill="#2B2727">
            <g id="Techgenius" transform="translate(-1.000000, -9.000000)">
                <path d="M8.89680011,38.24 L8.89680011,15.02864 L1.35408011,15.02864 L1.35408011,9.8576 L21.8438401,9.8576 L21.8438401,15.02864 L14.3011201,15.02864 L14.3011201,38.24 L8.89680011,38.24 Z M29.8401601,38.6288 C23.7748801,38.6288 19.5758401,34.11872 19.5758401,28.52 C19.5758401,22.92128 24.0859201,18.4112 29.6846401,18.4112 C35.6332801,18.4112 39.7156801,22.8824 39.7156801,28.48112 L39.7156801,30.42512 L24.7080001,30.42512 C25.3300801,32.56352 27.0796801,33.9632 29.8790401,33.9632 C32.0174401,33.9632 33.8059201,32.7968 34.6612801,30.93056 L38.8992001,33.45776 C37.2273601,36.4904 34.1558401,38.6288 29.8401601,38.6288 Z M29.7235201,23.0768 C27.4684801,23.0768 25.7577601,24.32096 24.9412801,26.14832 L34.3502401,26.14832 C33.6504001,24.12656 31.9785601,23.0768 29.7235201,23.0768 Z M52.0276801,38.6288 C56.4600001,38.6288 59.8814401,36.1016 61.3977601,32.48576 L56.6544001,30.464 C55.9156801,32.29136 54.1272001,33.5744 52.0665601,33.5744 C49.2672001,33.5744 47.0899201,31.31936 47.0899201,28.52 C47.0899201,25.72064 49.2672001,23.4656 52.0665601,23.4656 C54.1272001,23.4656 55.9156801,24.74864 56.6544001,26.576 L61.3977601,24.55424 C59.8814401,20.9384 56.4600001,18.4112 52.0276801,18.4112 C46.4289601,18.4112 41.9577601,22.92128 41.9577601,28.52 C41.9577601,34.11872 46.4289601,38.6288 52.0276801,38.6288 Z M63.98976,38.24 L69.31632,38.24 L69.31632,27.62576 C69.31632,24.35984 70.98816,22.96016 73.00992,22.96016 C75.3816,22.96016 76.58688,24.47648 76.58688,27.12032 L76.58688,38.24 L81.9912,38.24 L81.9912,26.3816 C81.9912,21.36608 79.23072,18.4112 74.64288,18.4112 C72.42672,18.4112 70.56048,19.3832 69.27744,20.9384 L69.27744,9.8576 L63.98976,9.8576 L63.98976,38.24 Z" id="Tech"></path>
                <g id="Genius" transform="translate(84.400000, 11.700000)" fill-rule="nonzero">
                    <path d="M55.698986,23.4219491 L55.698986,12.5929601 C55.698986,8.53943257 54.0063516,6.5812067 50.5414294,6.5812067 C48.0920879,6.5812067 45.9215332,7.65823093 43.7310651,9.98851971 L43.8704585,6.5812067 L43.3527115,6.5812067 L37.737148,8.44152128 L37.737148,8.93107774 L40.1864895,10.2235068 L40.1864895,23.4219491 C40.1864895,24.851454 39.5691758,25.1060234 37.5778412,25.2039347 L37.5778412,26.2809589 L46.3198001,26.2809589 L46.3198001,25.2235169 C44.3284655,25.1256057 43.7111518,24.851454 43.7111518,23.4415314 L43.7111518,11.0851262 C44.9059525,10.0668487 46.777807,8.87233097 48.8687084,8.87233097 C51.1189165,8.87233097 52.1743238,10.086431 52.1743238,12.6908714 L52.1743238,23.4415314 C52.1743238,24.8710363 51.5769234,25.1256057 49.5656755,25.2235169 L49.5656755,26.3005412 L58.3076344,26.3005412 L58.3076344,25.2235169 C56.3162998,25.1256057 55.698986,24.851454 55.698986,23.4219491" id="Shape"></path>
                    <path d="M64.0028513,4.85796794 C65.3768722,4.85796794 66.4920195,3.76136146 66.4920195,2.42976787 C66.4920195,1.09817428 65.3768722,0.00156779628 64.0028513,0.00156779628 C62.6487438,0.00156779628 61.5535097,1.09817428 61.5535097,2.42976787 C61.5734231,3.78094372 62.6686571,4.85796794 64.0028513,4.85796794 Z" id="Shape"></path>
                    <path d="M65.9543592,23.4219491 L65.9543592,6.5812067 L65.4366122,6.5812067 L59.9604421,8.44152128 L59.9604421,8.93107774 L62.4097836,10.2235068 L62.4097836,23.4219491 C62.4097836,24.851454 61.8123832,25.1060234 59.8011353,25.2039347 L59.8011353,26.2809589 L68.5430942,26.2809589 L68.5430942,25.2235169 C66.5716729,25.1256057 65.9543592,24.851454 65.9543592,23.4219491" id="Shape"></path>
                    <path d="M87.181986,22.6386588 L87.181986,10.5955697 L87.3412928,6.65953574 L86.8434591,6.65953574 L81.0486755,7.69739545 L81.0486755,8.65692612 C83.498017,8.91149548 83.6971505,9.22481162 83.6971505,10.5955697 L83.6971505,22.2861781 C82.3231296,23.3436201 80.8296287,24.3618976 78.8382941,24.3618976 C76.647826,24.3618976 75.5326786,22.9519749 75.5326786,20.1712942 L75.5326786,10.7522278 L75.7318121,6.65953574 L75.2339784,6.65953574 L69.3595414,7.69739545 L69.3595414,8.65692612 C71.6694895,8.91149548 72.0478431,9.12690033 72.0478431,10.5955697 L72.0478431,20.837091 C72.0478431,24.694796 73.8201309,26.6726041 77.2850531,26.6726041 C79.9335281,26.6726041 81.9846027,24.9493653 83.6772371,23.2848733 L83.5378437,26.6726041 L84.1750708,26.6726041 L89.9300278,25.301846 L89.9300278,24.4206443 L88.8945338,24.3031508 C87.2218127,24.1073282 87.181986,23.8723411 87.181986,22.6386588" id="Shape"></path>
                    <path d="M13.104339,22.579912 L5.73640097,22.579912 C4.76064702,22.579912 4.28272672,22.1295201 4.28272672,21.2287362 C4.28272672,20.5237749 4.78056037,19.6425732 5.71648763,18.7026248 C6.73206827,19.0746877 7.92686903,19.2509281 9.16149648,19.2509281 C13.6619127,19.2509281 16.5891745,16.7835635 16.5891745,12.965023 C16.5891745,11.1047085 15.4541138,9.49896324 14.3190531,8.7156729 L17.0272681,8.85274871 L18.5207691,8.85274871 L18.5207691,6.93368736 L12.3675452,7.09034543 C11.3519645,6.75744703 10.4160373,6.54204219 9.18140983,6.54204219 C4.68099364,6.54204219 1.65416505,9.20522936 1.65416505,13.1412634 C1.65416505,15.4715521 2.80913912,17.3122844 4.91995379,18.3697264 C3.34679946,19.4663329 1.69399174,20.7979265 1.69399174,22.7169878 C1.69399174,24.1856572 2.4108722,25.2430992 3.76497972,25.7914024 C1.45503159,26.7509331 0.280144176,28.0825267 0.280144176,29.7470187 C0.280144176,32.723522 3.38662615,34.5055075 8.60392279,34.5055075 C11.5112713,34.5055075 14.1796597,33.8397108 16.0913409,32.6256107 C18.1623289,31.3135994 19.2575629,29.4924493 19.2575629,27.3188186 C19.2376495,24.2639863 17.0471815,22.579912 13.104339,22.579912 M9.36062994,18.1543216 C7.01085512,18.1543216 5.49744082,15.9611086 5.49744082,12.5537956 C5.49744082,10.1843423 6.43336808,7.65823093 9.02210306,7.65823093 C11.8497982,7.65823093 12.8454655,10.6738988 12.8454655,13.2587569 C12.8454655,15.6282102 11.9294516,18.1543216 9.36062994,18.1543216 M4.40220679,26.0263895 L12.7060721,26.0263895 C15.175327,26.0263895 16.330301,26.8684267 16.330301,28.6895767 C16.330301,32.0185607 12.3476318,33.2130785 8.94244968,33.2130785 C5.45761413,33.2130785 3.3667128,31.5681687 3.3667128,28.8462348 C3.38662615,27.6712993 3.70523968,26.7509331 4.40220679,26.0263895" id="Shape"></path>
                    <path d="M35.5068532,20.6412684 C34.0133523,22.8932282 32.3008045,23.8919234 29.851463,23.8919234 C28.1787419,23.8919234 26.6852409,23.2848733 25.5501802,22.1099378 C23.9571125,20.4846103 23.1605787,17.8997522 23.2800588,14.7861731 L35.8055534,14.7861731 L35.8055534,13.944136 C35.8055534,11.7900875 35.1683263,9.96893745 33.9536122,8.63734386 C32.6791581,7.2470035 30.8073036,6.50287767 28.5371821,6.50287767 C26.1276673,6.50287767 23.9172859,7.5799019 22.3242182,9.5185455 C20.7311505,11.4571891 19.8350499,14.1595408 19.8350499,17.1164619 C19.8350499,19.7600668 20.6315838,22.1491023 22.1051714,23.8527588 C23.6584124,25.6739089 25.8488804,26.6334396 28.4376154,26.6334396 C32.2211511,26.6334396 35.0687596,24.4598089 36.0445135,20.8958378 L35.5068532,20.6412684 Z M23.4194522,13.572073 C23.8177191,10.0472665 25.6497469,7.85405352 28.2384819,7.85405352 C31.6436641,7.85405352 32.1813244,11.3984423 32.1813244,13.572073 L23.4194522,13.572073 Z" id="Shape"></path>
                    <path d="M99.727394,14.6686795 C96.3620385,13.4545795 95.2668045,12.4754666 95.2668045,10.6738988 C95.2668045,8.85274871 96.5213453,7.73655997 98.5126799,7.73655997 C100.185401,7.73655997 102.435609,8.59817935 103.471103,12.6908714 L104.546424,12.6908714 L104.546424,8.12820514 C102.853789,7.07076317 100.902281,6.54204219 98.6719866,6.54204219 C94.7689708,6.54204219 92.2598892,8.65692612 92.2598892,11.9075811 C92.2598892,15.158236 94.2711372,16.5485764 97.9949329,17.9389167 C101.220895,19.1530168 102.674569,20.0538007 102.674569,22.1491023 C102.674569,24.1856572 101.200982,25.458504 98.8113801,25.458504 C96.2226451,25.458504 94.1914838,23.3632024 93.1559898,19.622991 L91.9611891,19.622991 L92.2001492,24.8122895 C93.7135635,25.9480605 96.1629051,26.6530218 98.6919,26.6530218 C103.052923,26.6530218 105.741224,24.4206443 105.741224,20.8175087 C105.761138,17.508107 103.45119,16.0198554 99.727394,14.6686795" id="Shape"></path>
                </g>
            </g>
        </g>
    </g>
</svg>