<?xml version="1.0" encoding="UTF-8"?>
<svg width="70px" height="78px" viewBox="0 0 70 78" version="1.1" xmlns="http://www.w3.org/2000/svg" xmlns:xlink="http://www.w3.org/1999/xlink">
    <!-- Generator: Sketch 43.2 (39069) - http://www.bohemiancoding.com/sketch -->
    <title>Group 45</title>
    <desc>Created with Sketch.</desc>
    <defs></defs>
    <g id="Page-1" stroke="none" stroke-width="1" fill="none" fill-rule="evenodd">
        <g id="Group-45" transform="translate(1.000000, 1.000000)" stroke="none" fill="#00A4A5">
            <path d="M4.9998,71.25 L4.9998,37.082 L63.3318,37.082 L63.33571,71.25 L4.9998,71.25 Z M14.6365,24.531 C14.6365,13.761 23.3982,5 34.1675,5 C44.9368,5 53.6985,13.7617 53.6985,24.531 L53.6985,32.0818 L14.6365,32.0818 L14.6365,24.531 Z M63.3315,32.0818 L58.6987,32.0818 L58.6987,24.531 C58.6987,11.008 47.6907,0 34.1677,0 C20.6407,0 9.6367,11.008 9.6367,24.531 L9.6367,32.0818 L5,32.0818 C2.2422,32.0818 0,34.324 0,37.0818 L0,71.2498 C0,74.0076 2.2422,76.2498 5,76.2498 L63.332,76.2498 C66.0898,76.2498 68.332,74.0076 68.332,71.2498 L68.332,37.0818 C68.332,34.324 66.0898,32.0818 63.332,32.0818 L63.3315,32.0818 Z M34.1675,53.9058 C32.0542,53.9058 30.3394,52.191 30.3394,50.0777 C30.3394,47.9644 32.0542,46.2496 34.1675,46.2496 C36.2769,46.2496 37.9956,47.9644 37.9956,50.0777 C37.9956,52.191 36.2768,53.9058 34.1675,53.9058 Z M34.1675,41.2498 C29.3003,41.2498 25.3394,45.2107 25.3394,50.0779 C25.3394,54.0701 28.023,57.4138 31.6675,58.5037 L31.6675,63.1248 C31.6675,64.5076 32.7847,65.6248 34.1675,65.6248 C35.5503,65.6248 36.6675,64.5076 36.6675,63.1248 L36.6675,58.5037 C40.312,57.4139 42.9956,54.0701 42.9956,50.0779 C42.9956,45.2107 39.0347,41.2498 34.1675,41.2498 Z" id="Page-1"></path>
        </g>
    </g>
</svg>
