<?xml version="1.0" encoding="UTF-8"?>
<svg width="46px" height="51px" viewBox="0 0 46 51" version="1.1" xmlns="http://www.w3.org/2000/svg" xmlns:xlink="http://www.w3.org/1999/xlink">
    <!-- Generator: Sketch 47.1 (45422) - http://www.bohemiancoding.com/sketch -->
    <title>theft-protection copy</title>
    <desc>Created with Sketch.</desc>
    <defs></defs>
    <g id="Form-Flows/Comparison" stroke="none" stroke-width="1" fill="none" fill-rule="evenodd">
        <g id="theft-protection-copy" transform="translate(1.000000, 1.000000)" stroke="#FFFFFF" stroke-width="0.5" fill="#2B2727" fill-rule="nonzero">
            <path d="M3.26073913,46.4673913 L3.26073913,24.183913 L41.3033478,24.183913 L41.3058978,46.4673913 L3.26073913,46.4673913 Z M9.54554348,15.9984783 C9.54554348,8.97456522 15.2596957,3.26086957 22.2831522,3.26086957 C29.3066087,3.26086957 35.0207609,8.97502174 35.0207609,15.9984783 L35.0207609,20.922913 L9.54554348,20.922913 L9.54554348,15.9984783 Z M41.3031522,20.922913 L38.2817609,20.922913 L38.2817609,15.9984783 C38.2817609,7.17913043 31.1026304,0 22.2832826,0 C13.4613261,0 6.28480435,7.17913043 6.28480435,15.9984783 L6.28480435,20.922913 L3.26086957,20.922913 C1.46230435,20.922913 0,22.3852174 0,24.1837826 L0,46.4672609 C0,48.2658261 1.46230435,49.7281304 3.26086957,49.7281304 L41.3034783,49.7281304 C43.1020435,49.7281304 44.5643478,48.2658261 44.5643478,46.4672609 L44.5643478,24.1837826 C44.5643478,22.3852174 43.1020435,20.922913 41.3034783,20.922913 L41.3031522,20.922913 Z M22.2831522,35.1559565 C20.904913,35.1559565 19.7865652,34.0376087 19.7865652,32.6593696 C19.7865652,31.2811304 20.904913,30.1627826 22.2831522,30.1627826 C23.6588478,30.1627826 24.7797391,31.2811304 24.7797391,32.6593696 C24.7797391,34.0376087 23.6587826,35.1559565 22.2831522,35.1559565 Z M22.2831522,26.9020435 C19.1088913,26.9020435 16.5256957,29.4852391 16.5256957,32.6595 C16.5256957,35.2631087 18.2758696,37.4437826 20.6527174,38.154587 L20.6527174,41.1683478 C20.6527174,42.0701739 21.3813261,42.7987826 22.2831522,42.7987826 C23.1849783,42.7987826 23.913587,42.0701739 23.913587,41.1683478 L23.913587,38.154587 C26.2904348,37.4438478 28.0406087,35.2631087 28.0406087,32.6595 C28.0406087,29.4852391 25.457413,26.9020435 22.2831522,26.9020435 Z" id="Page-1"></path>
        </g>
    </g>
</svg>