<?xml version="1.0" encoding="UTF-8"?>
<svg width="26px" height="32px" viewBox="0 0 26 32" version="1.1" xmlns="http://www.w3.org/2000/svg" xmlns:xlink="http://www.w3.org/1999/xlink">
    <!-- Generator: Sketch 48.2 (47327) - http://www.bohemiancoding.com/sketch -->
    <title>noun_1351290</title>
    <desc>Created with Sketch.</desc>
    <defs>
        <polygon id="path-1" points="13.9860445 0 554.429688 0 554.429688 124 13.9860445 124 13.9860445 72.8933616 0.4296875 62.3549072 13.9860445 51.1428923"></polygon>
    </defs>
    <g id="Comparison-3.0---Coverage-and-Term-Tooltips" stroke="none" stroke-width="1" fill="none" fill-rule="evenodd" transform="translate(-328.000000, -501.000000)">
        <g id="Group-6" transform="translate(281.000000, 310.000000)">
            <g id="Group-3" transform="translate(0.000000, 148.000000)">
                <g id="Rectangle-12">
                    <use fill="#FFFFFF" fill-rule="evenodd" xlink:href="#path-1"></use>
                    <path stroke="#979797" stroke-width="1" d="M14.4860445,0.5 L14.4860445,51.3782116 L1.22881706,62.3428263 L14.4860445,72.6487431 L14.4860445,123.5 L553.929688,123.5 L553.929688,0.5 L14.4860445,0.5 Z"></path>
                </g>
                <g id="noun_1351290" transform="translate(47.000000, 43.000000)" fill="#000000" fill-rule="nonzero">
                    <path d="M20,8 C20,8.55228475 20.3167797,9 20.7075472,9 L22.2924528,9 C22.6832203,9 23,8.55228475 23,8 C23,7.44771525 22.6832203,7 22.2924528,7 L20.7075472,7 C20.519894,7 20.3399266,7.10535684 20.2072358,7.29289322 C20.0745449,7.4804296 20,7.73478351 20,8 Z" id="Shape"></path>
                    <path d="M7,8 C7,8.55228475 7.31677966,9 7.70754717,9 L9.29245283,9 C9.68322034,9 10,8.55228475 10,8 C10,7.44771525 9.68322034,7 9.29245283,7 L7.70754717,7 C7.31677966,7 7,7.44771525 7,8 Z" id="Shape"></path>
                    <path d="M16,2.29245283 L16,0.70754717 C16,0.316779658 15.5522847,0 15,0 C14.4477153,-6.28428127e-17 14,0.316779658 14,0.70754717 L14,2.29245283 C14,2.68322034 14.4477153,3 15,3 C15.5522847,3 16,2.68322034 16,2.29245283 Z" id="Shape"></path>
                    <path d="M19.5766029,2.24423206 L18.2442131,3.57662192 C17.9185956,3.90223935 17.9185956,4.4301695 18.2442131,4.75578693 C18.5698305,5.08140435 19.0977606,5.08140436 19.4233781,4.75578694 L20.7557679,3.42339709 C20.9664055,3.21275954 21.0486688,2.90574863 20.9715701,2.6180124 C20.8944714,2.33027616 20.6697238,2.10552858 20.3819876,2.02842989 C20.0942514,1.95133119 19.7872405,2.03359452 19.5766029,2.24423206 Z" id="Shape"></path>
                    <path d="M11.1658652,4.99999505 C11.5030913,5.00059871 11.8073801,4.79762827 11.9365126,4.48594841 C12.0656451,4.17426855 11.9941175,3.8154363 11.7553605,3.57716331 L10.4231676,2.24429985 C10.0975983,1.91856671 9.56974625,1.91856672 9.24417697,2.24429988 C8.91860769,2.57003304 8.91860768,3.09815084 9.24417694,3.42388401 L10.5763698,4.75674747 C10.7326122,4.91319476 10.9448171,5.00075834 11.1658652,4.99999505 Z" id="Shape"></path>
                    <path d="M1.64592517,14.9667755 C0.736905801,14.9667755 0,15.6760419 0,16.5509663 L0,30.4158043 C0,31.2907288 0.736905801,31.9999951 1.64592517,31.9999951 L6.41252448,31.9999951 C7.27838678,32.0020393 7.99784171,31.3580421 8.05844965,30.5266977 L9.07892326,31.1160167 C10.0503736,31.677333 11.1620004,31.9741106 12.295061,31.9746481 L19.2507408,31.9746481 C20.0920527,31.9833059 20.9260568,31.8236244 21.6998775,31.5057276 C23.9218765,30.5552131 24.2708126,28.885476 24.1062201,27.7765424 C25.274899,26.8319006 25.7027801,25.2834108 25.1760715,23.9047801 C25.7268942,23.2633486 26.0190682,22.4523235 25.999034,21.6203769 C25.9630516,20.9686683 25.7283326,20.3416154 25.3242047,19.8175678 C25.8419131,18.6699736 25.5382171,17.3322626 24.570371,16.4971038 C24.5023394,16.4358485 24.431016,16.3777615 24.3564007,16.3228428 C23.982009,16.0548826 23.5501235,15.8708546 23.0923302,15.784218 L23.0561198,15.784218 C20.873623,15.3374762 19.4054578,15.3089607 17.246004,15.3089607 C17.1637077,14.8305351 17.1669996,13.8261581 17.8187859,11.9346343 C18.4211945,10.1825192 18.3685249,8.73456884 17.6607771,7.62880365 C17.0698458,6.73379154 16.0967877,6.13727051 15.0042539,6.0002555 L14.9022065,6.0002555 C14.125817,5.98726749 13.4343072,6.47061573 13.2069036,7.18523023 C13.1952428,7.22258073 13.186441,7.26070336 13.1805688,7.29929197 L12.93368,9.01021804 C12.8593131,9.52416994 12.703905,10.0241916 12.472821,10.4930206 L10.0730621,15.3438129 C9.70875067,16.1554992 8.95747794,16.7462626 8.05844965,16.9280037 L8.05844965,16.5509663 C8.05844965,15.6760419 7.32154385,14.9667755 6.41252448,14.9667755 L1.64592517,14.9667755 Z M1.64592517,30.4158043 L1.64592517,16.5509663 L6.41252448,16.5509663 L6.41252448,30.4158043 L1.64592517,30.4158043 Z M8.22962587,18.5216997 C9.71154698,18.2715303 10.9620774,17.318163 11.5543947,15.9869944 L13.9344025,11.1488756 C14.2370153,10.5337436 14.440164,9.87770603 14.5368111,9.20348932 L14.7902836,7.6034566 C14.8021303,7.59238039 14.8169491,7.58470032 14.8330777,7.58127793 C15.4136403,7.66982028 15.9286411,7.98954247 16.2518652,8.46208802 C16.6863894,9.14012169 16.6863894,10.1698457 16.2518652,11.4371984 C15.6132462,13.2875332 15.4157352,14.7481572 15.6593321,15.7810496 C15.8139344,16.4370525 16.4220499,16.9010794 17.1209137,16.8963199 C19.2968267,16.8963199 20.6399017,16.9153302 22.7170592,17.336725 L22.7499777,17.336725 C22.9694046,17.3749395 23.1773545,17.4593271 23.3589701,17.5838587 L23.4643093,17.669405 C24.307023,18.4013012 23.7737432,19.3391422 23.6618203,19.5134031 C23.4444401,19.8407354 23.5057859,20.2714951 23.8066617,20.5304536 C24.1271112,20.8426046 24.3239325,21.252869 24.3629844,21.6900813 C24.3435629,22.2797739 24.0762684,22.8366184 23.6223181,23.2330832 C23.3690767,23.4907725 23.3246975,23.8790875 23.513687,24.1835977 C23.5498974,24.2437969 24.3959029,25.6600635 22.7203511,26.8450382 C22.4324347,27.0535676 22.3156994,27.4161739 22.4306683,27.7448586 C22.5195482,27.9983291 22.8684844,29.2973656 21.0612585,30.0609456 C20.4883264,30.2914117 19.871545,30.403665 19.2507408,30.3904573 L12.2818936,30.3904573 C11.4479093,30.3892458 10.6298968,30.1702386 9.91505324,29.756781 L8.05844965,28.685868 L8.05844965,18.5470467 L8.22962587,18.5216997 Z" id="Shape"></path>
                    <circle id="Oval" cx="4" cy="28" r="1"></circle>
                </g>
            </g>
        </g>
    </g>
</svg>