<?xml version="1.0" encoding="UTF-8"?>
<svg width="41px" height="43px" viewBox="0 0 41 43" version="1.1" xmlns="http://www.w3.org/2000/svg" xmlns:xlink="http://www.w3.org/1999/xlink">
    <!-- Generator: Sketch 47.1 (45422) - http://www.bohemiancoding.com/sketch -->
    <title>Thumbs Up</title>
    <desc>Created with Sketch.</desc>
    <defs></defs>
    <g id="Landing-Pages" stroke="none" stroke-width="1" fill="none" fill-rule="evenodd">
        <g id="Thumbs-Up" fill-rule="nonzero" fill="#2B2727">
            <g id="Group-3">
                <path d="M39.3569101,17.382282 C37.9863582,15.7821731 35.9648248,14.8644927 33.8106309,14.8644927 C33.8093988,14.8644927 33.8085774,14.8644927 33.8073452,14.8644927 L26.9558176,14.8680511 C26.8424606,14.8680511 26.7705856,14.8126977 26.729925,14.766438 C26.689675,14.7201784 26.6461394,14.6426836 26.6662643,14.5351399 C27.2769958,11.2582181 27.4568884,8.93416567 27.3291564,5.96129224 L27.3192993,5.72208643 C27.2502994,4.11367453 26.5984966,2.59026964 25.4624622,1.40926513 C24.3629813,0.266217236 22.7640725,-0.233940351 21.2842707,0.103715443 C20.8070212,0.212445353 20.3515396,0.397483891 19.930558,0.653295716 C18.7785058,1.35391172 18.0913816,2.55468531 18.0934352,3.86616571 L18.0971316,5.95259384 C18.0995959,7.5578427 17.8219533,8.39842375 17.1405791,10.0700967 C16.500687,11.6385751 15.5774024,13.0405978 14.3953681,14.2374176 C13.848708,14.7913471 13.871708,15.6675125 14.447118,16.1937652 C15.0221173,16.7208088 15.9318484,16.6974813 16.4793299,16.1443425 C17.9176497,14.6873618 19.0405412,12.9840583 19.8163796,11.0814826 C20.537593,9.31333652 20.9750032,8.08528161 20.9717175,5.94903541 L20.9680211,3.86181652 C20.9676103,3.5075547 21.153253,3.18334188 21.4649848,2.99355876 C21.6169489,2.90143488 21.7791808,2.83501079 21.9475735,2.79665878 C22.4186622,2.6895104 22.957108,2.87850275 23.3743932,3.31263163 C24.0245532,3.98873398 24.4052849,4.88506382 24.4459455,5.83556092 L24.4558027,6.07476673 C24.5740882,8.82701729 24.4056956,10.9873818 23.8352141,14.0464484 C23.6692857,14.938429 23.9202319,15.8485972 24.5248026,16.5432825 C25.1285519,17.2375724 26.0140508,17.6361169 26.9545854,17.6361169 C26.9554069,17.6361169 26.9562283,17.6361169 26.956639,17.6361169 L33.8081666,17.6325585 C33.8085774,17.6325585 33.8093988,17.6325585 33.8098095,17.6325585 C35.1023258,17.6325585 36.3155744,18.1833249 37.1378234,19.1433112 C37.9604832,20.1036928 38.2906971,21.3550752 38.0434474,22.5771994 L35.5582182,34.8735638 C35.165165,36.8196315 33.3847207,38.2323296 31.324991,38.2323296 L15.4381704,38.2323296 C14.6442606,38.2323296 14.0006721,38.8518924 14.0006721,39.6161648 C14.0006721,40.3804372 14.6442606,41 15.4381704,41 L31.3262231,41 C34.7589691,41 37.7259656,38.6455032 38.3814648,35.4021888 L40.866694,23.1062198 C41.2778186,21.0692144 40.7278728,18.9831817 39.3569101,17.382282 Z" id="Shape"></path>
                <path d="M5.5,13 C2.46717809,13 0,15.4965239 0,18.5649405 L0,31.1980378 C0,31.9515951 0.603790108,32.5624716 1.34860586,32.5624716 C2.09342161,32.5624716 2.69721171,31.9515951 2.69721171,31.1980378 L2.69721171,18.5649405 C2.69721171,17.0012995 3.954883,15.7288675 5.5,15.7288675 C7.045117,15.7288675 8.30278829,17.0012995 8.30278829,18.5649405 L8.30278829,37.4354493 C8.30278829,38.9990904 7.045117,40.2711325 5.5,40.2711325 C3.954883,40.2711325 2.69721171,38.9990904 2.69721171,37.4354493 C2.69721171,36.681892 2.09342161,36.0710155 1.34860586,36.0710155 C0.603790108,36.0710155 0,36.681892 0,37.4354493 C0,40.5038659 2.46717809,43 5.5,43 C8.53282191,43 11,40.5038659 11,37.4354493 L11,18.5649405 C11.0003853,15.4965239 8.53320723,13 5.5,13 Z" id="Shape"></path>
            </g>
        </g>
    </g>
</svg>