<?xml version="1.0" encoding="UTF-8"?>
<svg width="20px" height="20px" viewBox="0 0 20 20" version="1.1" xmlns="http://www.w3.org/2000/svg" xmlns:xlink="http://www.w3.org/1999/xlink">
    <!-- Generator: Sketch 47 (45396) - http://www.bohemiancoding.com/sketch -->
    <title>Tooltip</title>
    <desc>Created with Sketch.</desc>
    <defs></defs>
    <g id="Old" stroke="none" stroke-width="1" fill="none" fill-rule="evenodd">
        <g id="Tooltip" transform="translate(1.000000, 1.000000)" fill-rule="nonzero">
            <circle id="Oval-2-Copy-2" stroke="#808080" cx="9" cy="9" r="9"></circle>
            <path d="M8.06657829,10.7066314 L9.62626002,10.7066314 L9.62626002,10.61565 C9.62626002,8.54907171 12.0827587,9.12095501 12.0827587,6.66445629 C12.0827587,5.10477456 10.8610081,4 9.08037141,4 C7.45570295,4 6.44190982,4.77984086 6,5.92360746 L7.61167112,6.61246689 C7.81962868,6.02758625 8.2875332,5.57267908 9.00238733,5.57267908 C9.75623349,5.57267908 10.2631301,6.04058359 10.2631301,6.67745363 C10.2631301,8.14615393 8.06657829,7.66525206 8.06657829,10.61565 L8.06657829,10.7066314 Z M8.84641915,14.2875332 C9.50928389,14.2875332 9.97718841,13.8066313 9.97718841,13.1437666 C9.97718841,12.4809019 9.52228124,12 8.84641915,12 C8.17055707,12 7.70265255,12.4809019 7.70265255,13.1437666 C7.70265255,13.8066313 8.17055707,14.2875332 8.84641915,14.2875332 Z" id="?-copy" fill="#808080"></path>
        </g>
    </g>
</svg>