<?xml version="1.0" encoding="UTF-8"?>
<svg width="24px" height="24px" viewBox="0 0 24 24" version="1.1" xmlns="http://www.w3.org/2000/svg" xmlns:xlink="http://www.w3.org/1999/xlink">
    <!-- Generator: Sketch 48.1 (47250) - http://www.bohemiancoding.com/sketch -->
    <title>Group 3</title>
    <desc>Created with Sketch.</desc>
    <defs></defs>
    <g id="Comparison-3.0---New-Left-Rail" stroke="none" stroke-width="1" fill="none" fill-rule="evenodd" transform="translate(-1149.000000, -26.000000)">
        <g id="Group-3" transform="translate(1149.000000, 26.000000)" fill-rule="nonzero">
            <circle id="Oval-2-Copy-2" stroke="#2B2727" stroke-width="2" cx="12" cy="12" r="11"></circle>
            <path d="M10.7554377,13.9421752 L12.8350134,13.9421752 L12.8350134,13.8208667 C12.8350134,11.0654289 16.1103449,11.82794 16.1103449,8.55260839 C16.1103449,6.47303275 14.4813441,5 12.1071619,5 C9.94093727,5 8.58921309,6.03978781 8,7.56480995 L10.1488948,8.48328919 C10.4261716,7.70344833 11.0500443,7.09690544 12.0031831,7.09690544 C13.0083113,7.09690544 13.6841735,7.72077812 13.6841735,8.56993817 C13.6841735,10.5282052 10.7554377,9.88700275 10.7554377,13.8208667 L10.7554377,13.9421752 Z M11.7952255,18.7167109 C12.6790452,18.7167109 13.3029179,18.0755084 13.3029179,17.1916888 C13.3029179,16.3078692 12.696375,15.6666667 11.7952255,15.6666667 C10.8940761,15.6666667 10.2702034,16.3078692 10.2702034,17.1916888 C10.2702034,18.0755084 10.8940761,18.7167109 11.7952255,18.7167109 Z" id="?-copy" fill="#2B2727"></path>
        </g>
    </g>
</svg>