<?xml version="1.0" encoding="UTF-8"?>
<svg width="200px" height="200px" viewBox="0 0 200 200" version="1.1" xmlns="http://www.w3.org/2000/svg" xmlns:xlink="http://www.w3.org/1999/xlink">
    <!-- Generator: Sketch Beta 47 (45392) - http://www.bohemiancoding.com/sketch -->
    <title>3x/Travelers/Color</title>
    <desc>Created with Sketch Beta.</desc>
    <defs></defs>
    <g id="Products" stroke="none" stroke-width="1" fill="none" fill-rule="evenodd">
        <g id="3x/Travelers/Color">
            <g id="Travel" transform="translate(0.000000, 25.000000)">
                <rect id="Rectangle" x="0" y="0" width="200" height="150"></rect>
                <path d="M67.1,92.5 L57.3,92.5 C55.5,92.5 54.1,91 54.1,89.3 C54.1,87.6 55.6,86.1 57.3,86.1 L67.1,86.1 C68.9,86.1 70.3,87.6 70.3,89.3 C70.3,91 68.9,92.5 67.1,92.5 Z" id="Shape" fill="#2B2727" fill-rule="nonzero"></path>
                <path d="M142.7,92.5 L132.9,92.5 C131.1,92.5 129.7,91 129.7,89.3 C129.7,87.6 131.2,86.1 132.9,86.1 L142.7,86.1 C144.5,86.1 145.9,87.6 145.9,89.3 C145.9,91 144.5,92.5 142.7,92.5 Z" id="Shape" fill="#2B2727" fill-rule="nonzero"></path>
                <path d="M186.7,68.9 L118.4,68.9 L111.9,48.5 C111.5,47.2 110.2,46.2 108.8,46.2 L103.3,46.2 L103.3,38.6 C103.3,36.8 101.8,35.4 100.1,35.4 C98.4,35.4 96.9,36.9 96.9,38.6 L96.9,46.2 L90.8,46.2 C89.4,46.2 88.1,47.1 87.7,48.5 L81.7,68.9 L13.5,68.9 C11.7,68.9 10.3,70.4 10.3,72.1 C10.3,73.8 11.8,75.3 13.5,75.3 L25.8,75.3 C23.7,77.7 22.4,80.7 22.4,84.1 C22.4,91.4 28.4,97.4 35.7,97.4 C43,97.4 49,91.4 49,84.1 C49,80.7 47.7,77.6 45.6,75.3 L84.1,75.3 C85.5,75.3 86.8,74.4 87.2,73 L93.2,52.6 L106.5,52.6 L113,73 C113.4,74.3 114.7,75.3 116.1,75.3 L154.6,75.3 C152.5,77.7 151.2,80.7 151.2,84.1 C151.2,91.4 157.2,97.4 164.5,97.4 C171.8,97.4 177.8,91.4 177.8,84.1 C177.8,80.7 176.5,77.6 174.4,75.3 L186.7,75.3 C188.5,75.3 189.9,73.8 189.9,72.1 C189.9,70.4 188.5,68.9 186.7,68.9 Z M35.5,91.1 C31.7,91.1 28.7,88 28.7,84.3 C28.7,80.5 31.8,77.5 35.5,77.5 C39.3,77.5 42.3,80.6 42.3,84.3 C42.3,88 39.3,91.1 35.5,91.1 Z M164.5,91.1 C160.7,91.1 157.7,88 157.7,84.3 C157.7,80.5 160.8,77.5 164.5,77.5 C168.2,77.5 171.3,80.6 171.3,84.3 C171.3,88 168.3,91.1 164.5,91.1 Z" id="Shape" fill="#2B2727" fill-rule="nonzero"></path>
                <path d="M100,113.7 C86.5,113.7 75.6,102.7 75.6,89.3 C75.6,75.9 86.6,64.9 100,64.9 C113.5,64.9 124.4,75.9 124.4,89.3 C124.4,102.7 113.5,113.7 100,113.7 Z M100,71.3 C90.1,71.3 82.1,79.3 82.1,89.2 C82.1,99.1 90.1,107.1 100,107.1 C109.9,107.1 117.9,99.1 117.9,89.2 C117.9,79.3 109.9,71.3 100,71.3 Z" id="Shape" fill="#FF700A" fill-rule="nonzero"></path>
                <path d="M100,97.8 C95.3,97.8 91.5,94 91.5,89.3 C91.5,84.6 95.3,80.8 100,80.8 C104.7,80.8 108.5,84.6 108.5,89.3 C108.5,93.9 104.7,97.8 100,97.8 Z M100,87.2 C98.9,87.2 98,88.1 98,89.2 C98,90.3 98.9,91.2 100,91.2 C101.1,91.2 102,90.3 102,89.2 C102,88.1 101.1,87.2 100,87.2 Z" id="Shape" fill="#2B2727" fill-rule="nonzero"></path>
            </g>
        </g>
    </g>
</svg>