<?xml version="1.0" encoding="UTF-8"?>
<svg width="42px" height="42px" viewBox="0 0 42 42" version="1.1" xmlns="http://www.w3.org/2000/svg" xmlns:xlink="http://www.w3.org/1999/xlink">
    <!-- Generator: Sketch 47 (45396) - http://www.bohemiancoding.com/sketch -->
    <title>Content / TV</title>
    <desc>Created with Sketch.</desc>
    <defs></defs>
    <g id="Content" stroke="none" stroke-width="1" fill="none" fill-rule="evenodd">
        <g id="Content-/-TV" fill="#2B2727">
            <g id="Group-18">
                <path d="M37.6076039,9.57284464 L23.2642917,9.57284464 L30.4366316,2.40232815 C30.8817962,1.95716353 30.8817962,1.235991 30.4366316,0.790808137 C29.991467,0.34564351 29.2702945,0.34564351 28.8251116,0.790808137 L20.5131473,9.10094898 L12.2030065,0.788984738 C11.7578419,0.343820111 11.0366693,0.343820111 10.5914865,0.788984738 C10.1463219,1.23414936 10.1463219,1.9553219 10.5914865,2.40050476 L17.762003,9.57284464 L3.41869075,9.57284464 C1.53297711,9.57284464 -0.000182339898,11.1060041 -0.000182339898,12.9917177 L-0.000182339898,38.0634537 C-0.000182339898,39.9491678 1.53297711,41.4823268 3.41869075,41.4823268 L37.6074216,41.4823268 C39.4931352,41.4823268 41.0262947,39.9491678 41.0262947,38.0634537 L41.0262947,12.9917177 C41.0262947,11.1060041 39.4931352,9.57284464 37.6074216,9.57284464 L37.6076039,9.57284464 Z M38.7472283,38.0634537 C38.7472283,38.6920249 38.2361752,39.203078 37.6076039,39.203078 L3.41887309,39.203078 C2.79030187,39.203078 2.27924872,38.6920249 2.27924872,38.0634537 L2.27924872,12.9917177 C2.27924872,12.3631465 2.79030187,11.8520934 3.41887309,11.8520934 L37.6076039,11.8520934 C38.2361752,11.8520934 38.7472283,12.3631465 38.7472283,12.9917177 L38.7472283,38.0634537 Z" id="Fill-1" stroke="#FFFFFF" stroke-width="0.25"></path>
                <path d="M28.4935499,14.1313421 L5.70106263,14.1313421 C5.07071361,14.1313421 4.56143827,14.6406174 4.56143827,15.2709664 L4.56143827,35.784205 C4.56143827,36.414554 5.07071361,36.9238293 5.70106263,36.9238293 L28.4935499,36.9238293 C29.1238989,36.9238293 29.6331742,36.414554 29.6331742,35.784205 L29.6331742,15.2709664 C29.6331742,14.6406174 29.1238989,14.1313421 28.4935499,14.1313421 Z M27.3539255,34.6445806 L6.840687,34.6445806 L6.840687,16.4105908 L27.3539255,16.4105908 L27.3539255,34.6445806 Z" id="Fill-2" stroke="#FFFFFF" stroke-width="0.25"></path>
                <path d="M34.1887309,14.1313421 C32.9315884,14.1313421 31.9094821,15.1534484 31.9094821,16.4105908 C31.9094821,17.6677332 32.9315884,18.6898395 34.1887309,18.6898395 C35.4458733,18.6898395 36.4679796,17.6677332 36.4679796,16.4105908 C36.4679796,15.1534484 35.4458733,14.1313421 34.1887309,14.1313421 Z" id="Fill-3"></path>
                <path d="M34.1887309,20.9690883 C32.9315884,20.9690883 31.9094821,21.9911946 31.9094821,23.248337 C31.9094821,24.5054794 32.9315884,25.5275857 34.1887309,25.5275857 C35.4458733,25.5275857 36.4679796,24.5054794 36.4679796,23.248337 C36.4679796,21.9911946 35.4458733,20.9690883 34.1887309,20.9690883 Z" id="Fill-4"></path>
            </g>
        </g>
    </g>
</svg>
