<?xml version="1.0" encoding="UTF-8"?>
<svg width="26px" height="26px" viewBox="0 0 26 26" version="1.1" xmlns="http://www.w3.org/2000/svg" xmlns:xlink="http://www.w3.org/1999/xlink">
    <!-- Generator: Sketch Beta 47 (45392) - http://www.bohemiancoding.com/sketch -->
    <title>1x/Twitter</title>
    <desc>Created with Sketch Beta.</desc>
    <defs></defs>
    <g id="Social-Media" stroke="none" stroke-width="1" fill="none" fill-rule="evenodd">
        <g id="1x/Twitter" fill-rule="nonzero">
            <g id="Twitter-Logo">
                <path d="M12.969637,0 C20.1329932,0 25.939363,5.80717123 25.939363,12.969726 C25.939363,20.1330822 20.1329932,25.939363 12.969637,25.939363 C5.80628082,25.939363 0,20.1329932 0,12.969726 C0,5.80717123 5.80636986,0 12.969637,0 Z" id="Shape" fill="#2B2727"></path>
                <path d="M21.0781644,8.7375137 C20.5115959,8.98228767 19.9019315,9.14683562 19.2624384,9.22145205 C19.9158219,8.84124658 20.4167671,8.24057534 20.652637,7.52326027 C20.0414589,7.87586301 19.3653699,8.13123288 18.6447603,8.26817808 C18.0683973,7.67240411 17.2472603,7.30030137 16.3377945,7.30030137 C14.5933904,7.30030137 13.1780822,8.67269178 13.1780822,10.3667877 C13.1780822,10.6075548 13.2056849,10.8418219 13.259911,11.0663836 C10.6335548,10.9383425 8.30388356,9.71669863 6.74593151,7.86126027 C6.47355479,8.31439041 6.31791096,8.84044521 6.31791096,9.40300685 C6.31791096,10.4665137 6.87557534,11.4067877 7.7235137,11.955637 C7.20476027,11.9394315 6.71832877,11.8023973 6.29119863,11.5714247 L6.29119863,11.6103356 C6.29119863,13.0969658 7.38061644,14.3364178 8.82673288,14.6185 C8.56165753,14.6882192 8.28278082,14.7263288 7.99419863,14.7263288 C7.79073973,14.7263288 7.59297945,14.7077192 7.4000274,14.6712123 C7.80204795,15.890363 8.96937671,16.7771233 10.3530753,16.8015205 C9.2709589,17.6250616 7.90827397,18.1146986 6.42734247,18.1146986 C6.1719726,18.1146986 5.92069863,18.1000959 5.67263014,18.0717808 C7.07253425,18.9423356 8.73270548,19.4505822 10.5184247,19.4505822 C16.3320959,19.4505822 19.5113082,14.7750342 19.5113082,10.7219726 L19.5024041,10.3247603 C20.1183904,9.89344521 20.6542397,9.35358904 21.0781644,8.7375137 Z" id="Shape" fill="#FFFFFF"></path>
            </g>
        </g>
    </g>
</svg>