<?xml version="1.0" encoding="UTF-8"?>
<svg width="188px" height="148px" viewBox="0 0 188 148" version="1.1" xmlns="http://www.w3.org/2000/svg" xmlns:xlink="http://www.w3.org/1999/xlink">
    <!-- Generator: Sketch 44.1 (41455) - http://www.bohemiancoding.com/sketch -->
    <title>Group 9</title>
    <desc>Created with Sketch.</desc>
    <defs></defs>
    <g id="PPC-Calculator-Modal" stroke="none" stroke-width="1" fill="none" fill-rule="evenodd">
        <g id="Group-9" fill="#00A4A5">
            <path d="M46.3309063,114.606261 L46.3309063,102.62218 C46.3309063,100.983142 45.0221564,99.8975342 43.0462213,99.8975342 L20.3871508,99.8975342 C18.4112157,99.8975342 17.1024658,100.983142 17.1024658,102.62218 L17.1024658,114.606261 C17.1024658,116.245299 18.4112157,117.330906 20.3871508,117.330906 L43.0462213,117.330906 C45.0221564,117.330906 46.3309063,116.234672 46.3309063,114.606261 Z M22.001371,112.56007 L22.001371,104.66837 L41.4320011,104.66837 L41.4320011,112.56007 L22.001371,112.56007 Z" id="Fill-2-Copy-5" transform="translate(31.716686, 108.614220) rotate(-270.000000) translate(-31.716686, -108.614220) "></path>
            <path d="M59.3309063,114.606261 L59.3309063,102.62218 C59.3309063,100.983142 58.0221564,99.8975342 56.0462213,99.8975342 L33.3871508,99.8975342 C31.4112157,99.8975342 30.1024658,100.983142 30.1024658,102.62218 L30.1024658,114.606261 C30.1024658,116.245299 31.4112157,117.330906 33.3871508,117.330906 L56.0462213,117.330906 C58.0221564,117.330906 59.3309063,116.234672 59.3309063,114.606261 Z M35.001371,112.56007 L35.001371,104.66837 L54.4320011,104.66837 L54.4320011,112.56007 L35.001371,112.56007 Z" id="Fill-2-Copy-6" transform="translate(44.716686, 108.614220) rotate(-270.000000) translate(-44.716686, -108.614220) "></path>
            <path d="M157.330906,114.606261 L157.330906,102.62218 C157.330906,100.983142 156.022156,99.8975342 154.046221,99.8975342 L131.387151,99.8975342 C129.411216,99.8975342 128.102466,100.983142 128.102466,102.62218 L128.102466,114.606261 C128.102466,116.245299 129.411216,117.330906 131.387151,117.330906 L154.046221,117.330906 C156.022156,117.330906 157.330906,116.234672 157.330906,114.606261 Z M133.001371,112.56007 L133.001371,104.66837 L152.432001,104.66837 L152.432001,112.56007 L133.001371,112.56007 Z" id="Fill-2-Copy-5" transform="translate(142.716686, 108.614220) rotate(-270.000000) translate(-142.716686, -108.614220) "></path>
            <path d="M170.330906,114.606261 L170.330906,102.62218 C170.330906,100.983142 169.022156,99.8975342 167.046221,99.8975342 L144.387151,99.8975342 C142.411216,99.8975342 141.102466,100.983142 141.102466,102.62218 L141.102466,114.606261 C141.102466,116.245299 142.411216,117.330906 144.387151,117.330906 L167.046221,117.330906 C169.022156,117.330906 170.330906,116.234672 170.330906,114.606261 Z M146.001371,112.56007 L146.001371,104.66837 L165.432001,104.66837 L165.432001,112.56007 L146.001371,112.56007 Z" id="Fill-2-Copy-6" transform="translate(155.716686, 108.614220) rotate(-270.000000) translate(-155.716686, -108.614220) "></path>
            <path d="M53.2284404,85.7087266 L53.2284404,73.7246456 C53.2284404,72.0856078 51.9196906,71 49.9437555,71 L27.2846849,71 C25.3087499,71 24,72.0856078 24,73.7246456 L24,85.7087266 C24,87.3477643 25.3087499,88.4333721 27.2846849,88.4333721 L49.9437555,88.4333721 C51.9196906,88.4333721 53.2284404,87.3371382 53.2284404,85.7087266 Z M28.7851763,83.7087266 L28.7851763,75.7246456 L48.4432641,75.7246456 L48.4432641,83.7087266 L28.7851763,83.7087266 Z" id="Fill-2-Copy-14"></path>
            <path d="M164.22844,85.7087266 L164.22844,73.7246456 C164.22844,72.0856078 162.919691,71 160.943756,71 L138.284685,71 C136.30875,71 135,72.0856078 135,73.7246456 L135,85.7087266 C135,87.3477643 136.30875,88.4333721 138.284685,88.4333721 L160.943756,88.4333721 C162.919691,88.4333721 164.22844,87.3371382 164.22844,85.7087266 Z M139.785176,83.7087266 L139.785176,75.7246456 L159.443264,75.7246456 L159.443264,83.7087266 L139.785176,83.7087266 Z" id="Fill-2-Copy-15"></path>
            <path d="M108.22844,90.7087266 L108.22844,78.7246456 C108.22844,77.0856078 106.919691,76 104.943756,76 L82.2846849,76 C80.3087499,76 79,77.0856078 79,78.7246456 L79,90.7087266 C79,92.3477643 80.3087499,93.4333721 82.2846849,93.4333721 L104.943756,93.4333721 C106.919691,93.4333721 108.22844,92.3371382 108.22844,90.7087266 Z M83.7851763,88.7087266 L83.7851763,80.7246456 L103.443264,80.7246456 L103.443264,88.7087266 L83.7851763,88.7087266 Z" id="Fill-2-Copy-16"></path>
            <path d="M186.791442,56.5332691 L167.940317,21.630439 L53.690715,21.630439 L53.690715,2 L53.690715,2 C53.690715,0.8954305 52.7952845,-4.2495073e-16 51.690715,-2.22044605e-16 L37.0499905,0 L37.0499905,0 C35.945421,2.02906125e-16 35.0499905,0.8954305 35.0499905,2 L35.0499905,21.630439 L18.8145208,21.630439 L0.234831293,56.5441436 L0.234831293,56.5441436 C-0.284075429,57.5192382 0.0857379627,58.7303657 1.06083262,59.2492724 C1.3500881,59.4032027 1.67273301,59.4837073 2.00039636,59.4837073 L11.5987564,59.4837073 L11.5987564,132.486439 L5.78167841,132.486439 L5.78167841,132.486439 C4.67710891,132.486439 3.78167841,133.38187 3.78167841,134.486439 L3.78167841,136.494894 L3.78167841,136.494894 C3.78167841,137.599464 4.67710891,138.494894 5.78167841,138.494894 L60.3051657,138.494894 L60.3051657,145.507577 L60.3051657,145.507577 C60.3051657,146.612147 61.2005962,147.507577 62.3051657,147.507577 L79.5472039,147.507577 L107.207634,147.507577 L124.449672,147.507577 L124.449672,147.507577 C125.554242,147.507577 126.449672,146.612147 126.449672,145.507577 L126.449672,138.494894 L180.973159,138.494894 L180.973159,138.494894 C182.077729,138.494894 182.973159,137.599464 182.973159,136.494894 L182.973159,134.486439 L182.973159,134.486439 C182.973159,133.38187 182.077729,132.486439 180.973159,132.486439 L175.156081,132.486439 L175.156081,59.4837073 L185.031707,59.4837073 L185.031707,59.4837073 C186.136276,59.4837073 187.031707,58.5882768 187.031707,57.4837073 C187.031707,57.1518682 186.949138,56.8252436 186.791442,56.5332691 Z M41.0631275,6.00845528 L47.6775781,6.00845528 L47.6775781,21.630439 L41.0631275,21.630439 L41.0631275,6.00845528 Z M8.59218796,53.475252 L22.4224029,27.6388943 L34.7493337,27.6388943 L53.3900582,27.6388943 L164.031778,27.6388943 L177.861993,53.475252 L175.156081,53.475252 L109.913545,53.475252 L93.3774189,41.1579187 L76.8412923,53.475252 L11.2980996,53.475252 L8.59218796,53.475252 Z M17.3112365,132.486439 L17.3112365,59.4837073 L68.7235574,59.4837073 L60.0045088,65.7925854 L60.0045088,132.486439 L17.3112365,132.486439 L17.3112365,132.486439 Z M85.5603408,141.499122 L85.5603408,109.053463 L101.194497,109.053463 L101.194497,141.499122 L85.5603408,141.499122 L85.5603408,141.499122 Z M120.737192,141.499122 L107.508291,141.499122 L107.508291,105.045008 L107.508291,105.045008 C107.508291,103.940439 106.61286,103.045008 105.508291,103.045008 L81.8478607,103.045008 L81.8478607,103.045008 C80.7432912,103.045008 79.8478607,103.940439 79.8478607,105.045008 L79.8478607,141.499122 L66.6189595,141.499122 L66.6189595,68.796813 L93.6780757,48.6684878 L120.737192,68.796813 L120.737192,141.499122 Z M118.03128,59.4837073 L169.443601,59.4837073 L169.443601,132.486439 L126.750329,132.486439 L126.750329,65.7925854 L118.03128,59.4837073 Z" id="Shape" fill-rule="nonzero"></path>
        </g>
    </g>
</svg>
