<?xml version="1.0" encoding="UTF-8"?>
<svg width="74px" height="58px" viewBox="0 0 74 58" version="1.1" xmlns="http://www.w3.org/2000/svg" xmlns:xlink="http://www.w3.org/1999/xlink">
    <!-- Generator: Sketch 47.1 (45422) - http://www.bohemiancoding.com/sketch -->
    <title>Group Copy</title>
    <desc>Created with Sketch.</desc>
    <defs></defs>
    <g id="Form-Flows/Comparison" stroke="none" stroke-width="1" fill="none" fill-rule="evenodd">
        <g id="Group-Copy" fill-rule="nonzero" fill="#2B2727">
            <path d="M18.1567065,44.9132644 L18.1567065,40.2168003 C18.1567065,39.5744745 17.643818,39.1490337 16.869465,39.1490337 L7.98955904,39.1490337 C7.21520609,39.1490337 6.70231762,39.5744745 6.70231762,40.2168003 L6.70231762,44.9132644 C6.70231762,45.5555901 7.21520609,45.9810307 7.98955904,45.9810307 L16.869465,45.9810307 C17.643818,45.9810307 18.1567065,45.5514255 18.1567065,44.9132644 Z M8.62215885,44.1113788 L8.62215885,41.0186855 L16.2368652,41.0186855 L16.2368652,44.1113788 L8.62215885,44.1113788 Z" id="Fill-2-Copy-5" transform="translate(12.429512, 42.565032) rotate(90.000000) translate(-12.429512, -42.565032) "></path>
            <path d="M23.2513011,44.9132644 L23.2513011,40.2168003 C23.2513011,39.5744745 22.7384126,39.1490337 21.9640596,39.1490337 L13.0841536,39.1490337 C12.3098007,39.1490337 11.7969122,39.5744745 11.7969122,40.2168003 L11.7969122,44.9132644 C11.7969122,45.5555901 12.3098007,45.9810307 13.0841536,45.9810307 L21.9640596,45.9810307 C22.7384126,45.9810307 23.2513011,45.5514255 23.2513011,44.9132644 Z M13.7167534,44.1113788 L13.7167534,41.0186855 L21.3314598,41.0186855 L21.3314598,44.1113788 L13.7167534,44.1113788 Z" id="Fill-2-Copy-6" transform="translate(17.524107, 42.565032) rotate(90.000000) translate(-17.524107, -42.565032) "></path>
            <path d="M61.6567064,44.9132644 L61.6567064,40.2168002 C61.6567064,39.5744745 61.1438179,39.1490336 60.3694649,39.1490336 L51.4895591,39.1490336 C50.7152062,39.1490336 50.2023177,39.5744745 50.2023177,40.2168002 L50.2023177,44.9132644 C50.2023177,45.5555901 50.7152062,45.9810307 51.4895591,45.9810307 L60.3694649,45.9810307 C61.1438179,45.9810307 61.6567064,45.5514255 61.6567064,44.9132644 Z M52.1221589,44.1113787 L52.1221589,41.0186855 L59.7368652,41.0186855 L59.7368652,44.1113787 L52.1221589,44.1113787 Z" id="Fill-2-Copy-5" transform="translate(55.929512, 42.565032) rotate(90.000000) translate(-55.929512, -42.565032) "></path>
            <path d="M66.751301,44.9132644 L66.751301,40.2168002 C66.751301,39.5744745 66.2384124,39.1490336 65.4640595,39.1490336 L56.5841537,39.1490336 C55.8098008,39.1490336 55.2969123,39.5744745 55.2969123,40.2168002 L55.2969123,44.9132644 C55.2969123,45.5555901 55.8098008,45.9810307 56.5841537,45.9810307 L65.4640595,45.9810307 C66.2384124,45.9810307 66.751301,45.5514255 66.751301,44.9132644 Z M57.2167535,44.1113787 L57.2167535,41.0186855 L64.8314598,41.0186855 L64.8314598,44.1113787 L57.2167535,44.1113787 Z" id="Fill-2-Copy-6" transform="translate(61.024107, 42.565032) rotate(90.000000) translate(-61.024107, -42.565032) "></path>
            <path d="M20.8597942,33.588555 L20.8597942,28.8920908 C20.8597942,28.2497652 20.3469058,27.8243243 19.5725528,27.8243243 L10.6926468,27.8243243 C9.91829388,27.8243243 9.40540541,28.2497652 9.40540541,28.8920908 L9.40540541,33.588555 C9.40540541,34.2308806 9.91829388,34.6563215 10.6926468,34.6563215 L19.5725528,34.6563215 C20.3469058,34.6563215 20.8597942,34.2267163 20.8597942,33.588555 Z M11.2806772,32.8047712 L11.2806772,29.6758746 L18.9845224,29.6758746 L18.9845224,32.8047712 L11.2806772,32.8047712 Z" id="Fill-2-Copy-14"></path>
            <path d="M64.3597941,33.588555 L64.3597941,28.8920908 C64.3597941,28.2497652 63.8469059,27.8243243 63.072553,27.8243243 L54.1926468,27.8243243 C53.4182939,27.8243243 52.9054054,28.2497652 52.9054054,28.8920908 L52.9054054,33.588555 C52.9054054,34.2308806 53.4182939,34.6563215 54.1926468,34.6563215 L63.072553,34.6563215 C63.8469059,34.6563215 64.3597941,34.2267163 64.3597941,33.588555 Z M54.7806771,32.8047712 L54.7806771,29.6758746 L62.4845224,29.6758746 L62.4845224,32.8047712 L54.7806771,32.8047712 Z" id="Fill-2-Copy-15"></path>
            <path d="M42.4138481,35.5480145 L42.4138481,30.8515503 C42.4138481,30.2092247 41.90096,29.7837838 41.1266071,29.7837838 L32.2467008,29.7837838 C31.4723479,29.7837838 30.9594595,30.2092247 30.9594595,30.8515503 L30.9594595,35.5480145 C30.9594595,36.1903401 31.4723479,36.615781 32.2467008,36.615781 L41.1266071,36.615781 C41.90096,36.615781 42.4138481,36.1861758 42.4138481,35.5480145 Z M32.8347313,34.7642307 L32.8347313,31.6353341 L40.5385764,31.6353341 L40.5385764,34.7642307 L32.8347313,34.7642307 Z" id="Fill-2-Copy-16"></path>
            <path d="M73.2020516,22.1549298 L65.8144486,8.47679366 L21.0409559,8.47679366 L21.0409559,0.783783784 L21.0409559,0.783783784 C21.0409559,0.350911953 20.6900439,-7.95172652e-17 20.2571721,0 L14.5195909,8.70174803e-17 L14.5195909,8.70174803e-17 C14.086719,1.66534746e-16 13.7358071,0.350911953 13.7358071,0.783783784 L13.7358071,8.47679366 L7.37325815,8.47679366 L0.0920284798,22.1591914 L0.0920284798,22.1591914 C-0.111326857,22.5413231 0.0336000125,23.0159541 0.415731703,23.2193095 C0.52908858,23.2796335 0.655530504,23.3111826 0.783939114,23.3111826 L4.54545859,23.3111826 L4.54545859,51.9203612 L2.26579289,51.9203612 L2.26579289,51.9203612 C1.83292106,51.9203612 1.48200911,52.2712734 1.48200911,52.704145 L1.48200911,53.4912422 L1.48200911,53.4912422 C1.48200911,53.9241143 1.83292106,54.275026 2.26579289,54.275026 L23.6331055,54.275026 L23.6331055,57.0232396 L23.6331055,57.0232396 C23.6331055,57.4561117 23.9840174,57.8070234 24.4168893,57.8070234 L31.1739042,57.8070234 L42.0138025,57.8070234 L48.7708174,57.8070234 L48.7708174,57.8070234 C49.2036894,57.8070234 49.5546012,57.4561117 49.5546012,57.0232396 L49.5546012,54.275026 L70.9219137,54.275026 L70.9219137,54.275026 C71.3547857,54.275026 71.7056974,53.9241143 71.7056974,53.4912422 L71.7056974,52.704145 L71.7056974,52.704145 C71.7056974,52.2712734 71.3547857,51.9203612 70.9219137,51.9203612 L68.642248,51.9203612 L68.642248,23.3111826 L72.5124257,23.3111826 L72.5124257,23.3111826 C72.9452974,23.3111826 73.2962095,22.9602706 73.2962095,22.5273988 C73.2962095,22.3973538 73.2638514,22.2693522 73.2020516,22.1549298 Z M16.0923067,2.35466491 L18.6844563,2.35466491 L18.6844563,8.47679366 L16.0923067,8.47679366 L16.0923067,2.35466491 Z M3.3672088,20.9565177 L8.78715789,10.8314586 L13.6179821,10.8314586 L20.9231309,10.8314586 L64.2827238,10.8314586 L69.7026729,20.9565177 L68.642248,20.9565177 L43.0742271,20.9565177 L36.5938534,16.1294546 L30.1134794,20.9565177 L4.42763363,20.9565177 L3.3672088,20.9565177 Z M6.78413322,51.9203612 L6.78413322,23.3111826 L26.9322049,23.3111826 L23.5152805,25.7835808 L23.5152805,51.9203612 L6.78413322,51.9203612 L6.78413322,51.9203612 Z M33.5304038,55.4523586 L33.5304038,42.7371679 L39.6573029,42.7371679 L39.6573029,55.4523586 L33.5304038,55.4523586 L33.5304038,55.4523586 Z M47.3159266,55.4523586 L42.1316276,55.4523586 L42.1316276,41.1662869 L42.1316276,41.1662869 C42.1316276,40.7334153 41.7807154,40.3825031 41.3478438,40.3825031 L32.075513,40.3825031 L32.075513,40.3825031 C31.6426411,40.3825031 31.2917292,40.7334153 31.2917292,41.1662869 L31.2917292,55.4523586 L26.1074301,55.4523586 L26.1074301,26.9609132 L36.7116783,19.0727858 L47.3159266,26.9609132 L47.3159266,55.4523586 Z M46.2555016,23.3111826 L66.4035734,23.3111826 L66.4035734,51.9203612 L49.6724262,51.9203612 L49.6724262,25.7835808 L46.2555016,23.3111826 Z" id="Shape"></path>
        </g>
    </g>
</svg>