<?xml version="1.0" encoding="UTF-8"?>
<svg width="19px" height="19px" viewBox="0 0 19 19" version="1.1" xmlns="http://www.w3.org/2000/svg" xmlns:xlink="http://www.w3.org/1999/xlink">
    <!-- Generator: Sketch 44.1 (41455) - http://www.bohemiancoding.com/sketch -->
    <title>user</title>
    <desc>Created with Sketch.</desc>
    <defs></defs>
    <g id="Mobile-Hamburger-Menu" stroke="none" stroke-width="1" fill="none" fill-rule="evenodd">
        <g id="Artboard" transform="translate(-778.000000, -220.000000)" fill="#4D4D4D">
            <g id="Group-Copy-6" transform="translate(778.000000, 214.000000)">
                <path d="M17.9115213,24.3468727 C18.2281891,24.247914 18.4261065,23.9312462 18.3469395,23.5947867 C17.9511048,21.7343635 16.9219345,20.7447767 15.5167212,19.8541486 C15.1208865,19.6166477 14.6458848,19.4187304 14.1312997,19.2010213 C13.1615046,18.8249783 12.0729591,18.3895601 11.8354583,17.6572658 C11.6969161,17.1822642 11.8948335,16.5291369 12.4292104,15.697884 C14.0719245,13.0457913 14.3688005,10.7499499 13.3000468,8.90931841 C12.4687938,7.4843134 11.0635806,6.63326874 9.50003341,6.63326874 C7.95627798,6.63326874 6.53127297,7.4843134 5.70002005,8.90931841 C4.63126629,10.7499499 4.92814233,13.0457913 6.59064818,15.697884 C7.12502506,16.5291369 7.32294242,17.1822642 7.16460853,17.6572658 C6.92710769,18.3895601 5.8385622,18.8249783 4.88855886,19.2010213 C4.35418198,19.4187304 3.85938857,19.6166477 3.48334558,19.8541486 C2.07813231,20.7447767 1.04896202,21.7343635 0.653127297,23.5947867 C0.573960352,23.9312462 0.771877714,24.247914 1.08854549,24.3468727 C1.16771244,24.3666644 3.34480343,25 9.50003341,25 C12.5677525,25 14.6458848,24.8416661 15.9719312,24.6833322 C17.2979775,24.5249983 17.8719378,24.3468727 17.9115213,24.3468727 Z" id="user"></path>
            </g>
        </g>
    </g>
</svg>
