<?xml version="1.0" encoding="UTF-8"?>
<svg width="44px" height="46px" viewBox="0 0 44 46" version="1.1" xmlns="http://www.w3.org/2000/svg" xmlns:xlink="http://www.w3.org/1999/xlink">
    <!-- Generator: Sketch 47.1 (45422) - http://www.bohemiancoding.com/sketch -->
    <title>Using Tablet</title>
    <desc>Created with Sketch.</desc>
    <defs></defs>
    <g id="Landing-Pages" stroke="none" stroke-width="1" fill="none" fill-rule="evenodd">
        <g id="Using-Tablet" fill-rule="nonzero" fill="#2B2727">
            <g id="Group">
                <path d="M44,6.52704982 C43.9425581,2.87950291 40.948885,-0.0367137534 37.3,0.00040155755 L6.7047619,0.00040155755 C3.05402762,-0.039352565 0.0574438173,2.87762626 0,6.52704982 L0,28.4253591 C0.0150746485,30.1866296 0.730420583,31.8695492 1.98824116,33.1028862 C3.24606174,34.3362232 4.94301079,35.0186431 6.7047619,34.9996124 L11.8714286,34.9996124 C12.5289104,34.9996124 13.0619048,34.466775 13.0619048,33.8094869 C13.0619048,33.1521987 12.5289104,32.6193614 11.8714286,32.6193614 L6.7047619,32.6193614 C4.36340149,32.6592068 2.43043656,30.7991697 2.38095238,28.4586826 L2.38095238,6.52704982 C2.42785161,4.18468994 4.36158105,2.32178814 6.7047619,2.36161056 L37.3,2.36161056 C39.6413358,2.3244408 41.5721431,4.18657831 41.6190476,6.52704982 L41.6190476,24.7121675 C41.6190476,25.3694557 42.152042,25.902293 42.8095238,25.902293 C43.4670057,25.902293 44,25.3694557 44,24.7121675 L44,6.52704982 Z" id="Shape"></path>
                <path d="M36.8276197,23.8317308 C37.4751074,23.8317308 38,23.2936115 38,22.6298077 L38,7.20192308 C38,6.53811929 37.4751074,6 36.8276197,6 L10.1723803,6 C9.52489256,6 9,6.53811929 9,7.20192308 L9,29.7980769 C9,30.4618807 9.52489256,31 10.1723803,31 C10.8198681,31 11.3447607,30.4618807 11.3447607,29.7980769 L11.3447607,8.41346154 L35.6552393,8.41346154 L35.6552393,22.6298077 C35.6552393,23.2936115 36.1801319,23.8317308 36.8276197,23.8317308 Z" id="Shape"></path>
                <path d="M19.0100733,40.591422 C19.2679731,41.0792414 19.6028449,41.5211313 20.0014607,41.899636 C20.4509795,42.3245713 20.9753447,42.6602212 21.5472732,42.8891215 L23.4689672,43.6978356 L23.5582391,43.7311356 C23.9090138,43.8479471 24.1855007,44.1243625 24.3053035,44.4780068 L24.5355309,45.1915781 C24.7505078,45.8061771 25.4141492,46.130942 26.0233757,45.9196817 C26.6326022,45.7084215 26.9602444,45.0399111 26.7579301,44.4209211 L26.5136071,43.6978356 C26.1572502,42.65694 25.348229,41.8395787 24.3193991,41.4810075 L22.4399917,40.691322 C21.8569546,40.4756208 21.3766264,40.0437131 21.0962155,39.483008 L16.3976971,30.2684245 C16.3976971,30.2684245 16.4211897,30.2113388 16.3976971,30.2065816 C17.526433,30.0472272 18.6389061,30.5916313 19.2168081,31.5861527 L20.4713125,33.7744379 C20.4940874,33.815514 20.5191881,33.8552231 20.5464888,33.8933665 C21.4204132,35.0636233 22.9709243,35.7962232 24.2442228,34.9494519 C24.5613622,34.7372123 24.7574434,34.3826987 24.7704568,33.9980236 L25.198022,16.3965992 C25.2229901,15.8330313 25.6792297,15.3878208 26.2363946,15.383328 C26.786742,15.3909384 27.2317832,15.8394268 27.2418775,16.3965992 L27.4345167,26.0298112 C27.4407874,26.36954 27.590282,26.6903294 27.8452792,26.9112358 C28.1002764,27.1321423 28.4364213,27.2320671 28.768896,27.1857966 C32.4007203,26.9088558 36.0010091,28.0377826 38.8425194,30.3445387 C39.3505852,30.7655546 39.6426259,31.3971646 39.636569,32.0618669 L39.636569,37.8227655 C39.636569,39.9587222 38.2786972,41.5904218 37.6960809,42.1993359 C37.2897839,42.6159812 36.9786428,43.117745 36.7845683,43.6692927 L36.5214513,44.4209211 C36.3854832,44.8245673 36.4725324,45.270995 36.7498084,45.5920392 C37.0270844,45.9130833 37.4524624,46.0599697 37.8657065,45.9773677 C38.2789507,45.8947656 38.6172794,45.5952243 38.7532475,45.1915781 L39.0163645,44.4399497 C39.0969607,44.2147744 39.2252563,44.0101876 39.392246,43.8405498 C40.3648393,42.8320358 41.9999237,40.7055934 41.9999237,37.803737 L41.9999237,32.0380812 C42.0078731,30.6540572 41.3941919,29.3413712 40.3319497,28.4702249 C37.3547653,26.0556888 33.6547093,24.7387233 29.8401582,24.7358686 L29.7696804,24.7358686 L29.6005337,16.3299992 C29.5626612,14.4959293 28.0951052,13.0226904 26.2833797,13 L26.2269975,13 C24.3983957,13.0044286 22.9042507,14.4792909 22.8534613,16.3299992 L22.4634843,32.5042811 L21.2418695,30.387353 C20.1828165,28.5634549 18.143192,27.5647106 16.0734993,27.8565536 C15.3019729,27.9599995 14.6287083,28.4377901 14.2694782,29.1367995 C13.9102481,29.8358088 13.9101698,30.6682455 14.2692683,31.3673242 L19.0100733,40.591422 Z" id="Shape"></path>
                <path d="M4,18.5220581 C4.01214089,19.3475043 4.68903059,20.0079908 5.51457161,19.9999269 C6.34011264,19.991863 7.00396971,19.31828 6.99998213,18.4927542 C6.99599455,17.6672284 6.32566133,17.0000893 5.50008092,17 C4.66805324,17.012059 3.99991261,17.6899883 4,18.5220581 Z" id="Shape"></path>
            </g>
        </g>
    </g>
</svg>