<?xml version="1.0" encoding="UTF-8"?>
<svg width="48px" height="82px" viewBox="0 0 48 82" version="1.1" xmlns="http://www.w3.org/2000/svg" xmlns:xlink="http://www.w3.org/1999/xlink">
    <!-- Generator: Sketch 43.2 (39069) - http://www.bohemiancoding.com/sketch -->
    <title>Group 41</title>
    <desc>Created with Sketch.</desc>
    <defs></defs>
    <g id="Page-1" stroke="none" stroke-width="1" fill="none" fill-rule="evenodd">
        <g id="Group-41" fill="#4D4D4D">
            <g id="Page-1">
                <path d="M29.4107548,26.6322292 L27.2034197,26.6322292 L22.4266428,19.6546911 C22.1308547,19.21971 21.645232,18.9641122 21.1243479,18.9641122 L20.7137797,18.9641122 L20.7137797,12.6098125 C20.7137797,11.7219188 20.0030044,11 19.1289422,11 L11.818098,11 C10.9439793,11 10.2332605,11.7219762 10.2332605,12.6098125 L10.2332605,18.9641122 L9.86242914,18.9641122 C9.34148854,18.9641122 8.85587707,19.2241986 8.56013416,19.6546911 L3.77894967,26.6322292 L1.58483749,26.6322292 C0.710718752,26.6322292 0,27.3542054 0,28.2420417 L0,80.3901875 C0,81.2780812 0.71077526,82 1.58483749,82 L29.4107548,82 C30.2848736,82 30.9955923,81.2780238 30.9955923,80.3901875 L31,28.2466337 C31,27.3542628 30.2892247,26.632344 29.4107548,26.632344 L29.4107548,26.6322292 Z M13.4030259,14.220268 L17.5396744,14.220268 L17.5396744,18.7717796 L13.4030259,18.7717796 L13.4030259,14.220268 Z M10.692426,22.1843802 L20.2988717,22.1843802 L23.3097577,26.58344 L7.6546419,26.623803 L10.692426,22.1843802 Z M27.8258043,78.7809489 L3.17001404,78.7809489 L3.17001404,70.0634173 L27.8212837,70.0634173 L27.8258043,78.7809489 Z M27.8258043,66.8396595 L3.17001404,66.8396595 L3.17001404,41.7953248 L27.8212837,41.7953248 L27.8258043,66.8396595 Z M27.8258043,38.5752406 L3.17001404,38.5752406 L3.17001404,29.857709 L4.60476494,29.857709 L4.60917261,29.857709 L27.8217357,29.857709 L27.8258043,38.5752406 Z" id="Fill-1"></path>
                <path d="M47.1132681,28.395891 L46.6551588,28.18632 C45.8079063,27.8021098 44.72426,28.0310841 44.2364911,28.6985937 C43.7488232,29.3661132 44.0394542,30.2198562 44.8867067,30.6041459 L45.344816,30.8137169 C45.6255983,30.9417902 45.9260781,31 46.2265578,31 C46.8373786,31 47.4334074,30.7477379 47.7635089,30.3014333 C48.2511768,29.6339237 47.9605458,28.7801708 47.1132933,28.3958811 L47.1132681,28.395891 Z" id="Fill-2"></path>
                <path d="M41.1945981,24.72686 L40.4116308,24.2341882 C39.6420759,23.7512692 38.6578317,24.03907 38.2148005,24.8780719 C37.7718608,25.7170862 38.0358355,26.7901675 38.805379,27.2731864 L39.5883463,27.7658582 C39.8433756,27.9268354 40.1162957,28 40.3892158,28 C40.9440128,28 41.4853746,27.6829283 41.7851995,27.1219745 C42.2281392,26.2829601 41.9641645,25.2098789 41.194621,24.72686 L41.1945981,24.72686 Z" id="Fill-3"></path>
                <path d="M26.8053932,20.2731864 L27.588357,20.7658582 C27.8433852,20.9268354 28.1163041,21 28.389223,21 C28.9440175,21 29.4853769,20.6829283 29.7852005,20.1219745 C30.2281382,19.2829601 29.9641646,18.2098789 29.1946246,17.72686 L28.4116608,17.2341882 C27.6421093,16.7512692 26.6578695,17.03907 26.2148402,17.8780719 C25.7718109,18.7170737 26.0358761,19.7901675 26.8054161,20.2731864 L26.8053932,20.2731864 Z" id="Fill-4"></path>
                <path d="M35.1946063,21.72686 L34.411647,21.2341882 C33.6420999,20.7512692 32.6578657,21.03907 32.214839,21.8780719 C31.7718122,22.7170737 32.0358759,23.7901675 32.8054115,24.2731864 L33.5883708,24.7658582 C33.8433976,24.9268354 34.1163149,25 34.3892322,25 C34.9440236,25 35.4853798,24.6829283 35.7852017,24.1219745 C36.2281369,23.2829601 35.9641648,22.2147491 35.1946292,21.72686 L35.1946063,21.72686 Z" id="Fill-5"></path>
                <path d="M27.610771,14 C27.8836923,14 28.1610921,13.9219528 28.4116441,13.7658584 L29.1946149,13.2731869 C29.9641733,12.7902682 30.2281377,11.7171128 29.7851961,10.878074 C29.3422545,10.0390602 28.3579372,9.75127204 27.5883559,10.2341907 L26.8053851,10.7268622 C26.0358267,11.2097809 25.7718623,12.2829363 26.2148039,13.1219751 C26.5145729,13.682941 27.0559486,14 27.6107939,14 L27.610771,14 Z" id="Fill-6"></path>
                <path d="M39.610771,7 C39.8836923,7 40.1610921,6.92195289 40.4116441,6.76585868 L41.1946149,6.27318787 C41.9641733,5.79026983 42.2281377,4.71711586 41.7851961,3.87807824 C41.3422545,3.03904062 40.3579372,2.75127781 39.5883559,3.23419585 L38.8053851,3.72686665 C38.0358267,4.20978469 37.7718623,5.28293866 38.2148039,6.12197629 C38.5145729,6.68294143 39.0559486,7 39.6107939,7 L39.610771,7 Z" id="Fill-7"></path>
                <path d="M33.5883468,7.23519068 L32.8053805,7.72773133 C32.0358265,8.2105218 31.7718636,9.28339227 32.2148027,10.1222082 C32.51457,10.6830252 33.0514641,11 33.6107847,11 C33.8837044,11 34.1611026,10.9219735 34.4116532,10.7659205 L35.1946195,10.2733799 C35.9641735,9.79058942 36.2281364,8.71771894 35.7851973,7.87890297 C35.3377913,7.03524312 34.3534796,6.75240022 33.5883697,7.23519068 L33.5883468,7.23519068 Z" id="Fill-8"></path>
                <path d="M45.7734282,3 C46.0739098,3 46.3793221,2.93790567 46.6551756,2.81371701 L47.1132877,2.60414615 C47.9605455,2.21993624 48.2511784,1.36613422 47.7635074,0.698595317 C47.2758363,0.0310762882 46.1921201,-0.197887865 45.3448244,0.186322051 L44.8867123,0.395892903 C44.0394545,0.78010282 43.7488216,1.63390484 44.2364926,2.30144374 C44.5665331,2.74774799 45.1625657,3 45.7734534,3 L45.7734282,3 Z" id="Fill-9"></path>
                <path d="M33,15.4999903 C33,14.6684974 32.2528764,14 31.3341154,14 L30.6658846,14 C29.7424312,14 29,14.6727226 29,15.4999903 C29,16.3314832 29.7471236,16.9999806 30.6658846,16.9999806 L31.3341154,16.9999806 C32.2529358,17.004163 33,16.3314404 33,15.4999903 Z" id="Fill-10"></path>
                <path d="M44.6658972,17 L45.3341244,17 C46.2575728,17 47,16.3272731 47,15.5 C47,14.6685017 46.2528804,14 45.3341244,14 L44.6658972,14 C43.7424487,14 43.0000215,14.6727269 43.0000215,15.5 C42.9953766,16.3273265 43.7424962,17 44.6658972,17 Z" id="Fill-11"></path>
                <path d="M38.3341154,17 C39.2575688,17 40,16.3272731 40,15.5 C40,14.6685017 39.2528764,14 38.3341154,14 L37.6658846,14 C36.7424312,14 36,14.6727269 36,15.5 C36,16.3314983 36.7471236,17 37.6658846,17 L38.3341154,17 Z" id="Fill-12"></path>
            </g>
        </g>
    </g>
</svg>