<?xml version="1.0" encoding="UTF-8"?>
<svg width="45px" height="77px" viewBox="0 0 45 77" version="1.1" xmlns="http://www.w3.org/2000/svg" xmlns:xlink="http://www.w3.org/1999/xlink">
    <!-- Generator: Sketch 47.1 (45422) - http://www.bohemiancoding.com/sketch -->
    <title>vandalizism copy</title>
    <desc>Created with Sketch.</desc>
    <defs></defs>
    <g id="Form-Flows/Comparison" stroke="none" stroke-width="1" fill="none" fill-rule="evenodd">
        <g id="vandalizism-copy" fill-rule="nonzero" fill="#2B2727">
            <path d="M27.5725826,24.9677149 L25.503206,24.9677149 L21.0249776,18.4262729 C20.7476763,18.0184781 20.292405,17.7788552 19.8040762,17.7788552 L19.4191685,17.7788552 L19.4191685,11.8216992 C19.4191685,10.9892989 18.7528166,10.3125 17.9333833,10.3125 L11.0794669,10.3125 C10.2599806,10.3125 9.59368172,10.9893527 9.59368172,11.8216992 L9.59368172,17.7788552 L9.24602732,17.7788552 C8.75764551,17.7788552 8.30238475,18.0226862 8.02512577,18.4262729 L3.54276532,24.9677149 L1.48578515,24.9677149 C0.66629883,24.9677149 0,25.6445676 0,26.4769141 L0,75.3658008 C0,76.1982011 0.666351806,76.875 1.48578515,76.875 L27.5725826,76.875 C28.392069,76.875 29.0583678,76.1981473 29.0583678,75.3658008 L29.0625,26.4812191 C29.0625,25.6446214 28.3961482,24.9678225 27.5725826,24.9678225 L27.5725826,24.9677149 Z M12.5653368,13.3315013 L16.4434447,13.3315013 L16.4434447,17.5985434 L12.5653368,17.5985434 L12.5653368,13.3315013 Z M10.0241494,20.7978564 L19.0301922,20.7978564 L21.8528978,24.921975 L7.17622678,24.9598153 L10.0241494,20.7978564 Z M26.0866915,73.8571396 L2.97188816,73.8571396 L2.97188816,65.6844537 L26.0824535,65.6844537 L26.0866915,73.8571396 Z M26.0866915,62.6621808 L2.97188816,62.6621808 L2.97188816,39.183117 L26.0824535,39.183117 L26.0866915,62.6621808 Z M26.0866915,36.1642881 L2.97188816,36.1642881 L2.97188816,27.9916022 L4.31696713,27.9916022 L4.32109932,27.9916022 L26.0828772,27.9916022 L26.0866915,36.1642881 Z" id="Fill-1"></path>
            <path d="M44.1686888,26.6211478 L43.7392114,26.424675 C42.9449122,26.0644779 41.9289937,26.2791413 41.4717104,26.9049316 C41.0145217,27.5307311 41.2869883,28.3311152 42.0812875,28.6913868 L42.510765,28.8878596 C42.7739984,29.0079283 43.0556982,29.0625 43.3373979,29.0625 C43.9100424,29.0625 44.4688194,28.8260043 44.7782896,28.4075937 C45.2354782,27.7818035 44.9630117,26.9814101 44.1687125,26.6211385 L44.1686888,26.6211478 Z" id="Fill-2"></path>
            <path d="M38.6199357,23.1814312 L37.8859039,22.7195514 C37.1644462,22.2668149 36.2417172,22.5366281 35.8263755,23.3231924 C35.4111195,24.1097683 35.6585958,25.115782 36.3800428,25.5686123 L37.1140747,26.0304921 C37.3531646,26.1814082 37.6090272,26.25 37.8648898,26.25 C38.385012,26.25 38.8925387,25.9527453 39.1736245,25.4268511 C39.5888805,24.6402751 39.3414042,23.6342615 38.6199572,23.1814312 L38.6199357,23.1814312 Z" id="Fill-3"></path>
            <path d="M25.1300561,19.0061123 L25.8640847,19.4679921 C26.1031736,19.6189082 26.3590351,19.6875 26.6148966,19.6875 C27.1350164,19.6875 27.6425408,19.3902453 27.9236255,18.8643511 C28.3388796,18.0777751 28.0914043,17.0717615 27.3699606,16.6189313 L26.635932,16.1570514 C25.9144775,15.7043149 24.9917527,15.9741281 24.5764127,16.7606924 C24.1610727,17.5472566 24.4086338,18.553282 25.1300776,19.0061123 L25.1300561,19.0061123 Z" id="Fill-4"></path>
            <path d="M32.9949434,20.3689312 L32.2609191,19.9070514 C31.5394687,19.4543149 30.6167491,19.7241281 30.2014116,20.5106924 C29.7860739,21.2972566 30.0336337,22.303282 30.7550733,22.7561123 L31.4890976,23.2179921 C31.7281853,23.3689082 31.9840452,23.4375 32.2399052,23.4375 C32.7600221,23.4375 33.2675436,23.1402453 33.5486266,22.6143511 C33.9638783,21.8277751 33.7164045,20.8263273 32.9949649,20.3689312 L32.9949434,20.3689312 Z" id="Fill-5"></path>
            <path d="M25.8850978,13.125 C26.1409615,13.125 26.4010238,13.0518307 26.6359163,12.9054922 L27.3699515,12.4436127 C28.0914125,11.9908764 28.3388791,10.9847932 27.9236213,10.1981944 C27.5083636,9.41161894 26.5855661,9.14181754 25.8640837,9.59455378 L25.1300485,10.0564333 C24.4085875,10.5091696 24.1611209,11.5152528 24.5763787,12.3018517 C24.8574121,12.8277572 25.3649518,13.125 25.8851193,13.125 L25.8850978,13.125 Z" id="Fill-6"></path>
            <path d="M37.1350978,6.5625 C37.3909615,6.5625 37.6510238,6.48933083 37.8859163,6.34299251 L38.6199515,5.88111363 C39.3414125,5.42837797 39.5888791,4.42229612 39.1736213,3.63569835 C38.7583636,2.84910058 37.8355661,2.57932295 37.1140837,3.03205861 L36.3800485,3.49393748 C35.6585875,3.94667315 35.4111209,4.95275499 35.8263787,5.73935277 C36.1074121,6.26525759 36.6149518,6.5625 37.1351193,6.5625 L37.1350978,6.5625 Z" id="Fill-7"></path>
            <path d="M31.4890751,6.78299126 L30.7550442,7.24474812 C30.0335873,7.69736419 29.7861221,8.70318025 30.2013775,9.48957019 C30.4824094,10.0153361 30.9857476,10.3125 31.5101107,10.3125 C31.7659729,10.3125 32.0260337,10.2393502 32.2609249,10.0930505 L32.9949558,9.63129366 C33.7164127,9.17867758 33.9638779,8.17286151 33.5486225,7.38647153 C33.1291793,6.59554042 32.2063871,6.33037521 31.4890966,6.78299126 L31.4890751,6.78299126 Z" id="Fill-8"></path>
            <path d="M42.9125889,2.8125 C43.1942904,2.8125 43.4806145,2.75428657 43.7392271,2.6378597 L44.1687072,2.44138702 C44.9630114,2.08119022 45.2354798,1.28075083 44.7782882,0.65493311 C44.3210965,0.0291340202 43.3051126,-0.185519873 42.5107729,0.174676923 L42.0812928,0.371149597 C41.2869886,0.731346394 41.0145203,1.53178579 41.4717118,2.15760351 C41.7811248,2.57601374 42.3399053,2.8125 42.9126126,2.8125 L42.9125889,2.8125 Z" id="Fill-9"></path>
            <path d="M30.9375,14.5312409 C30.9375,13.7517163 30.2370716,13.125 29.3757332,13.125 L28.7492668,13.125 C27.8835292,13.125 27.1875,13.7556774 27.1875,14.5312409 C27.1875,15.3107655 27.8879284,15.9374818 28.7492668,15.9374818 L29.3757332,15.9374818 C30.2371273,15.9414028 30.9375,15.3107254 30.9375,14.5312409 Z" id="Fill-10"></path>
            <path d="M41.8742786,15.9375 L42.5007416,15.9375 C43.3664745,15.9375 44.0625,15.3068185 44.0625,14.53125 C44.0625,13.7517203 43.3620754,13.125 42.5007416,13.125 L41.8742786,13.125 C41.0085457,13.125 40.3125202,13.7556815 40.3125202,14.53125 C40.3081656,15.3068686 41.0085902,15.9375 41.8742786,15.9375 Z" id="Fill-11"></path>
            <path d="M35.9382332,15.9375 C36.8039707,15.9375 37.5,15.3068185 37.5,14.53125 C37.5,13.7517203 36.7995716,13.125 35.9382332,13.125 L35.3117668,13.125 C34.4460292,13.125 33.75,13.7556815 33.75,14.53125 C33.75,15.3107797 34.4504284,15.9375 35.3117668,15.9375 L35.9382332,15.9375 Z" id="Fill-12"></path>
        </g>
    </g>
</svg>