<?xml version="1.0" encoding="UTF-8"?>
<svg width="14px" height="16px" viewBox="0 0 14 16" version="1.1" xmlns="http://www.w3.org/2000/svg" xmlns:xlink="http://www.w3.org/1999/xlink">
    <!-- Generator: Sketch 46.2 (44496) - http://www.bohemiancoding.com/sketch -->
    <title>Shape</title>
    <desc>Created with Sketch.</desc>
    <defs></defs>
    <g id="Quotes" stroke="none" stroke-width="1" fill="none" fill-rule="evenodd">
        <g id="Comparison---Desktop" transform="translate(-102.000000, -632.000000)" fill-rule="nonzero" fill="#78C07F">
            <g id="Result-1" transform="translate(71.000000, 462.000000)">
                <g id="Sub-Panel" transform="translate(0.000000, 153.000000)">
                    <path d="M33.9186977,32.9069767 C33.2837209,30.9387907 33.8098605,28.7808372 35.2790698,27.3255814 C34.7555349,28.6487442 34.9568372,30.1490233 35.8106047,31.2874419 C36.6643721,32.4258605 38.048186,33.0390698 39.4651163,32.9069767 C41.5566512,32.6813023 43.3897674,31.4072558 44.3306047,29.5257674 C45.2714419,27.644093 45.1906977,25.4132093 44.1162791,23.6046512 C44.0223256,25.2945116 42.9216744,26.7622326 41.3255814,27.3255814 C42.6591628,23.2249302 40.6409302,18.7845581 36.6744186,17.0930233 C36.6744186,20.9782326 31.3581395,23.4493023 31.0930233,27.3255814 C30.939907,29.5635349 32.0243721,31.7054884 33.9186977,32.9069767 Z" id="Shape"></path>
                </g>
            </g>
        </g>
    </g>
</svg>