<?xml version="1.0" encoding="UTF-8"?>
<svg width="200px" height="200px" viewBox="0 0 200 200" version="1.1" xmlns="http://www.w3.org/2000/svg" xmlns:xlink="http://www.w3.org/1999/xlink">
    <!-- Generator: Sketch Beta 47 (45392) - http://www.bohemiancoding.com/sketch -->
    <title>3x/Vision/Color</title>
    <desc>Created with Sketch Beta.</desc>
    <defs></defs>
    <g id="Products" stroke="none" stroke-width="1" fill="none" fill-rule="evenodd">
        <g id="3x/Vision/Color">
            <g id="Vision" transform="translate(0.000000, 25.000000)">
                <rect id="Rectangle-Copy-5" x="0" y="0" width="200" height="150"></rect>
                <path d="M99.4,111.2 C82.8,111.2 66.2,104.9 53.5,92.2 L38.2,76.9 C38.2,76.9 38.2,76.9 38.2,76.9 C38.2,76.9 38.2,76.9 38.2,76.9 C38.2,76.9 38.2,76.9 38.2,76.9 C38.2,76.9 38.2,76.9 38.2,76.9 C38.2,76.9 38.2,76.9 38.2,76.9 C38.2,76.9 38.2,76.9 38.2,76.9 C38.2,76.9 38.2,76.9 38.2,76.9 C38.2,76.9 38.2,76.9 38.2,76.9 L38.2,76.9 C37,75.6 37,73.6 38.2,72.3 C38.2,72.3 38.2,72.3 38.2,72.3 L38.2,72.3 C38.2,72.3 38.2,72.3 38.2,72.3 L53.5,57 C78.8,31.7 119.9,31.7 145.2,57 L160.5,72.3 C160.5,72.3 160.5,72.3 160.5,72.3 L160.5,72.3 C160.5,72.3 160.5,72.3 160.5,72.3 C161.8,73.6 161.8,75.6 160.5,76.9 L160.5,76.9 C160.5,76.9 160.5,76.9 160.5,76.9 C160.5,76.9 160.5,76.9 160.5,76.9 C160.5,76.9 160.5,76.9 160.5,76.9 C160.5,76.9 160.5,76.9 160.5,76.9 C160.5,76.9 160.5,76.9 160.5,76.9 C160.5,76.9 160.5,76.9 160.5,76.9 C160.5,76.9 160.5,76.9 160.5,76.9 C160.5,76.9 160.5,76.9 160.5,76.9 L145.2,92.2 C132.6,104.9 116,111.2 99.4,111.2 Z M45.1,74.6 L58.1,87.6 C80.9,110.4 117.9,110.4 140.6,87.6 L153.6,74.6 L140.6,61.6 C117.8,38.8 80.8,38.9 58.1,61.6 L45.1,74.6 Z" id="Shape" fill="#2B2727" fill-rule="nonzero"></path>
                <path d="M99.4,99.1 C85.9,99.1 74.9,88.1 74.9,74.6 C74.9,61.1 85.9,50.1 99.4,50.1 C112.9,50.1 123.9,61.1 123.9,74.6 C123.9,88.1 113,99.1 99.4,99.1 Z M99.4,56.6 C89.5,56.6 81.4,64.7 81.4,74.6 C81.4,84.5 89.5,92.6 99.4,92.6 C109.3,92.6 117.4,84.5 117.4,74.6 C117.4,64.7 109.4,56.6 99.4,56.6 Z" id="Shape" fill="#FF700A" fill-rule="nonzero"></path>
                <path d="M99.4,84.6 C93.9,84.6 89.4,80.1 89.4,74.6 C89.4,69.1 93.9,64.6 99.4,64.6 C101.2,64.6 102.6,66.1 102.6,67.8 C102.6,69.5 101.1,71 99.4,71 C97.5,71 95.9,72.6 95.9,74.5 C95.9,76.4 97.5,78 99.4,78 C101.3,78 102.9,76.4 102.9,74.5 C102.9,72.7 104.4,71.3 106.1,71.3 C107.8,71.3 109.3,72.8 109.3,74.5 C109.4,80.1 105,84.6 99.4,84.6 Z" id="Shape" fill="#2B2727" fill-rule="nonzero"></path>
            </g>
        </g>
    </g>
</svg>