<?xml version="1.0" encoding="UTF-8"?>
<svg width="45px" height="45px" viewBox="0 0 45 45" version="1.1" xmlns="http://www.w3.org/2000/svg" xmlns:xlink="http://www.w3.org/1999/xlink">
    <!-- Generator: Sketch 47.1 (45422) - http://www.bohemiancoding.com/sketch -->
    <title>Group 11 Copy</title>
    <desc>Created with Sketch.</desc>
    <defs></defs>
    <g id="Form-Flows/Comparison" stroke="none" stroke-width="1" fill="none" fill-rule="evenodd">
        <g id="Group-11-Copy" fill-rule="nonzero" fill="#2B2727">
            <path d="M14.26905,38.25 L14.26905,42.65025 C14.26905,42.7051751 14.2241978,42.75 14.1693,42.75 L3.8688,42.75 C3.81351356,42.75 3.76905,42.7055365 3.76905,42.65025 L3.76905,38.25 L14.26905,38.25 Z M14.1693,44.25 C15.0524203,44.25 15.76905,43.533807 15.76905,42.65025 L15.76905,36.75 L2.26905,36.75 L2.26905,42.65025 C2.26905,43.5339635 2.98508644,44.25 3.8688,44.25 L14.1693,44.25 Z" id="Shape"></path>
            <path d="M16.4193,36.75 L1.6188,36.75 C1.56351356,36.75 1.51905,36.7055365 1.51905,36.65025 L1.51905,33.84975 C1.51905,33.7944635 1.56351356,33.75 1.6188,33.75 L16.4193,33.75 C16.4741978,33.75 16.51905,33.7948249 16.51905,33.84975 L16.51905,36.65025 C16.51905,36.7051751 16.4741978,36.75 16.4193,36.75 Z M16.4193,38.25 C17.3024203,38.25 18.01905,37.533807 18.01905,36.65025 L18.01905,33.84975 C18.01905,32.966193 17.3024203,32.25 16.4193,32.25 L1.6188,32.25 C0.735086437,32.25 0.01905,32.9660365 0.01905,33.84975 L0.01905,36.65025 C0.01905,37.5339635 0.735086437,38.25 1.6188,38.25 L16.4193,38.25 Z" id="Shape"></path>
            <path d="M38.2689,3.74985 L42.66915,3.74985 C42.7240751,3.74985 42.7689,3.79470218 42.7689,3.8496 L42.7689,14.1501 C42.7689,14.2053865 42.7244365,14.24985 42.66915,14.24985 L38.2689,14.24985 L38.2689,3.74985 Z M44.2689,3.8496 C44.2689,2.96647967 43.552707,2.24985 42.66915,2.24985 L36.7689,2.24985 L36.7689,15.74985 L42.66915,15.74985 C43.5528635,15.74985 44.2689,15.0338135 44.2689,14.1501 L44.2689,3.8496 Z" id="Shape"></path>
            <path d="M36.7689,1.5996 L36.7689,16.4001 C36.7689,16.4553865 36.7244365,16.49985 36.66915,16.49985 L33.86865,16.49985 C33.8133635,16.49985 33.7689,16.4553865 33.7689,16.4001 L33.7689,1.5996 C33.7689,1.54470218 33.8137249,1.49985 33.86865,1.49985 L36.66915,1.49985 C36.7240751,1.49985 36.7689,1.54470218 36.7689,1.5996 Z M38.2689,1.5996 C38.2689,0.716479675 37.552707,-0.00015 36.66915,-0.00015 L33.86865,-0.00015 C32.985093,-0.00015 32.2689,0.716479675 32.2689,1.5996 L32.2689,16.4001 C32.2689,17.2838135 32.9849365,17.99985 33.86865,17.99985 L36.66915,17.99985 C37.5528635,17.99985 38.2689,17.2838135 38.2689,16.4001 L38.2689,1.5996 Z" id="Shape"></path>
            <path d="M2.2689,33.75 L15.0189,33.75 L15.0189,33 C15.0189,23.0507135 23.0696135,15 33.0189,15 L33.7689,15 L33.7689,2.25 L33.0189,2.25 C16.0229365,2.25 2.2689,16.0040365 2.2689,33 L2.2689,33.75 Z M32.2689,3.75940376 L32.2689,13.514124 C22.0882526,13.8982276 13.9171276,22.0693526 13.5330242,32.2499946 L3.77830376,32.25 C4.16919704,16.679032 16.697932,4.15029704 32.2689,3.75940376 Z" id="Shape"></path>
            <path d="M19.5189,15 L19.5189,12.75 C19.5189,12.3357865 19.1831135,12 18.7689,12 L16.5189,12 C16.1046865,12 15.7689,12.3357865 15.7689,12.75 C15.7689,13.1642135 16.1046865,13.5 16.5189,13.5 L18.0189,13.5 L18.0189,15.75 C18.0189,16.1642135 18.3546865,16.5 18.7689,16.5 L20.2689,16.5 L20.2689,18 C20.2689,18.4142135 20.6046865,18.75 21.0189,18.75 C21.4331135,18.75 21.7689,18.4142135 21.7689,18 L21.7689,15.75 C21.7689,15.3357865 21.4331135,15 21.0189,15 L19.5189,15 Z" id="Shape"></path>
            <path d="M22.0365699,29.6181051 C23.5459631,31.1274983 25.9925869,31.1274983 27.5019801,29.6181051 C28.9964491,28.1227141 28.9951555,25.8119791 27.5797024,23.8517166 L25.3921718,20.5826033 C25.0951164,20.1387902 24.4425481,20.1388415 24.1455625,20.5827014 L21.9435625,23.8737014 C20.5472878,26.1137302 20.5461135,28.1276487 22.0365699,29.6181051 Z M26.3483782,24.7079467 C27.3748318,26.1302926 27.3756671,27.6225212 26.4411564,28.5576085 C25.5177131,29.4810517 24.0208369,29.4810517 23.0972301,28.5574449 C22.157482,27.6176968 22.1582125,26.3648128 23.2034356,24.6874139 L24.7689385,22.3481983 L26.3483782,24.7079467 Z" id="Shape"></path>
            <path d="M30.2865699,39.3681051 C31.7959631,40.8774983 34.2425869,40.8774983 35.7519801,39.3681051 C37.2464491,37.8727141 37.2451555,35.5619791 35.8297024,33.6017166 L33.6421718,30.3326033 C33.3451164,29.8887902 32.6925481,29.8888415 32.3955625,30.3327014 L30.1935625,33.6237014 C28.7972878,35.8637302 28.7961135,37.8776487 30.2865699,39.3681051 Z M34.5983782,34.4579467 C35.6248318,35.8802926 35.6256671,37.3725212 34.6911564,38.3076085 C33.7677131,39.2310517 32.2708369,39.2310517 31.3472301,38.3074449 C30.407482,37.3676968 30.4082125,36.1148128 31.4534356,34.4374139 L33.0189386,32.0981983 L34.5983782,34.4579467 Z" id="Shape"></path>
        </g>
    </g>
</svg>