<?xml version="1.0" encoding="UTF-8"?>
<svg width="71px" height="71px" viewBox="0 0 71 71" version="1.1" xmlns="http://www.w3.org/2000/svg" xmlns:xlink="http://www.w3.org/1999/xlink">
    <!-- Generator: Sketch 43.2 (39069) - http://www.bohemiancoding.com/sketch -->
    <title>Icon / Water Damage</title>
    <desc>Created with Sketch.</desc>
    <defs></defs>
    <g id="Icons-&amp;-Logos" stroke="none" stroke-width="1" fill="none" fill-rule="evenodd">
        <g id="Artboard" transform="translate(-878.000000, -31.000000)" fill="#00A4A5">
            <g id="Icon-/-Water-Damage" transform="translate(878.000000, 31.000000)">
                <g id="Group-18">
                    <path d="M22.83048,61.2 L22.83048,68.2404 C22.83048,68.3282802 22.7587165,68.4 22.67088,68.4 L6.19008,68.4 C6.1016217,68.4 6.03048,68.3288584 6.03048,68.2404 L6.03048,61.2 L22.83048,61.2 Z M22.67088,70.8 C24.0838726,70.8 25.23048,69.6540912 25.23048,68.2404 L25.23048,58.8 L3.63048,58.8 L3.63048,68.2404 C3.63048,69.6543416 4.7761383,70.8 6.19008,70.8 L22.67088,70.8 Z" id="Shape" fill-rule="nonzero"></path>
                    <path d="M26.27088,58.8 L2.59008,58.8 C2.5016217,58.8 2.43048,58.7288584 2.43048,58.6404 L2.43048,54.1596 C2.43048,54.0711416 2.5016217,54 2.59008,54 L26.27088,54 C26.3587165,54 26.43048,54.0717198 26.43048,54.1596 L26.43048,58.6404 C26.43048,58.7282802 26.3587165,58.8 26.27088,58.8 Z M26.27088,61.2 C27.6838726,61.2 28.83048,60.0540912 28.83048,58.6404 L28.83048,54.1596 C28.83048,52.7459088 27.6838726,51.6 26.27088,51.6 L2.59008,51.6 C1.1761383,51.6 0.03048,52.7456584 0.03048,54.1596 L0.03048,58.6404 C0.03048,60.0543416 1.1761383,61.2 2.59008,61.2 L26.27088,61.2 Z" id="Shape" fill-rule="nonzero"></path>
                    <path d="M61.23024,5.99976 L68.27064,5.99976 C68.3585202,5.99976 68.43024,6.07152349 68.43024,6.15936 L68.43024,22.64016 C68.43024,22.7286184 68.3590984,22.79976 68.27064,22.79976 L61.23024,22.79976 L61.23024,5.99976 Z M70.83024,6.15936 C70.83024,4.74636748 69.6843312,3.59976 68.27064,3.59976 L58.83024,3.59976 L58.83024,25.19976 L68.27064,25.19976 C69.6845816,25.19976 70.83024,24.0541016 70.83024,22.64016 L70.83024,6.15936 Z" id="Shape" fill-rule="nonzero"></path>
                    <path d="M58.83024,2.55936 L58.83024,26.24016 C58.83024,26.3286184 58.7590984,26.39976 58.67064,26.39976 L54.18984,26.39976 C54.1013816,26.39976 54.03024,26.3286184 54.03024,26.24016 L54.03024,2.55936 C54.03024,2.47152349 54.1019598,2.39976 54.18984,2.39976 L58.67064,2.39976 C58.7585202,2.39976 58.83024,2.47152349 58.83024,2.55936 Z M61.23024,2.55936 C61.23024,1.14636748 60.0843312,-0.00024 58.67064,-0.00024 L54.18984,-0.00024 C52.7761488,-0.00024 51.63024,1.14636748 51.63024,2.55936 L51.63024,26.24016 C51.63024,27.6541016 52.7758984,28.79976 54.18984,28.79976 L58.67064,28.79976 C60.0845816,28.79976 61.23024,27.6541016 61.23024,26.24016 L61.23024,2.55936 Z" id="Shape" fill-rule="nonzero"></path>
                    <path d="M3.63024,54 L24.03024,54 L24.03024,52.8 C24.03024,36.8811416 36.9113816,24 52.83024,24 L54.03024,24 L54.03024,3.6 L52.83024,3.6 C25.6366984,3.6 3.63024,25.6064584 3.63024,52.8 L3.63024,54 Z M51.63024,6.01504602 L51.63024,21.6225984 C35.3412042,22.2371641 22.2674041,35.3109642 21.6528388,51.5999914 L6.04528602,51.6 C6.67071526,26.6864512 26.7166912,6.64047526 51.63024,6.01504602 Z" id="Shape" fill-rule="nonzero"></path>
                    <path d="M31.23024,24 L31.23024,20.4 C31.23024,19.7372584 30.6929816,19.2 30.03024,19.2 L26.43024,19.2 C25.7674984,19.2 25.23024,19.7372584 25.23024,20.4 C25.23024,21.0627416 25.7674984,21.6 26.43024,21.6 L28.83024,21.6 L28.83024,25.2 C28.83024,25.8627416 29.3674984,26.4 30.03024,26.4 L32.43024,26.4 L32.43024,28.8 C32.43024,29.4627416 32.9674984,30 33.63024,30 C34.2929816,30 34.83024,29.4627416 34.83024,28.8 L34.83024,25.2 C34.83024,24.5372584 34.2929816,24 33.63024,24 L31.23024,24 Z" id="Shape" fill-rule="nonzero"></path>
                    <path d="M35.2585118,47.3889682 C37.673541,49.8039973 41.588139,49.8039973 44.0031682,47.3889682 C46.3943185,44.9963426 46.3922489,41.2991666 44.1275238,38.1627466 L40.6274749,32.9321653 C40.1521862,32.2220644 39.1080769,32.2221464 38.6329,32.9323223 L35.1097,38.1979223 C32.8756604,41.7819684 32.8737816,45.0042379 35.2585118,47.3889682 Z M42.1574051,39.5327147 C43.7997308,41.8084682 43.8010674,44.196034 42.3058502,45.6921736 C40.828341,47.1696827 38.433339,47.1696827 36.9555682,45.6919118 C35.4519712,44.1883148 35.45314,42.1837004 37.1254969,39.4998623 L39.6303017,35.7571172 L42.1574051,39.5327147 Z" id="Shape" fill-rule="nonzero"></path>
                    <path d="M48.4585118,62.9889682 C50.873541,65.4039973 54.788139,65.4039973 57.2031682,62.9889682 C59.5943185,60.5963426 59.5922489,56.8991666 57.3275238,53.7627466 L53.8274749,48.5321653 C53.3521862,47.8220644 52.3080769,47.8221464 51.8329,48.5323223 L48.3097,53.7979223 C46.0756604,57.3819684 46.0737816,60.6042379 48.4585118,62.9889682 Z M55.3574051,55.1327147 C56.9997308,57.4084682 57.0010674,59.796034 55.5058502,61.2921736 C54.028341,62.7696827 51.633339,62.7696827 50.1555682,61.2919118 C48.6519712,59.7883148 48.65314,57.7837004 50.3254969,55.0998623 L52.8303017,51.3571172 L55.3574051,55.1327147 Z" id="Shape" fill-rule="nonzero"></path>
                </g>
            </g>
        </g>
    </g>
</svg>