<?xml version="1.0" encoding="UTF-8"?>
<svg width="44px" height="51px" viewBox="0 0 44 51" version="1.1" xmlns="http://www.w3.org/2000/svg" xmlns:xlink="http://www.w3.org/1999/xlink">
    <!-- Generator: Sketch 47.1 (45422) - http://www.bohemiancoding.com/sketch -->
    <title>Who?</title>
    <desc>Created with Sketch.</desc>
    <defs></defs>
    <g id="Landing-Pages" stroke="none" stroke-width="1" fill="none" fill-rule="evenodd">
        <g id="Who?" fill-rule="nonzero" fill="#2B2727">
            <g id="Group-13">
                <path d="M2.01957986,34.1890092 L4.01008195,34.847716 L4.01008195,41.0204363 C4.01299936,43.6127199 6.10650803,45.7134509 8.68987939,45.7163784 L14.9207862,45.7163784 L16.1489683,50.0351578 C16.3492441,50.7407416 17.0816219,51.1498145 17.7847799,50.9488478 C18.4879378,50.7478812 18.8956044,50.0129768 18.6953287,49.307393 L17.1918643,44.021802 C17.0291119,43.4530672 16.5110149,43.0609877 15.9213311,43.0603026 L8.69517328,43.0603026 C7.57159989,43.0603064 6.65994458,42.1478821 6.6570262,41.0204363 L6.6570262,33.8862165 C6.65659386,33.3148424 6.29200418,32.8077907 5.75177127,32.6272366 L2.85072036,31.6657371 C2.77072386,31.6398445 2.70544137,31.5810933 2.67111611,31.5041015 C2.63679085,31.4271097 2.63664983,31.3391157 2.67072815,31.2620136 L5.75706516,24.3137191 C6.35320764,22.9769587 6.65994726,21.5284983 6.6570262,20.0639978 C6.65843002,15.4457211 8.48807234,11.0171566 11.7434527,7.75253803 C14.9988331,4.48791949 19.4132876,2.65466748 24.0156866,2.65607656 L24.0686255,2.65607656 C31.0122439,2.67390615 37.2763733,6.84463395 39.9912887,13.2575647 C42.706204,19.6704955 41.3488377,27.0900857 36.5410269,32.11727 C36.2145642,32.4584499 36.0935774,32.9481136 36.2233936,33.4028107 L39.0873872,43.4640261 C39.216943,43.9204588 39.5793241,44.2728644 40.0380253,44.3884951 C40.4967265,44.5041259 40.98206,44.3654147 41.3112055,44.0246127 C41.640351,43.6838108 41.7633033,43.192694 41.6337476,42.7362613 L38.9497461,33.3921864 C42.5000751,29.4126136 44.3050067,24.1667636 43.9577647,18.8368907 C43.30053,8.28662773 34.6083047,0.0520790441 24.0739194,7.04056113e-07 L24.0156866,7.04056113e-07 C18.7103572,-0.00140840983 13.6218398,2.11240851 9.8699089,5.87628682 C6.117978,9.64016512 4.01008176,14.7456777 4.01008195,20.0693099 C4.01452023,21.1676395 3.78530711,22.254272 3.3377581,23.2566009 L0.256714989,30.1783346 C-0.0833282188,30.9408764 -0.0856535892,31.8122517 0.250314901,32.5766099 C0.586283391,33.3409681 1.22911776,33.9268078 2.01957986,34.1890092 Z" id="Shape" transform="translate(22.000000, 25.500000) scale(-1, 1) translate(-22.000000, -25.500000) "></path>
                <g id="Group-11" transform="translate(14.000000, 12.000000)">
                    <path d="M7.76785714,19.255814 C6.7488354,19.255814 5.89285714,20.1012753 5.89285714,21.1077769 L5.89285714,21.148037 C5.89285714,22.1545386 6.7488354,23 7.76785714,23 C8.78687888,23 9.64285714,22.1545386 9.64285714,21.148037 L9.64285714,21.0675169 C9.64285714,20.0610153 8.78687888,19.255814 7.76785714,19.255814 Z" id="Shape"></path>
                    <path d="M7.51575002,0 C3.37354688,0 0,3.40107771 0,7.57708452 C0,8.26591038 0.555140626,8.8255814 1.23839063,8.8255814 C1.92164063,8.8255814 2.47678126,8.26591038 2.47678126,7.57708452 C2.47678126,4.77872944 4.74004689,2.49699376 7.51575002,2.49699376 C9.43739065,2.49699376 11.0601094,3.27192286 11.8714688,4.56347136 C13.1525625,6.58689733 12.2985,8.61032331 11.1028125,9.85882019 C10.7611875,10.2032331 10.3341563,10.5906977 9.8644219,10.9781622 C8.28440627,12.3127623 6.27735939,13.9487238 6.27735939,16.4026659 C6.27735939,17.0914918 6.83250002,17.6511628 7.51575002,17.6511628 C8.19900002,17.6511628 8.75414065,17.0914918 8.75414065,16.4026659 C8.75414065,15.154169 10.1206406,13.9917754 11.4017344,12.915485 C11.9141719,12.4849688 12.4266094,12.0544526 12.8536407,11.6239365 C15.2450157,9.21304594 15.6720469,5.94112309 13.9639219,3.22887124 C12.7255313,1.20544526 10.2914531,0 7.51575002,0 Z" id="Shape"></path>
                </g>
            </g>
        </g>
    </g>
</svg>