<?xml version="1.0" encoding="UTF-8"?>
<svg width="13px" height="12px" viewBox="0 0 13 12" version="1.1" xmlns="http://www.w3.org/2000/svg" xmlns:xlink="http://www.w3.org/1999/xlink">
    <!-- Generator: Sketch 43.2 (39069) - http://www.bohemiancoding.com/sketch -->
    <title>Yellow Triangle</title>
    <desc>Created with Sketch.</desc>
    <defs></defs>
    <g id="Page-5---Checkout" stroke="none" stroke-width="1" fill="none" fill-rule="evenodd">
        <g id="Group-18-Copy" transform="translate(0.000000, -31.000000)" fill-rule="nonzero" fill="#F9A024">
            <g id="Yellow-Triangle" transform="translate(0.000000, 31.000000)">
                <path d="M2.43308044,10.7258269 L7.11822837,2.07205819 C7.4767525,1.40984112 7.26155561,0.564558055 6.63757266,0.184065611 C6.01358971,-0.196426833 5.21711036,0.0319560945 4.85858623,0.694173158 L0.173438301,9.34794189 C-0.185085829,10.010159 0.0301110604,10.855442 0.654094006,11.2359345 C1.27807695,11.6164269 2.07455631,11.388044 2.43308044,10.7258269 Z" id="Shape"></path>
                <path d="M12.3265617,9.34794189 L7.64141377,0.694173158 C7.28288964,0.0319560945 6.48641029,-0.196426833 5.86242734,0.184065611 C5.23844439,0.564558055 5.0232475,1.40984112 5.38177163,2.07205819 L10.0669196,10.7258269 C10.4254437,11.388044 11.221923,11.6164269 11.845906,11.2359345 C12.4698889,10.855442 12.6850858,10.010159 12.3265617,9.34794189 Z" id="Shape"></path>
                <path d="M10.2026237,9.13600006 L1.25570963,9.13600006 C0.562200349,9.13600006 0,9.64729088 0,10.2780001 C0,10.9087093 0.562200349,11.4200001 1.25570963,11.4200001 L10.2026237,11.4200001 C10.896133,11.4200001 11.4583333,10.9087093 11.4583333,10.2780001 C11.4583333,9.64729088 10.896133,9.13600006 10.2026237,9.13600006 Z" id="Shape"></path>
            </g>
        </g>
    </g>
</svg>