<?xml version="1.0" encoding="UTF-8"?>
<svg width="31px" height="31px" viewBox="0 0 31 31" version="1.1" xmlns="http://www.w3.org/2000/svg" xmlns:xlink="http://www.w3.org/1999/xlink">
    <!-- Generator: Sketch 43.2 (39069) - http://www.bohemiancoding.com/sketch -->
    <title>Group 3</title>
    <desc>Created with Sketch.</desc>
    <defs></defs>
    <g id="Icons-&amp;-Logos" stroke="none" stroke-width="1" fill="none" fill-rule="evenodd">
        <g id="Artboard" transform="translate(-376.000000, -18.000000)">
            <g id="Group-3" transform="translate(376.000000, 18.000000)">
                <polygon id="Shape" fill="#FFFFFF" points="0.313474138 30.5130862 0.313474138 16.0740345 0.0160344828 15.8581034 0.0160344828 13.1811466 0.448698276 11.1530517 0.448698276 0.607706897 30.2458448 0.607706897 30.2458448 16.3987328 30.6247931 16.9666207 30.6247931 21.7523793 30.1921293 22.37425 30.1921293 30.5130862"></polygon>
                <path d="M28.0285431,18.0481466 C27.8396034,18.2103621 27.7580948,18.453819 27.7580948,18.7512586 C27.7580948,19.7518103 28.5697069,19.7785345 29.3537931,19.7785345 L29.4890172,19.7785345 C29.6779569,19.8057931 29.7594655,19.8327845 29.8401724,19.8870345 C29.921681,19.9680086 29.9753966,20.0487155 29.9753966,20.1839397 C29.9753966,20.2924397 29.921681,20.4006724 29.8401724,20.4543879 C29.7591983,20.5358966 29.6512328,20.5628879 29.4617586,20.5628879 L27.8665948,20.5628879 L27.8665948,21.21175 L29.4617586,21.21175 C30.3270862,21.21175 30.75975,20.8600603 30.75975,20.1302241 C30.75975,19.8055259 30.6782414,19.5895948 30.5160259,19.4271121 C30.3270862,19.2376379 30.0566379,19.1566638 29.5697241,19.1566638 L29.1103362,19.1294052 C28.9481207,19.1294052 28.8666121,19.1294052 28.7586466,19.1021466 C28.6234224,19.048431 28.5154569,18.9132069 28.5154569,18.7509914 C28.5154569,18.6157672 28.5697069,18.5078017 28.6776724,18.4535517 C28.7856379,18.3720431 28.8938707,18.3720431 29.0560862,18.3720431 L30.5702759,18.3720431 L30.5702759,17.723181 L28.9208621,17.723181 C28.5154569,17.7234483 28.2180172,17.831681 28.0285431,18.0481466 L28.0285431,18.0481466 Z" id="Shape" fill="#FFFFFF"></path>
                <path d="M30.8137328,20.1302241 C30.8137328,20.9143103 30.3273534,21.2654655 29.4617586,21.2654655 L27.8123448,21.2654655 L27.8123448,20.5086379 L29.4617586,20.5086379 C29.6239741,20.5086379 29.7322069,20.4813793 29.8129138,20.4006724 C29.8671638,20.3734138 29.8944224,20.2927069 29.8944224,20.1839397 C29.8944224,20.0759741 29.8671638,19.995 29.8129138,19.94075 C29.7319397,19.8870345 29.6512328,19.8597759 29.48875,19.8597759 C28.7041293,19.8325172 27.6771207,19.8870345 27.6771207,18.7512586 C27.6771207,18.2106293 28.001819,17.6697328 28.9208621,17.6697328 L30.6245259,17.6697328 L30.6245259,18.453819 L29.0560862,18.453819 C28.8938707,18.453819 28.8128966,18.453819 28.7043966,18.508069 C28.6234224,18.5617845 28.596431,18.6427586 28.596431,18.7512586 C28.596431,18.8864828 28.6779397,18.9944483 28.7859052,19.0217069 C28.8668793,19.0489655 28.9753793,19.0754224 29.1106034,19.0754224 L29.5699914,19.0754224 C30.0569052,19.102681 30.3546121,19.1839224 30.5435517,19.3728621 C30.7327586,19.5623362 30.8137328,19.7785345 30.8137328,20.1302241 L30.8137328,20.1302241 Z M27.1907414,19.3728621 C27.0012672,19.1839224 26.676569,19.1024138 26.217181,19.0754224 L25.7572586,19.0754224 C25.5950431,19.0754224 25.514069,19.0486983 25.405569,19.0217069 C25.2976034,18.9944483 25.2166293,18.8864828 25.2166293,18.7512586 C25.2166293,18.6427586 25.2703448,18.5617845 25.3518534,18.508069 C25.4328276,18.453819 25.5407931,18.453819 25.7030086,18.453819 L27.2714483,18.453819 L27.2714483,17.6697328 L25.5405259,17.6697328 C24.6484741,17.6697328 24.3237759,18.2103621 24.3237759,18.7512586 C24.3237759,19.8870345 25.3243276,19.8327845 26.1354052,19.8597759 C26.2706293,19.8597759 26.3785948,19.8870345 26.4328448,19.94075 C26.4870948,19.995 26.5408103,20.0759741 26.5408103,20.1839397 C26.5408103,20.2924397 26.4870948,20.3734138 26.4328448,20.4006724 C26.3518707,20.4816466 26.2433707,20.5086379 26.0816897,20.5086379 L24.4317414,20.5086379 L24.4317414,21.2654655 L26.1081466,21.2654655 C26.9734741,21.2654655 27.4601207,20.9143103 27.4601207,20.1302241 C27.4606552,19.7785345 27.3526897,19.5623362 27.1907414,19.3728621 L27.1907414,19.3728621 Z M23.9186379,20.5358966 L21.8908103,20.5358966 L21.8908103,19.8057931 L23.8649224,19.8057931 L23.8649224,19.0756897 L21.8908103,19.0756897 L21.8908103,18.4268276 L23.9186379,18.4268276 L23.9186379,17.67 L21.0254828,17.67 L21.0254828,21.2657328 L23.9186379,21.2657328 L23.9186379,20.5358966 L23.9186379,20.5358966 Z M20.1061724,17.831681 C19.8357241,17.6964569 19.5110259,17.67 19.0783621,17.67 L17.0777931,17.67 L17.0777931,21.2657328 L17.9431207,21.2657328 L17.9431207,19.9682759 L18.8894224,19.9682759 C19.1868621,19.9682759 19.3758017,19.9955345 19.5110259,20.1304914 C19.6732414,20.2927069 19.64625,20.6168707 19.64625,20.8063448 L19.64625,21.2657328 L20.5115776,21.2657328 L20.5115776,20.5631552 C20.5115776,20.2384569 20.484319,20.0762414 20.3763534,19.9137586 C20.2953793,19.8057931 20.1331638,19.670569 19.9436897,19.5895948 C20.3252425,19.4309789 20.5716786,19.0559261 20.5658276,18.6427586 C20.5660948,18.2370862 20.3766207,17.9938966 20.1061724,17.831681 L20.1061724,17.831681 Z M15.2391724,17.6697328 L12.4812414,17.6697328 L11.3997155,18.8592241 L10.345181,17.6697328 L6.85687931,17.6697328 L6.85687931,21.2654655 L10.290931,21.2654655 L11.3724569,20.0759741 L12.4269914,21.2654655 L14.1033966,21.2654655 L14.1033966,20.0759741 L15.1849224,20.0759741 C15.9420172,20.0759741 16.6721207,19.8597759 16.6721207,18.8592241 C16.6721207,17.8586724 15.9150259,17.6697328 15.2391724,17.6697328 L15.2391724,17.6697328 Z M19.430319,19.156931 C19.2950948,19.2106466 19.1598707,19.2106466 18.9976552,19.2106466 L17.9433879,19.2106466 L17.9433879,18.4265603 L19.0249138,18.4265603 C19.1601379,18.4265603 19.3223534,18.4265603 19.4305862,18.4808103 C19.5385517,18.5345259 19.5928017,18.6424914 19.5928017,18.8049741 C19.5928017,18.9674569 19.5382845,19.0754224 19.430319,19.156931 L19.430319,19.156931 Z M15.2391724,19.3191466 L14.1033966,19.3191466 L14.1033966,18.4265603 L15.2391724,18.4265603 C15.5366121,18.4265603 15.7530776,18.5345259 15.7530776,18.8592241 C15.7530776,19.156931 15.5636034,19.3191466 15.2391724,19.3191466 Z M11.9403448,19.4813621 L13.2653276,18.0481466 L13.2653276,20.9413017 L11.9403448,19.4813621 Z M9.83127586,20.5358966 L7.7222069,20.5358966 L7.7222069,19.8057931 L9.61507759,19.8057931 L9.61507759,19.0756897 L7.7222069,19.0756897 L7.7222069,18.4268276 L9.88552586,18.4268276 L10.8318276,19.4816293 L9.83127586,20.5358966 Z M28.4339483,15.07375 L27.2171983,15.07375 L25.5950431,12.3698017 L25.5950431,15.07375 L23.8376638,15.07375 L23.4859741,14.2624052 L21.7013362,14.2624052 L21.3771724,15.07375 L20.3766207,15.07375 C19.9439569,15.07375 19.430319,14.9925086 19.1328793,14.6680776 C18.8354397,14.3706379 18.6729569,13.9649655 18.6729569,13.2888448 C18.6729569,12.7752069 18.7544655,12.2885603 19.1328793,11.8828879 C19.4033276,11.6124397 19.8359914,11.4772155 20.4308707,11.4772155 L21.2692069,11.4772155 L21.2692069,12.2343103 L20.4575948,12.2343103 C20.133431,12.2343103 19.9712155,12.2885603 19.7817414,12.4507759 C19.6465172,12.6129914 19.5385517,12.910431 19.5385517,13.2888448 C19.5385517,13.6675259 19.6200603,13.9379741 19.7817414,14.127181 C19.9169655,14.2624052 20.1606897,14.3163879 20.3768879,14.3163879 L20.7553017,14.3163879 L21.9720517,11.4772155 L23.2700431,11.4772155 L24.7299828,14.8842759 L24.7299828,11.4774828 L26.0279741,11.4774828 L27.5421638,13.9922241 L27.5421638,11.4774828 L28.4342155,11.4774828 L28.4342155,15.07375 L28.4339483,15.07375 Z M18.2408276,11.4774828 L17.3755,11.4774828 L17.3755,15.07375 L18.2408276,15.07375 L18.2408276,11.4774828 L18.2408276,11.4774828 Z M16.4291983,11.6396983 C16.15875,11.4774828 15.8340517,11.4774828 15.4013879,11.4774828 L13.4005517,11.4774828 L13.4005517,15.07375 L14.2658793,15.07375 L14.2658793,13.7757586 L15.1851897,13.7757586 C15.5093534,13.7757586 15.6988276,13.8030172 15.8070603,13.9109828 C15.9692759,14.1001897 15.9692759,14.3976293 15.9692759,14.6140948 L15.9692759,15.07375 L16.8346034,15.07375 L16.8346034,14.3706379 C16.8346034,14.0462069 16.8073448,13.8839914 16.6723879,13.7217759 C16.6181379,13.6135431 16.4556552,13.478319 16.2667155,13.3973448 C16.4829138,13.3161034 16.8618621,13.0186638 16.8618621,12.4507759 C16.8618621,12.0453707 16.6993793,11.802181 16.4291983,11.6396983 Z M12.8054052,14.3166552 L10.804569,14.3166552 L10.804569,13.6138103 L12.7514224,13.6138103 L12.7514224,12.8837069 L10.804569,12.8837069 L10.804569,12.2348448 L12.8054052,12.2348448 L12.8054052,11.47775 L9.93950862,11.47775 L9.93950862,15.0740172 L12.8056724,15.0740172 L12.8056724,14.3166552 L12.8054052,14.3166552 L12.8054052,14.3166552 Z M9.29064655,11.4774828 L7.85743103,11.4774828 L6.82988793,13.9109828 L5.69411207,11.4774828 L4.28815517,11.4774828 L4.28815517,14.8845431 L2.82794828,11.4774828 L1.55721552,11.4774828 L0.0160344828,15.07375 L0.935344828,15.07375 L1.28676724,14.2624052 L3.07140517,14.2624052 L3.39583621,15.07375 L5.15348276,15.07375 L5.15348276,12.261569 L6.39722414,15.07375 L7.15431897,15.07375 L8.39832759,12.261569 L8.39832759,15.07375 L9.29064655,15.07375 L9.29064655,11.4774828 L9.29064655,11.4774828 Z M23.1888017,13.532569 L22.5936552,12.0996207 L22.0257672,13.532569 L23.1888017,13.532569 Z M15.7260862,12.964681 C15.6181207,13.0186638 15.4823621,13.0186638 15.3204138,13.0186638 L14.2658793,13.0186638 L14.2658793,12.2345776 L15.3204138,12.2345776 C15.4823621,12.2345776 15.6445776,12.2345776 15.7260862,12.2888276 C15.8613103,12.3428103 15.9150259,12.4510431 15.9150259,12.6132586 C15.9150259,12.7754741 15.8613103,12.8834397 15.7260862,12.964681 Z M1.5842069,13.532569 L2.17908621,12.0996207 L2.77396552,13.532569 L1.5842069,13.532569 Z M30.6247931,0.229293103 L0.0160344828,0.229293103 L0.0160344828,13.1538879 L1.04357759,10.7746379 L3.28787069,10.7746379 L3.58531034,11.3695172 L3.58531034,10.7746379 L6.20801724,10.7746379 L6.77590517,12.0453707 L7.3437931,10.7746379 L15.6990948,10.7746379 C16.0775086,10.7746379 16.4291983,10.8286207 16.6726552,11.0450862 L16.6726552,10.7746379 L18.970931,10.7746379 L18.970931,11.0450862 C19.3493448,10.8286207 19.8362586,10.7746379 20.4041466,10.7746379 L23.7029741,10.7746379 L24.0271379,11.3695172 L24.0271379,10.7746379 L26.4609052,10.7746379 L26.8120603,11.3695172 L26.8120603,10.7746379 L29.1915776,10.7746379 L29.1915776,15.7765948 L26.7848017,15.7765948 L26.3254138,15.0195 L26.3254138,15.7765948 L23.3242931,15.7765948 L22.9995948,14.9925086 L22.2422328,14.9925086 L21.918069,15.7765948 L20.3496293,15.7765948 C19.7280259,15.7765948 19.2681034,15.6413707 18.9706638,15.4794224 L18.9706638,15.7765948 L15.2391724,15.7765948 L15.2391724,14.6410862 C15.2391724,14.4788707 15.212181,14.4788707 15.1039483,14.4788707 L14.9687241,14.4788707 L14.9687241,15.7765948 L7.77618966,15.7765948 L7.77618966,15.1547241 L7.533,15.7765948 L6.01881034,15.7765948 L5.77535345,15.1817155 L5.77535345,15.7765948 L2.88219828,15.7765948 L2.55776724,14.9925086 L1.80067241,14.9925086 L1.47624138,15.7765948 L0.0160344828,15.7765948 L0.0160344828,30.94575 L30.6247931,30.94575 L30.6247931,21.7526466 C30.2731034,21.9148621 29.813181,21.9958362 29.3537931,21.9958362 L27.1364914,21.9958362 L27.1364914,21.6711379 C26.8660431,21.8606121 26.4063879,21.9958362 25.9734569,21.9958362 L18.9431379,21.9958362 L18.9431379,20.8063448 C18.9431379,20.6711207 18.9164138,20.6711207 18.7809224,20.6711207 L18.6729569,20.6711207 L18.6729569,21.9958362 L16.3476897,21.9958362 L16.3476897,20.6168707 C15.9692759,20.7790862 15.5093534,20.8063448 15.157931,20.8063448 L14.8604914,20.8063448 L14.8604914,21.9958362 L12.075569,21.9958362 L11.3724569,21.21175 L10.6423534,21.9958362 L6.10005172,21.9958362 L6.10005172,16.9668879 L10.7235948,16.9668879 L11.3997155,17.7237155 L12.1025603,16.9668879 L15.212181,16.9668879 C15.5636034,16.9668879 16.15875,16.9936121 16.4291983,17.2373362 L16.4291983,16.9668879 L19.1871293,16.9668879 C19.4575776,16.9668879 20.0254655,17.0206034 20.3766207,17.2373362 L20.3766207,16.9668879 L24.5680345,16.9668879 L24.5680345,17.2373362 C24.7842328,17.0478621 25.2168966,16.9668879 25.5953103,16.9668879 L27.9478362,16.9668879 L27.9478362,17.2373362 C28.1910259,17.0751207 28.5429828,16.9668879 29.0293621,16.9668879 L30.6250603,16.9668879 L30.6250603,0.229293103 L30.6247931,0.229293103 L30.6247931,0.229293103 Z" id="Shape" fill="#0077A6"></path>
            </g>
        </g>
    </g>
</svg>