<?xml version="1.0" encoding="UTF-8"?>
<svg width="41px" height="24px" viewBox="0 0 41 24" version="1.1" xmlns="http://www.w3.org/2000/svg" xmlns:xlink="http://www.w3.org/1999/xlink">
    <!-- Generator: Sketch 43.2 (39069) - http://www.bohemiancoding.com/sketch -->
    <title>AmericanExpress-light</title>
    <desc>Created with Sketch.</desc>
    <defs>
        <rect id="path-1" x="0" y="0" width="40" height="24" rx="4"></rect>
    </defs>
    <g id="Page-5---Checkout" stroke="none" stroke-width="1" fill="none" fill-rule="evenodd">
        <g id="Payment-Details-|-Desktop" transform="translate(-207.000000, -1740.000000)">
            <g id="AmericanExpress-light" transform="translate(207.090909, 1740.000000)">
                <g id="Rectangle">
                    <use fill="#FFFFFF" fill-rule="evenodd" xlink:href="#path-1"></use>
                    <rect stroke="#CCCCCC" stroke-width="0.5" x="0.25" y="0.25" width="39.5" height="23.5" rx="4"></rect>
                </g>
                <path d="M33.7629445,13.8662332 L32.3497281,13.8662332 C32.2086316,13.8662332 32.1148933,13.8715011 32.0359301,13.9246678 C31.9541293,13.9770541 31.9226223,14.0548043 31.9226223,14.1574306 C31.9226223,14.2794701 31.9917029,14.3624882 32.0921926,14.3983879 C32.1739934,14.426776 32.2618608,14.435068 32.3910199,14.435068 L32.8112764,14.4462867 C33.235349,14.4567249 33.5184228,14.5294023 33.6910263,14.7066572 C33.7224355,14.7313382 33.7413201,14.7590434 33.7629445,14.7867486 L33.7629445,13.8662332 Z M33.7629445,15.9990467 C33.5745874,16.27366 33.2075602,16.4128689 32.7106888,16.4128689 L31.2132255,16.4128689 L31.2132255,15.7191656 L32.7046223,15.7191656 C32.8525682,15.7191656 32.9560912,15.6997524 33.0184203,15.6390741 C33.0724323,15.5890291 33.1101037,15.5163517 33.1101037,15.4280657 C33.1101037,15.333829 33.0724323,15.2590054 33.015387,15.2141308 C32.9591245,15.1647687 32.8772259,15.1423314 32.7421958,15.1423314 C32.0141101,15.1176503 31.1057886,15.1647687 31.1057886,14.1410416 C31.1057886,13.671809 31.4046159,13.1778953 32.2183185,13.1778953 L33.7628467,13.1778953 L33.7628467,12.5342369 L32.3278102,12.5342369 C31.8947357,12.5342369 31.5801549,12.6376437 31.3573554,12.7984119 L31.3573554,12.5342369 L29.2347421,12.5342369 C28.895308,12.5342369 28.4968716,12.618133 28.3084166,12.7984119 L28.3084166,12.5342369 L24.517987,12.5342369 L24.517987,12.7984119 C24.2163221,12.5814528 23.7073176,12.5342369 23.472385,12.5342369 L20.9721769,12.5342369 L20.9721769,12.7984119 C20.7335261,12.5679904 20.2027994,12.5342369 19.8793144,12.5342369 L17.0811597,12.5342369 L16.4408434,13.2251112 L15.841134,12.5342369 L11.66127,12.5342369 L11.66127,17.0482353 L15.7624644,17.0482353 L16.4222524,16.346435 L17.0437818,17.0482353 L19.5717787,17.050479 L19.5717787,15.9886085 L19.8203122,15.9886085 C20.1557346,15.9937788 20.5513334,15.9803165 20.9003566,15.8298889 L20.9003566,17.0481377 L22.9854941,17.0481377 L22.9854941,15.8716418 L23.0860817,15.8716418 C23.2144581,15.8716418 23.2270804,15.8769097 23.2270804,16.0048024 L23.2270804,17.0480402 L29.5613582,17.0480402 C29.9635129,17.0480402 30.3838672,16.9454138 30.6166472,16.7591841 L30.6166472,17.0480402 L32.6258548,17.0480402 C33.0439586,17.0480402 33.4522776,16.9896056 33.7629445,16.8399584 L33.7629445,15.9990467 L33.7629445,15.9990467 Z M30.6698764,14.7066572 C30.8208556,14.8624502 30.9017758,15.0591182 30.9017758,15.3920685 C30.9017758,16.0880156 30.465668,16.4128689 29.683668,16.4128689 L28.1733866,16.4128689 L28.1733866,15.7191656 L29.6776015,15.7191656 C29.8246668,15.7191656 29.9289726,15.6997524 29.9943349,15.6390741 C30.047662,15.5890291 30.0859205,15.5163517 30.0859205,15.4280657 C30.0859205,15.333829 30.0445309,15.2590054 29.9913016,15.2141308 C29.9320059,15.1647687 29.8502051,15.1423314 29.715175,15.1423314 C28.9900247,15.1176503 28.0818989,15.1647687 28.0818989,14.1410416 C28.0818989,13.671809 28.3775951,13.1778953 29.1905149,13.1778953 L30.7450236,13.1778953 L30.7450236,13.8664283 L29.3226095,13.8664283 C29.1816108,13.8664283 29.0899273,13.8716962 29.0119426,13.9248629 C28.9270107,13.9772492 28.8955037,14.0549994 28.8955037,14.1576257 C28.8955037,14.2796652 28.9676175,14.3626833 29.0651718,14.398583 C29.1469726,14.4269711 29.23484,14.4352632 29.3669346,14.4352632 L29.7843535,14.4464818 C30.2052949,14.4567249 30.4942395,14.5293048 30.6698764,14.7066572 L30.6698764,14.7066572 Z M23.672973,14.5068675 C23.5692543,14.5682287 23.4409758,14.5734965 23.2900944,14.5734965 L22.3481133,14.5734965 L22.3481133,13.8469176 L23.3029125,13.8469176 C23.4409758,13.8469176 23.579137,13.8498442 23.672973,13.9053522 C23.7734628,13.9577385 23.8335413,14.057926 23.8335413,14.1963545 C23.8335413,14.334783 23.7734628,14.4462867 23.672973,14.5068675 L23.672973,14.5068675 Z M24.1412728,14.909471 C24.3138764,14.9729784 24.454973,15.0868234 24.5211181,15.1810601 C24.6306099,15.3389993 24.6464612,15.4864028 24.6495923,15.7715518 L24.6495923,16.4128689 L23.8711149,16.4128689 L23.8711149,16.0081192 C23.8711149,15.8134999 23.8899017,15.5253266 23.7457718,15.3748991 C23.632464,15.2590054 23.4597626,15.2313002 23.1768845,15.2313002 L22.3482111,15.2313002 L22.3482111,16.4128689 L21.5690488,16.4128689 L21.5690488,13.1777977 L23.3592729,13.1777977 C23.7518384,13.1777977 24.0377498,13.1950647 24.292252,13.3304691 C24.5369695,13.4778725 24.6908841,13.6798084 24.6908841,14.0488535 C24.6907863,14.5652045 24.3453834,14.8286967 24.1412728,14.909471 L24.1412728,14.909471 Z M25.1208275,13.1777977 L27.7088051,13.1777977 L27.7088051,13.8468201 L25.8930427,13.8468201 L25.8930427,14.4349705 L27.66448,14.4349705 L27.66448,15.0950179 L25.8930427,15.0950179 L25.8930427,15.7386763 L27.7088051,15.7416029 L27.7088051,16.4128689 L25.1208275,16.4128689 L25.1208275,13.1777977 L25.1208275,13.1777977 Z M19.889197,14.6707575 L18.8871373,14.6707575 L18.8871373,13.8469176 L19.898199,13.8469176 C20.1781417,13.8469176 20.3724675,13.9606651 20.3724675,14.2435704 C20.3724675,14.523354 20.1871437,14.6707575 19.889197,14.6707575 L19.889197,14.6707575 Z M18.1148243,16.1186474 L16.9243096,14.8008939 L18.1148243,13.5249909 L18.1148243,16.1186474 L18.1148243,16.1186474 Z M15.0403473,15.7386763 L13.13388,15.7386763 L13.13388,15.0950179 L14.8362367,15.0950179 L14.8362367,14.4349705 L13.13388,14.4349705 L13.13388,13.8468201 L15.0779209,13.8468201 L15.926066,14.7895777 L15.0403473,15.7386763 L15.0403473,15.7386763 Z M21.204957,14.2435704 C21.204957,15.1422338 20.5324487,15.3277807 19.8546568,15.3277807 L18.8871373,15.3277807 L18.8871373,16.4128689 L17.379987,16.4128689 L16.4251878,15.341926 L15.4329128,16.4128689 L12.3614691,16.4128689 L12.3614691,13.1777977 L15.4801733,13.1777977 L16.4341898,14.238205 L17.420496,13.1777977 L19.898199,13.1777977 C20.5135641,13.1777977 21.204957,13.3476385 21.204957,14.2435704 L21.204957,14.2435704 Z" id="EXPRESS" fill="#0072CE"></path>
                <path d="M8.66194012,9.44969085 L8.13121344,8.16032543 L7.60352003,9.44969085 L8.66194012,9.44969085 Z M20.3537786,8.93626645 C20.2472223,9.00074936 20.1211943,9.00289554 19.9702151,9.00289554 L19.0282339,9.00289554 L19.0282339,8.28451111 L19.9830331,8.28451111 C20.118161,8.28451111 20.2591597,8.29055943 20.3507453,8.34284814 C20.4513329,8.38996651 20.5135641,8.49025157 20.5135641,8.62877763 C20.5135641,8.77013274 20.4543662,8.88388019 20.3537786,8.93626645 L20.3537786,8.93626645 Z M27.0737726,9.44969085 L26.537175,8.16032543 L26.0035129,9.44969085 L27.0737726,9.44969085 L27.0737726,9.44969085 Z M14.547292,10.8452921 L13.7523762,10.8452921 L13.7494407,8.31221632 L12.6250712,10.8452921 L11.9442459,10.8452921 L10.816941,8.30997259 L10.816941,10.8452921 L9.23982947,10.8452921 L8.94188279,10.1238835 L7.32739343,10.1238835 L7.02641347,10.8452921 L6.1842371,10.8452921 L7.57279581,7.61100132 L8.72485628,7.61100132 L10.0436495,10.6732076 L10.0436495,7.61100132 L11.3092134,7.61100132 L12.3239934,9.80507847 L13.2561898,7.61100132 L14.5471942,7.61100132 L14.5471942,10.8452921 L14.547292,10.8452921 Z M17.7155073,10.8452921 L15.1251814,10.8452921 L15.1251814,7.61100132 L17.7155073,7.61100132 L17.7155073,8.28451111 L15.9006255,8.28451111 L15.9006255,8.86749119 L17.671965,8.86749119 L17.671965,9.5304652 L15.9006255,9.5304652 L15.9006255,10.1763673 L17.7155073,10.1763673 L17.7155073,10.8452921 L17.7155073,10.8452921 Z M21.3677758,8.48205707 C21.3677758,8.9977252 21.0225686,9.26414397 20.8213934,9.34413789 C20.9910616,9.40852324 21.1359742,9.5222707 21.204957,9.61650744 C21.3144487,9.77737326 21.3333333,9.92106966 21.3333333,10.2099258 L21.3333333,10.8452921 L20.5512355,10.8452921 L20.5483001,10.4374207 C20.5483001,10.2428013 20.566989,9.96292013 20.4258925,9.8073222 C20.3125847,9.69357475 20.1398832,9.6688937 19.8607233,9.6688937 L19.0283317,9.6688937 L19.0283317,10.8452921 L18.2529855,10.8452921 L18.2529855,7.61100132 L20.036458,7.61100132 C20.4327418,7.61100132 20.7247198,7.62143955 20.9754059,7.76591638 C21.2207105,7.9103932 21.3677758,8.121304 21.3677758,8.48205707 L21.3677758,8.48205707 Z M22.6086821,10.8452921 L21.8174844,10.8452921 L21.8174844,7.61100132 L22.6086821,7.61100132 L22.6086821,10.8452921 L22.6086821,10.8452921 Z M31.7875923,10.8452921 L30.6887611,10.8452921 L29.2189886,8.41776928 L29.2189886,10.8452921 L27.6398223,10.8452921 L27.3380596,10.1238835 L25.7272885,10.1238835 L25.4345277,10.8452921 L24.5271847,10.8452921 C24.1502748,10.8452921 23.6730709,10.7621765 23.4028152,10.4875632 C23.1303089,10.2129499 22.9885274,9.84097818 22.9885274,9.25282776 C22.9885274,8.7731569 23.0732636,8.33465364 23.4065334,7.98814339 C23.6572195,7.73001667 24.0497851,7.61100132 24.5841321,7.61100132 L25.3348208,7.61100132 L25.3348208,8.30402182 L24.5998856,8.30402182 C24.3169097,8.30402182 24.1571242,8.34596985 24.0032095,8.49561702 C23.8710171,8.63180179 23.7803121,8.88924564 23.7803121,9.22824426 C23.7803121,9.57475451 23.8493927,9.82458918 23.9935226,9.98779629 C24.1128969,10.1157866 24.3298256,10.1546129 24.5339362,10.1546129 L24.8821767,10.1546129 L25.9750392,7.61109888 L27.1368844,7.61109888 L28.4497089,10.670281 L28.4497089,7.61109888 L29.630341,7.61109888 L30.9933614,9.86361061 L30.9933614,7.61109888 L31.7875923,7.61109888 L31.7875923,10.8452921 L31.7875923,10.8452921 Z M6.1752351,11.4805609 L7.50009486,11.4805609 L7.79882432,10.7621765 L8.46761431,10.7621765 L8.76556099,11.4805609 L11.3723253,11.4805609 L11.3723253,10.9313343 L11.6050075,11.4829022 L12.9582431,11.4829022 L13.1909253,10.9231398 L13.1909253,11.4805609 L19.6692351,11.4805609 L19.6662018,10.3013334 L19.7915449,10.3013334 C19.8793144,10.3043576 19.9049505,10.3124545 19.9049505,10.4569314 L19.9049505,11.4805609 L23.2555542,11.4805609 L23.2555542,11.2060452 C23.5258099,11.3504244 23.9461642,11.4805609 24.4992981,11.4805609 L25.908894,11.4805609 L26.2105589,10.7621765 L26.8793489,10.7621765 L27.1743602,11.4805609 L29.8907141,11.4805609 L29.8907141,10.7981737 L30.3020664,11.4805609 L32.4787895,11.4805609 L32.4787895,6.96968421 L30.3245714,6.96968421 L30.3245714,7.50242421 L30.0229065,6.96968421 L27.8124259,6.96968421 L27.8124259,7.50242421 L27.5354187,6.96968421 L24.5495918,6.96968421 C24.0497851,6.96968421 23.6104483,7.0392399 23.2555542,7.23307883 L23.2555542,6.96968421 L21.1950743,6.96968421 L21.1950743,7.23307883 C20.9692415,7.03328913 20.6615101,6.96968421 20.3193362,6.96968421 L12.7916082,6.96968421 L12.2865177,8.13476639 L11.7678263,6.96968421 L9.39677741,6.96968421 L9.39677741,7.50242421 L9.13630645,6.96968421 L7.11418298,6.96968421 L6.17513725,9.11439926 L6.17513725,11.4805609 L6.1752351,11.4805609 Z" id="AMERICAN" fill="#0072CE"></path>
            </g>
        </g>
    </g>
</svg>