<?xml version="1.0" encoding="UTF-8"?>
<svg width="77px" height="29px" viewBox="0 0 77 29" version="1.1" xmlns="http://www.w3.org/2000/svg" xmlns:xlink="http://www.w3.org/1999/xlink">
    <!-- Generator: Sketch 43.2 (39069) - http://www.bohemiancoding.com/sketch -->
    <title>Group 5</title>
    <desc>Created with Sketch.</desc>
    <defs></defs>
    <g id="Icons-&amp;-Logos" stroke="none" stroke-width="1" fill="none" fill-rule="evenodd">
        <g id="Artboard" transform="translate(-243.000000, -282.000000)">
            <g id="Group-5" transform="translate(245.000000, 284.000000)">
                <path d="M72.9316706,21.4760274 C72.9316706,23.375 71.3765284,24.9143836 69.4581161,24.9143836 L3.56004739,24.9143836 C1.64163507,24.9143836 0.086492891,23.375 0.086492891,21.4760274 L0.086492891,3.52106164 C0.086492891,1.62208904 1.64163507,0.0827054795 3.56004739,0.0827054795 L69.4581161,0.0827054795 C71.3765284,0.0827054795 72.9316706,1.62208904 72.9316706,3.52106164 L72.9316706,21.4760274" id="Fill-1" fill="#999999"></path>
                <path d="M72.9316706,21.4760274 C72.9316706,23.375 71.3765284,24.9143836 69.4581161,24.9143836 L3.56004739,24.9143836 C1.64163507,24.9143836 0.086492891,23.375 0.086492891,21.4760274 L0.086492891,3.52106164 C0.086492891,1.62208904 1.64163507,0.0827054795 3.56004739,0.0827054795 L69.4581161,0.0827054795 C71.3765284,0.0827054795 72.9316706,1.62208904 72.9316706,3.52106164 L72.9316706,21.4760274 Z" id="Stroke-2" stroke="#999999" stroke-width="3"></path>
                <path d="M25.6200592,0.0827054795 L3.56004739,0.0827054795 C1.64163507,0.0827054795 0.086492891,1.62208904 0.086492891,3.52106164 L0.086492891,21.4760274 C0.086492891,23.375 1.64163507,24.9143836 3.56004739,24.9143836 L25.6200592,24.9143836 L25.6200592,0.0827054795" id="Fill-4" fill="#FBFBFB"></path>
                <path d="M12.1920379,7.80308219 L11.1070711,9.28184932 C10.5632038,10.0232877 10.731519,11.3369863 11.4743199,11.8678082 L13.4857986,13.305137 C13.8309052,13.5518836 13.858064,13.7962329 13.6944194,14.0570205 L13.9865924,14.2719178 L15.0046137,12.8755137 C15.633936,12.0128425 15.5790995,10.8386986 14.6458412,10.1659247 L12.6177559,8.70359589 C12.3747109,8.52842466 12.3498009,8.28390411 12.4842109,8.00958904 L12.1920379,7.80308219" id="Fill-5" fill="#999999"></path>
                <path d="M13.9326209,1.26472603 L12.2435877,3.57705479 C11.4514858,4.6614726 11.7395071,6.51335616 12.8217062,7.2994863 L15.5984739,9.31678082 C16.1613697,9.72568493 16.2347156,10.7671233 15.8249123,11.3011986 L16.060519,11.4760274 L17.9756445,8.80839041 C18.8359028,7.61061644 18.78591,5.84075342 17.43541,4.87003425 L14.4652441,2.73527397 C14.0495592,2.4364726 13.8419763,1.92859589 14.1882938,1.44366438 L13.9326209,1.26472603" id="Fill-6" fill="#999999"></path>
                <path d="M9.48135071,15.7655822 L11.7196137,15.7655822 L12.1186919,17.1089041 L15.7763033,17.1089041 L16.1753815,15.7655822 L18.4134716,15.7655822 L18.1200877,14.7777397 L9.7747346,14.7777397 L9.48135071,15.7655822" id="Fill-7" fill="#999999"></path>
                <path d="M21.159519,22.6571918 C21.159519,22.6368151 21.1558859,22.6188356 21.1486198,22.6030822 C21.1415807,22.5873288 21.1297733,22.5729452 21.1129704,22.5599315 C21.0961675,22.5469178 21.073915,22.5347603 21.0459858,22.5238014 C21.0180567,22.5128425 20.9835426,22.5017123 20.9422165,22.4909247 C20.9042964,22.4808219 20.8738695,22.4715753 20.8504817,22.4633562 C20.827321,22.4549658 20.8091557,22.4464041 20.7962129,22.4378425 C20.7837242,22.4291096 20.7750957,22.4202055 20.7707814,22.4111301 C20.7664672,22.4018836 20.7644236,22.3916096 20.7644236,22.3799658 C20.7644236,22.3691781 20.7671484,22.3587329 20.7723709,22.3491438 C20.7778205,22.3393836 20.786222,22.3308219 20.7980294,22.3234589 C20.8098369,22.3162671 20.8248232,22.310274 20.8434427,22.3059932 C20.8620621,22.3013699 20.8843146,22.2993151 20.9099731,22.2993151 C20.9476661,22.2993151 20.9805907,22.3034247 21.0080657,22.3121575 C21.0355408,22.3208904 21.0627887,22.3333904 21.0898096,22.3501712 L21.1436243,22.3023973 C21.1120621,22.2840753 21.0786834,22.2696918 21.043261,22.2590753 C21.0080657,22.2488014 20.9651502,22.2433219 20.9154227,22.2433219 C20.8802274,22.2433219 20.8486652,22.2465753 20.8196007,22.2527397 C20.7905362,22.2590753 20.7660131,22.2684932 20.7455771,22.2806507 C20.7253682,22.2929795 20.7092465,22.3078767 20.6981202,22.3251712 C20.6867669,22.3424658 20.6808632,22.3619863 20.6808632,22.3840753 C20.6808632,22.4039384 20.6847233,22.4214041 20.6919894,22.4364726 C20.6994826,22.4517123 20.7117442,22.4655822 20.72832,22.477911 C20.74535,22.4902397 20.7673755,22.5015411 20.7948505,22.5123288 C20.8223255,22.5231164 20.8563854,22.5337329 20.8972574,22.5441781 C20.9313173,22.5530822 20.9599277,22.5619863 20.9828614,22.5705479 C21.005568,22.5791096 21.0239604,22.5880137 21.0380385,22.5969178 C21.0516625,22.6058219 21.0616534,22.615411 21.06733,22.6258562 C21.0730067,22.6363014 21.0759586,22.6479452 21.0759586,22.6604452 C21.0759586,22.689726 21.0614263,22.7128425 21.0325889,22.7294521 C21.0035244,22.7462329 20.9642419,22.7547945 20.9142873,22.7547945 C20.8759131,22.7547945 20.8400367,22.7486301 20.8073391,22.7364726 C20.7744145,22.7244863 20.7437606,22.7085616 20.7151502,22.6886986 L20.659519,22.7342466 C20.6894917,22.7563356 20.7260494,22.7744863 20.769192,22.7888699 C20.8123346,22.8032534 20.8597914,22.8104452 20.9111084,22.8104452 C20.9503909,22.8104452 20.985132,22.8065068 21.0160131,22.7986301 C21.046667,22.7909247 21.0727796,22.7799658 21.0941239,22.7664384 C21.1156952,22.7527397 21.1318169,22.7364726 21.1429431,22.7178082 C21.1538423,22.6989726 21.159519,22.6787671 21.159519,22.6571918" id="Fill-8" fill="#999999"></path>
                <path d="M21.6399005,22.8017123 L21.6399005,22.2520548 L21.5695002,22.2520548 L21.4311575,22.5811644 C21.4279974,22.5888699 21.4243106,22.5979452 21.4200971,22.6077055 C21.4158836,22.6178082 21.4120213,22.6277397 21.4079833,22.6376712 C21.4042965,22.6476027 21.4006097,22.6570205 21.3972741,22.6659247 C21.3939384,22.6748288 21.3916561,22.6821918 21.3899005,22.6878425 C21.3881449,22.6821918 21.3855114,22.675 21.3825269,22.6662671 C21.3790156,22.6575342 21.3755044,22.6484589 21.371642,22.6385274 C21.3677797,22.6284247 21.3635662,22.6186644 21.3597038,22.6085616 C21.3554904,22.5986301 21.3518036,22.5895548 21.3486435,22.5811644 L21.2118808,22.2520548 L21.1399005,22.2520548 L21.1399005,22.8017123 L21.2020494,22.8017123 L21.2020494,22.3707192 C21.2036294,22.3758562 21.2057361,22.382363 21.208194,22.3898973 C21.2104763,22.3976027 21.2134609,22.4053082 21.216621,22.4135274 C21.21943,22.4214041 21.2227656,22.4299658 21.2259258,22.4385274 C21.2292614,22.4472603 21.2325971,22.4549658 21.2359328,22.4618151 L21.3881449,22.8159247 L21.5429904,22.4618151 C21.546326,22.4544521 21.5496617,22.4465753 21.5529974,22.4381849 C21.5561575,22.4297945 21.5596687,22.4214041 21.5628288,22.4135274 C21.5661645,22.4053082 21.5689735,22.3976027 21.5714314,22.3898973 C21.5740648,22.382363 21.575996,22.3758562 21.5777516,22.3707192 L21.5777516,22.8017123 L21.6399005,22.8017123" id="Fill-9" fill="#999999"></path>
                <path d="M9.65053081,21.8965753 L8.30937204,21.8965753 L8.30937204,20.785274 L9.65053081,20.785274 C10.6367227,20.785274 10.5768697,21.8965753 9.65053081,21.8965753 Z M8.30937204,18.8768836 L9.51196919,18.8768836 C10.2632464,18.8768836 10.2904052,19.9160959 9.55919431,19.9160959 L8.30937204,19.9160959 L8.30937204,18.8768836 Z M11.4056445,21.2777397 C11.3101564,20.6388699 11.0501588,20.4859589 10.5301635,20.2590753 C10.9233602,20.0313356 11.1650213,19.6962329 11.1650213,19.2373288 C11.1650213,18.3195205 10.4054408,17.9457192 9.57701185,17.9457192 L7.26246209,17.9457192 L7.26246209,22.8171233 L9.55538863,22.8171233 C10.5344882,22.8171233 11.5724028,22.3933219 11.4056445,21.2777397 L11.4056445,21.2777397 Z" id="Fill-10" fill="#999999"></path>
                <path d="M14.2457251,21.8965753 L12.9045664,21.8965753 L12.9045664,20.785274 L14.2457251,20.785274 C15.2319171,20.785274 15.171891,21.8965753 14.2457251,21.8965753 Z M12.9045664,18.8768836 L14.1071635,18.8768836 C14.8586137,18.8768836 14.8855995,19.9160959 14.1543886,19.9160959 L12.9045664,19.9160959 L12.9045664,18.8768836 Z M16.0008389,21.2777397 C15.9053507,20.6388699 15.6451801,20.4859589 15.1253578,20.2590753 C15.5185545,20.0313356 15.7600427,19.6962329 15.7600427,19.2373288 C15.7600427,18.3195205 15.0008081,17.9457192 14.1722062,17.9457192 L11.8576564,17.9457192 L11.8576564,22.8171233 L14.1505829,22.8171233 C15.1296825,22.8171233 16.1674242,22.3933219 16.0008389,21.2777397 L16.0008389,21.2777397 Z" id="Fill-11" fill="#999999"></path>
                <path d="M18.8407464,21.8965753 L17.4997607,21.8965753 L17.4997607,20.785274 L18.8407464,20.785274 C19.8271114,20.785274 19.7670853,21.8965753 18.8407464,21.8965753 Z M17.4997607,18.8768836 L18.7021848,18.8768836 C19.4536351,18.8768836 19.4806209,19.9160959 18.7495829,19.9160959 L17.4997607,19.9160959 L17.4997607,18.8768836 Z M20.5960332,21.2777397 C20.500545,20.6388699 20.2405474,20.4859589 19.7205521,20.2590753 C20.1137488,20.0313356 20.355237,19.6962329 20.355237,19.2373288 C20.355237,18.3195205 19.5958294,17.9457192 18.7674005,17.9457192 L16.4528507,17.9457192 L16.4528507,22.8171233 L18.7457773,22.8171233 C19.7247038,22.8171233 20.7626185,22.3933219 20.5960332,21.2777397 L20.5960332,21.2777397 Z" id="Fill-12" fill="#999999"></path>
                <path d="M37.0331422,9.64075342 C36.7534242,9.32208904 36.3131754,9.02945205 35.8978365,8.91729452 C35.7172393,8.86849315 35.5162299,8.84417808 35.294981,8.84417808 C34.9836066,8.84417808 34.699045,8.9005137 34.4418152,9.01267123 C34.1844123,9.12517123 33.9631635,9.28219178 33.7780687,9.48356164 C33.5929739,9.68493151 33.4483578,9.92671233 33.3445664,10.2087329 C33.2407749,10.4905822 33.1888791,10.8011986 33.1888791,11.1405822 C33.1888791,11.492637 33.2385261,11.809589 33.3378199,12.0914384 C33.4371137,12.3736301 33.5780972,12.6142123 33.7611161,12.8136986 C33.9441351,13.0128425 34.1617512,13.1666096 34.4146564,13.2748288 C34.6675616,13.3828767 34.9497014,13.4371575 35.2610758,13.4371575 C35.8348697,13.4371575 36.828846,13.1261986 37.1120237,12.5726027 L36.4378981,11.9809932 C36.2462299,12.2830479 35.6475261,12.5527397 35.2882346,12.5527397 C35.1121351,12.5527397 34.9540261,12.5169521 34.8142536,12.4446918 C34.6743081,12.3724315 34.5558128,12.2729452 34.4587678,12.1457192 C34.3615498,12.0184932 34.2883768,11.8688356 34.2385569,11.6972603 C34.18891,11.5256849 34.164173,11.3400685 34.164173,11.1405822 C34.164173,10.9328767 34.18891,10.7429795 34.2385569,10.5712329 C34.2883768,10.3994863 34.3605118,10.2510274 34.4553081,10.1258562 C34.5501043,10.0008562 34.6675616,9.90325342 34.8075071,9.83339041 C34.9472796,9.76335616 35.1053886,9.72842466 35.2814882,9.72842466 C35.6374929,9.72842466 36.1405355,9.96181507 36.3757962,10.2683219 L37.0331422,9.64075342" id="Fill-13" fill="#FFFFFF"></path>
                <polyline id="Fill-14" fill="#FFFFFF" points="50.0134763 13.3671233 50.0134763 12.4955479 47.5688412 12.4955479 47.5688412 11.4203767 49.5362085 11.4203767 49.5362085 10.5554795 47.5688412 10.5554795 47.5688412 9.78561644 49.9121066 9.78561644 49.9121066 8.91421233 46.6207062 8.91421233 46.6207062 13.3671233 50.0134763 13.3671233"></polyline>
                <path d="M53.4975829,11.6972603 C53.4389408,11.864726 53.350718,12.0077055 53.2336066,12.1265411 C53.1163223,12.2452055 52.9658246,12.3375 52.7829787,12.4032534 C52.6003057,12.4690068 52.3845924,12.5018836 52.1367038,12.5018836 L51.6692962,12.5018836 L51.6692962,9.77945205 L52.170436,9.77945205 C52.6714028,9.77945205 53.0324242,9.89280822 53.254019,10.1196918 C53.4749218,10.3464041 53.5858057,10.6869863 53.5858057,11.1405822 C53.5858057,11.3441781 53.5565711,11.5296233 53.4975829,11.6972603 Z M54.3817133,10.1068493 C54.2620071,9.82482877 54.0971517,9.59486301 53.8869739,9.41660959 C53.6771422,9.23869863 53.4290806,9.11027397 53.1422701,9.03184932 C52.8556327,8.95342466 52.5425284,8.91421233 52.2039953,8.91421233 L50.7206422,8.91421233 L50.7206422,13.3671233 L52.1367038,13.3671233 C52.4390829,13.3671233 52.7357536,13.3244863 53.0270616,13.2398973 C53.3183697,13.1549658 53.5776754,13.0224315 53.8058436,12.8422945 C54.0336659,12.6619863 54.2168578,12.4308219 54.3542085,12.1488014 C54.4919052,11.8669521 54.5607536,11.5306507 54.5607536,11.1405822 C54.5607536,10.7335616 54.5010735,10.3890411 54.3817133,10.1068493 L54.3817133,10.1068493 Z" id="Fill-15" fill="#FFFFFF"></path>
                <polygon id="Fill-16" fill="#FFFFFF" points="55.4782701 13.3671233 56.4264052 13.3671233 56.4264052 8.91421233 55.4782701 8.91421233"></polygon>
                <polyline id="Fill-17" fill="#FFFFFF" points="60.844981 9.79212329 60.844981 8.91421233 57.1742227 8.91421233 57.1742227 9.79212329 58.5356209 9.79212329 58.5356209 13.3671233 59.4835829 13.3671233 59.4835829 9.79212329 60.844981 9.79212329"></polyline>
                <path d="M68.3342275,11.6972603 C68.2757583,11.864726 68.1877085,12.0077055 68.0705972,12.1265411 C67.9529668,12.2452055 67.8026422,12.3375 67.6197962,12.4032534 C67.4371232,12.4690068 67.2215829,12.5018836 66.9730024,12.5018836 L66.5055948,12.5018836 L66.5055948,9.77945205 L67.0070806,9.77945205 C67.5082204,9.77945205 67.8692417,9.89280822 68.0908365,10.1196918 C68.3117393,10.3464041 68.4226232,10.6869863 68.4226232,11.1405822 C68.4226232,11.3441781 68.3932156,11.5296233 68.3342275,11.6972603 Z M69.2181848,10.1068493 C69.0986517,9.82482877 68.9339692,9.59486301 68.7236185,9.41660959 C68.5139597,9.23869863 68.2655521,9.11027397 67.9792607,9.03184932 C67.6922773,8.95342466 67.379519,8.91421233 67.0409858,8.91421233 L65.5576327,8.91421233 L65.5576327,13.3671233 L66.9730024,13.3671233 C67.2753815,13.3671233 67.5725711,13.3244863 67.8638791,13.2398973 C68.1551872,13.1549658 68.4144929,13.0224315 68.6428341,12.8422945 C68.8704834,12.6619863 69.0533294,12.4308219 69.1910261,12.1488014 C69.3287227,11.8669521 69.3977441,11.5306507 69.3977441,11.1405822 C69.3977441,10.7335616 69.337718,10.3890411 69.2181848,10.1068493 L69.2181848,10.1068493 Z" id="Fill-18" fill="#FFFFFF"></path>
                <polyline id="Fill-19" fill="#FFFFFF" points="64.8471801 13.3671233 64.8471801 12.4955479 62.4021991 12.4955479 62.4021991 11.4203767 64.3693934 11.4203767 64.3693934 10.5554795 62.4021991 10.5554795 62.4021991 9.78561644 64.7454645 9.78561644 64.7454645 8.91421233 61.454064 8.91421233 61.454064 13.3671233 64.8471801 13.3671233"></polyline>
                <polyline id="Fill-20" fill="#FFFFFF" points="56.9140521 19.1166096 56.9140521 18.2452055 54.4694171 18.2452055 54.4694171 17.1702055 56.4367844 17.1702055 56.4367844 16.3049658 54.4694171 16.3049658 54.4694171 15.535274 56.8126825 15.535274 56.8126825 14.6638699 53.520936 14.6638699 53.520936 19.1166096 56.9140521 19.1166096"></polyline>
                <path d="M41.4107204,9.64075342 C41.1310024,9.32208904 40.6907536,9.02945205 40.2754147,8.91729452 C40.0948175,8.86849315 39.893981,8.84417808 39.6727322,8.84417808 C39.3613578,8.84417808 39.0767962,8.9005137 38.8193934,9.01267123 C38.5619905,9.12517123 38.3407417,9.28219178 38.1556469,9.48356164 C37.9705521,9.68493151 37.826109,9.92671233 37.7221445,10.2087329 C37.6183531,10.4905822 37.5664573,10.8011986 37.5664573,11.1405822 C37.5664573,11.492637 37.6161043,11.809589 37.7153981,12.0914384 C37.8148649,12.3736301 37.9558483,12.6142123 38.1388673,12.8136986 C38.3217133,13.0128425 38.5395024,13.1666096 38.7922346,13.2748288 C39.0451398,13.3828767 39.3272796,13.4371575 39.638827,13.4371575 C40.2126209,13.4371575 41.2065972,13.1261986 41.4896019,12.5726027 L40.8154763,11.9809932 C40.6238081,12.2830479 40.0251043,12.5527397 39.6659858,12.5527397 C39.4897133,12.5527397 39.3317773,12.5169521 39.1918318,12.4446918 C39.0518863,12.3724315 38.933391,12.2729452 38.836173,12.1457192 C38.739128,12.0184932 38.665955,11.8688356 38.6161351,11.6972603 C38.5664882,11.5256849 38.5417512,11.3400685 38.5417512,11.1405822 C38.5417512,10.9328767 38.5664882,10.7429795 38.6161351,10.5712329 C38.665955,10.3994863 38.73809,10.2510274 38.8328863,10.1258562 C38.9276825,10.0008562 39.0451398,9.90325342 39.1849123,9.83339041 C39.3250308,9.76335616 39.4829668,9.72842466 39.6592393,9.72842466 C40.0150711,9.72842466 40.5182867,9.96181507 40.7533744,10.2683219 L41.4107204,9.64075342" id="Fill-21" fill="#FFFFFF"></path>
                <path d="M36.4235403,18.1148973 C36.3159431,18.2186644 36.1497038,18.2705479 35.9253412,18.2705479 L34.6980071,18.2705479 L34.6980071,17.1193493 L35.9253412,17.1193493 C36.3652441,17.1193493 36.585109,17.3099315 36.585109,17.6916096 C36.585109,17.869863 36.5313104,18.0107877 36.4235403,18.1148973 Z M34.6980071,15.4842466 L35.8727536,15.4842466 C36.0749739,15.4842466 36.220109,15.5203767 36.3081588,15.592637 C36.3960355,15.6645548 36.4399739,15.7707192 36.4399739,15.9106164 C36.4399739,16.0335616 36.4015711,16.1342466 36.3245924,16.2126712 C36.2476137,16.2914384 36.1123389,16.3304795 35.9187678,16.3304795 L34.6980071,16.3304795 L34.6980071,15.4842466 Z M37.3505711,17.0683219 C37.2275782,16.9071918 37.0734479,16.7864726 36.8886991,16.7058219 C37.0426564,16.6166096 37.1625355,16.4981164 37.2483365,16.3494863 C37.3341374,16.2010274 37.3770379,16.0315068 37.3770379,15.8405822 C37.3770379,15.4589041 37.2450498,15.1674658 36.9810735,14.9660959 C36.7170972,14.7643836 36.3609194,14.6638699 35.9123673,14.6638699 L33.7941564,14.6638699 L33.7941564,19.1166096 L35.8924739,19.1166096 C36.1388057,19.1166096 36.3629953,19.0861301 36.5653886,19.0246575 C36.767782,18.9628425 36.9404218,18.8717466 37.083481,18.7508562 C37.2263673,18.6299658 37.3374242,18.4796233 37.4164787,18.2993151 C37.4957062,18.1191781 37.5353199,17.9123288 37.5353199,17.6791096 C37.5353199,17.4330479 37.473737,17.2296233 37.3505711,17.0683219 L37.3505711,17.0683219 Z" id="Fill-22" fill="#FFFFFF"></path>
                <path d="M41.8930047,17.1511986 L41.8930047,14.6638699 L40.9692607,14.6638699 L40.9692607,17.1638699 C40.9692607,17.5241438 40.8846706,17.8061644 40.7153175,18.0099315 C40.5459645,18.2133562 40.3138175,18.3152397 40.0192227,18.3152397 C39.724455,18.3152397 39.493519,18.2113014 39.3264147,18.0034247 C39.1593104,17.7957192 39.0755853,17.5114726 39.0755853,17.1511986 L39.0755853,14.6638699 L38.1518412,14.6638699 L38.1518412,17.1638699 C38.1518412,17.4902397 38.1968175,17.7785959 38.2871161,18.0287671 C38.3772417,18.2791096 38.5036943,18.4900685 38.6664739,18.6618151 C38.8292536,18.8335616 39.0262844,18.9640411 39.2570474,19.0530822 C39.4879834,19.1422945 39.7419265,19.1868151 40.0192227,19.1868151 C40.6085853,19.1868151 41.0682085,19.009589 41.3980924,18.6556507 C41.7281493,18.3013699 41.8930047,17.8 41.8930047,17.1511986" id="Fill-23" fill="#FFFFFF"></path>
                <path d="M46.1385948,17.7681507 C46.1385948,17.5263699 46.0924076,17.3270548 46.0000332,17.1702055 C45.9076588,17.0133562 45.7877796,16.8840753 45.6403957,16.7821918 C45.4930118,16.6803082 45.3279834,16.6008562 45.1456564,16.5434932 C44.9629834,16.4863014 44.7792725,16.4363014 44.5945237,16.3940068 C44.4099479,16.3517123 44.2580664,16.3133562 44.1392251,16.2794521 C44.0207299,16.2457192 43.9261066,16.209589 43.8555284,16.1714041 C43.7852962,16.1333904 43.7356493,16.089726 43.7071066,16.0409247 C43.678564,15.9922945 43.6642062,15.9320205 43.6642062,15.8597603 C43.6642062,15.8087329 43.6752773,15.7601027 43.6970735,15.7133562 C43.7190427,15.6667808 43.7565806,15.6244863 43.8093412,15.5861301 C43.8622749,15.5479452 43.9302583,15.5172945 44.0139834,15.4940068 C44.0975355,15.4707192 44.200981,15.4589041 44.3239739,15.4589041 C44.5351896,15.4589041 44.7253009,15.4981164 44.894827,15.5765411 C45.0641801,15.6549658 45.223673,15.7686644 45.3731327,15.9169521 L46.0394739,15.2934932 C45.819609,15.0731164 45.5744882,14.9011986 45.3041114,14.7784247 C45.0332156,14.655137 44.7178626,14.5938356 44.3570142,14.5938356 C44.128327,14.5938356 43.9138246,14.6236301 43.7136801,14.6828767 C43.5135355,14.7422945 43.3388199,14.8280822 43.1891872,14.9405822 C43.0397275,15.052911 42.9219242,15.189726 42.8361232,15.3508562 C42.7504953,15.5119863 42.7075948,15.6943493 42.7075948,15.897774 C42.7075948,16.1184932 42.7427109,16.302911 42.8131161,16.4513699 C42.8833483,16.5998288 42.9824692,16.722774 43.1099597,16.8203767 C43.2376232,16.9178082 43.3903697,16.9982877 43.568545,17.0619863 C43.7468934,17.1255137 43.9415024,17.1808219 44.152372,17.2273973 C44.3680853,17.2739726 44.5440118,17.3184932 44.6803246,17.3611301 C44.8168104,17.4034247 44.9212938,17.4479452 44.9937749,17.4945205 C45.0664289,17.5412671 45.1159028,17.5910959 45.1421967,17.6440068 C45.1686635,17.697089 45.1818104,17.759589 45.1818104,17.8316781 C45.1818104,18.0015411 45.1169408,18.1244863 44.9872014,18.2006849 C44.8574621,18.2770548 44.6540308,18.3152397 44.3767346,18.3152397 C44.152372,18.3152397 43.9402915,18.2760274 43.7401469,18.1976027 C43.5400024,18.1191781 43.3583673,17.9886986 43.1957607,17.8061644 L42.5292464,18.3789384 C42.705173,18.6291096 42.9516777,18.8261986 43.2684147,18.9703767 C43.5849787,19.1145548 43.9370047,19.1868151 44.3239739,19.1868151 C44.6408839,19.1868151 44.9124716,19.1527397 45.13891,19.0849315 C45.3653483,19.0169521 45.5535569,18.9205479 45.7031896,18.7955479 C45.8524763,18.6703767 45.9624953,18.5208904 46.0329005,18.347089 C46.1034787,18.1729452 46.1385948,17.9803082 46.1385948,17.7681507" id="Fill-24" fill="#FFFFFF"></path>
                <polygon id="Fill-25" fill="#FFFFFF" points="46.8871043 19.1166096 47.8106754 19.1166096 47.8106754 14.6638699 46.8871043 14.6638699"></polygon>
                <path d="M52.511737,19.1166096 L52.511737,14.6638699 L51.6007938,14.6638699 L51.6007938,16.5465753 C51.6007938,16.6104452 51.6021777,16.6888699 51.6039076,16.7821918 C51.6061564,16.8755137 51.6075403,16.9708904 51.6075403,17.0683219 C51.6075403,17.1616438 51.6085782,17.2496575 51.610827,17.332363 C51.6129028,17.4152397 51.6142867,17.4775685 51.6142867,17.519863 C51.5831493,17.4606164 51.5360972,17.3833904 51.4720924,17.2878425 C51.4086066,17.1922945 51.3478886,17.1023973 51.2906303,17.0174658 L49.6547038,14.6638699 L48.7705735,14.6638699 L48.7705735,19.1166096 L49.6808246,19.1166096 L49.6808246,17.157363 C49.6808246,17.0936644 49.6797867,17.0152397 49.6777109,16.922089 C49.6754621,16.8287671 49.6740782,16.7354452 49.6740782,16.6422945 C49.6740782,16.5446918 49.6730403,16.4544521 49.6709645,16.3717466 C49.6687156,16.2890411 49.6676777,16.2265411 49.6676777,16.1842466 C49.6982962,16.2433219 49.7455213,16.3208904 49.8095261,16.4162671 C49.8735308,16.5116438 49.9337299,16.6018836 49.9909882,16.6866438 L51.6867678,19.1166096 L52.511737,19.1166096" id="Fill-26" fill="#FFFFFF"></path>
                <path d="M60.6860071,17.7681507 C60.6860071,17.5263699 60.6398199,17.3270548 60.5474455,17.1702055 C60.4550711,17.0133562 60.334846,16.8840753 60.1878081,16.7821918 C60.0405972,16.6803082 59.8753957,16.6008562 59.6928957,16.5434932 C59.5102227,16.4863014 59.3265118,16.4363014 59.141936,16.3940068 C58.9573602,16.3517123 58.8056517,16.3133562 58.6868104,16.2794521 C58.5679692,16.2457192 58.473346,16.209589 58.4027678,16.1714041 C58.3325355,16.1333904 58.2830616,16.089726 58.2546919,16.0409247 C58.2258033,15.9922945 58.2114455,15.9320205 58.2114455,15.8597603 C58.2114455,15.8087329 58.2226896,15.7601027 58.2446588,15.7133562 C58.2668009,15.6667808 58.3041659,15.6244863 58.3569265,15.5861301 C58.4095142,15.5479452 58.4774976,15.5172945 58.5612227,15.4940068 C58.6449479,15.4707192 58.7480474,15.4589041 58.8713863,15.4589041 C59.0826019,15.4589041 59.2728863,15.4981164 59.4422393,15.5765411 C59.6115924,15.6549658 59.7707393,15.7686644 59.920372,15.9169521 L60.5870592,15.2934932 C60.3670213,15.0731164 60.1215545,14.9011986 59.8510047,14.7784247 C59.5809739,14.655137 59.2654479,14.5938356 58.9042536,14.5938356 C58.6755664,14.5938356 58.461237,14.6236301 58.2609194,14.6828767 C58.0611209,14.7422945 57.8858863,14.8280822 57.7365995,14.9405822 C57.5869668,15.052911 57.4691635,15.189726 57.3835355,15.3508562 C57.2975616,15.5119863 57.2546611,15.6943493 57.2546611,15.897774 C57.2546611,16.1184932 57.2899502,16.302911 57.3605284,16.4513699 C57.4307607,16.5998288 57.5297085,16.722774 57.657372,16.8203767 C57.7850355,16.9178082 57.937782,16.9982877 58.1159573,17.0619863 C58.2941327,17.1255137 58.4887417,17.1808219 58.6997844,17.2273973 C58.9154976,17.2739726 59.0915972,17.3184932 59.227564,17.3611301 C59.3638768,17.4034247 59.4681872,17.4479452 59.5411872,17.4945205 C59.6136682,17.5412671 59.6631422,17.5910959 59.689436,17.6440068 C59.7159028,17.697089 59.7288768,17.759589 59.7288768,17.8316781 C59.7288768,18.0015411 59.6641801,18.1244863 59.5344408,18.2006849 C59.4048744,18.2770548 59.2012701,18.3152397 58.9241469,18.3152397 C58.6997844,18.3152397 58.4877038,18.2760274 58.2873863,18.1976027 C58.0872417,18.1191781 57.9057796,17.9886986 57.743346,17.8061644 L57.0764858,18.3789384 C57.2525853,18.6291096 57.4987441,18.8261986 57.815827,18.9703767 C58.132218,19.1145548 58.4842441,19.1868151 58.8713863,19.1868151 C59.1877773,19.1868151 59.4598839,19.1527397 59.6861493,19.0849315 C59.9127607,19.0169521 60.1009692,18.9205479 60.2502559,18.7955479 C60.3997156,18.6703767 60.5100806,18.5208904 60.5803128,18.347089 C60.650545,18.1729452 60.6860071,17.9803082 60.6860071,17.7681507" id="Fill-27" fill="#FFFFFF"></path>
                <path d="M64.6544739,17.7681507 C64.6544739,17.5263699 64.6081137,17.3270548 64.5159123,17.1702055 C64.4235379,17.0133562 64.3034858,16.8840753 64.1561019,16.7821918 C64.008891,16.6803082 63.8436896,16.6008562 63.6615355,16.5434932 C63.4786896,16.4863014 63.2948057,16.4363014 63.1104028,16.3940068 C62.925827,16.3517123 62.7741185,16.3133562 62.6551043,16.2794521 C62.536436,16.2457192 62.4418128,16.209589 62.3715806,16.1714041 C62.3008294,16.1333904 62.2513555,16.089726 62.2229858,16.0409247 C62.1942701,15.9922945 62.1797393,15.9320205 62.1797393,15.8597603 C62.1797393,15.8087329 62.1911564,15.7601027 62.2131256,15.7133562 C62.2352678,15.6667808 62.2724597,15.6244863 62.3252204,15.5861301 C62.377981,15.5479452 62.4463104,15.5172945 62.5296896,15.4940068 C62.6134147,15.4707192 62.7165142,15.4589041 62.8398531,15.4589041 C63.0508957,15.4589041 63.2413531,15.4981164 63.4105332,15.5765411 C63.5798863,15.6549658 63.7393791,15.7686644 63.8891848,15.9169521 L64.5555261,15.2934932 C64.3353152,15.0731164 64.0903673,14.9011986 63.8199905,14.7784247 C63.5492678,14.655137 63.2337417,14.5938356 62.8727204,14.5938356 C62.6440332,14.5938356 62.4297038,14.6236301 62.2292133,14.6828767 C62.0294147,14.7422945 61.8543531,14.8280822 61.7048934,14.9405822 C61.5554336,15.052911 61.4378033,15.189726 61.3518294,15.3508562 C61.2658555,15.5119863 61.223128,15.6943493 61.223128,15.897774 C61.223128,16.1184932 61.2582441,16.302911 61.3289953,16.4513699 C61.3992275,16.5998288 61.4983483,16.722774 61.6256659,16.8203767 C61.7535024,16.9178082 61.9060758,16.9982877 62.0842512,17.0619863 C62.2627725,17.1255137 62.4572085,17.1808219 62.6682512,17.2273973 C62.8839645,17.2739726 63.059891,17.3184932 63.1958578,17.3611301 C63.3321706,17.4034247 63.436827,17.4479452 63.509654,17.4945205 C63.5821351,17.5412671 63.631782,17.5910959 63.6582488,17.6440068 C63.6841967,17.697089 63.6975166,17.759589 63.6975166,17.8316781 C63.6975166,18.0015411 63.6326469,18.1244863 63.5029076,18.2006849 C63.3733412,18.2770548 63.169737,18.3152397 62.8924408,18.3152397 C62.6682512,18.3152397 62.4558246,18.2760274 62.2560261,18.1976027 C62.0555355,18.1191781 61.8742464,17.9886986 61.7116398,17.8061644 L61.0449526,18.3789384 C61.2208791,18.6291096 61.4672109,18.8261986 61.7841209,18.9703767 C62.1010308,19.1145548 62.4525379,19.1868151 62.8398531,19.1868151 C63.156763,19.1868151 63.4281777,19.1527397 63.6547891,19.0849315 C63.8810545,19.0169521 64.069263,18.9205479 64.2187227,18.7955479 C64.3687014,18.6703767 64.4783744,18.5208904 64.5487796,18.347089 C64.6193578,18.1729452 64.6544739,17.9803082 64.6544739,17.7681507" id="Fill-28" fill="#FFFFFF"></path>
                <path d="M30.2060853,11.5287671 L30.5107133,10.7207192 C30.5605332,10.5893836 30.6067204,10.4621575 30.6496209,10.3392123 C30.6925213,10.2160959 30.7252156,10.1123288 30.7478768,10.0273973 C30.7703649,10.1123288 30.8030592,10.2160959 30.8459597,10.3392123 C30.8888602,10.4621575 30.9350474,10.5893836 30.9848673,10.7207192 L31.2896682,11.5287671 L30.2060853,11.5287671 Z M31.2286043,8.91421233 L30.307628,8.91421233 L28.4924882,13.3671233 L29.5084336,13.3671233 L29.880872,12.3748288 L31.6147085,12.3748288 L31.9871469,13.3671233 L33.0300782,13.3671233 L31.2286043,8.91421233 L31.2286043,8.91421233 Z" id="Fill-29" fill="#FFFFFF"></path>
                <path d="M44.3421374,10.9244863 L43.1028673,10.9244863 L43.1028673,9.77945205 L44.3421374,9.77945205 C44.554391,9.77945205 44.7204573,9.82277397 44.8399905,9.90976027 C44.9595237,9.99657534 45.0193768,10.1419521 45.0193768,10.3453767 C45.0193768,10.7311644 44.7936303,10.9244863 44.3421374,10.9244863 Z M44.9771682,11.6751712 C45.2795474,11.5648973 45.6165237,11.3642123 45.7677133,11.1501712 C45.9190758,10.9359589 45.9948436,10.6613014 45.9948436,10.3263699 C45.9948436,10.0888699 45.9517701,9.88219178 45.8661422,9.70616438 C45.7801682,9.53013699 45.6628839,9.38287671 45.5137701,9.2640411 C45.3648294,9.14520548 45.1909787,9.05736301 44.992391,9 C44.7936303,8.94280822 44.5836256,8.91421233 44.3625498,8.91421233 L42.1545592,8.91421233 L42.1545592,13.3671233 L43.1028673,13.3671233 L43.1028673,11.7640411 L43.9477299,11.802226 L44.9385924,13.3671233 L46.0289218,13.3671233 L44.9771682,11.6751712 L44.9771682,11.6751712 Z" id="Fill-30" fill="#FFFFFF"></path>
            </g>
        </g>
    </g>
</svg>