<?xml version="1.0" encoding="UTF-8"?>
<svg width="120px" height="25px" viewBox="0 0 120 25" version="1.1" xmlns="http://www.w3.org/2000/svg" xmlns:xlink="http://www.w3.org/1999/xlink">
    <!-- Generator: Sketch 43.2 (39069) - http://www.bohemiancoding.com/sketch -->
    <title>Group 6 Copy</title>
    <desc>Created with Sketch.</desc>
    <defs></defs>
    <g id="Footer" stroke="none" stroke-width="1" fill="none" fill-rule="evenodd">
        <g id="Artboard" transform="translate(-428.000000, -686.000000)">
            <g id="Group" transform="translate(221.000000, 680.000000)">
                <g id="Group-6-Copy" transform="translate(207.000000, 6.000000)">
                    <path d="M19.360254,5.58424516 C19.2851869,5.49515097 19.2513994,5.42479827 19.1949889,5.39236107 C16.9011095,4.077573 14.4888268,3.5561269 11.8861588,4.36547122 C9.74109143,5.03252433 7.98546206,6.3256876 6.3012272,7.73101151 C5.73374362,8.20445055 5.214444,8.05451858 5.05050103,7.32951099 C4.9845419,7.03743197 5.03448868,6.71132993 5.07547442,6.4064202 C5.13350083,5.97392412 5.23207227,5.54676217 5.31316234,5.11743773 C5.06533817,5.27601962 4.933273,5.47021036 4.81883611,5.67391601 C2.94392207,9.0065866 3.39520593,13.4367881 5.90738214,16.3372509 C6.53818061,17.0655743 7.18102507,17.783662 7.82475095,18.5138595 C7.05057583,19.6774181 5.93588119,19.2258922 4.79812288,19.1314639 C4.97910652,19.2851442 5.02684976,19.3380529 5.08561068,19.3736617 C8.41045041,21.39313 13.190945,20.9845654 16.1060742,18.4371635 C16.8275114,17.8067284 17.5583504,17.1868174 18.303145,16.546579 C19.0388317,17.4326193 19.0886316,18.3926164 19.0204689,19.4112889 C19.280486,19.0306923 19.5187615,18.6456266 19.6793258,18.2312954 C21.048749,14.6988116 20.4959556,11.4565327 18.1283313,8.4922046 C17.5116354,7.72005495 16.9152121,6.93233543 16.3010136,6.14072344 C17.1796362,5.12853846 18.280669,5.50783752 19.360254,5.58424516 M21.9780529,22.5764393 C22.1970843,21.0379066 22.0802969,19.6134087 21.0296517,18.2904032 C19.9258278,19.2470845 18.903094,20.2108299 17.8001515,21.0761104 C12.8352946,24.9714584 6.5308355,25.1362394 1.70935515,21.875219 C2.20896987,21.9617182 2.70579344,22.0913229 3.20893382,22.1227509 C3.7383697,22.1557648 4.30423735,22.1932478 4.79797598,22.0464874 C5.27452704,21.9047729 5.67953668,21.5305196 6.18928765,21.2127792 C5.08752041,19.9582522 4.02997076,18.8855178 3.1249057,17.7004785 C-0.671784212,12.729657 -0.748614115,6.77894349 2.27125644,1.98472449 C2.34265096,1.87141052 2.45209317,1.781163 2.65496525,1.55756253 C2.45738165,2.56282758 2.27404759,3.40201413 2.13243377,4.24783229 C2.02960216,4.86183255 2.11216125,5.44599058 2.61618304,5.90270644 C2.97036448,6.22376269 3.25535494,6.2515866 3.68798221,5.9253404 C5.35311977,4.66966013 7.00944319,3.38961591 8.77109555,2.2739202 C10.6208893,1.10228833 12.7070488,0.439416013 14.9232169,0.349312664 C17.7685676,0.233547881 20.3256959,1.12996808 22.6842123,2.65350759 C21.1396815,2.57594662 19.5252252,1.99077943 18.1901771,3.4458404 C19.0115079,4.49868001 19.815798,5.51836159 20.6077483,6.54726975 C21.971883,8.31920617 23.2158517,10.1681269 23.6951939,12.3768844 C24.4230948,15.7311797 24.0436461,18.9609163 22.3589706,22.0032378 C22.2483532,22.2029069 22.105711,22.3857085 21.9780529,22.5764393" id="Fill-4" fill="#058CCB"></path>
                    <path d="M58.7764324,12.1611986 C58.7483741,11.5630565 58.7883315,10.9526604 58.6790362,10.3692232 C58.3850847,8.80113655 57.2016398,7.7821758 55.4880244,7.53507637 C53.8829699,7.30369097 52.2085775,8.12428019 51.4582006,9.59765016 C50.6283495,11.2272954 50.5571019,12.9251308 51.2924948,14.6055222 C52.0252435,16.2797145 53.6706961,17.1033312 55.6206772,16.8500327 C57.2154486,16.6427229 58.4575075,15.4487454 58.6990149,13.8146311 M58.7585103,16.6050957 C57.083971,18.5199 55.0717033,18.9734442 52.8186628,18.5164401 C50.3712705,18.0199346 48.6520729,16.1106086 48.2683641,13.3831441 C47.7810891,9.92043639 49.6347024,6.5070332 53.4253693,5.83608762 C55.5895339,5.4528961 57.5553805,5.87976973 59.0377716,7.86795419 C59.0799326,7.17336549 59.1126918,6.63490788 59.1476545,6.05911143 L61.3229838,6.05911143 C61.3445784,6.1071185 61.3981977,6.16983043 61.3974632,6.2319657 C61.3582403,10.1704191 61.3895305,14.1113234 61.2501202,18.0461727 C61.1135011,21.9030285 59.0484955,23.8853022 55.0831617,24.1796878 C53.3824738,24.3059767 51.7198336,24.1127951 50.1100782,23.5064356 C49.5581663,23.298405 49.3657242,23.0547655 49.6480705,22.5040539 C49.8190647,22.1705994 49.9129353,21.7990853 50.0632164,21.3846099 C51.5545685,22.1308098 53.063402,22.4358637 54.6564105,22.358591 C57.1998769,22.2348971 58.6700751,20.7920902 58.756013,18.2983179 C58.7732006,17.7970549 58.7585103,17.2946386 58.7585103,16.6050957" id="Fill-6" fill="#64696C"></path>
                    <path d="M36.9679194,11.3606772 C36.9463248,9.47470594 35.9172742,8.10383755 34.1985173,7.66889066 C32.3739907,7.20698485 30.5416784,7.89897857 29.6592363,9.48825748 C28.6453166,11.3145442 28.6049185,13.2261769 29.5428896,15.0863425 C30.3230877,16.633381 31.7193941,17.2333972 33.4315404,17.1205157 C35.010887,17.0165725 36.3523988,15.9944401 36.7694544,14.5073744 C36.9671849,13.8022617 36.8837444,13.0413569 36.968507,12.3055369 C36.968507,11.9852015 36.971592,11.6729393 36.9679194,11.3606772 Z M36.9297248,0.120536656 L39.5514902,0.120536656 L39.5514902,18.6822591 L37.3563291,18.6822591 C37.3049133,18.0235675 37.2554072,17.3899608 37.1916516,16.5725432 C36.2721901,17.8587865 35.1676318,18.5946065 33.7708847,18.8706832 C29.8831154,19.6389404 26.5688526,17.1255615 26.317209,13.1935955 C26.1587014,10.714528 26.7896467,8.51023969 28.8856487,6.92542991 C31.233882,5.15003352 34.3947788,5.35489249 36.9297248,7.45840924 L36.9297248,0.120536656 Z" id="Fill-8" fill="#63686B"></path>
                    <path d="M91.7275729,10.919214 C91.78604,9.1742365 90.7284904,7.9652658 89.1099208,7.88669568 C87.1550919,7.79169071 85.7244105,9.02603451 85.6098267,10.919214 L91.7275729,10.919214 Z M85.6023346,13.2333563 C85.646846,14.9672331 86.7790221,16.1098877 88.6797909,16.4212849 C90.4047177,16.703849 92.0848393,16.4365664 93.8448757,15.973219 C94.0042647,16.6190798 94.1840731,17.253984 94.2993914,17.9001332 C94.3201047,18.0167629 94.1032769,18.2616999 93.9518206,18.3079769 C91.4781328,19.0648451 88.9647814,19.3218919 86.4524582,18.5632938 C83.2533669,17.5973859 81.5648719,14.668955 82.1620297,11.3103346 C83.0432966,6.35277627 87.5822838,4.88675874 91.2430891,5.95185241 C93.5742817,6.63029458 95.0364003,8.73467632 95.1691999,11.4707907 C95.1966707,12.0396672 95.1731663,12.6109945 95.1731663,13.2333563 L85.6023346,13.2333563 Z" id="Fill-10" fill="#048CCB"></path>
                    <path d="M112.30738,5.90375884 L115.686721,5.90375884 L115.686721,8.35125413 L112.39038,8.35125413 C112.39038,10.5775998 112.342049,12.7327277 112.412856,14.8839632 C112.443559,15.8190197 113.075092,16.2699689 114.035539,16.2990903 C114.520904,16.313651 115.007298,16.3016853 115.552158,16.3016853 L115.552158,18.6713313 C114.19434,19.0017583 112.828296,19.1692785 111.446974,18.776572 C109.888046,18.3331194 108.967116,17.2784056 108.870454,15.5637029 C108.755577,13.528088 108.786573,11.4843999 108.756164,9.44431588 C108.75117,9.11114974 108.75543,8.77783943 108.75543,8.37619474 L106.793256,8.37619474 L106.793256,5.91385042 L108.75543,5.91385042 C108.75543,5.35247051 108.801998,4.82886193 108.743531,4.31693074 C108.671548,3.68548647 108.926571,3.43074628 109.543414,3.31627899 C110.448919,3.14832635 111.337384,2.89171201 112.30738,2.65470416 L112.30738,5.90375884 Z" id="Fill-12" fill="#068DCB"></path>
                    <path d="M80.5820808,15.995406 C80.7452892,16.786153 80.8992429,17.5316321 81.0724407,18.3698095 C77.9172731,19.2225476 74.8370257,19.5276015 72.0726182,17.4865083 C68.4827668,14.8357399 68.9728328,8.9956012 72.9343471,6.77862632 C75.5121887,5.33610774 78.2431024,5.35715589 81.0981486,6.1936033 C80.8782358,7.02875322 80.6687531,7.82469016 80.4627961,8.60721973 C78.142915,8.01772758 75.9144071,7.70142878 74.2059334,9.75419932 C73.1341342,11.0420285 73.1213537,13.2193579 74.0402276,14.6427025 C75.1325931,16.3347713 76.9707816,16.7250269 80.5820808,15.995406" id="Fill-14" fill="#048CCB"></path>
                    <path d="M101.201199,18.6921776 L97.5678648,18.6921776 L97.5678648,5.96194398 L100.566875,5.96194398 C100.617116,6.68536575 100.666622,7.39422682 100.728908,8.28805204 C100.942357,7.96137334 101.059439,7.77972499 101.179311,7.59951829 C102.066895,6.26454707 103.324966,5.61753294 104.947061,5.63223781 C105.385417,5.63613027 105.619874,5.76357245 105.595341,6.26166376 C105.556706,7.04981578 105.585205,7.84113943 105.585205,8.72299893 C105.299333,8.70598741 105.068255,8.69229171 104.837178,8.678596 C102.650537,8.54783802 101.232196,9.82009731 101.208398,11.9739278 C101.186362,13.9677347 101.202081,15.9619741 101.201199,17.9559251 C101.201052,18.189473 101.201199,18.4228767 101.201199,18.6921776" id="Fill-16" fill="#058DCB"></path>
                    <polygon id="Fill-18" fill="#666A6D" points="43.1231698 18.7055994 45.6469513 18.7055994 45.6469513 6.03879853 43.1231698 6.03879853"></polygon>
                    <polygon id="Fill-20" fill="#666A6D" points="64.7120785 18.6780638 67.2135309 18.6780638 67.2135309 6.03865437 64.7120785 6.03865437"></polygon>
                    <path d="M44.3196597,3.8698163 C43.4247309,3.86015722 42.740313,3.21833305 42.7601449,2.4078354 C42.7802705,1.5883995 43.4538175,0.997754029 44.3725445,0.993717399 C45.3090466,0.989680769 46.0008096,1.63727156 45.9704008,2.48928883 C45.9417548,3.28695576 45.2329512,3.87976371 44.3196597,3.8698163" id="Fill-22" fill="#666A6D"></path>
                    <path d="M65.9608509,3.86939822 C65.0527009,3.88294976 64.3666672,3.28581685 64.3477168,2.4649393 C64.3283257,1.64161094 64.9883577,1.01175249 65.8923944,0.990416013 C66.8311001,0.968358713 67.5495993,1.59216222 67.5535656,2.43235793 C67.5573851,3.23593564 66.8701762,3.85584668 65.9608509,3.86939822" id="Fill-23" fill="#666A6D"></path>
                    <path d="M119.872276,1.8849707 C119.872276,0.834174154 119.171788,0.146737158 118.041001,0.146737158 C117.02029,0.146737158 116.199718,0.834174154 116.199718,1.9537144 C116.199718,2.93576725 116.82015,3.68212742 118.030994,3.68212742 C119.121753,3.68212742 119.872276,2.95540831 119.872276,1.8849707 Z M119.482004,1.91443229 C119.482004,2.78845933 118.931621,3.32858839 118.041001,3.32858839 C117.15038,3.32858839 116.599997,2.80810038 116.599997,1.94389387 C116.599997,1.03058472 117.230436,0.500276185 118.041001,0.500276185 C118.871579,0.500276185 119.482004,0.99130261 119.482004,1.91443229 Z M118.401251,1.97335546 C118.611398,1.8849707 118.741488,1.73766278 118.741488,1.48232904 C118.741488,1.20735424 118.621405,0.952020496 118.101042,0.952020496 L117.440582,0.952020496 L117.440582,2.82774144 L117.800833,2.82774144 L117.800833,2.08138127 L118.081028,2.08138127 L118.531342,2.82774144 L118.911607,2.82774144 L118.401251,1.97335546 Z M117.800833,1.80640648 L117.800833,1.22699529 L118.000973,1.22699529 C118.231133,1.22699529 118.371231,1.27609794 118.371231,1.49214956 C118.371231,1.75730383 118.181098,1.80640648 117.930924,1.80640648 L117.800833,1.80640648 Z" id="®" fill="#65686A"></path>
                </g>
            </g>
        </g>
    </g>
</svg>