<?xml version="1.0" encoding="UTF-8"?>
<svg width="40px" height="24px" viewBox="0 0 40 24" version="1.1" xmlns="http://www.w3.org/2000/svg" xmlns:xlink="http://www.w3.org/1999/xlink">
    <!-- Generator: Sketch 43.2 (39069) - http://www.bohemiancoding.com/sketch -->
    <title>Discover-light</title>
    <desc>Created with Sketch.</desc>
    <defs>
        <rect id="path-1" x="0" y="0" width="40" height="24" rx="4"></rect>
        <path d="M9.64616672,24 L36.0005532,24 C38.2093867,24 40,22.2152943 40,19.9925345 L40,13.4792274 C40,13.4792274 29.2798136,20.7471987 9.64616672,24 Z" id="path-3"></path>
    </defs>
    <g id="Page-5---Checkout" stroke="none" stroke-width="1" fill="none" fill-rule="evenodd">
        <g id="Payment-Details-|-Desktop" transform="translate(-254.000000, -1740.000000)">
            <g id="Discover-light" transform="translate(254.000000, 1740.000000)">
                <g id="Rectangle">
                    <mask id="mask-2" fill="white">
                        <use xlink:href="#path-1"></use>
                    </mask>
                    <g id="Mask">
                        <use fill="#FFFFFF" fill-rule="evenodd" xlink:href="#path-1"></use>
                        <rect stroke="#CCCCCC" stroke-width="0.5" x="0.25" y="0.25" width="39.5" height="23.5" rx="4"></rect>
                    </g>
                    <mask id="mask-4" fill="white">
                        <use xlink:href="#path-3"></use>
                    </mask>
                    <use id="Mask" fill="#E7772F" xlink:href="#path-3"></use>
                </g>
                <path d="M7.31543336,11.928806 C7.01514796,12.1855638 6.63288108,12.2978391 6.02159252,12.2978391 L5.76793879,12.2978391 L5.76793879,9.23383882 L6.02159252,9.23383882 C6.63288108,9.23383882 7.00048155,9.33855713 7.31543336,9.60808984 C7.64053884,9.88661897 7.83590298,10.3162879 7.83590298,10.760711 C7.83590298,11.2072932 7.64053884,11.6522561 7.31543336,11.928806 L7.31543336,11.928806 Z M6.21093967,8.44899125 L4.82308336,8.44899125 L4.82308336,13.0830466 L6.20247827,13.0830466 C6.93655103,13.0830466 7.4664222,12.9158931 7.9308586,12.5470399 C8.48254135,12.1101738 8.8099032,11.4505564 8.8099032,10.7671884 C8.8099032,9.399193 7.74188751,8.44899125 6.21093967,8.44899125 L6.21093967,8.44899125 Z" id="Fill-13" fill="#1A1918"></path>
                <polygon id="Fill-14" fill="#1A1918" points="9.24557087 8.44899125 10.1866657 8.44899125 10.1866657 13.0830466 9.24557087 13.0830466"></polygon>
                <path d="M12.4977539,10.2250642 C11.9297124,10.0257036 11.7636811,9.89291646 11.7636811,9.64245616 C11.7636811,9.35133205 12.0603939,9.13055993 12.468421,9.13055993 C12.7512196,9.13055993 12.9841899,9.23887681 13.2323907,9.50355145 L13.7237155,8.88675698 C13.3177568,8.54489307 12.8318848,8.37180197 12.3022017,8.37180197 C11.4451567,8.37180197 10.7919373,8.94235485 10.7919373,9.69679453 C10.7919373,10.3373395 11.0956072,10.6622902 11.981797,10.9708674 C12.3522179,11.0941183 12.5404369,11.1783248 12.6357686,11.2353621 C12.8245516,11.3521356 12.9185671,11.519469 12.9185671,11.712892 C12.9185671,12.0898419 12.6064357,12.3669316 12.1844943,12.3669316 C11.7352884,12.3669316 11.3718246,12.1517373 11.1542729,11.7476182 L10.5454287,12.3118735 C10.9807203,12.9221906 11.5025061,13.194962 12.2213484,13.194962 C13.2017417,13.194962 13.8925673,12.566832 13.8925673,11.6722282 C13.8925673,10.9350616 13.5721626,10.6009346 12.4977539,10.2250642" id="Fill-15" fill="#1A1918"></path>
                <path d="M14.1892801,10.7671884 C14.1892801,12.129966 15.307124,13.1859656 16.7461247,13.1859656 C17.1518955,13.1859656 17.4997527,13.1093161 17.9280872,12.9158931 L17.9280872,11.850897 C17.5495809,12.2148921 17.2173302,12.358475 16.7874915,12.358475 C15.8366191,12.358475 15.1630923,11.7001171 15.1630923,10.760711 C15.1630923,9.87312434 15.8584307,9.16996425 16.7461247,9.16996425 C17.1940144,9.16996425 17.5362307,9.32182379 17.9280872,9.69121675 L17.9280872,8.62748019 C17.5142311,8.42721991 17.1746472,8.34427293 16.7654919,8.34427293 C15.3347646,8.34427293 14.1892801,9.42096433 14.1892801,10.7671884" id="Fill-16" fill="#1A1918"></path>
                <polyline id="Fill-17" fill="#1A1918" points="25.5794418 11.5601328 24.2880454 8.44899125 23.258388 8.44899125 25.3113097 13.2 25.817677 13.2 27.9104613 8.44899125 26.8888892 8.44899125 25.5794418 11.5601328"></polyline>
                <polyline id="Fill-18" fill="#1A1918" points="28.3389838 13.0830466 31.0171083 13.0830466 31.0171083 12.2978391 29.2838392 12.2978391 29.2838392 11.0469771 30.9512975 11.0469771 30.9512975 10.2619496 29.2838392 10.2619496 29.2838392 9.23383882 31.0171083 9.23383882 31.0171083 8.44899125 28.3389838 8.44899125 28.3389838 13.0830466"></polyline>
                <path d="M32.8616918,10.579883 L32.5875427,10.579883 L32.5875427,9.17824095 L32.8771103,9.17824095 C33.4671514,9.17824095 33.7832314,9.41520662 33.7832314,9.86664692 C33.7832314,10.3305023 33.4671514,10.579883 32.8616918,10.579883 L32.8616918,10.579883 Z M34.7557274,9.81626697 C34.7557274,8.94847242 34.133721,8.44899125 33.0433297,8.44899125 L31.6406189,8.44899125 L31.6406189,13.0830466 L32.5875427,13.0830466 L32.5875427,11.2198882 L32.7103269,11.2198882 L34.0150735,13.0830466 L35.1769166,13.0830466 L33.653302,11.129924 C34.3653751,10.9906595 34.7557274,10.5253647 34.7557274,9.81626697 L34.7557274,9.81626697 Z" id="Fill-19" fill="#1A1918"></path>
                <path d="M23.3915139,10.7779841 C23.3915139,12.112153 22.2618241,13.1935226 20.8670106,13.1935226 C19.4725732,13.1935226 18.3426954,12.112153 18.3426954,10.7779841 C18.3426954,9.44363531 19.4725732,8.36208584 20.8670106,8.36208584 C22.2618241,8.36208584 23.3915139,9.44363531 23.3915139,10.7779841" id="Fill-20" fill="#E7772F"></path>
            </g>
        </g>
    </g>
</svg>