<?xml version="1.0" encoding="UTF-8"?>
<svg width="86px" height="22px" viewBox="0 0 86 22" version="1.1" xmlns="http://www.w3.org/2000/svg" xmlns:xlink="http://www.w3.org/1999/xlink">
    <!-- Generator: Sketch 43.2 (39069) - http://www.bohemiancoding.com/sketch -->
    <title>Group 2</title>
    <desc>Created with Sketch.</desc>
    <defs></defs>
    <g id="Icons-&amp;-Logos" stroke="none" stroke-width="1" fill="none" fill-rule="evenodd">
        <g id="Artboard" transform="translate(-261.000000, -23.000000)" fill-rule="nonzero">
            <g id="Group-2" transform="translate(261.000000, 23.000000)">
                <path d="M4.09933333,0.342222222 L0.244881356,0.342222222 L0.244881356,13.8409333 L4.04928814,13.8409333 C6.10211299,13.8409333 7.55342373,13.3872444 8.85508475,12.2794222 C10.3569266,11.0205333 11.3077853,9.10604444 11.3077853,7.09133333 C11.3077853,3.11275556 8.35414689,0.342222222 4.09933333,0.342222222 L4.09933333,0.342222222 Z M7.15306215,10.5164889 C6.30229379,11.2219556 5.25037288,11.5744444 3.54883616,11.5744444 L2.84820339,11.5744444 L2.84820339,2.65906667 L3.54883616,2.65906667 C5.25037288,2.65906667 6.25176271,2.9612 7.15306215,3.71653333 C8.05387571,4.52222222 8.60485876,5.78208889 8.60485876,7.09133333 C8.60437288,8.40106667 8.05387571,9.7108 7.15306215,10.5164889 Z M12.5093559,13.8414222 L15.1121921,13.8414222 L15.1121921,0.342222222 L12.5093559,0.342222222 L12.5093559,13.8414222 Z M21.519435,5.53031111 C19.9175028,4.92604444 19.467096,4.57355556 19.467096,3.81773333 C19.467096,2.96168889 20.3178644,2.35742222 21.4193446,2.35742222 C22.2200678,2.35742222 22.8711412,2.65955556 23.5217288,3.41488889 L24.9234802,1.65244444 C23.7719548,0.644844444 22.4207345,0.141288889 20.9689379,0.141288889 C18.5662825,0.141288889 16.7641695,1.80351111 16.7641695,4.01964444 C16.7641695,5.88328889 17.6149379,6.79017778 20.0681243,7.69657778 C21.1195593,8.04906667 21.6200113,8.30084444 21.8702373,8.45191111 C22.4207345,8.80488889 22.6709605,9.30795556 22.6709605,9.86235556 C22.6709605,10.9706667 21.8201921,11.7763556 20.6186215,11.7763556 C19.4170508,11.7763556 18.3661017,11.1217333 17.7650734,9.96306667 L16.1135819,11.6252889 C17.3151525,13.3877333 18.7664633,14.1939111 20.7687571,14.1939111 C23.4716836,14.1939111 25.3743729,12.3806222 25.3743729,9.76164444 C25.373887,7.59537778 24.4730734,6.63813333 21.519435,5.53031111 L21.519435,5.53031111 Z M26.175096,7.09133333 C26.175096,11.0704 29.2788701,14.1430667 33.2829718,14.1430667 C34.384452,14.1430667 35.3853559,13.9411556 36.5368814,13.3872444 L36.5368814,10.2642222 C35.4854463,11.3216889 34.5846328,11.7753778 33.3830621,11.7753778 C30.780226,11.7753778 28.8780226,9.81102222 28.8780226,7.09084444 C28.8780226,4.52222222 30.8302712,2.45715556 33.2829718,2.45715556 C34.5345876,2.45715556 35.4854463,2.91035556 36.5368814,3.96831111 L36.5368814,0.895644444 C35.4354011,0.290888889 34.4845424,0.0396 33.3330169,0.0396 C29.3784746,0.0400888889 26.175096,3.21346667 26.175096,7.09133333 L26.175096,7.09133333 Z" id="Shape" fill="#000000"></path>
                <path d="M44.696678,0.0400888889 C40.7416497,0.0400888889 37.5377853,3.16311111 37.5377853,6.99062222 C37.5377853,11.1212444 40.5915141,14.1430667 44.696678,14.1430667 C48.7002938,14.1430667 51.8545989,11.0704 51.8545989,7.09133333 C51.8550847,3.16311111 48.7508249,0.0400888889 44.696678,0.0400888889 Z" id="Shape" fill="#DB8135"></path>
                <path d="M44.696678,0.0400888889 C40.7416497,0.0400888889 37.5377853,3.16311111 37.5377853,6.99062222 C37.5377853,11.1212444 40.5915141,14.1430667 44.696678,14.1430667 C48.7002938,14.1430667 51.8545989,11.0704 51.8545989,7.09133333 C51.8550847,3.16311111 48.7508249,0.0400888889 44.696678,0.0400888889 Z M44.696678,7.09133333 L51.8545989,7.09133333 L44.696678,7.09133333 Z" id="Shape" fill="#DB8135"></path>
                <path d="M44.696678,7.09133333 L51.8545989,7.09133333 C51.8545989,3.16262222 48.750339,0.0400888889 44.696678,0.0400888889 C40.7416497,0.0400888889 37.5377853,3.16311111 37.5377853,6.99062222 C37.5377853,11.1212444 40.5915141,14.1430667 44.696678,14.1430667 C48.7002938,14.1430667 51.8545989,11.0704 51.8545989,7.09133333 L44.696678,7.09133333 Z" id="Shape" fill="#DB8135"></path>
                <path d="M44.696678,7.09133333 L51.8545989,7.09133333 C51.8545989,3.16262222 48.750339,0.0400888889 44.696678,0.0400888889 C40.7416497,0.0400888889 37.5377853,3.16311111 37.5377853,6.99062222 C37.5377853,11.1212444 40.5915141,14.1430667 44.696678,14.1430667 C48.7002938,14.1430667 51.8545989,11.0704 51.8545989,7.09133333 L44.696678,7.09133333 Z" id="Shape" fill="#DB8137"></path>
                <path d="M44.696678,7.09133333 L51.8545989,7.09133333 C51.8545989,3.16262222 48.750339,0.0400888889 44.696678,0.0400888889 C40.7416497,0.0400888889 37.5377853,3.16311111 37.5377853,6.99062222 C37.5377853,11.1212444 40.5915141,14.1430667 44.696678,14.1430667 C48.7002938,14.1430667 51.8545989,11.0704 51.8545989,7.09133333 L44.696678,7.09133333 Z" id="Shape" fill="#DC8337"></path>
                <path d="M44.696678,7.09133333 L51.8545989,7.09133333 C51.8545989,3.16262222 48.750339,0.0400888889 44.696678,0.0400888889 C40.7416497,0.0400888889 37.5377853,3.16311111 37.5377853,6.99062222 C37.5377853,11.1212444 40.5915141,14.1430667 44.696678,14.1430667 C48.7002938,14.1430667 51.8545989,11.0704 51.8545989,7.09133333 L44.696678,7.09133333 Z" id="Shape" fill="#DC8539"></path>
                <path d="M44.696678,7.09133333 L51.8545989,7.09133333 C51.8545989,3.16262222 48.750339,0.0400888889 44.696678,0.0400888889 C40.7416497,0.0400888889 37.5377853,3.16311111 37.5377853,6.99062222 C37.5377853,11.1212444 40.5915141,14.1430667 44.696678,14.1430667 C48.7002938,14.1430667 51.8545989,11.0704 51.8545989,7.09133333 L44.696678,7.09133333 Z" id="Shape" fill="#DC853A"></path>
                <path d="M44.696678,7.09133333 L51.8545989,7.09133333 C51.8545989,3.16262222 48.750339,0.0400888889 44.696678,0.0400888889 C40.7416497,0.0400888889 37.5377853,3.16311111 37.5377853,6.99062222 C37.5377853,11.1212444 40.5915141,14.1430667 44.696678,14.1430667 C48.7002938,14.1430667 51.8545989,11.0704 51.8545989,7.09133333 L44.696678,7.09133333 Z" id="Shape" fill="#DC853C"></path>
                <path d="M44.696678,7.09133333 L51.8545989,7.09133333 C51.8545989,3.16262222 48.750339,0.0400888889 44.696678,0.0400888889 C40.7416497,0.0400888889 37.5377853,3.16311111 37.5377853,6.99062222 C37.5377853,11.1212444 40.5915141,14.1430667 44.696678,14.1430667 C48.7002938,14.1430667 51.8545989,11.0704 51.8545989,7.09133333 L44.696678,7.09133333 Z" id="Shape" fill="#DD873E"></path>
                <path d="M44.696678,7.09133333 L51.8545989,7.09133333 C51.8545989,3.16262222 48.750339,0.0400888889 44.696678,0.0400888889 C40.7416497,0.0400888889 37.5377853,3.16311111 37.5377853,6.99062222 C37.5377853,11.1212444 40.5915141,14.1430667 44.696678,14.1430667 C48.7002938,14.1430667 51.8545989,11.0704 51.8545989,7.09133333 L44.696678,7.09133333 Z" id="Shape" fill="#DD873E"></path>
                <path d="M44.696678,7.09133333 L51.8545989,7.09133333 C51.8545989,3.16262222 48.750339,0.0400888889 44.696678,0.0400888889 C40.7416497,0.0400888889 37.5377853,3.16311111 37.5377853,6.99062222 C37.5377853,11.1212444 40.5915141,14.1430667 44.696678,14.1430667 C48.7002938,14.1430667 51.8545989,11.0704 51.8545989,7.09133333 L44.696678,7.09133333 Z" id="Shape" fill="#DD883F"></path>
                <path d="M44.696678,7.09133333 L51.8545989,7.09133333 C51.8545989,3.16262222 48.750339,0.0400888889 44.696678,0.0400888889 C40.7416497,0.0400888889 37.5377853,3.16311111 37.5377853,6.99062222 C37.5377853,11.1212444 40.5915141,14.1430667 44.696678,14.1430667 C48.7002938,14.1430667 51.8545989,11.0704 51.8545989,7.09133333 L44.696678,7.09133333 Z" id="Shape" fill="#DD8841"></path>
                <path d="M44.696678,7.09133333 L51.8545989,7.09133333 C51.8545989,3.16262222 48.750339,0.0400888889 44.696678,0.0400888889 C40.7416497,0.0400888889 37.5377853,3.16311111 37.5377853,6.99062222 C37.5377853,11.1212444 40.5915141,14.1430667 44.696678,14.1430667 C48.7002938,14.1430667 51.8545989,11.0704 51.8545989,7.09133333 L44.696678,7.09133333 Z" id="Shape" fill="#DE8A41"></path>
                <path d="M44.696678,7.09133333 L51.8545989,7.09133333 C51.8545989,3.16262222 48.750339,0.0400888889 44.696678,0.0400888889 C40.7416497,0.0400888889 37.5377853,3.16311111 37.5377853,6.99062222 C37.5377853,11.1212444 40.5915141,14.1430667 44.696678,14.1430667 C48.7002938,14.1430667 51.8545989,11.0704 51.8545989,7.09133333 L44.696678,7.09133333 Z" id="Shape" fill="#DE8A43"></path>
                <path d="M44.696678,7.09133333 L51.8545989,7.09133333 C51.8545989,3.16262222 48.750339,0.0400888889 44.696678,0.0400888889 C40.7416497,0.0400888889 37.5377853,3.16311111 37.5377853,6.99062222 C37.5377853,11.1212444 40.5915141,14.1430667 44.696678,14.1430667 C48.7002938,14.1430667 51.8545989,11.0704 51.8545989,7.09133333 L44.696678,7.09133333 Z" id="Shape" fill="#DE8A44"></path>
                <path d="M44.696678,7.09133333 L51.8545989,7.09133333 C51.8545989,3.16262222 48.750339,0.0400888889 44.696678,0.0400888889 C40.7416497,0.0400888889 37.5377853,3.16311111 37.5377853,6.99062222 C37.5377853,11.1212444 40.5915141,14.1430667 44.696678,14.1430667 C48.7002938,14.1430667 51.8545989,11.0704 51.8545989,7.09133333 L44.696678,7.09133333 Z" id="Shape" fill="#DE8C46"></path>
                <path d="M44.696678,7.09133333 L51.8545989,7.09133333 L44.696678,7.09133333 Z M51.8550847,7.09133333 C51.8550847,7.03022222 51.854113,6.96911111 51.8521695,6.908 L51.8521695,6.90555556 C51.8508818,6.84555174 51.8486141,6.78557327 51.8453672,6.72564444 L51.8453672,6.72075556 C51.8423991,6.66204271 51.8386737,6.6033711 51.8341921,6.54475556 C51.8341921,6.54231111 51.8341921,6.53986667 51.8332203,6.53742222 C51.8292675,6.47983725 51.8245703,6.42230646 51.8191299,6.36484444 C51.8181582,6.36142222 51.8181582,6.35848889 51.8181582,6.35506667 C51.8124481,6.29873715 51.8058069,6.24250715 51.7982373,6.1864 L51.7982373,6.18493333 C51.7914262,6.13141673 51.7841378,6.07796272 51.7763729,6.02457778 C51.7754011,6.0192 51.7744294,6.01382222 51.7744294,6.00844444 C51.7656836,5.95564444 51.7574237,5.90333333 51.7477062,5.85053333 L51.744791,5.83293333 L51.7297288,5.74737778 L51.7098079,5.64617778 L51.6996045,5.59777778 C51.6908588,5.55671111 51.6825989,5.51564444 51.6728814,5.47506667 C51.6689944,5.456 51.6631638,5.43742222 51.6597627,5.41835556 L51.631096,5.30395556 L51.6024294,5.1964 L51.588339,5.1436 C51.5781356,5.10595556 51.5664746,5.0688 51.5562712,5.03164444 L51.5392655,4.97346667 C50.6530282,2.09733333 47.988,0.0396 44.6971638,0.0396 C41.8003729,0.0396 39.3073446,1.71551111 38.180113,4.11595556 C37.7626073,5.03434297 37.5439861,6.03157189 37.5387571,7.04146667 C37.5441017,7.91413333 37.6864633,8.73693333 37.945435,9.49128889 L37.9677853,9.55435556 L37.9775028,9.58075556 C38.2537522,10.3346865 38.653664,11.0366826 39.1606102,11.6575556 C40.4481808,13.2034222 42.4091751,14.1425778 44.6971638,14.1425778 C47.9501017,14.1425778 50.6413672,12.1146667 51.537322,9.21946667 L51.5829944,9.064 L51.5829944,9.06351111 C51.7136257,8.60074507 51.7976199,8.12592091 51.8337062,7.64622222 L51.834678,7.64524444 C51.838565,7.58462222 51.8434237,7.52351111 51.8458531,7.4624 L51.8458531,7.46191111 C51.8518403,7.33847595 51.8549184,7.21491531 51.8550847,7.09133333 L51.8550847,7.09133333 Z" id="Shape" fill="#DF8E47"></path>
                <path d="M44.696678,7.09133333 L51.8045537,7.09133333 C51.8045537,4.3516 50.2453785,1.98 47.9782825,0.794933333 C47.0026441,0.311911111 45.8914463,0.0400888889 44.696678,0.0400888889 C43.1588814,0.0400888889 41.7367232,0.512844444 40.5701356,1.31364444 C38.7689944,2.60088889 37.5878305,4.70653333 37.5878305,7.09133333 C37.5878305,9.71471111 39.0172768,12.0237333 41.1288927,13.2684444 C42.1652655,13.8301778 43.3755819,14.1430667 44.696678,14.1430667 C46.3622599,14.1430667 47.8796497,13.6111556 49.0846215,12.7047556 C50.7365989,11.3906222 51.8045537,9.35831111 51.8045537,7.09133333 L44.696678,7.09133333 Z" id="Shape" fill="#DF8E48"></path>
                <path d="M44.696678,7.09133333 L51.7039774,7.09133333 C51.7039774,3.21297778 48.5506441,0.0400888889 44.696678,0.0400888889 C44.6359435,0.0400888889 44.5761808,0.0410666667 44.5164181,0.0425333333 L44.5115593,0.0425333333 C40.7421356,0.141777778 37.6879209,3.27555556 37.6879209,7.09133333 C37.684311,10.1179324 39.5862186,12.814736 42.4266667,13.8106222 C43.1331299,14.0272 43.8944972,14.1435556 44.6961921,14.1435556 C45.6747458,14.1435556 46.6017966,13.9592444 47.4452768,13.6243556 C50.0331472,12.4970615 51.7069479,9.92928146 51.7034915,7.09182222 L44.696678,7.09182222 L44.696678,7.09133333 Z" id="Shape" fill="#DF8E4A"></path>
                <path d="M44.696678,7.09133333 L51.6544181,7.09133333 C51.6544181,3.26333333 48.5501582,0.0899555556 44.696678,0.0899555556 C40.8417401,0.0899555556 37.7379661,3.26333333 37.7379661,7.09133333 C37.7339552,8.94953321 38.4658306,10.7327811 39.7717267,12.046684 C41.0776229,13.360587 42.8499311,14.0968766 44.696678,14.0927111 C46.5432567,14.0966162 48.3153146,13.3602116 49.6210003,12.0463369 C50.9266859,10.7324623 51.658428,8.9493634 51.6544181,7.09133333 L44.696678,7.09133333 L44.696678,7.09133333 Z" id="Shape" fill="#DF904A"></path>
                <path d="M44.696678,7.09133333 L51.6043729,7.09133333 C51.6043729,3.26333333 48.500113,0.190666667 44.696678,0.190666667 C40.8917853,0.190666667 37.7880113,3.26333333 37.7880113,7.09133333 C37.7880113,10.9198222 40.8917853,14.0423556 44.696678,14.0423556 C48.500113,14.0423556 51.6043729,10.9193333 51.6043729,7.09133333 L44.696678,7.09133333 Z" id="Shape" fill="#E0914C"></path>
                <path d="M44.696678,7.09133333 L51.5538418,7.09133333 C51.5538418,3.31368889 48.4505537,0.241511111 44.696678,0.241511111 C40.9418305,0.241511111 37.8380565,3.31368889 37.8380565,7.09133333 C37.8380565,10.9198222 40.9418305,13.992 44.696678,13.992 C48.4510395,13.992 51.5538418,10.9198222 51.5538418,7.09133333 L44.696678,7.09133333 Z" id="Shape" fill="#E0914E"></path>
                <path d="M44.696678,7.09133333 L51.4542373,7.09133333 C51.4542373,3.36404444 48.4505537,0.291377778 44.696678,0.291377778 C40.9418305,0.291377778 37.9381469,3.36404444 37.9381469,7.09133333 C37.9381469,10.8689778 40.9418305,13.9411556 44.696678,13.9411556 C48.4510395,13.9411556 51.4542373,10.8689778 51.4542373,7.09133333 L44.696678,7.09133333 Z" id="Shape" fill="#DF924F"></path>
                <path d="M44.696678,7.09133333 L51.4041921,7.09133333 C51.4041921,3.36404444 48.4005085,0.342222222 44.696678,0.342222222 C40.9918757,0.342222222 37.9881921,3.36453333 37.9881921,7.09133333 C37.9881921,10.8181333 40.9918757,13.8409333 44.696678,13.8409333 C48.4005085,13.8409333 51.4041921,10.8181333 51.4041921,7.09133333 L44.696678,7.09133333 Z" id="Shape" fill="#E09351"></path>
                <path d="M44.696678,7.09133333 L51.353661,7.09133333 C51.353661,3.4144 48.3499774,0.442933333 44.696678,0.442933333 C41.0419209,0.442933333 38.0382373,3.4144 38.0382373,7.09133333 C38.0382373,10.8186222 41.0419209,13.7905778 44.696678,13.7905778 C48.3504633,13.7905778 51.353661,10.8186222 51.353661,7.09133333 L44.696678,7.09133333 Z" id="Shape" fill="#E09552"></path>
                <path d="M44.696678,7.09133333 L51.2540565,7.09133333 C51.2540565,3.46524444 48.3499774,0.493288889 44.696678,0.493288889 C41.0419209,0.493288889 38.0882825,3.46524444 38.0882825,7.09133333 C38.0882825,10.7682667 41.0419209,13.7397333 44.696678,13.7397333 C48.3504633,13.7397333 51.2540565,10.7682667 51.2540565,7.09133333 L44.696678,7.09133333 Z" id="Shape" fill="#E09554"></path>
                <path d="M44.696678,7.09133333 L51.2040113,7.09133333 C51.2072438,5.35378321 50.5226898,3.68646249 49.3016266,2.45782686 C48.0805635,1.22919124 46.423519,0.540391937 44.696678,0.543644444 C42.9697132,0.540131215 41.3124682,1.22883112 40.0912716,2.45750926 C38.8700751,3.6861874 38.1854961,5.35365847 38.1888588,7.09133333 C38.1888588,10.7179111 41.0919661,13.6898667 44.696678,13.6898667 C48.2999322,13.6898667 51.2040113,10.7179111 51.2040113,7.09133333 L44.696678,7.09133333 Z" id="Shape" fill="#E09555"></path>
                <path d="M44.696678,7.09133333 L51.1534802,7.09133333 C51.1534802,3.51511111 48.2503729,0.594 44.696678,0.594 C41.1420113,0.594 38.2384181,3.51511111 38.2384181,7.09133333 C38.2384181,10.7179111 41.1420113,13.5891556 44.696678,13.5891556 C46.4105635,13.5933239 48.055432,12.9100412 49.2672445,11.6905301 C50.4790569,10.471019 51.1578808,8.815847 51.1534802,7.09133333 L44.696678,7.09133333 L44.696678,7.09133333 Z" id="Shape" fill="#E19756"></path>
                <path d="M44.696678,7.09133333 L51.103435,7.09133333 C51.103435,3.56595556 48.2508588,0.694711111 44.696678,0.694711111 C41.1420113,0.694711111 38.2889492,3.56595556 38.2889492,7.09133333 C38.2836353,8.80289648 38.9570424,10.4458932 40.1598925,11.6561111 C41.3627427,12.866329 42.9956642,13.5437877 44.696678,13.5383111 C46.3975236,13.5435268 48.0301946,12.8659529 49.2328341,11.6557634 C50.4354736,10.445574 51.1087476,8.80272649 51.103435,7.09133333 L44.696678,7.09133333 Z" id="Shape" fill="#E19757"></path>
                <path d="M44.696678,7.09133333 L51.0033446,7.09133333 C51.0033446,3.56595556 48.1998418,0.745066667 44.696678,0.745066667 C41.1920565,0.745066667 38.3389944,3.56595556 38.3389944,7.09133333 C38.3389944,10.6172 41.1925424,13.4879556 44.696678,13.4879556 C48.2003277,13.4879556 51.0033446,10.6167111 51.0033446,7.09133333 L44.696678,7.09133333 L44.696678,7.09133333 Z" id="Shape" fill="#E29959"></path>
                <path d="M44.696678,7.09133333 L50.9532994,7.09133333 C50.9532994,3.61582222 48.1497966,0.795422222 44.696678,0.795422222 C41.2421017,0.795422222 38.4390847,3.61582222 38.4390847,7.09133333 C38.4390847,10.5668444 41.2425876,13.4376 44.696678,13.4376 C48.1497966,13.4376 50.9532994,10.5668444 50.9532994,7.09133333 L44.696678,7.09133333 Z" id="Shape" fill="#E2995B"></path>
                <path d="M44.696678,7.09133333 L50.9027684,7.09133333 C50.9027684,3.66666667 48.0992655,0.845777778 44.696678,0.845777778 C41.2921469,0.845777778 38.4891299,3.66666667 38.4891299,7.09133333 C38.4891299,10.5668444 41.2926328,13.3368889 44.696678,13.3368889 C48.0997514,13.3368889 50.9027684,10.5668444 50.9027684,7.09133333 L44.696678,7.09133333 Z" id="Shape" fill="#E29B5B"></path>
                <path d="M44.696678,7.09133333 L50.8536949,7.09133333 C50.8536949,3.71653333 48.0997514,0.946488889 44.696678,0.946488889 C41.2921469,0.946488889 38.5391751,3.71653333 38.5391751,7.09133333 C38.5391751,10.5164889 41.2926328,13.2865333 44.696678,13.2865333 C48.0997514,13.2865333 50.8536949,10.516 50.8536949,7.09133333 L44.696678,7.09133333 Z" id="Shape" fill="#E29B5D"></path>
                <path d="M44.696678,7.09133333 L50.7531186,7.09133333 C50.7562217,5.47410397 50.1191464,3.92220626 48.9826841,2.77860441 C47.8462218,1.63500256 46.3039401,0.993851851 44.696678,0.996844444 C41.3421921,0.996844444 38.6392655,3.71653333 38.6392655,7.09133333 C38.6392655,10.4661333 41.3421921,13.2366667 44.696678,13.2366667 C48.0501921,13.2366667 50.7531186,10.4661333 50.7531186,7.09133333 L44.696678,7.09133333 L44.696678,7.09133333 Z" id="Shape" fill="#E39D5F"></path>
                <path d="M44.696678,7.09133333 L50.7025876,7.09133333 C50.7025876,3.76688889 48.0001469,1.0472 44.696678,1.0472 C41.3922373,1.0472 38.6893107,3.76688889 38.6893107,7.09133333 C38.6893107,10.4661333 41.3922373,13.1858222 44.696678,13.1858222 C48.0001469,13.1858222 50.7025876,10.4661333 50.7025876,7.09133333 L44.696678,7.09133333 Z" id="Shape" fill="#E39D61"></path>
                <path d="M44.696678,7.09133333 L50.6535141,7.09133333 C50.6535141,3.81724444 48.0001469,1.09755556 44.696678,1.09755556 C41.3922373,1.09755556 38.7393559,3.81724444 38.7393559,7.09133333 C38.7393559,10.4157778 41.3922373,13.0851111 44.696678,13.0851111 C48.0001469,13.0851111 50.6535141,10.4157778 50.6535141,7.09133333 L44.696678,7.09133333 Z" id="Shape" fill="#E39F63"></path>
                <path d="M44.696678,7.09133333 L50.6029831,7.09133333 C50.6029831,3.81724444 47.9496158,1.19826667 44.696678,1.19826667 C41.4422825,1.19826667 38.7894011,3.81724444 38.7894011,7.09133333 C38.7894011,10.3654222 41.4422825,13.0352444 44.696678,13.0352444 C47.9496158,13.0352444 50.6029831,10.3654222 50.6029831,7.09133333 L44.696678,7.09133333 Z" id="Shape" fill="#E39F63"></path>
                <path d="M44.696678,7.09133333 L50.5024068,7.09133333 C50.5024068,3.86808889 47.9005424,1.24862222 44.696678,1.24862222 C41.4923277,1.24862222 38.8894915,3.8676 38.8894915,7.09133333 C38.8894915,10.3654222 41.4923277,12.9844 44.696678,12.9844 C47.9005424,12.9844 50.5024068,10.3654222 50.5024068,7.09133333 L44.696678,7.09133333 Z" id="Shape" fill="#E39F64"></path>
                <path d="M44.696678,7.09133333 L50.4533333,7.09133333 C50.4533333,3.91844444 47.9005424,1.29897778 44.696678,1.29897778 C41.4923277,1.29897778 38.9395367,3.91844444 38.9395367,7.09133333 C38.9395367,10.3150667 41.4923277,12.9345333 44.696678,12.9345333 C47.9005424,12.9345333 50.4533333,10.3150667 50.4533333,7.09133333 L44.696678,7.09133333 Z" id="Shape" fill="#E4A166"></path>
                <path d="M44.696678,7.09133333 L50.4028023,7.09133333 C50.4028023,3.91844444 47.8500113,1.34933333 44.696678,1.34933333 C41.5423729,1.34933333 38.9895819,3.91795556 38.9895819,7.09133333 C38.9895819,10.2647111 41.5423729,12.8338222 44.696678,12.8338222 C47.8500113,12.8338222 50.4028023,10.2647111 50.4028023,7.09133333 L44.696678,7.09133333 Z" id="Shape" fill="#E4A367"></path>
                <path d="M44.696678,7.09133333 L50.3527571,7.09133333 C50.3527571,3.9688 47.7999661,1.45004444 44.696678,1.45004444 C41.5924181,1.45004444 39.0396271,3.96831111 39.0396271,7.09133333 C39.0396271,10.2647111 41.5924181,12.7829778 44.696678,12.7829778 C47.7999661,12.7829778 50.3527571,10.2647111 50.3527571,7.09133333 L44.696678,7.09133333 Z" id="Shape" fill="#E4A369"></path>
                <path d="M44.696678,7.09133333 L50.2531525,7.09133333 C50.2531525,4.01915556 47.7999661,1.5004 44.696678,1.5004 C41.5924181,1.5004 39.1397175,4.01915556 39.1397175,7.09133333 C39.1397175,10.2143556 41.5924181,12.7326222 44.696678,12.7326222 C47.7999661,12.7326222 50.2531525,10.2143556 50.2531525,7.09133333 L44.696678,7.09133333 Z" id="Shape" fill="#E4A36A"></path>
                <path d="M44.696678,7.09133333 L50.2026215,7.09133333 C50.2067656,5.62069117 49.6280233,4.20907369 48.5945729,3.16912259 C47.5611226,2.12917148 46.1582564,1.54671548 44.696678,1.55075556 C43.2348917,1.54632367 41.8316994,2.12862246 40.7980101,3.16863046 C39.7643208,4.20863846 39.1854871,5.62048131 39.1897627,7.09133333 C39.1897627,10.164 41.6424633,12.6822667 44.696678,12.6822667 C47.749435,12.6822667 50.2026215,10.164 50.2026215,7.09133333 L44.696678,7.09133333 Z" id="Shape" fill="#E5A56C"></path>
                <path d="M44.696678,7.09133333 L50.1525763,7.09133333 C50.1525763,4.06951111 47.6993898,1.6016 44.696678,1.6016 C41.6925085,1.6016 39.2398079,4.06951111 39.2398079,7.09133333 C39.2398079,10.1136444 41.6925085,12.5815556 44.696678,12.5815556 C47.6993898,12.5815556 50.1525763,10.1136444 50.1525763,7.09133333 L44.696678,7.09133333 Z" id="Shape" fill="#E5A56C"></path>
                <path d="M44.696678,7.09133333 L50.1020452,7.09133333 C50.1020452,4.11986667 47.6498305,1.70231111 44.696678,1.70231111 C41.7425537,1.70231111 39.2898531,4.11986667 39.2898531,7.09133333 C39.2898531,10.1136444 41.7425537,12.5307111 44.696678,12.5307111 C47.6498305,12.5307111 50.1020452,10.1136444 50.1020452,7.09133333 L44.696678,7.09133333 Z" id="Shape" fill="#E5A76E"></path>
                <path d="M44.696678,7.09133333 L50.0024407,7.09133333 C50.0024407,4.17022222 47.6498305,1.75266667 44.696678,1.75266667 C41.7425537,1.75266667 39.3904294,4.17022222 39.3904294,7.09133333 C39.3904294,10.0632889 41.7430395,12.4808444 44.696678,12.4808444 C47.6498305,12.4808444 50.0024407,10.0632889 50.0024407,7.09133333 L44.696678,7.09133333 L44.696678,7.09133333 Z" id="Shape" fill="#E5A770"></path>
                <path d="M44.696678,7.09133333 L49.9519096,7.09133333 C49.9519096,4.17022222 47.5992994,1.80302222 44.696678,1.80302222 C41.7925989,1.80302222 39.4399887,4.17022222 39.4399887,7.09133333 C39.4399887,10.0129333 41.7925989,12.3801333 44.696678,12.3801333 C47.5997853,12.3801333 49.9519096,10.0129333 49.9519096,7.09133333 L44.696678,7.09133333 Z" id="Shape" fill="#E6A970"></path>
                <path d="M44.696678,7.09133333 L49.9018644,7.09133333 C49.9018644,4.22057778 47.5492542,1.85337778 44.696678,1.85337778 C41.8426441,1.85337778 39.4900339,4.22057778 39.4900339,7.09133333 C39.4900339,10.0129333 41.8426441,12.3292889 44.696678,12.3292889 C47.5492542,12.3292889 49.9018644,10.0129333 49.9018644,7.09133333 L44.696678,7.09133333 Z" id="Shape" fill="#E6A972"></path>
                <path d="M44.696678,7.09133333 L49.8523051,7.09133333 C49.8523051,4.27093333 47.5492542,1.95408889 44.696678,1.95408889 C41.8426441,1.95408889 39.5400791,4.27093333 39.5400791,7.09133333 C39.5381409,8.46798174 40.080817,9.78880002 41.0483014,10.7621926 C42.0157857,11.7355851 43.3285145,12.2815022 44.696678,12.2794222 C46.0646732,12.2812421 47.3771519,11.7352102 48.3444259,10.761846 C49.3116999,9.78848168 49.8542427,8.46781207 49.8523051,7.09133333 L44.696678,7.09133333 L44.696678,7.09133333 Z" id="Shape" fill="#E6AB74"></path>
                <path d="M44.696678,7.09133333 L49.7517288,7.09133333 C49.755354,5.74117635 49.2239496,4.44526001 48.2751708,3.4905055 C47.3263919,2.53575098 46.0385138,2.00092652 44.696678,2.00444444 C43.3545899,2.00053545 42.0663362,2.53518725 41.1172415,3.48998435 C40.1681467,4.44478146 39.6365425,5.74092147 39.6401695,7.09133333 C39.6401695,9.91222222 41.8926893,12.2290667 44.696678,12.2290667 C47.499209,12.2290667 49.7517288,9.91222222 49.7517288,7.09133333 L44.696678,7.09133333 L44.696678,7.09133333 Z" id="Shape" fill="#E6AB75"></path>
                <path d="M44.696678,7.09133333 L49.7016836,7.09133333 C49.7016836,4.3208 47.4496497,2.0548 44.696678,2.0548 C41.9432203,2.0548 39.6902147,4.32128889 39.6902147,7.09133333 C39.6902147,9.91222222 41.9427345,12.1283556 44.696678,12.1283556 C46.025643,12.1329233 47.3014726,11.603674 48.2411071,10.6580288 C49.1807415,9.71238358 49.7064812,8.42853911 49.7016836,7.09133333 L44.696678,7.09133333 Z" id="Shape" fill="#E7AD77"></path>
                <path d="M44.696678,7.09133333 L49.6521243,7.09133333 C49.6521243,4.37164444 47.4496497,2.10515556 44.696678,2.10515556 C41.9432203,2.10515556 39.7402599,4.37164444 39.7402599,7.09133333 C39.7402599,9.86186667 41.9427345,12.078 44.696678,12.078 C46.0126927,12.0834875 47.2763749,11.5598547 48.2069001,10.6234669 C49.1374254,9.68707913 49.657707,8.41550882 49.6521243,7.09133333 L44.696678,7.09133333 Z" id="Shape" fill="#E7AD77"></path>
                <path d="M44.696678,7.09133333 L49.6020791,7.09133333 C49.6020791,4.37164444 47.3996045,2.20537778 44.696678,2.20537778 C41.9932655,2.20537778 39.7903051,4.37164444 39.7903051,7.09133333 C39.7903051,9.81151111 41.9927797,12.0276444 44.696678,12.0276444 C47.3991186,12.0276444 49.6020791,9.81151111 49.6020791,7.09133333 L44.696678,7.09133333 Z" id="Shape" fill="#E8AF79"></path>
                <path d="M44.696678,7.09133333 L49.5015028,7.09133333 C49.5015028,4.422 47.3490734,2.25622222 44.696678,2.25622222 C42.0433107,2.25622222 39.8903955,4.422 39.8903955,7.09133333 C39.8903955,9.81151111 42.0428249,11.9772889 44.696678,11.9772889 C47.3490734,11.9772889 49.5015028,9.81151111 49.5015028,7.09133333 L44.696678,7.09133333 Z" id="Shape" fill="#E8AF7B"></path>
                <path d="M44.696678,7.09133333 L49.4519435,7.09133333 C49.4519435,4.47235556 47.3490734,2.30608889 44.696678,2.30608889 C42.0433107,2.30608889 39.9404407,4.47235556 39.9404407,7.09133333 C39.9404407,9.76066667 42.0428249,11.8765778 44.696678,11.8765778 C47.3490734,11.8765778 49.4519435,9.76115556 49.4519435,7.09133333 L44.696678,7.09133333 Z" id="Shape" fill="#E8B17B"></path>
                <path d="M44.696678,7.09133333 L49.4018983,7.09133333 C49.4031893,5.8352946 48.9078768,4.63032652 48.0251968,3.74217254 C47.1425168,2.85401855 45.9449753,2.3556343 44.696678,2.35693333 C43.4482123,2.35537441 42.2504209,2.85364394 41.3675306,3.74182614 C40.4846402,4.63000834 39.9891944,5.83512498 39.9904859,7.09133333 C39.9890652,8.34762636 40.4844541,9.55286874 41.3673584,10.4411568 C42.2502628,11.3294448 43.448128,11.8277814 44.696678,11.8262222 C45.94502,11.8273913 47.1425601,11.3288982 48.0252261,10.4406667 C48.907892,9.5524351 49.4031891,8.34741693 49.4018983,7.09133333 L44.696678,7.09133333 L44.696678,7.09133333 Z" id="Shape" fill="#E8B17D"></path>
                <path d="M44.696678,7.09133333 L49.3513672,7.09133333 C49.3513672,4.52271111 47.2494689,2.45764444 44.696678,2.45764444 C42.1434011,2.45764444 40.0405311,4.52271111 40.0405311,7.09133333 C40.0405311,9.65995556 42.1429153,11.7758667 44.696678,11.7758667 C47.2494689,11.7758667 49.3513672,9.66044444 49.3513672,7.09133333 L44.696678,7.09133333 Z" id="Shape" fill="#E8B17E"></path>
                <path d="M44.696678,7.09133333 L49.2517627,7.09133333 C49.2517627,4.57306667 47.1989379,2.508 44.696678,2.508 C43.4872828,2.50382581 42.3262175,2.98535507 41.4709953,3.84578916 C40.6157732,4.70622324 40.1370879,5.8744376 40.1411073,7.09133333 C40.1411073,9.65995556 42.1434011,11.7250222 44.696678,11.7250222 C47.1989379,11.7250222 49.2517627,9.65995556 49.2517627,7.09133333 L44.696678,7.09133333 L44.696678,7.09133333 Z" id="Shape" fill="#E9B381"></path>
                <path d="M44.696678,7.09133333 L49.2012316,7.09133333 C49.2062949,5.8876431 48.7333511,4.7317743 47.8874974,3.88058325 C47.0416438,3.0293922 45.89295,2.55339074 44.696678,2.55835556 C43.5002776,2.55326091 42.3514092,3.02918922 41.5053732,3.88038015 C40.6593372,4.73157108 40.1862183,5.8875129 40.1911525,7.09133333 C40.1862192,8.29519834 40.6593228,9.4511897 41.5053445,10.302458 C42.3513662,11.1537264 43.5002328,11.6297639 44.696678,11.6248 C45.8929948,11.6296341 47.0416868,11.1535234 47.8875262,10.302255 C48.7333655,9.4509865 49.206294,8.29506814 49.2012316,7.09133333 L44.696678,7.09133333 Z" id="Shape" fill="#E9B381"></path>
                <path d="M44.696678,7.09133333 L49.1511864,7.09133333 C49.1511864,4.62342222 47.1488927,2.60871111 44.696678,2.60871111 C42.2434915,2.60871111 40.2411977,4.62342222 40.2411977,7.09133333 C40.2411977,9.55924444 42.2434915,11.5739556 44.696678,11.5739556 C47.1488927,11.5739556 49.1511864,9.55924444 49.1511864,7.09133333 L44.696678,7.09133333 L44.696678,7.09133333 Z" id="Shape" fill="#E9B583"></path>
                <path d="M44.696678,7.09133333 L49.1016271,7.09133333 C49.1016271,4.67377778 47.0983616,2.70942222 44.696678,2.70942222 C42.2935367,2.70942222 40.2912429,4.67377778 40.2912429,7.09133333 C40.2912429,9.55924444 42.2935367,11.5236 44.696678,11.5236 C47.0983616,11.5236 49.1016271,9.55924444 49.1016271,7.09133333 L44.696678,7.09133333 L44.696678,7.09133333 Z" id="Shape" fill="#E9B584"></path>
                <path d="M44.696678,7.09133333 L49.0010508,7.09133333 C49.0010508,4.72413333 47.0983616,2.75977778 44.696678,2.75977778 C42.2935367,2.75977778 40.3913333,4.72413333 40.3913333,7.09133333 C40.3913333,9.50888889 42.2935367,11.4732444 44.696678,11.4732444 C47.0983616,11.4732444 49.0010508,9.50888889 49.0010508,7.09133333 L44.696678,7.09133333 Z" id="Shape" fill="#EAB786"></path>
                <path d="M44.696678,7.09133333 L48.9510056,7.09133333 C48.9520381,5.95565508 48.5041626,4.86618556 47.7061115,4.06309358 C46.9080604,3.2600016 45.8253568,2.80922421 44.696678,2.81013333 C42.3435819,2.81013333 40.4413785,4.72413333 40.4413785,7.09133333 C40.4413785,9.45853333 42.3435819,11.3725333 44.696678,11.3725333 C45.8253568,11.3734425 46.9080604,10.9226651 47.7061115,10.1195731 C48.5041626,9.31648111 48.9520381,8.22701159 48.9510056,7.09133333 L44.696678,7.09133333 L44.696678,7.09133333 Z" id="Shape" fill="#EAB788"></path>
                <path d="M44.696678,7.09133333 L48.9004746,7.09133333 C48.9004746,4.77448889 46.9987571,2.86048889 44.696678,2.86048889 C42.3936271,2.86048889 40.4914237,4.77448889 40.4914237,7.09133333 C40.4914237,9.45853333 42.3936271,11.3221778 44.696678,11.3221778 C46.9987571,11.3221778 48.9004746,9.45853333 48.9004746,7.09133333 L44.696678,7.09133333 Z" id="Shape" fill="#EBB989"></path>
                <path d="M44.696678,7.09133333 L48.8514011,7.09133333 C48.8514011,4.82484444 46.9992429,2.9612 44.696678,2.9612 C42.3936271,2.9612 40.5414689,4.82484444 40.5414689,7.09133333 C40.5387502,8.20098906 40.9756724,9.26597713 41.7555294,10.0505787 C42.5353865,10.8351803 43.5938617,11.2746876 44.696678,11.2718222 C45.7994101,11.2745573 46.8577602,10.8349925 47.637512,10.0504051 C48.4172637,9.26581767 48.8541193,8.20090412 48.8514011,7.09133333 L44.696678,7.09133333 L44.696678,7.09133333 Z" id="Shape" fill="#EBB98A"></path>
                <path d="M44.696678,7.09133333 L48.7508249,7.09133333 C48.7553686,6.0079987 48.3297114,4.96770705 47.5684383,4.20162106 C46.8071652,3.43553507 45.7733362,3.00711345 44.696678,3.01155556 C42.4436723,3.01155556 40.6415593,4.82435556 40.6415593,7.09133333 C40.6415593,9.35831111 42.4436723,11.2219556 44.696678,11.2219556 C46.9487119,11.2219556 48.7508249,9.35831111 48.7508249,7.09133333 L44.696678,7.09133333 Z" id="Shape" fill="#EBBB8C"></path>
                <path d="M44.696678,7.09133333 L48.7002938,7.09133333 C48.7002938,4.8752 46.8991525,3.06191111 44.696678,3.06191111 C42.4937175,3.06191111 40.6916045,4.87471111 40.6916045,7.09133333 C40.6916045,9.35782222 42.4937175,11.1212444 44.696678,11.1212444 C46.8991525,11.1212444 48.7002938,9.35831111 48.7002938,7.09133333 L44.696678,7.09133333 Z" id="Shape" fill="#EBBB8C"></path>
                <path d="M44.696678,7.09133333 L48.6512203,7.09133333 C48.6512203,4.92555556 46.8996384,3.11226667 44.696678,3.11226667 C42.4937175,3.11226667 40.7416497,4.92506667 40.7416497,7.09133333 C40.7353963,8.14864868 41.1500929,9.1644742 41.8931787,9.91207636 C42.6362644,10.6596785 43.64588,11.0768221 44.696678,11.0704 C45.7474318,11.0768234 46.7569985,10.6596645 47.5000074,9.91204777 C48.2430163,9.16443106 48.6576041,8.1486035 48.6512203,7.09133333 L44.696678,7.09133333 Z" id="Shape" fill="#ECBD8F"></path>
                <path d="M44.696678,7.09133333 L48.6006893,7.09133333 C48.6006893,4.92555556 46.8491073,3.21297778 44.696678,3.21297778 C42.5437627,3.21297778 40.7916949,4.92506667 40.7916949,7.09133333 C40.7916949,9.2576 42.5437627,11.0205333 44.696678,11.0205333 C46.8491073,11.0205333 48.6006893,9.2576 48.6006893,7.09133333 L44.696678,7.09133333 Z" id="Shape" fill="#ECBD90"></path>
                <path d="M44.696678,7.09133333 L48.500113,7.09133333 C48.5006287,6.07609504 48.1001075,5.10227493 47.3867412,4.38430127 C46.6733749,3.6663276 45.7056591,3.26307375 44.696678,3.26333333 C43.6874838,3.26281431 42.7194684,3.665938 42.0058148,4.38392573 C41.2921611,5.10191346 40.8913984,6.07588058 40.8917853,7.09133333 C40.8917853,9.20675556 42.5938079,10.9696889 44.696678,10.9696889 C46.7985763,10.9696889 48.500113,9.20675556 48.500113,7.09133333 L44.696678,7.09133333 Z" id="Shape" fill="#ECBF93"></path>
                <path d="M44.696678,7.09133333 L48.4510395,7.09133333 C48.4510395,5.02626667 46.7485311,3.31368889 44.696678,3.31368889 C42.5938079,3.31368889 40.9418305,5.02626667 40.9418305,7.09133333 C40.9418305,9.20675556 42.5938079,10.8689778 44.696678,10.8689778 C46.7485311,10.8689778 48.4510395,9.20675556 48.4510395,7.09133333 L44.696678,7.09133333 Z" id="Shape" fill="#ECBF93"></path>
                <path d="M44.696678,7.09133333 L48.4005085,7.09133333 C48.4005085,5.02626667 46.7485311,3.36404444 44.696678,3.36404444 C42.6438531,3.36404444 40.9918757,5.02577778 40.9918757,7.09133333 C40.9918757,9.15688889 42.6438531,10.8186222 44.696678,10.8186222 C45.6797519,10.8208359 46.6231882,10.4288357 47.3182827,9.7293389 C48.0133771,9.02984207 48.4028374,8.08050358 48.4005085,7.09133333 L44.696678,7.09133333 L44.696678,7.09133333 Z" id="Shape" fill="#EDC195"></path>
                <path d="M44.696678,7.09133333 L48.3504633,7.09133333 C48.3504633,5.07662222 46.6994576,3.46524444 44.696678,3.46524444 C42.6938983,3.46524444 41.0419209,5.07711111 41.0419209,7.09133333 C41.0419209,9.10604444 42.6938983,10.7682667 44.696678,10.7682667 C46.6989718,10.7682667 48.3504633,9.10604444 48.3504633,7.09133333 L44.696678,7.09133333 Z" id="Shape" fill="#EDC196"></path>
                <path d="M44.696678,7.09133333 L48.2503729,7.09133333 C48.2503729,5.12697778 46.6484407,3.51511111 44.696678,3.51511111 C42.7439435,3.51511111 41.1420113,5.12697778 41.1420113,7.09133333 C41.1420113,9.10604444 42.7439435,10.7179111 44.696678,10.7179111 C46.6489266,10.7179111 48.2503729,9.10604444 48.2503729,7.09133333 L44.696678,7.09133333 L44.696678,7.09133333 Z" id="Shape" fill="#EEC397"></path>
                <path d="M44.696678,7.09133333 L48.2003277,7.09133333 C48.2003277,5.17733333 46.6489266,3.56595556 44.696678,3.56595556 C42.7439435,3.56595556 41.1920565,5.17782222 41.1920565,7.09133333 C41.1863219,8.02829317 41.5537317,8.92854198 42.2122371,9.59103927 C42.8707425,10.2535366 43.7654937,10.6231 44.696678,10.6172 C45.6277342,10.6229701 46.5223109,10.2533334 47.1806338,9.59083588 C47.8389568,8.92833842 48.2061913,8.0281627 48.2003277,7.09133333 L44.696678,7.09133333 Z" id="Shape" fill="#EEC399"></path>
                <path d="M44.696678,7.09133333 L48.1497966,7.09133333 C48.1497966,5.17733333 46.5983955,3.61582222 44.696678,3.61582222 C42.7939887,3.61582222 41.2421017,5.17733333 41.2421017,7.09133333 C41.2421017,9.00582222 42.7939887,10.5668444 44.696678,10.5668444 C46.5983955,10.5668444 48.1497966,9.00582222 48.1497966,7.09133333 L44.696678,7.09133333 Z" id="Shape" fill="#EEC59B"></path>
                <path d="M44.696678,7.09133333 L48.0997514,7.09133333 C48.0997514,5.22768889 46.5483503,3.71653333 44.696678,3.71653333 C42.8440339,3.71653333 41.2921469,5.22768889 41.2921469,7.09133333 C41.2921469,9.00582222 42.8440339,10.5164889 44.696678,10.5164889 C46.5483503,10.5164889 48.0997514,9.00582222 48.0997514,7.09133333 L44.696678,7.09133333 Z" id="Shape" fill="#EEC69D"></path>
                <path d="M44.696678,7.09133333 L48.0001469,7.09133333 C48.0001469,5.27853333 46.5483503,3.76688889 44.696678,3.76688889 C42.8440339,3.76688889 41.3922373,5.27804444 41.3922373,7.09133333 C41.3922373,8.95497778 42.8440339,10.4661333 44.696678,10.4661333 C46.5483503,10.4661333 48.0001469,8.95497778 48.0001469,7.09133333 L44.696678,7.09133333 Z" id="Shape" fill="#EEC69F"></path>
                <path d="M44.696678,7.09133333 L47.9496158,7.09133333 C47.9512961,6.22264326 47.6091476,5.38903158 46.9987669,4.77468205 C46.3883861,4.16033251 45.5600145,3.81581317 44.696678,3.81724444 C43.8330891,3.81542274 43.0043423,4.15976971 42.3936458,4.7741617 C41.7829493,5.38855369 41.440601,6.22238862 41.4422825,7.09133333 C41.440601,7.96027805 41.7829493,8.79411297 42.3936458,9.40850496 C43.0043423,10.022897 43.8330891,10.3672439 44.696678,10.3654222 C45.5600541,10.366984 46.3885012,10.0225066 46.9989101,9.40812871 C47.609319,8.79375082 47.9514259,7.96006324 47.9496158,7.09133333 L44.696678,7.09133333 L44.696678,7.09133333 Z" id="Shape" fill="#EFC89F"></path>
                <path d="M44.696678,7.09133333 L47.9005424,7.09133333 C47.9005424,5.32888889 46.4487458,3.86808889 44.696678,3.86808889 C42.9441243,3.86808889 41.4923277,5.32888889 41.4923277,7.09133333 C41.4897356,7.94720227 41.8265189,8.76876198 42.4280281,9.37390963 C43.0295372,9.97905728 43.8460844,10.3178046 44.696678,10.3150667 C45.5471874,10.3176742 46.3636094,9.97886924 46.9650132,9.3737358 C47.566417,8.76860236 47.9031338,7.94711728 47.9005424,7.09133333 L44.696678,7.09133333 L44.696678,7.09133333 Z" id="Shape" fill="#EFC8A1"></path>
                <path d="M44.696678,7.09133333 L47.8500113,7.09133333 C47.8500113,5.37924444 46.4482599,3.9688 44.696678,3.9688 C42.9441243,3.9688 41.5423729,5.37924444 41.5423729,7.09133333 C41.5388663,7.93412696 41.8700834,8.74341394 42.4624063,9.33931835 C43.0547292,9.93522276 43.8590793,10.2683692 44.696678,10.2647111 C45.5341086,10.2681078 46.3382079,9.93484586 46.93032,9.33897 C47.522432,8.74309413 47.8535161,7.93395677 47.8500113,7.09133333 L44.696678,7.09133333 L44.696678,7.09133333 Z" id="Shape" fill="#EFCAA3"></path>
                <path d="M44.696678,7.09133333 L47.749435,7.09133333 C47.7547801,6.27498914 47.4348836,5.49051436 46.8612321,4.91321338 C46.2875805,4.3359124 45.5079916,4.01390726 44.696678,4.01915556 C43.8851922,4.01377876 43.10538,4.33569522 42.5314692,4.91298143 C41.9575584,5.49026765 41.6373778,6.27481344 41.6424633,7.09133333 C41.6424633,8.80391111 42.9941695,10.2143556 44.696678,10.2143556 C46.3982147,10.2143556 47.749435,8.8044 47.749435,7.09133333 L44.696678,7.09133333 L44.696678,7.09133333 Z" id="Shape" fill="#EFCAA3"></path>
                <path d="M44.696678,7.09133333 L47.6993898,7.09133333 C47.6993898,5.42911111 46.3481695,4.06951111 44.696678,4.06951111 C43.0442147,4.06951111 41.6925085,5.42911111 41.6925085,7.09133333 C41.6925085,8.75355556 43.0442147,10.1136444 44.696678,10.1136444 C46.3476836,10.1136444 47.6993898,8.75355556 47.6993898,7.09133333 L44.696678,7.09133333 L44.696678,7.09133333 Z" id="Shape" fill="#F0CCA6"></path>
                <path d="M44.696678,7.09133333 L47.6498305,7.09133333 C47.6498305,5.47995556 46.2976384,4.11986667 44.696678,4.11986667 C43.0442147,4.11986667 41.7425537,5.47995556 41.7425537,7.09133333 C41.7425537,8.75355556 43.0442147,10.0632889 44.696678,10.0632889 C46.2976384,10.0632889 47.6498305,8.75355556 47.6498305,7.09133333 L44.696678,7.09133333 Z" id="Shape" fill="#F0CCA8"></path>
                <path d="M44.696678,7.09133333 L47.5997853,7.09133333 C47.5997853,5.47995556 46.2976384,4.22057778 44.696678,4.22057778 C43.0947458,4.22057778 41.7925989,5.47995556 41.7925989,7.09133333 C41.7936711,8.70463222 43.0933222,10.0121243 44.696678,10.0129333 C46.2996542,10.0115851 47.5987136,8.70425074 47.5997853,7.09133333 L44.696678,7.09133333 L44.696678,7.09133333 Z" id="Shape" fill="#F1CEAA"></path>
                <path d="M44.696678,7.09133333 L47.499209,7.09133333 C47.500631,6.34296378 47.2058374,5.62482656 46.6799664,5.09560254 C46.1540953,4.56637852 45.4404353,4.26963226 44.696678,4.27093333 C43.1443051,4.27093333 41.8926893,5.52982222 41.8926893,7.09133333 C41.8926893,8.65284444 43.1443051,9.96257778 44.696678,9.96257778 C46.2480791,9.96257778 47.499209,8.65284444 47.499209,7.09133333 L44.696678,7.09133333 L44.696678,7.09133333 Z" id="Shape" fill="#F1CEAA"></path>
                <path d="M44.696678,7.09133333 L47.4496497,7.09133333 C47.4496497,5.58066667 46.1980339,4.3208 44.696678,4.3208 C43.1943503,4.3208 41.9432203,5.58017778 41.9432203,7.09133333 C41.9410177,7.82680164 42.230406,8.53278606 42.7472577,9.05284305 C43.2641094,9.57290004 43.9657426,9.86408293 44.696678,9.86186667 C45.4275293,9.86395252 46.1290373,9.57271205 46.6457837,9.05266927 C47.16253,8.53262649 47.4518517,7.82671666 47.4496497,7.09133333 L44.696678,7.09133333 L44.696678,7.09133333 Z" id="Shape" fill="#F1D0AD"></path>
                <path d="M44.696678,7.09133333 L47.3991186,7.09133333 C47.3991186,5.63053333 46.197548,4.37164444 44.696678,4.37164444 C43.1943503,4.37164444 41.9932655,5.63053333 41.9932655,7.09133333 C41.9901485,7.81372625 42.2739705,8.50743788 42.7816359,9.01825163 C43.2893013,9.52906537 43.9787374,9.81464745 44.696678,9.81151111 C45.4144505,9.81438597 46.1036358,9.52868845 46.6110904,9.01790326 C47.118545,8.50711806 47.4022338,7.81355607 47.3991186,7.09133333 L44.696678,7.09133333 Z" id="Shape" fill="#F1D0AE"></path>
                <path d="M44.696678,7.09133333 L47.3490734,7.09133333 C47.3490734,5.63053333 46.1475028,4.47235556 44.696678,4.47235556 C43.2448814,4.47235556 42.0433107,5.63053333 42.0433107,7.09133333 C42.0433107,8.55213333 43.2448814,9.76066667 44.696678,9.76066667 C46.1475028,9.76066667 47.3490734,8.55164444 47.3490734,7.09133333 L44.696678,7.09133333 Z" id="Shape" fill="#F2D2B1"></path>
                <path d="M44.696678,7.09133333 L47.2494689,7.09133333 C47.2494689,5.68137778 46.0974576,4.52271111 44.696678,4.52271111 C43.2949266,4.52271111 42.1434011,5.68137778 42.1434011,7.09133333 C42.1434011,8.55213333 43.2954124,9.71031111 44.696678,9.71031111 C46.0974576,9.71031111 47.2494689,8.55164444 47.2494689,7.09133333 L44.696678,7.09133333 Z" id="Shape" fill="#F2D2B3"></path>
                <path d="M44.696678,7.09133333 L47.1989379,7.09133333 C47.1989379,5.73124444 46.0969718,4.57306667 44.696678,4.57306667 C43.2949266,4.57306667 42.1934463,5.73124444 42.1934463,7.09133333 C42.1934463,8.50177778 43.2954124,9.6096 44.696678,9.6096 C46.0974576,9.6096 47.1989379,8.50128889 47.1989379,7.09133333 L44.696678,7.09133333 Z" id="Shape" fill="#F3D4B4"></path>
                <path d="M44.696678,7.09133333 L47.1488927,7.09133333 C47.1470199,5.72931576 46.0503006,4.62557644 44.696678,4.62342222 C43.3444859,4.62342222 42.2434915,5.73173333 42.2434915,7.09133333 C42.2434915,8.45093333 43.3444859,9.55924444 44.696678,9.55924444 C46.0501898,9.55682186 47.1467532,8.45323952 47.1488927,7.09133333 L44.696678,7.09133333 Z" id="Shape" fill="#F3D4B5"></path>
                <path d="M44.696678,7.09133333 L47.0983616,7.09133333 C47.0983616,5.78208889 45.9973672,4.72413333 44.696678,4.72413333 C43.3945311,4.72413333 42.2935367,5.78208889 42.2935367,7.09133333 C42.2935367,8.45142222 43.3950169,9.50888889 44.696678,9.50888889 C45.9978531,9.50888889 47.0983616,8.45093333 47.0983616,7.09133333 L44.696678,7.09133333 Z" id="Shape" fill="#F3D4B7"></path>
                <path d="M44.696678,7.09133333 L46.9987571,7.09133333 C47.00044,6.47643518 46.7584563,5.88622653 46.3263815,5.45138035 C45.8943066,5.01653417 45.3077866,4.77292524 44.696678,4.77448889 C44.0854011,4.77266451 43.4986308,5.01615833 43.0663453,5.45103291 C42.6340598,5.88590748 42.391943,6.47626526 42.3936271,7.09133333 C42.3936271,8.40106667 43.3950169,9.45853333 44.696678,9.45853333 C45.9978531,9.45853333 46.9987571,8.40057778 46.9987571,7.09133333 L44.696678,7.09133333 L44.696678,7.09133333 Z" id="Shape" fill="#F3D6B8"></path>
                <path d="M44.696678,7.09133333 L46.9487119,7.09133333 C46.9511777,6.48955074 46.714718,5.91169202 46.2918581,5.48611796 C45.8689983,5.06054389 45.2947521,4.82249318 44.696678,4.82484444 C43.4450621,4.82484444 42.4436723,5.83244444 42.4436723,7.09133333 C42.4436723,8.35022222 43.4450621,9.35782222 44.696678,9.35782222 C45.2947521,9.36017349 45.8689983,9.12212277 46.2918581,8.69654871 C46.714718,8.27097465 46.9511777,7.69311592 46.9487119,7.09133333 L44.696678,7.09133333 Z" id="Shape" fill="#F4D8BA"></path>
                <path d="M44.696678,7.09133333 L46.8991525,7.09133333 C46.8991525,5.88231111 45.8977627,4.8752 44.696678,4.8752 C43.4955932,4.8752 42.4937175,5.8828 42.4937175,7.09133333 C42.4937175,8.35071111 43.4955932,9.30746667 44.696678,9.30746667 C45.8977627,9.30746667 46.8991525,8.35022222 46.8991525,7.09133333 L44.696678,7.09133333 Z" id="Shape" fill="#F4D9BC"></path>
                <path d="M44.696678,7.09133333 L46.8491073,7.09133333 C46.8491073,5.93266667 45.8982486,4.97591111 44.696678,4.97591111 C43.4951073,4.97591111 42.5437627,5.93266667 42.5437627,7.09133333 C42.5437627,8.30035556 43.4951073,9.25711111 44.696678,9.25711111 C45.8982486,9.25711111 46.8491073,8.29986667 46.8491073,7.09133333 L44.696678,7.09133333 L44.696678,7.09133333 Z" id="Shape" fill="#F4D9BE"></path>
                <path d="M44.696678,7.09133333 L46.7485311,7.09133333 C46.7485311,5.93266667 45.8477175,5.02626667 44.696678,5.02626667 C43.5446667,5.02626667 42.6438531,5.93266667 42.6438531,7.09133333 C42.6438531,8.25 43.5446667,9.20675556 44.696678,9.20675556 C45.8477175,9.20675556 46.7485311,8.24951111 46.7485311,7.09133333 L44.696678,7.09133333 Z" id="Shape" fill="#F4DBBF"></path>
                <path d="M44.696678,7.09133333 L46.6989718,7.09133333 C46.6957695,5.97997649 45.8011851,5.07984434 44.696678,5.07662222 C43.5947119,5.07662222 42.6938983,5.98302222 42.6938983,7.09133333 C42.6938983,8.19964444 43.5947119,9.10604444 44.696678,9.10604444 C45.8011851,9.10282232 46.6957695,8.20269017 46.6989718,7.09133333 L44.696678,7.09133333 L44.696678,7.09133333 Z" id="Shape" fill="#F4DBC0"></path>
                <path d="M44.696678,7.09133333 L46.6489266,7.09133333 C46.6489266,6.03337778 45.7476271,5.12697778 44.696678,5.12697778 C43.6452429,5.12697778 42.7439435,6.03337778 42.7439435,7.09133333 C42.7439435,8.19964444 43.6452429,9.05568889 44.696678,9.05568889 C45.7471412,9.05568889 46.6489266,8.19964444 46.6489266,7.09133333 L44.696678,7.09133333 Z" id="Shape" fill="#F5DDC3"></path>
                <path d="M44.696678,7.09133333 L46.5983955,7.09133333 C46.5983955,6.08373333 45.7471412,5.22768889 44.696678,5.22768889 C43.6452429,5.22768889 42.7939887,6.08373333 42.7939887,7.09133333 C42.7939887,8.14840634 43.6456342,9.00533333 44.6961921,9.00533333 C45.74675,9.00533333 46.5983955,8.14840634 46.5983955,7.09133333 L44.696678,7.09133333 Z" id="Shape" fill="#F5DDC3"></path>
                <path d="M44.696678,7.09133333 L46.4978192,7.09133333 C46.4978192,6.08373333 45.6980678,5.27853333 44.696678,5.27853333 C43.6952881,5.27853333 42.8940791,6.08422222 42.8940791,7.09133333 C42.8940791,8.09844444 43.6952881,8.95497778 44.696678,8.95497778 C45.6980678,8.95497778 46.4978192,8.09893333 46.4978192,7.09133333 L44.696678,7.09133333 Z" id="Shape" fill="#F6DFC6"></path>
                <path d="M44.696678,7.09133333 L46.4482599,7.09133333 C46.4482599,6.13408889 45.6475367,5.32888889 44.696678,5.32888889 C43.7448475,5.32888889 42.9441243,6.13457778 42.9441243,7.09133333 C42.9441243,8.09893333 43.7448475,8.85426667 44.696678,8.85426667 C45.6475367,8.85426667 46.4482599,8.09893333 46.4482599,7.09133333 L44.696678,7.09133333 Z" id="Shape" fill="#F6DFC7"></path>
                <path d="M44.696678,7.09133333 L46.3982147,7.09133333 C46.3982147,6.18493333 45.6475367,5.37924444 44.696678,5.37924444 C43.7448475,5.37924444 42.9941695,6.18493333 42.9941695,7.09133333 C42.9903738,7.54678223 43.1685414,7.98468013 43.4886644,8.30669649 C43.8087874,8.62871285 44.2440373,8.80786033 44.696678,8.80391111 C45.1491509,8.80759671 45.5841489,8.62833283 45.9040604,8.30634546 C46.2239719,7.98435809 46.4020068,7.54661126 46.3982147,7.09133333 L44.696678,7.09133333 Z" id="Shape" fill="#F6E1CA"></path>
                <path d="M44.696678,7.09133333 L46.3476836,7.09133333 C46.3476836,6.18493333 45.5970056,5.47995556 44.696678,5.47995556 C43.7953785,5.47995556 43.0442147,6.18493333 43.0442147,7.09133333 C43.0442147,7.99822222 43.7948927,8.75355556 44.696678,8.75355556 C45.5974915,8.75355556 46.3476836,7.99822222 46.3476836,7.09133333 L44.696678,7.09133333 Z" id="Shape" fill="#F6E1CC"></path>
                <path d="M44.696678,7.09133333 L46.2480791,7.09133333 C46.2438287,6.2309028 45.551804,5.53436845 44.696678,5.52982222 C43.8411724,5.5338341 43.14856,6.23052364 43.1443051,7.09133333 C43.1443051,7.99822222 43.8454237,8.7032 44.696678,8.7032 C45.5469605,8.7032 46.2480791,7.99822222 46.2480791,7.09133333 L44.696678,7.09133333 L44.696678,7.09133333 Z" id="Shape" fill="#F7E3CD"></path>
                <path d="M44.696678,7.09133333 L46.1980339,7.09133333 C46.1980339,6.28564444 45.5469605,5.58066667 44.696678,5.58066667 C43.8454237,5.58066667 43.1943503,6.28564444 43.1943503,7.09133333 C43.1943503,7.94737778 43.8454237,8.60248889 44.696678,8.60248889 C45.5469605,8.60248889 46.1980339,7.94737778 46.1980339,7.09133333 L44.696678,7.09133333 Z" id="Shape" fill="#F7E3CF"></path>
                <path d="M44.696678,7.09133333 L46.1475028,7.09133333 C46.1469676,6.2851606 45.4978815,5.63161165 44.696678,5.63053333 C43.9095001,5.65102696 43.281959,6.29900864 43.281959,7.09133333 C43.281959,7.88365803 43.9095001,8.5316397 44.696678,8.55213333 C45.4979925,8.55132413 46.1472351,7.89761759 46.1475028,7.09133333 L44.696678,7.09133333 L44.696678,7.09133333 Z" id="Shape" fill="#F7E3D0"></path>
                <path d="M44.696678,7.09133333 L46.0974576,7.09133333 C46.0974576,6.336 45.4473559,5.73124444 44.696678,5.73124444 C43.9450282,5.73124444 43.2949266,6.336 43.2949266,7.09133333 C43.2941505,7.46564531 43.4415853,7.82485127 43.7046331,8.08953038 C43.9676809,8.35420949 44.324673,8.50255868 44.696678,8.50177778 C45.0685543,8.50242896 45.4253717,8.35400678 45.6882372,8.0893276 C45.9511028,7.82464843 46.0983627,7.46551538 46.0974576,7.09133333 L44.696678,7.09133333 L44.696678,7.09133333 Z" id="Shape" fill="#F8E5D1"></path>
                <path d="M44.696678,7.09133333 L45.9978531,7.09133333 C45.9978531,6.38635556 45.4473559,5.78208889 44.696678,5.78208889 C44.3507025,5.77946333 44.0181261,5.91652626 43.7733862,6.16260008 C43.5286464,6.4086739 43.39218,6.74321046 43.3945311,7.09133333 C43.3945311,7.84666667 43.9450282,8.45142222 44.696678,8.45142222 C45.4473559,8.45142222 45.9978531,7.84715556 45.9978531,7.09133333 L44.696678,7.09133333 L44.696678,7.09133333 Z" id="Shape" fill="#F8E8D4"></path>
                <path d="M44.696678,7.09133333 L45.947322,7.09133333 C45.9507305,6.7564559 45.820093,6.43428081 45.5848374,6.19738234 C45.3495818,5.96048388 45.029494,5.82878604 44.696678,5.83195556 C44.3637344,5.82865604 44.0434722,5.9602803 43.8080341,6.19717848 C43.572596,6.43407665 43.441783,6.75632497 43.4450621,7.09133333 C43.4416494,7.42638201 43.5724194,7.74870874 43.8078868,7.98563637 C44.0433542,8.222564 44.3636943,8.35414507 44.696678,8.35071111 C45.029494,8.35388063 45.3495818,8.22218279 45.5848374,7.98528433 C45.820093,7.74838586 45.9507305,7.42621076 45.947322,7.09133333 L44.696678,7.09133333 L44.696678,7.09133333 Z" id="Shape" fill="#F8E8D6"></path>
                <path d="M44.696678,7.09133333 L45.8982486,7.09133333 C45.8982486,6.43671111 45.3467797,5.93266667 44.696678,5.93266667 C44.0456045,5.93266667 43.4951073,6.43622222 43.4951073,7.09133333 C43.4951073,7.74644444 44.0456045,8.30035556 44.696678,8.30035556 C45.3467797,8.30035556 45.8982486,7.74644444 45.8982486,7.09133333 L44.696678,7.09133333 Z" id="Shape" fill="#F8E8D8"></path>
                <path d="M44.696678,7.09133333 L45.8477175,7.09133333 C45.8477175,6.48706667 45.2962486,5.98302222 44.696678,5.98302222 C44.0951638,5.98302222 43.5446667,6.48706667 43.5446667,7.09133333 C43.5446667,7.74595556 44.0951638,8.25 44.696678,8.25 C45.2962486,8.25 45.8477175,7.74644444 45.8477175,7.09133333 L44.696678,7.09133333 Z" id="Shape" fill="#F9EAD9"></path>
                <path d="M44.696678,7.09133333 L45.7471412,7.09133333 C45.7471412,6.53742222 45.2962486,6.03337778 44.696678,6.03337778 C44.0951638,6.03337778 43.6452429,6.53693333 43.6452429,7.09133333 C43.6452429,7.69608889 44.0951638,8.19964444 44.696678,8.19964444 C45.2962486,8.19964444 45.7471412,7.69608889 45.7471412,7.09133333 L44.696678,7.09133333 Z" id="Shape" fill="#FAECDC"></path>
                <path d="M44.696678,7.09133333 L45.6980678,7.09133333 C45.6962015,6.53563091 45.2489554,6.08561118 44.696678,6.08373333 C44.145209,6.08373333 43.6952881,6.53693333 43.6952881,7.09133333 C43.6952881,7.64573333 44.145209,8.09893333 44.696678,8.09893333 C45.2490657,8.09732227 45.6964667,7.64714676 45.6980678,7.09133333 L44.696678,7.09133333 L44.696678,7.09133333 Z" id="Shape" fill="#FAECDD"></path>
                <path d="M44.696678,7.09133333 L45.6475367,7.09133333 C45.6475367,6.58777778 45.1966441,6.18493333 44.696678,6.18493333 C44.1957401,6.18493333 43.7448475,6.58777778 43.7448475,7.09133333 C43.7448475,7.64524444 44.1957401,8.04857778 44.696678,8.04857778 C44.9489456,8.04857781 45.1908739,7.94770996 45.3692085,7.76817774 C45.5475431,7.58864551 45.6476656,7.34516538 45.6475367,7.09133333 L44.696678,7.09133333 L44.696678,7.09133333 Z" id="Shape" fill="#FAECDF"></path>
                <path d="M44.696678,7.09133333 L45.5974915,7.09133333 C45.5974915,6.63813333 45.1971299,6.23528889 44.696678,6.23528889 C44.1957401,6.23528889 43.7953785,6.63813333 43.7953785,7.09133333 C43.7953785,7.59537778 44.1957401,7.99822222 44.696678,7.99822222 C44.9359504,7.99913694 45.1656783,7.90386804 45.334825,7.7335805 C45.5039718,7.56329296 45.5985296,7.33208911 45.5974915,7.09133333 L44.696678,7.09133333 Z" id="Shape" fill="#FAEEE0"></path>
                <path d="M44.696678,7.09133333 L45.4974011,7.09133333 C45.4974011,6.63813333 45.146113,6.28564444 44.696678,6.28564444 C44.2457853,6.28564444 43.8949831,6.63813333 43.8949831,7.09133333 C43.8949831,7.54453333 44.2462712,7.94737778 44.696678,7.94737778 C45.1465989,7.94737778 45.4974011,7.54453333 45.4974011,7.09133333 L44.696678,7.09133333 Z" id="Shape" fill="#FBF0E3"></path>
                <path d="M44.696678,7.09133333 L45.4473559,7.09133333 C45.4473559,6.68848889 45.0960678,6.336 44.696678,6.336 C44.2963164,6.336 43.9450282,6.68848889 43.9450282,7.09133333 C43.9450282,7.54453333 44.2963164,7.84666667 44.696678,7.84666667 C45.0960678,7.84666667 45.4473559,7.54453333 45.4473559,7.09133333 L44.696678,7.09133333 Z" id="Shape" fill="#FBF1E5"></path>
                <path d="M44.696678,7.09133333 L45.3968249,7.09133333 C45.3968249,6.73884444 45.0960678,6.43671111 44.696678,6.43671111 C44.2963164,6.43671111 43.9955593,6.73884444 43.9955593,7.09133333 C43.9955593,7.49466667 44.2963164,7.7968 44.696678,7.7968 C45.0960678,7.7968 45.3968249,7.49466667 45.3968249,7.09133333 L44.696678,7.09133333 Z" id="Shape" fill="#FBF1E7"></path>
                <path d="M44.696678,7.09133333 L45.3467797,7.09133333 C45.3467797,6.73884444 45.0469944,6.48706667 44.696678,6.48706667 C44.3453898,6.48706667 44.0456045,6.73884444 44.0456045,7.09133333 C44.0456045,7.44431111 44.3453898,7.74595556 44.696678,7.74595556 C45.0469944,7.74595556 45.3467797,7.44382222 45.3467797,7.09133333 L44.696678,7.09133333 Z" id="Shape" fill="#FCF3E8"></path>
                <path d="M44.696678,7.09133333 L45.2471751,7.09133333 C45.2471751,6.7892 44.9964633,6.53742222 44.696678,6.53742222 C44.3959209,6.53742222 44.145209,6.78968889 44.145209,7.09133333 C44.145209,7.44431111 44.3959209,7.69608889 44.696678,7.69608889 C44.9964633,7.69608889 45.2471751,7.44431111 45.2471751,7.09133333 L44.696678,7.09133333 Z" id="Shape" fill="#FCF3EA"></path>
                <path d="M44.696678,7.09133333 L45.1966441,7.09133333 C45.1966441,6.83955556 44.9964633,6.58777778 44.696678,6.58777778 C44.3959209,6.58777778 44.1957401,6.83955556 44.1957401,7.09133333 C44.1957401,7.39395556 44.3959209,7.59537778 44.696678,7.59537778 C44.9964633,7.59537778 45.1966441,7.39395556 45.1966441,7.09133333 L44.696678,7.09133333 Z" id="Shape" fill="#FCF5ED"></path>
                <path d="M44.696678,7.09133333 L45.1465989,7.09133333 C45.1465989,6.83955556 44.9464181,6.68848889 44.696678,6.68848889 C44.4459661,6.68848889 44.2457853,6.83955556 44.2457853,7.09133333 C44.2457853,7.34311111 44.4459661,7.54453333 44.696678,7.54453333 C44.8162077,7.54492538 44.9309472,7.49728785 45.0154223,7.41219705 C45.0998975,7.32710625 45.1471175,7.21160387 45.1465989,7.09133333 L44.696678,7.09133333 L44.696678,7.09133333 Z" id="Shape" fill="#FCF5EF"></path>
                <path d="M44.696678,7.09133333 L45.0960678,7.09133333 C45.0960678,6.88991111 44.895887,6.73884444 44.696678,6.73884444 C44.4964972,6.73884444 44.2963164,6.8904 44.2963164,7.09133333 C44.2963164,7.29275556 44.4964972,7.49466667 44.696678,7.49466667 C44.895887,7.49466667 45.0960678,7.29275556 45.0960678,7.09133333 L44.696678,7.09133333 Z" id="Shape" fill="#FDF8F1"></path>
                <path d="M44.696678,7.09133333 L44.9964633,7.09133333 C44.9964633,6.94026667 44.8463277,6.7892 44.696678,6.7892 C44.5455706,6.7892 44.3959209,6.94026667 44.3959209,7.09133333 C44.3959209,7.29275556 44.5460565,7.44431111 44.696678,7.44431111 C44.8468136,7.44431111 44.9964633,7.29275556 44.9964633,7.09133333 L44.696678,7.09133333 Z" id="Shape" fill="#FDF8F3"></path>
                <path d="M44.696678,7.09133333 L44.9464181,7.09133333 C44.9464181,6.99062222 44.8468136,6.83955556 44.696678,6.83955556 C44.5455706,6.83955556 44.4459661,6.99062222 44.4459661,7.09133333 C44.4459661,7.2424 44.5455706,7.34311111 44.696678,7.34311111 C44.8468136,7.34311111 44.9464181,7.2424 44.9464181,7.09133333 L44.696678,7.09133333 Z" id="Shape" fill="#FDF8F5"></path>
                <path d="M44.696678,7.09133333 L44.895887,7.09133333 C44.895887,6.99062222 44.7962825,6.94026667 44.696678,6.94026667 C44.5961017,6.94026667 44.4964972,6.99062222 44.4964972,7.09133333 C44.4964972,7.19204444 44.5961017,7.29275556 44.696678,7.29275556 C44.7962825,7.29275556 44.895887,7.19204444 44.895887,7.09133333 L44.696678,7.09133333 Z" id="Shape" fill="#FEFBF6"></path>
                <path d="M44.696678,7.09133333 L44.7962825,7.09133333 C44.7962825,7.04097778 44.7457514,6.99062222 44.696678,6.99062222 C44.6461469,6.99062222 44.5455706,7.04097778 44.5455706,7.09133333 C44.5455706,7.19204444 44.6461469,7.2424 44.696678,7.2424 C44.7462373,7.2424 44.7962825,7.19204444 44.7962825,7.09133333 L44.696678,7.09133333 Z" id="Shape" fill="#FFFFFB"></path>
                <path d="M44.696678,7.09133333 L44.7462373,7.09133333 C44.7462373,7.09133333 44.7462373,7.04097778 44.696678,7.04097778 C44.6461469,7.04097778 44.6461469,7.09133333 44.6461469,7.09133333 C44.6461469,7.14168889 44.6461469,7.19204444 44.696678,7.19204444 C44.7462373,7.19204444 44.7462373,7.14168889 44.7462373,7.09133333 L44.696678,7.09133333 Z" id="Shape" fill="#FFFFFF"></path>
                <path d="M57.7613898,9.40866667 L54.207209,0.342222222 L51.3036158,0.342222222 L57.0107119,14.1934222 L58.4124633,14.1934222 L64.2191638,0.342222222 L61.3656158,0.342222222 L57.7613898,9.40866667 Z M65.4207345,13.8414222 L72.8293672,13.8414222 L72.8293672,11.5744444 L68.0235706,11.5744444 L68.0235706,7.94786667 L72.6287006,7.94786667 L72.6287006,5.63102222 L68.0235706,5.63102222 L68.0235706,2.65906667 L72.8293672,2.65906667 L72.8293672,0.342222222 L65.4207345,0.342222222 L65.4207345,13.8414222 Z M83.1911525,4.32128889 C83.1911525,1.80302222 81.4886441,0.342222222 78.435887,0.342222222 L74.5809492,0.342222222 L74.5809492,13.8409333 L77.1837853,13.8409333 L77.1837853,8.45142222 L77.5341017,8.45142222 L81.1383277,13.8409333 L84.3421921,13.8409333 L80.1374237,8.1488 C82.0891864,7.74644444 83.1911525,6.38635556 83.1911525,4.32128889 L83.1911525,4.32128889 Z M77.9344633,6.58826667 L77.1837853,6.58826667 L77.1837853,2.45813333 L77.9845085,2.45813333 C79.6364859,2.45813333 80.4867684,3.16311111 80.4867684,4.47284444 C80.4872542,5.83244444 79.6369718,6.58826667 77.9344633,6.58826667 L77.9344633,6.58826667 Z M0.841050847,17.8048444 L0.841050847,19.0143556 L2.32540113,19.0143556 L2.32540113,19.5037333 L0.841050847,19.5037333 L0.841050847,21.6108444 L0.307559322,21.6108444 L0.307559322,17.3149778 L2.3739887,17.3149778 L2.3739887,17.8048444 L0.841050847,17.8048444 Z M4.81065537,17.3149778 L5.34463277,17.3149778 L5.34463277,21.6108444 L4.81065537,21.6108444 L4.81065537,17.3149778 Z M7.92220339,17.1086667 L11.1241243,20.4893333 L11.1241243,17.3149778 L11.6576158,17.3149778 L11.6576158,21.7878222 L8.45229379,18.4091111 L8.45229379,21.6108444 L7.92220339,21.6108444 L7.92220339,17.1086667 L7.92220339,17.1086667 Z M16.5936271,20.0449333 L15.0728362,20.0449333 L15.8327458,18.3054667 L16.5936271,20.0449333 Z M16.8122712,20.5348 L17.2991186,21.6108444 L17.8734237,21.6108444 L15.8332316,17.1326222 L13.7940113,21.6108444 L14.365887,21.6108444 L14.8541921,20.5348 L16.8122712,20.5348 Z M20.0088475,17.1086667 L23.2141695,20.4893333 L23.2141695,17.3149778 L23.7481469,17.3149778 L23.7481469,21.7878222 L20.5389379,18.4091111 L20.5389379,21.6108444 L20.0088475,21.6108444 L20.0088475,17.1086667 L20.0088475,17.1086667 Z M29.4426102,18.1363111 C29.1389379,17.8615556 28.7181695,17.7144 28.3153785,17.7144 C27.3606328,17.7144 26.6298757,18.5176444 26.6298757,19.4695111 C26.6298757,20.4096444 27.3533446,21.2124 28.305661,21.2124 C28.7254576,21.2124 29.1258192,21.054 29.4421243,20.768 L29.4421243,21.4016 C29.1002961,21.5964581 28.7145618,21.6999697 28.3216949,21.7022667 C27.101661,21.7022667 26.0949266,20.7284 26.0949266,19.4856444 C26.0949266,18.2145333 27.1084633,17.2220889 28.368339,17.2220889 C28.7429492,17.2220889 29.1214463,17.3149778 29.4416384,17.5139556 L29.4416384,18.1363111 L29.4426102,18.1363111 L29.4426102,18.1363111 Z M31.8928814,17.3149778 L32.4234576,17.3149778 L32.4234576,21.6108444 L31.8928814,21.6108444 L31.8928814,17.3149778 Z M37.3973672,20.0449333 L35.8770621,20.0449333 L36.6408588,18.3054667 L37.3973672,20.0449333 L37.3973672,20.0449333 Z M37.6164972,20.5348 L38.1048023,21.6108444 L38.676678,21.6108444 L36.6408588,17.1326222 L34.6006667,21.6108444 L35.1710847,21.6108444 L35.6579322,20.5348 L37.6164972,20.5348 L37.6164972,20.5348 Z M41.3956384,21.1234222 L42.6934124,21.1234222 L42.6934124,21.6108444 L40.8650621,21.6108444 L40.8650621,17.3149778 L41.3956384,17.3149778 L41.3956384,21.1234222 Z M50.2371186,18.1304444 C50.0826102,17.8610667 49.8775706,17.7246667 49.5520339,17.7246667 C49.211435,17.7246667 48.836339,17.9578667 48.836339,18.3352889 C48.836339,18.6701778 49.1696497,18.8481333 49.4339661,18.9503111 L49.7376384,19.0710667 C50.3459548,19.3091556 50.798791,19.6464889 50.798791,20.3636889 C50.798791,21.1454222 50.1972768,21.7022667 49.4339661,21.7022667 C48.7420791,21.7022667 48.2042147,21.1904 48.1157853,20.5005778 L48.652678,20.3876444 C48.6458757,20.8594222 49.02,21.2016444 49.4762373,21.2016444 C49.9363616,21.2016444 50.2638418,20.8154222 50.2638418,20.3636889 C50.2638418,19.9031556 49.8965198,19.7027111 49.5291977,19.5477333 L49.2357288,19.4240444 C48.7469379,19.2128444 48.3057627,18.9341778 48.3057627,18.3352889 C48.3057627,17.6391111 48.9169944,17.2220889 49.5641808,17.2220889 C50.0379096,17.2220889 50.4295254,17.4572444 50.6603164,17.8723111 L50.2371186,18.1304444 L50.2371186,18.1304444 Z M53.2092203,17.3149778 L55.5044972,17.3149778 L55.5044972,17.8048444 L53.7431977,17.8048444 L53.7431977,19.0089778 L55.4563955,19.0089778 L55.4563955,19.4983556 L53.7431977,19.4983556 L53.7431977,21.1234222 L55.5044972,21.1234222 L55.5044972,21.6108444 L53.2092203,21.6108444 L53.2092203,17.3149778 L53.2092203,17.3149778 Z M58.5271299,17.7936 L58.663661,17.7936 C59.195209,17.7936 59.8278192,17.8904 59.8278192,18.5640889 C59.8278192,19.2470667 59.2355367,19.3487556 58.6928136,19.3487556 L58.5266441,19.3487556 L58.5266441,17.7936 L58.5271299,17.7936 L58.5271299,17.7936 Z M59.3016158,19.7432889 C59.918678,19.668 60.3263277,19.1566222 60.3263277,18.5401333 C60.3263277,18.1304444 60.1212881,17.7246667 59.7636836,17.5134667 C59.4250282,17.3203556 59.0168927,17.3149778 58.6393672,17.3149778 L57.9941243,17.3149778 L57.9941243,21.6108444 L58.5276158,21.6108444 L58.5276158,19.7956 L58.7467458,19.7956 L60.0041921,21.6108444 L60.6484633,21.6108444 L59.3016158,19.7432889 L59.3016158,19.7432889 Z M64.3066215,20.4947111 L65.5752429,17.3149778 L66.1597514,17.3149778 L64.3066215,21.8411111 L62.4500904,17.3149778 L63.0336271,17.3149778 L64.3066215,20.4947111 Z M68.3340452,17.3149778 L68.8670508,17.3149778 L68.8670508,21.6108444 L68.3340452,21.6108444 L68.3340452,17.3149778 Z M74.6086441,18.1363111 C74.3010847,17.8615556 73.8798305,17.7144 73.4755819,17.7144 C72.5218079,17.7144 71.7910508,18.5176444 71.7910508,19.4695111 C71.7910508,20.4096444 72.5140339,21.2124 73.4658644,21.2124 C73.8861469,21.2124 74.2903955,21.054 74.6086441,20.768 L74.6086441,21.4016 C74.2656271,21.5961336 73.8790403,21.6996047 73.4852994,21.7022667 C72.2686667,21.7022667 71.2570734,20.7284 71.2570734,19.4856444 C71.2570734,18.2145333 72.2754689,17.2220889 73.53,17.2220889 C73.9046102,17.2220889 74.2835932,17.3149778 74.6091299,17.5139556 L74.6091299,18.1363111 L74.6086441,18.1363111 L74.6086441,18.1363111 Z M77.0681469,17.3149778 L79.3629379,17.3149778 L79.3629379,17.8048444 L77.6026102,17.8048444 L77.6026102,19.0089778 L79.3124068,19.0089778 L79.3124068,19.4983556 L77.6026102,19.4983556 L77.6026102,21.1234222 L79.3629379,21.1234222 L79.3629379,21.6108444 L77.0681469,21.6108444 L77.0681469,17.3149778 L77.0681469,17.3149778 Z M83.7450508,18.1304444 C83.5895706,17.8610667 83.3855028,17.7246667 83.0628814,17.7246667 C82.724226,17.7246667 82.3491299,17.9578667 82.3491299,18.3352889 C82.3491299,18.6701778 82.6795254,18.8481333 82.9433559,18.9503111 L83.251887,19.0710667 C83.8553446,19.3091556 84.3081808,19.6464889 84.3081808,20.3636889 C84.3081808,21.1454222 83.7076384,21.7022667 82.9433559,21.7022667 C82.2543842,21.7022667 81.7126328,21.1904 81.6261469,20.5005778 L82.1615819,20.3876444 C82.1547797,20.8594222 82.5318192,21.2016444 82.9890282,21.2016444 C83.4481808,21.2016444 83.7776045,20.8154222 83.7776045,20.3636889 C83.7776045,19.9031556 83.4063955,19.7027111 83.0400452,19.5477333 L82.7460904,19.4240444 C82.2572994,19.2128444 81.8161243,18.9341778 81.8161243,18.3352889 C81.8161243,17.6391111 82.4283277,17.2220889 83.0745424,17.2220889 C83.5482712,17.2220889 83.9408588,17.4572444 84.174565,17.8723111 L83.7450508,18.1304444 L83.7450508,18.1304444 Z M84.7206893,1.53951111 C84.7206893,1.64315556 84.6502373,1.69791111 84.5073898,1.69791111 L84.4588023,1.69791111 L84.4588023,1.38844444 L84.510791,1.38844444 C84.6526667,1.38893333 84.7206893,1.43782222 84.7206893,1.53951111 Z M85.1395141,2.35742222 L84.7503277,1.8656 C84.9164972,1.82257778 85.0122147,1.70035556 85.0122147,1.53217778 C85.0122147,1.29946667 84.8499322,1.16795556 84.561322,1.16795556 L84.1847684,1.16795556 L84.1847684,2.35742222 L84.463661,2.35742222 L84.463661,1.89688889 L84.7950282,2.35742222 L85.1395141,2.35742222 Z M85.636565,1.76048889 C85.636565,1.1924 85.1774124,0.724044444 84.620113,0.724044444 C84.3461485,0.722213692 84.0828427,0.830743371 83.8888882,1.02544145 C83.6949338,1.22013953 83.586453,1.48482186 83.5876271,1.76048889 C83.5876271,2.33786667 84.0487232,2.7984 84.620113,2.7984 C85.1774124,2.79791111 85.636565,2.33004444 85.636565,1.76048889 Z M85.4286102,1.76342222 C85.4286102,2.22982222 85.0642034,2.61213333 84.6152542,2.61213333 C84.1633898,2.61213333 83.7916949,2.23177778 83.7916949,1.76342222 C83.7916949,1.28968889 84.1599887,0.913244444 84.6152542,0.913244444 C85.0642034,0.913244444 85.4286102,1.29555556 85.4286102,1.76342222 Z" id="Shape" fill="#000000"></path>
            </g>
        </g>
    </g>
</svg>