<?xml version="1.0" encoding="UTF-8"?>
<svg width="40px" height="31px" viewBox="0 0 40 31" version="1.1" xmlns="http://www.w3.org/2000/svg" xmlns:xlink="http://www.w3.org/1999/xlink">
    <!-- Generator: Sketch 43.2 (39069) - http://www.bohemiancoding.com/sketch -->
    <title>mc_vrt_pos</title>
    <desc>Created with Sketch.</desc>
    <defs></defs>
    <g id="Icons-&amp;-Logos" stroke="none" stroke-width="1" fill="none" fill-rule="evenodd">
        <g id="Artboard" transform="translate(-190.000000, -18.000000)" fill-rule="nonzero">
            <g id="mc_vrt_pos" transform="translate(190.000000, 18.000000)">
                <g id="Group">
                    <path d="M7.42372881,30.6967391 L7.42372881,28.675 C7.42372881,27.9 6.94915254,27.3945652 6.13559322,27.3945652 C5.72881356,27.3945652 5.28813559,27.5293478 4.98305085,27.9673913 C4.74576271,27.5967391 4.40677966,27.3945652 3.89830508,27.3945652 C3.55932203,27.3945652 3.22033898,27.4956522 2.94915254,27.8663043 L2.94915254,27.4619565 L2.23728814,27.4619565 L2.23728814,30.6967391 L2.94915254,30.6967391 L2.94915254,28.9108696 C2.94915254,28.3380435 3.25423729,28.0684783 3.72881356,28.0684783 C4.20338983,28.0684783 4.44067797,28.3717391 4.44067797,28.9108696 L4.44067797,30.6967391 L5.15254237,30.6967391 L5.15254237,28.9108696 C5.15254237,28.3380435 5.49152542,28.0684783 5.93220339,28.0684783 C6.40677966,28.0684783 6.6440678,28.3717391 6.6440678,28.9108696 L6.6440678,30.6967391 L7.42372881,30.6967391 Z M17.9661017,27.4619565 L16.8135593,27.4619565 L16.8135593,26.4847826 L16.1016949,26.4847826 L16.1016949,27.4619565 L15.4576271,27.4619565 L15.4576271,28.1021739 L16.1016949,28.1021739 L16.1016949,29.5847826 C16.1016949,30.326087 16.4067797,30.7641304 17.220339,30.7641304 C17.5254237,30.7641304 17.8644068,30.6630435 18.1016949,30.5282609 L17.8983051,29.9217391 C17.6949153,30.0565217 17.4576271,30.0902174 17.2881356,30.0902174 C16.9491525,30.0902174 16.8135593,29.8880435 16.8135593,29.551087 L16.8135593,28.1021739 L17.9661017,28.1021739 L17.9661017,27.4619565 Z M24,27.3945652 C23.5932203,27.3945652 23.3220339,27.5967391 23.1525424,27.8663043 L23.1525424,27.4619565 L22.440678,27.4619565 L22.440678,30.6967391 L23.1525424,30.6967391 L23.1525424,28.8771739 C23.1525424,28.3380435 23.3898305,28.0347826 23.8305085,28.0347826 C23.9661017,28.0347826 24.1355932,28.0684783 24.2711864,28.1021739 L24.4745763,27.4282609 C24.3389831,27.3945652 24.1355932,27.3945652 24,27.3945652 L24,27.3945652 Z M14.8813559,27.7315217 C14.5423729,27.4956522 14.0677966,27.3945652 13.559322,27.3945652 C12.7457627,27.3945652 12.2033898,27.798913 12.2033898,28.4391304 C12.2033898,28.9782609 12.6101695,29.2815217 13.3220339,29.3826087 L13.6610169,29.4163043 C14.0338983,29.4836957 14.2372881,29.5847826 14.2372881,29.7532609 C14.2372881,29.9891304 13.9661017,30.1576087 13.4915254,30.1576087 C13.0169492,30.1576087 12.6440678,29.9891304 12.4067797,29.8206522 L12.0677966,30.3597826 C12.440678,30.6293478 12.9491525,30.7641304 13.4576271,30.7641304 C14.4067797,30.7641304 14.9491525,30.326087 14.9491525,29.7195652 C14.9491525,29.1467391 14.5084746,28.8434783 13.8305085,28.7423913 L13.4915254,28.7086957 C13.1864407,28.675 12.9491525,28.6076087 12.9491525,28.4054348 C12.9491525,28.1695652 13.1864407,28.0347826 13.559322,28.0347826 C13.9661017,28.0347826 14.3728814,28.2032609 14.5762712,28.3043478 L14.8813559,27.7315217 Z M33.7966102,27.3945652 C33.3898305,27.3945652 33.1186441,27.5967391 32.9491525,27.8663043 L32.9491525,27.4619565 L32.2372881,27.4619565 L32.2372881,30.6967391 L32.9491525,30.6967391 L32.9491525,28.8771739 C32.9491525,28.3380435 33.1864407,28.0347826 33.6271186,28.0347826 C33.7627119,28.0347826 33.9322034,28.0684783 34.0677966,28.1021739 L34.2711864,27.4282609 C34.1355932,27.3945652 33.9322034,27.3945652 33.7966102,27.3945652 L33.7966102,27.3945652 Z M24.7118644,29.0793478 C24.7118644,30.0565217 25.3898305,30.7641304 26.440678,30.7641304 C26.9152542,30.7641304 27.2542373,30.6630435 27.5932203,30.3934783 L27.2542373,29.8206522 C26.9830508,30.0228261 26.7118644,30.123913 26.4067797,30.123913 C25.8305085,30.123913 25.4237288,29.7195652 25.4237288,29.0793478 C25.4237288,28.4728261 25.8305085,28.0684783 26.4067797,28.0347826 C26.7118644,28.0347826 26.9830508,28.1358696 27.2542373,28.3380435 L27.5932203,27.7652174 C27.2542373,27.4956522 26.9152542,27.3945652 26.440678,27.3945652 C25.3898305,27.3945652 24.7118644,28.1021739 24.7118644,29.0793478 L24.7118644,29.0793478 Z M31.2881356,29.0793478 L31.2881356,27.4619565 L30.5762712,27.4619565 L30.5762712,27.8663043 C30.3389831,27.5630435 30,27.3945652 29.559322,27.3945652 C28.6440678,27.3945652 27.9322034,28.1021739 27.9322034,29.0793478 C27.9322034,30.0565217 28.6440678,30.7641304 29.559322,30.7641304 C30.0338983,30.7641304 30.3728814,30.5956522 30.5762712,30.2923913 L30.5762712,30.6967391 L31.2881356,30.6967391 L31.2881356,29.0793478 Z M28.6779661,29.0793478 C28.6779661,28.5065217 29.0508475,28.0347826 29.6610169,28.0347826 C30.2372881,28.0347826 30.6440678,28.4728261 30.6440678,29.0793478 C30.6440678,29.6521739 30.2372881,30.123913 29.6610169,30.123913 C29.0508475,30.0902174 28.6779661,29.6521739 28.6779661,29.0793478 L28.6779661,29.0793478 Z M20.1694915,27.3945652 C19.220339,27.3945652 18.5423729,28.0684783 18.5423729,29.0793478 C18.5423729,30.0902174 19.220339,30.7641304 20.2033898,30.7641304 C20.6779661,30.7641304 21.1525424,30.6293478 21.5254237,30.326087 L21.1864407,29.8206522 C20.9152542,30.0228261 20.5762712,30.1576087 20.2372881,30.1576087 C19.7966102,30.1576087 19.3559322,29.9554348 19.2542373,29.3826087 L21.6610169,29.3826087 L21.6610169,29.1130435 C21.6949153,28.0684783 21.0847458,27.3945652 20.1694915,27.3945652 L20.1694915,27.3945652 Z M20.1694915,28.001087 C20.6101695,28.001087 20.9152542,28.2706522 20.9830508,28.776087 L19.2881356,28.776087 C19.3559322,28.3380435 19.6610169,28.001087 20.1694915,28.001087 L20.1694915,28.001087 Z M37.8305085,29.0793478 L37.8305085,26.1815217 L37.1186441,26.1815217 L37.1186441,27.8663043 C36.8813559,27.5630435 36.5423729,27.3945652 36.1016949,27.3945652 C35.1864407,27.3945652 34.4745763,28.1021739 34.4745763,29.0793478 C34.4745763,30.0565217 35.1864407,30.7641304 36.1016949,30.7641304 C36.5762712,30.7641304 36.9152542,30.5956522 37.1186441,30.2923913 L37.1186441,30.6967391 L37.8305085,30.6967391 L37.8305085,29.0793478 Z M35.220339,29.0793478 C35.220339,28.5065217 35.5932203,28.0347826 36.2033898,28.0347826 C36.779661,28.0347826 37.1864407,28.4728261 37.1864407,29.0793478 C37.1864407,29.6521739 36.779661,30.123913 36.2033898,30.123913 C35.5932203,30.0902174 35.220339,29.6521739 35.220339,29.0793478 L35.220339,29.0793478 Z M11.4237288,29.0793478 L11.4237288,27.4619565 L10.7118644,27.4619565 L10.7118644,27.8663043 C10.4745763,27.5630435 10.1355932,27.3945652 9.69491525,27.3945652 C8.77966102,27.3945652 8.06779661,28.1021739 8.06779661,29.0793478 C8.06779661,30.0565217 8.77966102,30.7641304 9.69491525,30.7641304 C10.1694915,30.7641304 10.5084746,30.5956522 10.7118644,30.2923913 L10.7118644,30.6967391 L11.4237288,30.6967391 L11.4237288,29.0793478 Z M8.77966102,29.0793478 C8.77966102,28.5065217 9.15254237,28.0347826 9.76271186,28.0347826 C10.3389831,28.0347826 10.7457627,28.4728261 10.7457627,29.0793478 C10.7457627,29.6521739 10.3389831,30.123913 9.76271186,30.123913 C9.15254237,30.0902174 8.77966102,29.6521739 8.77966102,29.0793478 Z" id="XMLID_1775_" fill="#000000"></path>
                    <g id="XMLID_328_">
                        <rect id="Rectangle-path" fill="#FF5F00" x="14.6440678" y="2.89782609" width="10.6779661" height="19.0717391"></rect>
                        <path d="M15.3220339,12.4336957 C15.3220339,8.55869565 17.1525424,5.12173913 19.9661017,2.89782609 C17.8983051,1.28043478 15.2881356,0.30326087 12.440678,0.30326087 C5.69491525,0.30326087 0.237288136,5.72826087 0.237288136,12.4336957 C0.237288136,19.1391304 5.69491525,24.5641304 12.440678,24.5641304 C15.2881356,24.5641304 17.8983051,23.5869565 19.9661017,21.9695652 C17.1525424,19.7793478 15.3220339,16.3086957 15.3220339,12.4336957 Z" id="XMLID_330_" fill="#EB001B"></path>
                        <path d="M39.7288136,12.4336957 C39.7288136,19.1391304 34.2711864,24.5641304 27.5254237,24.5641304 C24.6779661,24.5641304 22.0677966,23.5869565 20,21.9695652 C22.8474576,19.7456522 24.6440678,16.3086957 24.6440678,12.4336957 C24.6440678,8.55869565 22.8135593,5.12173913 20,2.89782609 C22.0677966,1.28043478 24.6779661,0.30326087 27.5254237,0.30326087 C34.2711864,0.30326087 39.7288136,5.76195652 39.7288136,12.4336957 Z" id="Shape" fill="#F79E1B"></path>
                    </g>
                </g>
            </g>
        </g>
    </g>
</svg>