<?xml version="1.0" encoding="UTF-8"?>
<svg width="41px" height="24px" viewBox="0 0 41 24" version="1.1" xmlns="http://www.w3.org/2000/svg" xmlns:xlink="http://www.w3.org/1999/xlink">
    <!-- Generator: Sketch 43.2 (39069) - http://www.bohemiancoding.com/sketch -->
    <title>MasterCard-light</title>
    <desc>Created with Sketch.</desc>
    <defs>
        <rect id="path-1" x="0" y="0" width="40" height="24" rx="4"></rect>
    </defs>
    <g id="Page-5---Checkout" stroke="none" stroke-width="1" fill="none" fill-rule="evenodd">
        <g id="Payment-Details-|-Desktop" transform="translate(-160.000000, -1740.000000)">
            <g id="MasterCard-light" transform="translate(160.181818, 1740.000000)">
                <g id="Rectangle">
                    <use fill="#FFFFFF" fill-rule="evenodd" xlink:href="#path-1"></use>
                    <rect stroke="#CCCCCC" stroke-width="0.5" x="0.25" y="0.25" width="39.5" height="23.5" rx="4"></rect>
                </g>
                <path d="M22.4514484,12.1941609 C22.4514484,16.5054631 18.9567881,20 14.6456092,20 C10.334307,20 6.8394,16.5054631 6.8394,12.1941609 C6.8394,7.88298197 10.334307,4.388075 14.6456092,4.388075 C18.9567881,4.388075 22.4514484,7.88298197 22.4514484,12.1941609" id="Fill-333" fill="#CC0000"></path>
                <path d="M25.1256425,4.388075 C23.108216,4.388075 21.2706482,5.15327594 19.8850707,6.40858544 C19.6031935,6.6644337 19.3400671,6.94075969 19.0971716,7.23497286 L20.6743268,7.23497286 C20.8897131,7.49723583 21.088199,7.77294502 21.2694146,8.06173035 L18.5019605,8.06173035 C18.3364116,8.32707732 18.1859126,8.60278651 18.0521906,8.88848784 L21.7189378,8.88848784 C21.8442713,9.15605529 21.954555,9.43164112 22.0495421,9.71487526 L17.7215863,9.71487526 C17.6315336,9.98404638 17.5555439,10.2598789 17.4948509,10.5411393 L22.2760307,10.5411393 C22.3905086,11.0740537 22.4514484,11.6269524 22.4514484,12.1941609 C22.4514484,13.0607636 22.3102014,13.8949227 22.0495421,14.6739399 L17.7215863,14.6739399 C17.8165733,14.9569273 17.926857,15.2328832 18.0519438,15.5008208 L21.7189378,15.5008208 C21.584969,15.7857819 21.4352102,16.0617378 21.2686744,16.3274549 L18.5019605,16.3274549 C18.6824359,16.6153767 18.8812919,16.891456 19.0971716,17.1533489 L20.6738334,17.1533489 C20.4314314,17.4478087 20.1680581,17.7241347 19.8853174,17.979983 C21.2707716,19.2352925 23.108216,20 25.1256425,20 C29.436698,20 32.9314816,16.5054631 32.9314816,12.1941609 C32.9314816,7.88335205 29.436698,4.388075 25.1256425,4.388075" id="Fill-334" fill="#FF9900"></path>
                <path d="M12.8227212,13.0487977 C12.7337788,13.0386822 12.6945504,13.0354748 12.6334872,13.0354748 C12.1531241,13.0354748 11.9102286,13.2002835 11.9102286,13.5258301 C11.9102286,13.7262898 12.0287774,13.8537205 12.2138171,13.8537205 C12.5591013,13.8537205 12.807918,13.5250899 12.8227212,13.0487977 L12.8227212,13.0487977 Z M13.4391502,14.4835957 L12.7367394,14.4835957 L12.7528995,14.1499074 C12.5387469,14.413404 12.2529222,14.539231 11.8647089,14.539231 C11.4055636,14.539231 11.090626,14.1807474 11.090626,13.6597988 C11.090626,12.8756005 11.6382202,12.4183056 12.5783454,12.4183056 C12.6746894,12.4183056 12.7978025,12.4271876 12.9238763,12.443101 C12.9500285,12.3367648 12.9569367,12.2916151 12.9569367,12.2342528 C12.9569367,12.021087 12.8093983,11.9411499 12.4135367,11.9411499 C11.9989243,11.9369556 11.6569709,12.0402078 11.5164641,12.0863444 C11.525346,12.0328062 11.634026,11.3620989 11.634026,11.3620989 C12.0561633,11.2379989 12.3347098,11.1916156 12.6481671,11.1916156 C13.37599,11.1916156 13.7614894,11.5182724 13.7606259,12.1358117 C13.7621062,12.3014839 13.734597,12.505151 13.6920378,12.7738286 C13.6185154,13.2401287 13.4606148,14.2402068 13.4391502,14.4835957 L13.4391502,14.4835957 Z" id="Fill-336" fill="#000066"></path>
                <polyline id="Fill-337" fill="#000066" points="10.7359665 14.4835957 9.88836124 14.4835957 10.3741522 11.4400623 9.28994276 14.4835957 8.71249546 14.4835957 8.64107013 11.457086 8.13085392 14.4835957 7.3376503 14.4835957 8.00021588 10.5241157 9.21888751 10.5241157 9.29253332 12.7403981 10.0360229 10.5241157 11.3913772 10.5241157 10.7359665 14.4835957"></polyline>
                <path d="M26.1727206,13.0487977 C26.0837782,13.0386822 26.0450432,13.0354748 25.9841034,13.0354748 C25.5033702,13.0354748 25.2607215,13.2002835 25.2607215,13.5258301 C25.2607215,13.7262898 25.3787768,13.8537205 25.56431,13.8537205 C25.9093474,13.8537205 26.1582875,13.5250899 26.1727206,13.0487977 L26.1727206,13.0487977 Z M26.7895197,14.4835957 L26.0873556,14.4835957 L26.103269,14.1499074 C25.8891164,14.413404 25.603415,14.539231 25.2154484,14.539231 C24.7556864,14.539231 24.4411188,14.1807474 24.4411188,13.6597988 C24.4411188,12.8756005 24.9889598,12.4183056 25.9288382,12.4183056 C26.0250589,12.4183056 26.1479253,12.4271876 26.2741224,12.443101 C26.300398,12.3367648 26.3071828,12.2916151 26.3071828,12.2342528 C26.3071828,12.021087 26.1596445,11.9411499 25.7637828,11.9411499 C25.3491705,11.9369556 25.0073404,12.0402078 24.8663401,12.0863444 C24.8757155,12.0328062 24.9846422,11.3620989 24.9846422,11.3620989 C25.4065328,11.2379989 25.685326,11.1916156 25.9982898,11.1916156 C26.7266062,11.1916156 27.1116122,11.5182724 27.110872,12.1358117 C27.1123523,12.3014839 27.0850898,12.505151 27.042284,12.7738286 C26.9690082,13.2401287 26.8107376,14.2402068 26.7895197,14.4835957 L26.7895197,14.4835957 Z" id="Fill-338" fill="#000066"></path>
                <path d="M17.2053254,14.4346219 C16.9732856,14.5076509 16.7925635,14.539231 16.5964214,14.539231 C16.163305,14.539231 15.9268243,14.2902909 15.9268243,13.8317624 C15.9207796,13.6894052 15.989121,13.3150082 16.0429059,12.9735482 C16.0920031,12.6726736 16.4105181,10.7761398 16.4105181,10.7761398 L17.2526956,10.7761398 L17.1543778,11.2635344 L17.6632371,11.2635344 L17.5483891,12.0374939 L17.0378028,12.0374939 C16.9399785,12.6497287 16.8004585,13.4125858 16.7988548,13.5137408 C16.7988548,13.6797831 16.8874272,13.7523187 17.0891205,13.7523187 C17.1857112,13.7523187 17.2604673,13.7424499 17.3175829,13.7219722 L17.2053254,14.4346219" id="Fill-339" fill="#000066"></path>
                <path d="M19.7879866,14.4085929 C19.4985844,14.4970419 19.2196679,14.5402179 18.9237277,14.539231 C17.9806419,14.5379974 17.489053,14.0457917 17.489053,13.1027059 C17.489053,12.0020896 18.1143639,11.1916156 18.9634495,11.1916156 C19.6578419,11.1916156 20.1015672,11.645333 20.1015672,12.3566257 C20.1015672,12.5931065 20.0712207,12.8235426 19.9975749,13.1487191 L18.3201281,13.1487191 C18.2635059,13.6158828 18.5622834,13.8104212 19.0526387,13.8104212 C19.35376,13.8104212 19.6258918,13.7482478 19.9282467,13.6079877 L19.7879866,14.4085929 L19.7879866,14.4085929 Z M19.3145316,12.4997231 C19.3193426,12.432492 19.4037207,11.9248664 18.9222474,11.9248664 C18.6543098,11.9248664 18.4622386,12.129397 18.3843986,12.4997231 L19.3145316,12.4997231 L19.3145316,12.4997231 Z" id="Fill-340" fill="#000066"></path>
                <path d="M13.9473927,12.281623 C13.9473927,12.688587 14.1447684,12.9694773 14.5925645,13.180546 C14.9356281,13.342024 14.989043,13.3897642 14.989043,13.5359456 C14.989043,13.7364053 14.8375571,13.8274448 14.5023885,13.8274448 C14.2493775,13.8274448 14.0142537,13.787723 13.7429854,13.7000141 C13.7429854,13.7000141 13.6318382,14.4100733 13.6265338,14.4439972 C13.8190984,14.4856928 13.9908153,14.5245512 14.5084331,14.539231 C15.4025451,14.539231 15.8155537,14.1987579 15.8155537,13.4629166 C15.8155537,13.0205483 15.64285,12.7608759 15.2182455,12.5654739 C14.8630926,12.4025156 14.8220138,12.3660011 14.8220138,12.2157488 C14.8220138,12.0416881 14.963014,11.9527457 15.2367495,11.9527457 C15.4031619,11.9527457 15.6302673,11.9705095 15.8457769,12.0009794 L15.9662994,11.2541591 C15.7469657,11.2192482 15.4141409,11.1916156 15.220466,11.1916156 C14.2725691,11.1916156 13.9443087,11.6866586 13.9473927,12.281623" id="Fill-341" fill="#000066"></path>
                <path d="M23.9095614,11.2766105 C24.1449319,11.2766105 24.3647591,11.337797 24.6668673,11.4903931 L24.8056471,10.6310686 C24.6810537,10.5822181 24.2442366,10.2959 23.8741571,10.2959 C23.3071954,10.2959 22.8273257,10.5776538 22.4904301,11.0416101 C21.9984711,10.8787751 21.7960377,11.2078991 21.5483311,11.5360362 L21.3281339,11.5873539 C21.3447874,11.4794141 21.3599607,11.3722144 21.3551497,11.2635344 L20.5765025,11.2635344 C20.4704131,12.2604051 20.2820426,13.2697351 20.1346276,14.2669759 L20.096016,14.4835957 L20.943868,14.4835957 C21.0853617,13.5640716 21.1627084,12.9755219 21.2098318,12.576823 L21.529087,12.399925 C21.577074,12.2221635 21.7259693,12.1624574 22.0254869,12.1697356 C21.9863819,12.379694 21.965164,12.6008782 21.965164,12.8297106 C21.965164,13.8833268 22.5343462,14.539231 23.4462219,14.539231 C23.6812224,14.539231 23.883039,14.508391 24.1955095,14.4232728 L24.3440347,13.5210191 C24.063021,13.6590587 23.832955,13.7240693 23.6243535,13.7240693 C23.1316544,13.7240693 22.8334937,13.3602812 22.8334937,12.7593955 C22.8334937,11.887365 23.2766022,11.2766105 23.9095614,11.2766105" id="Fill-342" fill="#000066"></path>
                <path d="M31.0844151,10.5241157 L30.8960446,11.6680312 C30.664745,11.3632091 30.4158049,11.1423951 30.0871743,11.1423951 C29.6596092,11.1423951 29.270409,11.4665847 29.0155476,11.9439872 C28.6606414,11.8703413 28.2938927,11.7451311 28.2938927,11.7451311 L28.2936459,11.7482151 C28.3218953,11.4813878 28.3338612,11.3190463 28.331024,11.2635344 L27.5525002,11.2635344 C27.4467808,12.2604051 27.2581636,13.2697351 27.110872,14.2669759 L27.0718903,14.4835957 L27.919989,14.4835957 C28.034467,13.7404762 28.1219291,13.1226902 28.1864463,12.6334452 C28.4763418,12.3714289 28.621413,12.1435833 28.9136524,12.1583865 C28.7840012,12.4719672 28.7083816,12.832918 28.7083816,13.2032442 C28.7083816,14.0079202 29.1152223,14.539231 29.731528,14.539231 C30.042148,14.539231 30.2804791,14.4320313 30.512889,14.1838313 L30.4729205,14.483349 L31.2747593,14.483349 L31.9203012,10.5241157 L31.0844151,10.5241157 L31.0844151,10.5241157 Z M30.0246309,13.739736 C29.7362156,13.739736 29.5901576,13.5258301 29.5901576,13.1049264 C29.5901576,12.4719672 29.8631529,12.0233075 30.2474187,12.0233075 C30.5386712,12.0233075 30.6965718,12.2448617 30.6965718,12.6539229 C30.6965718,13.29231 30.4190122,13.739736 30.0246309,13.739736 L30.0246309,13.739736 Z" id="Fill-343" fill="#000066"></path>
                <polyline id="Fill-344" fill="#FFFFFF" points="10.9797255 14.2485953 10.132367 14.2485953 10.6180346 11.2050618 9.53407184 14.2485953 8.95637782 14.2485953 8.88507585 11.2227023 8.37473628 14.2485953 7.58153266 14.2485953 8.24409824 10.2894853 9.46276987 10.2894853 9.49681718 12.7403981 10.3191337 10.2894853 11.6352596 10.2894853 10.9797255 14.2485953"></polyline>
                <path d="M13.0666036,12.8142907 C12.9777845,12.8039284 12.9385561,12.8010912 12.877493,12.8010912 C12.3971298,12.8010912 12.154111,12.9656532 12.154111,13.290953 C12.154111,13.491166 12.2727831,13.6193368 12.4579462,13.6193368 C12.803107,13.6193368 13.0519237,13.2907063 13.0666036,12.8142907 L13.0666036,12.8142907 Z M13.6829092,14.2485953 L12.9808685,14.2485953 L12.9969053,13.9151537 C12.7827526,14.1785269 12.4969279,14.3044772 12.1087146,14.3044772 C11.649446,14.3044772 11.3346317,13.9455002 11.3346317,13.424675 C11.3346317,12.6403533 11.8823493,12.1836753 12.8224745,12.1836753 C12.9185718,12.1836753 13.0416849,12.1924338 13.167882,12.2087173 C13.1940343,12.1021344 13.2009424,12.0568614 13.2009424,11.9992523 C13.2009424,11.7862099 13.0534041,11.7068896 12.6575424,11.7068896 C12.2428067,11.7019552 11.9009767,11.8052074 11.7603465,11.8512206 C11.7693517,11.7979291 11.8779084,11.1272218 11.8779084,11.1272218 C12.300169,11.0033685 12.5787155,10.9566152 12.8921728,10.9566152 C13.6198723,10.9566152 14.0052484,11.2836421 14.0046316,11.9009346 C14.0059886,12.0663601 13.978726,12.271014 13.9360436,12.5389515 C13.8623977,13.0048816 13.7044972,14.0055764 13.6829092,14.2485953 L13.6829092,14.2485953 Z" id="Fill-345" fill="#FFFFFF"></path>
                <path d="M25.0494061,10.3960682 L24.9106263,11.2552693 C24.6080247,11.1031666 24.3888143,11.0416101 24.1536905,11.0416101 C23.520978,11.0416101 23.0771294,11.6531047 23.0771294,12.5252586 C23.0771294,13.1261443 23.3754134,13.4891922 23.8681125,13.4891922 C24.0768373,13.4891922 24.3073968,13.424675 24.5877937,13.286142 L24.4388984,14.1883957 C24.1269214,14.2733906 23.9249814,14.3044772 23.6901043,14.3044772 C22.7776117,14.3044772 22.209293,13.6484497 22.209293,12.5950803 C22.209293,11.1796497 22.9949717,10.1904274 24.1180395,10.1904274 C24.4881189,10.1904274 24.9251828,10.3472177 25.0494061,10.3960682" id="Fill-346" fill="#FFFFFF"></path>
                <path d="M26.4164796,12.8142907 C26.328154,12.8039284 26.2888022,12.8010912 26.2278624,12.8010912 C25.747746,12.8010912 25.5046038,12.9656532 25.5046038,13.290953 C25.5046038,13.491166 25.6231526,13.6193368 25.8081923,13.6193368 C26.1532297,13.6193368 26.4022932,13.2907063 26.4164796,12.8142907 L26.4164796,12.8142907 Z M27.0332787,14.2485953 L26.331238,14.2485953 L26.3471514,13.9151537 C26.1329987,14.1785269 25.847174,14.3044772 25.4593308,14.3044772 C24.9995687,14.3044772 24.6851246,13.9455002 24.6851246,13.424675 C24.6851246,12.6403533 25.2323487,12.1836753 26.1727206,12.1836753 C26.2688179,12.1836753 26.3916843,12.1924338 26.517758,12.2087173 C26.5440336,12.1021344 26.5509418,12.0568614 26.5509418,11.9992523 C26.5509418,11.7862099 26.4037735,11.7068896 26.0076652,11.7068896 C25.5932995,11.7019552 25.2515928,11.8052074 25.1107159,11.8512206 C25.1195978,11.7979291 25.2282778,11.1272218 25.2282778,11.1272218 C25.6505385,11.0033685 25.9288382,10.9566152 26.2422955,10.9566152 C26.9699951,10.9566152 27.3557412,11.2836421 27.3547544,11.9009346 C27.3564814,12.0663601 27.3289722,12.271014 27.2862897,12.5389515 C27.2128906,13.0048816 27.05499,14.0055764 27.0332787,14.2485953 L27.0332787,14.2485953 Z" id="Fill-347" fill="#FFFFFF"></path>
                <path d="M17.4490844,14.1997448 C17.2172913,14.2727738 17.0363225,14.3044772 16.8404271,14.3044772 C16.4071874,14.3044772 16.1705833,14.0554138 16.1705833,13.5973788 C16.164662,13.4545281 16.2331267,13.0807479 16.2870349,12.7389178 C16.3357621,12.4377965 16.6544005,10.5415094 16.6544005,10.5415094 L17.4968247,10.5415094 L17.3982602,11.0287807 L17.8307597,11.0287807 L17.7155416,11.8024934 L17.2816851,11.8024934 C17.1838608,12.415345 17.0443409,13.1777087 17.0426138,13.2788637 C17.0426138,13.4453995 17.1315563,13.5174416 17.3330028,13.5174416 C17.4295936,13.5174416 17.5042263,13.5079429 17.5615886,13.4869717 L17.4490844,14.1997448" id="Fill-348" fill="#FFFFFF"></path>
                <path d="M20.032239,14.1742093 C19.7427135,14.262905 19.4631802,14.304724 19.16761,14.3044772 C18.2244009,14.3038604 17.7331821,13.811038 17.7331821,12.8680755 C17.7331821,11.7670892 18.3583696,10.9566152 19.2068385,10.9566152 C19.901971,10.9566152 20.3454496,11.4103326 20.3454496,12.1224888 C20.3454496,12.3584761 20.3146096,12.5887889 20.2418273,12.9140888 L18.5641338,12.9140888 C18.5072649,13.3812524 18.8064125,13.5761609 19.2962743,13.5761609 C19.5976424,13.5761609 19.8696508,13.5137408 20.1723757,13.3731106 L20.032239,14.1742093 L20.032239,14.1742093 Z M19.5586607,12.2647227 C19.563225,12.1973682 19.6479732,11.6899893 19.1666232,11.6899893 C18.8984389,11.6899893 18.7063677,11.8948899 18.6282809,12.2647227 L19.5586607,12.2647227 L19.5586607,12.2647227 Z" id="Fill-349" fill="#FFFFFF"></path>
                <path d="M14.1911517,12.0466225 C14.1911517,12.4543267 14.3887741,12.7346002 14.8366936,12.9459156 C15.1797572,13.1072702 15.2329253,13.1550105 15.2329253,13.3013152 C15.2329253,13.5020216 15.0815628,13.5925677 14.7461475,13.5925677 C14.4933832,13.5925677 14.258136,13.5533393 13.9867444,13.4658772 C13.9867444,13.4658772 13.8757206,14.1754429 13.8705395,14.2088734 C14.0629808,14.2510624 14.234821,14.2895507 14.7521921,14.3044772 C15.6465508,14.3044772 16.0595594,13.9641275 16.0595594,13.2282862 C16.0595594,12.7856712 15.886609,12.5261221 15.4621278,12.3312136 C15.1068516,12.1677619 15.0660195,12.1316174 15.0660195,11.9811185 C15.0660195,11.8070578 15.2068964,11.7174985 15.4808785,11.7174985 C15.6469209,11.7174985 15.874273,11.7360025 16.0896592,11.766349 L16.2103051,11.019652 C15.990848,10.9849879 15.65827,10.9566152 15.4644717,10.9566152 C14.5163281,10.9566152 14.1883144,11.4517815 14.1911517,12.0466225" id="Fill-350" fill="#FFFFFF"></path>
                <path d="M31.5186416,14.2485953 L30.7170495,14.2485953 L30.7567714,13.9489543 C30.5242381,14.1972776 30.2860303,14.3044772 29.9754103,14.3044772 C29.3595981,14.3044772 28.9521406,13.7737833 28.9521406,12.9682437 C28.9521406,11.8972338 29.5838663,10.9944866 30.3310567,10.9944866 C30.6596872,10.9944866 30.908504,11.1287021 31.1402971,11.4336476 L31.3282974,10.2894853 L32.1640602,10.2894853 L31.5186416,14.2485953 L31.5186416,14.2485953 Z M30.2683899,13.5046122 C30.6632647,13.5046122 30.9403308,13.0574329 30.9403308,12.4196626 C30.9403308,12.0104781 30.7825536,11.7881837 30.4913011,11.7881837 C30.1069119,11.7881837 29.83404,12.2369667 29.83404,12.8701727 C29.83404,13.2915698 29.9802214,13.5046122 30.2683899,13.5046122 L30.2683899,13.5046122 Z" id="Fill-351" fill="#FFFFFF"></path>
                <path d="M27.7966292,11.0287807 C27.6906631,12.0254046 27.5021693,13.0347347 27.3547544,14.0320988 L27.3161427,14.2485953 L28.163748,14.2485953 C28.4669665,12.2795259 28.5398721,11.89526 29.0155476,11.943247 C29.0911672,11.5402305 29.2321674,11.187298 29.3371466,11.0094132 C28.9822404,10.9353973 28.7840012,11.1359803 28.5242054,11.5171622 C28.5449299,11.3522301 28.5823079,11.1922324 28.5752764,11.0287807 L27.7966292,11.0287807" id="Fill-352" fill="#FFFFFF"></path>
                <path d="M20.8207549,11.0287807 C20.7142954,12.0254046 20.5255549,13.0347347 20.3783866,14.0320988 L20.3398984,14.2485953 L21.1877504,14.2485953 C21.4910922,12.2795259 21.5637511,11.89526 22.0386864,11.943247 C22.1147994,11.5402305 22.2560464,11.187298 22.3607789,11.0094132 C22.0062428,10.9353973 21.8076335,11.1359803 21.5483311,11.5171622 C21.5688089,11.3522301 21.6064336,11.1922324 21.599032,11.0287807 L20.8207549,11.0287807" id="Fill-353" fill="#FFFFFF"></path>
            </g>
        </g>
    </g>
</svg>