<?xml version="1.0" encoding="UTF-8"?>
<svg width="1038px" height="186px" viewBox="0 0 1038 186" version="1.1" xmlns="http://www.w3.org/2000/svg" xmlns:xlink="http://www.w3.org/1999/xlink">
    <!-- Generator: Sketch 47 (45396) - http://www.bohemiancoding.com/sketch -->
    <title>Policygenius / Black</title>
    <desc>Created with Sketch.</desc>
    <defs></defs>
    <g id="PG-Logos" stroke="none" stroke-width="1" fill="none" fill-rule="evenodd">
        <g id="Policygenius-/-Black" fill-rule="nonzero" fill="#2B2727">
            <g id="PG.Logo.RGB.Black">
                <path d="M264,19.1 C264,11.7 269.9,5.5 277.4,5.5 C285,5.5 291,11.7 291,19.1 C291,26.5 285.1,32.7 277.4,32.7 C269.9,32.7 264,26.5 264,19.1" id="Shape"></path>
                <path d="M0.1,0 L49.5,0 C79.2,0 101.2,22.8 101.2,51.4 C101.2,79.9 79.2,102.8 49.3,102.8 L27.5,102.8 L27.5,143.7 L0.1,143.7 L0.1,0 Z M27.5,25.4 L27.5,77.3 L47.6,77.3 C63.1,77.3 73.8,65.7 73.8,51.3 C73.8,36.9 63.2,25.3 47.6,25.3 L27.5,25.3 L27.5,25.4 Z" id="Shape"></path>
                <path d="M103.2,94.5 C103.2,66.2 125.8,43.3 154.2,43.3 C182.5,43.3 205.2,66.1 205.2,94.5 C205.2,122.8 182.6,145.7 154.2,145.7 C125.9,145.6 103.2,122.8 103.2,94.5 M179,94.5 C179,80.5 168,68.9 154.2,68.9 C140.2,68.9 129.6,80.5 129.6,94.5 C129.6,108.5 140.2,120.1 154.2,120.1 C168,120.1 179,108.4 179,94.5" id="Shape"></path>
                <rect id="Rectangle-path" x="217.7" y="0" width="27" height="143.6"></rect>
                <rect id="Rectangle-path" x="262.6" y="45.3" width="27" height="98.4"></rect>
                <path d="M302.1,94.5 C302.1,66.2 324.7,43.3 353.1,43.3 C375.5,43.3 392.8,56.1 400.5,74.4 L376.5,84.6 C372.8,75.4 363.7,68.9 353.3,68.9 C339.1,68.9 328.1,80.3 328.1,94.5 C328.1,108.7 339.1,120.1 353.3,120.1 C363.7,120.1 372.8,113.6 376.5,104.4 L400.5,114.6 C392.8,132.9 375.5,145.7 353.1,145.7 C324.7,145.6 302.1,122.8 302.1,94.5" id="Shape"></path>
                <polygon id="Shape" points="423.5 182.1 450.5 182.1 504.7 45.3 476.8 45.3 454.1 105.9 429.9 45.3 401.6 45.3 440.8 139.3"></polygon>
                <path d="M785.9,128.8 L785.9,73.5 C785.9,52.8 777.4,42.8 760,42.8 C747.7,42.8 736.8,48.3 725.8,60.2 L726.5,42.8 L723.9,42.8 L695.7,52.3 L695.7,54.8 L708,61.4 L708,128.8 C708,136.1 704.9,137.4 694.9,137.9 L694.9,143.4 L738.8,143.4 L738.8,138 C728.8,137.5 725.7,136.1 725.7,128.9 L725.7,65.8 C731.7,60.6 741.1,54.5 751.6,54.5 C762.9,54.5 768.2,60.7 768.2,74 L768.2,128.9 C768.2,136.2 765.2,137.5 755.1,138 L755.1,143.5 L799,143.5 L799,138 C789,137.5 785.9,136.1 785.9,128.8" id="Shape"></path>
                <path d="M827.6,34 C834.5,34 840.1,28.4 840.1,21.6 C840.1,14.8 834.5,9.2 827.6,9.2 C820.8,9.2 815.3,14.8 815.3,21.6 C815.4,28.5 820.9,34 827.6,34 Z" id="Shape"></path>
                <path d="M837.4,128.8 L837.4,42.8 L834.8,42.8 L807.3,52.3 L807.3,54.8 L819.6,61.4 L819.6,128.8 C819.6,136.1 816.6,137.4 806.5,137.9 L806.5,143.4 L850.4,143.4 L850.4,138 C840.5,137.5 837.4,136.1 837.4,128.8" id="Shape"></path>
                <path d="M944,124.8 L944,63.3 L944.8,43.2 L942.3,43.2 L913.2,48.5 L913.2,53.4 C925.5,54.7 926.5,56.3 926.5,63.3 L926.5,123 C919.6,128.4 912.1,133.6 902.1,133.6 C891.1,133.6 885.5,126.4 885.5,112.2 L885.5,64.1 L886.5,43.2 L884,43.2 L854.5,48.5 L854.5,53.4 C866.1,54.7 868,55.8 868,63.3 L868,115.6 C868,135.3 876.9,145.4 894.3,145.4 C907.6,145.4 917.9,136.6 926.4,128.1 L925.7,145.4 L928.9,145.4 L957.8,138.4 L957.8,133.9 L952.6,133.3 C944.2,132.3 944,131.1 944,124.8" id="Shape"></path>
                <path d="M572,124.5 L535,124.5 C530.1,124.5 527.7,122.2 527.7,117.6 C527.7,114 530.2,109.5 534.9,104.7 C540,106.6 546,107.5 552.2,107.5 C574.8,107.5 589.5,94.9 589.5,75.4 C589.5,65.9 583.8,57.7 578.1,53.7 L591.7,54.4 L599.2,54.4 L599.2,44.6 L568.3,45.4 C563.2,43.7 558.5,42.6 552.3,42.6 C529.7,42.6 514.5,56.2 514.5,76.3 C514.5,88.2 520.3,97.6 530.9,103 C523,108.6 514.7,115.4 514.7,125.2 C514.7,132.7 518.3,138.1 525.1,140.9 C513.5,145.8 507.6,152.6 507.6,161.1 C507.6,176.3 523.2,185.4 549.4,185.4 C564,185.4 577.4,182 587,175.8 C597.4,169.1 602.9,159.8 602.9,148.7 C602.8,133.1 591.8,124.5 572,124.5 M553.2,101.9 C541.4,101.9 533.8,90.7 533.8,73.3 C533.8,61.2 538.5,48.3 551.5,48.3 C565.7,48.3 570.7,63.7 570.7,76.9 C570.7,89 566.1,101.9 553.2,101.9 M528.3,142.1 L570,142.1 C582.4,142.1 588.2,146.4 588.2,155.7 C588.2,172.7 568.2,178.8 551.1,178.8 C533.6,178.8 523.1,170.4 523.1,156.5 C523.2,150.5 524.8,145.8 528.3,142.1" id="Shape"></path>
                <path d="M684.5,114.6 C677,126.1 668.4,131.2 656.1,131.2 C647.7,131.2 640.2,128.1 634.5,122.1 C626.5,113.8 622.5,100.6 623.1,84.7 L686,84.7 L686,80.4 C686,69.4 682.8,60.1 676.7,53.3 C670.3,46.2 660.9,42.4 649.5,42.4 C637.4,42.4 626.3,47.9 618.3,57.8 C610.3,67.7 605.8,81.5 605.8,96.6 C605.8,110.1 609.8,122.3 617.2,131 C625,140.3 636,145.2 649,145.2 C668,145.2 682.3,134.1 687.2,115.9 L684.5,114.6 Z M623.8,78.5 C625.8,60.5 635,49.3 648,49.3 C665.1,49.3 667.8,67.4 667.8,78.5 L623.8,78.5 Z" id="Shape"></path>
                <path d="M1007,84.1 C990.1,77.9 984.6,72.9 984.6,63.7 C984.6,54.4 990.9,48.7 1000.9,48.7 C1009.3,48.7 1020.6,53.1 1025.8,74 L1031.2,74 L1031.2,50.7 C1022.7,45.3 1012.9,42.6 1001.7,42.6 C982.1,42.6 969.5,53.4 969.5,70 C969.5,86.6 979.6,93.7 998.3,100.8 C1014.5,107 1021.8,111.6 1021.8,122.3 C1021.8,132.7 1014.4,139.2 1002.4,139.2 C989.4,139.2 979.2,128.5 974,109.4 L968,109.4 L969.2,135.9 C976.8,141.7 989.1,145.3 1001.8,145.3 C1023.7,145.3 1037.2,133.9 1037.2,115.5 C1037.3,98.6 1025.7,91 1007,84.1" id="Shape"></path>
            </g>
        </g>
    </g>
</svg>