<?xml version="1.0" encoding="UTF-8"?>
<svg width="100px" height="100px" viewBox="0 0 100 100" version="1.1" xmlns="http://www.w3.org/2000/svg" xmlns:xlink="http://www.w3.org/1999/xlink">
    <!-- Generator: Sketch 47 (45396) - http://www.bohemiancoding.com/sketch -->
    <title>2x/PG Symbol Centered</title>
    <desc>Created with Sketch.</desc>
    <defs></defs>
    <g id="Products" stroke="none" stroke-width="1" fill="none" fill-rule="evenodd">
        <g id="2x/PG-Symbol-Centered" fill-rule="nonzero">
            <g id="PG.Symbol.RGB.OrangeBlack" transform="translate(13.000000, 11.000000)">
                <path d="M62.6154571,38.051849 C62.1693632,37.3860975 56.1470961,28.4916572 50.4659595,23.3653705 C46.844727,20.089873 42.1082598,18.5186994 37.1487457,18.9181503 C31.716897,19.3575463 26.5736972,22.1403877 23.0311871,26.5609778 C20.1184566,30.1959811 18.5702485,34.8029816 18.6620913,39.5564474 C18.7539342,44.2965983 20.4989484,48.8370236 23.5560034,52.3521916 C27.2297175,56.5730563 32.4516398,59.1428571 38.3558233,59.1428571 C43.6039863,59.1428571 48.6947045,56.9991372 52.3946595,53.1910386 C55.1893063,50.314992 56.8687185,46.3337979 57.5903409,44.3232283 L60.1881816,44.3232283 C61.5658244,44.3232283 62.6810591,43.6707918 63.2452366,42.5256992 C63.901257,41.2075112 63.6519693,39.4898723 62.6154571,38.051849 Z M56.3570226,40.8613204 C55.5960389,40.8613204 54.9268982,41.3672916 54.7169716,42.1129333 C54.7038512,42.1661934 53.1425227,47.4922055 49.9542636,50.767703 C46.7922454,54.0165704 42.3969088,55.8140995 37.896609,55.6809492 C33.3307071,55.5477989 29.1452971,53.5505444 26.1013625,50.0620064 C23.5822442,47.1593298 22.1521198,43.4044912 22.0602769,39.4765573 C21.9815545,35.5486233 23.254234,31.7405246 25.6552686,28.7446428 C28.6073603,25.0563793 32.8846132,22.726249 37.3980335,22.3667432 C41.8720925,22.0072374 45.5589271,23.578411 48.1698882,25.9484864 C52.5521044,29.9030504 57.9445919,37.3062073 59.8339306,40.0757336 C60.1750612,40.5683897 59.9520143,40.8613204 59.5977633,40.8613204 C58.2988429,40.8613204 56.3570226,40.8613204 56.3570226,40.8613204 Z" id="Shape" fill="#F26B23"></path>
                <path d="M39.044662,14.5714286 C38.1357535,14.5714286 37.3932649,13.7852492 37.3804633,12.8228571 L37.3164557,1.77568106 C37.3164557,0.799734219 38.0461428,0.0135548173 38.9678529,0 C38.9678529,0 38.9806544,0 38.9806544,0 C39.8895629,0 40.6320516,0.786179402 40.6448531,1.74857143 L40.7088608,12.7957475 C40.7088608,13.7716944 39.9791736,14.5714286 39.044662,14.5714286 C39.0574636,14.5714286 39.044662,14.5714286 39.044662,14.5714286 Z" id="Shape" fill="#2B2727"></path>
                <path d="M56.4879181,21.799853 C55.8124993,21.1228 55.7992558,20.0342049 56.4746746,19.3571519 L64.0499603,11.6573335 C64.7121356,10.9802805 65.8113466,10.9670049 66.4867654,11.6440579 C67.1621843,12.3211109 67.1754278,13.4097059 66.5000089,14.086759 L58.8585058,21.8396796 C58.3817395,22.3175994 57.242798,22.5565593 56.4879181,21.799853 Z" id="Shape" fill="#2B2727"></path>
                <path d="M39.1820994,38.5600583 C38.9747045,38.5600583 38.7534833,38.5184706 38.5460884,38.4491577 C37.5782456,38.1025935 37.0804979,37.0213132 37.4261561,36.0509333 C38.1727776,33.9992732 40.564732,32.5714286 43.2332128,32.5714286 C45.8602147,32.5714286 48.252169,33.9854106 49.0540959,35.9954831 C49.4412331,36.9520003 48.971138,38.0471432 48.0171215,38.4352952 C47.063105,38.8234471 45.9708253,38.3521198 45.5836882,37.3956025 C45.403946,36.9520003 44.4775821,36.3281847 43.2193865,36.3281847 C43.2193865,36.3281847 43.2193865,36.3281847 43.2193865,36.3281847 C41.9750172,36.3281847 41.076306,36.9242752 40.9242164,37.3401522 C40.6615163,38.088731 39.9563736,38.5600583 39.1820994,38.5600583 Z" id="Shape" fill="#2B2727"></path>
                <path d="M21.5532778,21.7767401 C20.8967194,22.4463769 19.8199637,22.4597696 19.1502742,21.7901328 L11.5341974,14.1294876 C10.8645079,13.4598508 10.8513768,12.3482536 11.5210663,11.6652241 C11.5210663,11.6652241 11.5210663,11.6652241 11.5341974,11.6518313 C12.1907558,10.9821945 13.2675115,10.9688018 13.937201,11.6384386 L21.5532778,19.2990838 C22.2098361,19.9821134 22.2229673,21.0937105 21.5532778,21.7767401 C21.5532778,21.7767401 21.5532778,21.7767401 21.5532778,21.7767401 Z" id="Shape" fill="#2B2727"></path>
                <path d="M14.4177215,39.3963104 C14.4177215,40.3148646 13.6398351,41.0652328 12.6875949,41.0781702 L1.75695025,41.1428571 C0.791298204,41.1428571 0.013411834,40.4054263 0,39.4739347 C0,39.4739347 0,39.4609973 0,39.4609973 C0,38.5424431 0.77788637,37.7920748 1.73012658,37.7791374 L12.6607713,37.7144505 C13.6130115,37.7015131 14.4043097,38.4518814 14.4177215,39.3963104 C14.4177215,39.383373 14.4177215,39.383373 14.4177215,39.3963104 Z" id="Shape" fill="#2B2727"></path>
                <path d="M21.5470276,56.2169431 C22.2096008,56.880501 22.2228522,57.968736 21.5602791,58.6455651 L13.9804424,66.3428367 C13.3178692,67.0196658 12.2179978,67.0329369 11.5421732,66.3561079 C11.5421732,66.3561079 11.5421732,66.3561079 11.5289217,66.3428367 C10.8663486,65.6792788 10.8530971,64.5910438 11.5156703,63.9142148 L19.095507,56.2169431 C19.7713316,55.5533852 20.871203,55.5401141 21.5470276,56.2169431 C21.5470276,56.2169431 21.5470276,56.2169431 21.5470276,56.2169431 Z" id="Shape" fill="#2B2727"></path>
                <path d="M38.9807375,63.4285714 C39.8896023,63.4285714 40.6320553,64.2147508 40.6448562,65.1771429 L40.7088608,76.2243189 C40.7088608,77.2002658 39.9792087,77.9864452 39.057543,78 C39.057543,78 39.044742,78 39.044742,78 C38.1358772,78 37.3934242,77.2138206 37.3806233,76.2514286 L37.3166188,65.2042525 C37.3038179,64.2283056 38.0462708,63.4285714 38.9807375,63.4285714 C38.9679366,63.4285714 38.9807375,63.4285714 38.9807375,63.4285714 Z" id="Shape" fill="#2B2727"></path>
                <path d="M56.4720387,57.0804028 C57.128597,56.410766 58.2053527,56.3973732 58.8750422,57.06701 L66.491119,64.7276553 C67.1608085,65.3972921 67.1739397,66.5088892 66.5042502,67.1919188 C66.5042502,67.1919188 66.5042502,67.1919188 66.491119,67.2053115 C65.8345607,67.8749483 64.757805,67.8883411 64.0881155,67.2187042 L56.4720387,59.558059 C55.8154803,58.8750295 55.8023492,57.7768251 56.4720387,57.0804028 C56.4720387,57.0804028 56.4720387,57.0804028 56.4720387,57.0804028 Z" id="Shape" fill="#2B2727"></path>
            </g>
        </g>
    </g>
</svg>