<?xml version="1.0" encoding="UTF-8"?>
<svg width="57px" height="65px" viewBox="0 0 57 65" version="1.1" xmlns="http://www.w3.org/2000/svg" xmlns:xlink="http://www.w3.org/1999/xlink">
    <!-- Generator: Sketch 47 (45396) - http://www.bohemiancoding.com/sketch -->
    <title>Group</title>
    <desc>Created with Sketch.</desc>
    <defs></defs>
    <g id="Global-Navigation-(Desktop)" stroke="none" stroke-width="1" fill="none" fill-rule="evenodd">
        <g id="Global-Nav-(Other-Products)-1280" transform="translate(-139.000000, -201.000000)">
            <g id="Group" transform="translate(117.000000, 183.000000)">
                <g id="PG-Symbol" transform="translate(22.000000, 18.000000)">
                    <g id="PG.Symbol.RGB.OrangeBlack">
                        <path d="M53.8391057,31.840716 C53.4568836,31.2890004 48.2968851,23.91808 43.4291741,19.6698699 C40.3264299,16.9554291 36.2681304,15.6533803 32.0187199,15.9844097 C27.3646036,16.348542 22.9578075,18.6547132 19.9225143,22.3181048 C17.4268287,25.3304719 16.1002932,29.1483439 16.178986,33.0875932 C16.2576788,37.0158083 17.7528417,40.7785087 20.3721874,43.691567 C23.5198989,47.1894439 27.9941459,49.3190661 33.052968,49.3190661 C37.5496987,49.3190661 41.9115275,47.5425419 45.0817226,44.3867287 C47.4762317,42.0033173 48.9151856,38.704058 49.533486,37.0378769 L51.7593677,37.0378769 C52.9397595,37.0378769 53.8953148,36.4971956 54.3787134,35.5482448 C54.9408047,34.4558479 54.72721,33.0324217 53.8391057,31.840716 Z M48.4767543,34.1689558 C47.8247284,34.1689558 47.2513952,34.5882597 47.071526,35.2061811 C47.0602841,35.2503184 45.7225067,39.6640432 42.9907428,42.3784839 C40.2814626,45.070856 36.5154506,46.5604882 32.659504,46.450145 C28.7473483,46.3398019 25.1612056,44.6846551 22.5531018,41.7936654 C20.394671,39.3881854 19.1693119,36.2765094 19.0906191,33.0213874 C19.0231681,29.7662653 20.1136253,26.6104521 22.1708796,24.1277319 C24.7002907,21.0712275 28.3651262,19.1402229 32.2323146,18.8422965 C36.0657775,18.5443701 39.2247309,19.8464189 41.4618544,21.8105264 C45.2166245,25.0877171 49.8370154,31.2227945 51.4558384,33.5179314 C51.7481259,33.926201 51.5570148,34.1689558 51.2534855,34.1689558 C50.1405447,34.1689558 48.4767543,34.1689558 48.4767543,34.1689558 Z" id="Shape" fill="#F26B23" fill-rule="nonzero"></path>
                        <path d="M33.4074452,11.8871595 C32.581948,11.8871595 31.9075982,11.2458058 31.8959714,10.4607004 L31.8378378,1.44857479 C31.8378378,0.652411546 32.5005609,0.0110578228 33.3376849,0 C33.3376849,0 33.3493116,0 33.3493116,0 C34.1748088,0 34.8491586,0.641353724 34.8607853,1.42645914 L34.9189189,10.4385847 C34.9189189,11.234748 34.2561958,11.8871595 33.4074452,11.8871595 C33.4190719,11.8871595 33.4074452,11.8871595 33.4074452,11.8871595 Z" id="Shape" fill="#2B2727" fill-rule="nonzero"></path>
                        <path d="M47.9302781,18.0549997 C47.3640303,17.4863981 47.3529274,16.572176 47.9191752,16.0035744 L54.2700322,9.53712506 C54.825177,8.96852348 55.7467174,8.95737443 56.3129652,9.52597601 C56.8792129,10.0945776 56.8903158,11.0087997 56.3240681,11.5774013 L49.9176966,18.0884469 C49.5179923,18.4898127 48.5631432,18.6904956 47.9302781,18.0549997 Z" id="Shape" fill="#2B2727" fill-rule="nonzero"></path>
                        <path d="M33.6276521,31.6056794 C33.4572293,31.6056794 33.2754449,31.5723715 33.1050221,31.5168583 C32.3097155,31.2392923 31.9007007,30.3732863 32.1847388,29.5961014 C32.798261,27.9529105 34.7638043,26.8093385 36.956578,26.8093385 C39.1152672,26.8093385 41.0808105,27.9418079 41.7397788,29.5516909 C42.0579014,30.3177731 41.6716096,31.1948817 40.8876646,31.5057557 C40.1037196,31.8166296 39.2061594,31.4391398 38.8880368,30.6730576 C38.740337,30.3177731 37.979115,29.8181542 36.9452165,29.8181542 C36.9452165,29.8181542 36.9452165,29.8181542 36.9452165,29.8181542 C35.9226795,29.8181542 35.1841806,30.2955678 35.0592038,30.628647 C34.8433349,31.2281897 34.2638973,31.6056794 33.6276521,31.6056794 Z" id="Shape" fill="#2B2727" fill-rule="nonzero"></path>
                        <path d="M18.5714523,17.7942234 C18.0057267,18.3413975 17.0779366,18.352341 16.5008965,17.8051669 L9.93847897,11.5454957 C9.36143881,10.9983216 9.3501243,10.0900127 9.92716446,9.53189516 C9.92716446,9.53189516 9.92716446,9.53189516 9.93847897,9.52095168 C10.5042046,8.97377763 11.4319947,8.96283415 12.0090348,9.5100082 L18.5714523,15.7696794 C19.137178,16.3277969 19.1484925,17.2361059 18.5714523,17.7942234 C18.5714523,17.7942234 18.5714523,17.7942234 18.5714523,17.7942234 Z" id="Shape" fill="#2B2727" fill-rule="nonzero"></path>
                        <path d="M12.0675676,32.5979012 C12.0675676,33.4110183 11.4164802,34.0752548 10.6194595,34.0867071 L1.4705594,34.1439689 C0.662313011,34.1439689 0.0112256442,33.4911847 0,32.6666153 C0,32.6666153 0,32.655163 0,32.655163 C0,31.8420459 0.651087366,31.1778094 1.44810811,31.1663571 L10.5970082,31.1090953 C11.3940289,31.097643 12.0563419,31.7618794 12.0675676,32.5979012 C12.0675676,32.5864489 12.0675676,32.5864489 12.0675676,32.5979012 Z" id="Shape" fill="#2B2727" fill-rule="nonzero"></path>
                        <path d="M18.321038,46.9591059 C18.8765164,47.5163741 18.887626,48.4302939 18.3321476,48.9987074 L11.9774751,55.4630178 C11.4219968,56.0314314 10.4999027,56.0425767 9.93331478,55.4741632 C9.93331478,55.4741632 9.93331478,55.4741632 9.92220521,55.4630178 C9.36672685,54.9057497 9.35561728,53.9918299 9.91109565,53.4234164 L16.2657681,46.9591059 C16.832356,46.4018378 17.7544501,46.3906924 18.321038,46.9591059 C18.321038,46.9591059 18.321038,46.9591059 18.321038,46.9591059 Z" id="Shape" fill="#2B2727" fill-rule="nonzero"></path>
                        <path d="M33.0926303,53.1128405 C33.9180878,53.1128405 34.5924052,53.7541942 34.6040314,54.5392996 L34.6621622,63.5514252 C34.6621622,64.3475885 33.9994709,64.9889422 33.1623872,65 C33.1623872,65 33.1507611,65 33.1507611,65 C32.3253036,65 31.6509862,64.3586463 31.63936,63.5735409 L31.5812292,54.5614153 C31.569603,53.765252 32.2439204,53.1128405 33.0926303,53.1128405 C33.0810041,53.1128405 33.0926303,53.1128405 33.0926303,53.1128405 Z" id="Shape" fill="#2B2727" fill-rule="nonzero"></path>
                        <path d="M47.9285477,47.2057766 C48.4942733,46.6586025 49.4220634,46.647659 49.9991035,47.1948331 L56.561521,53.4545043 C57.1385612,54.0016784 57.1498757,54.9099873 56.5728355,55.4681048 C56.5728355,55.4681048 56.5728355,55.4681048 56.561521,55.4790483 C55.9957954,56.0262224 55.0680053,56.0371659 54.4909652,55.4899918 L47.9285477,49.2303206 C47.362822,48.6722031 47.3515075,47.7748376 47.9285477,47.2057766 C47.9285477,47.2057766 47.9285477,47.2057766 47.9285477,47.2057766 Z" id="Shape" fill="#2B2727" fill-rule="nonzero"></path>
                    </g>
                </g>
            </g>
        </g>
    </g>
</svg>