<?xml version="1.0" encoding="UTF-8"?>
<svg width="255px" height="63px" viewBox="0 0 255 63" version="1.1" xmlns="http://www.w3.org/2000/svg" xmlns:xlink="http://www.w3.org/1999/xlink">
    <!-- Generator: Sketch 43.2 (39069) - http://www.bohemiancoding.com/sketch -->
    <title>Group 19</title>
    <desc>Created with Sketch.</desc>
    <defs>
        <path d="M239.9773,24.646656 C240.298267,22.9650605 240.619233,21.2839803 240.940714,19.6023849 C240.977808,18.8362904 241.014387,18.0696807 241.061785,17.0918412 C242.545546,18.9300558 242.826842,21.0222614 243.516173,22.963515 C244.484223,25.6873492 243.623333,28.2514732 243.183357,30.8696925 C242.755745,32.5636527 242.327618,34.2570976 241.900007,35.9510577 C238.355467,44.6501199 233.200429,52.327551 227.029428,59.3578977 C226.467865,59.9987999 225.863027,60.6010624 225.257673,61.2424798 L215.094428,61.2424798 C215.932134,60.4135316 216.553974,59.7870548 217.187664,59.1724276 C223.777004,52.7701033 229.611068,45.7588189 234.317887,37.8464589 C235.053585,36.6099917 235.652756,35.2921237 236.315297,34.0118649 C237.165368,32.1128573 238.866541,28.3143269 238.866541,28.3143269 L239.9773,24.646656 Z" id="path-1"></path>
    </defs>
    <g id="Right-Rail-Progression" stroke="none" stroke-width="1" fill="none" fill-rule="evenodd">
        <g id="Group-19" transform="translate(0.000000, 1.000000)" fill-rule="nonzero">
            <path d="M104.431902,27.847978 C104.278827,28.229642 104.186596,28.4544908 104.098227,28.6807871 C102.279192,33.3336129 100.465951,37.9888514 98.6358096,42.6368522 C98.3460768,43.3717121 98.001296,44.0877541 97.6309218,44.7854605 C97.511648,45.0093449 97.2223993,45.2891991 97.0210351,45.2819621 C96.8288462,45.2747242 96.5603609,44.957234 96.4782705,44.7232178 C95.7389701,42.6117618 95.0300915,40.489691 94.3197649,38.3685853 C92.6895387,33.5034558 91.064141,28.6368788 89.4348796,23.7717493 C89.3431316,23.4972022 89.2253068,23.2323052 89.1340411,22.9572756 C88.8095413,21.9821266 88.2088299,21.3818866 87.1121932,21.376579 C86.9286962,21.375614 86.7461648,21.1946734 86.5636335,21.0972067 C86.7577541,20.9833348 86.9465626,20.785989 87.14841,20.7719963 C87.7244936,20.7314656 88.3058897,20.7710313 88.8853544,20.7700662 C90.6604469,20.7662061 92.4360228,20.756556 94.2111153,20.7560735 C94.44097,20.755591 94.6766188,20.7695838 94.8963326,20.8279672 C94.9958069,20.8545051 95.1281178,21.0064952 95.1252207,21.0981718 C95.1228061,21.1845407 94.9760084,21.3104754 94.8697734,21.3418384 C94.6882078,21.3944318 94.4873269,21.3799565 94.2965869,21.4055294 C93.5862594,21.5010661 93.3819982,21.73653 93.5215529,22.4598098 C93.6784907,23.2728359 93.8779235,24.080072 94.114538,24.8737978 C95.4366826,29.3090126 96.7757287,33.7398848 98.110428,38.171722 C98.1427821,38.2769088 98.1910703,38.377753 98.285233,38.6151469 C98.4185104,38.3005516 98.5112241,38.1022408 98.5875205,37.8976573 C100.530658,32.6938072 102.472347,27.4885094 104.415002,22.2841768 C104.509648,22.03086 104.575803,21.7558303 104.723567,21.5382192 C104.88485,21.3008252 105.126777,21.1179546 105.333936,20.9114412 C105.525159,21.1102345 105.733283,21.2955176 105.900362,21.5126462 C106.002734,21.6458185 106.042331,21.8272415 106.10897,21.9879168 C108.288239,27.2448429 110.467507,32.5022515 112.648708,37.758695 C112.719693,37.9304679 112.805163,38.0969332 112.936992,38.3801655 C113.033087,38.1094785 113.09393,37.9565233 113.141253,37.7997082 C114.467261,33.364976 115.800029,28.9321738 117.10817,24.492134 C117.302774,23.8315804 117.42591,23.1415937 117.499792,22.4559497 C117.564015,21.8528144 117.295047,21.5739248 116.697716,21.4634304 C116.451927,21.4171096 116.192133,21.4272423 115.952622,21.3621037 C115.790371,21.317713 115.651782,21.1859883 115.502571,21.0938292 C115.658543,20.9838173 115.807755,20.7932266 115.971454,20.7792339 C116.470759,20.7372557 116.974893,20.7628286 117.477095,20.7623461 C118.788134,20.7613811 120.099655,20.7613811 121.411177,20.7604161 C121.66276,20.7604161 121.922554,20.7136128 122.162065,20.7657237 C122.372605,20.811562 122.559964,20.965482 122.757465,21.0721163 C122.578797,21.1758556 122.397715,21.3732014 122.221461,21.3688588 C120.981407,21.3399084 120.446368,22.1157814 120.093377,23.1377336 C118.663549,27.2757234 117.215854,31.407923 115.802444,35.5517028 C114.812525,38.4535068 113.873309,41.3731634 112.897395,44.280757 C112.756875,44.6995742 112.717761,45.2935422 112.12719,45.3065697 C111.571387,45.3181498 111.498471,44.7434823 111.336221,44.3555466 C109.137637,39.1063402 106.952573,33.8513441 104.763163,28.5987607 C104.68252,28.4047924 104.593669,28.2146842 104.431902,27.847978" id="Fill-6" fill="#4D4D4D"></path>
            <path d="M190.192447,27.7537441 L190.192447,32.2647127 C190.192447,32.284013 190.194861,32.3037958 190.192447,32.3226137 C190.115667,32.8770155 190.385118,33.1616953 190.915328,33.2162188 C191.585093,33.2852174 192.256306,33.3754464 192.928484,33.3860616 C194.832508,33.4145296 195.900654,32.670502 196.552069,30.8741243 C197.08421,29.4053695 197.147952,27.893189 196.822003,26.3752185 C196.395613,24.3863199 195.28111,22.9624384 193.242361,22.4862029 C192.491472,22.3110524 191.676841,22.4003165 190.891184,22.3814986 C190.391879,22.3699184 190.176029,22.6015223 190.184237,23.1274562 C190.208382,24.6690697 190.192929,26.2116482 190.192447,27.7537441 M196.642369,33.6900417 C197.544884,34.8220058 198.40056,35.937082 199.299696,37.0159703 C200.720832,38.7197065 202.141969,40.4248902 203.618637,42.0794106 C204.584895,43.1621588 205.759276,43.9703596 207.244637,44.206789 C207.510224,44.2492497 207.787884,44.2352572 208.047678,44.2979833 C208.168882,44.3269331 208.261597,44.4750631 208.367349,44.5696347 C208.266908,44.6690318 208.169365,44.7713238 208.064096,44.8649296 C208.039468,44.8866433 207.989249,44.8861608 207.9511,44.8847125 C206.065426,44.8210215 204.172509,44.8326016 202.29601,44.6613115 C201.277118,44.5681873 200.421925,43.8931585 199.777754,43.113908 C198.414081,41.4661428 197.11753,39.762889 195.816149,38.0644604 C195.182601,37.237924 194.593479,36.3771295 193.999045,35.5216425 C193.745529,35.1573489 193.438413,34.9879886 192.981119,34.9947437 C192.229264,35.0048764 191.476443,34.959038 190.724588,34.9310526 C190.421335,34.9204375 190.182306,34.9624157 190.193413,35.3522822 C190.262948,37.7990809 190.284195,40.2487747 190.416023,42.6921959 C190.475418,43.7942447 190.807644,44.0292259 191.89414,44.1759084 C192.314252,44.2323615 192.743056,44.2260895 193.16027,44.2946052 C193.290167,44.316318 193.39447,44.4909863 193.510846,44.5952081 C193.400265,44.6864024 193.301756,44.8210215 193.175723,44.8576926 C192.995123,44.9102859 192.794242,44.8996708 192.60157,44.8996708 C189.937965,44.8996708 187.273878,44.9020831 184.60979,44.8885731 C184.274666,44.8871257 183.853589,45.0569685 183.661882,44.5797674 C183.956443,44.4716858 184.246175,44.2926753 184.54798,44.2685501 C185.645582,44.1797682 185.960425,43.9631225 186.113982,42.879409 C186.240499,41.984839 186.325487,41.0762762 186.328868,40.1735035 C186.349149,34.8490262 186.341906,29.5240665 186.336593,24.1995893 C186.336593,23.7576118 186.298928,23.3127393 186.242914,22.8741394 C186.133299,22.0123799 185.736848,21.6090032 184.879723,21.4782434 C184.518041,21.4232375 184.144286,21.4401253 183.785984,21.3706441 C183.573031,21.3296309 183.380359,21.184396 183.178512,21.0859643 C183.395329,20.9749874 183.608282,20.7771591 183.828961,20.7689565 C184.599649,20.7414535 185.372751,20.7868093 186.144404,20.7892218 C187.70751,20.7950119 189.271098,20.8172073 190.833238,20.7853618 C192.610262,20.7486911 194.380043,20.707678 196.137269,21.0753491 C200.401644,21.9660591 201.681295,25.9144232 200.306516,29.224429 C199.677314,30.7404695 198.608684,31.9240619 197.405813,33.0024676 C197.16437,33.2186313 196.923409,33.4362425 196.642369,33.6900417" id="Fill-8" fill="#4D4D4D"></path>
            <path d="M127.003588,34.884394 L133.19758,34.884394 C132.179171,32.1012872 131.19553,29.4127519 130.211889,26.7242166 C130.159254,26.7319367 130.107103,26.7396568 130.054468,26.747377 C129.049097,29.4291571 128.043244,32.1109374 127.003588,34.884394 L127.003588,34.884394 Z M140.040089,44.8510823 C138.958905,44.8510823 137.877721,44.8544596 136.796537,44.8486691 C136.566199,44.8472217 136.331516,44.8332292 136.10794,44.7844956 C135.993979,44.759888 135.900298,44.645051 135.797926,44.5712273 C135.875671,44.4756907 135.937481,44.319358 136.033575,44.2933029 C136.602899,44.1417949 136.570545,43.7803966 136.406847,43.3490342 C135.614912,41.2573615 134.820563,39.1661712 134.040701,37.0696734 C133.913702,36.7266101 133.714752,36.603088 133.352103,36.6045356 C131.17042,36.6175633 128.988736,36.6161158 126.807052,36.6055006 C126.468549,36.604053 126.284086,36.719855 126.164813,37.044583 C125.578588,38.6363773 124.963873,40.2185215 124.380062,41.8112808 C124.241956,42.1886022 124.159866,42.5905315 124.090813,42.9876356 C123.944981,43.8228573 124.27769,44.2156186 125.139644,44.2590442 C125.389779,44.2711077 125.647641,44.242157 125.888602,44.2942679 C126.022844,44.323701 126.128596,44.4829286 126.246904,44.5832898 C126.127148,44.6836519 126.021396,44.8206842 125.88329,44.8737601 C125.747599,44.925871 125.579071,44.8949904 125.42503,44.8954729 C123.224514,44.9002976 121.023997,44.9113952 118.823964,44.9012625 C118.51395,44.8993326 118.065348,45.0566303 118.003539,44.5524093 C117.995813,44.4848585 118.490289,44.2715901 118.75298,44.2701419 C120.115687,44.2614574 121.032207,43.5917358 121.548412,42.387878 C122.316686,40.5987379 123.039568,38.7898149 123.76583,36.9833045 C125.815202,31.8841585 127.854918,26.7811525 129.90429,21.6824892 C130.083441,21.2361691 130.272733,20.7874366 130.51804,20.3768221 C130.768175,19.9589701 131.122131,19.9589701 131.387236,20.3652419 C131.596326,20.6851448 131.755679,21.0426833 131.899579,21.3992568 C134.453569,27.7085331 136.994037,34.0231171 139.560582,40.3275683 C139.900534,41.1632724 140.333201,41.9661659 140.779872,42.7516892 C141.360785,43.7736412 142.262818,44.2744849 143.457481,44.27352 C143.718722,44.27352 143.979965,44.4607333 144.240724,44.561577 C143.978999,44.6682112 143.719688,44.8592843 143.454583,44.8670046 C142.317384,44.901745 141.178253,44.8819629 140.040089,44.8819629 L140.040089,44.8510823 Z" id="Fill-12" fill="#4D4D4D"></path>
            <path d="M171.545184,44.8936395 C169.382333,44.8936395 167.219965,44.9042547 165.057597,44.8810944 C164.74855,44.8777163 164.170051,44.6794053 164.175845,44.6176442 C164.227514,44.1110108 164.682394,44.2856791 164.989992,44.2649312 C166.15858,44.1867653 166.532334,43.9011197 166.626014,42.685682 C166.752048,41.052392 166.831241,39.4123469 166.841865,37.7747143 C166.868906,33.6068091 166.852005,29.4389038 166.841381,25.2705161 C166.83945,24.5182859 166.801302,23.7655732 166.748668,23.0152731 C166.681546,22.0497743 166.234393,21.5928391 165.271516,21.4669045 C164.94605,21.4244437 164.609961,21.4427791 164.292704,21.3704029 C164.067678,21.319257 163.865832,21.1624418 163.653362,21.053395 C163.862935,20.9539983 164.071059,20.7716103 164.28208,20.7687152 C165.285519,20.7547225 166.289441,20.8063509 167.292881,20.8029733 C170.728623,20.790428 174.163397,20.7691977 177.598173,20.7359047 C177.920259,20.7330096 178.243793,20.6287879 178.562498,20.5554466 C178.891827,20.4787278 179.058424,20.5974248 179.02607,20.9322854 C178.902452,22.2176871 178.782695,23.5035713 178.625757,24.7846304 C178.60113,24.9839062 178.389625,25.1605042 178.264558,25.3472349 C178.165082,25.1643643 178.001866,24.9901788 177.975308,24.7976581 C177.755594,23.1942836 177.354315,22.7672639 175.659865,22.6456718 C174.254663,22.5443451 172.842702,22.5578554 171.43412,22.5047794 C171.044914,22.4893392 170.933849,22.6591821 170.934815,23.0191331 C170.943024,25.5662936 170.941093,28.1139365 170.936747,30.6610969 C170.936264,30.9708671 170.992279,31.1831707 171.375691,31.1735206 C173.112153,31.1320248 174.851029,31.14071 176.583628,31.0422784 C177.036092,31.0162229 177.470208,30.667852 177.913981,30.4695412 C178.061745,30.4039201 178.213372,30.3469841 178.363066,30.2861881 C178.406526,30.4425208 178.497309,30.6027134 178.486685,30.755186 C178.379485,32.2167031 178.263109,33.6772553 178.124521,35.1353948 C178.110034,35.2888324 177.936194,35.4268297 177.836719,35.5725472 C177.730967,35.4393749 177.600105,35.3182654 177.526223,35.1696529 C177.469725,35.0552985 177.485178,34.905721 177.46731,34.7715837 C177.291057,33.451924 176.803342,32.981961 175.48023,32.9288851 C174.149394,32.8758092 172.816626,32.8680891 171.484824,32.8212858 C171.092236,32.8072931 170.930952,32.9337102 170.932884,33.3438421 C170.949302,35.9103029 170.927089,38.4767636 170.96234,41.0432244 C170.98069,42.3913521 171.491583,42.9930397 172.818557,43.0905064 C174.119938,43.186043 175.440634,43.187973 176.741531,43.0832687 C178.130798,42.9718094 178.705433,42.3334511 179.05794,40.9626455 C179.141481,40.6369525 178.988405,40.0893058 179.558695,40.0970259 C179.635474,40.0979909 179.786134,40.7223565 179.761024,41.0470844 C179.682796,42.0453937 179.564972,43.0422555 179.404171,44.0304325 C179.282966,44.7788025 179.021724,44.9775959 178.263109,44.9814557 C176.023478,44.9930358 173.784331,44.9853154 171.545184,44.9853154 L171.545184,44.8936395 Z" id="Fill-14" fill="#4D4D4D"></path>
            <path d="M153.221408,32.5496338 C153.221408,35.5773722 153.212233,38.6055933 153.230583,41.6333318 C153.23348,42.1486505 153.32716,42.6692767 153.429533,43.1763928 C153.544459,43.7486476 153.924009,44.0796477 154.51313,44.139479 C155.01147,44.1891776 155.515605,44.1997928 156.009115,44.2765113 C156.227862,44.3102867 156.426812,44.4642071 156.634454,44.5640859 C156.418603,44.6794053 156.20903,44.8791637 155.986419,44.8936395 C155.410818,44.9312746 154.829422,44.8772338 154.250923,44.8786812 C151.934514,44.8825419 149.618105,44.8999116 147.301696,44.8946044 C146.969952,44.8936395 146.520385,45.0629998 146.412701,44.5491285 C146.404975,44.5100451 146.93953,44.2900213 147.231195,44.2683085 C148.405576,44.1800098 148.795265,43.8697567 148.883634,42.6297111 C148.989869,41.1305584 149.040572,39.6251329 149.047332,38.1221202 C149.069062,33.2029498 149.052162,28.2837793 149.072926,23.3650915 C149.074857,22.8082771 148.95993,22.5728131 148.340386,22.6094838 C146.568673,22.7146705 144.794064,22.7667814 143.019937,22.8295074 C141.838312,22.8719681 141.15551,23.517564 140.770166,24.5877671 C140.695801,24.7952456 140.446631,24.9395155 140.278104,25.1127359 C140.205671,24.8743769 140.041006,24.6210601 140.075774,24.3995889 C140.263134,23.2203391 140.495403,22.0478443 140.723325,20.8753495 C140.81604,20.3976665 141.048792,20.3195002 141.555823,20.432407 C142.526908,20.6471231 143.530348,20.8174485 144.521232,20.8256512 C149.347689,20.8661818 154.174144,20.8579792 159.0006,20.8386789 C159.68968,20.8357839 160.382623,20.7059891 161.06446,20.5848796 C161.506301,20.5062308 161.693178,20.6447106 161.682072,21.0760729 C161.646338,22.3870475 161.617365,23.6980221 161.557487,25.0080316 C161.550726,25.1537491 161.3624,25.2907814 161.259063,25.4316738 C161.153311,25.3153893 160.983334,25.2130976 160.953395,25.0794429 C160.826879,24.5245585 160.91911,23.8287818 160.325159,23.5383119 C159.628836,23.1981436 158.872635,22.862318 158.116917,22.7875292 C156.603066,22.6365042 155.071349,22.6736573 153.54784,22.6147913 C153.039842,22.5950085 153.11807,22.9317991 153.117587,23.2319193 C153.116622,26.3383066 153.117104,29.4437289 153.117104,32.5496338 L153.221408,32.5496338 Z" id="Fill-16" fill="#4D4D4D"></path>
            <path d="M24.7029554,22.6313414 C24.2094449,22.6313414 23.7671204,22.6168661 23.3262445,22.6342364 C21.7645878,22.695515 20.2029311,22.7703037 18.6407916,22.8354423 C17.5402921,22.8812805 16.856524,23.4670454 16.4900128,24.4721099 C16.450416,24.5811567 16.4383438,24.714329 16.3663936,24.7934603 C16.2514665,24.9198774 16.0964598,25.0110715 15.958837,25.1162582 C15.8810922,24.9758484 15.7284999,24.8296484 15.7386405,24.6955111 C15.7792031,24.1589621 15.8501874,23.6228955 15.9472477,23.0935841 C16.0901823,22.3167461 16.2596757,21.5442505 16.4277203,20.771755 C16.4991876,20.4426845 16.6624034,20.3085472 17.0506446,20.3780283 C18.0883688,20.564759 19.1362337,20.8118032 20.182167,20.8219358 C25.0100716,20.8711517 29.8389419,20.8576414 34.6673293,20.8373761 C35.3757246,20.834481 36.0860515,20.6902111 36.7901008,20.5773043 C37.1773762,20.5150607 37.3459038,20.6482329 37.3367289,21.0226592 C37.3043755,22.3534166 37.2768509,23.6846566 37.2193873,25.0139665 C37.2131098,25.1587189 37.0267154,25.2952687 36.9238604,25.4356786 C36.8185911,25.3164991 36.648132,25.2117949 36.6196416,25.0762101 C36.5056803,24.5353185 36.5389996,23.9505186 36.0459718,23.5485893 C35.3679984,22.9970825 34.5504707,22.813247 33.7228024,22.7625835 C32.2393734,22.672837 30.7506326,22.6713896 29.2647893,22.6134886 C28.8654416,22.5980483 28.7761076,22.7746463 28.7780391,23.1297722 C28.8161872,29.3049113 28.8422631,35.4800504 28.8876545,41.6551894 C28.8910347,42.1516903 28.9900265,42.6520512 29.0866039,43.1422795 C29.2049113,43.7396245 29.5888065,44.0841351 30.2040045,44.1420365 C30.7221423,44.1912518 31.245109,44.2033152 31.7584179,44.2814812 C31.9510898,44.3109143 32.1215489,44.4797921 32.3021487,44.5859438 C32.1176858,44.6906481 31.937569,44.8759316 31.7482773,44.8860634 C31.1519118,44.9179098 30.5526489,44.8768965 29.9543519,44.8778615 C27.6176616,44.8831686 25.2809712,44.9048814 22.9442808,44.8889591 C22.6410278,44.8865468 22.3387405,44.6983685 22.0364533,44.5960765 C22.3276341,44.4826869 22.6125374,44.2935437 22.9109617,44.2694186 C24.0665103,44.1762944 24.4624777,43.8645938 24.5407054,42.6752116 C24.6517694,40.9820905 24.7343431,39.284627 24.7440009,37.5886109 C24.7705596,32.8605137 24.7541414,28.131934 24.7512441,23.4038369 C24.7512441,23.1592052 24.721788,22.9145736 24.7029554,22.6313414" id="Fill-18" fill="#4D4D4D"></path>
            <path d="M12.8649315,23.4319189 C12.8649315,24.1262481 12.8890758,24.8220247 12.8485134,25.5139414 C12.8378898,25.6963295 12.6283168,25.8676199 12.5100095,26.0437354 C12.392668,25.8719624 12.19565,25.7112873 12.17054,25.5269691 C11.8387966,23.0936806 9.93284142,21.5872903 7.48025818,21.8492922 C7.21177299,21.8777601 6.94183914,21.9110532 6.67963147,21.9723317 C4.32797162,22.5194959 3.304734,25.0092379 4.69931175,26.9822137 C5.26815267,27.7870372 6.04511791,28.4639962 6.79938746,29.1148996 C8.12732681,30.2613389 9.55570663,31.2934239 10.8575701,32.4668836 C12.1845437,33.6625388 13.1411429,35.1235734 13.4733691,36.9305663 C14.2377793,41.0854438 11.7398047,44.5927958 7.5391704,45.1882103 C5.35748678,45.497016 3.19366998,45.4371847 1.09117983,44.6415285 C0.459080704,44.4022043 0.167416935,44.0379112 0.20556501,43.3469595 C0.279929614,41.9993143 0.290070241,40.648774 0.362020409,39.3011287 C0.37988723,38.9706107 0.309385722,38.4798999 0.817382883,38.4620471 C0.921686483,38.4586695 1.1220846,38.9730232 1.14574607,39.2601155 C1.43209808,42.6791682 4.41489129,44.6260887 7.66520391,43.496537 C10.0047916,42.6830283 10.9633224,40.148413 9.63779748,37.9071627 C9.07233672,36.9517967 8.21907534,36.1397355 7.39671872,35.36917 C6.49806595,34.5276758 5.41688189,33.8777373 4.53802748,33.0188729 C3.565493,32.0688144 2.59150985,31.0661625 1.86862795,29.9274433 C0.331598526,27.5062175 0.571593382,24.5252823 2.30177763,22.6044174 C3.49644015,21.2789676 5.06002836,20.6526721 6.78634951,20.4167255 C8.68409555,20.1576187 10.5572143,20.3597896 12.4100519,20.8229973 C12.8398214,20.9305967 13.0373222,21.1293901 12.9982083,21.5834302 C12.9455736,22.1981456 12.9277068,22.815756 12.8948705,23.4319189 L12.8649315,23.4319189 Z" id="Fill-22" fill="#4D4D4D"></path>
            <path d="M61.2658578,44.8940733 C59.0073952,44.8940733 56.7489325,44.9046884 54.4909528,44.8815282 C54.1833537,44.878151 53.6072695,44.6726021 53.6140299,44.6127717 C53.6710106,44.1075848 54.1254073,44.2851479 54.4334893,44.2644 C55.5856577,44.1867166 55.9642411,43.9121695 56.0584041,42.7401572 C56.1897493,41.1083147 56.2689428,39.4687521 56.2800492,37.831602 C56.3080567,33.6656268 56.2901899,29.4986865 56.2795663,25.3322288 C56.2776348,24.5804812 56.2375552,23.8287335 56.1926466,23.0779509 C56.1308371,22.0453835 55.6991362,21.5976159 54.6599632,21.4591361 C54.3924438,21.4234305 54.1152666,21.4330806 53.8559563,21.3684246 C53.6603871,21.3201738 53.4865477,21.1860365 53.3025677,21.0900174 C53.498137,20.9790405 53.6883945,20.7841072 53.8897584,20.7715621 C54.4851581,20.7334438 55.0858696,20.773492 55.6836838,20.7720445 C57.9218652,20.7681844 60.1595636,20.7479191 62.397745,20.767702 C62.7212794,20.770597 63.3292342,21.0046134 63.321508,21.0552768 C63.2432803,21.5503301 62.7903322,21.3563619 62.4846647,21.3867598 C60.6984656,21.5657704 60.3990756,21.837905 60.393281,23.6424854 C60.3778286,29.0817996 60.3874864,34.5211137 60.4005243,39.9604278 C60.4014901,40.4588588 60.487444,40.9582547 60.5497364,41.4547556 C60.6579031,42.3169976 61.1842499,42.8091558 62.0095039,42.9505308 C63.6744984,43.2352106 65.3525308,43.2588534 67.0257344,43.0330396 C68.386993,42.8492041 69.0157118,41.9179633 69.3295884,40.6788825 C69.4010558,40.3970977 69.2977179,39.9174846 69.7772247,39.9589804 C69.8805625,39.968148 70.0254287,40.501802 70.0017672,40.7816567 C69.9143646,41.7978188 69.7970231,42.8139809 69.6270469,43.8195278 C69.4686599,44.7599367 69.21611,44.9727226 68.2706172,44.9703102 C66.1478458,44.9654847 64.0250744,44.923024 61.9023029,44.8935908 C61.6898327,44.890696 61.4778453,44.8752553 61.2658578,44.8656059 L61.2658578,44.8940733 Z" id="Fill-24" fill="#4D4D4D"></path>
            <path d="M79.9306007,44.8936395 C77.672138,44.8936395 75.4136753,44.9042547 73.1556955,44.8815769 C72.8476137,44.8781988 72.2695979,44.676993 72.2763583,44.6152318 C72.3285101,44.108116 72.7843554,44.2851966 73.0919545,44.2644487 C74.2460545,44.1872477 74.6309154,43.9122173 74.718318,42.742618 C74.851112,40.9563729 74.9307883,39.1624077 74.9447921,37.3713375 C74.975214,33.397883 74.9558984,29.423946 74.9447921,25.4504916 C74.9423776,24.6601433 74.8984349,23.869795 74.8535264,23.0804117 C74.7960628,22.0671446 74.376434,21.6131045 73.3812038,21.4669045 C73.0765021,21.4215487 72.7611768,21.4307164 72.4622697,21.3646127 C72.2845674,21.3250471 72.1285949,21.1870498 71.9629646,21.0929607 C72.1382526,20.9815013 72.3038828,20.8473641 72.4922088,20.7682327 C72.6076188,20.7190169 72.7587625,20.7532749 72.8934879,20.7532749 C75.633389,20.7532749 78.37329,20.7436248 81.113191,20.7667852 C81.4188585,20.7691977 81.9934941,20.9979066 81.985285,21.0519475 C81.9094717,21.5494134 81.4555579,21.3564102 81.1498904,21.3863256 C79.3607939,21.5648537 79.0585066,21.8398833 79.0536778,23.6386736 C79.0382254,29.0784703 79.0478831,34.5173019 79.0609211,39.9570986 C79.0618869,40.4555295 79.1483237,40.9544428 79.2106161,41.4509437 C79.3187828,42.3122207 79.8417494,42.8077566 80.6674862,42.949614 C82.3329637,43.2352588 84.0105132,43.2574542 85.6841997,43.0340529 C87.0768456,42.8478048 87.6881811,41.8808585 88.0088182,40.6268199 C88.074008,40.370608 88.2917896,40.1534794 88.4390706,39.9180154 C88.519712,40.1862899 88.6867916,40.4613195 88.6650617,40.7209089 C88.5795901,41.737071 88.4656289,42.7537157 88.3028962,43.7607101 C88.1416115,44.759502 87.8895445,44.9674632 86.8774135,44.9747002 C84.5619702,44.9906234 82.246044,44.9800083 79.9306007,44.9800083 L79.9306007,44.8936395 Z" id="Fill-26" fill="#4D4D4D"></path>
            <path d="M44.885219,44.8940733 C43.5336182,44.8940733 42.1825003,44.8935908 40.8308994,44.8945557 C40.7536376,44.8945557 40.6691323,44.9244714 40.6010453,44.9022761 C40.3320772,44.8105993 40.0684208,44.7034827 39.802833,44.602639 C40.0534514,44.4887669 40.2977922,44.2923858 40.555171,44.2750152 C41.9048402,44.1809261 42.1960211,43.9970909 42.3172257,42.6499282 C42.4500197,41.1729708 42.495411,39.6849157 42.5026544,38.2016857 C42.5253501,33.8412598 42.5142437,29.4808337 42.5050689,25.1208903 C42.5036202,24.4270436 42.4577459,23.7327144 42.4089743,23.0403152 C42.3331611,21.9710772 41.9367108,21.5652879 40.8816026,21.4417658 C40.5942848,21.4075077 40.3016553,21.4007526 40.0201322,21.3404391 C39.9172772,21.3187263 39.7743427,21.1821764 39.7690309,21.0919474 C39.7637192,21.0031659 39.8960302,20.8535884 39.9959878,20.8241554 C40.1954201,20.7662544 40.4132022,20.7551567 40.6237409,20.7551567 C43.209601,20.7508142 45.7954611,20.7421291 48.3808383,20.7672194 C48.6565668,20.769632 48.9298808,20.974698 49.2046435,21.0851923 C48.9438845,21.1918266 48.6913346,21.3587744 48.4209179,21.3939975 C46.9563215,21.5879658 46.6052627,21.9117287 46.6023653,23.3824135 C46.5893273,29.5744403 46.5888445,35.7669497 46.6144375,41.9589765 C46.6216808,43.8002273 47.0393781,44.1732066 48.8806264,44.2513725 C49.1882253,44.2644 49.4967902,44.2827356 49.8000432,44.3319517 C49.8893773,44.3459441 50.036175,44.4916617 50.02362,44.5476324 C49.9989927,44.6571622 49.8980693,44.801914 49.7985946,44.8318297 C49.600128,44.8921434 49.3813802,44.903241 49.1708414,44.9017936 C48.4566515,44.896969 47.7424616,44.8728429 47.0282716,44.8660884 C46.3135988,44.8598154 45.599409,44.8646401 44.885219,44.8646401 L44.885219,44.8940733 Z" id="Fill-28" fill="#4D4D4D"></path>
            <path d="M126.856452,54.9914245 L126.68213,54.9914245 C126.33252,55.9250779 125.983392,56.8582489 125.609637,57.8580057 L127.900454,57.8580057 C127.528148,56.8350878 127.192059,55.9134978 126.856452,54.9914245 M118.574939,57.3605392 C119.317619,57.3677771 119.703446,57.1352083 119.965654,56.4722421 C120.247177,55.7624731 120.248626,55.0367808 119.939095,54.3376261 C119.627151,53.6331642 119.044789,53.3171214 118.284724,53.2872058 C117.834191,53.269836 117.605785,53.4232731 117.619306,53.9154316 C117.642002,54.7414851 117.623652,55.5689868 117.624618,56.3964885 C117.625584,57.2572832 117.72023,57.3523372 118.574939,57.3605392 M118.545966,61.39672 L115.716248,61.39672 C115.873669,61.1491937 116.218933,60.8563112 116.226659,60.5547433 C116.285572,58.3583661 116.269637,56.1600591 116.293781,53.9622345 C116.301024,53.348002 116.079379,52.9619952 115.432793,52.8838293 C116.844272,52.8838293 118.269272,52.7632018 119.664332,52.9156748 C121.253996,53.0893773 121.941145,54.6522215 121.154039,56.0553548 C120.932394,56.4514942 120.604997,56.7993825 120.27953,57.1226632 C120.061266,57.3397913 119.985453,57.4917819 120.200337,57.7460635 C120.971508,58.6604165 121.728674,59.5863495 122.501777,60.4992551 C122.636985,60.6584827 122.805996,60.8341159 122.992873,60.890569 C123.159468,60.9402676 123.441475,60.8997368 123.549159,60.7844173 C123.725413,60.5962391 123.816195,60.3207271 123.916636,60.0712701 C124.81722,57.8348455 125.710078,55.5945602 126.611146,53.3576522 C126.714966,53.1004749 126.857418,52.8587383 127.052021,52.4688718 C127.242279,52.8177259 127.377005,53.0165185 127.465372,53.2336474 C128.359197,55.431472 129.241914,57.6346038 130.138152,59.8309809 C130.268531,60.1508843 130.42209,60.4693395 130.616693,60.7525718 C130.970649,61.2688554 131.849987,61.510592 132.376817,61.1935843 C132.580595,61.0710269 132.738982,60.744369 132.771335,60.4920172 C132.839422,59.9593279 132.812381,59.4145769 132.822038,58.8746498 C132.857289,56.984666 132.889643,55.0946814 132.926825,53.2046967 C132.930205,53.0382322 132.960627,52.8727316 132.997809,52.5267732 C135.228264,54.8128964 137.352484,56.9899732 139.477188,59.1670499 C139.529822,59.1511275 139.582939,59.1352043 139.63654,59.119282 C139.63654,58.5359292 139.646198,57.9525773 139.634126,57.369707 C139.61143,56.3091539 139.57135,55.2490843 139.545758,54.1890137 C139.523062,53.2553603 139.457872,53.1574114 138.530729,52.8510188 L141.129627,52.8510188 C140.375841,52.9894985 140.441513,53.5767111 140.431855,54.1258051 C140.393707,56.3627131 140.356042,58.6001027 140.312099,60.8370107 C140.307753,61.0589644 140.263811,61.2799531 140.138743,61.5636679 C137.937261,59.5125258 135.788896,57.4391885 133.655985,55.086961 C133.62846,55.4473952 133.597555,55.6389508 133.602384,55.8295414 C133.636669,57.2756178 133.673851,58.7216952 133.719726,60.1677716 C133.746284,61.0092658 133.856866,61.1385786 134.788354,61.3861048 L129.197972,61.3861048 C128.85995,60.4659622 128.556697,59.587797 128.203224,58.7308629 C128.147692,58.596243 127.867135,58.4905737 127.685569,58.481406 C127.068922,58.4510079 126.446964,58.4360505 125.833697,58.4886439 C125.618813,58.5069785 125.331494,58.6927444 125.2354,58.8818877 C124.991542,59.3605361 124.820601,59.8792321 124.651107,60.3911735 C124.44926,61.0015463 124.546804,61.1655985 125.153792,61.4835712 C124.319364,61.4835712 123.484452,61.5062498 122.650988,61.4758517 C122.032893,61.4536564 121.471779,61.2278422 121.075811,60.7289291 C120.489103,59.9887611 119.891289,59.2529362 119.368323,58.4688609 C119.04334,57.9810447 118.62854,57.847873 118.10171,57.8411176 C117.794111,57.8372578 117.623652,57.9516124 117.628964,58.2753746 C117.638622,58.9499218 117.641519,59.625433 117.657937,60.2999792 C117.671941,60.8838136 117.868475,61.3228962 118.545966,61.39672" id="Fill-30" fill="#4D4D4D"></path>
            <path d="M189.303548,57.4110584 C189.268297,56.1290342 188.968907,55.1529201 188.32039,54.3215586 C187.069713,52.7167362 184.484335,52.7717428 183.531599,54.4228856 C182.608803,56.0238474 182.893223,58.7287879 184.171424,60.0605107 C185.002956,60.92613 186.045026,61.2812562 187.230031,60.976311 C188.402481,60.6742607 188.918205,59.7719703 189.143229,58.6675092 C189.227252,58.2549649 189.251879,57.8303581 189.303548,57.4110584 M181.487056,57.1196232 C181.487539,54.4788563 183.421018,52.6265077 186.178786,52.6255427 C189.022508,52.6240953 190.863756,54.3239709 190.851684,56.9386829 C190.839129,59.6561684 188.842874,61.6170819 186.091867,61.6156336 C183.355828,61.6137038 181.487056,59.7888584 181.487056,57.1196232" id="Fill-32" fill="#4D4D4D"></path>
            <path d="M95.8227024,61.6169854 C94.7516591,60.5530542 93.6719239,59.4963618 92.611504,58.4222988 C91.5631563,57.3602984 90.5336407,56.27948 89.3587771,55.2589753 C89.3587771,55.7115679 89.3491195,56.1641605 89.3607085,56.6162706 C89.3906471,57.7728427 89.4244493,58.9294147 89.4674267,60.0850218 C89.4988143,60.9318231 89.6388514,61.1132468 90.4698999,61.3935835 L87.754626,61.3935835 C88.6088534,61.3173474 88.5513899,60.6852618 88.5605643,60.0888815 C88.5967811,57.8133735 88.634446,55.5378654 88.6774234,53.2633214 C88.6812861,53.0679061 88.7300576,52.8739374 88.7793124,52.5284623 C91.0034902,54.8112082 93.117087,56.9800821 95.3528538,59.2744082 C95.3765151,58.9086668 95.4006596,58.7277264 95.3972793,58.5472685 C95.3663741,57.0823732 95.3311239,55.6165138 95.2953903,54.1516194 C95.2717282,53.1779176 95.2326143,53.1277374 94.2455937,52.8517421 L96.8604267,52.8517421 C96.1201615,53.0765914 96.1906629,53.6913064 96.1810052,54.2703161 C96.1433395,56.5072241 96.1042256,58.7436488 96.0631804,60.9805567 C96.0602834,61.1484696 96.0342075,61.3163825 96.0192373,61.4847778 C95.9535652,61.5286859 95.8883754,61.5730764 95.8227024,61.6169854" id="Fill-34" fill="#4D4D4D"></path>
            <path d="M175.360185,55.3146565 L175.363565,55.3146565 C175.363565,55.7961998 175.331212,56.2811204 175.3795,56.7573565 C175.398333,56.943604 175.567344,57.230697 175.718487,57.2688146 C176.676052,57.5095862 177.495028,57.385099 177.763514,56.2878758 C177.890513,55.7667666 177.885684,55.1747294 177.784761,54.6449358 C177.616716,53.7677355 176.848442,53.267375 175.955102,53.2857106 C175.548028,53.294395 175.34763,53.4497628 175.35777,53.8705099 C175.369842,54.3515707 175.360185,54.8335965 175.360185,55.3146565 L175.360185,55.3146565 Z M173.387592,61.4029442 C174.008584,61.2470939 174.027899,60.7351534 174.046732,60.2820783 C174.085364,59.3382922 174.077637,58.3925762 174.080051,57.4473426 C174.082466,56.3288891 174.082466,55.2094697 174.072808,54.0910161 C174.065565,53.2089911 173.995064,53.1269646 173.170292,52.909354 C174.617022,52.909354 176.098036,52.7699094 177.539937,52.9479541 C179.034472,53.1327551 179.655465,54.6487955 178.935963,56.0056084 C178.732668,56.3892028 178.430864,56.7370911 178.116022,57.0405889 C177.824841,57.3209255 177.751441,57.5182715 178.040208,57.8516849 C178.722045,58.638655 179.329999,59.4926951 180.047569,60.2434774 C180.49762,60.7134406 181.09302,61.0449232 181.53631,61.3739935 C180.445469,61.724295 179.317444,61.4101821 178.513437,60.3824396 C177.99047,59.7146487 177.508066,59.0150115 177.00683,58.3298501 C176.741242,57.9670044 176.014497,57.7030717 175.630119,57.8729153 C175.509397,57.9255087 175.380467,58.1281618 175.381915,58.2608519 C175.389641,59.0700172 175.410889,59.8806317 175.474146,60.6869022 C175.507466,61.1013772 175.677442,61.1872635 176.376179,61.4029442 L174.887922,61.4029442 L173.387592,61.4029442 Z" id="Fill-36" fill="#4D4D4D"></path>
            <path d="M170.702498,55.0031976 C169.997483,53.6164691 168.614011,52.9438535 166.850508,53.195722 C165.334243,53.4123685 164.290724,54.4516912 164.224568,55.969179 C164.1898,56.7826874 164.228914,57.644447 164.4607,58.4159781 C165.011675,60.2490262 166.824915,61.3090968 168.712521,61.0533677 C169.190096,60.9882284 169.443129,60.7575895 169.432022,60.2562641 C169.419951,59.6777369 169.432505,59.0987271 169.425262,58.5201999 C169.414638,57.6154972 169.340274,57.5185123 168.420857,57.2420354 L171.495882,57.2420354 C170.795695,57.394026 170.808733,57.9329873 170.813562,58.4772567 C170.820323,59.1715859 170.798593,59.8663976 170.818391,60.5607268 C170.829015,60.9308104 170.677388,61.139254 170.335021,61.2415451 C168.412165,61.8147652 166.509107,61.8123529 164.708421,60.8656719 C163.064674,60.0015 162.490039,58.507654 162.626212,56.7358845 C162.760455,54.9945123 163.636895,53.7279288 165.277262,53.0461446 C166.631277,52.4835406 168.037928,52.5756998 169.44168,52.7817303 C170.7194,52.9689436 170.716502,52.9872792 170.702981,54.2779878 C170.700567,54.5197244 170.702498,54.761461 170.702498,55.0031976" id="Fill-38" fill="#4D4D4D"></path>
            <path d="M198.094072,52.8545413 L200.724358,52.8545413 C199.989403,52.9380144 199.955119,53.4943463 199.94353,54.0236584 C199.918419,55.1802304 199.930974,56.3377673 199.919385,57.4948218 C199.915522,57.8991633 199.925179,58.3092952 199.865784,58.7073645 C199.468851,61.3712917 196.226265,62.6229178 194.088524,60.9466849 C193.314939,60.3401719 193.004926,59.5035032 192.971124,58.5650242 C192.917523,57.1010947 192.907383,55.6362003 192.881789,54.1713058 C192.864889,53.1932618 192.865854,53.1903661 191.975893,52.8468209 L195.02629,52.8468209 C194.270089,53.0369291 194.337211,53.6468194 194.346869,54.2074935 C194.375842,55.8441615 194.322241,57.4904788 194.485457,59.1146016 C194.635152,60.6012089 195.953434,61.3500614 197.376502,60.9452375 C198.252942,60.6957805 198.81454,60.0911982 198.860897,59.2159278 C198.958923,57.3703346 198.953611,55.5189509 198.969063,53.6699796 C198.973892,53.0986902 198.515149,52.9799926 198.094072,52.8545413" id="Fill-40" fill="#4D4D4D"></path>
            <path d="M113.809085,52.8375567 C113.128698,52.9326107 113.049505,53.428629 113.041295,53.9574576 C113.022946,55.1526306 113.019565,56.3478036 113.004113,57.5429757 C112.998801,57.9285 113.00363,58.3169191 112.952444,58.6981003 C112.782951,59.9540686 112.197692,60.9446585 110.949912,61.3673355 C109.627284,61.8151025 108.3119,61.7605793 107.141865,60.9094348 C106.348964,60.3328383 106.080961,59.4561205 106.051505,58.5186073 C106.004183,57.0160769 105.97859,55.5125815 105.979072,54.0095685 C105.979072,53.3803787 105.789781,52.9630088 105.114222,52.8549273 L108.133231,52.8549273 C107.476505,52.9958193 107.420973,53.4942499 107.430631,54.0197012 C107.461536,55.6949701 107.405038,57.3789234 107.563425,59.0421288 C107.710223,60.5793996 109.01112,61.3518947 110.45447,60.9461059 C111.30242,60.7077466 111.842287,60.140317 111.940796,59.2814531 C112.049929,58.3284992 112.050411,57.3615528 112.074072,56.3999145 C112.093389,55.6293483 112.081799,54.8578181 112.073107,54.086288 C112.063932,53.2061928 111.981359,53.1063132 111.153207,52.8375567 L112.489839,52.8375567 L113.809085,52.8375567 Z" id="Fill-42" fill="#4D4D4D"></path>
            <path d="M150.615991,59.4994018 C150.536797,59.9688817 150.497201,60.450425 150.359578,60.9020526 C150.299217,61.1003636 150.062603,61.3435476 149.86655,61.3874557 C148.084215,61.7860075 146.322642,61.7551269 144.701107,60.8123066 C143.071847,59.8656256 142.33641,58.0383671 142.725617,56.1175019 C143.094543,54.2984462 144.496364,52.920403 146.388798,52.7621404 C147.584909,52.6617791 148.803233,52.824384 150.011417,52.880838 C150.410764,52.8996551 150.574463,53.1143717 150.543075,53.5322231 C150.506375,54.0171446 150.534383,54.5064074 150.47016,54.9922929 C149.610621,53.4530923 148.79261,53.0130447 146.980335,53.1790277 C146.089408,53.2605718 145.361697,53.6374099 144.845008,54.3983258 C143.904827,55.7816762 143.835774,58.9285949 145.915569,60.3317282 C146.901624,60.9966242 147.959629,61.0965039 149.073167,60.8649 C149.723616,60.7293151 149.921599,60.495298 150.615991,59.4994018" id="Fill-44" fill="#4D4D4D"></path>
            <path d="M205.582587,61.3973954 L202.469898,61.3973954 C203.103445,61.2941385 203.176844,60.8309307 203.178293,60.3238149 C203.18457,58.2234567 203.179259,56.1226169 203.19954,54.0222588 C203.205334,53.4041656 203.073024,52.9419228 202.35159,52.8748545 C203.744236,52.8748545 205.140746,52.8193663 206.529529,52.8965673 C207.315669,52.9404754 207.961772,53.3776281 208.212391,54.1974095 C208.49826,55.1286497 208.248124,55.9551865 207.621337,56.6649556 C207.007104,57.3607322 206.209858,57.599574 205.2803,57.4369691 C205.356596,57.4109132 205.431927,57.3781028 205.510155,57.3612147 C206.407358,57.1657994 206.964128,56.4936654 207.002276,55.5547049 C207.047184,54.4434883 206.558985,53.6212946 205.690271,53.3433703 C204.891576,53.0881229 204.627437,53.2753362 204.628886,54.1071801 C204.631783,56.1322672 204.631783,58.1573533 204.647235,60.1824404 C204.654478,61.0736323 204.727394,61.1435962 205.582587,61.3973954" id="Fill-46" fill="#4D4D4D"></path>
            <path d="M157.410357,52.8342759 C157.378003,53.2868685 157.344201,53.7577957 157.310399,54.2292063 C157.063644,53.7824042 156.807231,53.4137681 156.254808,53.40846 C155.772403,53.4046003 155.288068,53.3751671 154.81001,53.4161804 C154.697497,53.4263131 154.523175,53.6723919 154.517863,53.8152147 C154.48889,54.5857799 154.48551,55.3577935 154.52076,56.1278763 C154.527038,56.2726289 154.745786,56.5249798 154.869888,56.527393 C155.629469,56.5404205 156.390499,56.4945826 157.216719,56.4661143 C157.187263,56.8569458 157.148149,57.3712995 157.109518,57.8861358 C156.903325,57.4316133 156.636288,57.1049553 156.099318,57.1112274 C155.656028,57.1175004 155.20984,57.0933752 154.770896,57.1368008 C154.670938,57.1469335 154.520278,57.378055 154.51738,57.5097792 C154.498548,58.3382459 154.505791,59.1676775 154.522692,59.9966266 C154.533316,60.5457207 154.824979,60.8627284 155.38368,60.874791 C155.824073,60.8849237 156.300199,60.9553702 156.696167,60.8159247 C157.076682,60.6817881 157.37414,60.3126694 157.731476,60.0279897 C157.677393,60.3816676 157.656629,60.8178554 157.522869,61.2168897 C157.476029,61.3572993 157.153944,61.4803391 156.95596,61.4832339 C155.434866,61.5054292 153.913288,61.4952965 152.36129,61.4142349 C153.000149,61.2458395 153.086586,60.7696042 153.089484,60.2750334 C153.101073,58.1148448 153.096243,55.9556203 153.100589,53.7959142 C153.101555,53.1778211 152.732146,52.9524902 152.18069,52.8342759 L157.410357,52.8342759 Z" id="Fill-48" fill="#4D4D4D"></path>
            <path d="M103.316434,54.5240188 C103.248829,54.3512812 103.191366,54.1737182 103.112655,54.0062878 C102.723931,53.1826466 101.603633,52.8608134 100.831497,53.3471814 C100.255896,53.7095454 100.068053,54.43765 100.506997,55.0055621 C100.853709,55.4552599 101.33708,55.7992884 101.754294,56.1959095 C102.25553,56.6716623 102.840307,57.0904795 103.231445,57.6453641 C104.333876,59.2101382 103.526006,61.1778063 101.639366,61.4972264 C100.939663,61.6159231 100.192154,61.4803391 99.4697551,61.4205078 C99.1162824,61.3910746 98.9448568,61.1493381 98.9588604,60.7739465 C98.9762444,60.3015718 98.962724,59.8272655 98.962724,59.3544075 L99.1191794,59.3375202 C99.1636049,59.4668322 99.214791,59.5946967 99.2519735,59.7259393 C99.5503974,60.7869748 100.333158,61.2685173 101.409995,61.0494593 C102.229938,60.8834763 102.767874,60.0786523 102.449652,59.3085695 C102.246356,58.8164111 101.85232,58.3811891 101.473253,57.9889102 C101.019823,57.5194295 100.466434,57.147416 99.9999651,56.6890329 C99.2688742,55.9696136 98.9820393,55.0779384 99.3108851,54.0936215 C99.6310398,53.1343955 100.453396,52.7618996 101.385851,52.6803555 C101.934893,52.6321043 102.502286,52.693383 103.048431,52.7845773 C103.213096,52.8120806 103.425083,53.0914523 103.454056,53.2805955 C103.516349,53.6834895 103.472889,54.1027892 103.472889,54.5153335 C103.420737,54.5182292 103.368585,54.521124 103.316434,54.5240188" id="Fill-50" fill="#4D4D4D"></path>
            <path d="M82.8604694,52.8455665 L85.7428222,52.8455665 C84.9774462,52.9941789 85.0527766,53.5886285 85.0522937,54.1391708 C85.0518108,56.1242086 85.0484306,58.1097298 85.0571226,60.0947685 C85.0614686,61.0810153 85.145008,61.168349 86.0933982,61.3758278 L82.8696443,61.3758278 C83.456835,61.3145491 83.6089444,60.919857 83.6118417,60.408399 C83.6243967,58.1932038 83.6417806,55.9775261 83.6485411,53.7618493 C83.6499898,53.2465307 83.3641206,52.9531656 82.8604694,52.8455665" id="Fill-52" fill="#4D4D4D"></path>
            <g id="Fill-4" stroke="#4D4D4D">
                <use stroke-width="0.1" fill="#4D4D4D" fill-rule="evenodd" xlink:href="#path-1"></use>
                <use stroke-width="1" xlink:href="#path-1"></use>
            </g>
            <path d="M240.94092,19.6022818 C240.619439,21.2838773 240.298473,22.9649575 239.977506,24.6465529 C235.779185,22.6501736 231.250109,21.8660472 226.725154,21.1272581 C222.794733,20.4853255 218.835977,20.0216503 214.830854,19.4719376 L214.830854,12.4544708 C223.901887,13.8114936 232.913157,14.8465197 240.94092,19.6022818" id="Fill-14" stroke="#4D4D4D" fill="#4D4D4D"></path>
            <path d="M238.866541,28.3143269 C238.016469,30.2133345 237.165368,32.1128573 236.315297,34.0118649 C233.997951,33.6630781 231.685242,33.2777125 229.361714,32.974778 C226.53278,32.6064138 223.700755,32.2236242 220.857395,32.0056968 C218.915111,31.8562904 216.952735,31.9768459 214.858468,31.9768459 L214.858468,25.0067771 C217.585394,24.4513972 232.646595,26.3462832 238.866541,28.3143269" id="Fill-20" stroke="#4D4D4D" fill="#4D4D4D"></path>
            <path d="M214.858675,7.34683072 L214.858675,0.415401472 C217.472257,1.03002873 219.957556,1.4875216 222.364031,2.20879416 C226.034278,3.30925 229.602001,4.70594278 232.928613,6.64977232 C235.693147,8.26645323 238.164536,10.2231626 239.802855,13.0263369 C240.377297,14.0093283 240.673019,15.1540909 240.93886,16.3050358 C236.820393,12.7110377 231.838976,11.1809095 226.825101,9.85428324 C222.97196,8.83471296 219.016811,8.20256909 214.858675,7.34683072" id="Fill-26" stroke="#4D4D4D" fill="#4D4D4D"></path>
            <path d="M250.831731,42.465849 C255.238191,48.5832707 254.973381,54.7084202 253.094981,61.1602032 L246.761693,61.1602032 C247.79981,58.1818628 248.733343,55.199916 249.879651,52.3024611 C251.079024,49.2726011 250.66996,46.1242464 250.831731,42.465849" id="Fill-34" stroke="#4D4D4D" fill="#4D4D4D"></path>
            <path d="M245.187293,37.2941959 C244.170298,36.8841009 242.91731,36.3607405 241.899801,35.9511607 C242.327412,34.2566854 242.755539,32.5632405 243.183151,30.8697956 C243.979127,31.387051 244.775618,31.9037913 245.571593,32.4210468 C245.824039,34.0670938 245.633451,35.7388231 245.187293,37.2941959 Z" id="Fill-58" stroke="#4D4D4D" fill="#4D4D4D"></path>
            <path d="M245.571593,29.2215757 C247.978583,32.4662718 248.774332,37.6022744 250.470868,41.4232372 C249.709926,41.2491014 249.410824,40.7079532 248.81732,40.5719418 C248.114594,48.2287652 244.910083,54.8794133 240.771524,61.2266118 L232.214656,61.2266118 C232.746852,60.4615477 233.157977,59.811372 233.625774,59.2060183 C238.609252,52.7619632 242.738023,45.8655672 244.921933,37.936721 C244.986847,37.6997315 245.571593,35.3613983 245.571593,32.4210468 C245.571593,31.4559308 245.481949,29.4147737 245.571593,29.2215757 Z" id="Fill-12" stroke="#4D4D4D" fill="#4D4D4D"></path>
        </g>
    </g>
</svg>