<?xml version="1.0" encoding="UTF-8"?>
<svg width="61px" height="19px" viewBox="0 0 61 19" version="1.1" xmlns="http://www.w3.org/2000/svg" xmlns:xlink="http://www.w3.org/1999/xlink">
    <!-- Generator: Sketch 43.2 (39069) - http://www.bohemiancoding.com/sketch -->
    <title>Group 4 Copy</title>
    <desc>Created with Sketch.</desc>
    <defs></defs>
    <g id="Icons-&amp;-Logos" stroke="none" stroke-width="1" fill="none" fill-rule="evenodd">
        <g id="Artboard" transform="translate(-100.000000, -23.000000)">
            <g id="Group-4-Copy" transform="translate(100.000000, 23.000000)">
                <polyline id="Fill-2" fill="#004F8B" points="21.5025 18.7072593 24.5861193 0.339537037 29.5177614 0.339537037 26.4320625 18.7072593 21.5025 18.7072593"></polyline>
                <path d="M44.3185795,0.791666667 C43.3415398,0.419407407 41.8106477,0.0204074074 39.8985057,0.0204074074 C35.0257841,0.0204074074 31.5928011,2.51151852 31.5636875,6.08175926 C31.5363068,8.721 34.0144318,10.1935 35.884983,11.0720741 C37.8044034,11.9721111 38.4501023,12.5463333 38.4407443,13.3503148 C38.4286136,14.5814444 36.9077727,15.1440556 35.4902159,15.1440556 C33.5163807,15.1440556 32.4679432,14.8657407 30.8483239,14.1799815 L30.2126761,13.8879444 L29.5205341,17.9996852 C30.6726023,18.5123333 32.80275,18.9567222 35.014,18.9795926 C40.1983068,18.9795926 43.563358,16.5169815 43.6018295,12.7043148 C43.6205455,10.6150185 42.3062727,9.02464815 39.4614545,7.714 C37.7375114,6.86427778 36.6817955,6.29709259 36.6928864,5.43681481 C36.6928864,4.6732963 37.5863977,3.857 39.5172557,3.857 C41.1299432,3.83166667 42.2979545,4.18844444 43.2081023,4.5607037 L43.6500057,4.77251852 L44.3185795,0.791666667" id="Fill-3" fill="#004F8B"></path>
                <path d="M56.964642,0.35712963 L53.153875,0.35712963 C51.9733864,0.35712963 51.0899261,0.684 50.5714261,1.8802963 L43.247267,18.7132407 L48.4260284,18.7132407 C48.4260284,18.7132407 49.27275,16.4497778 49.4644148,15.952963 C50.0303977,15.952963 55.0608182,15.9607037 55.7799943,15.9607037 C55.927642,16.603537 56.3802898,18.7132407 56.3802898,18.7132407 L60.9563295,18.7132407 L56.964642,0.35712963 M50.8837045,12.1958889 C51.2912955,11.1375185 52.8485284,7.06131481 52.8485284,7.06131481 C52.8190682,7.11022222 53.2533466,5.99801852 53.5021989,5.30838889 L53.8356193,6.89207407 C53.8356193,6.89207407 54.7800795,11.2765 54.9772898,12.1958889 L50.8837045,12.1958889" id="Fill-4" fill="#004F8B"></path>
                <path d="M17.3662841,0.352907407 L12.5379261,12.8784815 L12.0235852,10.3328333 C11.124875,7.39838889 8.32442045,4.21940741 5.19331818,2.62798148 L9.60819318,18.6914259 L14.8261193,18.6854444 L22.5901023,0.352907407 L17.3662841,0.352907407" id="Fill-5" fill="#004F8B"></path>
                <path d="M8.05893182,0.341648148 L0.10675,0.341648148 L0.0436704545,0.723759259 C6.23066477,2.24411111 10.32425,5.91814815 12.0235852,10.3328333 L10.2944432,1.89225926 C9.99568182,0.729037037 9.12989773,0.382111111 8.05893182,0.341648148" id="Fill-6" fill="#EE9F2D"></path>
            </g>
        </g>
    </g>
</svg>