<?xml version="1.0" encoding="UTF-8"?>
<svg width="40px" height="24px" viewBox="0 0 40 24" version="1.1" xmlns="http://www.w3.org/2000/svg" xmlns:xlink="http://www.w3.org/1999/xlink">
    <!-- Generator: Sketch 43.2 (39069) - http://www.bohemiancoding.com/sketch -->
    <title>Visa-light</title>
    <desc>Created with Sketch.</desc>
    <defs>
        <rect id="path-1" x="0" y="0" width="39.2727273" height="24" rx="4"></rect>
    </defs>
    <g id="Page-5---Checkout" stroke="none" stroke-width="1" fill="none" fill-rule="evenodd">
        <g id="Payment-Details-|-Desktop" transform="translate(-114.000000, -1740.000000)">
            <g id="Visa-light" transform="translate(114.000000, 1740.000000)">
                <g id="Rectangle">
                    <use fill="#FFFFFF" fill-rule="evenodd" xlink:href="#path-1"></use>
                    <rect stroke="#CCCCCC" stroke-width="0.5" x="0.25" y="0.25" width="38.7727273" height="23.5" rx="4"></rect>
                </g>
                <polyline id="Fill-1" fill="#26337A" points="16.2942509 15.8187042 17.5017841 8.18907042 19.4319826 8.18907042 18.2245598 15.8187042 16.2942509 15.8187042"></polyline>
                <path d="M25.2260002,8.37633803 C24.8443544,8.22321127 24.2441205,8.05622535 23.4963949,8.05622535 C21.5880553,8.05622535 20.2447326,9.09160563 20.2335824,10.5741972 C20.2214386,11.6708732 21.1921681,12.2824789 21.9239964,12.6469859 C22.6761379,13.0206197 22.9288389,13.2597183 22.9258581,13.5938028 C22.9206694,14.1047887 22.3255139,14.3389296 21.7705432,14.3389296 C20.9977573,14.3389296 20.5871871,14.223662 19.9523987,13.9388169 L19.7041136,13.8173521 L19.4341905,15.5251831 C19.8842831,15.7376901 20.7186711,15.9221408 21.584633,15.931831 C23.6127544,15.931831 24.9305752,14.9089577 24.9460309,13.3257465 C24.952986,12.4561127 24.4386418,11.7969577 23.3247261,11.2527324 C22.6501944,10.8989296 22.2362019,10.6645634 22.240949,10.3064789 C22.2413906,9.98940845 22.5906898,9.64991549 23.3466953,9.64991549 C23.9780614,9.6395493 24.435109,9.78805634 24.791253,9.94309859 L24.9645778,10.0303099 L25.2260002,8.37633803" id="Fill-2" fill="#26337A"></path>
                <path d="M27.7961758,13.1136901 C27.9561425,12.6751549 28.5650978,10.9810704 28.5650978,10.9810704 C28.5538372,11.0012394 28.7241813,10.5391549 28.8216627,10.2531831 L28.9519324,10.9112113 C28.9519324,10.9112113 29.3223176,12.7322817 29.3986026,13.1136901 L27.7961758,13.1136901 L27.7961758,13.1136901 Z M30.1774604,8.19684507 L28.6857628,8.19684507 C28.2230848,8.19684507 27.8767664,8.33183099 27.6740756,8.82929577 L24.8075919,15.8214085 L26.8349405,15.8214085 C26.8349405,15.8214085 27.1656929,14.8807887 27.2407635,14.6743662 C27.4618907,14.6743662 29.4318324,14.6783099 29.7130161,14.6783099 C29.7708647,14.9445634 29.9480534,15.8214085 29.9480534,15.8214085 L31.739592,15.8214085 L30.1774604,8.19684507 L30.1774604,8.19684507 Z" id="Fill-3" fill="#26337A"></path>
                <path d="M14.6749332,8.19549296 L12.7856924,13.3970704 L12.5833329,12.3397183 C12.2312737,11.1214648 11.1353529,9.80101408 9.90949362,9.13938028 L11.6378845,15.8120563 L13.6806889,15.8108169 L16.7203872,8.19549296 L14.6749332,8.19549296" id="Fill-4" fill="#26337A"></path>
                <path d="M11.03191,8.19030986 L7.91923868,8.19030986 L7.89362634,8.34839437 C10.3156478,8.98039437 11.918185,10.5059155 12.5833329,12.3397183 L11.9069244,8.83402817 C11.7902338,8.35053521 11.4510911,8.20721127 11.03191,8.19030986" id="Fill-5" fill="#ED982D"></path>
            </g>
        </g>
    </g>
</svg>